<svg width="68" height="156" viewBox="0 0 68 156" fill="none" xmlns="http://www.w3.org/2000/svg">
<g id="Group">
<path id="Vector" d="M30.8718 155.375C47.9219 155.375 61.7437 153.739 61.7437 151.721C61.7437 149.703 47.9219 148.068 30.8718 148.068C13.8218 148.068 0 149.703 0 151.721C0 153.739 13.8218 155.375 30.8718 155.375Z" fill="#AAB4BC" style="fill:#AAB4BC;fill:color(display-p3 0.6667 0.7059 0.7373);fill-opacity:1;"/>
<g id="Group_2">
<g id="Group_3">
<g id="Group_4">
<g id="Group_5">
<g id="Group_6">
<g id="Group_7">
<g id="Group_8">
<g id="Group_9">
<g id="Group_10">
<g id="Group_11">
<g id="Group_12">
<g id="Group_13">
<g id="Group_14">
<path id="Vector_2" d="M43.6431 143.375H37.9159C37.0398 139.679 36.2229 135.188 35.4839 130.956C35.0209 128.308 34.5883 125.761 34.1906 123.577C32.8286 116.099 31.5807 109.07 31.9695 103.169C32.0625 101.759 32.2496 100.411 32.551 99.1384C32.716 98.4382 32.9165 97.7588 33.1545 97.1036L43.2234 96.4918L43.2488 99.3234L43.2675 101.493L43.5268 130.425L43.6431 143.375Z" fill="#B5591D" style="fill:#B5591D;fill:color(display-p3 0.7098 0.3490 0.1137);fill-opacity:1;"/>
</g>
</g>
</g>
</g>
</g>
</g>
</g>
</g>
</g>
</g>
<g id="Group_15">
<path id="Vector_3" d="M43.6435 143.376H37.9164C37.3341 140.921 36.7785 138.114 36.2546 135.267C36.1946 134.944 36.1354 134.619 36.0771 134.295C36.0162 133.963 35.9566 133.63 35.8974 133.298C35.8399 132.974 35.7815 132.65 35.7249 132.327C35.6436 131.868 35.564 131.411 35.4844 130.957C37.7767 130.587 41.0923 130.464 43.5276 130.427L43.5401 131.832L43.5493 132.821L43.5585 133.852L43.5677 134.843L43.6435 143.376Z" fill="#F2F7F9" style="fill:#F2F7F9;fill:color(display-p3 0.9490 0.9686 0.9765);fill-opacity:1;"/>
<g id="Group_16">
<path id="Vector_4" d="M43.5496 132.821C41.8099 132.786 38.9311 132.83 35.8981 133.298C35.8406 132.974 35.7823 132.649 35.7256 132.327C38.8415 131.841 41.7578 131.794 43.5404 131.832L43.5496 132.821Z" fill="#121633" style="fill:#121633;fill:color(display-p3 0.0706 0.0863 0.2000);fill-opacity:1;"/>
</g>
<g id="Group_17">
<path id="Vector_5" d="M43.5669 134.842C41.8968 134.809 39.1652 134.846 36.2547 135.267C36.1947 134.943 36.1355 134.619 36.0771 134.295C39.0701 133.857 41.8443 133.817 43.5577 133.852L43.5669 134.842Z" fill="#121633" style="fill:#121633;fill:color(display-p3 0.0706 0.0863 0.2000);fill-opacity:1;"/>
</g>
</g>
<g id="Group_18">
<path id="Vector_6" d="M43.2681 101.494L31.9697 103.169C32.0623 101.758 32.2494 100.412 32.5512 99.1393L43.249 99.3244L43.2681 101.494Z" fill="#8F2D00" style="fill:#8F2D00;fill:color(display-p3 0.5608 0.1765 0.0000);fill-opacity:1;"/>
</g>
<g id="Group_19">
<g id="Group_20">
<g id="Group_21">
<g id="Group_22">
<g id="Group_23">
<g id="Group_24">
<g id="Group_25">
<g id="Group_26">
<g id="Group_27">
<g id="Group_28">
<g id="Group_29">
<path id="Vector_7" d="M56.7057 152.367H36.17C36.017 152.09 35.934 151.696 35.8999 151.227C35.7715 149.49 36.3254 146.717 36.5967 144.969C36.6297 144.765 36.658 144.575 36.6801 144.402C36.718 144.11 36.741 143.867 36.741 143.689C36.741 142.262 38.0038 142.507 38.0038 142.507C40.082 144.544 42.4352 141.488 43.8089 142.491C43.8089 142.491 44.4004 142.915 46.0313 144.382C47.6605 145.848 50.4343 146.817 52.7946 147.804C55.8421 149.078 56.7062 150.351 56.875 151.227C57.0079 151.921 56.7057 152.367 56.7057 152.367Z" fill="#716D00" style="fill:#716D00;fill:color(display-p3 0.4431 0.4275 0.0000);fill-opacity:1;"/>
</g>
</g>
</g>
</g>
</g>
</g>
</g>
</g>
</g>
</g>
</g>
<g id="Group_30">
<g id="Group_31">
<g id="Group_32">
<g id="Group_33">
<g id="Group_34">
<path id="Vector_8" d="M56.6965 152.364H36.1607C36.0077 152.087 35.9248 151.693 35.8906 151.224H56.8653C56.9987 151.918 56.6965 152.364 56.6965 152.364Z" fill="#4C4702" style="fill:#4C4702;fill:color(display-p3 0.2980 0.2784 0.0078);fill-opacity:1;"/>
</g>
</g>
</g>
</g>
</g>
<g id="Group_35">
<g id="Group_36">
<g id="Group_37">
<g id="Group_38">
<g id="Group_39">
<g id="Group_40">
<g id="Group_41">
<g id="Group_42">
<g id="Group_43">
<g id="Group_44">
<g id="Group_45">
<g id="Group_46">
<path id="Vector_9" d="M38.2544 152.365H37.6446C38.2531 151.669 38.8229 150.602 38.7483 149.077C38.6491 147.047 37.4316 145.68 36.5859 144.967C36.6189 144.763 36.6472 144.572 36.6693 144.4C37.5812 145.097 39.1175 146.622 39.2376 149.052C39.308 150.509 38.83 151.596 38.2544 152.365Z" fill="#4C4702" style="fill:#4C4702;fill:color(display-p3 0.2980 0.2784 0.0078);fill-opacity:1;"/>
</g>
</g>
</g>
</g>
</g>
</g>
</g>
</g>
</g>
</g>
</g>
</g>
<g id="Group_47">
<g id="Group_48">
<g id="Group_49">
<g id="Group_50">
<g id="Group_51">
<g id="Group_52">
<g id="Group_53">
<g id="Group_54">
<g id="Group_55">
<g id="Group_56">
<g id="Group_57">
<path id="Vector_10" d="M45.5832 145.449C45.4315 145.449 45.2931 145.346 45.2552 145.192C45.2102 145.011 45.3206 144.827 45.5019 144.782L46.7848 144.464C46.9661 144.418 47.1495 144.529 47.1945 144.71C47.2395 144.892 47.1291 145.076 46.9478 145.121L45.6649 145.439C45.6374 145.446 45.6099 145.449 45.5832 145.449Z" fill="#F2F7F9" style="fill:#F2F7F9;fill:color(display-p3 0.9490 0.9686 0.9765);fill-opacity:1;"/>
</g>
</g>
</g>
</g>
</g>
</g>
</g>
</g>
</g>
</g>
</g>
<g id="Group_58">
<g id="Group_59">
<g id="Group_60">
<g id="Group_61">
<g id="Group_62">
<g id="Group_63">
<g id="Group_64">
<g id="Group_65">
<g id="Group_66">
<g id="Group_67">
<g id="Group_68">
<path id="Vector_11" d="M44.342 144.451C44.1898 144.451 44.0519 144.348 44.014 144.194C43.9689 144.013 44.0794 143.83 44.2607 143.785L45.5436 143.466C45.7249 143.421 45.9083 143.532 45.9537 143.713C45.9987 143.894 45.8883 144.078 45.7066 144.123L44.4237 144.441C44.3962 144.448 44.3686 144.451 44.342 144.451Z" fill="#F2F7F9" style="fill:#F2F7F9;fill:color(display-p3 0.9490 0.9686 0.9765);fill-opacity:1;"/>
</g>
</g>
</g>
</g>
</g>
</g>
</g>
</g>
</g>
</g>
</g>
<g id="Group_69">
<g id="Group_70">
<g id="Group_71">
<g id="Group_72">
<g id="Group_73">
<g id="Group_74">
<g id="Group_75">
<g id="Group_76">
<g id="Group_77">
<g id="Group_78">
<g id="Group_79">
<path id="Vector_12" d="M46.9553 146.336C46.8035 146.336 46.6656 146.233 46.6272 146.079C46.5822 145.897 46.6927 145.713 46.8744 145.669L48.1573 145.35C48.3386 145.305 48.5224 145.416 48.567 145.597C48.612 145.778 48.5016 145.962 48.3203 146.007L47.0374 146.325C47.0094 146.333 46.9819 146.336 46.9553 146.336Z" fill="#F2F7F9" style="fill:#F2F7F9;fill:color(display-p3 0.9490 0.9686 0.9765);fill-opacity:1;"/>
</g>
</g>
</g>
</g>
</g>
</g>
</g>
</g>
</g>
</g>
</g>
<g id="Group_80">
<g id="Group_81">
<g id="Group_82">
<g id="Group_83">
<g id="Group_84">
<g id="Group_85">
<g id="Group_86">
<g id="Group_87">
<g id="Group_88">
<g id="Group_89">
<g id="Group_90">
<path id="Vector_13" d="M48.2385 147.052C48.0867 147.052 47.9484 146.95 47.9104 146.795C47.8654 146.614 47.9759 146.43 48.1576 146.385L49.4405 146.067C49.6218 146.021 49.8056 146.132 49.8502 146.313C49.8952 146.495 49.7848 146.678 49.603 146.723L48.3201 147.042C48.2926 147.05 48.2651 147.052 48.2385 147.052Z" fill="#F2F7F9" style="fill:#F2F7F9;fill:color(display-p3 0.9490 0.9686 0.9765);fill-opacity:1;"/>
</g>
</g>
</g>
</g>
</g>
</g>
</g>
</g>
</g>
</g>
</g>
<g id="Group_91">
<g id="Group_92">
<g id="Group_93">
<g id="Group_94">
<g id="Group_95">
<g id="Group_96">
<g id="Group_97">
<g id="Group_98">
<g id="Group_99">
<g id="Group_100">
<g id="Group_101">
<path id="Vector_14" d="M49.632 147.719C49.4803 147.719 49.3423 147.616 49.304 147.462C49.259 147.281 49.3694 147.097 49.5507 147.052L50.8336 146.734C51.0149 146.689 51.1987 146.799 51.2437 146.98C51.2888 147.162 51.1783 147.345 50.997 147.39L49.7141 147.709C49.6866 147.716 49.6591 147.719 49.632 147.719Z" fill="#F2F7F9" style="fill:#F2F7F9;fill:color(display-p3 0.9490 0.9686 0.9765);fill-opacity:1;"/>
</g>
</g>
</g>
</g>
</g>
</g>
</g>
</g>
</g>
</g>
</g>
<g id="Group_102">
<g id="Group_103">
<g id="Group_104">
<g id="Group_105">
<g id="Group_106">
<g id="Group_107">
<g id="Group_108">
<g id="Group_109">
<g id="Group_110">
<g id="Group_111">
<g id="Group_112">
<path id="Vector_15" d="M51.1564 148.282C51.0047 148.282 50.8663 148.179 50.8284 148.025C50.7834 147.843 50.8938 147.66 51.0756 147.615L52.3585 147.296C52.5398 147.251 52.7236 147.362 52.7682 147.543C52.8132 147.724 52.7027 147.908 52.5214 147.953L51.2385 148.272C51.211 148.279 51.1835 148.282 51.1564 148.282Z" fill="#F2F7F9" style="fill:#F2F7F9;fill:color(display-p3 0.9490 0.9686 0.9765);fill-opacity:1;"/>
</g>
</g>
</g>
</g>
</g>
</g>
</g>
</g>
</g>
</g>
</g>
</g>
<g id="Group_113">
<g id="Group_114">
<path id="Vector_16" d="M44.7158 97.7998L44.6721 100.038H31.2126C31.2117 99.8796 31.2117 99.7941 31.2117 99.7941C31.0721 95.0319 29.5879 82.9853 28.7393 76.3954C28.6685 75.849 28.6022 75.3405 28.5418 74.8762C28.3042 73.0523 28.1504 71.9186 28.1504 71.9186L42.942 70.1277L44.7158 97.7998Z" fill="#545AE4" style="fill:#545AE4;fill:color(display-p3 0.3294 0.3529 0.8941);fill-opacity:1;"/>
</g>
</g>
<g id="Group_115">
<path id="Vector_17" d="M45.3194 100.572L45.086 97.6588L30.8721 97.6575L31.163 100.571" fill="#3228BD" style="fill:#3228BD;fill:color(display-p3 0.1961 0.1569 0.7412);fill-opacity:1;"/>
</g>
<g id="Group_116">
<g id="Group_117">
<g id="Group_118">
<path id="Vector_18" d="M34.1159 99.4143C34.1142 99.4309 34.0992 99.6518 34.0759 100.038H33.4403C33.4611 99.6981 33.4753 99.4772 33.4803 99.4001C32.9368 94.6945 30.6957 76.5669 30.6732 76.3831C30.6524 76.2093 30.7753 76.051 30.9495 76.0293C31.1254 76.0084 31.2817 76.1314 31.3034 76.3056C31.3263 76.489 33.5766 94.6937 34.1142 99.3555C34.1167 99.3751 34.1167 99.3951 34.1159 99.4143Z" fill="#3228BD" style="fill:#3228BD;fill:color(display-p3 0.1961 0.1569 0.7412);fill-opacity:1;"/>
</g>
</g>
</g>
<g id="Group_119">
<g id="Group_120">
<path id="Vector_19" d="M15.3078 63.711C15.3078 63.711 13.9511 71.022 15.0089 75.5096C15.0089 75.5096 35.7452 77.3789 43.2245 74.523C43.2245 74.523 43.1283 67.2275 42.3126 63.6852L15.3078 63.711Z" fill="#545AE4" style="fill:#545AE4;fill:color(display-p3 0.3294 0.3529 0.8941);fill-opacity:1;"/>
</g>
</g>
<g id="Group_121">
<g id="Group_122">
<g id="Group_123">
<g id="Group_124">
<g id="Group_125">
<g id="Group_126">
<g id="Group_127">
<g id="Group_128">
<g id="Group_129">
<g id="Group_130">
<g id="Group_131">
<g id="Group_132">
<g id="Group_133">
<g id="Group_134">
<path id="Vector_20" d="M25.6981 99.7736C25.6818 100.462 25.6551 101.149 25.6201 101.835C25.2729 108.43 24.0488 115.075 22.5779 123.15C22.1528 125.486 21.7519 128.134 21.3284 130.861C20.7232 134.755 20.0705 138.81 19.2324 142.345L13.1797 142.568L13.8045 130.425L15.1953 103.382L15.3891 99.5964L15.5492 96.493H25.696C25.7235 97.5929 25.7235 98.6849 25.6981 99.7736Z" fill="#B5591D" style="fill:#B5591D;fill:color(display-p3 0.7098 0.3490 0.1137);fill-opacity:1;"/>
</g>
</g>
</g>
</g>
</g>
</g>
</g>
</g>
</g>
</g>
<path id="Vector_21" d="M21.3284 130.861C21.2575 131.317 21.1863 131.777 21.1133 132.236C21.0625 132.562 21.0108 132.887 20.9583 133.212C20.9049 133.546 20.8508 133.881 20.7966 134.215C20.7432 134.54 20.689 134.864 20.634 135.189C20.2185 137.666 19.7629 140.11 19.2324 142.345L13.1797 142.567L13.5769 134.848L13.6277 133.858L13.6811 132.825L13.7319 131.835L13.804 130.425C16.031 130.456 19.0444 130.558 21.3284 130.861Z" fill="#F2F7F9" style="fill:#F2F7F9;fill:color(display-p3 0.9490 0.9686 0.9765);fill-opacity:1;"/>
<g id="Group_135">
<path id="Vector_22" d="M21.1139 132.236C21.063 132.561 21.0114 132.886 20.9588 133.211C18.0171 132.806 15.2846 132.786 13.6816 132.825L13.7325 131.835C15.3822 131.794 18.1259 131.82 21.1139 132.236Z" fill="#121633" style="fill:#121633;fill:color(display-p3 0.0706 0.0863 0.2000);fill-opacity:1;"/>
</g>
<g id="Group_136">
<path id="Vector_23" d="M20.7959 134.215C20.7425 134.54 20.6883 134.864 20.6333 135.188C17.7503 134.817 15.105 134.807 13.5762 134.848L13.627 133.858C15.2067 133.816 17.8679 133.831 20.7959 134.215Z" fill="#121633" style="fill:#121633;fill:color(display-p3 0.0706 0.0863 0.2000);fill-opacity:1;"/>
</g>
<g id="Group_137">
<path id="Vector_24" d="M25.6983 99.7743C25.6817 100.462 25.6554 101.149 25.6196 101.836L15.1943 103.382L15.3886 99.5972L25.6983 99.7743Z" fill="#8F2D00" style="fill:#8F2D00;fill:color(display-p3 0.5608 0.1765 0.0000);fill-opacity:1;"/>
</g>
<g id="Group_138">
<g id="Group_139">
<g id="Group_140">
<g id="Group_141">
<g id="Group_142">
<g id="Group_143">
<g id="Group_144">
<g id="Group_145">
<g id="Group_146">
<g id="Group_147">
<g id="Group_148">
<path id="Vector_25" d="M21.1638 150.909C21.1638 150.962 21.1625 151.014 21.1613 151.065C21.1563 151.301 21.1459 151.514 21.1358 151.696C21.1117 152.098 21.0825 152.345 21.0825 152.345H7.75889C7.75889 152.345 7.69303 151.829 7.74388 151.065C7.83141 149.703 8.28321 147.553 10.1233 146.132C12.642 144.184 11.6697 144.59 12.1861 143.703C12.2444 143.604 12.6979 142.096 12.7458 141.992C13.1789 141.07 13.5777 140.634 15.9651 140.634C19.1311 140.634 19.4099 142.171 19.7479 142.98C19.8871 143.315 20.0784 144.021 20.2748 144.86C20.3544 145.197 20.4344 145.557 20.5127 145.923C20.7078 146.841 20.8904 147.799 21.0141 148.564C21.1458 149.384 21.1738 150.227 21.1638 150.909Z" fill="#716D00" style="fill:#716D00;fill:color(display-p3 0.4431 0.4275 0.0000);fill-opacity:1;"/>
</g>
</g>
</g>
</g>
</g>
</g>
</g>
</g>
</g>
</g>
</g>
<g id="Group_149">
<g id="Group_150">
<g id="Group_151">
<g id="Group_152">
<g id="Group_153">
<g id="Group_154">
<g id="Group_155">
<g id="Group_156">
<g id="Group_157">
<g id="Group_158">
<g id="Group_159">
<g id="Group_160">
<path id="Vector_26" d="M21.1636 150.906C21.1636 150.96 21.1623 151.011 21.1611 151.062C21.1561 151.299 21.1457 151.512 21.1357 151.694C20.4859 151.238 20.0224 150.637 19.7515 149.9C18.9271 147.655 20.1946 144.96 20.2479 144.846L20.2746 144.859C20.3542 145.195 20.4342 145.555 20.5126 145.921C20.2125 146.838 19.867 148.379 20.3467 149.683C20.5213 150.158 20.7952 150.567 21.1636 150.906Z" fill="#4C4702" style="fill:#4C4702;fill:color(display-p3 0.2980 0.2784 0.0078);fill-opacity:1;"/>
</g>
</g>
</g>
</g>
</g>
</g>
</g>
</g>
</g>
</g>
</g>
</g>
<g id="Group_161">
<g id="Group_162">
<g id="Group_163">
<path id="Vector_27" d="M21.1613 151.066C21.1433 151.824 21.0825 152.346 21.0825 152.346H7.75889C7.75889 152.346 7.69303 151.83 7.74388 151.066H21.1613Z" fill="#4C4702" style="fill:#4C4702;fill:color(display-p3 0.2980 0.2784 0.0078);fill-opacity:1;"/>
</g>
</g>
</g>
</g>
<g id="Group_164">
<g id="Group_165">
<g id="Group_166">
<g id="Group_167">
<g id="Group_168">
<g id="Group_169">
<g id="Group_170">
<g id="Group_171">
<g id="Group_172">
<g id="Group_173">
<g id="Group_174">
<path id="Vector_28" d="M16.4031 144.791C16.3714 144.791 16.3397 144.787 16.3076 144.779C14.6129 144.34 13.2325 144.711 13.2188 144.715C13.0162 144.771 12.8074 144.653 12.7511 144.45C12.6953 144.248 12.8136 144.039 13.0162 143.983C13.0804 143.965 14.6088 143.554 16.4981 144.044C16.7015 144.096 16.8232 144.304 16.7707 144.507C16.7265 144.677 16.5723 144.791 16.4031 144.791Z" fill="#F2F7F9" style="fill:#F2F7F9;fill:color(display-p3 0.9490 0.9686 0.9765);fill-opacity:1;"/>
</g>
</g>
</g>
</g>
</g>
</g>
</g>
</g>
</g>
</g>
</g>
<g id="Group_175">
<g id="Group_176">
<g id="Group_177">
<g id="Group_178">
<g id="Group_179">
<g id="Group_180">
<g id="Group_181">
<g id="Group_182">
<g id="Group_183">
<g id="Group_184">
<g id="Group_185">
<path id="Vector_29" d="M16.5662 143.375C16.5345 143.375 16.5028 143.371 16.4707 143.363C14.776 142.924 13.3956 143.296 13.3819 143.3C13.1793 143.356 12.9701 143.237 12.9142 143.035C12.8584 142.833 12.9767 142.623 13.1793 142.567C13.2435 142.55 14.7719 142.139 16.6612 142.628C16.8646 142.68 16.9863 142.888 16.9338 143.091C16.8892 143.262 16.735 143.375 16.5662 143.375Z" fill="#F2F7F9" style="fill:#F2F7F9;fill:color(display-p3 0.9490 0.9686 0.9765);fill-opacity:1;"/>
</g>
</g>
</g>
</g>
</g>
</g>
</g>
</g>
</g>
</g>
</g>
<g id="Group_186">
<g id="Group_187">
<g id="Group_188">
<g id="Group_189">
<g id="Group_190">
<g id="Group_191">
<g id="Group_192">
<g id="Group_193">
<g id="Group_194">
<g id="Group_195">
<g id="Group_196">
<path id="Vector_30" d="M15.8429 145.993C15.8113 145.993 15.7792 145.989 15.7475 145.98C14.0636 145.544 12.672 145.913 12.6578 145.917C12.4557 145.972 12.2468 145.853 12.1914 145.651C12.136 145.449 12.2539 145.24 12.4561 145.184C12.5203 145.167 14.0486 144.755 15.938 145.245C16.1414 145.297 16.2631 145.505 16.2105 145.708C16.1664 145.879 16.0122 145.993 15.8429 145.993Z" fill="#F2F7F9" style="fill:#F2F7F9;fill:color(display-p3 0.9490 0.9686 0.9765);fill-opacity:1;"/>
</g>
</g>
</g>
</g>
</g>
</g>
</g>
</g>
</g>
</g>
</g>
<g id="Group_197">
<g id="Group_198">
<g id="Group_199">
<g id="Group_200">
<g id="Group_201">
<g id="Group_202">
<g id="Group_203">
<g id="Group_204">
<g id="Group_205">
<g id="Group_206">
<g id="Group_207">
<path id="Vector_31" d="M15.1759 147.362C15.1443 147.362 15.1122 147.358 15.0805 147.35C13.3971 146.914 12.005 147.283 11.9912 147.287C11.7891 147.342 11.5799 147.223 11.5244 147.021C11.469 146.819 11.5869 146.61 11.7891 146.554C11.8533 146.536 13.3817 146.125 15.271 146.614C15.474 146.667 15.5961 146.874 15.5436 147.077C15.499 147.248 15.3447 147.362 15.1759 147.362Z" fill="#F2F7F9" style="fill:#F2F7F9;fill:color(display-p3 0.9490 0.9686 0.9765);fill-opacity:1;"/>
</g>
</g>
</g>
</g>
</g>
</g>
</g>
</g>
</g>
</g>
</g>
</g>
</g>
<g id="Group_208">
<g id="Group_209">
<g id="Group_210">
<g id="Group_211">
<path id="Vector_32" d="M28.867 74.916C28.867 74.916 28.8208 75.4508 28.7378 76.3957C28.3986 80.2472 27.4512 90.9188 26.5643 100.038H13.9463L14.7845 73.2064L28.5403 74.8764L28.867 74.916Z" fill="#545AE4" style="fill:#545AE4;fill:color(display-p3 0.3294 0.3529 0.8941);fill-opacity:1;"/>
</g>
</g>
<g id="Group_212">
<path id="Vector_33" d="M26.8176 100.571H13.3135L13.5465 97.658H27.1081L26.8176 100.571Z" fill="#3228BD" style="fill:#3228BD;fill:color(display-p3 0.1961 0.1569 0.7412);fill-opacity:1;"/>
</g>
<g id="Group_213">
<g id="Group_214">
<g id="Group_215">
<g id="Group_216">
<path id="Vector_34" d="M28.8207 62.8563C28.8174 62.935 28.814 63.0146 28.8103 63.0955C28.7203 65.2207 28.6085 68.2296 28.5502 71.3001C28.5464 71.4693 28.5435 71.6397 28.5398 71.809C28.5235 72.7884 28.5127 73.77 28.5098 74.7261C28.5094 74.8611 28.6186 74.9712 28.7532 74.9728C28.754 74.9728 28.754 74.9728 28.7553 74.9728C28.8911 74.9733 29.0016 74.8632 29.002 74.7273C29.0045 73.8037 29.0153 72.8576 29.0312 71.9128C29.0341 71.7465 29.0366 71.5802 29.0403 71.4134C29.0979 68.3242 29.21 65.2887 29.3013 63.1451C29.3054 63.0472 29.3096 62.9513 29.3138 62.8567L28.8207 62.8563Z" fill="#3228BD" style="fill:#3228BD;fill:color(display-p3 0.1961 0.1569 0.7412);fill-opacity:1;"/>
</g>
</g>
</g>
<g id="Group_217">
<g id="Group_218">
<g id="Group_219">
<path id="Vector_35" d="M30.836 62.8555C30.8298 62.9872 30.8235 63.121 30.8177 63.2594C30.6864 66.0394 30.4851 69.9752 30.3525 70.9042C30.3229 71.1184 30.2346 71.2593 30.0754 71.3485C29.8207 71.4898 29.4289 71.4815 29.0367 71.4127C28.8696 71.3835 28.7024 71.3435 28.5466 71.2993C28.2606 71.2185 28.0106 71.1234 27.8597 71.058C27.7351 71.0034 27.59 71.0601 27.5354 71.1847C27.4808 71.3093 27.5375 71.4544 27.6621 71.509C27.7405 71.5432 28.0923 71.6928 28.5362 71.8086C28.6912 71.8495 28.8575 71.8858 29.0275 71.912C29.1826 71.9354 29.3401 71.9508 29.496 71.9524C29.794 71.9554 30.0804 71.9095 30.315 71.7786C30.6072 71.6161 30.7893 71.3377 30.8402 70.9738C30.9773 70.0152 31.1794 66.0736 31.3099 63.2865C31.3174 63.1394 31.3237 62.9968 31.3303 62.8559L30.836 62.8555Z" fill="#3228BD" style="fill:#3228BD;fill:color(display-p3 0.1961 0.1569 0.7412);fill-opacity:1;"/>
</g>
</g>
</g>
</g>
</g>
<g id="Group_220">
<g id="Group_221">
<path id="Vector_36" d="M26.8178 76.1305C26.8074 76.3026 25.8825 91.1929 25.2107 100.039H24.5742C25.2453 91.2071 26.1734 76.2634 26.1843 76.0913C26.1955 75.9167 26.3443 75.7829 26.5206 75.7949C26.6957 75.8054 26.8282 75.9554 26.8178 76.1305Z" fill="#3228BD" style="fill:#3228BD;fill:color(display-p3 0.1961 0.1569 0.7412);fill-opacity:1;"/>
</g>
</g>
</g>
</g>
</g>
<g id="Group_222">
<g id="Group_223">
<g id="Group_224">
<g id="Group_225">
<g id="Group_226">
<g id="Group_227">
<g id="Group_228">
<g id="Group_229">
<path id="Vector_37" d="M57.2038 51.2219C56.4848 51.3024 55.7359 51.1986 55.0269 50.8826C51.4642 49.2947 47.45 46.1721 43.0962 41.6011C39.9749 38.3247 37.8142 35.4855 37.7242 35.3663C36.3204 33.5153 36.683 30.877 38.5336 29.4733C40.3837 28.0699 43.0212 28.4317 44.4254 30.281C46.5568 33.0852 53.2314 40.8721 58.4517 43.1991C60.5736 44.1448 61.5268 46.6314 60.5811 48.7533C59.9517 50.1662 58.638 51.061 57.2038 51.2219Z" fill="#B5591D" style="fill:#B5591D;fill:color(display-p3 0.7098 0.3490 0.1137);fill-opacity:1;"/>
</g>
</g>
</g>
</g>
</g>
</g>
</g>
<g id="Group_230">
<path id="Vector_38" d="M43.8974 28.7239L51.1725 36.9505L47.1701 46.6439L42.3799 41.411C42.3799 41.411 41.4696 30.777 43.8974 28.7239Z" fill="#121633" style="fill:#121633;fill:color(display-p3 0.0706 0.0863 0.2000);fill-opacity:1;"/>
</g>
<g id="Group_231">
<g id="Group_232">
<g id="Group_233">
<g id="Group_234">
<g id="Group_235">
<g id="Group_236">
<path id="Vector_39" d="M62.3957 27.6662C60.6443 27.2298 58.8713 28.296 58.4349 30.0469L58.4195 30.1094L58.0819 31.4649L57.7251 32.8374C57.4829 33.7518 57.2324 34.6642 56.9744 35.5723C56.4572 37.3879 55.9091 39.1884 55.3148 40.9461C55.0176 41.8238 54.7083 42.6907 54.3841 43.5348C54.0598 44.3779 53.7197 45.2011 53.3617 45.9659C53.1829 46.3473 52.9995 46.7149 52.8153 47.0496C52.8132 47.0537 52.8111 47.0575 52.8086 47.0612C53.0691 47.4651 53.3483 47.8586 53.6359 48.2466L60.8018 48.0878C61.0565 47.3759 61.2853 46.6744 61.5004 45.9759C61.8026 44.9927 62.076 44.0178 62.3327 43.0459C62.845 41.1019 63.2909 39.1688 63.7015 37.2345C63.9065 36.2676 64.1016 35.3006 64.2887 34.332L64.5626 32.8769L64.6943 32.1459L64.8247 31.3982C65.1119 29.7281 64.067 28.0826 62.3957 27.6662Z" fill="#B5591D" style="fill:#B5591D;fill:color(display-p3 0.7098 0.3490 0.1137);fill-opacity:1;"/>
</g>
</g>
</g>
</g>
</g>
<path id="Vector_40" d="M58.3336 30.2394C58.3336 30.2394 59.2164 33.9514 64.3954 33.7738C64.3954 33.7738 64.4609 34.6858 64.0699 35.4548C64.0699 35.4548 59.8382 35.5485 57.9302 32.0542C57.9302 32.0542 57.658 31.3264 58.3336 30.2394Z" fill="#121633" style="fill:#121633;fill:color(display-p3 0.0706 0.0863 0.2000);fill-opacity:1;"/>
<g id="Group_237">
<g id="Group_238">
<g id="Group_239">
<path id="Vector_41" d="M55.2776 41.5364C55.2689 41.5581 55.2564 41.5789 55.2405 41.5977C54.6153 42.3379 54.2036 43.9317 54.1994 43.9475C54.1681 44.0696 54.0439 44.1434 53.9218 44.1122C53.7997 44.0809 53.7259 43.9567 53.7572 43.8346C53.7751 43.765 54.1998 42.1224 54.8921 41.303C54.9734 41.2067 55.1176 41.1946 55.2139 41.2759C55.291 41.3413 55.3139 41.4472 55.2776 41.5364Z" fill="#8F2D00" style="fill:#8F2D00;fill:color(display-p3 0.5608 0.1765 0.0000);fill-opacity:1;"/>
</g>
</g>
</g>
<g id="Group_240">
<g id="Group_241">
<g id="Group_242">
<path id="Vector_42" d="M55.0507 41.6491C55.0345 41.6658 55.0149 41.6804 54.9932 41.6921C54.1342 42.1406 53.1502 43.4601 53.1402 43.473C53.0651 43.5743 52.9222 43.5956 52.8209 43.5205C52.7196 43.4455 52.6984 43.3026 52.7734 43.2013C52.8163 43.1438 53.8308 41.7842 54.7819 41.2874C54.8936 41.229 55.0316 41.2724 55.0899 41.3841C55.1366 41.4737 55.1178 41.5804 55.0507 41.6491Z" fill="#8F2D00" style="fill:#8F2D00;fill:color(display-p3 0.5608 0.1765 0.0000);fill-opacity:1;"/>
</g>
</g>
</g>
<g id="Group_243">
<g id="Group_244">
<g id="Group_245">
<g id="Group_246">
<g id="Group_247">
<g id="Group_248">
<g id="Group_249">
<g id="Group_250">
<g id="Group_251">
<path id="Vector_43" d="M62.2241 33.3232C62.2241 33.3232 65.7777 33.1077 67.0877 31.3246C68.5565 29.3253 65.7098 24.8498 64.4565 23.9899C62.8885 22.9142 60.89 25.229 60.89 25.229C60.89 25.229 59.2778 22.0539 58.458 22.5061C57.3902 23.0946 59.3574 25.467 58.2079 28.2566C57.9507 28.881 58.1045 29.6041 58.3334 30.2393C58.7668 31.4405 59.8076 33.1756 62.2241 33.3232Z" fill="#B5591D" style="fill:#B5591D;fill:color(display-p3 0.7098 0.3490 0.1137);fill-opacity:1;"/>
</g>
</g>
</g>
</g>
</g>
</g>
</g>
</g>
<g id="Group_252">
<g id="Group_253">
<g id="Group_254">
<g id="Group_255">
<g id="Group_256">
<g id="Group_257">
<g id="Group_258">
<g id="Group_259">
<path id="Vector_44" d="M63.383 30.4978C63.3663 30.4299 63.3842 30.3557 63.4363 30.3019C63.4893 30.2473 64.7455 28.9649 65.9492 28.6256C66.0605 28.5943 66.1763 28.6589 66.208 28.7706C66.2388 28.8803 66.1742 28.9978 66.063 29.0295C64.9668 29.3383 63.7498 30.582 63.7373 30.5945C63.6568 30.6775 63.5239 30.6796 63.4409 30.5987C63.4113 30.5699 63.3922 30.5349 63.383 30.4978Z" fill="#8F2D00" style="fill:#8F2D00;fill:color(display-p3 0.5608 0.1765 0.0000);fill-opacity:1;"/>
</g>
</g>
</g>
</g>
</g>
</g>
</g>
</g>
<g id="Group_260">
<g id="Group_261">
<g id="Group_262">
<g id="Group_263">
<g id="Group_264">
<g id="Group_265">
<g id="Group_266">
<g id="Group_267">
<path id="Vector_45" d="M62.1338 29.0367C62.1188 28.9742 62.1322 28.9059 62.1764 28.8529C62.2201 28.8008 63.2642 27.5684 65.011 27.1291C65.1231 27.1007 65.2373 27.1691 65.2656 27.2812L65.266 27.2825C65.2931 27.3942 65.2252 27.5075 65.1135 27.5355C63.5034 27.9406 62.5081 29.1097 62.4985 29.1214C62.4243 29.2101 62.2918 29.2218 62.2035 29.1476C62.1676 29.118 62.1443 29.0788 62.1338 29.0367Z" fill="#8F2D00" style="fill:#8F2D00;fill:color(display-p3 0.5608 0.1765 0.0000);fill-opacity:1;"/>
</g>
</g>
</g>
</g>
</g>
</g>
</g>
</g>
<g id="Group_268">
<g id="Group_269">
<g id="Group_270">
<g id="Group_271">
<g id="Group_272">
<g id="Group_273">
<path id="Vector_46" d="M61.3615 27.2161C61.3465 27.1544 61.3594 27.0868 61.4027 27.0335C61.4402 26.9876 62.3418 25.9036 63.9827 25.4839C64.0948 25.4551 64.209 25.5226 64.2378 25.6352C64.2694 25.7494 64.199 25.8615 64.0865 25.8902C62.5843 26.2745 61.7353 27.2894 61.727 27.2994C61.6532 27.3886 61.5215 27.4019 61.4319 27.3286C61.3956 27.2982 61.3719 27.2586 61.3615 27.2161Z" fill="#8F2D00" style="fill:#8F2D00;fill:color(display-p3 0.5608 0.1765 0.0000);fill-opacity:1;"/>
</g>
</g>
</g>
</g>
</g>
</g>
<g id="Group_274">
<g id="Group_275">
<g id="Group_276">
<g id="Group_277">
<g id="Group_278">
<g id="Group_279">
<g id="Group_280">
<g id="Group_281">
<path id="Vector_47" d="M60.2402 30.9436C60.2194 30.8577 60.2548 30.7643 60.334 30.7152C61.5677 29.9566 61.7307 28.4241 61.7324 28.4086C61.7436 28.2936 61.8461 28.209 61.9612 28.2202C62.0762 28.2315 62.1608 28.3332 62.15 28.4486C62.1433 28.5199 61.9687 30.2025 60.5537 31.0724C60.4553 31.1328 60.3261 31.1024 60.2653 31.0036C60.2536 30.9848 60.2452 30.9644 60.2402 30.9436Z" fill="#8F2D00" style="fill:#8F2D00;fill:color(display-p3 0.5608 0.1765 0.0000);fill-opacity:1;"/>
</g>
</g>
</g>
</g>
</g>
</g>
</g>
</g>
<g id="Group_282">
<g id="Group_283">
<g id="Group_284">
<g id="Group_285">
<g id="Group_286">
<g id="Group_287">
<g id="Group_288">
<g id="Group_289">
<path id="Vector_48" d="M61.4046 27.5238C61.2733 26.9853 61.2104 26.4085 61.25 25.8C61.2575 25.6845 61.3571 25.597 61.473 25.6045C61.5884 25.612 61.676 25.712 61.6685 25.8275C61.4551 29.1085 64.5493 31.5096 64.5806 31.5338C64.6723 31.6042 64.6902 31.7355 64.6202 31.8276C64.5502 31.9198 64.4189 31.9377 64.3264 31.8677C64.2151 31.7818 62.0302 30.0892 61.4046 27.5238Z" fill="#8F2D00" style="fill:#8F2D00;fill:color(display-p3 0.5608 0.1765 0.0000);fill-opacity:1;"/>
</g>
</g>
</g>
</g>
</g>
</g>
</g>
</g>
</g>
</g>
</g>
<g id="Group_290">
<g id="Group_291">
<g id="Group_292">
<g id="Group_293">
<path id="Vector_49" d="M24.273 23.5696C24.273 23.5696 20.4647 21.3739 17.5059 22.6514C14.5471 23.9289 12.5215 28.6274 12.5215 28.6274L20.5564 30.1595L24.273 23.5696Z" fill="#E87918" style="fill:#E87918;fill:color(display-p3 0.9098 0.4745 0.0941);fill-opacity:1;"/>
</g>
</g>
</g>
<g id="Group_294">
<g id="Group_295">
<g id="Group_296">
<path id="Vector_50" d="M15.6319 34.9676C15.6319 34.9676 10.0702 28.5865 7.11016 34.2199C3.92086 40.2888 6.65252 44.9127 6.65252 44.9127L11.9158 41.5571L15.6319 34.9676Z" fill="#E87918" style="fill:#E87918;fill:color(display-p3 0.9098 0.4745 0.0941);fill-opacity:1;"/>
</g>
</g>
</g>
<g id="Group_297">
<g id="Group_298">
<g id="Group_299">
<g id="Group_300">
<path id="Vector_51" d="M31.9817 24.2198C31.9817 24.2198 23.4537 17.046 13.1548 27.9435C2.85625 38.8409 4.31961 54.8366 10.2777 60.0511C16.2357 65.2656 24.9809 62.12 24.9809 62.12L31.9817 24.2198Z" fill="#FDA42B" style="fill:#FDA42B;fill:color(display-p3 0.9922 0.6431 0.1686);fill-opacity:1;"/>
</g>
</g>
</g>
</g>
</g>
<g id="Group_301">
<g id="Group_302">
<g id="Group_303">
<g id="Group_304">
<g id="Group_305">
<path id="Vector_52" d="M43.8074 44.5855C43.7173 45.0653 43.6285 45.6592 43.5373 46.3456C43.506 46.5815 43.4739 46.827 43.4414 47.0825C43.1713 49.2203 42.8729 52.0361 42.4732 54.9507C42.4374 55.2117 42.4003 55.4751 42.3615 55.7372C41.4667 62.0095 43.4548 62.0858 43.0896 64.1193C41.6859 71.9455 18.4259 69.8703 16.1065 67.0548C15.0182 65.734 15.6609 52.9689 17.0018 44.9765C17.0468 44.7064 17.0897 44.4401 17.1339 44.18C17.4952 42.0047 17.7753 40.2184 17.8499 39.1689C18.1938 34.2891 19.1816 29.1284 20.0614 26.9473C20.9413 24.7658 29.1959 23.5408 29.1959 23.5408L37.871 24.795C37.871 24.795 42.1598 26.5159 45.1628 30.0924C48.1666 33.6693 44.7564 39.5011 43.8074 44.5855Z" fill="#121633" style="fill:#121633;fill:color(display-p3 0.0706 0.0863 0.2000);fill-opacity:1;"/>
</g>
</g>
<g id="Group_306">
<g id="Group_307">
<g id="Group_308">
<path id="Vector_53" d="M24.3605 63.1206C28.2037 63.0402 32.054 61.2221 35.6493 57.7586C39.0687 54.4646 41.0859 50.7985 41.1059 50.7619C41.1801 50.626 41.1297 50.4559 40.9942 50.3817C40.8584 50.3076 40.6883 50.3576 40.6141 50.4934C40.5945 50.5293 38.6114 54.1304 35.2508 57.3643C32.1745 60.3243 27.2763 63.5774 21.4079 62.2637C21.2574 62.2307 21.107 62.3249 21.0732 62.4758C21.0395 62.6267 21.1345 62.7767 21.2858 62.8105C22.3061 63.0393 23.3331 63.1419 24.3605 63.1206Z" fill="#353C6D" style="fill:#353C6D;fill:color(display-p3 0.2078 0.2353 0.4275);fill-opacity:1;"/>
</g>
</g>
</g>
<g id="Group_309">
<g id="Group_310">
<g id="Group_311">
<g id="Group_312">
<path id="Vector_54" d="M40.7623 26.3325C40.7623 26.3325 41.881 32.3727 38.069 37.8997C34.257 43.4272 22.5543 46.6086 17.0422 44.7439C17.0422 44.7439 15.9694 46.5094 16.4591 48.7739C16.4591 48.7739 27.515 52.3658 37.0482 44.5005C46.8387 36.423 43.7828 28.6436 43.7828 28.6436C43.2751 27.7208 41.7622 26.1533 40.7623 26.3325Z" fill="#FDA42B" style="fill:#FDA42B;fill:color(display-p3 0.9922 0.6431 0.1686);fill-opacity:1;"/>
</g>
</g>
</g>
<g id="Group_313">
<g id="Group_314">
<g id="Group_315">
<g id="Group_316">
<path id="Vector_55" d="M39.0146 36.8552C39.7274 37.134 40.7952 37.6317 41.6934 38.3823C42.1806 38.7891 42.2381 39.5185 41.8301 40.0045C40.9206 41.0881 39.2618 43.0008 38.0002 44.0899C37.6221 44.4162 37.0607 44.4116 36.6868 44.0803L34.6137 42.2431C34.1694 41.8492 34.1644 41.1569 34.6037 40.758C35.5065 39.9378 36.9332 38.5494 37.8264 37.2232C38.0864 36.8368 38.5812 36.6855 39.0146 36.8552Z" fill="#E87918" style="fill:#E87918;fill:color(display-p3 0.9098 0.4745 0.0941);fill-opacity:1;"/>
</g>
</g>
</g>
</g>
</g>
<g id="Group_317">
<g id="Group_318">
<g id="Group_319">
<g id="Group_320">
<g id="Group_321">
<g id="Group_322">
<path id="Vector_56" d="M27.7421 54.6443C27.7625 54.6493 27.7837 54.6527 27.8058 54.6531C32.7477 54.7756 37.9301 49.7162 38.1481 49.5007C38.2627 49.3877 38.2636 49.2031 38.1506 49.0885C38.0377 48.9739 37.853 48.973 37.7388 49.0856C37.6871 49.1368 32.5131 54.1867 27.82 54.0704C27.6595 54.0662 27.5257 54.1933 27.5216 54.3542C27.5182 54.4934 27.6124 54.6118 27.7421 54.6443Z" fill="#353C6D" style="fill:#353C6D;fill:color(display-p3 0.2078 0.2353 0.4275);fill-opacity:1;"/>
</g>
</g>
</g>
</g>
</g>
</g>
<g id="Group_323">
<g id="Group_324">
<g id="Group_325">
<g id="Group_326">
<g id="Group_327">
<g id="Group_328">
<g id="Group_329">
<path id="Vector_57" d="M34.5978 29.7258C31.073 29.4895 28.0425 25.1565 27.915 24.9723C27.827 24.8448 27.8587 24.6697 27.9866 24.5814C28.1142 24.493 28.2892 24.5251 28.3776 24.6526C28.4072 24.6956 31.3827 28.9468 34.6357 29.1648C34.637 29.1648 34.6382 29.1648 34.6395 29.1652C36.9456 29.3174 38.0084 26.9838 38.0526 26.8841C38.1155 26.7424 38.281 26.6782 38.4231 26.7408C38.5648 26.8033 38.6294 26.9687 38.5669 27.1109C38.5165 27.2251 37.3053 29.9042 34.6028 29.7258C34.6007 29.7258 34.5991 29.7258 34.5978 29.7258Z" fill="#353C6D" style="fill:#353C6D;fill:color(display-p3 0.2078 0.2353 0.4275);fill-opacity:1;"/>
</g>
</g>
</g>
</g>
</g>
</g>
</g>
<g id="Group_330">
<g id="Group_331">
<path id="Vector_58" d="M43.9959 43.5643C43.9813 43.5635 43.9668 43.5614 43.9522 43.5581C43.8284 43.5277 43.7529 43.403 43.7829 43.2797C44.4569 40.5209 46.3454 34.1836 46.3646 34.1198C46.4008 33.9977 46.53 33.9285 46.6513 33.9648C46.7734 34.001 46.8426 34.1294 46.8064 34.2515C46.7872 34.3153 44.902 40.6418 44.231 43.3889C44.2043 43.4977 44.1043 43.5698 43.9959 43.5643Z" fill="#353C6D" style="fill:#353C6D;fill:color(display-p3 0.2078 0.2353 0.4275);fill-opacity:1;"/>
</g>
</g>
<g id="Group_332">
<path id="Vector_59" d="M27.8836 8.06068C27.4363 11.0266 28.7555 13.8074 29.1902 13.5157C34.9344 16.2586 41.9912 15.4408 42.911 14.0004C43.6904 12.7796 44.1827 8.86467 43.5095 6.51855C43.5095 6.51855 45.0746 6.15844 44.9354 5.0802C44.7987 4.01904 43.1119 4.29537 43.1119 4.29537C43.1119 4.29537 44.5907 3.50388 43.9772 2.40397C43.3632 1.30405 41.8724 2.38521 41.8724 2.38521C41.8724 2.38521 41.9707 0.755555 40.9659 0.542574C39.648 0.262906 38.6897 1.74919 38.6897 1.74919C38.6897 1.74919 39.0928 0.269158 37.8203 0.0224164C36.5783 -0.218073 36.0227 1.47494 36.0227 1.47494C36.0227 1.47494 35.8055 0.200385 34.4551 0.372937C33.3394 0.51548 33.2739 1.67458 33.2739 1.67458C33.2739 1.67458 32.8901 0.221227 31.4942 0.449213C30.1543 0.668029 30.0088 2.21641 30.0088 2.21641C30.0088 2.21641 29.597 1.08023 28.45 1.36865C27.9482 1.49494 27.671 1.84463 27.518 2.19766C27.3417 2.60528 27.3234 3.06292 27.4401 3.49138C27.6668 4.31955 28.1411 6.35475 27.8836 8.06068Z" fill="#121633" style="fill:#121633;fill:color(display-p3 0.0706 0.0863 0.2000);fill-opacity:1;"/>
<g id="Group_333">
<g id="Group_334">
<g id="Group_335">
<g id="Group_336">
<g id="Group_337">
<g id="Group_338">
<g id="Group_339">
<g id="Group_340">
<g id="Group_341">
<g id="Group_342">
<path id="Vector_60" d="M38.0978 22.9829L37.8298 25.3473C37.5451 25.5416 37.2609 25.7062 36.9787 25.845C32.8516 27.8748 29.0459 24.3524 29.0459 24.3524L29.4623 19.0533L37.1288 22.1685L38.0978 22.9829Z" fill="#B5591D" style="fill:#B5591D;fill:color(display-p3 0.7098 0.3490 0.1137);fill-opacity:1;"/>
</g>
</g>
</g>
</g>
</g>
</g>
</g>
</g>
</g>
<g id="Group_343">
<g id="Group_344">
<g id="Group_345">
<g id="Group_346">
<g id="Group_347">
<g id="Group_348">
<g id="Group_349">
<g id="Group_350">
<g id="Group_351">
<path id="Vector_61" d="M38.1042 22.9809L37.8362 25.3453C37.5515 25.5396 37.2673 25.7042 36.9851 25.843C33.8654 24.0879 31.8965 20.15 31.8965 20.15L37.1356 22.1669L38.1042 22.9809Z" fill="#121633" style="fill:#121633;fill:color(display-p3 0.0706 0.0863 0.2000);fill-opacity:1;"/>
</g>
</g>
</g>
</g>
</g>
</g>
</g>
</g>
</g>
</g>
<g id="Group_352">
<g id="Group_353">
<g id="Group_354">
<g id="Group_355">
<g id="Group_356">
<g id="Group_357">
<g id="Group_358">
<g id="Group_359">
<g id="Group_360">
<path id="Vector_62" d="M41.6794 14.4754C41.6794 14.4754 43.1065 13.1308 43.6492 14.6988C44.1923 16.2663 43.3041 19.2139 41.4443 18.5045L41.6794 14.4754Z" fill="#8F2D00" style="fill:#8F2D00;fill:color(display-p3 0.5608 0.1765 0.0000);fill-opacity:1;"/>
</g>
</g>
</g>
</g>
</g>
</g>
</g>
</g>
</g>
<g id="Group_361">
<g id="Group_362">
<g id="Group_363">
<g id="Group_364">
<g id="Group_365">
<g id="Group_366">
<g id="Group_367">
<g id="Group_368">
<g id="Group_369">
<path id="Vector_63" d="M42.5103 18.8194C42.5103 18.8194 41.8813 23.4254 37.117 22.8752C32.3818 22.3297 29.6085 19.2441 29.4601 19.0528C29.4576 19.0495 29.4551 19.0478 29.4551 19.0478L29.5126 18.0792L29.8098 13.051L29.9682 10.3635C29.9682 10.3635 29.9081 5.48498 34.5787 5.12571C37.9914 4.86313 41.0603 5.77257 42.4436 7.69399C42.4882 7.75609 42.5311 7.81944 42.5711 7.88363C42.9996 8.55258 43.2313 9.33531 43.2167 10.2256L42.8208 15.0404L42.7237 16.2203L42.5103 18.8194Z" fill="#B5591D" style="fill:#B5591D;fill:color(display-p3 0.7098 0.3490 0.1137);fill-opacity:1;"/>
</g>
</g>
</g>
</g>
</g>
</g>
</g>
</g>
</g>
<g id="Group_370">
<g id="Group_371">
<g id="Group_372">
<g id="Group_373">
<g id="Group_374">
<g id="Group_375">
<g id="Group_376">
<path id="Vector_64" d="M35.9551 16.11C35.9551 16.11 36.1355 18.2007 37.6689 18.8663C39.414 19.6236 40.3193 17.4309 40.3193 17.4309L35.9551 16.11Z" fill="#F2F7F9" style="fill:#F2F7F9;fill:color(display-p3 0.9490 0.9686 0.9765);fill-opacity:1;"/>
</g>
</g>
</g>
</g>
</g>
</g>
</g>
<g id="Group_377">
<g id="Group_378">
<g id="Group_379">
<g id="Group_380">
<g id="Group_381">
<g id="Group_382">
<g id="Group_383">
<g id="Group_384">
<g id="Group_385">
<g id="Group_386">
<g id="Group_387">
<g id="Group_388">
<path id="Vector_65" d="M38.1937 19.7064C38.2604 19.7031 38.3029 19.6956 38.31 19.6943C38.3929 19.6793 38.4479 19.5997 38.4329 19.5168C38.4179 19.4338 38.3396 19.3784 38.2562 19.3938C38.2316 19.398 37.6894 19.4851 37.3514 19.0404C37.3005 18.9733 37.2047 18.9599 37.1376 19.0112C37.0704 19.0621 37.0571 19.1579 37.1084 19.225C37.4585 19.6864 37.9665 19.7185 38.1937 19.7064Z" fill="#8F2D00" style="fill:#8F2D00;fill:color(display-p3 0.5608 0.1765 0.0000);fill-opacity:1;"/>
</g>
</g>
</g>
</g>
</g>
</g>
</g>
</g>
</g>
</g>
</g>
</g>
<g id="Group_389">
<g id="Group_390">
<g id="Group_391">
<g id="Group_392">
<g id="Group_393">
<g id="Group_394">
<g id="Group_395">
<g id="Group_396">
<g id="Group_397">
<g id="Group_398">
<path id="Vector_66" d="M36.7013 13.04C36.6492 13.4981 36.3996 13.8461 36.1432 13.8169C35.8869 13.7877 35.7214 13.393 35.7731 12.935C35.8252 12.4769 36.0749 12.1289 36.3312 12.1581C36.5875 12.1868 36.753 12.5815 36.7013 13.04Z" fill="#121633" style="fill:#121633;fill:color(display-p3 0.0706 0.0863 0.2000);fill-opacity:1;"/>
</g>
</g>
</g>
</g>
</g>
</g>
</g>
</g>
</g>
<g id="Group_399">
<g id="Group_400">
<g id="Group_401">
<g id="Group_402">
<g id="Group_403">
<g id="Group_404">
<g id="Group_405">
<g id="Group_406">
<g id="Group_407">
<path id="Vector_67" d="M41.2337 13.5526C41.1816 14.0107 40.9319 14.3587 40.6756 14.3295C40.4193 14.3004 40.2534 13.9057 40.3055 13.4476C40.3576 12.9896 40.6072 12.6415 40.8635 12.6707C41.1199 12.6995 41.2853 13.0946 41.2337 13.5526Z" fill="#121633" style="fill:#121633;fill:color(display-p3 0.0706 0.0863 0.2000);fill-opacity:1;"/>
</g>
</g>
</g>
</g>
</g>
</g>
</g>
</g>
</g>
<g id="Group_408">
<g id="Group_409">
<g id="Group_410">
<g id="Group_411">
<g id="Group_412">
<g id="Group_413">
<g id="Group_414">
<g id="Group_415">
<g id="Group_416">
<path id="Vector_68" d="M38.6453 15.6373C39.7623 15.764 40.2275 15.0263 40.247 14.995C40.2771 14.9463 40.2833 14.8866 40.2641 14.8329C39.6769 13.1678 39.085 11.4577 39.0788 11.4406C39.0446 11.3418 38.9366 11.2893 38.8374 11.3235C38.7387 11.3577 38.6862 11.466 38.7203 11.5648C38.7262 11.5815 39.2963 13.2282 39.8723 14.8633C39.7469 15.01 39.3822 15.3389 38.6878 15.2601C38.5836 15.2484 38.4898 15.323 38.4778 15.4272C38.4661 15.5314 38.5411 15.6256 38.6453 15.6373Z" fill="#121633" style="fill:#121633;fill:color(display-p3 0.0706 0.0863 0.2000);fill-opacity:1;"/>
</g>
</g>
</g>
</g>
</g>
</g>
</g>
</g>
</g>
</g>
<g id="Group_417">
<g id="Group_418">
<g id="Group_419">
<g id="Group_420">
<g id="Group_421">
<path id="Vector_69" d="M35.9054 7.21147C35.384 7.17395 34.8868 7.49238 34.7451 7.99545C34.6446 8.35306 34.3637 8.75943 33.6902 9.08703C32.1189 9.85185 32.2364 11.161 32.4511 12.2609C32.6657 13.3608 30.32 15.0809 29.3201 12.2955C28.3202 9.51008 30.1474 4.08677 34.0866 4.26516C38.0257 4.44313 43.0488 6.29786 43.2806 8.11507C43.5123 9.93229 43.0734 11.4161 43.0734 11.4161C43.0734 11.4161 42.5024 10.8051 42.6783 9.70014C42.8542 8.59522 42.134 8.07006 40.8615 7.74996C39.9937 7.53156 37.4413 7.32233 35.9054 7.21147Z" fill="#121633" style="fill:#121633;fill:color(display-p3 0.0706 0.0863 0.2000);fill-opacity:1;"/>
</g>
</g>
</g>
</g>
</g>
<g id="Group_422" opacity="0.8">
<g id="Group_423">
<g id="Group_424">
<g id="Group_425">
<g id="Group_426">
<g id="Group_427">
<g id="Group_428">
<g id="Group_429">
<g id="Group_430">
<g id="Group_431">
<path id="Vector_70" d="M42.7284 16.2199C42.6088 16.2183 42.4838 16.2103 42.3567 16.1958C41.5097 16.0999 40.8533 15.751 40.8912 15.4176C40.9291 15.0842 41.6469 14.8912 42.4934 14.9871C42.608 15 42.7189 15.0179 42.8251 15.0396L42.7284 16.2199Z" fill="#8F2D00" style="fill:#8F2D00;fill:color(display-p3 0.5608 0.1765 0.0000);fill-opacity:1;"/>
</g>
</g>
</g>
</g>
</g>
</g>
</g>
</g>
</g>
</g>
<g id="Group_432">
<g id="Group_433">
<g id="Group_434">
<g id="Group_435">
<g id="Group_436">
<g id="Group_437">
<g id="Group_438">
<g id="Group_439">
<g id="Group_440">
<g id="Group_441">
<path id="Vector_71" d="M36.5542 14.927C36.5163 15.2604 35.7985 15.453 34.9512 15.3571C34.1039 15.2613 33.4474 14.9128 33.4849 14.5794C33.5229 14.2455 34.2406 14.053 35.0879 14.1493C35.9353 14.2451 36.5917 14.5936 36.5542 14.927Z" fill="#8F2D00" style="fill:#8F2D00;fill:color(display-p3 0.5608 0.1765 0.0000);fill-opacity:1;"/>
</g>
</g>
</g>
</g>
</g>
</g>
</g>
</g>
</g>
</g>
<g id="Group_442">
<g id="Group_443">
<g id="Group_444">
<g id="Group_445">
<g id="Group_446">
<g id="Group_447">
<g id="Group_448">
<g id="Group_449">
<g id="Group_450">
<path id="Vector_72" d="M34.4521 10.4388C34.6335 11.0019 35.2315 11.3166 35.7976 11.1457C36.1281 11.0461 36.5153 10.9548 36.9171 10.914C37.4868 10.856 37.8932 10.3363 37.8048 9.77029C37.8048 9.77029 35.6092 9.31515 34.4521 10.4388Z" fill="#121633" style="fill:#121633;fill:color(display-p3 0.0706 0.0863 0.2000);fill-opacity:1;"/>
</g>
</g>
</g>
</g>
</g>
</g>
</g>
</g>
</g>
<g id="Group_451">
<g id="Group_452">
<g id="Group_453">
<g id="Group_454">
<g id="Group_455">
<g id="Group_456">
<g id="Group_457">
<g id="Group_458">
<g id="Group_459">
<path id="Vector_73" d="M43.0751 11.4178C42.7725 11.9259 42.119 12.0989 41.6055 11.8055C41.3058 11.6342 40.9486 11.4587 40.5664 11.3291C40.0242 11.1453 39.7445 10.5472 39.9571 10.0157C39.9571 10.0157 42.1986 10.0637 43.0751 11.4178Z" fill="#121633" style="fill:#121633;fill:color(display-p3 0.0706 0.0863 0.2000);fill-opacity:1;"/>
</g>
</g>
</g>
</g>
</g>
</g>
</g>
</g>
</g>
<g id="Group_460">
<g id="Group_461">
<g id="Group_462">
<g id="Group_463">
<g id="Group_464">
<g id="Group_465">
<g id="Group_466">
<g id="Group_467">
<g id="Group_468">
<path id="Vector_74" d="M31.1736 17.363C31.146 17.4114 30.3846 18.7418 29.471 19.0531C29.4685 19.0502 29.4668 19.0481 29.4668 19.0481L29.5243 18.0795C29.5243 18.0795 30.2912 18.0357 31.1736 17.363Z" fill="#121633" style="fill:#121633;fill:color(display-p3 0.0706 0.0863 0.2000);fill-opacity:1;"/>
</g>
</g>
</g>
</g>
</g>
</g>
</g>
</g>
</g>
<g id="Group_469">
<g id="Group_470">
<g id="Group_471">
<g id="Group_472">
<g id="Group_473">
<g id="Group_474">
<g id="Group_475">
<g id="Group_476">
<g id="Group_477">
<path id="Vector_75" d="M30.6835 14.085C30.6835 14.085 29.1306 11.4167 27.5693 13.1985C26.2831 14.6664 27.9031 19.0557 30.2534 17.8812L30.6835 14.085Z" fill="#B5591D" style="fill:#B5591D;fill:color(display-p3 0.7098 0.3490 0.1137);fill-opacity:1;"/>
</g>
</g>
</g>
</g>
</g>
</g>
</g>
</g>
</g>
<g id="Group_478">
<g id="Group_479">
<g id="Group_480">
<g id="Group_481">
<g id="Group_482">
<g id="Group_483">
<g id="Group_484">
<g id="Group_485">
<g id="Group_486">
<path id="Vector_76" d="M30.0847 17.1096C30.0914 17.1105 30.0984 17.1109 30.1055 17.1109C30.2101 17.1113 30.2956 17.0267 30.296 16.9221C30.3043 14.8035 28.6255 13.8791 28.5538 13.8407C28.4617 13.7911 28.3467 13.8261 28.2971 13.9183C28.2475 14.0104 28.2821 14.1254 28.3742 14.175C28.4375 14.2092 29.9238 15.0353 29.9167 16.9204C29.9163 17.0179 29.9901 17.0988 30.0847 17.1096Z" fill="#121633" style="fill:#121633;fill:color(display-p3 0.0706 0.0863 0.2000);fill-opacity:1;"/>
</g>
</g>
</g>
</g>
</g>
</g>
</g>
</g>
</g>
<g id="Group_487">
<g id="Group_488">
<g id="Group_489">
<g id="Group_490">
<g id="Group_491">
<g id="Group_492">
<g id="Group_493">
<g id="Group_494">
<g id="Group_495">
<path id="Vector_77" d="M28.4653 15.7666C28.507 15.7712 28.5508 15.7625 28.5887 15.7379C28.7679 15.6237 29.3014 15.3536 29.6174 15.4736C29.7153 15.5107 29.8249 15.4616 29.862 15.3636C29.8995 15.2657 29.8499 15.156 29.7524 15.1189C29.2026 14.9101 28.4666 15.3657 28.3841 15.4186C28.2961 15.4753 28.2703 15.5924 28.327 15.6808C28.3586 15.7308 28.4103 15.7608 28.4653 15.7666Z" fill="#121633" style="fill:#121633;fill:color(display-p3 0.0706 0.0863 0.2000);fill-opacity:1;"/>
</g>
</g>
</g>
</g>
</g>
</g>
</g>
</g>
</g>
</g>
</g>
</g>
</g>
<g id="Group_496">
<g id="Group_497">
<g id="Group_498">
<path id="Vector_78" d="M33.1733 74.459L12.6684 81.5803C12.4425 81.6586 12.1962 81.5394 12.1178 81.3135L7.1188 66.9196C7.04044 66.6937 7.15964 66.4478 7.38554 66.369L27.8905 59.2477C28.1164 59.1693 28.3623 59.2885 28.4407 59.5145L33.4397 73.9084C33.5184 74.1343 33.3992 74.3806 33.1733 74.459Z" fill="#FA7027" style="fill:#FA7027;fill:color(display-p3 0.9804 0.4392 0.1529);fill-opacity:1;"/>
</g>
<g id="Group_499">
<path id="Vector_79" d="M26.0864 72.027L23.5598 64.7519C23.4986 64.5756 23.5919 64.383 23.7682 64.3214L25.5204 63.7128C25.6967 63.6516 25.8893 63.7449 25.951 63.9212L28.4776 71.1963C28.5388 71.3727 28.4455 71.5652 28.2692 71.6265L26.5165 72.235C26.3402 72.2967 26.1477 72.2033 26.0864 72.027Z" fill="#F2F7F9" style="fill:#F2F7F9;fill:color(display-p3 0.9490 0.9686 0.9765);fill-opacity:1;"/>
</g>
<g id="Group_500">
<g id="Group_501">
<path id="Vector_80" d="M33.1734 74.4589L12.6685 81.5803C12.4426 81.6586 12.1963 81.5394 12.1179 81.3135L11.5215 79.5963L32.8433 72.1912L33.4398 73.9083C33.5185 74.1342 33.3993 74.3806 33.1734 74.4589Z" fill="#D34606" style="fill:#D34606;fill:color(display-p3 0.8275 0.2745 0.0235);fill-opacity:1;"/>
</g>
</g>
</g>
<g id="Group_502">
<g id="Group_503">
<g id="Group_504">
<path id="Vector_81" d="M22.7565 39.1427L22.7377 39.2019L22.1317 41.0658L21.7249 42.3404L21.5274 42.9576L21.3061 43.6624L20.9334 44.8511L20.357 46.745C19.9752 48.0066 19.6164 49.2691 19.2704 50.522C19.1008 51.1484 18.9349 51.7749 18.784 52.3955C18.6269 53.0173 18.4798 53.6338 18.3477 54.2427C18.213 54.8516 18.1001 55.4489 18.0071 56.0237L17.9417 56.4296C17.9213 56.5442 17.9063 56.6618 17.8917 56.7797C17.8609 57.0165 17.8438 57.2607 17.8325 57.5108C17.8221 57.7608 17.8208 58.0172 17.8283 58.2773C17.8375 58.5378 17.8529 58.8028 17.875 59.0725C17.92 59.611 18.0009 60.1645 18.1105 60.7234C18.3222 61.845 18.6519 62.992 19.0533 64.1328C19.2579 64.7017 19.4743 65.2731 19.7135 65.8337C19.8319 66.115 19.954 66.3951 20.0794 66.6685L20.2674 67.0749L20.3604 67.2691L20.4045 67.3613L20.4245 67.4038C20.4308 67.4167 20.4375 67.4309 20.4337 67.4279C21.3019 68.7262 20.953 70.4818 19.6556 71.35C18.3573 72.219 16.6017 71.8701 15.7335 70.5718L15.5326 70.3034L15.358 70.0671C15.2451 69.9108 15.1338 69.757 15.0267 69.6007C14.8128 69.2889 14.607 68.9767 14.4061 68.6608C14.0105 68.026 13.6304 67.3817 13.2824 66.7156C12.5793 65.3857 11.9687 63.9844 11.4831 62.4894C11.0071 60.9939 10.6453 59.4005 10.5391 57.6925C10.512 57.2661 10.4982 56.8339 10.5061 56.3942C10.5103 56.175 10.5157 55.9545 10.5291 55.7315L10.5386 55.5656L10.5511 55.4189L10.5774 55.1296C10.6491 54.3598 10.7395 53.6184 10.8491 52.8969C10.9567 52.1733 11.0746 51.4623 11.2055 50.7612C11.3364 50.0585 11.4781 49.3666 11.6244 48.6769C11.9157 47.2994 12.2408 45.9414 12.583 44.5948C12.7514 43.92 12.9323 43.2515 13.1128 42.5825C13.1357 42.4996 13.1582 42.4166 13.1811 42.3337C13.3407 41.7485 13.5033 41.1654 13.6729 40.5836C13.6833 40.5473 13.6933 40.5119 13.7038 40.476C13.8863 39.8475 14.0689 39.2198 14.2631 38.5946C14.3652 38.2633 14.4661 37.9324 14.5719 37.601L14.8987 36.5919L14.9004 36.5886C15.6048 34.4188 17.9355 33.2322 20.1053 33.937C22.2747 34.6434 23.4621 36.9742 22.7565 39.1427Z" fill="#B5591D" style="fill:#B5591D;fill:color(display-p3 0.7098 0.3490 0.1137);fill-opacity:1;"/>
</g>
</g>
</g>
<path id="Vector_82" d="M21.7216 42.339L21.524 42.9563L21.3027 43.6611C19.991 43.8699 17.487 43.8332 13.1777 42.3332C13.3374 41.748 13.4999 41.1649 13.6695 40.5831C13.68 40.5468 13.69 40.5114 13.7004 40.4755L21.7216 42.339Z" fill="#8F2D00" style="fill:#8F2D00;fill:color(display-p3 0.5608 0.1765 0.0000);fill-opacity:1;"/>
<g id="Group_505">
<g id="Group_506">
<path id="Vector_83" d="M18.0031 54.7912C17.906 54.7433 16.4856 54.0498 14.7772 53.43C14.6209 53.3733 14.4579 53.4967 14.4704 53.6626C14.4771 53.7526 14.5363 53.8297 14.6213 53.8605C16.3397 54.4849 17.7793 55.1876 17.8031 55.1993C17.9156 55.2547 18.0519 55.208 18.1073 55.0955C18.1624 54.983 18.1161 54.8467 18.0031 54.7912Z" fill="#8F2D00" style="fill:#8F2D00;fill:color(display-p3 0.5608 0.1765 0.0000);fill-opacity:1;"/>
</g>
</g>
<g id="Group_507">
<g id="Group_508">
<path id="Vector_84" d="M17.1376 54.7823C17.1218 54.7648 17.1089 54.7448 17.0989 54.7223C16.7071 53.8403 15.4575 52.7796 15.445 52.7688C15.3487 52.6879 15.3371 52.5445 15.4179 52.4482C15.4988 52.3524 15.6422 52.3403 15.7385 52.4212C15.7931 52.4674 17.0805 53.5611 17.5144 54.5372C17.5652 54.6518 17.5136 54.786 17.3989 54.8373C17.3064 54.8786 17.2018 54.8536 17.1376 54.7823Z" fill="#8F2D00" style="fill:#8F2D00;fill:color(display-p3 0.5608 0.1765 0.0000);fill-opacity:1;"/>
</g>
</g>
<g id="Group_509">
<g id="Group_510">
<g id="Group_511">
<g id="Group_512">
<g id="Group_513">
<g id="Group_514">
<g id="Group_515">
<path id="Vector_85" d="M19.953 66.3943C20.0977 66.6223 20.6433 67.8731 20.7066 67.9523C21.7974 69.314 23.8613 68.996 24.5615 69.8771C24.5615 69.8771 29.8448 74.1329 28.5773 74.6718C27.8792 74.9682 26.8264 74.4118 26.022 73.8528C26.0516 73.9275 26.0812 73.9946 26.1103 74.0583C26.723 75.3987 28.8803 76.8971 28.1001 77.8224C27.3207 78.7489 26.0161 77.3772 26.0161 77.3772C26.0161 77.3772 25.5181 78.4726 23.8542 77.7924C23.8542 77.7924 23.2057 78.6606 22.1404 78.2104C22.1404 78.2104 21.1713 79.1224 20.1702 78.4167C19.3199 77.817 17.6711 74.9382 15.6426 70.0625C16.5178 68.4275 17.6344 67.2871 19.953 66.3943Z" fill="#B5591D" style="fill:#B5591D;fill:color(display-p3 0.7098 0.3490 0.1137);fill-opacity:1;"/>
</g>
</g>
</g>
</g>
</g>
</g>
</g>
<path id="Vector_86" d="M21.036 25.9423C21.036 25.9423 15.8978 28.2939 13.0645 40.3288C13.0645 40.3288 17.1819 43.2759 22.3773 43.0171C22.3773 43.0171 25.5182 36.1454 26.2472 32.1825C26.9762 28.2193 25.251 24.1376 21.036 25.9423Z" fill="#121633" style="fill:#121633;fill:color(display-p3 0.0706 0.0863 0.2000);fill-opacity:1;"/>
<g id="Group_516">
<path id="Vector_87" d="M23.2609 42.2848C23.2463 42.2836 23.2317 42.2811 23.2171 42.2769C23.0946 42.2419 23.0237 42.1143 23.0588 41.9918C23.839 39.2614 25.9709 33.0016 25.9926 32.9386C26.0338 32.8178 26.1655 32.7536 26.2851 32.7949C26.4056 32.8357 26.4698 32.967 26.4289 33.0874C26.4077 33.1504 24.2791 39.3994 23.5022 42.1185C23.4714 42.2265 23.3684 42.2944 23.2609 42.2848Z" fill="#353C6D" style="fill:#353C6D;fill:color(display-p3 0.2078 0.2353 0.4275);fill-opacity:1;"/>
</g>
</g>
</g>
</g>
</svg>
