<svg width="72" height="174" viewBox="0 0 72 174" fill="none" xmlns="http://www.w3.org/2000/svg">
<g id="Group">
<g id="Group_2">
<g id="Group_3">
<g id="Group_4">
<g id="Group_5">
<path id="Vector" d="M55.5458 64.3026C55.5271 65.3405 55.4561 66.3546 55.3472 67.3485C55.2388 68.3443 55.0944 69.32 54.922 70.2831C54.5757 72.2084 54.1206 74.0734 53.5855 75.9052C53.3187 76.8216 53.0294 77.7277 52.7196 78.63C52.5649 79.0814 52.4061 79.5315 52.2383 79.9833L51.9799 80.6647L51.843 81.0119L51.6873 81.3965C50.8429 83.4727 48.4966 84.532 46.3742 83.7572C44.2017 82.9661 43.082 80.5623 43.8741 78.3898L43.9292 78.2375L44.1148 77.7281L44.3124 77.159C44.4433 76.7744 44.569 76.3837 44.6923 75.9926C44.9349 75.208 45.1634 74.4155 45.3718 73.6215C45.7882 72.0332 46.1293 70.435 46.3648 68.8579C46.5989 67.2826 46.7419 65.7195 46.7232 64.2442C46.7251 64.0578 46.7148 63.8774 46.7092 63.6956C46.7055 63.605 46.7045 63.5129 46.6999 63.4232L46.6821 63.1573L46.6653 62.8895L46.64 62.6003C46.6214 62.4026 46.6092 62.2101 46.5849 62.0077C46.5073 61.2101 46.3975 60.3783 46.2826 59.546C46.0447 57.8764 45.7564 56.1763 45.4456 54.4735C45.3896 54.1665 45.3326 53.8585 45.2751 53.5515C45.1966 53.1379 45.1176 52.7239 45.0363 52.3104C44.9727 51.9781 44.9073 51.6449 44.8414 51.3127C44.7124 50.6575 44.5793 50.0014 44.4447 49.3468C44.0909 47.6355 43.7232 45.9219 43.3419 44.2116L42.7615 41.6471L42.4638 40.3685L42.1643 39.1059L42.1502 39.0433C42.1437 39.018 42.139 38.9937 42.1334 38.9676C41.5876 36.4306 43.2017 33.9306 45.741 33.3847C47.4041 33.0273 49.0499 33.5964 50.1406 34.746C50.6135 35.6558 51.0794 36.7465 51.5252 37.926L51.6112 38.3264L51.8892 39.6489L52.4276 42.2905C52.7813 44.0522 53.122 45.8177 53.4486 47.5906C53.622 48.536 53.7921 49.4813 53.9552 50.4304C53.9888 50.6178 54.0215 50.8066 54.0533 50.9949C54.0916 51.2159 54.129 51.4384 54.1664 51.6594C54.2374 52.0851 54.3084 52.5104 54.3762 52.9379C54.6655 54.7333 54.9332 56.5408 55.1552 58.3913C55.2655 59.3198 55.3687 60.2521 55.4426 61.2227C55.465 61.4615 55.4781 61.7124 55.4949 61.9573C55.5024 62.0825 55.5127 62.2007 55.5183 62.3306L55.5332 62.7283L55.5472 63.1269C55.551 63.2596 55.55 63.3891 55.55 63.5218C55.5496 63.7811 55.5542 64.0452 55.5458 64.3026Z" fill="#FF9D7D" style="fill:#FF9D7D;fill:color(display-p3 1.0000 0.6157 0.4902);fill-opacity:1;"/>
</g>
</g>
</g>
<g id="Group_6">
<g id="Group_7">
<g id="Group_8">
<g id="Group_9">
<g id="Group_10">
<path id="Vector_2" d="M48.749 66.3762C48.6737 66.3575 48.6079 66.3047 48.5747 66.2281C48.5186 66.0977 48.5789 65.9463 48.7093 65.8902C48.7994 65.8514 50.9406 64.9425 53.0453 65.1981C53.1855 65.2145 53.2869 65.3435 53.2696 65.4846C53.2523 65.6257 53.1243 65.7262 52.9832 65.7089C51.0191 65.4706 48.9336 66.3538 48.913 66.3627C48.8588 66.386 48.8018 66.3893 48.749 66.3762Z" fill="#E0693E" style="fill:#E0693E;fill:color(display-p3 0.8784 0.4118 0.2431);fill-opacity:1;"/>
</g>
</g>
</g>
</g>
</g>
<g id="Group_11">
<g id="Group_12">
<g id="Group_13">
<g id="Group_14">
<g id="Group_15">
<path id="Vector_3" d="M49.0707 66.2154C49.0436 66.2089 49.0169 66.1972 48.9926 66.1813C48.8735 66.1038 48.8403 65.9439 48.9179 65.8252C49.5263 64.893 50.7132 64.199 50.7637 64.1696C50.8866 64.0986 51.0441 64.1406 51.1151 64.2635C51.1861 64.3864 51.1445 64.5439 51.0216 64.6154C51.0104 64.6219 49.8894 65.2785 49.3492 66.1066C49.287 66.2005 49.1739 66.2411 49.0707 66.2154Z" fill="#E0693E" style="fill:#E0693E;fill:color(display-p3 0.8784 0.4118 0.2431);fill-opacity:1;"/>
</g>
</g>
</g>
</g>
</g>
<path id="Vector_4" d="M44.8428 51.3119C44.9909 52.0586 45.1358 52.8053 45.276 53.5507L54.1672 51.6591C54.0981 51.2492 54.0285 50.8389 53.9565 50.4301L44.8428 51.3119Z" fill="#E0693E" style="fill:#E0693E;fill:color(display-p3 0.8784 0.4118 0.2431);fill-opacity:1;"/>
</g>
<path id="Vector_5" d="M35.6002 174C55.2617 174 71.2005 172.119 71.2005 169.798C71.2005 167.478 55.2617 165.596 35.6002 165.596C15.9388 165.596 0 167.478 0 169.798C0 172.119 15.9388 174 35.6002 174Z" fill="#AAB4BC" style="fill:#AAB4BC;fill:color(display-p3 0.6667 0.7059 0.7373);fill-opacity:1;"/>
<g id="Group_16">
<g id="Group_17">
<g id="Group_18">
<g id="Group_19">
<g id="Group_20">
<g id="Group_21">
<g id="Group_22">
<g id="Group_23">
<g id="Group_24">
<g id="Group_25">
<g id="Group_26">
<g id="Group_27">
<g id="Group_28">
<g id="Group_29">
<g id="Group_30">
<path id="Vector_6" d="M11.2889 155.766L11.0029 159.823H17.7657L18.0517 155.766H11.2889Z" fill="#FF9D7D" style="fill:#FF9D7D;fill:color(display-p3 1.0000 0.6157 0.4902);fill-opacity:1;"/>
</g>
</g>
</g>
</g>
</g>
</g>
</g>
</g>
</g>
</g>
<g id="Group_31">
<g id="Group_32">
<g id="Group_33">
<path id="Vector_7" d="M27.6467 116.107C27.6467 116.107 27.7019 118.762 25.0154 130.4C22.7134 140.369 19.2643 156.555 19.2643 156.555C19.2643 156.555 13.5404 157.112 10.1221 155.7L12.8534 122.832L13.2436 118.134L14.288 105.567L14.4044 100.242C14.5147 88.0781 16.6942 75.827 16.6942 75.827L32.273 87.4263C31.9024 94.7376 29.3206 107.945 27.6089 116.069L27.6467 116.107Z" fill="#121633" style="fill:#121633;fill:color(display-p3 0.0706 0.0863 0.2000);fill-opacity:1;"/>
</g>
</g>
</g>
<path id="Vector_8" d="M19.5026 120.944C19.4092 122.257 16.8217 123.143 13.724 122.922C13.4263 122.9 13.1347 122.87 12.8516 122.83L13.2418 118.133C13.51 118.134 13.7848 118.146 14.0633 118.166C17.161 118.386 19.5961 119.631 19.5026 120.944Z" fill="#353C6D" style="fill:#353C6D;fill:color(display-p3 0.2078 0.2353 0.4275);fill-opacity:1;"/>
<g id="Group_34">
<g id="Group_35">
<g id="Group_36">
<path id="Vector_9" d="M18.0475 153.524C18.0171 153.524 17.9868 153.521 17.9559 153.515C17.6994 153.465 17.5321 153.216 17.5821 152.959C17.8709 151.484 18.7438 147.72 19.8485 142.955C21.9443 133.916 24.8149 121.536 25.1729 118.265C25.1748 118.248 25.1771 118.232 25.1808 118.216C26.3201 112.975 29.1725 93.4045 29.201 93.2073C29.2389 92.9484 29.4786 92.7685 29.7375 92.8073C29.9959 92.8446 30.1753 93.0848 30.1375 93.3437C30.109 93.5409 27.2603 113.085 26.1108 118.393C25.735 121.758 22.8663 134.13 20.7705 143.169C19.7111 147.737 18.7966 151.682 18.5111 153.142C18.4671 153.367 18.269 153.524 18.0475 153.524Z" fill="#353C6D" style="fill:#353C6D;fill:color(display-p3 0.2078 0.2353 0.4275);fill-opacity:1;"/>
</g>
</g>
</g>
<g id="Group_37">
<g id="Group_38">
<g id="Group_39">
<g id="Group_40">
<g id="Group_41">
<path id="Vector_10" d="M18.3948 153.707C14.8433 153.707 10.9849 152.776 10.8068 152.732C10.6316 152.689 10.5241 152.513 10.5671 152.338C10.6096 152.163 10.7867 152.056 10.9615 152.098C11.0087 152.11 15.7097 153.241 19.4032 153.026C19.5822 153.01 19.7378 153.153 19.7486 153.332C19.7593 153.513 19.6219 153.667 19.442 153.677C19.099 153.698 18.7486 153.707 18.3948 153.707Z" fill="#353C6D" style="fill:#353C6D;fill:color(display-p3 0.2078 0.2353 0.4275);fill-opacity:1;"/>
</g>
</g>
</g>
</g>
</g>
<g id="Group_42">
<g id="Group_43">
<g id="Group_44">
<g id="Group_45">
<g id="Group_46">
<g id="Group_47">
<g id="Group_48">
<g id="Group_49">
<g id="Group_50">
<g id="Group_51">
<g id="Group_52">
<g id="Group_53">
<g id="Group_54">
<g id="Group_55">
<path id="Vector_11" d="M19.8291 168.97C19.8291 169.027 19.8276 169.082 19.8262 169.136C19.8211 169.389 19.8099 169.616 19.7991 169.811C19.7734 170.239 19.7426 170.503 19.7426 170.503H5.51242C5.51242 170.503 5.44186 169.953 5.49606 169.136C5.58952 167.682 6.07224 165.385 8.0377 163.868C10.7279 161.787 9.68913 162.222 10.241 161.274C10.3032 161.168 10.7873 159.557 10.8387 159.446C11.3013 158.462 11.7275 157.996 14.2771 157.996C17.6584 157.996 17.9561 159.637 18.3169 160.501C18.4655 160.86 18.6697 161.613 18.8795 162.51C18.9645 162.869 19.0501 163.254 19.1337 163.644C19.3421 164.625 19.537 165.648 19.6692 166.466C19.8104 167.341 19.8398 168.242 19.8291 168.97Z" fill="#FA7027" style="fill:#FA7027;fill:color(display-p3 0.9804 0.4392 0.1529);fill-opacity:1;"/>
</g>
</g>
</g>
</g>
</g>
</g>
</g>
</g>
</g>
</g>
</g>
<g id="Group_56">
<g id="Group_57">
<g id="Group_58">
<g id="Group_59">
<g id="Group_60">
<path id="Vector_12" d="M19.8311 168.97C19.8311 169.027 19.8297 169.082 19.8282 169.136C19.8231 169.389 19.8119 169.616 19.8012 169.811C19.1072 169.324 18.6123 168.682 18.3231 167.895C17.4427 165.496 18.7964 162.618 18.853 162.497L18.8815 162.51C18.9665 162.87 19.0521 163.254 19.1357 163.645C18.8151 164.624 18.446 166.27 18.9586 167.663C19.1455 168.17 19.4376 168.607 19.8311 168.97Z" fill="#D34606" style="fill:#D34606;fill:color(display-p3 0.8275 0.2745 0.0235);fill-opacity:1;"/>
</g>
</g>
</g>
</g>
</g>
<g id="Group_61">
<g id="Group_62">
<g id="Group_63">
<g id="Group_64">
<g id="Group_65">
<path id="Vector_13" d="M19.8272 169.136C19.8085 169.946 19.7436 170.503 19.7436 170.503H5.5134C5.5134 170.503 5.44283 169.953 5.49704 169.136H19.8272Z" fill="#D34606" style="fill:#D34606;fill:color(display-p3 0.8275 0.2745 0.0235);fill-opacity:1;"/>
</g>
</g>
</g>
</g>
</g>
</g>
<g id="Group_66">
<g id="Group_67">
<g id="Group_68">
<g id="Group_69">
<g id="Group_70">
<g id="Group_71">
<g id="Group_72">
<g id="Group_73">
<g id="Group_74">
<g id="Group_75">
<g id="Group_76">
<path id="Vector_14" d="M14.7508 162.432C14.7172 162.432 14.6831 162.428 14.649 162.419C12.8391 161.951 11.3648 162.347 11.3503 162.351C11.1339 162.411 10.9106 162.285 10.8508 162.069C10.7909 161.853 10.9176 161.629 11.1335 161.569C11.2017 161.55 12.8344 161.111 14.8522 161.634C15.0691 161.69 15.1994 161.911 15.1434 162.129C15.0962 162.311 14.9312 162.432 14.7508 162.432Z" fill="#F2F7F9" style="fill:#F2F7F9;fill:color(display-p3 0.9490 0.9686 0.9765);fill-opacity:1;"/>
</g>
</g>
</g>
</g>
</g>
</g>
</g>
</g>
</g>
</g>
</g>
<g id="Group_77">
<g id="Group_78">
<g id="Group_79">
<g id="Group_80">
<g id="Group_81">
<g id="Group_82">
<g id="Group_83">
<g id="Group_84">
<g id="Group_85">
<g id="Group_86">
<g id="Group_87">
<path id="Vector_15" d="M14.9178 160.993C14.8842 160.993 14.8501 160.989 14.816 160.98C13.0061 160.512 11.5318 160.908 11.5173 160.913C11.3009 160.972 11.0776 160.846 11.0178 160.63C10.9579 160.414 11.0846 160.191 11.3005 160.131C11.3692 160.112 13.0014 159.673 15.0192 160.195C15.2361 160.251 15.3664 160.473 15.3103 160.69C15.2631 160.872 15.0982 160.993 14.9178 160.993Z" fill="#F2F7F9" style="fill:#F2F7F9;fill:color(display-p3 0.9490 0.9686 0.9765);fill-opacity:1;"/>
</g>
</g>
</g>
</g>
</g>
</g>
</g>
</g>
</g>
</g>
</g>
<g id="Group_88">
<g id="Group_89">
<g id="Group_90">
<g id="Group_91">
<g id="Group_92">
<g id="Group_93">
<g id="Group_94">
<g id="Group_95">
<g id="Group_96">
<g id="Group_97">
<g id="Group_98">
<path id="Vector_16" d="M14.1432 163.718C14.1096 163.718 14.0755 163.714 14.0414 163.705C12.2432 163.239 10.7563 163.633 10.7418 163.637C10.5259 163.696 10.303 163.569 10.2432 163.353C10.1838 163.137 10.31 162.914 10.5259 162.855C10.5941 162.836 12.2269 162.397 14.2446 162.919C14.4615 162.975 14.5918 163.197 14.5358 163.414C14.4886 163.596 14.3241 163.718 14.1432 163.718Z" fill="#F2F7F9" style="fill:#F2F7F9;fill:color(display-p3 0.9490 0.9686 0.9765);fill-opacity:1;"/>
</g>
</g>
</g>
</g>
</g>
</g>
</g>
</g>
</g>
</g>
</g>
<g id="Group_99">
<g id="Group_100">
<g id="Group_101">
<g id="Group_102">
<g id="Group_103">
<g id="Group_104">
<g id="Group_105">
<g id="Group_106">
<g id="Group_107">
<g id="Group_108">
<g id="Group_109">
<path id="Vector_17" d="M13.4225 165.179C13.3884 165.179 13.3543 165.175 13.3202 165.166C11.522 164.701 10.0355 165.094 10.0206 165.099C9.80468 165.158 9.58132 165.03 9.52244 164.815C9.46309 164.599 9.58972 164.376 9.80514 164.316C9.87337 164.298 11.5061 163.858 13.5239 164.381C13.7407 164.437 13.8711 164.658 13.815 164.875C13.7678 165.058 13.6029 165.179 13.4225 165.179Z" fill="#F2F7F9" style="fill:#F2F7F9;fill:color(display-p3 0.9490 0.9686 0.9765);fill-opacity:1;"/>
</g>
</g>
</g>
</g>
</g>
</g>
</g>
</g>
</g>
</g>
</g>
</g>
</g>
</g>
<g id="Group_110">
<g id="Group_111">
<g id="Group_112">
<path id="Vector_18" d="M16.9398 74.1466C16.9398 74.1466 15.3061 84.0314 16.4154 87.9885C17.5243 91.9456 45.5441 95.3232 47.3623 91.703C50.7535 84.952 48.3465 78.4981 48.1497 76.7191C35.907 79.5397 25.7909 78.0574 16.9398 74.1466Z" fill="#121633" style="fill:#121633;fill:color(display-p3 0.0706 0.0863 0.2000);fill-opacity:1;"/>
</g>
</g>
</g>
<g id="Group_113">
<g id="Group_114">
<g id="Group_115">
<g id="Group_116">
<g id="Group_117">
<g id="Group_118">
<g id="Group_119">
<g id="Group_120">
<path id="Vector_19" d="M43.6504 155.892L44.3083 160.828H50.4337L49.7753 155.892H43.6504Z" fill="#FF9D7D" style="fill:#FF9D7D;fill:color(display-p3 1.0000 0.6157 0.4902);fill-opacity:1;"/>
</g>
</g>
</g>
</g>
</g>
</g>
<g id="Group_121">
<g id="Group_122">
<g id="Group_123">
<path id="Vector_20" d="M65.1164 170.503H42.815C42.6492 170.201 42.559 169.774 42.5216 169.264C42.3823 167.378 42.9837 164.367 43.2781 162.468C43.3141 162.247 43.3445 162.039 43.3683 161.852C43.4095 161.535 43.4347 161.271 43.4347 161.077C43.4347 159.528 44.8062 159.793 44.8062 159.793C47.0628 162.007 49.6185 158.688 51.1105 159.776C51.1105 159.776 51.7531 160.237 53.5237 161.83C55.2929 163.423 58.3051 164.474 60.8687 165.547C64.1781 166.93 65.1164 168.312 65.2996 169.264C65.444 170.018 65.1164 170.503 65.1164 170.503Z" fill="#FA7027" style="fill:#FA7027;fill:color(display-p3 0.9804 0.4392 0.1529);fill-opacity:1;"/>
</g>
</g>
</g>
<g id="Group_124">
<g id="Group_125">
<g id="Group_126">
<g id="Group_127">
<g id="Group_128">
<path id="Vector_21" d="M65.1183 170.505H42.8169C42.651 170.203 42.5608 169.776 42.5234 169.266H65.3015C65.4458 170.02 65.1183 170.505 65.1183 170.505Z" fill="#D34606" style="fill:#D34606;fill:color(display-p3 0.8275 0.2745 0.0235);fill-opacity:1;"/>
</g>
</g>
</g>
</g>
</g>
<g id="Group_129">
<g id="Group_130">
<g id="Group_131">
<g id="Group_132">
<g id="Group_133">
<g id="Group_134">
<g id="Group_135">
<g id="Group_136">
<g id="Group_137">
<g id="Group_138">
<g id="Group_139">
<g id="Group_140">
<path id="Vector_22" d="M45.0832 170.506H44.421C45.0818 169.751 45.7005 168.592 45.6197 166.935C45.5122 164.731 44.1897 163.246 43.2715 162.472C43.3075 162.25 43.3379 162.043 43.3617 161.856C44.3519 162.612 46.0206 164.269 46.1505 166.908C46.2276 168.491 45.7085 169.671 45.0832 170.506Z" fill="#D34606" style="fill:#D34606;fill:color(display-p3 0.8275 0.2745 0.0235);fill-opacity:1;"/>
</g>
</g>
</g>
</g>
</g>
</g>
</g>
</g>
</g>
</g>
</g>
</g>
<g id="Group_141">
<g id="Group_142">
<g id="Group_143">
<g id="Group_144">
<g id="Group_145">
<g id="Group_146">
<g id="Group_147">
<g id="Group_148">
<g id="Group_149">
<g id="Group_150">
<g id="Group_151">
<path id="Vector_23" d="M53.0511 162.99C52.8862 162.99 52.7362 162.878 52.6946 162.711C52.6455 162.514 52.7656 162.315 52.9628 162.265L54.3558 161.92C54.5525 161.87 54.7521 161.991 54.8011 162.188C54.8502 162.385 54.7301 162.584 54.5329 162.633L53.1399 162.979C53.1105 162.986 53.0806 162.99 53.0511 162.99Z" fill="#F2F7F9" style="fill:#F2F7F9;fill:color(display-p3 0.9490 0.9686 0.9765);fill-opacity:1;"/>
</g>
</g>
</g>
</g>
</g>
</g>
</g>
</g>
</g>
</g>
</g>
<g id="Group_152">
<g id="Group_153">
<g id="Group_154">
<g id="Group_155">
<g id="Group_156">
<g id="Group_157">
<g id="Group_158">
<g id="Group_159">
<g id="Group_160">
<g id="Group_161">
<g id="Group_162">
<path id="Vector_24" d="M51.7005 161.909C51.5356 161.909 51.3856 161.798 51.344 161.631C51.2949 161.434 51.415 161.234 51.6122 161.185L53.0052 160.839C53.202 160.79 53.4015 160.91 53.4506 161.108C53.4996 161.304 53.3795 161.504 53.1823 161.553L51.7893 161.899C51.7599 161.906 51.73 161.909 51.7005 161.909Z" fill="#F2F7F9" style="fill:#F2F7F9;fill:color(display-p3 0.9490 0.9686 0.9765);fill-opacity:1;"/>
</g>
</g>
</g>
</g>
</g>
</g>
</g>
</g>
</g>
</g>
</g>
<g id="Group_163">
<g id="Group_164">
<g id="Group_165">
<g id="Group_166">
<g id="Group_167">
<g id="Group_168">
<g id="Group_169">
<g id="Group_170">
<g id="Group_171">
<g id="Group_172">
<g id="Group_173">
<path id="Vector_25" d="M54.5345 163.955C54.3696 163.955 54.2196 163.844 54.178 163.676C54.1289 163.48 54.249 163.28 54.4462 163.232L55.8392 162.886C56.0359 162.837 56.2355 162.957 56.2845 163.154C56.3336 163.351 56.2135 163.55 56.0163 163.599L54.6233 163.945C54.5939 163.952 54.564 163.955 54.5345 163.955Z" fill="#F2F7F9" style="fill:#F2F7F9;fill:color(display-p3 0.9490 0.9686 0.9765);fill-opacity:1;"/>
</g>
</g>
</g>
</g>
</g>
</g>
</g>
</g>
</g>
</g>
</g>
<g id="Group_174">
<g id="Group_175">
<g id="Group_176">
<g id="Group_177">
<g id="Group_178">
<g id="Group_179">
<g id="Group_180">
<g id="Group_181">
<g id="Group_182">
<g id="Group_183">
<g id="Group_184">
<path id="Vector_26" d="M55.932 164.735C55.767 164.735 55.617 164.622 55.5754 164.456C55.5264 164.259 55.6465 164.059 55.8437 164.01L57.2367 163.665C57.4339 163.615 57.633 163.736 57.6816 163.933C57.7306 164.129 57.6105 164.329 57.4133 164.378L56.0203 164.724C55.9909 164.731 55.9614 164.735 55.932 164.735Z" fill="#F2F7F9" style="fill:#F2F7F9;fill:color(display-p3 0.9490 0.9686 0.9765);fill-opacity:1;"/>
</g>
</g>
</g>
</g>
</g>
</g>
</g>
</g>
</g>
</g>
</g>
<g id="Group_185">
<g id="Group_186">
<g id="Group_187">
<g id="Group_188">
<g id="Group_189">
<g id="Group_190">
<g id="Group_191">
<g id="Group_192">
<g id="Group_193">
<g id="Group_194">
<g id="Group_195">
<path id="Vector_27" d="M57.4447 165.452C57.2797 165.452 57.1297 165.34 57.0881 165.173C57.0391 164.976 57.1592 164.777 57.3564 164.728L58.7494 164.382C58.9461 164.333 59.1457 164.453 59.1947 164.65C59.2438 164.847 59.1237 165.047 58.9265 165.096L57.5335 165.442C57.504 165.449 57.4741 165.452 57.4447 165.452Z" fill="#F2F7F9" style="fill:#F2F7F9;fill:color(display-p3 0.9490 0.9686 0.9765);fill-opacity:1;"/>
</g>
</g>
</g>
</g>
</g>
</g>
</g>
</g>
</g>
</g>
</g>
<g id="Group_196">
<g id="Group_197">
<g id="Group_198">
<g id="Group_199">
<g id="Group_200">
<g id="Group_201">
<g id="Group_202">
<g id="Group_203">
<g id="Group_204">
<g id="Group_205">
<g id="Group_206">
<path id="Vector_28" d="M59.0872 166.067C58.9223 166.067 58.7723 165.955 58.7307 165.788C58.6816 165.592 58.8017 165.392 58.9989 165.343L60.3919 164.997C60.5891 164.948 60.7882 165.068 60.8373 165.265C60.8863 165.463 60.7662 165.662 60.569 165.711L59.176 166.057C59.1466 166.064 59.1167 166.067 59.0872 166.067Z" fill="#F2F7F9" style="fill:#F2F7F9;fill:color(display-p3 0.9490 0.9686 0.9765);fill-opacity:1;"/>
</g>
</g>
</g>
</g>
</g>
</g>
</g>
</g>
</g>
</g>
</g>
</g>
<g id="Group_207">
<g id="Group_208">
<g id="Group_209">
<path id="Vector_29" d="M50.4376 156.801C47.302 157.533 42.9991 157.489 42.9991 157.489C42.9991 157.489 38.3972 138.091 37.0742 129.069C36.0074 121.788 33.0508 91.7253 33.0508 91.7253L48.9838 86.0144L49.1539 118.133L49.3114 122.863L50.4376 156.801Z" fill="#121633" style="fill:#121633;fill:color(display-p3 0.0706 0.0863 0.2000);fill-opacity:1;"/>
</g>
</g>
</g>
<path id="Vector_30" d="M49.3098 122.863C49.1046 122.887 48.8962 122.907 48.6845 122.922C45.5863 123.143 42.9994 122.257 42.9059 120.944C42.8125 119.63 45.2476 118.386 48.3457 118.166C48.6186 118.146 48.8888 118.135 49.1523 118.133L49.3098 122.863Z" fill="#353C6D" style="fill:#353C6D;fill:color(display-p3 0.2078 0.2353 0.4275);fill-opacity:1;"/>
<g id="Group_210">
<g id="Group_211">
<g id="Group_212">
<path id="Vector_31" d="M43.6521 154.853C43.4311 154.853 43.233 154.697 43.1886 154.472C43.1689 154.372 41.1918 144.394 39.8208 137.922C38.4455 131.427 37.0539 120.347 37.0399 120.235L34.4954 93.7896C34.4702 93.5293 34.6608 93.2984 34.9211 93.2732C35.18 93.2498 35.4123 93.4386 35.4375 93.6989L37.9805 120.131C37.9927 120.228 39.3796 131.27 40.7465 137.726C42.1185 144.205 44.0965 154.188 44.1166 154.288C44.1676 154.544 44.0007 154.794 43.7442 154.844C43.7138 154.85 43.683 154.853 43.6521 154.853Z" fill="#353C6D" style="fill:#353C6D;fill:color(display-p3 0.2078 0.2353 0.4275);fill-opacity:1;"/>
</g>
</g>
</g>
<g id="Group_213">
<g id="Group_214">
<g id="Group_215">
<path id="Vector_32" d="M42.5863 154.968C42.4181 154.968 42.2774 154.834 42.2681 154.66C42.2583 154.48 42.3933 154.326 42.569 154.316L50.1285 153.885C50.3014 153.876 50.4552 154.012 50.465 154.193C50.4748 154.373 50.3402 154.527 50.164 154.537L42.6045 154.968C42.5985 154.968 42.5924 154.968 42.5863 154.968Z" fill="#353C6D" style="fill:#353C6D;fill:color(display-p3 0.2078 0.2353 0.4275);fill-opacity:1;"/>
</g>
</g>
</g>
</g>
<g id="Group_216">
<g id="Group_217">
<g id="Group_218">
<g id="Group_219">
<g id="Group_220">
<g id="Group_221">
<g id="Group_222">
<g id="Group_223">
<g id="Group_224">
<g id="Group_225">
<g id="Group_226">
<g id="Group_227">
<g id="Group_228">
<path id="Vector_33" d="M31.2507 77.4146C31.2465 77.5099 31.2427 77.6066 31.2385 77.7047C31.1296 80.2805 30.9937 83.9282 30.9231 87.6503C30.9184 87.8554 30.9151 88.062 30.9105 88.2676C30.8908 89.455 30.8773 90.6447 30.874 91.8036C30.8736 91.9672 31.0058 92.1008 31.1694 92.1027C31.1708 92.1027 31.1708 92.1027 31.1717 92.1027C31.3367 92.1032 31.4703 91.9695 31.4708 91.805C31.474 90.6854 31.4871 89.5386 31.5063 88.3928C31.5096 88.1909 31.5128 87.9895 31.517 87.7877C31.5867 84.0427 31.7231 80.3632 31.8334 77.7646C31.8385 77.6459 31.8437 77.5295 31.8484 77.4146H31.2507Z" fill="#353C6D" style="fill:#353C6D;fill:color(display-p3 0.2078 0.2353 0.4275);fill-opacity:1;"/>
</g>
</g>
</g>
</g>
</g>
</g>
</g>
</g>
</g>
</g>
</g>
</g>
<g id="Group_229">
<g id="Group_230">
<g id="Group_231">
<g id="Group_232">
<g id="Group_233">
<g id="Group_234">
<path id="Vector_34" d="M33.6994 77.4139C33.6919 77.5733 33.6845 77.7359 33.677 77.9037C33.5181 81.2738 33.2742 86.0445 33.1129 87.1711C33.077 87.431 32.97 87.6015 32.777 87.7095C32.4685 87.8805 31.9933 87.8707 31.5181 87.787C31.3152 87.7515 31.1129 87.7029 30.9241 87.6497C30.5779 87.552 30.2746 87.4366 30.0919 87.3571C29.9409 87.2912 29.7647 87.3595 29.6989 87.5104C29.633 87.6613 29.7017 87.8375 29.8521 87.9034C29.947 87.945 30.3736 88.1263 30.912 88.2665C31.0998 88.316 31.3012 88.36 31.5078 88.3917C31.6961 88.4202 31.8868 88.4385 32.0755 88.4408C32.4372 88.4445 32.784 88.3885 33.0685 88.23C33.4228 88.0333 33.6433 87.6955 33.7055 87.2543C33.8714 86.0922 34.1167 81.3145 34.2747 77.9359C34.2835 77.7574 34.2915 77.5845 34.2994 77.4139H33.6994Z" fill="#353C6D" style="fill:#353C6D;fill:color(display-p3 0.2078 0.2353 0.4275);fill-opacity:1;"/>
</g>
</g>
</g>
</g>
</g>
</g>
</g>
</g>
</g>
</g>
</g>
<g id="Group_235">
<g id="Group_236">
<g id="Group_237">
<g id="Group_238">
<g id="Group_239">
<path id="Vector_35" d="M23.2741 29.3246C23.2741 29.3246 18.6904 27.7311 15.7464 29.7288C12.8024 31.7261 11.5771 37.2402 11.5771 37.2402L20.6068 37.2393L23.2741 29.3246Z" fill="#353C6D" style="fill:#353C6D;fill:color(display-p3 0.2078 0.2353 0.4275);fill-opacity:1;"/>
</g>
</g>
</g>
</g>
<g id="Group_240">
<g id="Group_241">
<g id="Group_242">
<path id="Vector_36" d="M15.3712 45.873C15.3712 45.873 8.02014 40.1038 5.9757 46.8249C3.77285 54.0657 7.69117 58.5144 7.69117 58.5144L12.7043 53.7872L15.3712 45.873Z" fill="#353C6D" style="fill:#353C6D;fill:color(display-p3 0.2078 0.2353 0.4275);fill-opacity:1;"/>
</g>
</g>
</g>
<g id="Group_243">
<g id="Group_244">
<g id="Group_245">
<path id="Vector_37" d="M31.3478 28.4457C31.3478 28.4457 20.6163 22.4302 11.7031 36.3776C2.7898 50.3246 7.68522 67.3675 15.2242 71.7896C22.7636 76.2116 31.596 70.9919 31.596 70.9919L31.3478 28.4457Z" fill="#121633" style="fill:#121633;fill:color(display-p3 0.0706 0.0863 0.2000);fill-opacity:1;"/>
</g>
</g>
</g>
</g>
<g id="Group_246">
<g id="Group_247">
<g id="Group_248">
<path id="Vector_38" d="M55.2594 50.8181L54.052 50.9947L45.0349 52.3097L43.9003 52.4751L41.841 39.5426C41.4311 36.9701 41.8438 35.0168 43.7849 33.2785C45.0251 32.1682 46.8429 31.0191 48.6037 32.5504C49.1131 32.9939 49.6313 33.7644 50.1397 34.7462C50.6126 35.6561 51.0785 36.7468 51.5243 37.9262C53.5996 43.4137 55.2594 50.8181 55.2594 50.8181Z" fill="#545AE4" style="fill:#545AE4;fill:color(display-p3 0.3294 0.3529 0.8941);fill-opacity:1;"/>
</g>
</g>
</g>
<g id="Group_249">
<g id="Group_250">
<g id="Group_251">
<g id="Group_252">
<path id="Vector_39" d="M49.7479 45.8952C49.7161 46.7499 49.6703 47.6074 49.6096 48.4569C49.5955 48.6593 49.5684 48.8798 49.5339 49.1196C49.461 49.6205 49.3549 50.2028 49.2549 50.8635C49.1147 51.7892 48.989 52.8659 48.9918 54.0865C48.9918 54.2033 48.9937 54.3215 48.9965 54.4402C49.0039 54.7052 48.9937 55.4061 48.9946 55.8304C48.9946 55.9211 48.9946 55.9973 48.9965 56.0561C49.0208 57.0529 49.0404 58.0557 49.0563 59.0534C49.1937 67.9139 48.9965 76.3402 48.9965 76.3402C46.5217 77.6972 39.7743 82.9282 18.9332 76.6678C15.7411 75.7093 17.2519 71.906 17.251 64.1998C17.2491 63.8769 17.2491 63.553 17.251 63.2329C17.2594 61.8035 17.2837 60.396 17.3117 59.0534C17.337 57.9244 17.365 56.8407 17.3893 55.8304C17.4033 55.2211 17.4164 54.637 17.4267 54.0865C17.4304 53.9187 17.4332 53.7542 17.436 53.593C17.4407 53.2795 17.4444 52.9781 17.4472 52.6888C17.4538 52.0009 17.4519 51.3888 17.436 50.8635C17.4332 50.7458 17.4295 50.6322 17.4248 50.5229C17.4052 50.0612 17.3781 49.5925 17.3463 49.1196C17.2762 48.0611 17.186 46.9798 17.1047 45.8957C16.7276 40.8624 16.5711 35.7871 19.7959 32.8968C24.0268 29.1065 27.6297 27.335 27.6297 27.335L38.6308 27.6906C38.6308 27.6906 48.36 30.5832 49.0446 33.3604C49.6315 35.7403 49.9385 40.7703 49.7479 45.8952Z" fill="#545AE4" style="fill:#545AE4;fill:color(display-p3 0.3294 0.3529 0.8941);fill-opacity:1;"/>
</g>
<path id="Vector_40" d="M49.7472 45.8951C49.7154 46.7498 49.6696 47.6073 49.6088 48.4569C49.5948 48.6592 49.5677 48.8798 49.5331 49.1195H17.3451C17.275 48.0611 17.1848 46.9797 17.1035 45.8956H49.7472V45.8951Z" fill="#3228BD" style="fill:#3228BD;fill:color(display-p3 0.1961 0.1569 0.7412);fill-opacity:1;"/>
<path id="Vector_41" d="M49.2544 50.8627C49.1143 51.7884 48.9886 52.865 48.9914 54.0856H17.4258C17.4295 53.9179 17.4323 53.7534 17.4351 53.5922C17.4398 53.2786 17.4435 52.9772 17.4463 52.6879C17.4529 52.0001 17.451 51.3879 17.4351 50.8627H49.2544Z" fill="#3228BD" style="fill:#3228BD;fill:color(display-p3 0.1961 0.1569 0.7412);fill-opacity:1;"/>
<path id="Vector_42" d="M49.0566 59.0531H17.3115C17.3368 57.9241 17.3648 56.8404 17.3891 55.8301H48.9949C48.9949 55.9208 48.9949 55.997 48.9967 56.0558C49.021 57.0526 49.0407 58.0554 49.0566 59.0531Z" fill="#3228BD" style="fill:#3228BD;fill:color(display-p3 0.1961 0.1569 0.7412);fill-opacity:1;"/>
<g id="Group_253">
<g id="Group_254">
<g id="Group_255">
<g id="Group_256">
<path id="Vector_43" d="M28.8318 35.1595C32.0823 35.4029 34.7202 34.4613 36.5091 33.4963C39.0058 32.1491 40.3937 30.508 40.4517 30.4393C40.5671 30.3009 40.5489 30.0953 40.4105 29.9799C40.2722 29.8636 40.0666 29.8822 39.9507 30.0206C39.897 30.0851 34.4698 36.4123 26.0336 33.9935C25.8607 33.9435 25.6794 34.044 25.6299 34.2174C25.5803 34.3907 25.6803 34.5711 25.8537 34.6211C26.8939 34.9188 27.8888 35.0889 28.8318 35.1595Z" fill="#3228BD" style="fill:#3228BD;fill:color(display-p3 0.1961 0.1569 0.7412);fill-opacity:1;"/>
</g>
</g>
</g>
</g>
<g id="Group_257">
<g id="Group_258">
<g id="Group_259">
<g id="Group_260">
<path id="Vector_44" d="M40.2467 28.2151C40.2467 28.2151 42.6627 34.8648 39.8411 41.6878C37.02 48.5108 27.3698 54.1652 21.0132 53.4334C21.0132 53.4334 18.8949 54.9068 18.3486 58.0059C18.3486 58.0059 34.069 58.6335 41.1131 47.6491C49.1193 35.1648 44.0655 29.6941 44.0655 29.6941C43.3061 28.8193 41.2799 27.7917 40.2467 28.2151Z" fill="#121633" style="fill:#121633;fill:color(display-p3 0.0706 0.0863 0.2000);fill-opacity:1;"/>
</g>
</g>
</g>
<g id="Group_261">
<g id="Group_262">
<g id="Group_263">
<path id="Vector_45" d="M41.1532 39.8004C42.0065 39.9392 43.3257 40.2434 44.4813 40.8911C44.987 41.1748 45.172 41.8122 44.9019 42.3252C44.2126 43.6356 42.842 46.1487 41.721 47.6324C41.3972 48.0609 40.806 48.1828 40.3383 47.9188L37.7447 46.4562C37.1887 46.1426 37.0274 45.4164 37.3985 44.8977C38.162 43.8318 39.3476 42.0505 39.9868 40.4546C40.1738 39.9906 40.6593 39.7201 41.1532 39.8004Z" fill="#353C6D" style="fill:#353C6D;fill:color(display-p3 0.2078 0.2353 0.4275);fill-opacity:1;"/>
</g>
</g>
</g>
</g>
<g id="Group_264">
<g id="Group_265">
<path id="Vector_46" d="M49.5404 51.7338C49.5436 51.7343 49.5474 51.7343 49.5507 51.7343C49.6754 51.738 49.7801 51.6399 49.7838 51.5151C49.7862 51.4352 50.0217 43.465 49.4488 38.6962C49.4338 38.5719 49.3203 38.4831 49.1974 38.4985C49.0731 38.5135 48.9847 38.6261 48.9997 38.7499C49.5684 43.4855 49.3338 51.4217 49.3315 51.5011C49.3273 51.6231 49.4203 51.7249 49.5404 51.7338Z" fill="#3228BD" style="fill:#3228BD;fill:color(display-p3 0.1961 0.1569 0.7412);fill-opacity:1;"/>
</g>
<g id="Group_266">
<path id="Vector_47" d="M49.5086 41.7825C49.6035 41.7895 49.6965 41.7358 49.7348 41.6432L50.4325 39.9558C50.4801 39.8404 50.4254 39.7077 50.31 39.6605C50.1946 39.6119 50.0624 39.6675 50.0147 39.7829L49.317 41.4703C49.2693 41.5858 49.324 41.718 49.4399 41.7657C49.4619 41.7755 49.4852 41.7811 49.5086 41.7825Z" fill="#3228BD" style="fill:#3228BD;fill:color(display-p3 0.1961 0.1569 0.7412);fill-opacity:1;"/>
</g>
</g>
</g>
</g>
<g id="Group_267">
<g id="Group_268">
<g id="Group_269">
<path id="Vector_48" d="M26.4026 74.0898C30.6583 74.6781 35.228 73.35 39.8061 70.1612C44.1604 67.1284 47.0324 63.4382 47.061 63.4012C47.1666 63.2643 47.1413 63.0676 47.0044 62.962C46.8675 62.8564 46.6708 62.8816 46.5651 63.0185C46.5371 63.0545 43.7142 66.6793 39.4356 69.6565C35.5191 72.3813 29.54 75.108 23.2951 72.6248C23.1348 72.5617 22.9525 72.6393 22.8885 72.8C22.8245 72.9608 22.903 73.143 23.0638 73.207C24.1498 73.6384 25.2652 73.9323 26.4026 74.0898Z" fill="#3228BD" style="fill:#3228BD;fill:color(display-p3 0.1961 0.1569 0.7412);fill-opacity:1;"/>
</g>
</g>
</g>
<g id="Group_270">
<g id="Group_271">
<g id="Group_272">
<path id="Vector_49" d="M30.8006 70.1269C30.823 70.1302 30.8463 70.1307 30.8697 70.1288C36.1651 69.6858 41.1152 63.6768 41.3232 63.4212C41.4325 63.2871 41.4125 63.0899 41.2783 62.9805C41.1442 62.8712 40.947 62.8913 40.8377 63.0254C40.7886 63.0857 35.846 69.0834 30.8174 69.5045C30.6454 69.519 30.5169 69.6704 30.5314 69.8428C30.544 69.9914 30.6585 70.1073 30.8006 70.1269Z" fill="#3228BD" style="fill:#3228BD;fill:color(display-p3 0.1961 0.1569 0.7412);fill-opacity:1;"/>
</g>
</g>
</g>
</g>
<g id="Group_273">
<path id="Vector_50" d="M28.2681 22.3092C28.2681 22.3092 27.7994 23.9681 26.1653 23.626C24.5316 23.284 25.9185 21.8998 25.9185 21.8998C25.9185 21.8998 22.5815 22.7774 24.2395 19.4643C24.2395 19.4643 22.6816 20.0802 22.7358 18.5091C22.79 16.9381 24.1007 15.5988 23.4456 13.0954C22.79 10.5926 22.4278 6.25419 25.604 4.19574C28.7803 2.13776 32.749 3.73825 37.3402 0.92418C43.4932 -2.84739 43.053 6.10045 40.5268 6.75981C37.9996 7.4201 28.2681 22.3092 28.2681 22.3092Z" fill="#121633" style="fill:#121633;fill:color(display-p3 0.0706 0.0863 0.2000);fill-opacity:1;"/>
<g id="Group_274">
<g id="Group_275">
<g id="Group_276">
<g id="Group_277">
<g id="Group_278">
<g id="Group_279">
<g id="Group_280">
<g id="Group_281">
<g id="Group_282">
<path id="Vector_51" d="M37.8244 25.3433L37.9889 28.1224C37.6997 28.4032 37.4052 28.65 37.1076 28.8658C32.7561 32.0309 27.6649 28.7322 27.6649 28.7322L27.0957 19.0965L36.545 24.598L37.8244 25.3433Z" fill="#FF9D7D" style="fill:#FF9D7D;fill:color(display-p3 1.0000 0.6157 0.4902);fill-opacity:1;"/>
</g>
</g>
</g>
</g>
</g>
</g>
</g>
</g>
<g id="Group_283">
<g id="Group_284">
<g id="Group_285">
<g id="Group_286">
<g id="Group_287">
<g id="Group_288">
<g id="Group_289">
<g id="Group_290">
<path id="Vector_52" d="M37.8164 25.3479L37.9809 28.127C37.6916 28.4078 37.3972 28.6545 37.0995 28.8704C33.1527 27.4713 30.0947 23.3259 30.0947 23.3259L36.5369 24.6026L37.8164 25.3479Z" fill="#121633" style="fill:#121633;fill:color(display-p3 0.0706 0.0863 0.2000);fill-opacity:1;"/>
</g>
</g>
</g>
</g>
</g>
</g>
</g>
</g>
</g>
<g id="Group_291">
<g id="Group_292">
<g id="Group_293">
<g id="Group_294">
<g id="Group_295">
<g id="Group_296">
<g id="Group_297">
<g id="Group_298">
<path id="Vector_53" d="M40.252 14.8235C40.252 14.8235 41.6277 12.9885 42.567 14.6866C43.5067 16.3848 43.0721 19.9601 40.787 19.5143L40.252 14.8235Z" fill="#E0693E" style="fill:#E0693E;fill:color(display-p3 0.8784 0.4118 0.2431);fill-opacity:1;"/>
</g>
</g>
</g>
</g>
</g>
</g>
</g>
</g>
<g id="Group_299">
<g id="Group_300">
<path id="Vector_54" d="M42.075 19.6645C42.075 19.6645 42.2717 25.0997 36.6698 25.4184C31.1028 25.7371 27.2882 22.7351 27.0789 22.5445C27.0752 22.5412 27.0724 22.5398 27.0724 22.5398L26.9448 21.4117L26.2812 15.556L25.9261 12.4265C25.9261 12.4265 24.8812 6.81519 30.193 5.46656C34.0739 4.48103 37.7936 4.91562 39.7721 6.8535C39.8362 6.91612 39.8983 6.98014 39.9572 7.0465C40.5848 7.73156 41.0086 8.58765 41.1698 9.61711L41.6769 15.2462L41.8012 16.6257L42.075 19.6645Z" fill="#FF9D7D" style="fill:#FF9D7D;fill:color(display-p3 1.0000 0.6157 0.4902);fill-opacity:1;"/>
</g>
</g>
<g id="Group_301">
<g id="Group_302">
<path id="Vector_55" d="M33.9814 17.8495C33.9814 17.8495 34.6076 20.2234 36.5081 20.6837C38.6713 21.2075 39.276 18.499 39.276 18.499L33.9814 17.8495Z" fill="#F2F7F9" style="fill:#F2F7F9;fill:color(display-p3 0.9490 0.9686 0.9765);fill-opacity:1;"/>
</g>
</g>
<g id="Group_303">
<g id="Group_304">
<g id="Group_305">
<g id="Group_306">
<g id="Group_307">
<g id="Group_308">
<g id="Group_309">
<g id="Group_310">
<g id="Group_311">
<g id="Group_312">
<g id="Group_313">
<path id="Vector_56" d="M37.2609 21.5553C37.337 21.538 37.3847 21.5212 37.3926 21.5184C37.4852 21.4842 37.5328 21.3819 37.4987 21.2894C37.4651 21.1969 37.3637 21.1487 37.2702 21.1828C37.2431 21.1926 36.6351 21.4015 36.1566 20.9567C36.0842 20.8894 35.9716 20.8936 35.9043 20.966C35.837 21.0384 35.8412 21.1511 35.9136 21.2183C36.4094 21.6791 37.0015 21.6142 37.2609 21.5553Z" fill="#E0693E" style="fill:#E0693E;fill:color(display-p3 0.8784 0.4118 0.2431);fill-opacity:1;"/>
</g>
</g>
</g>
</g>
</g>
</g>
</g>
</g>
</g>
</g>
</g>
<g id="Group_314">
<g id="Group_315">
<g id="Group_316">
<g id="Group_317">
<g id="Group_318">
<g id="Group_319">
<g id="Group_320">
<g id="Group_321">
<g id="Group_322">
<path id="Vector_57" d="M34.2202 14.164C34.252 14.7023 34.0337 15.1533 33.7323 15.171C33.4309 15.1888 33.1613 14.7668 33.129 14.2285C33.0973 13.6901 33.3155 13.2392 33.6169 13.221C33.9183 13.2037 34.1884 13.6257 34.2202 14.164Z" fill="#121633" style="fill:#121633;fill:color(display-p3 0.0706 0.0863 0.2000);fill-opacity:1;"/>
</g>
</g>
</g>
</g>
</g>
</g>
</g>
</g>
<g id="Group_323">
<g id="Group_324">
<g id="Group_325">
<g id="Group_326">
<g id="Group_327">
<g id="Group_328">
<g id="Group_329">
<g id="Group_330">
<path id="Vector_58" d="M39.5552 13.8502C39.5869 14.3886 39.3682 14.8395 39.0673 14.8573C38.7659 14.875 38.4963 14.4531 38.464 13.9147C38.4322 13.3764 38.6505 12.9255 38.9519 12.9077C39.2533 12.8899 39.5234 13.3119 39.5552 13.8502Z" fill="#121633" style="fill:#121633;fill:color(display-p3 0.0706 0.0863 0.2000);fill-opacity:1;"/>
</g>
</g>
</g>
</g>
</g>
</g>
</g>
</g>
<g id="Group_331">
<g id="Group_332">
<g id="Group_333">
<g id="Group_334">
<g id="Group_335">
<g id="Group_336">
<g id="Group_337">
<g id="Group_338">
<path id="Vector_59" d="M36.975 16.773C38.2881 16.6954 38.6769 15.7524 38.6927 15.7122C38.7175 15.6501 38.7129 15.58 38.6801 15.522C37.6703 13.7201 36.6455 11.8677 36.6352 11.849C36.5759 11.742 36.4408 11.7028 36.3334 11.7621C36.2264 11.8215 36.1871 11.9565 36.2464 12.0635C36.2563 12.0818 37.2432 13.8654 38.2343 15.6351C38.1189 15.829 37.7642 16.2814 36.9483 16.3295C36.8259 16.3365 36.7329 16.4417 36.7399 16.5641C36.7474 16.687 36.8525 16.7805 36.975 16.773Z" fill="#121633" style="fill:#121633;fill:color(display-p3 0.0706 0.0863 0.2000);fill-opacity:1;"/>
</g>
</g>
</g>
</g>
</g>
</g>
</g>
</g>
</g>
<g id="Group_339">
<g id="Group_340">
<g id="Group_341">
<g id="Group_342">
<path id="Vector_60" d="M32.1354 7.60683C31.527 7.66758 31.0176 8.13441 30.955 8.74283C30.9106 9.17508 30.6685 9.69986 29.9578 10.2125C28.2993 11.4083 28.697 12.8938 29.1648 14.1186C29.6321 15.3434 27.2722 17.7958 25.5624 14.785C23.8525 11.7742 24.874 5.15771 29.4503 4.57499C34.0261 3.99227 40.1874 5.125 40.8183 7.17364C41.4491 9.22181 41.2398 11.02 41.2398 11.02C41.2398 11.02 40.4594 10.4298 40.4412 9.12088C40.4229 7.81197 39.4879 7.35075 37.9565 7.23626C36.9117 7.15822 33.928 7.42738 32.1354 7.60683Z" fill="#121633" style="fill:#121633;fill:color(display-p3 0.0706 0.0863 0.2000);fill-opacity:1;"/>
</g>
</g>
</g>
</g>
<g id="Group_343" opacity="0.8">
<g id="Group_344">
<g id="Group_345">
<g id="Group_346">
<g id="Group_347">
<g id="Group_348">
<g id="Group_349">
<g id="Group_350">
<g id="Group_351">
<path id="Vector_61" d="M41.8118 16.6257C41.6735 16.6477 41.5277 16.6636 41.3786 16.6724C40.3832 16.7313 39.5571 16.4607 39.5337 16.0687C39.5108 15.6766 40.2991 15.3107 41.2945 15.2518C41.4291 15.2439 41.5608 15.2425 41.6875 15.2462L41.8118 16.6257Z" fill="#E0693E" style="fill:#E0693E;fill:color(display-p3 0.8784 0.4118 0.2431);fill-opacity:1;"/>
</g>
</g>
</g>
</g>
</g>
</g>
</g>
</g>
</g>
<g id="Group_352">
<g id="Group_353">
<g id="Group_354">
<g id="Group_355">
<g id="Group_356">
<g id="Group_357">
<g id="Group_358">
<g id="Group_359">
<g id="Group_360">
<path id="Vector_62" d="M34.422 16.3712C34.4449 16.7632 33.6566 17.1287 32.6603 17.1875C31.664 17.2464 30.8378 16.9763 30.8149 16.5843C30.792 16.1922 31.5804 15.8268 32.5767 15.7679C33.5725 15.709 34.3987 15.9791 34.422 16.3712Z" fill="#E0693E" style="fill:#E0693E;fill:color(display-p3 0.8784 0.4118 0.2431);fill-opacity:1;"/>
</g>
</g>
</g>
</g>
</g>
</g>
</g>
</g>
</g>
<g id="Group_361">
<g id="Group_362">
<path id="Vector_63" d="M31.1113 11.6187C31.4328 12.2314 32.1852 12.4744 32.8039 12.1641C33.1651 11.9828 33.5927 11.8005 34.0478 11.6729C34.6927 11.4921 35.0577 10.8117 34.8427 10.1771C34.8427 10.1771 32.2202 10.0921 31.1113 11.6187Z" fill="#121633" style="fill:#121633;fill:color(display-p3 0.0706 0.0863 0.2000);fill-opacity:1;"/>
</g>
</g>
<g id="Group_363">
<g id="Group_364">
<path id="Vector_64" d="M41.2392 11.0196C40.9925 11.6658 40.2733 11.9957 39.6228 11.7607C39.2429 11.6233 38.7966 11.4925 38.3298 11.4196C37.6681 11.3158 37.2256 10.6831 37.3644 10.0275C37.3644 10.0275 39.9579 9.63401 41.2392 11.0196Z" fill="#121633" style="fill:#121633;fill:color(display-p3 0.0706 0.0863 0.2000);fill-opacity:1;"/>
</g>
</g>
<g id="Group_365">
<g id="Group_366">
<g id="Group_367">
<g id="Group_368">
<g id="Group_369">
<g id="Group_370">
<g id="Group_371">
<g id="Group_372">
<path id="Vector_65" d="M28.7077 20.2556C28.6858 20.3168 28.0741 22.0028 27.0834 22.5444C27.0801 22.5411 27.0778 22.5392 27.0778 22.5392L26.9502 21.4112C26.9502 21.4112 27.825 21.2079 28.7077 20.2556Z" fill="#121633" style="fill:#121633;fill:color(display-p3 0.0706 0.0863 0.2000);fill-opacity:1;"/>
</g>
</g>
</g>
</g>
</g>
</g>
</g>
</g>
<g id="Group_373">
<g id="Group_374">
<g id="Group_375">
<g id="Group_376">
<g id="Group_377">
<g id="Group_378">
<g id="Group_379">
<g id="Group_380">
<path id="Vector_66" d="M27.5047 16.5751C27.5047 16.5751 25.1808 13.8101 23.7373 16.176C22.5481 18.1256 25.2944 22.8607 27.7682 21.0364L27.5047 16.5751Z" fill="#FF9D7D" style="fill:#FF9D7D;fill:color(display-p3 1.0000 0.6157 0.4902);fill-opacity:1;"/>
</g>
</g>
</g>
</g>
</g>
</g>
</g>
</g>
<g id="Group_381">
<g id="Group_382">
<g id="Group_383">
<g id="Group_384">
<g id="Group_385">
<g id="Group_386">
<g id="Group_387">
<g id="Group_388">
<path id="Vector_67" d="M27.4155 20.1817C27.4234 20.1812 27.4318 20.1803 27.4398 20.1789C27.5608 20.1583 27.6421 20.0438 27.6215 19.9228C27.207 17.4793 25.0869 16.7494 24.9967 16.7199C24.8804 16.6811 24.7547 16.7442 24.7163 16.8606C24.678 16.9769 24.7406 17.1022 24.8565 17.141C24.9364 17.1676 26.815 17.8228 27.1837 19.9971C27.2033 20.1102 27.3038 20.1882 27.4155 20.1817Z" fill="#121633" style="fill:#121633;fill:color(display-p3 0.0706 0.0863 0.2000);fill-opacity:1;"/>
</g>
</g>
</g>
</g>
</g>
</g>
</g>
</g>
<g id="Group_389">
<g id="Group_390">
<g id="Group_391">
<g id="Group_392">
<g id="Group_393">
<g id="Group_394">
<g id="Group_395">
<g id="Group_396">
<path id="Vector_68" d="M25.2666 18.9598C25.3157 18.957 25.3643 18.9378 25.4031 18.9018C25.5867 18.7341 26.148 18.3163 26.5358 18.3915C26.6564 18.4144 26.7727 18.3359 26.7956 18.2158C26.819 18.0957 26.7405 17.9789 26.6199 17.9556C25.9447 17.8247 25.1872 18.4972 25.1031 18.5747C25.0129 18.6574 25.0068 18.7981 25.0895 18.8883C25.1367 18.9392 25.2021 18.9635 25.2666 18.9598Z" fill="#121633" style="fill:#121633;fill:color(display-p3 0.0706 0.0863 0.2000);fill-opacity:1;"/>
</g>
</g>
</g>
</g>
</g>
</g>
</g>
</g>
<g id="Group_397">
<g id="Group_398">
<g id="Group_399">
<path id="Vector_69" d="M34.0927 11.1038C33.252 11.029 32.4314 11.2865 31.7842 11.829C31.2328 12.2902 30.8622 12.9117 30.7183 13.6047C30.6931 13.7253 30.6753 13.8482 30.6641 13.9734C30.6604 14.0192 30.6566 14.065 30.6547 14.1108C30.5772 15.7894 31.8426 17.252 33.5329 17.402C33.5983 17.4076 33.6632 17.4114 33.7277 17.4132C33.7567 17.4142 33.7866 17.4142 33.8156 17.4142C35.4338 17.4142 36.8156 16.1739 36.9614 14.5328C37.1161 12.7963 35.8287 11.2575 34.0927 11.1038ZM36.4591 14.4875C36.3292 15.9468 35.0371 17.0296 33.5777 16.8997C32.1838 16.7754 31.1337 15.5903 31.1562 14.2122C31.1571 14.1477 31.1599 14.0832 31.1655 14.0183C31.1749 13.9118 31.1907 13.8085 31.2132 13.7066C31.4735 12.4599 32.5978 11.5612 33.8838 11.5968C33.938 11.5977 33.9931 11.6014 34.0483 11.6061C35.4282 11.7285 36.4698 12.8912 36.4698 14.2505C36.4694 14.3286 36.4666 14.408 36.4591 14.4875Z" fill="#F2F7F9" style="fill:#F2F7F9;fill:color(display-p3 0.9490 0.9686 0.9765);fill-opacity:1;"/>
</g>
</g>
<g id="Group_400">
<g id="Group_401">
<path id="Vector_70" d="M41.0205 16.6366C40.9546 16.6348 40.8892 16.631 40.8233 16.625C39.9822 16.5502 39.2205 16.1525 38.6784 15.5048C38.1364 14.8572 37.8793 14.0375 37.9541 13.1964C38.1083 11.4599 39.6476 10.1725 41.3827 10.3272C43.1192 10.4814 44.4061 12.0193 44.2519 13.7557C44.1771 14.5969 43.7795 15.3586 43.1318 15.9002C42.535 16.3997 41.7916 16.6577 41.0205 16.6366ZM41.1738 10.8197C39.7827 10.7814 38.5808 11.8366 38.456 13.2413C38.3934 13.9483 38.6093 14.6375 39.0649 15.1819C39.5205 15.7263 40.1607 16.0605 40.8677 16.1236C42.3294 16.2525 43.6201 15.1712 43.7496 13.7118C43.879 12.2524 42.7972 10.9594 41.3378 10.83C41.2831 10.8244 41.228 10.8211 41.1738 10.8197Z" fill="#F2F7F9" style="fill:#F2F7F9;fill:color(display-p3 0.9490 0.9686 0.9765);fill-opacity:1;"/>
</g>
</g>
<g id="Group_402">
<g id="Group_403">
<path id="Vector_71" d="M36.6565 13.9347C36.6121 13.9333 36.5672 13.9207 36.5275 13.8945C36.4111 13.8193 36.377 13.6646 36.4518 13.5478C36.4653 13.5267 36.785 13.0347 37.3125 12.9258C37.606 12.8651 37.8985 12.9314 38.1812 13.1225C38.2967 13.2006 38.327 13.3571 38.249 13.4725C38.171 13.588 38.0144 13.6183 37.899 13.5403C37.7317 13.4272 37.5742 13.3875 37.4172 13.4193C37.099 13.4838 36.8784 13.8174 36.8761 13.8207C36.8256 13.8964 36.7415 13.9366 36.6565 13.9347Z" fill="#F2F7F9" style="fill:#F2F7F9;fill:color(display-p3 0.9490 0.9686 0.9765);fill-opacity:1;"/>
</g>
</g>
<g id="Group_404">
<g id="Group_405">
<path id="Vector_72" d="M31.2112 13.7061C31.1888 13.808 31.1729 13.9113 31.1635 14.0178C31.1579 14.0832 31.1551 14.1472 31.1542 14.2117C31.0196 14.18 30.8509 14.1444 30.6532 14.1099C29.4757 13.9094 27.3079 13.7926 25.727 15.1865C25.6681 15.2379 25.5915 15.2575 25.519 15.2463C25.4639 15.237 25.4116 15.2089 25.3718 15.1641C25.2793 15.0594 25.2896 14.9001 25.3943 14.8085C27.1382 13.2706 29.4453 13.3837 30.7168 13.6038C30.9061 13.6379 31.0729 13.6725 31.2112 13.7061Z" fill="#F2F7F9" style="fill:#F2F7F9;fill:color(display-p3 0.9490 0.9686 0.9765);fill-opacity:1;"/>
</g>
</g>
</g>
</g>
<g id="Group_406">
<g id="Group_407">
<g id="Group_408">
<path id="Vector_73" d="M24.5219 41.2191L24.4976 41.2939L23.7509 43.6248L23.0055 45.9902L22.2728 48.3595L21.5616 50.7277C21.4765 51.0142 21.3924 51.2997 21.3106 51.5852C21.2097 51.9277 21.112 52.2693 21.0148 52.6109C20.9718 52.7581 20.9307 52.9058 20.8887 53.0535C20.662 53.8549 20.4405 54.6549 20.2251 55.4517C20.0162 56.2353 19.8125 57.0185 19.6251 57.7947C19.433 58.5727 19.2526 59.3428 19.0905 60.1041C18.926 60.8662 18.7872 61.6121 18.6732 62.3298L18.5947 62.8382C18.5704 62.9812 18.5517 63.1275 18.533 63.2752C18.4956 63.571 18.475 63.8771 18.4629 64.1897C18.4517 64.5014 18.4508 64.8215 18.461 65.1462C18.475 65.4729 18.4956 65.8033 18.5237 66.1402C18.5835 66.8131 18.6867 67.5024 18.826 68.2005C19.0975 69.6001 19.5157 71.0319 20.0223 72.4548C20.2798 73.1651 20.5522 73.8768 20.8555 74.5768C21.0041 74.9277 21.1569 75.2759 21.3167 75.6161L21.5527 76.1236L21.6704 76.3661L21.7265 76.481L21.7517 76.5334C21.7592 76.5502 21.7676 76.567 21.763 76.5642C22.8546 78.1815 22.4284 80.376 20.8111 81.4671C19.1947 82.5587 16.9984 82.1326 15.9082 80.5152L15.6554 80.1811L15.4371 79.8862C15.2951 79.6914 15.1554 79.4998 15.0208 79.3049C14.7521 78.9166 14.4927 78.5278 14.2409 78.1339C13.7446 77.3437 13.2656 76.5409 12.8282 75.7105C11.9436 74.0534 11.1721 72.3062 10.559 70.4417C9.95619 68.5753 9.49731 66.5869 9.35525 64.4546C9.31973 63.9219 9.30104 63.3817 9.30665 62.8326C9.31132 62.5583 9.31693 62.2831 9.33376 62.0041L9.34497 61.7971L9.35898 61.6144L9.39076 61.2522C9.47487 60.291 9.58562 59.3634 9.7174 58.462C9.84824 57.5578 9.99171 56.6685 10.1525 55.7923C10.3118 54.9143 10.4866 54.0484 10.6646 53.1862C10.8146 52.4637 10.9726 51.7446 11.1357 51.0287C11.2422 50.5642 11.3511 50.1011 11.4614 49.6394C11.509 49.437 11.5586 49.2342 11.6067 49.0328C11.6843 48.7155 11.7623 48.3982 11.8408 48.0828C12.0478 47.2393 12.2712 46.4033 12.4932 45.5659C12.7161 44.7299 12.9441 43.8963 13.1829 43.0659C13.3451 42.4958 13.5086 41.9266 13.6764 41.3584C14.8269 39.0107 16.1895 36.6097 17.6218 34.8835C18.7134 34.426 19.9676 34.3424 21.1835 34.7311C23.8967 35.6008 25.3915 38.5055 24.5219 41.2191Z" fill="#FF9D7D" style="fill:#FF9D7D;fill:color(display-p3 1.0000 0.6157 0.4902);fill-opacity:1;"/>
</g>
</g>
</g>
<g id="Group_409">
<g id="Group_410">
<g id="Group_411">
<g id="Group_412">
<g id="Group_413">
<path id="Vector_74" d="M18.2961 64.8366C18.3694 64.8109 18.4302 64.753 18.4559 64.6735C18.4998 64.5385 18.4264 64.3932 18.2914 64.3492C18.1984 64.3189 15.9834 63.6081 13.9105 64.0534C13.7726 64.0824 13.6829 64.2203 13.7128 64.359C13.7427 64.4978 13.8796 64.5866 14.0184 64.5567C15.9525 64.1413 18.1096 64.832 18.1311 64.839C18.1872 64.8567 18.2447 64.8544 18.2961 64.8366Z" fill="#E0693E" style="fill:#E0693E;fill:color(display-p3 0.8784 0.4118 0.2431);fill-opacity:1;"/>
</g>
</g>
</g>
</g>
</g>
<g id="Group_414">
<g id="Group_415">
<g id="Group_416">
<g id="Group_417">
<g id="Group_418">
<path id="Vector_75" d="M17.9597 64.7075C17.9859 64.6982 18.0111 64.6846 18.0345 64.6664C18.1462 64.5781 18.1649 64.4164 18.0766 64.3047C17.3859 63.4314 16.141 62.8477 16.0882 62.8234C15.9592 62.7636 15.806 62.8197 15.7466 62.9486C15.6868 63.0776 15.7429 63.2304 15.8718 63.2902C15.8835 63.2958 17.0592 63.8477 17.6728 64.6239C17.7424 64.7127 17.8588 64.7431 17.9597 64.7075Z" fill="#E0693E" style="fill:#E0693E;fill:color(display-p3 0.8784 0.4118 0.2431);fill-opacity:1;"/>
</g>
</g>
</g>
</g>
</g>
<path id="Vector_76" d="M11.1367 51.0279L20.8902 53.0527C21.0276 52.5639 21.1682 52.0746 21.3117 51.5844L11.6082 49.0316C11.447 49.6942 11.2895 50.3596 11.1367 51.0279Z" fill="#E0693E" style="fill:#E0693E;fill:color(display-p3 0.8784 0.4118 0.2431);fill-opacity:1;"/>
<g id="Group_419">
<g id="Group_420">
<path id="Vector_77" d="M25.3512 40.2458L21.2974 52.6979L21.0156 52.6101L11.4622 49.638L10.3369 49.288C10.3369 49.288 11.6925 45.4015 13.6776 41.357C14.8281 39.0093 16.1908 36.6083 17.623 34.8821C18.3352 34.0228 19.0684 33.3363 19.7936 32.8956C21.3119 31.9727 23.4447 32.49 24.4652 33.6597C26.1779 35.6233 26.1587 37.7682 25.3512 40.2458Z" fill="#545AE4" style="fill:#545AE4;fill:color(display-p3 0.3294 0.3529 0.8941);fill-opacity:1;"/>
</g>
</g>
<g id="Group_421">
<g id="Group_422">
<path id="Vector_78" d="M21.2166 52.0856C21.3189 52.0931 21.4166 52.0305 21.4488 51.9286L24.4569 42.4686C24.4947 42.3494 24.4288 42.2223 24.3097 42.1845C24.1905 42.1452 24.0634 42.2125 24.0255 42.3317L21.0175 51.7917C20.9797 51.9108 21.0456 52.038 21.1647 52.0758C21.1815 52.0814 21.1993 52.0847 21.2166 52.0856Z" fill="#3228BD" style="fill:#3228BD;fill:color(display-p3 0.1961 0.1569 0.7412);fill-opacity:1;"/>
</g>
<g id="Group_423">
<path id="Vector_79" d="M23.4907 44.9369C23.5346 44.9402 23.58 44.9308 23.6211 44.907L25.0908 44.0542C25.1987 43.9916 25.2356 43.8528 25.173 43.7448C25.1104 43.6369 24.9716 43.6 24.8637 43.6626L23.394 44.5154C23.286 44.578 23.2491 44.7163 23.3117 44.8247C23.3505 44.8916 23.4188 44.9313 23.4907 44.9369Z" fill="#3228BD" style="fill:#3228BD;fill:color(display-p3 0.1961 0.1569 0.7412);fill-opacity:1;"/>
</g>
</g>
<g id="Group_424">
<g id="Group_425">
<g id="Group_426">
<g id="Group_427">
<g id="Group_428">
<g id="Group_429">
<g id="Group_430">
<g id="Group_431">
<g id="Group_432">
<g id="Group_433">
<g id="Group_434">
<g id="Group_435">
<g id="Group_436">
<g id="Group_437">
<g id="Group_438">
<g id="Group_439">
<g id="Group_440">
<path id="Vector_80" d="M17.8409 87.8113C19.8157 86.3762 21.8517 84.9514 23.6798 83.3135C23.6737 83.2986 23.6704 83.2906 23.6704 83.2906C23.6704 83.2906 23.6774 83.2953 23.6901 83.3042C24.3779 82.6874 25.0354 82.0401 25.6499 81.3509C25.5163 81.0439 25.3948 80.7784 25.2966 80.5742C24.8485 79.6401 23.6985 78.2859 22.7844 77.5709C22.0914 77.0293 21.4919 76.0396 20.8311 75.9484C18.7404 75.6601 15.9086 77.2288 15.8301 78.3335C15.7142 79.9597 16.3198 83.2771 16.4422 84.5187C16.4918 85.0201 16.8058 86.6024 17.2086 88.2725C17.4194 88.1178 17.6301 87.9646 17.8409 87.8113Z" fill="#FF9D7D" style="fill:#FF9D7D;fill:color(display-p3 1.0000 0.6157 0.4902);fill-opacity:1;"/>
</g>
</g>
</g>
</g>
</g>
</g>
</g>
</g>
</g>
</g>
</g>
</g>
</g>
</g>
</g>
</g>
</g>
<g id="Group_441">
<g id="Group_442">
<g id="Group_443">
<g id="Group_444">
<g id="Group_445">
<g id="Group_446">
<g id="Group_447">
<g id="Group_448">
<g id="Group_449">
<path id="Vector_81" d="M16.848 88.8144C16.8569 88.6938 16.9158 88.5822 17.0101 88.5065L26.2954 81.0521C26.4715 80.9105 26.7281 80.9278 26.8818 81.0937C26.8837 81.0956 26.886 81.0979 26.8879 81.1002C27.0594 81.2848 27.0393 81.5755 26.843 81.733L17.5573 89.1878C17.2592 89.4266 16.8195 89.1953 16.848 88.8144Z" fill="#353C6D" style="fill:#353C6D;fill:color(display-p3 0.2078 0.2353 0.4275);fill-opacity:1;"/>
</g>
</g>
</g>
</g>
</g>
</g>
</g>
</g>
</g>
<g id="Group_450">
<g id="Group_451">
<g id="Group_452">
<g id="Group_453">
<g id="Group_454">
<g id="Group_455">
<g id="Group_456">
<g id="Group_457">
<g id="Group_458">
<path id="Vector_82" d="M48.759 87.7817L45.036 78.6965C44.993 78.5914 44.8725 78.4675 44.7654 78.4306C44.4131 78.3096 44.0776 78.661 44.2201 79.0096L47.9506 88.1135C48.0468 88.3486 48.3235 88.449 48.5501 88.3336C48.5529 88.3322 48.5553 88.3308 48.5581 88.3294C48.7571 88.228 48.8436 87.9888 48.759 87.7817Z" fill="#353C6D" style="fill:#353C6D;fill:color(display-p3 0.2078 0.2353 0.4275);fill-opacity:1;"/>
</g>
</g>
</g>
</g>
</g>
</g>
</g>
</g>
</g>
<g id="Group_459">
<g id="Group_460">
<g id="Group_461">
<g id="Group_462">
<g id="Group_463">
<path id="Vector_83" d="M45.084 78.6958C45.084 78.6958 47.3957 84.4843 48.5957 87.2656C48.5957 87.2656 52.6552 83.3768 52.3725 77.4131C52.1748 73.2453 45.084 78.6958 45.084 78.6958Z" fill="#FF9D7D" style="fill:#FF9D7D;fill:color(display-p3 1.0000 0.6157 0.4902);fill-opacity:1;"/>
</g>
</g>
</g>
</g>
</g>
</g>
</svg>
