<svg width="39" height="37" viewBox="0 0 39 37" fill="none" xmlns="http://www.w3.org/2000/svg">
<path id="Vector" d="M27.1259 0.622925L0.714966 10.3177L27.1259 23.2437L39.7051 17.0872L27.9044 13.5556C27.6614 13.6697 27.3954 13.7291 27.1259 13.7297C26.646 13.7297 26.1857 13.5431 25.8463 13.2109C25.5069 12.8787 25.3163 12.4282 25.3163 11.9584C25.3163 11.4886 25.5069 11.0381 25.8463 10.7059C26.1857 10.3737 26.646 10.1871 27.1259 10.1871L26.8266 11.1394L28.9232 11.7707C28.9235 11.7728 28.9238 11.7749 28.9241 11.7769L32.0179 12.703L49.6333 18.0081V19.3527C49.3896 19.515 49.1901 19.733 49.0522 19.9879C48.9142 20.2428 48.8419 20.5268 48.8415 20.8152C48.8419 21.1103 48.9175 21.4006 49.0615 21.6597C49.2056 21.9189 49.4135 22.1388 49.6664 22.2994C48.8427 25.3466 48.8415 32.2605 48.8415 34.9858C50.6512 36.1366 50.6512 36.1787 52.4608 34.9858C52.4608 32.2608 52.4599 25.3483 51.6363 22.3004C51.8893 22.1396 52.0972 21.9196 52.2412 21.6602C52.3852 21.4008 52.4607 21.1103 52.4608 20.8151C52.4608 20.5263 52.3886 20.242 52.2506 19.9867C52.1126 19.7315 51.913 19.5132 51.6691 19.3507V16.5365L44.9594 14.5158L53.5369 10.3177L27.1259 0.622925ZM11.7014 18.2688L10.2171 26.986C13.1776 27.3649 16.7189 29.0493 19.9745 31.0409C21.8259 32.1737 23.5601 33.4171 24.9686 34.6235C25.8295 35.3608 26.5494 36.0682 27.1259 36.7642C27.7024 36.0681 28.4223 35.3608 29.2832 34.6235C30.6917 33.4171 32.4258 32.1737 34.2774 31.0409C37.5329 29.0493 41.0742 27.3649 44.0347 26.986L42.5502 18.2688H41.8433L27.1259 25.4718L12.4083 18.2688H11.7014Z" fill="black" style="fill:black;fill-opacity:1;"/>
</svg>
