<svg width="212" height="100" viewBox="0 0 212 100" fill="none" xmlns="http://www.w3.org/2000/svg">
<path d="M187.594 69.1999C187.65 71.5798 187.073 74.0285 185.596 75.9098C185.005 76.6572 184.316 77.2797 183.542 77.8049C180.447 79.8937 176.1 80.2123 172.189 80.3362C163.115 80.6126 154.028 80.9036 144.954 81.1938C141.634 81.2911 136.949 83.5176 138.624 86.3538C140.326 89.2313 147.163 88.2076 146.305 91.4313C126.61 95.2637 106.043 94.71 86.602 89.8263C82.705 88.8576 78.316 87.1976 77.12 83.435C76.613 81.8438 76.782 80.1012 76.163 78.5513C76.444 78.2051 76.684 77.8462 76.894 77.4587C80.931 69.9738 74.207 58.5188 67.511 55.1162C65.077 53.8849 62.095 53.1936 59.619 54.3688C56.805 55.6964 55.595 58.9201 54.104 61.6176C53.682 62.365 53.161 63.14 52.332 63.3888C51.389 63.6651 50.405 63.1537 49.448 62.9325C46.381 62.1851 43.23 64.4961 41.978 67.3599C40.937 69.7535 40.895 72.4373 41.021 75.066C27.08 76.4497 13.223 77.9711 0 73.9597C7.034 69.7535 15.573 68.0384 23.732 69.2009C26.644 69.6159 30.878 69.4497 31.019 66.5584C31.132 64.2345 28.248 63.141 26.208 61.9648C21.383 59.1836 19.835 52.101 23.071 47.6185C25.814 43.8274 31.455 42.5961 35.704 44.4509H35.718C36.506 44.7971 37.237 45.2396 37.898 45.7933C34.479 35.5145 45.283 24.3634 56.256 24.9721C67.243 25.5671 76.162 35.1545 78.666 45.6831C79.806 39.0696 88.823 36.5107 95.181 38.9594C111.922 45.4068 122.824 71.4981 144.418 65.1757C153.984 62.3808 160.765 52.7382 171.484 53.6381C179.533 54.3137 187.411 60.9273 187.594 69.1999Z" fill="#E5BBC1" style="fill:#E5BBC1;fill:color(display-p3 0.8980 0.7333 0.7569);fill-opacity:1;"/>
<path d="M201.802 72.7835C201.366 74.0836 200.789 75.3985 199.734 76.2973C198.383 77.4598 196.484 77.7361 194.712 77.8747C190.984 78.1658 187.27 78.0685 183.542 77.8059C184.316 77.2798 185.005 76.6573 185.596 75.9109C187.073 74.0296 187.65 71.5808 187.594 69.2009C187.411 60.9273 179.533 54.3147 171.486 53.6372C160.766 52.7383 153.986 62.3808 144.42 65.1747C122.826 71.4972 111.924 45.4049 95.183 38.9585C88.825 36.5097 79.807 39.0696 78.668 45.6822C76.164 35.1536 67.245 25.5662 56.258 24.9712C45.285 24.3624 34.481 35.5135 37.9 45.7923C37.239 45.2387 36.507 44.7961 35.72 44.45H35.706C31.725 34.3511 40.7 18.9251 48.93 14.2075C60.339 7.27633 76.644 9.60018 85.59 19.4374C87.531 11.9388 95.62 6.83379 103.47 7.15242C111.334 7.47007 118.523 12.5475 122.419 19.2575C126.316 25.9812 127.202 34.0885 126.105 41.7524C132.632 39.0549 141.115 44.1461 141.664 51.0911C151.075 39.4423 167.675 33.0923 182.095 37.6161C196.513 42.1537 206.543 58.6576 201.802 72.7835Z" fill="white" style="fill:white;fill-opacity:1;"/>
<path d="M76.895 77.4597C76.684 77.8472 76.445 78.2071 76.164 78.5523C76.164 78.5385 76.164 78.511 76.15 78.4972C74.799 75.246 70.635 74.2911 67.076 74.0285C58.453 73.3922 49.731 74.2085 41.023 75.066C40.896 72.4373 40.939 69.7535 41.98 67.3599C43.232 64.4961 46.383 62.186 49.45 62.9325C50.407 63.1537 51.391 63.6661 52.334 63.3888C53.164 63.14 53.684 62.3651 54.106 61.6176C55.597 58.9201 56.807 55.6964 59.621 54.3688C62.097 53.1926 65.079 53.8849 67.513 55.1162C74.208 58.5198 80.932 69.9748 76.895 77.4597Z" fill="#BF7BA0" style="fill:#BF7BA0;fill:color(display-p3 0.7490 0.4824 0.6275);fill-opacity:1;"/>
<path d="M179.47 80.4612C178.879 82.2422 179.013 84.3575 177.735 85.7471C175.873 87.771 172.567 86.8643 169.821 86.468C165.151 85.7943 160.21 87.2252 156.657 90.2797C155.663 91.1343 154.724 92.22 154.656 93.5162C154.57 95.1565 155.965 96.5865 157.544 97.1215C159.122 97.6574 160.845 97.503 162.507 97.3427C169.835 96.6356 196.868 98.1531 198.768 89.4842C200.621 81.0316 183.364 68.7338 179.47 80.4612Z" fill="white" style="fill:white;fill-opacity:1;"/>
<path d="M40.374 75.3926C37.539 71.2464 36.933 66.166 38.829 62.4516C39.955 60.2487 42.153 58.5405 44.71 57.8836C46.697 57.3732 48.633 57.5777 50.217 58.4599C49.895 53.6076 53.717 48.6531 58.798 47.475C63.76 46.3214 69.421 48.5823 72.565 52.9704L72.156 53.2526C69.128 49.0248 63.68 46.8465 58.914 47.9529C53.894 49.1173 50.161 54.1308 50.762 58.8995L50.83 59.4364L50.374 59.1325C48.838 58.1117 46.871 57.8364 44.838 58.3586C42.454 58.9712 40.323 60.6244 39.278 62.6719C37.461 66.2309 38.055 71.1166 40.791 75.1172L40.374 75.3926Z" fill="#BF7BA0" style="fill:#BF7BA0;fill:color(display-p3 0.7490 0.4824 0.6275);fill-opacity:1;"/>
<path d="M79.719 79.0007C79.147 79.0007 78.571 78.9269 78.007 78.7735C75.784 78.1658 73.83 76.3514 72.908 74.0374L73.374 73.8584C74.24 76.0308 76.066 77.7331 78.141 78.2995C80.398 78.9191 82.886 78.1481 84.187 76.4261C84.929 75.4446 85.341 74.1436 85.41 72.5602C85.613 67.9066 82.655 63.1164 78.05 60.6411C73.949 58.4362 68.758 57.9435 63.433 59.2505L63.312 58.7745C68.76 57.4351 74.079 57.9445 78.291 60.2094C83.059 62.7732 86.121 67.7454 85.911 72.5819C85.837 74.2655 85.392 75.6571 84.59 76.7201C83.492 78.1678 81.635 79.0007 79.719 79.0007Z" fill="#BF7BA0" style="fill:#BF7BA0;fill:color(display-p3 0.7490 0.4824 0.6275);fill-opacity:1;"/>
<path d="M148.568 64.9426C140.55 64.9426 133.272 61.7671 129.005 59.4315C122.84 56.0553 117.284 51.5847 111.912 47.2605C109.749 45.5199 107.512 43.7192 105.267 42.0169C101.841 39.4177 97.797 36.6238 93.142 36.372C90.568 36.2373 87.806 37.2188 85.938 38.9437C84.499 40.2733 83.731 41.8861 83.718 43.6081L83.22 43.6366C81.736 32.0784 71.92 22.4132 60.874 21.6334C55.173 21.2302 49.122 23.5373 44.685 27.8014C40.608 31.7194 38.412 36.8264 38.659 41.8133L38.16 41.8379C37.906 36.7103 40.157 31.4667 44.336 27.4504C48.875 23.0888 55.067 20.7365 60.911 21.1436C71.664 21.9028 81.273 30.8992 83.452 41.951C83.798 40.7207 84.523 39.578 85.596 38.5867C87.56 36.7713 90.464 35.7357 93.169 35.8823C97.739 36.1291 101.831 38.7903 105.572 41.6294C107.822 43.3357 110.062 45.1383 112.228 46.8819C117.583 51.1923 123.121 55.6492 129.248 59.0027C135.018 62.1615 146.357 66.878 157.474 62.9787C158.499 62.6188 159.906 62.0012 160.303 60.7984L160.779 60.9499C160.314 62.3591 158.766 63.0465 157.642 63.4409C154.593 64.5099 151.53 64.9426 148.568 64.9426Z" fill="#E5BBC1" style="fill:#E5BBC1;fill:color(display-p3 0.8980 0.7333 0.7569);fill-opacity:1;"/>
<path d="M26.003 66.5102C21.506 66.5102 17.518 64.9013 15.193 62.1114C12.167 58.4786 12.175 52.7934 15.214 49.1704C18.251 45.5475 23.922 44.4549 28.127 46.6813L27.89 47.115C23.89 44.9938 18.492 46.0352 15.6 49.4841C12.709 52.933 12.7 58.3428 15.58 61.8006C17.98 64.681 22.249 66.2467 27.007 65.991C29.02 65.8828 31.3 65.1246 31.663 63.322L32.153 63.4183C31.735 65.4963 29.235 66.3637 27.034 66.4827C26.688 66.5004 26.344 66.5102 26.003 66.5102Z" fill="#E5BBC1" style="fill:#E5BBC1;fill:color(display-p3 0.8980 0.7333 0.7569);fill-opacity:1;"/>
<path d="M110.307 99.6302C103.272 99.6302 96.249 99.2703 89.337 98.9152C86.291 98.7579 82.501 98.5622 79.731 96.435C79.036 95.902 78.214 95.0376 78.241 93.9538C78.272 92.7639 79.265 91.9201 80.194 91.2228L86.686 86.3362L86.99 86.7266L80.498 91.6133C79.661 92.2427 78.767 92.994 78.742 93.9666C78.72 94.8468 79.435 95.5844 80.039 96.0485C82.486 97.9269 85.71 98.2367 89.364 98.4245C104.031 99.1788 119.197 99.9557 133.892 97.2542L133.984 97.7381C126.169 99.1729 118.23 99.6302 110.307 99.6302Z" fill="#E5BBC1" style="fill:#E5BBC1;fill:color(display-p3 0.8980 0.7333 0.7569);fill-opacity:1;"/>
<path d="M185.506 75.484L185.279 75.0464C188.883 73.2477 191.219 69.0622 191.094 64.6319C190.984 60.7444 189.131 56.7536 185.878 53.3962C184.118 51.5798 181.315 49.3681 177.955 49.1487C175.985 49.0189 173.851 49.5539 171.25 50.8324C165.963 53.4296 161.392 57.6131 158.378 62.6139L157.948 62.3621C161.01 57.2817 165.655 53.0313 171.026 50.3918C173.71 49.073 175.924 48.5203 177.988 48.657C181.509 48.8872 184.419 51.1766 186.24 53.0559C189.579 56.5028 191.48 60.6087 191.594 64.6181C191.725 69.2353 189.278 73.6017 185.506 75.484Z" fill="#E5BBC1" style="fill:#E5BBC1;fill:color(display-p3 0.8980 0.7333 0.7569);fill-opacity:1;"/>
<path d="M37.363 28.006L36.864 27.9794C37.056 24.4834 38.063 20.8663 39.776 17.5197C44.62 8.05221 55.167 1.76122 65.422 2.19688C76.141 2.66401 86.071 10.8235 88.03 20.7739L87.539 20.8673C85.622 11.1304 75.897 3.14491 65.399 2.6886C55.347 2.26179 44.982 8.44067 40.222 17.741C38.54 21.0266 37.552 24.5768 37.363 28.006Z" fill="white" style="fill:white;fill-opacity:1;"/>
<path d="M121.76 44.031L121.341 43.7645C124.265 38.9949 127.773 32.639 128.961 25.7805C130.185 18.7185 128.711 11.9791 124.917 7.29105C120.875 2.2972 113.86 -0.342313 107.462 0.726674C101.063 1.7937 95.325 6.56037 93.185 12.5858C93.039 12.9949 92.626 14.3698 93.423 14.8723L93.153 15.2863C92.078 14.6078 92.487 13.0589 92.713 12.4236C94.912 6.23486 100.805 1.33934 107.378 0.241832C113.951 -0.856658 121.157 1.85565 125.309 6.98522C129.191 11.7824 130.703 18.6634 129.455 25.8631C128.534 31.1795 126.243 36.1842 123.897 40.3953L124.19 40.5959L121.76 44.031Z" fill="white" style="fill:white;fill-opacity:1;"/>
<path d="M118.42 29.6425L117.993 29.3868C119.162 27.4956 120.039 25.4491 120.6 23.3043C121.768 18.8346 121.35 14.4996 119.425 11.097C117.269 7.2901 113.003 4.88169 109.024 5.24752C104.734 5.63991 101.096 9.57855 101.391 13.5093L100.892 13.5457C100.572 9.28744 104.35 5.18163 108.978 4.75777C113.207 4.37129 117.578 6.82298 119.861 10.858C121.85 14.3708 122.284 18.8346 121.084 23.4262C120.512 25.6193 119.615 27.71 118.42 29.6425Z" fill="white" style="fill:white;fill-opacity:1;"/>
<path d="M124.402 43.9877C123.942 43.5127 123.739 42.9315 123.799 42.2608C123.922 40.8899 125.164 39.4158 126.342 38.5641C129.881 36.0023 133.131 34.7209 136.278 34.6471C140.089 34.5478 143.606 36.5314 144.955 39.4964C148.735 34.6973 155.082 31.8542 161.237 32.2043C167.546 32.5711 173.636 36.3022 176.753 41.7111L176.318 41.953C173.283 36.6868 167.352 33.052 161.208 32.695C155.066 32.34 148.738 35.2578 145.092 40.1356L144.817 40.5034L144.656 40.0757C143.396 36.7349 139.502 35.068 136.29 35.1398C133.25 35.2116 130.093 36.4616 126.64 38.9614C125.553 39.7482 124.408 41.0876 124.299 42.3051C124.252 42.8293 124.409 43.2816 124.766 43.6504L124.402 43.9877Z" fill="white" style="fill:white;fill-opacity:1;"/>
<path d="M198.036 76.141L198.024 75.6492C202.467 75.5499 206.725 73.0127 208.87 69.1852C210.207 66.8003 210.786 63.9248 210.543 60.8693C210.073 54.9628 206.372 49.0849 200.883 45.5278C195.886 42.2894 189.419 40.7946 182.665 41.3118L182.626 40.8221C189.483 40.2891 196.067 41.8173 201.158 45.1167C206.858 48.8105 210.553 54.6855 211.041 60.8309C211.291 63.9828 210.691 66.9547 209.307 69.4232C207.078 73.4011 202.653 76.0377 198.036 76.141Z" fill="white" style="fill:white;fill-opacity:1;"/>
<path d="M155.132 94.356C153.254 91.4293 154.392 86.9705 157.567 84.8118C160.255 82.9866 164.087 82.6994 167.652 84.0388C167.583 81.5252 168.674 79.0686 170.752 77.084C173.297 74.651 176.949 73.3519 180.277 73.6843C186.008 74.2626 191.393 78.7205 193.996 85.041L193.532 85.2258C190.998 79.0715 185.775 74.7346 180.226 74.1751C177.039 73.8545 173.543 75.1024 171.1 77.4371C169.023 79.4226 167.982 81.892 168.17 84.3919L168.2 84.7902L167.825 84.6368C164.315 83.201 160.493 83.4232 157.851 85.218C154.886 87.233 153.813 91.3811 155.555 94.0934L155.132 94.356Z" fill="white" style="fill:white;fill-opacity:1;"/>
</svg>
