<svg width="359" height="138" viewBox="0 0 359 138" fill="none" xmlns="http://www.w3.org/2000/svg">
<path d="M45.3231 90.1401C39.5851 88.4977 33.0581 89.4163 28.2481 92.9045C23.4381 96.3927 20.5871 102.472 21.3991 108.295C17.4261 107.711 13.3561 107.129 9.42006 107.919C5.48506 108.71 1.64607 111.166 0.384066 114.916C0.212066 115.426 0.0900601 115.982 0.24206 116.498C0.59006 117.688 2.09606 118.051 3.34706 118.194C19.1261 120.004 38.7481 120.733 54.0001 115.528C67.6461 110.873 54.0981 92.6507 45.3231 90.1401Z" fill="#E5BBC1" style="fill:#E5BBC1;fill:color(display-p3 0.8980 0.7333 0.7569);fill-opacity:1;"/>
<path d="M336.841 118.528C340.598 118.436 344.534 118.298 347.79 116.453C351.046 114.608 353.282 110.455 351.661 107.121C350.138 103.988 346.146 102.973 342.63 102.643C336.511 102.07 330.297 102.491 324.315 103.881C324.959 99.0145 321.011 94.0147 316.057 93.4227C311.102 92.8307 306.053 96.7555 305.493 101.632C306.87 97.9543 305.616 93.642 302.949 90.7301C300.282 87.8181 296.406 86.1837 292.477 85.5307C288.474 84.8649 283.819 85.3822 281.266 88.4859C279.942 90.0958 279.382 92.1649 278.747 94.1396C274.876 106.18 263.131 119.908 283.803 119.819C301.474 119.74 319.174 118.957 336.841 118.528Z" fill="white" style="fill:white;fill-opacity:1;"/>
<path d="M288.524 105.271C285.33 100.117 276.087 99.106 272.47 104.359C274.967 96.8854 276.325 88.7249 274.067 81.1791C271.818 73.6332 265.246 66.9528 257.261 66.4296C249.285 65.9153 241.18 73.3264 242.759 81.0345C235.82 73.7502 225.016 70.2384 215.03 71.9987C229.533 63.7399 237.628 45.8661 234.168 29.7359C232.103 20.0953 225.017 10.0034 215.856 3.96512C221.373 4.29063 226.788 5.58974 231.8 7.98242C240.731 12.2515 247.835 20.2222 251.14 29.4114C252.581 33.41 254.435 39.8642 252.921 44.0802C251.563 47.8713 247.542 49.5775 246.386 53.703C252.114 47.0413 261.586 44.5857 270.058 46.9872C278.548 49.3976 285.377 55.96 289.627 63.5786C296.785 76.4035 296.868 93.2389 288.524 105.271Z" fill="white" style="fill:white;fill-opacity:1;"/>
<path d="M290.828 115.435C288.469 116.934 285.568 117.321 282.787 117.683C267.156 119.687 250.973 121.655 235.865 117.214C232.34 116.185 228.65 114.795 225.098 115.706C223.226 116.194 221.582 117.277 219.93 118.27C200.297 130.095 174.183 130.682 154.026 119.732C150.529 117.836 147.105 115.58 143.186 114.867C139.478 114.191 135.678 114.939 131.979 115.608C105.012 120.446 77.1731 120.518 50.1781 115.843C49.0951 115.653 47.9661 115.428 47.1311 114.733C44.3961 112.43 47.2601 108.125 50.2061 106.094C61.8081 98.0695 76.5311 94.5222 90.5931 96.3632C89.0141 88.3561 94.2551 80.1602 101.415 76.0446C108.565 71.9279 117.212 71.1697 125.5 71.4411C125.271 63.9307 129.236 56.4301 135.615 52.3046C141.994 48.1791 150.567 47.5655 157.479 50.7429C162.087 35.3168 171.394 20.883 185.098 12.1089C194.13 6.33125 205.172 3.32586 215.856 3.96706C225.016 10.0063 232.102 20.0983 234.168 29.7378C237.629 45.869 229.533 63.7419 215.03 72.0007C225.016 70.2404 235.82 73.7522 242.759 81.0365C241.18 73.3273 249.285 65.9172 257.261 66.4315C265.247 66.9547 271.819 73.6352 274.067 81.181C276.325 88.7269 274.967 96.8874 272.47 104.361C288.178 88.6737 290.047 106.275 290.46 105.761C291.965 105.968 293.443 106.943 293.948 108.379C294.858 110.985 293.196 113.937 290.828 115.435Z" fill="#E5BBC1" style="fill:#E5BBC1;fill:color(display-p3 0.8980 0.7333 0.7569);fill-opacity:1;"/>
<path d="M121.638 88.6747C130.046 88.4987 138.108 94.8762 139.736 102.989C145.22 101.825 151.261 103.642 155.143 107.626C159.025 111.61 160.615 117.623 159.199 122.961C122.09 117.716 84.2481 128.578 46.9671 124.683C42.0141 124.166 36.0591 122.511 34.9171 117.743C34.1001 114.332 36.2761 110.951 38.6331 108.324C47.4181 98.5336 59.8941 93.0372 73.0371 92.2023C86.6491 91.3368 93.2621 95.959 104.032 103.402C106.415 95.5567 112.773 88.8616 121.638 88.6747Z" fill="#BF7BA0" style="fill:#BF7BA0;fill:color(display-p3 0.7490 0.4824 0.6275);fill-opacity:1;"/>
<path d="M306.299 132.278C304.674 134.706 302.281 135.484 299.996 135.91C298.642 136.166 297.278 136.325 295.913 136.432C295.848 136.219 295.794 136.017 295.729 135.814C293.476 128.582 286.88 122.234 279.18 122.255C274.035 122.277 269.346 124.993 265.046 127.783C264.125 128.379 262.891 128.987 262.013 128.336C261.536 127.975 261.352 127.367 261.147 126.813C260.475 125.056 259.241 123.777 257.692 122.936C260.129 122.447 262.598 122.617 265.046 122.5C265.696 122.467 266.389 122.383 266.855 121.722C267.332 121.03 267.407 119.954 267.581 118.995C268.144 115.864 270.05 113.584 272.108 112.55C274.166 111.517 276.397 111.539 278.563 111.602C284.217 111.783 287.628 114.094 292.318 118.078C296.52 121.657 303.062 119.293 306.463 123.202C308.27 125.291 307.923 129.86 306.299 132.278Z" fill="white" style="fill:white;fill-opacity:1;"/>
<path d="M75.6971 120.096C71.0661 117.141 64.9381 116.597 59.8451 118.689C56.5191 120.055 53.5771 122.604 52.3731 125.945C51.1691 129.286 51.9991 133.404 54.8101 135.622C57.2201 137.523 60.5571 137.788 63.6381 137.568C73.3201 136.875 82.7791 132.212 92.3471 133.834C99.7241 135.085 109.028 131.249 97.6591 127.856C93.5341 126.624 89.1341 128.245 85.0211 126.744C81.4101 125.427 78.8661 122.118 75.6971 120.096Z" fill="#E5BBC1" style="fill:#E5BBC1;fill:color(display-p3 0.8980 0.7333 0.7569);fill-opacity:1;"/>
<path d="M295.912 136.432C292.728 136.677 289.533 136.602 286.348 136.518C275.42 136.24 264.503 135.964 253.574 135.687C251.776 135.634 249.448 134.941 249.209 132.278C249.111 131.202 249.426 130.137 249.826 129.231C251.353 125.791 254.072 123.895 256.779 123.15C257.082 123.064 257.386 123 257.689 122.936C259.238 123.778 260.473 125.056 261.144 126.813C261.35 127.367 261.534 127.974 262.01 128.336C262.887 128.987 264.122 128.379 265.043 127.783C269.343 124.992 274.033 122.276 279.177 122.255C286.878 122.233 293.473 128.582 295.726 135.814C295.793 136.016 295.847 136.219 295.912 136.432Z" fill="#E5BBC1" style="fill:#E5BBC1;fill:color(display-p3 0.8980 0.7333 0.7569);fill-opacity:1;"/>
<path d="M197.799 82.1055C199.706 76.5166 205.53 72.4649 211.524 72.5573C205.531 76.0692 201.062 82.0091 199.399 88.6718C196.088 87.892 194.637 84.1785 192.353 81.6963C188.73 77.7587 183.198 77.1726 178.234 76.2118C184.885 72.4197 195.723 73.2605 197.799 82.1055Z" fill="white" style="fill:white;fill-opacity:1;"/>
<path d="M103.327 112.188C96.9531 106.682 87.8721 104.362 79.5801 106.122C81.7941 102.98 86.2021 101.951 90.0261 102.637C93.8501 103.325 97.2441 105.405 100.532 107.443C99.3611 106.717 102.871 100.943 103.503 100.466C105.082 103.425 103.352 108.846 103.327 112.188Z" fill="#E5BBC1" style="fill:#E5BBC1;fill:color(display-p3 0.8980 0.7333 0.7569);fill-opacity:1;"/>
<path d="M293.656 84.5246L293.156 84.5207C293.212 75.4653 291.617 67.5615 288.415 61.0286C284.636 53.3155 278.366 47.3658 271.213 44.7056C263.201 41.7268 254.158 43.022 248.183 48.0089C245.592 50.1695 243.648 52.9153 242.559 55.9472L242.088 55.7839C243.205 52.6694 245.201 49.8519 247.859 47.6343C253.972 42.5332 263.209 41.2016 271.391 44.2463C278.663 46.9498 285.032 52.99 288.867 60.8151C292.101 67.4149 293.713 75.3925 293.656 84.5246Z" fill="white" style="fill:white;fill-opacity:1;"/>
<path d="M289.871 86.824L290.085 84.0103L290.583 84.0467L290.508 85.0459C295.086 78.1167 296.443 69.0426 294.034 61.1309C291.536 52.9242 284.955 45.8631 276.86 42.7014C273.155 41.2538 268.898 40.468 264.209 40.3667C258.533 40.2507 252.936 41.0974 247.566 42.904L247.404 42.4389C252.832 40.6136 258.498 39.7541 264.22 39.875C268.969 39.9783 273.284 40.7749 277.044 42.2441C285.277 45.4609 291.971 52.6429 294.512 60.9912C297.053 69.3366 295.475 78.9555 290.393 86.0923L289.871 86.824Z" fill="white" style="fill:white;fill-opacity:1;"/>
<path d="M346.751 112.335C346.272 112.335 345.793 112.319 345.313 112.29L345.344 111.8C347.526 111.935 349.71 111.756 351.841 111.27C352.37 111.149 352.972 110.99 353.406 110.63C353.864 110.248 354.165 109.606 354.253 108.818C354.459 106.974 353.551 104.986 351.823 103.498C350.341 102.22 348.528 101.434 346.26 100.647C343.544 99.7029 340.326 98.7342 336.961 98.8178C333.507 98.8886 330.415 100.133 328.481 102.23L328.079 102.666L328.046 102.078C327.836 98.2838 326.625 94.5871 324.543 91.388C324.161 90.799 323.727 90.204 323.138 89.8411C322.368 89.3671 321.368 89.312 320.591 89.3268C313.097 89.4133 306.128 95.1526 304.727 102.394L304.237 102.301C305.68 94.8389 312.862 88.9235 320.586 88.835C321.432 88.8213 322.523 88.8822 323.404 89.4241C324.077 89.8391 324.552 90.4862 324.966 91.1225C326.991 94.2361 328.211 97.8118 328.509 101.495C330.546 99.5436 333.588 98.395 336.953 98.3251C340.382 98.2455 343.67 99.225 346.428 100.184C348.75 100.989 350.613 101.8 352.155 103.127C354.005 104.721 354.975 106.869 354.751 108.872C354.68 109.518 354.444 110.411 353.73 111.005C353.213 111.436 352.542 111.615 351.957 111.749C350.245 112.138 348.5 112.335 346.751 112.335Z" fill="white" style="fill:white;fill-opacity:1;"/>
<path d="M262.689 123.397L262.191 123.354C262.841 116.093 268.568 109.684 275.806 108.114C277.518 107.743 278.959 107.721 280.211 108.045C281.684 108.428 282.941 109.31 283.873 110.036C286.477 112.067 288.684 114.62 290.31 117.472L290.575 117.401L290.909 118.597L290.444 118.772C288.813 115.55 286.434 112.663 283.563 110.423C282.669 109.726 281.466 108.881 280.085 108.522C278.91 108.217 277.547 108.241 275.914 108.595C268.884 110.118 263.321 116.345 262.689 123.397Z" fill="white" style="fill:white;fill-opacity:1;"/>
<path d="M199.954 83.0043L199.455 82.9689C199.682 78.987 197.486 74.9539 193.992 72.931C190.498 70.9061 185.844 70.9789 182.417 73.1051C180.858 74.0708 179.559 75.4083 178.303 76.7005L177.942 76.3602C179.219 75.0464 180.54 73.6872 182.15 72.6881C185.734 70.4665 190.594 70.3928 194.247 72.5061C197.483 74.3796 199.653 77.9052 199.94 81.5803L200.083 81.5931L199.954 83.0043Z" fill="white" style="fill:white;fill-opacity:1;"/>
<path d="M120.896 77.9849L120.397 77.9554C120.762 71.2454 121.14 64.3064 123.736 57.9082C126.645 50.7429 132.108 45.6763 138.349 44.3565C142.056 43.5717 146.208 44.4205 149.458 46.6263C151.758 48.187 153.365 50.2787 154.089 52.6173C155.632 40.9361 158.3 31.8148 162.447 24.0044C167.793 13.9341 175.769 6.32337 184.909 2.57356C195.255 -1.66994 207.226 -0.599982 215.41 5.29764L215.115 5.69398C207.067 -0.104318 195.287 -1.15168 185.102 3.02691C176.07 6.73248 168.181 14.2636 162.89 24.2306C158.609 32.2938 155.913 41.773 154.408 54.063L154.189 55.8528L153.913 54.0699C153.486 51.3133 151.804 48.8134 149.174 47.0305C146.035 44.9003 142.028 44.0802 138.454 44.8364C132.375 46.1228 127.047 51.0773 124.2 58.0911C121.99 63.5354 121.405 69.4074 121.053 75.1929L121.083 75.1949L120.896 77.9849Z" fill="#E5BBC1" style="fill:#E5BBC1;fill:color(display-p3 0.8980 0.7333 0.7569);fill-opacity:1;"/>
<path d="M4.38909 115.549C3.73309 115.549 3.09109 115.452 2.51109 115.251C1.30309 114.834 0.462091 114.002 0.142091 112.91C-0.318909 111.334 0.429093 109.715 1.13809 108.633C4.35209 103.73 11.3871 101.788 16.7491 104.231C15.7111 99.8514 16.5611 94.9638 19.1131 90.7331C21.7671 86.3342 25.9371 83.1833 30.5541 82.0887C35.1711 80.9971 40.3431 81.9294 44.7431 84.6545C49.1431 87.3805 52.2351 91.5641 53.2251 96.1331L52.7361 96.2344C51.7741 91.7952 48.7631 87.7267 44.4761 85.0705C40.1891 82.4152 35.1581 81.5016 30.6711 82.5657C26.1841 83.6298 22.1281 86.6971 19.5431 90.9829C16.9571 95.2677 16.1631 100.239 17.3641 104.621L17.5131 105.165L17.0071 104.903C11.8131 102.22 4.73809 104.048 1.55809 108.899C0.906091 109.894 0.214094 111.374 0.623094 112.773C0.974094 113.972 1.93409 114.529 2.67709 114.786C4.27309 115.339 6.38509 115.032 7.81309 114.041L8.10109 114.443C7.06609 115.161 5.70009 115.549 4.38909 115.549Z" fill="#E5BBC1" style="fill:#E5BBC1;fill:color(display-p3 0.8980 0.7333 0.7569);fill-opacity:1;"/>
<path d="M99.2531 131.289L99.0851 129.287L99.5831 129.247L99.6191 129.672C99.7581 128.951 99.5141 128.157 99.0961 127.594C98.5431 126.851 97.6701 126.287 96.3501 125.819C93.1951 124.7 89.5971 124.752 86.4781 125.962L86.1931 126.073L86.1401 125.776C85.6401 122.975 83.6391 120.368 80.1921 118.026C77.4481 116.162 73.1271 113.99 68.1721 114.059C63.6121 114.149 59.4541 116.308 57.3211 119.696C56.1741 121.517 55.6051 123.7 55.7201 125.84L55.2211 125.866C55.1001 123.627 55.6951 121.343 56.8961 119.436C59.1181 115.909 63.4351 113.661 68.1621 113.567C73.2481 113.472 77.6711 115.717 80.4761 117.621C83.9191 119.961 85.9691 122.576 86.5751 125.399C89.7391 124.249 93.3451 124.229 96.5191 125.355C97.9381 125.857 98.8841 126.477 99.4991 127.302C100.196 128.239 100.471 129.738 99.6471 130.787L99.2531 131.289Z" fill="#E5BBC1" style="fill:#E5BBC1;fill:color(display-p3 0.8980 0.7333 0.7569);fill-opacity:1;"/>
<path d="M130.784 113.421L130.49 113.235C126.533 110.723 121.33 110.165 116.912 111.773L116.738 111.311C121.193 109.69 126.42 110.203 130.469 112.642C132.24 106.239 138.323 101.306 145.067 100.855C145.516 100.825 145.993 100.754 146.115 100.45C146.121 100.437 146.133 100.405 146.081 100.346C145.997 100.253 145.861 100.219 145.824 100.227L145.366 100.214C145.359 100.015 145.455 99.8514 145.624 99.7767C145.879 99.6626 146.213 99.7905 146.408 99.9724C146.607 100.159 146.671 100.406 146.58 100.632C146.324 101.265 145.498 101.32 145.101 101.346C138.455 101.791 132.469 106.73 130.869 113.088L130.784 113.421Z" fill="#E5BBC1" style="fill:#E5BBC1;fill:color(display-p3 0.8980 0.7333 0.7569);fill-opacity:1;"/>
<path d="M285.598 106.704L284.594 103.275L285.074 103.138L285.557 104.791C286.084 102.571 286.479 100.26 286.077 98.0458C285.661 95.7525 284.071 93.1562 281.456 92.5307C278.332 91.7755 275.277 94.0865 273.247 95.8823L272.014 96.9739L272.866 95.5735C277.458 88.0208 277.985 78.3645 274.241 70.3721C272.215 66.048 269.183 62.9325 265.704 61.5999C263.38 60.7099 260.548 60.4887 257.29 60.9371C251.769 61.7003 246.976 64.0546 243.792 67.5644C240.218 71.507 238.851 76.9994 240.31 81.5557L239.833 81.7032C238.322 76.9847 239.73 71.3064 243.419 67.2379C246.681 63.6405 251.582 61.2301 257.22 60.4503C260.563 59.9881 263.479 60.2202 265.886 61.1407C269.487 62.5204 272.616 65.7254 274.696 70.1666C278.309 77.8796 278.015 87.114 273.994 94.6048C276.043 92.9684 278.752 91.3732 281.577 92.0518C284.41 92.7314 286.127 95.5086 286.571 97.9593C287.046 100.57 286.462 103.271 285.824 105.812L285.598 106.704Z" fill="#E5BBC1" style="fill:#E5BBC1;fill:color(display-p3 0.8980 0.7333 0.7569);fill-opacity:1;"/>
<path d="M116.563 78.3704C113.75 70.1145 113.899 61.7268 116.985 54.7524C120.424 46.9784 127.7 41.3757 135.52 40.4808C143.966 39.518 152.602 44.5572 155.192 51.9584L154.719 52.1177C152.202 44.9259 143.797 40.0304 135.578 40.9686C127.931 41.8448 120.813 47.3324 117.443 54.948C114.407 61.8114 114.263 70.0732 117.036 78.214L116.563 78.3704Z" fill="#E5BBC1" style="fill:#E5BBC1;fill:color(display-p3 0.8980 0.7333 0.7569);fill-opacity:1;"/>
<path d="M166.644 92.1246L165.9 91.1206C163.586 87.9972 159.864 86.0215 155.941 85.8366C152.012 85.6596 148.117 87.2636 145.508 90.1509L145.135 89.8244C147.842 86.8259 151.894 85.1659 155.964 85.3449C159.71 85.5229 163.281 87.2724 165.698 90.0752C165.473 87.5606 166.69 84.747 169.136 82.2068C174.008 77.1431 181.391 74.653 188.4 75.7112L188.324 76.197C181.474 75.1625 174.261 77.5955 169.5 82.5441C168.249 83.8432 165.437 87.2596 166.345 90.917L166.644 92.1246Z" fill="white" style="fill:white;fill-opacity:1;"/>
<path d="M342.865 116.336L342.752 115.858C345.865 115.15 348.989 114.34 352.036 113.45C353.94 112.895 356.057 112.162 357.059 110.485C357.679 109.452 357.852 108.091 357.572 106.441C356.95 102.794 354.499 99.2329 350.671 96.4154C348.398 94.7426 344.866 92.7855 340.951 92.9468C334.739 93.2064 330.022 98.4776 326.088 103.399L325.695 103.095C329.697 98.0872 334.506 92.7236 340.929 92.4551C344.983 92.2958 348.632 94.301 350.969 96.022C354.902 98.9162 357.421 102.588 358.064 106.362C358.365 108.129 358.171 109.6 357.49 110.736C356.395 112.565 354.174 113.339 352.178 113.921C349.122 114.813 345.988 115.627 342.865 116.336Z" fill="white" style="fill:white;fill-opacity:1;"/>
<path d="M104.373 103.195C102.828 97.3279 105.58 90.5727 111.064 86.7669C115.926 83.3908 122.749 82.3345 129.314 83.9464C131.653 84.5187 133.322 85.2927 134.566 86.3824C135.798 87.4602 136.758 88.9727 137.502 91.0054C138.749 94.4179 139.014 98.2494 138.245 101.795L137.757 101.692C138.505 98.2346 138.247 94.4996 137.031 91.1726C136.317 89.2176 135.402 87.7709 134.234 86.7492C133.052 85.7156 131.45 84.976 129.192 84.4234C122.768 82.8509 116.098 83.8756 111.351 87.1691C106.033 90.8599 103.362 97.3987 104.856 103.073L104.373 103.195Z" fill="#BF7BA0" style="fill:#BF7BA0;fill:color(display-p3 0.7490 0.4824 0.6275);fill-opacity:1;"/>
<path d="M159.034 122.115L158.61 121.86L160.109 118.833L160.224 118.888C160.896 117.024 161.109 114.936 160.809 112.844C160.338 109.559 158.659 106.631 156.199 104.81C153.74 102.987 150.414 102.209 147.073 102.671C143.732 103.134 140.755 104.785 138.901 107.205L138.503 106.909C140.435 104.386 143.532 102.664 147.003 102.183C150.468 101.7 153.935 102.515 156.5 104.416C159.065 106.315 160.816 109.361 161.305 112.774C161.794 116.189 160.967 119.594 159.034 122.115Z" fill="#BF7BA0" style="fill:#BF7BA0;fill:color(display-p3 0.7490 0.4824 0.6275);fill-opacity:1;"/>
<path d="M49.0501 103.229C48.8611 101.515 50.0271 100.056 51.3151 98.7352C53.2021 96.7989 55.2041 94.9244 57.2651 93.1661C59.3351 91.3988 61.6171 89.6257 64.2751 88.6295C68.4961 87.0452 73.2481 87.5635 77.7531 88.36C80.4681 88.84 83.5961 89.4713 86.3581 90.8885C89.3681 92.4324 91.5031 94.7278 92.3701 97.3515C92.5311 97.8383 92.7051 98.0744 92.9021 98.0744C92.9041 98.0744 92.9071 98.0744 92.9101 98.0744C92.8931 98.0655 92.8691 97.9514 92.8381 97.917C92.8481 97.9278 92.8871 97.9504 92.9391 97.9485C92.9971 97.9465 93.0321 97.917 93.0401 97.9072L92.5991 97.6741C92.7211 97.4578 92.9081 97.4302 93.0421 97.4755C93.2871 97.5581 93.4141 97.9023 93.3751 98.1619C93.3391 98.3989 93.1641 98.5582 92.9271 98.5661C92.9181 98.5661 92.9081 98.5661 92.8991 98.5661C92.2471 98.5661 91.9911 97.796 91.8951 97.503C91.0691 95.0031 89.0211 92.8091 86.1271 91.3241C83.4271 89.9385 80.3431 89.3169 77.6641 88.8439C73.2301 88.0601 68.5601 87.5487 64.4541 89.0888C61.8691 90.0584 59.6281 91.8011 57.5931 93.5368C55.5431 95.2863 53.5521 97.1499 51.6761 99.0755C50.4711 100.311 49.3801 101.663 49.5471 103.176L49.0501 103.229Z" fill="#BF7BA0" style="fill:#BF7BA0;fill:color(display-p3 0.7490 0.4824 0.6275);fill-opacity:1;"/>
<path d="M105.717 100.333C105.308 96.9582 106.603 93.3982 109.094 91.0429C111.571 88.7003 115.252 87.3501 120.348 86.9164C121.847 86.7886 123.815 86.6882 125.735 87.0403C131.013 88.0129 135.34 92.519 136.023 97.7567L135.527 97.8197C134.871 92.7885 130.714 88.4574 125.643 87.5241C123.783 87.1799 121.858 87.2803 120.391 87.4061C115.414 87.831 111.831 89.136 109.44 91.3989C107.059 93.6489 105.822 97.0516 106.213 100.276L105.717 100.333Z" fill="#BF7BA0" style="fill:#BF7BA0;fill:color(display-p3 0.7490 0.4824 0.6275);fill-opacity:1;"/>
<path d="M41.7961 121.548C37.9281 121.548 34.0351 120.437 30.8581 118.32C29.9761 117.732 28.7771 116.794 28.5601 115.447C28.4281 114.626 28.6811 113.828 28.9741 113.087C31.8981 105.708 40.0821 100.781 48.0891 101.531C48.5661 92.5937 58.8911 85.2849 67.9921 84.2798C76.8641 83.2935 86.3051 88.5931 90.4371 96.8667L89.9881 97.0841C85.9461 88.9895 76.7221 83.8127 68.0481 84.7686C59.0611 85.7629 48.8551 93.0058 48.5781 101.811L48.5701 102.078L48.3001 102.048C40.4221 101.185 32.3171 106.006 29.4401 113.267C29.1731 113.944 28.9411 114.666 29.0551 115.372C29.2421 116.531 30.3341 117.378 31.1401 117.915C35.7661 120.996 41.9501 121.89 47.2821 120.252L47.4311 120.721C45.6181 121.276 43.7101 121.548 41.7961 121.548Z" fill="#BF7BA0" style="fill:#BF7BA0;fill:color(display-p3 0.7490 0.4824 0.6275);fill-opacity:1;"/>
</svg>
