<svg width="169" height="65" viewBox="0 0 169 65" fill="none" xmlns="http://www.w3.org/2000/svg">
<path d="M98.1909 36.2327C99.6594 38.7433 99.7858 41.9569 98.5507 44.5775C97.7241 45.2039 96.698 45.6009 95.706 45.9499C93.5032 46.7199 91.0816 47.3894 88.8594 46.672C88.7718 48.3506 88.0327 49.9287 86.9094 51.1768C69.0487 52.1954 51.1395 51.3633 33.2691 50.5216C27.0643 50.2299 20.8254 49.9382 14.7568 48.6088C13.7842 48.3984 12.7534 48.121 12.0969 47.3846C10.6527 45.7682 12.0385 43.0759 14.0079 42.1338C15.9773 41.1965 18.2822 41.3017 20.4072 40.7853C20.3635 35.5154 26.1258 32.0388 31.3872 31.0441C33.2204 30.695 35.2287 30.5324 36.8577 31.4314C37.096 31.5653 37.3148 31.7279 37.5142 31.9144C37.1641 29.9203 37.4218 27.8736 38.584 26.2285C40.4853 23.541 45.2507 23.0245 47.0256 25.7981C45.7856 22.4363 46.0142 18.338 48.4552 15.6887C50.8963 13.0394 55.7931 12.6712 58.0299 15.4927C57.2373 10.1128 61.3851 4.92896 66.4861 2.82962C68.5771 1.97362 70.8577 1.54323 73.1237 1.5767H73.1286C75.2487 2.49487 77.1208 3.96298 78.3997 5.87104C81.4194 10.3806 80.8602 16.8938 77.1062 20.8343C80.5296 19.9687 84.4538 21.9246 85.7716 25.1477C85.898 24.5213 86.253 23.957 86.6809 23.474C88.9226 20.9586 93.1677 20.8821 95.9929 22.7471C98.8182 24.6074 100.345 27.9453 100.788 31.2641C97.8262 29.1791 93.4206 29.3656 90.6488 31.6945C93.7221 31.8427 96.6591 33.6121 98.1909 36.2327Z" fill="#E5BBC1" style="fill:#E5BBC1;fill:color(display-p3 0.8980 0.7333 0.7569);fill-opacity:1;"/>
<path d="M26.5764 35.6923C22.5793 35.6493 18.5773 35.8549 14.6045 36.3044C12.6545 36.5244 10.7046 36.8065 8.74006 36.7539C8.11278 36.7396 7.45631 36.6822 6.93601 36.3427C6.12394 35.8166 5.85162 34.712 6.09962 33.7938C6.34762 32.8709 7.02353 32.1153 7.77239 31.5127C9.6348 30.0112 12.5087 29.3369 14.4246 30.7667C14.7406 28.6387 16.7246 27.0271 18.8836 26.6828C19.4331 26.9889 19.9972 27.2806 20.2598 27.5484C21.4511 28.763 21.8985 30.5181 20.994 32.0579C21.704 30.9915 23.2747 31.3645 24.1645 32.0196C25.3802 32.9139 26.2214 34.2433 26.5764 35.6923Z" fill="#E5BBC1" style="fill:#E5BBC1;fill:color(display-p3 0.8980 0.7333 0.7569);fill-opacity:1;"/>
<path d="M30.4958 35.8071C29.1877 35.7401 27.8845 35.7019 26.5764 35.6923C26.2215 34.2433 25.3802 32.9139 24.1646 32.0197C23.2747 31.3645 21.704 30.9915 20.9941 32.0579C21.8985 30.5181 21.4512 28.763 20.2598 27.5484C19.9972 27.2806 19.4332 26.9889 18.8837 26.6828C19.3116 26.6111 19.7492 26.592 20.182 26.6302C23.0364 26.8741 24.2764 29.2173 26.557 30.365C29.2655 31.7232 31.3273 31.8618 30.4958 35.8071Z" fill="white" style="fill:white;fill-opacity:1;"/>
<path d="M158.835 55.0135C157.158 55.2526 155.432 55.3004 153.739 55.3291C153.029 55.3435 152.29 55.3578 151.668 55.6878C151.016 56.0273 150.583 56.6538 150.087 57.1942C146.912 60.6325 141.403 60.2786 136.744 59.5039C132.441 58.7914 128.176 57.9115 123.907 57.0029C121.859 56.5629 119.613 56.5247 117.512 56.0943C110.16 56.8212 102.798 57.0603 95.5085 56.1086C95.8246 56.1325 96.1261 56.1469 96.4227 56.1421C105.701 56.013 115.13 54.8079 124.349 53.8036C125.73 53.6554 127.184 53.4737 128.312 52.6703C129.329 51.9434 129.941 50.81 130.69 49.8154C132.815 46.9987 136.379 45.2006 139.939 45.4589C143.494 45.7123 146.868 48.1607 147.885 51.5226C150.681 49.9684 154.459 50.1788 156.895 52.2303C157.775 52.9716 158.431 53.9471 158.835 55.0135Z" fill="#E5BBC1" style="fill:#E5BBC1;fill:color(display-p3 0.8980 0.7333 0.7569);fill-opacity:1;"/>
<path d="M113.869 32.4056C113.319 32.2616 112.709 31.9484 112.683 31.3999C112.666 31.0475 112.905 30.7228 113.159 30.4559C114.516 29.0294 116.672 28.3427 118.589 28.7257C119.11 28.83 119.619 29.0074 120.156 29.0093C121.42 29.0141 122.479 28.0797 123.463 27.2792C124.781 26.2056 126.297 25.242 127.987 25.0297C129.678 24.8173 131.554 25.5576 132.117 27.064C132.751 28.7597 131.481 30.7553 129.766 31.629C128.051 32.5027 126.041 32.5189 124.14 32.4147C120.937 32.2387 116.928 33.2071 113.869 32.4056Z" fill="white" style="fill:white;fill-opacity:1;"/>
<path d="M18.0936 45.1624C16.3167 44.7449 13.9987 45.9237 14.2073 47.7084C12.1868 46.1245 9.98988 44.4713 7.41168 44.3083C4.83299 44.1452 1.96984 46.2713 2.46097 48.7662C2.84123 50.6976 4.94046 51.8267 6.90888 52.1772C10.287 52.7784 13.7322 51.8927 17.157 51.6627C25.6302 51.0941 34.5888 54.4856 42.3905 51.1849C39.1816 47.836 32.9559 50.1147 28.9495 49.9325C24.4296 49.7269 22.1311 46.1173 18.0936 45.1624Z" fill="#BF7BA0" style="fill:#BF7BA0;fill:color(display-p3 0.7490 0.4824 0.6275);fill-opacity:1;"/>
<path d="M122.13 47.3875C122.927 46.0743 124.158 45.0203 125.591 44.425C123.945 46.1145 122.58 48.0684 121.568 50.1855C120.631 49.1234 120.328 47.6342 119.413 46.554C118.618 45.6138 117.462 45.1098 116.29 44.7836C115.518 44.5684 114.453 44.5938 113.781 44.1887C114.643 43.6675 116.376 43.9066 117.335 44.0405C118.274 44.1715 119.105 44.4852 119.869 45.0457C120.132 45.2384 122.292 47.1206 122.13 47.3875Z" fill="#E5BBC1" style="fill:#E5BBC1;fill:color(display-p3 0.8980 0.7333 0.7569);fill-opacity:1;"/>
<path d="M68.1554 25.6843C69.9658 24.7944 72.1608 24.6968 74.0456 25.4223C75.9304 26.1477 77.4748 27.6847 78.1896 29.5468C76.8913 27.7904 74.5961 26.9573 72.3889 26.9062C70.1812 26.855 68.0208 27.4814 65.9186 28.1452C66.5109 26.3356 66.2959 24.286 65.3414 22.6338C64.9028 21.8749 64.31 21.2044 63.6166 20.6612C63.143 20.2901 62.3771 20.05 62.0299 19.6029C62.9937 19.194 64.6689 19.8578 65.4635 20.4168C67.1771 21.6224 67.7732 23.7528 68.1554 25.6843Z" fill="white" style="fill:white;fill-opacity:1;"/>
<path d="M118.843 51.1529C115.079 51.3777 111.32 51.7363 107.571 52.1858C101.517 50.0913 94.7189 50.6938 88.2369 51.1003C87.7944 51.129 87.3519 51.1529 86.9094 51.1768C88.0327 49.9287 88.7718 48.3506 88.8594 46.6721C91.0816 47.3894 93.5032 46.7199 95.706 45.95C96.698 45.6009 97.7241 45.2039 98.5507 44.5775C98.4972 44.697 98.4389 44.8118 98.3805 44.9266C100.851 44.9266 103.063 42.612 102.908 40.1923C106.526 42.0238 109.093 45.7204 109.511 49.6944C112.482 48.0876 116.523 48.7188 118.843 51.1529Z" fill="#BF7BA0" style="fill:#BF7BA0;fill:color(display-p3 0.7490 0.4824 0.6275);fill-opacity:1;"/>
<path d="M95.1876 45.7018C93.3247 44.84 91.473 45.7123 89.8318 46.5644C89.011 45.3641 88.6521 43.9692 87.6008 42.8444C86.6652 41.8431 85.4734 41.0578 84.1079 40.77C81.326 40.1832 78.0471 42.3648 78.1502 45.2781C78.1385 44.9433 75.4246 45.0442 75.1416 45.0767C73.232 45.2991 71.4207 46.211 70.1102 47.5936C69.0273 48.736 67.817 50.8186 69.6482 51.9013C70.1447 52.1949 70.7496 52.193 71.3225 52.1815C80.1774 52.0065 89.0266 51.5144 97.848 50.7058C98.1417 48.6891 96.9999 46.541 95.1876 45.7018Z" fill="white" style="fill:white;fill-opacity:1;"/>
<path d="M168.313 46.2001C168.041 43.7421 166.222 41.7001 164.18 40.2559C160.173 37.4297 154.96 36.3107 150.122 37.2479C147.384 37.7788 144.787 38.9647 142.575 40.6385C142.215 40.5093 141.845 40.4041 141.476 40.3181C136.457 39.1178 131.001 39.749 126.401 42.0588C123.119 38.6826 118.135 36.9945 113.437 37.6688C116.088 34.9717 116.559 30.4526 114.517 27.282C112.47 24.1163 108.113 22.6099 104.505 23.8198C104.685 19.7024 104.48 14.8007 100.955 12.5722C98.7666 11.195 95.8636 11.3576 93.4711 12.3523C91.0787 13.3469 89.085 15.0685 87.1399 16.7662C88.0346 11.831 85.4331 6.57546 81.1491 3.85922C78.7712 2.35286 75.9654 1.60685 73.1305 1.57816C75.2506 2.49632 77.1228 3.96443 78.4017 5.8725C81.4214 10.382 80.8622 16.8953 77.1082 20.8357C80.5315 19.9702 84.4557 21.9261 85.7735 25.1492C85.8999 24.5227 86.2549 23.9585 86.6828 23.4755C88.9245 20.9601 93.1697 20.8836 95.9949 22.7486C98.8201 24.6088 100.347 27.9467 100.789 31.2655C97.8281 29.1805 93.4225 29.367 90.6508 31.6959C93.724 31.8442 96.6611 33.6135 98.1928 36.2341C99.4099 38.3163 99.7022 40.8838 99.0627 43.1969C98.4491 45.3455 95.706 45.95 95.706 45.95C99.2743 46.0638 101.013 44.0132 101.013 44.0132L101.012 44.0127C102.209 43.1175 103.005 41.6767 102.91 40.1942C106.527 42.0258 109.095 45.7223 109.513 49.6963C112.484 48.0895 116.525 48.7207 118.845 51.1548C115.081 51.3796 111.322 51.7382 107.573 52.1878C108.244 52.4173 98.8298 54.1245 93.7434 55.8556C94.3318 55.9465 94.9202 56.0326 95.5086 56.1091C95.8247 56.133 96.1262 56.1473 96.4228 56.1426C105.701 56.0134 115.13 54.8084 124.349 53.8041C125.73 53.6559 127.184 53.4741 128.312 52.6708C129.329 51.9439 129.941 50.8105 130.69 49.8158C132.815 46.9992 136.38 45.2011 139.939 45.4593C143.494 45.7128 146.868 48.1612 147.885 51.523C150.681 49.9689 154.459 50.1793 156.895 52.2308C157.775 52.972 158.432 53.9476 158.835 55.014C160.387 54.8036 161.899 54.4306 163.314 53.7659C166.255 52.3786 168.667 49.3897 168.313 46.2001Z" fill="white" style="fill:white;fill-opacity:1;"/>
<path d="M102.429 25.6021L104.094 22.9418L104.301 23.0676L104.065 23.4458C105.832 20.8706 106.22 17.3524 104.919 14.5162C103.384 11.1673 99.5699 8.92588 95.8378 9.18173C92.1111 9.43948 88.6493 12.1873 87.6063 15.7155L87.3685 15.6696C87.7137 12.436 87.5873 10.0334 86.9585 7.88003C86.1606 5.14753 84.463 2.94345 82.3011 1.83352C79.8541 0.577263 76.7639 0.88045 74.9526 2.55515L74.7858 2.38108C76.6696 0.639433 79.8775 0.320467 82.4134 1.62168C84.6342 2.76174 86.3755 5.01889 87.1919 7.81452C87.7657 9.77997 87.9277 11.9448 87.7001 14.7381C89.0529 11.5642 92.3226 9.18555 95.8203 8.94358C99.6482 8.67769 103.565 10.9812 105.141 14.4186C106.717 17.856 105.876 22.2689 103.142 24.9125L102.429 25.6021Z" fill="white" style="fill:white;fill-opacity:1;"/>
<path d="M128.164 29.8577L128.142 29.6195C128.233 29.6085 128.321 29.5966 128.408 29.5841C128.79 29.5023 129.145 29.2895 129.389 28.9878L129.58 29.137C129.495 29.2417 129.399 29.3369 129.293 29.4215C130.919 29.0476 131.838 28.3604 132.029 27.3714C132.188 26.5484 131.757 25.6073 130.877 24.8541C129.379 23.5725 127.074 23.0905 124.863 23.5955C122.985 24.0244 121.149 25.0985 119.404 26.7866C119.192 26.9917 118.929 27.2466 118.586 27.282C118.336 27.3097 118.101 27.2103 117.893 27.1242L117.835 27.1003C115.741 26.2419 113.161 26.7469 111.558 28.3259L111.386 28.1567C113.056 26.5111 115.748 25.9865 117.928 26.8794L117.987 26.9037C118.185 26.986 118.374 27.0654 118.56 27.0439C118.819 27.0171 119.039 26.8043 119.233 26.6159C121.01 24.8962 122.886 23.8016 124.808 23.3621C127.093 22.8404 129.48 23.342 131.036 24.6738C131.983 25.483 132.443 26.5083 132.268 27.4159C132.023 28.6813 130.739 29.4894 128.449 29.8199C128.356 29.8395 128.26 29.8519 128.164 29.8577Z" fill="white" style="fill:white;fill-opacity:1;"/>
<path d="M122.761 42.0411L122.576 41.8856C125.375 38.6658 129.241 36.4297 133.463 35.59C135.458 35.1931 137.112 35.2175 138.521 35.6612C141.357 36.555 143.214 39.0752 145.021 41.8005L144.818 41.9311C143.036 39.243 141.207 36.7583 138.447 35.8889C137.077 35.457 135.462 35.4355 133.511 35.8238C129.343 36.6535 125.525 38.8614 122.761 42.0411Z" fill="white" style="fill:white;fill-opacity:1;"/>
<path d="M70.1331 51.1797C68.668 51.0883 67.2476 50.6168 66.0261 49.8163C65.7017 49.604 65.3463 49.3343 65.1688 48.945C65.001 48.5782 64.9971 48.1311 65.1566 47.5787C65.7898 45.3885 67.9342 44.1026 69.7305 43.6297C71.7354 43.1017 73.8176 43.2548 75.8361 43.4188C75.7335 41.306 77.8439 39.7791 79.6557 38.8633C80.6317 38.3693 81.6728 37.9523 82.6759 38.2436C83.5045 38.4841 84.0988 39.1727 84.4732 39.6696C85.6446 41.2238 86.3448 43.0936 86.4888 45.0174L86.5744 44.6569L86.8112 44.7114L86.25 47.0733L86.2714 45.9423C86.3132 43.7507 85.6047 41.5734 84.2777 39.8121C83.9237 39.343 83.366 38.6936 82.6069 38.4731C81.6869 38.2053 80.6983 38.6051 79.7671 39.0761C77.9815 39.979 75.8939 41.4858 76.0885 43.5388L76.1016 43.6804L75.9572 43.6689C73.9158 43.5034 71.8049 43.3317 69.7932 43.8616C68.0616 44.3178 65.9959 45.5506 65.3905 47.6447C65.2476 48.1411 65.2476 48.5342 65.391 48.8479C65.5437 49.1817 65.8661 49.4246 66.1613 49.6183C67.3473 50.3954 68.7263 50.8531 70.1492 50.942L70.1331 51.1797Z" fill="white" style="fill:white;fill-opacity:1;"/>
<path d="M29.6347 34.4681L29.5933 34.2323C30.3393 34.1066 30.9593 33.5389 31.253 32.715C31.5914 31.7648 31.4242 30.7242 30.8275 30.0643C29.5841 28.6894 27.2131 28.8993 25.9244 30.0059L25.4591 30.4052L25.7358 29.8624C26.384 28.5894 25.9167 26.843 24.7161 26.0482C23.515 25.2539 21.6939 25.4859 20.7389 26.5556L20.556 26.3978C21.6059 25.2228 23.533 24.9775 24.8517 25.8498C26.0426 26.6379 26.561 28.2207 26.1267 29.5497C27.675 28.5067 29.8588 28.6339 31.0089 29.9055C31.6634 30.6295 31.8496 31.7633 31.4825 32.7944C31.1591 33.7015 30.4681 34.327 29.6347 34.4681Z" fill="white" style="fill:white;fill-opacity:1;"/>
<path d="M165.333 47.0025L165.153 46.8418C166.282 45.6171 166.62 43.6354 166.015 41.7938C165.528 40.3109 164.492 38.8829 162.85 37.4287C159.978 34.8856 156.536 33.3223 153.157 33.0263C149.369 32.6954 145.677 33.9774 143.287 36.4584C143.198 36.5497 143.11 36.644 143.021 36.7391C142.343 37.4617 141.641 38.2087 140.653 38.2747C140.196 38.3048 139.759 38.1752 139.335 38.0499L139.164 38.0002C133.896 36.4809 127.648 38.969 124.942 43.6679L124.73 43.5503C127.49 38.7586 133.861 36.2212 139.232 37.7711L139.405 37.8213C139.808 37.9409 140.225 38.0628 140.636 38.0365C141.528 37.9767 142.196 37.2652 142.843 36.577C142.932 36.4814 143.021 36.3867 143.11 36.2944C145.552 33.7608 149.317 32.4491 153.179 32.7886C156.609 33.0889 160.101 34.6737 163.012 37.2513C164.687 38.7347 165.745 40.1966 166.246 41.7206C166.877 43.6421 166.519 45.7152 165.333 47.0025Z" fill="white" style="fill:white;fill-opacity:1;"/>
<path d="M69.4455 25.6661L69.2107 25.6054C69.7086 23.7461 68.7891 21.5526 67.0239 20.3905C65.4066 19.326 63.195 19.0859 61.1065 19.7478L61.0321 19.5202C63.1902 18.8358 65.481 19.0864 67.1596 20.192C69.0074 21.4096 69.9688 23.7117 69.4455 25.6661Z" fill="white" style="fill:white;fill-opacity:1;"/>
<path d="M102.717 33.2707C101.601 29.9218 97.8086 27.6263 94.2661 28.1529C93.2099 28.3102 92.3862 28.6703 91.8182 29.2236C91.1428 29.8811 90.8856 30.8634 91.1924 31.6118L90.9668 31.7017C90.6186 30.8533 90.8919 29.7893 91.6471 29.0538C92.2525 28.4642 93.1214 28.0816 94.2296 27.9171C97.883 27.3724 101.796 29.7415 102.948 33.1966L102.717 33.2707Z" fill="white" style="fill:white;fill-opacity:1;"/>
<path d="M38.4089 34.2897L38.2795 34.1974C35.3556 32.11 34.1827 28.0567 35.5516 24.7681C35.7023 24.4065 35.926 23.9575 36.3238 23.6935C36.7478 23.4123 37.2783 23.3894 37.7899 23.4037C40.2523 23.4783 42.727 24.2387 44.8019 25.5514C43.6236 22.5023 43.3567 19.9271 43.9849 17.6905C44.6973 15.1555 47.1087 12.5598 50.197 12.7511C52.5977 12.8979 54.7164 14.6529 56.5073 17.9736C55.5888 14.5755 55.4283 11.5857 56.0143 8.86848C56.8137 5.16139 59.2086 2.03197 62.2643 0.701107C65.7338 -0.810519 70.0072 0.19803 71.9931 2.997L71.7937 3.13377C69.8725 0.425178 65.7299 -0.547024 62.3625 0.91965C59.3773 2.22039 57.0359 5.28476 56.2525 8.91821C55.6014 11.9372 55.8864 15.3033 57.1235 19.2079L56.8968 19.293C55.0242 15.2684 52.765 13.1475 50.1824 12.9897C47.3387 12.8147 44.9166 15.2756 44.2198 17.7536C43.5818 20.0242 43.8921 22.6611 45.1675 25.8153L45.3149 26.1802L44.9857 25.9583C42.8855 24.5423 40.3272 23.7198 37.7826 23.6428C37.3138 23.6275 36.8275 23.6486 36.4599 23.892C36.1181 24.1186 35.9226 24.5079 35.7767 24.8584C34.491 27.9467 35.5973 31.8881 38.2936 33.9095L39.2944 31.2693L39.5224 31.353L38.4089 34.2897Z" fill="#E5BBC1" style="fill:#E5BBC1;fill:color(display-p3 0.8980 0.7333 0.7569);fill-opacity:1;"/>
<path d="M5.57159 39.1742C5.06393 39.1742 4.55578 39.1297 4.05054 39.0274C2.20223 38.6534 0.223603 37.2035 0.0174246 35.1543C-0.134778 33.6432 0.717166 32.0024 2.29706 30.7653C3.64256 29.7109 5.17917 29.1389 6.63069 29.18C8.13326 29.213 9.52059 29.9165 10.2991 31.0073C10.3064 29.1733 11.5809 27.4016 13.3718 26.8402C15.3193 26.2295 17.6136 27.1338 18.5929 28.9008L18.3794 29.0151C17.4546 27.3456 15.2877 26.4901 13.4462 27.0683C11.6043 27.6459 10.3404 29.5765 10.569 31.464L10.6482 32.1163L10.3404 31.5333C9.68154 30.2842 8.22371 29.4545 6.62582 29.4191C5.22926 29.3809 3.75003 29.9327 2.44877 30.9523C0.934042 32.1387 0.11565 33.7011 0.260072 35.1309C0.45458 37.0648 2.33887 38.4373 4.09965 38.793C6.00923 39.179 7.97717 38.7132 9.82061 38.1513L9.8921 38.3799C8.50039 38.804 7.03672 39.1737 5.57159 39.1742Z" fill="#E5BBC1" style="fill:#E5BBC1;fill:color(display-p3 0.8980 0.7333 0.7569);fill-opacity:1;"/>
<path d="M139.688 65C139.14 65 138.557 64.9684 137.939 64.9053C135.238 64.6303 132.585 64.0034 130.052 63.0427C129.167 62.7065 128.283 62.3244 127.43 61.9552C126.159 61.4053 124.844 60.8367 123.504 60.4125C120.01 59.3088 116.275 59.1548 112.701 59.9678L112.646 59.7349C116.263 58.9124 120.043 59.0683 123.577 60.1849C124.93 60.6124 126.25 61.1834 127.527 61.7362C128.379 62.1044 129.26 62.4856 130.14 62.8193C132.652 63.7724 135.284 64.3946 137.964 64.6672C141.101 64.9861 143.3 64.4878 144.693 63.1426C147.034 60.8807 146.342 57.0794 145.349 54.2885L145.579 54.2096C146.595 57.066 147.295 60.9639 144.863 63.3133C143.694 64.4433 141.991 65 139.688 65Z" fill="#E5BBC1" style="fill:#E5BBC1;fill:color(display-p3 0.8980 0.7333 0.7569);fill-opacity:1;"/>
<path d="M86.0195 26.6049L85.7876 26.5331C86.605 23.9824 85.3115 20.8941 82.905 19.6493C80.4984 18.4045 77.1782 19.106 75.504 21.2135L75.3124 21.0662C77.0552 18.8717 80.513 18.141 83.0178 19.4374C85.524 20.7339 86.8705 23.9489 86.0195 26.6049Z" fill="#E5BBC1" style="fill:#E5BBC1;fill:color(display-p3 0.8980 0.7333 0.7569);fill-opacity:1;"/>
<path d="M38.7429 56.0173L38.6593 55.7925C41.1208 54.9073 43.5988 53.961 46.0243 52.9801C47.4282 52.4125 48.1119 51.7287 48.0574 50.9482C48.0229 50.4542 47.665 50.02 47.399 49.736C44.726 46.8863 40.3807 46.6391 36.1594 46.63C33.943 46.6266 31.18 46.6195 29.0924 47.9905L28.9981 48.0527L28.9285 47.9637C27.3302 45.9155 25.1959 44.6569 23.0739 44.511C20.5953 44.3389 18.2408 45.8586 17.7069 47.9675L17.4711 47.9097C18.0327 45.6917 20.4981 44.0921 23.0909 44.2724C25.2519 44.4216 27.4192 45.6798 29.0525 47.7308C31.1887 46.3803 33.94 46.3847 36.1603 46.3914C40.4356 46.4004 44.8388 46.6534 47.578 49.5743C47.8692 49.8842 48.2607 50.3624 48.3005 50.932C48.3633 51.8267 47.6285 52.5904 46.1172 53.2016C43.6883 54.1833 41.2073 55.1311 38.7429 56.0173Z" fill="#BF7BA0" style="fill:#BF7BA0;fill:color(display-p3 0.7490 0.4824 0.6275);fill-opacity:1;"/>
<path d="M111.549 50.4366L111.509 50.053C111.333 48.353 111.132 46.4258 110.187 44.8558C109.313 43.4025 107.492 42.1783 105.702 42.6494C105.048 42.821 104.461 43.2074 104.049 43.7363L103.856 43.591C104.3 43.02 104.932 42.6035 105.638 42.4179C107.543 41.9158 109.475 43.2027 110.396 44.7334C111.297 46.2297 111.537 48.0182 111.711 49.6446L112.195 48.7705L112.408 48.8848L111.549 50.4366Z" fill="#BF7BA0" style="fill:#BF7BA0;fill:color(display-p3 0.7490 0.4824 0.6275);fill-opacity:1;"/>
</svg>
