<svg width="169" height="76" viewBox="0 0 169 76" fill="none" xmlns="http://www.w3.org/2000/svg">
<path d="M131.196 53.3755C120.311 56.4786 108.654 52.6613 97.2692 52.3376C89.4945 52.114 81.776 53.543 74.0575 54.4695C63.1613 55.7644 52.151 56.0768 41.1977 55.3846C37.384 55.1389 32.299 53.186 33.1501 49.5355C33.5587 47.7826 35.2956 46.678 36.9415 45.9077C40.2441 44.3566 43.8312 43.374 47.4861 43.0389C43.9792 39.6788 44.7848 33.4613 48.3033 30.1133C51.8218 26.7645 57.1682 25.8942 62.015 26.5416C63.1952 17.2877 70.142 9.28468 78.8365 5.75702C80.891 6.31502 82.8661 7.33092 84.7163 9.00567C88.9841 12.8677 90.5275 19.3642 88.4622 24.7001C93.0253 21.9541 99.3245 23.6622 103.025 27.4461C106.736 31.2414 108.303 36.5878 109.007 41.7895C114.443 38.5522 122.048 39.3339 126.691 43.631C129.403 46.1306 130.969 49.7144 131.196 53.3755Z" fill="#E5BBC1" style="fill:#E5BBC1;fill:color(display-p3 0.8980 0.7333 0.7569);fill-opacity:1;"/>
<path d="M90.849 33.8714C87.433 28.8942 79.6166 27.5492 74.6851 31.0913C72.1657 27.5128 68.1538 25.1595 63.9446 23.8138C63.5152 23.6774 63.0811 23.5545 62.6463 23.4348C62.4629 24.105 62.3164 24.785 62.1946 25.4719C67.3443 27.8828 71.8758 31.3005 74.5687 36.6425C78.7617 32.6265 85.5265 31.4749 90.849 33.8714Z" fill="white" style="fill:white;fill-opacity:1;"/>
<path d="M151.309 32.0556C149.175 31.1512 146.757 31.2293 144.43 31.3187C138.266 31.5538 131.238 33.0291 125.288 32.3005C125.949 31.4309 126.482 30.4855 126.789 29.4294C127.261 27.8017 127.154 26.0579 126.799 24.4014C125.261 17.2407 114.943 7.78279 107.39 13.1899C103.364 8.26346 98.108 4.84119 90.3124 3.88213C86.3738 3.56977 82.4583 4.27258 78.8373 5.75703C80.8918 6.31503 82.8669 7.33094 84.7163 9.00569C88.9841 12.8677 90.5275 19.3643 88.4622 24.7001C93.0253 21.9541 99.3245 23.6622 103.025 27.4461C106.736 31.2414 108.303 36.5878 109.007 41.7895C114.443 38.5522 122.048 39.3339 126.691 43.631C129.404 46.1314 130.969 49.7144 131.197 53.3755C131.423 53.3194 131.662 53.2413 131.889 53.1746C133.796 52.5719 135.703 51.7008 136.906 50.1382C138.11 48.5643 138.359 46.1534 137.009 44.7137C142.037 45.3498 147.304 44.1557 151.538 41.3983C153.025 40.4385 154.489 39.1436 154.806 37.4135C155.213 35.1588 153.454 32.9707 151.309 32.0556Z" fill="white" style="fill:white;fill-opacity:1;"/>
<path d="M166.538 66.5188C166.459 67.0495 166.264 67.5802 165.851 67.9274C165.43 68.2746 164.851 68.3709 164.311 68.4483C157.433 69.4323 150.518 69.8084 143.572 69.8956C142.444 66.9433 139.972 64.493 136.941 63.4316C133.311 62.1678 129.024 62.9684 126.12 65.4384C126.139 63.2292 124.463 61.1162 122.275 60.5855C120.048 60.0548 117.821 61.2026 116.615 63.0267C116.056 59.4187 114.869 57.1898 113.142 55.9456C114.986 55.6462 116.918 55.888 118.616 56.6598C118.371 53.9388 120.176 51.305 122.609 49.9836C127.691 47.205 134.116 49.2603 138.629 52.2125C142.975 55.0389 146.85 60.0654 152.697 59.3421C154.943 59.0624 157.19 59.0336 159.417 59.4672C161.242 59.8243 163.067 60.4612 164.469 61.6575C165.881 62.8622 166.813 64.7053 166.538 66.5188Z" fill="white" style="fill:white;fill-opacity:1;"/>
<path d="M143.572 69.8956C125.826 70.1366 107.932 68.5832 90.371 71.1306C89.4883 71.2557 88.5663 71.4005 87.7029 71.1306C86.8495 70.8607 86.0939 70.0502 86.2312 69.1821C86.2998 68.7189 86.5943 68.3232 86.9081 67.9661C89.0566 65.5733 92.343 64.3967 95.5802 64.117C98.808 63.8471 102.055 64.3778 105.263 64.9176C105.302 61.8402 107.009 58.8493 109.648 57.2087C110.707 56.562 111.904 56.1284 113.14 55.9449C114.867 57.1898 116.054 59.418 116.613 63.026C117.82 61.2026 120.047 60.0548 122.273 60.5847C124.461 61.1154 126.139 63.2284 126.119 65.4376C129.023 62.9676 133.31 62.167 136.939 63.4308C139.972 64.493 142.445 66.9433 143.572 69.8956Z" fill="#E5BBC1" style="fill:#E5BBC1;fill:color(display-p3 0.8980 0.7333 0.7569);fill-opacity:1;"/>
<path d="M22.2369 35.9783C18.6028 37.8798 16.7996 42.8608 18.9219 46.3293C13.702 43.5552 6.23564 46.7508 4.74313 52.399C4.49336 53.3437 4.50801 54.5696 5.37915 55.0374C5.7731 55.2489 6.24567 55.2103 6.69434 55.2269C37.4025 56.4127 47.3782 55.7978 57.3162 55.9055C58.1549 54.2641 57.7117 52.1094 56.3448 50.857C54.978 49.6053 52.8217 49.3073 51.1203 50.0662C50.4496 50.3657 49.7928 50.8221 49.0581 50.7667C47.9603 50.6841 47.3273 49.5575 46.6196 48.7273C43.8104 45.4332 40.2117 46.9381 37.293 48.7925C36.6848 44.9139 37.68 42.0662 34.6179 38.6781C31.6291 35.3703 26.3698 33.8161 22.2369 35.9783Z" fill="#BF7BA0" style="fill:#BF7BA0;fill:color(display-p3 0.7490 0.4824 0.6275);fill-opacity:1;"/>
<path d="M162.851 39.9123L162.465 39.8903C162.849 33.2876 156.142 27.8942 149.638 26.9996C142.77 26.0511 135.923 28.5704 129.878 30.7888L129.555 30.9071L129.621 30.5742C130.856 24.3521 128.822 17.9624 124.441 14.296C119.626 10.2665 112.194 10.1467 107.873 14.0292L107.585 14.2877L107.551 13.9056C107.031 8.07846 102.705 2.78281 97.031 1.02618C91.3593 -0.730445 84.7271 1.17326 80.9064 5.65619L80.6111 5.41282C84.5297 0.815414 91.3301 -1.13757 97.1467 0.665306C102.845 2.42951 107.217 7.67514 107.896 13.503C112.391 9.74867 119.836 9.94503 124.69 14.0072C129.098 17.6963 131.186 24.0663 130.06 30.3157C136.071 28.1118 142.849 25.6811 149.69 26.6228C156.338 27.5378 163.259 32.8782 162.851 39.9123Z" fill="white" style="fill:white;fill-opacity:1;"/>
<path d="M163.874 65.6916C163.105 65.6916 162.344 65.6143 161.63 65.5415L161.67 65.1639C163.054 65.3057 164.623 65.4657 166.025 65.0214C167.257 64.631 168.592 63.5423 168.614 62.0715C168.625 61.3861 168.343 60.6476 167.775 59.8781C165.68 57.0396 161.893 56.1837 159.085 55.9653C155.666 55.7 152.143 56.1268 148.893 57.2034L148.731 57.2564L148.657 57.1048C147.126 53.9259 144.137 51.5264 140.662 50.6871C137.186 49.8448 133.409 50.6113 130.553 52.728L130.321 52.4263C133.27 50.2391 137.171 49.4506 140.754 50.3186C144.284 51.1723 147.328 53.5855 148.931 56.791C152.184 55.7379 155.702 55.3194 159.114 55.5878C162.004 55.8122 165.905 56.7007 168.087 59.656C168.704 60.493 169.011 61.3072 169 62.0768C168.974 63.7341 167.501 64.9517 166.143 65.3815C165.406 65.615 164.637 65.6916 163.874 65.6916Z" fill="white" style="fill:white;fill-opacity:1;"/>
<path d="M75.9709 32.3392L76.0326 32.0473C76.6964 28.9116 75.1684 25.4143 72.3985 23.7312C69.6285 22.0458 65.7639 22.2657 63.2098 24.2513L62.9701 23.9533C65.6483 21.8737 69.6979 21.644 72.6012 23.409C75.4182 25.1209 77.0101 28.625 76.4651 31.835L77.8034 31.5257L77.8921 31.8942L75.9709 32.3392Z" fill="white" style="fill:white;fill-opacity:1;"/>
<path d="M130.224 35.691L129.947 35.4279L131.475 33.7077C133.414 31.0405 134.459 27.3188 134.656 22.4143C134.771 19.5584 134.677 15.8965 132.913 12.9041C131.002 9.66303 127.213 7.39466 122.519 6.68124C115.504 5.61377 108.155 8.13764 103.342 13.2688L103.059 13.0118C107.958 7.78966 115.432 5.21802 122.578 6.30596C127.388 7.03757 131.275 9.37342 133.245 12.7138C135.06 15.7911 135.158 19.5227 135.041 22.4295C134.844 27.2953 133.821 31.0238 131.925 33.7365L131.945 33.7532L131.778 33.942C131.312 34.5833 130.794 35.1649 130.224 35.691Z" fill="white" style="fill:white;fill-opacity:1;"/>
<path d="M141.213 67.9638L140.829 67.9297C141.067 65.3785 139.881 62.728 137.808 61.1761C135.734 59.6249 132.819 59.2064 130.383 60.1124C130.261 60.1579 130.137 60.2064 130.012 60.2557C129.203 60.5718 128.29 60.9297 127.448 60.5612C127.082 60.3997 126.802 60.126 126.532 59.8614C126.446 59.7773 126.358 59.6916 126.27 59.612C124.694 58.1875 121.916 58.0828 119.801 59.3656C118.06 60.4232 116.678 62.2746 115.693 64.8713L115.331 64.7379C116.347 62.0616 117.783 60.145 119.599 59.0427C121.563 57.8509 124.576 57.5673 126.53 59.333C126.622 59.4164 126.712 59.5051 126.803 59.5931C127.059 59.8448 127.301 60.0828 127.604 60.2147C128.293 60.5195 129.094 60.2057 129.868 59.9032C129.995 59.8539 130.121 59.8038 130.246 59.7576C132.804 58.8076 135.864 59.2474 138.039 60.8751C140.217 62.5036 141.462 65.2868 141.213 67.9638Z" fill="#E5BBC1" style="fill:#E5BBC1;fill:color(display-p3 0.8980 0.7333 0.7569);fill-opacity:1;"/>
<path d="M132.548 47.6325C131.928 42.9965 128.102 38.929 123.451 37.9616C119.859 37.2156 113.078 37.1352 109.936 39.3339C109.522 39.6235 109.187 39.9442 108.932 40.2944C108.706 41.5742 108.404 42.7524 108.086 43.7842L107.711 43.7053L107.969 41.6925C108.041 41.1307 108.241 40.6136 108.566 40.1443C109.107 37.0147 109.174 33.2846 107.847 29.6357C106.124 24.8988 102.134 21.293 97.6825 20.4499C92.757 19.5174 87.5587 22.2672 86.0855 26.5758L85.7193 26.4545C87.2527 21.9715 92.6561 19.1126 97.7542 20.0777C102.337 20.9458 106.442 24.647 108.21 29.5083C109.475 32.9859 109.498 36.5295 109.047 39.575C109.244 39.3816 109.465 39.1982 109.712 39.0246C112.947 36.7607 119.868 36.8297 123.53 37.5909C127.886 38.4961 131.541 42.0321 132.665 46.2535L133.022 46.2762L132.931 47.6197L132.548 47.6325Z" fill="#E5BBC1" style="fill:#E5BBC1;fill:color(display-p3 0.8980 0.7333 0.7569);fill-opacity:1;"/>
<path d="M42.9339 45.2042C41.4776 41.1807 41.2656 36.6872 42.338 32.55C43.425 28.3476 46.6505 24.2331 50.7857 24.2331C50.9214 24.2331 51.0571 24.2369 51.1943 24.2467C55.0073 24.4954 57.6176 28.0071 59.4655 31.0382L59.134 31.2338C57.3347 28.2808 54.803 24.8623 51.1681 24.6243C47.0568 24.3635 43.7942 28.4552 42.7103 32.6432C41.6572 36.7084 41.8654 41.1246 43.2962 45.0769L42.9339 45.2042Z" fill="#E5BBC1" style="fill:#E5BBC1;fill:color(display-p3 0.8980 0.7333 0.7569);fill-opacity:1;"/>
<path d="M86.8641 75.4952C85.4387 75.4952 84.0225 75.3573 82.6279 75.0078C81.5972 74.7492 80.9943 74.3315 80.7823 73.7295C80.5903 73.1837 80.7746 72.5984 80.9812 72.098C83.6401 65.6249 91.6407 61.8304 98.4472 63.8016L98.3385 64.1655C91.7063 62.2413 83.9261 65.9403 81.3374 72.2398C81.1492 72.6977 80.9958 73.1791 81.1462 73.6052C81.3119 74.0775 81.8277 74.4156 82.7219 74.6401C86.6976 75.634 90.8945 74.8698 94.9542 74.1283C95.5131 74.026 96.0689 73.9251 96.624 73.8281C106.035 72.1821 115.62 71.9145 125.113 73.0313L125.068 73.4073C115.612 72.2951 106.065 72.5627 96.6911 74.2011C96.1368 74.2981 95.5809 74.3997 95.0243 74.5013C92.3353 74.9933 89.5839 75.4952 86.8641 75.4952Z" fill="#E5BBC1" style="fill:#E5BBC1;fill:color(display-p3 0.8980 0.7333 0.7569);fill-opacity:1;"/>
<path d="M8.83668 52.5075C7.90387 52.5075 6.97337 52.4263 6.06291 52.2618C4.62437 52.0025 3.74706 51.4445 3.45488 50.6015C3.2529 50.0192 3.38397 49.3937 3.51965 48.9146C4.7778 44.4832 9.80573 41.5075 14.3727 42.4339C14.2046 38.5757 15.4327 33.5955 19.4716 31.8858C21.1252 31.1861 23.1211 31.1004 25.403 31.6311C29.3455 32.55 32.8124 35.0405 34.6765 38.2945C36.6554 41.7478 36.7896 46.1337 35.018 49.4688L34.6765 49.2929C36.3894 46.0693 36.2576 41.8244 34.3411 38.481C32.5287 35.3172 29.1544 32.8942 25.3144 31.9995C23.1157 31.4878 21.2007 31.5674 19.6234 32.2338C15.6802 33.9025 14.5446 38.8941 14.7705 42.6621L14.7859 42.9169L14.533 42.8578C10.0948 41.8108 5.11854 44.691 3.89123 49.0169C3.76943 49.4438 3.65225 49.9949 3.81877 50.4794C4.06238 51.183 4.84024 51.6576 6.13154 51.8888C8.91457 52.3922 11.8926 52.0973 14.5168 51.0609L14.6602 51.4134C12.8285 52.1367 10.828 52.5075 8.83668 52.5075Z" fill="#BF7BA0" style="fill:#BF7BA0;fill:color(display-p3 0.7490 0.4824 0.6275);fill-opacity:1;"/>
<path d="M60.7344 57.0593C60.6265 57.0593 60.5194 57.0525 60.4114 57.0404L59.3584 56.9176L62.126 56.2489C62.3002 56.1359 62.4667 56.0002 62.6255 55.844C63.4203 55.0601 63.8497 53.8751 63.7202 52.8251C63.4419 50.5726 61.4167 48.9669 60.2341 48.2103C56.9292 46.0935 51.8997 45.6636 49.5376 48.6538L49.4081 48.8183L49.2539 48.6757C47.2818 46.863 44.0625 47.3384 42.0334 48.7076C39.7877 50.2231 38.3877 52.6674 37.1519 54.8228L36.8158 54.6363C38.01 52.5529 39.4955 49.96 41.8145 48.3945C43.916 46.9767 47.2333 46.4741 49.3626 48.2626C51.9359 45.2315 56.9785 45.675 60.4446 47.8911C61.9571 48.8592 63.8204 50.4938 64.1026 52.7781C64.246 53.9388 63.7734 55.2474 62.8976 56.1109C62.7535 56.2519 62.6032 56.3785 62.4474 56.49L62.4636 56.5567L62.2809 56.6007C61.8006 56.9016 61.2725 57.0593 60.7344 57.0593Z" fill="#BF7BA0" style="fill:#BF7BA0;fill:color(display-p3 0.7490 0.4824 0.6275);fill-opacity:1;"/>
<path d="M4.03311 54.4134C3.73862 54.4134 3.43641 54.3603 3.1319 54.2534C2.10889 53.8948 1.12366 52.9434 0.621791 51.8304C-0.469064 49.4112 -0.100567 46.3748 1.53841 44.2755C3.13114 42.2361 5.90492 41.1064 8.49754 41.4248C8.49677 37.7842 11.2929 34.2505 15.0912 33.1421C18.6267 32.1072 22.8775 33.1353 25.9242 35.7562C28.6502 38.1042 30.495 41.6257 31.1171 45.675L30.7363 45.7311C30.1273 41.7705 28.328 38.3293 25.6698 36.042C22.7226 33.5045 18.6128 32.5121 15.2015 33.5045C11.4879 34.5894 8.77274 38.0852 8.88761 41.6371L8.89533 41.8661L8.66481 41.8304C6.14235 41.4362 3.40096 42.5135 1.84447 44.5059C0.288751 46.4984 -0.0612457 49.3801 0.974103 51.6757C1.43511 52.6992 2.33322 53.5704 3.26141 53.8956C3.85117 54.1026 4.4047 54.0791 4.90426 53.8296L5.07925 54.167C4.75084 54.3315 4.39776 54.4134 4.03311 54.4134Z" fill="#BF7BA0" style="fill:#BF7BA0;fill:color(display-p3 0.7490 0.4824 0.6275);fill-opacity:1;"/>
</svg>
