<svg width="20" height="18" viewBox="0 0 20 18" fill="none" xmlns="http://www.w3.org/2000/svg">
<path id="Vector" d="M18.1659 0.817261H1.68928C1.29202 0.817261 0.911029 0.974509 0.630123 1.25441C0.349218 1.53432 0.191406 1.91395 0.191406 2.3098V15.7426C0.191406 16.1385 0.349218 16.5181 0.630123 16.798C0.911029 17.0779 1.29202 17.2351 1.68928 17.2351H18.1659C18.5632 17.2351 18.9442 17.0779 19.2251 16.798C19.506 16.5181 19.6638 16.1385 19.6638 15.7426V2.3098C19.6638 1.91395 19.506 1.53432 19.2251 1.25441C18.9442 0.974509 18.5632 0.817261 18.1659 0.817261ZM6.63227 10.668C6.79117 10.7867 6.89622 10.9635 6.92431 11.1595C6.95241 11.3554 6.90123 11.5544 6.78205 11.7128C6.66288 11.8711 6.48545 11.9758 6.28882 12.0038C6.09219 12.0318 5.89245 11.9808 5.73354 11.862L2.73779 9.62321C2.64478 9.5537 2.56928 9.46356 2.51729 9.35994C2.46529 9.25632 2.43822 9.14205 2.43822 9.0262C2.43822 8.91035 2.46529 8.79608 2.51729 8.69246C2.56928 8.58884 2.64478 8.4987 2.73779 8.42919L5.73354 6.19038C5.89245 6.07163 6.09219 6.02064 6.28882 6.04863C6.48545 6.07662 6.66288 6.1813 6.78205 6.33964C6.90123 6.49798 6.95241 6.697 6.92431 6.89294C6.89622 7.08887 6.79117 7.26566 6.63227 7.38441L4.43507 9.0262L6.63227 10.668ZM12.1454 4.00755L9.14963 14.4553C9.1241 14.5512 9.07963 14.6411 9.01884 14.7196C8.95804 14.7982 8.88212 14.8639 8.79554 14.9129C8.70895 14.9619 8.61343 14.9932 8.51457 15.0049C8.4157 15.0167 8.31547 15.0087 8.21974 14.9814C8.12401 14.9541 8.0347 14.9081 7.95704 14.846C7.87938 14.7839 7.81492 14.707 7.76744 14.6198C7.71996 14.5326 7.6904 14.4368 7.68051 14.3381C7.67061 14.2394 7.68057 14.1397 7.7098 14.0448L10.7055 3.59711C10.7631 3.41029 10.892 3.25344 11.0643 3.16025C11.2367 3.06705 11.4389 3.04496 11.6275 3.09871C11.816 3.15246 11.9759 3.27777 12.0728 3.44771C12.1696 3.61765 12.1957 3.81866 12.1454 4.00755ZM17.1174 9.62321L14.1216 11.862C13.9627 11.9808 13.763 12.0318 13.5664 12.0038C13.3697 11.9758 13.1923 11.8711 13.0731 11.7128C12.9539 11.5544 12.9028 11.3554 12.9309 11.1595C12.959 10.9635 13.064 10.7867 13.2229 10.668L15.4201 9.0262L13.2229 7.38441C13.1442 7.32561 13.0779 7.25195 13.0278 7.16762C12.9777 7.08329 12.9448 6.98995 12.9309 6.89294C12.917 6.79592 12.9224 6.69712 12.9468 6.60219C12.9712 6.50725 13.0141 6.41804 13.0731 6.33964C13.1321 6.26124 13.2061 6.19519 13.2907 6.14525C13.3753 6.09532 13.469 6.06249 13.5664 6.04863C13.6637 6.03477 13.7629 6.04016 13.8581 6.06448C13.9534 6.0888 14.043 6.13158 14.1216 6.19038L17.1174 8.42919C17.2104 8.4987 17.2859 8.58884 17.3379 8.69246C17.3899 8.79608 17.417 8.91035 17.417 9.0262C17.417 9.14205 17.3899 9.25632 17.3379 9.35994C17.2859 9.46356 17.2104 9.5537 17.1174 9.62321Z" fill="black" style="fill:black;fill-opacity:1;"/>
</svg>
