<svg width="36" height="31" viewBox="0 0 36 31" fill="none" xmlns="http://www.w3.org/2000/svg">
<path id="Vector" d="M32.7792 0.40332H2.78621C2.06306 0.40332 1.36953 0.689566 0.858184 1.19909C0.34684 1.70861 0.0595703 2.39967 0.0595703 3.12024V27.5725C0.0595703 28.2931 0.34684 28.9841 0.858184 29.4936C1.36953 30.0032 2.06306 30.2894 2.78621 30.2894H32.7792C33.5024 30.2894 34.1959 30.0032 34.7072 29.4936C35.2186 28.9841 35.5058 28.2931 35.5058 27.5725V3.12024C35.5058 2.39967 35.2186 1.70861 34.7072 1.19909C34.1959 0.689566 33.5024 0.40332 32.7792 0.40332ZM11.7841 18.335C12.0734 18.5511 12.2646 18.873 12.3157 19.2296C12.3669 19.5863 12.2737 19.9486 12.0568 20.2368C11.8398 20.525 11.5169 20.7156 11.1589 20.7665C10.801 20.8175 10.4374 20.7247 10.1481 20.5085L4.69485 16.4331C4.52553 16.3066 4.38811 16.1425 4.29345 15.9539C4.1988 15.7653 4.14953 15.5573 4.14953 15.3464C4.14953 15.1355 4.1988 14.9275 4.29345 14.7388C4.38811 14.5502 4.52553 14.3861 4.69485 14.2596L10.1481 10.1842C10.4374 9.96805 10.801 9.87523 11.1589 9.92618C11.5169 9.97713 11.8398 10.1677 12.0568 10.4559C12.2737 10.7441 12.3669 11.1064 12.3157 11.4631C12.2646 11.8198 12.0734 12.1416 11.7841 12.3578L7.78447 15.3464L11.7841 18.335ZM21.8198 6.21073L16.3666 25.2291C16.3201 25.4037 16.2391 25.5673 16.1285 25.7103C16.0178 25.8533 15.8796 25.9729 15.722 26.0621C15.5644 26.1513 15.3905 26.2083 15.2105 26.2297C15.0306 26.2511 14.8481 26.2365 14.6738 26.1869C14.4996 26.1372 14.337 26.0534 14.1956 25.9404C14.0543 25.8273 13.9369 25.6874 13.8505 25.5286C13.7641 25.3699 13.7103 25.1955 13.6923 25.0158C13.6742 24.8361 13.6924 24.6546 13.7456 24.482L19.1989 5.46358C19.3037 5.12351 19.5382 4.83799 19.852 4.66834C20.1658 4.4987 20.5338 4.45848 20.8771 4.55633C21.2203 4.65418 21.5114 4.88228 21.6876 5.19163C21.8639 5.50098 21.9114 5.86688 21.8198 6.21073ZM30.8706 16.4331L25.4173 20.5085C25.128 20.7247 24.7644 20.8175 24.4065 20.7665C24.0486 20.7156 23.7256 20.525 23.5086 20.2368C23.2917 19.9486 23.1985 19.5863 23.2497 19.2296C23.3008 18.873 23.492 18.5511 23.7813 18.335L27.7809 15.3464L23.7813 12.3578C23.6381 12.2507 23.5174 12.1166 23.4262 11.9631C23.335 11.8096 23.275 11.6397 23.2497 11.4631C23.2244 11.2865 23.2342 11.1067 23.2786 10.9338C23.3231 10.761 23.4012 10.5986 23.5086 10.4559C23.6161 10.3132 23.7506 10.193 23.9047 10.1021C24.0588 10.0112 24.2293 9.95141 24.4065 9.92618C24.5837 9.90095 24.7642 9.91075 24.9376 9.95503C25.1111 9.9993 25.2741 10.0772 25.4173 10.1842L30.8706 14.2596C31.0399 14.3861 31.1773 14.5502 31.272 14.7388C31.3666 14.9275 31.4159 15.1355 31.4159 15.3464C31.4159 15.5573 31.3666 15.7653 31.272 15.9539C31.1773 16.1425 31.0399 16.3066 30.8706 16.4331Z" fill="black" style="fill:black;fill-opacity:1;"/>
</svg>
