<svg width="43" height="31" viewBox="0 0 43 31" fill="none" xmlns="http://www.w3.org/2000/svg">
<path id="Vector" d="M7.10891 21.3152L4.22297 17.95C4.58944 17.3624 4.84139 16.762 4.97881 16.1488C5.11624 15.5356 5.18495 14.9074 5.18495 14.2643C5.18495 13.6233 5.11624 12.9962 4.97881 12.383C4.84139 11.7698 4.58944 11.1951 4.22297 10.6588L7.10891 7.21345C7.84184 8.22835 8.39154 9.35008 8.75801 10.5786C9.12448 11.8072 9.30771 13.0358 9.30771 14.2643C9.30771 15.4929 9.12448 16.7086 8.75801 17.9115C8.39154 19.1145 7.84184 20.249 7.10891 21.3152ZM12.9495 28.2058L9.99484 24.7605C11.1401 23.2649 11.9994 21.609 12.5729 19.7928C13.1465 17.9767 13.4323 16.1339 13.4305 14.2643C13.4305 12.3948 13.1446 10.5658 12.5729 8.77747C12.0013 6.98911 11.1419 5.34604 9.99484 3.84827L12.9495 0.402954C14.507 2.37933 15.6641 4.55656 16.4209 6.93462C17.1776 9.31269 17.5551 11.7559 17.5532 14.2643C17.5532 16.7749 17.1749 19.232 16.4181 21.6357C15.6614 24.0394 14.5051 26.2294 12.9495 28.2058ZM-7.18334 17.4693C-8.69501 17.4693 -9.98865 16.8422 -11.0642 15.588C-12.1398 14.3338 -12.6785 12.8242 -12.6804 11.0594C-12.6804 9.29667 -12.1416 7.78821 -11.0642 6.53401C-9.98681 5.27981 -8.69318 4.65164 -7.18334 4.6495C-5.67166 4.6495 -4.37711 5.27767 -3.29969 6.53401C-2.22228 7.79034 -1.68449 9.2988 -1.68632 11.0594C-1.68632 12.8221 -2.22411 14.3316 -3.29969 15.588C-4.37528 16.8443 -5.66982 17.4714 -7.18334 17.4693ZM-18.1774 30.289V28.4462C-18.1774 27.1642 -17.8796 25.9891 -17.2841 24.9208C-16.6886 23.8524 -15.864 23.0512 -14.8104 22.517C-13.6194 21.9295 -12.3936 21.4754 -11.1329 21.1549C-9.87229 20.8345 -8.55576 20.6742 -7.18334 20.6742C-5.80908 20.6742 -4.49163 20.8345 -3.23098 21.1549C-1.97033 21.4754 -0.745413 21.9295 0.443775 22.517C1.49737 23.0512 2.32192 23.8524 2.91743 24.9208C3.51294 25.9891 3.8107 27.1642 3.8107 28.4462V30.289H-18.1774ZM31.2958 17.4693C29.7841 17.4693 28.4905 16.8422 27.4149 15.588C26.3393 14.3338 25.8006 12.8242 25.7988 11.0594C25.7988 9.29667 26.3375 7.78821 27.4149 6.53401C28.4923 5.27981 29.7859 4.65164 31.2958 4.6495C32.8075 4.6495 34.102 5.27767 35.1794 6.53401C36.2568 7.79034 36.7946 9.2988 36.7928 11.0594C36.7928 12.8221 36.255 14.3316 35.1794 15.588C34.1038 16.8443 32.8093 17.4714 31.2958 17.4693ZM20.3017 30.289V28.4462C20.3017 27.1642 20.5995 25.9891 21.195 24.9208C21.7905 23.8524 22.6151 23.0512 23.6687 22.517C24.8597 21.9295 26.0846 21.4754 27.3434 21.1549C28.6022 20.8345 29.9197 20.6742 31.2958 20.6742C32.67 20.6742 33.9866 20.8345 35.2454 21.1549C36.5042 21.4754 37.73 21.9295 38.9229 22.517C39.9765 23.0512 40.801 23.8524 41.3965 24.9208C41.9921 25.9891 42.2898 27.1642 42.2898 28.4462V30.289H20.3017Z" fill="black" style="fill:black;fill-opacity:1;"/>
</svg>
