<svg width="62" height="31" viewBox="0 0 62 31" fill="none" xmlns="http://www.w3.org/2000/svg">
<path id="Vector" d="M26.1085 21.3156L23.2226 17.9504C23.5891 17.3628 23.841 16.7624 23.9784 16.1492C24.1159 15.536 24.1846 14.9078 24.1846 14.2647C24.1846 13.6237 24.1159 12.9966 23.9784 12.3834C23.841 11.7702 23.5891 11.1954 23.2226 10.6591L26.1085 7.21382C26.8415 8.22872 27.3912 9.35045 27.7576 10.579C28.1241 11.8076 28.3073 13.0361 28.3073 14.2647C28.3073 15.4933 28.1241 16.709 27.7576 17.9119C27.3912 19.1148 26.8415 20.2494 26.1085 21.3156ZM31.9491 28.2062L28.9945 24.7609C30.1397 23.2652 30.9991 21.6093 31.5726 19.7932C32.1461 17.9771 32.4319 16.1342 32.4301 14.2647C32.4301 12.3951 32.1443 10.5662 31.5726 8.77783C31.0009 6.98947 30.1415 5.34641 28.9945 3.84863L31.9491 0.40332C33.5066 2.3797 34.6637 4.55692 35.4205 6.93499C36.1772 9.31306 36.5547 11.7563 36.5529 14.2647C36.5529 16.7752 36.1745 19.2323 35.4177 21.6361C34.661 24.0398 33.5048 26.2298 31.9491 28.2062ZM11.8163 17.4696C10.3046 17.4696 9.01099 16.8425 7.93541 15.5883C6.85982 14.3341 6.32111 12.8246 6.31928 11.0597C6.31928 9.29703 6.85799 7.78857 7.93541 6.53437C9.01282 5.28017 10.3065 4.652 11.8163 4.64987C13.328 4.64987 14.6225 5.27804 15.6999 6.53437C16.7774 7.79071 17.3151 9.29917 17.3133 11.0597C17.3133 12.8225 16.7755 14.332 15.6999 15.5883C14.6244 16.8447 13.3298 17.4718 11.8163 17.4696ZM0.822266 30.2894V28.4466C0.822266 27.1646 1.12002 25.9894 1.71553 24.9211C2.31104 23.8528 3.13559 23.0516 4.18919 22.5174C5.38021 21.9298 6.60604 21.4758 7.86669 21.1553C9.12734 20.8348 10.4439 20.6746 11.8163 20.6746C13.1906 20.6746 14.508 20.8348 15.7687 21.1553C17.0293 21.4758 18.2542 21.9298 19.4434 22.5174C20.497 23.0516 21.3216 23.8528 21.9171 24.9211C22.5126 25.9894 22.8103 27.1646 22.8103 28.4466V30.2894H0.822266ZM50.2954 17.4696C48.7837 17.4696 47.4901 16.8425 46.4145 15.5883C45.3389 14.3341 44.8002 12.8246 44.7984 11.0597C44.7984 9.29703 45.3371 7.78857 46.4145 6.53437C47.4919 5.28017 48.7856 4.652 50.2954 4.64987C51.8071 4.64987 53.1016 5.27804 54.1791 6.53437C55.2565 7.79071 55.7943 9.29917 55.7924 11.0597C55.7924 12.8225 55.2546 14.332 54.1791 15.5883C53.1035 16.8447 51.8089 17.4718 50.2954 17.4696ZM39.3014 30.2894V28.4466C39.3014 27.1646 39.5991 25.9894 40.1946 24.9211C40.7902 23.8528 41.6147 23.0516 42.6683 22.5174C43.8593 21.9298 45.0842 21.4758 46.3431 21.1553C47.6019 20.8348 48.9193 20.6746 50.2954 20.6746C51.6697 20.6746 52.9862 20.8348 54.245 21.1553C55.5038 21.4758 56.7297 21.9298 57.9225 22.5174C58.9761 23.0516 59.8007 23.8528 60.3962 24.9211C60.9917 25.9894 61.2894 27.1646 61.2894 28.4466V30.2894H39.3014Z" fill="black" style="fill:black;fill-opacity:1;"/>
</svg>
