<svg width="62" height="61" viewBox="0 0 62 61" fill="none" xmlns="http://www.w3.org/2000/svg">
<g id="Group 386">
<g id="Group">
<path id="Vector" d="M48.6629 39.065C47.4671 42.9294 45.285 46.2003 42.4681 48.7008C37.0644 53.5038 29.3645 55.4441 21.9523 53.1504C10.6945 49.6664 4.38011 37.7065 7.86685 26.4398C8.85317 23.2543 10.5093 20.4652 12.642 18.1896C15.1901 15.468 18.3972 13.4657 21.9217 12.3643C25.9065 11.1181 30.2978 11.03 34.5784 12.3544C39.519 13.8838 43.5191 17.045 46.1409 21.0694C48.413 24.5589 49.6645 28.6849 49.6187 32.9349C49.6142 34.3915 49.4478 35.857 49.1143 37.3208C48.9911 37.907 48.8418 38.486 48.6629 39.065Z" fill="#FF77A1" style="fill:#FF77A1;fill:color(display-p3 1.0000 0.4667 0.6314);fill-opacity:1;"/>
<g id="Group_2" opacity="0.42">
<path id="Vector_2" d="M45.4861 32.8956C45.736 32.8425 45.8547 32.8551 48.4127 32.9037C48.8442 32.9117 49.2452 32.9225 49.6184 32.9351C49.6642 28.685 48.4127 24.559 46.1469 21.0813C40.9699 14.409 38.491 13.4856 37.1837 13.964C36.5759 14.186 36.2549 14.6994 34.6258 15.5005C32.4553 16.5678 31.4555 16.4293 31.2829 17.0767C31.0051 18.1169 33.5046 18.7805 33.9793 21.2135C34.1384 22.0272 33.964 22.4911 34.3947 22.9784C35.1706 23.855 36.6209 23.3506 36.8897 23.909C37.0282 24.1967 36.8663 24.7955 35.2704 26.2017C34.24 25.7585 33.6646 25.1929 33.3328 24.7712C32.6091 23.8497 32.8158 23.3156 31.8781 22.0209C31.6542 21.7125 31.3188 21.3357 30.6526 20.5814C30.1617 20.0248 29.7391 19.5717 29.437 19.2525C29.6753 19.1608 30.7821 18.7085 31.104 17.6701C31.5373 16.2702 30.5213 14.7129 28.8355 14.1914C27.1497 13.67 25.4315 14.3812 24.9981 15.7811C24.8057 16.4014 24.9118 17.0488 25.2211 17.6278C23.3096 19.471 21.5536 20.6147 20.2904 21.3223C18.3411 22.4147 17.2478 22.6475 16.9196 23.7256C16.4746 25.1848 18.0957 26.0174 17.8116 28.2211C17.6317 29.621 16.8873 29.9852 17.1651 30.9157C17.4429 31.849 18.3151 31.903 19.5163 32.9585C19.5163 32.9585 21.2084 34.4456 21.8431 36.6538C22.3422 38.3891 21.7433 39.4069 21.3684 41.5872C21.2614 42.2112 20.1474 48.888 22.3323 50.0271C23.8796 50.8336 27.2117 48.9338 27.7278 46.7607C27.9939 45.6413 27.3825 44.9948 27.9436 43.8503C28.5451 42.6239 29.5809 42.685 29.8839 41.5863C30.1941 40.4606 29.2275 39.9607 29.5602 38.9996C30.0484 37.5898 32.6288 37.2266 32.8815 37.1933C34.3839 36.9973 35.1257 37.4891 35.6336 36.9541C36.1353 36.4255 35.6489 35.6927 36.0284 34.7954C36.4491 33.7983 37.627 33.3343 38.6034 33.0961C39.997 34.4717 41.0436 34.5203 41.5255 34.4717C41.7871 34.4456 42.2079 34.2757 43.0387 33.9385C44.9916 33.1428 44.8495 33.0304 45.4861 32.8956Z" fill="#FF77A1" style="fill:#FF77A1;fill:color(display-p3 1.0000 0.4667 0.6314);fill-opacity:1;"/>
<path id="Vector_3" d="M49.1143 37.3206C48.8104 36.8593 48.4283 36.4934 47.9563 36.2578C47.2172 35.8901 46.2542 35.8604 45.4585 36.1886C43.9085 36.8396 43.4742 38.6584 42.87 40.3856C40.8695 46.1129 38.0922 47.6531 38.8267 48.5154C39.3284 49.107 40.7733 49.1474 42.4681 48.7006C45.285 46.2011 47.4672 42.9292 48.663 39.0648C48.8428 38.4858 48.992 37.9068 49.1143 37.3206Z" fill="#FF77A1" style="fill:#FF77A1;fill:color(display-p3 1.0000 0.4667 0.6314);fill-opacity:1;"/>
<path id="Vector_4" d="M21.9223 12.3643C18.3987 13.4657 15.1906 15.4671 12.6426 18.1896C12.8512 18.8936 13.165 19.5068 13.5723 19.9887C14.1063 20.6199 14.7321 20.8617 15.0648 21.002C16.0493 21.4183 18.2503 21.973 19.4281 20.8905C19.7986 20.5497 20.1564 19.7567 20.8721 18.1698C21.042 17.7922 21.0447 17.7625 21.1526 17.5494C21.7919 16.2844 22.3943 15.9553 22.6613 15.3934C22.9113 14.8683 22.949 13.9737 21.9223 12.3643Z" fill="#FF77A1" style="fill:#FF77A1;fill:color(display-p3 1.0000 0.4667 0.6314);fill-opacity:1;"/>
</g>
</g>
<path id="Vector_5" d="M49.2834 8.15394C49.2807 8.08741 49.2753 7.9903 49.2655 7.87432C49.2007 7.10109 49.1207 6.15253 48.5857 5.50608C48.4392 5.32895 47.9788 4.83714 46.9736 4.68609C47.3198 4.58359 47.9671 4.34263 48.5758 3.7654C49.3212 3.0587 49.5837 2.25041 49.6772 1.89526C49.6485 2.13892 49.5316 3.34552 50.3642 4.2734C50.6654 4.60966 51.0007 4.80836 51.2543 4.92525C50.9612 5.02055 50.4837 5.22376 50.0621 5.66612C49.1324 6.63895 49.2592 7.94175 49.2834 8.15394Z" fill="#06399B" style="fill:#06399B;fill:color(display-p3 0.0235 0.2235 0.6078);fill-opacity:1;"/>
<path id="Vector_6" d="M4.40746 32.0721C4.40476 32.0056 4.39937 31.9084 4.38948 31.7925C4.32475 31.0183 4.24472 30.0707 3.70975 29.4242C3.5632 29.2471 3.10286 28.7553 2.09766 28.6042C2.44471 28.5017 3.09117 28.2608 3.69986 27.6826C4.44522 26.9759 4.70867 26.1676 4.80127 25.8125C4.7725 26.0562 4.65562 27.2619 5.48819 28.1906C5.78939 28.5269 6.12476 28.7256 6.3783 28.8425C6.0852 28.9378 5.60777 29.1419 5.18609 29.5834C4.25552 30.5571 4.38319 31.8599 4.40746 32.0721Z" fill="#06399B" style="fill:#06399B;fill:color(display-p3 0.0235 0.2235 0.6078);fill-opacity:1;"/>
<path id="Vector_7" d="M2.68859 34.5018C2.6868 34.464 2.6841 34.4083 2.67871 34.3426C2.64185 33.9021 2.59599 33.3626 2.29209 32.9949C2.20848 32.8942 1.94683 32.6146 1.375 32.5283C1.5728 32.4698 1.94054 32.3331 2.28669 32.0041C2.71107 31.6013 2.86032 31.1418 2.91337 30.9404C2.89719 31.0789 2.83066 31.7658 3.30449 32.2936C3.47622 32.4851 3.66682 32.5975 3.81068 32.6649C3.64435 32.7189 3.37282 32.8349 3.13186 33.0866C2.60228 33.6396 2.67421 34.3813 2.68859 34.5018Z" fill="#06399B" style="fill:#06399B;fill:color(display-p3 0.0235 0.2235 0.6078);fill-opacity:1;"/>
<path id="Vector_8" d="M46.0405 9.31607C46.0387 9.27471 46.0351 9.21538 46.0297 9.14345C45.9892 8.66693 45.9407 8.0825 45.6107 7.68419C45.5208 7.5745 45.2367 7.27151 44.6172 7.1789C44.8312 7.11596 45.2295 6.96671 45.6044 6.61066C46.0639 6.17459 46.2257 5.67649 46.2832 5.45801C46.2652 5.60816 46.1933 6.35172 46.7067 6.92355C46.8919 7.13034 47.0987 7.25352 47.2552 7.32545C47.0745 7.38389 46.7804 7.50977 46.5206 7.7822C45.9479 8.3828 46.0261 9.1857 46.0405 9.31607Z" fill="#06399B" style="fill:#06399B;fill:color(display-p3 0.0235 0.2235 0.6078);fill-opacity:1;"/>
<g id="Group_3">
<path id="Vector_9" d="M0 12.3285C0 15.1086 0.912592 17.6692 2.46175 19.7273C2.50401 19.7839 2.52559 19.819 2.56066 19.8478C2.58223 19.89 2.6173 19.9323 2.65237 19.9755C2.91401 20.3081 3.18284 20.6192 3.48044 20.9159C4.03879 21.4958 4.66187 22.0191 5.32631 22.4795C5.77227 22.7905 6.2389 23.0738 6.72712 23.321C8.40395 24.1842 10.3065 24.6652 12.3295 24.6652C13.1009 24.6652 13.8498 24.5942 14.579 24.4602C15.4422 24.3046 16.2765 24.0574 17.0615 23.7247C18.3139 23.2086 19.4594 22.4867 20.4565 21.6028C20.5976 21.4824 20.7325 21.3619 20.8665 21.2279C20.9159 21.1856 20.9654 21.1362 21.0148 21.0867C21.227 20.8746 21.432 20.6552 21.6307 20.4286C23.5188 18.2636 24.6652 15.435 24.6652 12.3295C24.6652 5.52501 19.1411 0 12.3295 0C5.51692 0 0 5.52411 0 12.3285Z" fill="#99F9FF" style="fill:#99F9FF;fill:color(display-p3 0.6000 0.9765 1.0000);fill-opacity:1;"/>
<g id="Group_4">
<path id="Vector_10" d="M2.6377 19.8838C2.64489 19.9117 2.65209 19.9476 2.65209 19.9755C2.91373 20.3082 3.18256 20.6192 3.48016 20.916C4.03851 21.4959 4.66159 22.0192 5.32603 22.4795C5.77199 22.7906 6.23862 23.0738 6.72684 23.3211C8.40367 24.1842 10.3062 24.6652 12.3292 24.6652C13.1006 24.6652 13.8496 24.5942 14.5787 24.4602C15.4419 24.3047 16.2763 24.0574 17.0612 23.7248C18.3136 23.2087 19.4591 22.4867 20.4562 21.6029C20.244 20.5419 19.9536 19.7705 19.5085 19.205C19.1759 18.7806 18.8081 18.4056 18.3981 18.0658C18.3766 18.0442 18.3487 18.0307 18.3271 18.0091C17.4217 17.2809 16.3608 16.7639 15.2504 16.4177C15.031 16.3539 14.8116 16.29 14.5859 16.2406C12.9873 15.8378 11.3464 15.7812 9.96722 15.9646C9.57791 16.014 9.21017 16.0851 8.8784 16.1624C8.63115 16.2334 8.39737 16.3035 8.18518 16.3818C7.78238 16.5445 6.47329 17.0957 4.93132 18.0298C4.27317 18.4326 3.68606 18.8291 3.18435 19.2041C3.16367 19.2319 3.1421 19.2535 3.12052 19.2823C2.95598 19.4873 2.80043 19.6716 2.6377 19.8838Z" fill="#FF77A1" style="fill:#FF77A1;fill:color(display-p3 1.0000 0.4667 0.6314);fill-opacity:1;"/>
<path id="Vector_11" d="M2.46094 19.7282C2.47532 19.8199 2.48971 19.8694 2.496 19.926C2.58052 19.891 2.61649 19.9332 2.65155 19.9755C2.91319 20.3082 3.18202 20.6193 3.47963 20.916C4.03797 21.4959 4.66106 22.0192 5.3255 22.4795C5.77145 22.7906 6.23808 23.0738 6.7263 23.3211C8.40313 24.1842 10.3056 24.6652 12.3286 24.6652C13.1001 24.6652 13.849 24.5942 14.5782 24.4602C15.4413 24.3047 16.2757 24.0574 17.0606 23.7248C18.3131 23.2087 19.4585 22.4867 20.4557 21.6029C20.5968 21.4824 20.7317 21.3619 20.8657 21.2279C20.9151 21.1857 20.9646 21.1362 21.014 21.0868C20.7245 20.408 20.2003 19.4109 19.2383 18.4839C18.9766 18.2366 18.715 18.0172 18.4533 17.8257C17.1586 16.8637 15.8648 16.5382 15.2489 16.4177L15.0511 16.9266C14.5917 18.1224 13.1693 18.6241 12.0589 17.9876C11.4008 17.6126 10.7642 17.2377 10.1069 16.8556C10.0287 16.8268 9.97927 16.7918 9.92263 16.7639C9.57557 16.5661 9.22222 16.3674 8.87607 16.1624C8.74839 16.0914 8.6288 16.0212 8.50113 15.9502C7.77285 16.1974 6.95198 16.5373 6.08164 17.0039C4.47763 17.8743 3.28901 18.893 2.46094 19.7282Z" fill="#06399B" style="fill:#06399B;fill:color(display-p3 0.0235 0.2235 0.6078);fill-opacity:1;"/>
<g id="Group_5">
<path id="Vector_12" d="M17.0605 23.7237C18.313 23.2076 19.4585 22.4857 20.4556 21.6018C20.5967 21.4814 20.7316 21.3609 20.8656 21.2269C20.2218 20.1516 19.5852 19.2462 18.9981 18.5035C18.8138 18.2626 18.6304 18.0369 18.4533 17.8247C18.4326 17.9029 18.4182 17.9874 18.3966 18.0648C17.9525 19.9538 17.5065 21.8356 17.0605 23.7237Z" fill="#FF77A1" style="fill:#FF77A1;fill:color(display-p3 1.0000 0.4667 0.6314);fill-opacity:1;"/>
<path id="Vector_13" d="M14.4014 23.7103C14.458 23.9576 14.5146 24.2129 14.5785 24.4602C15.4416 24.3046 16.276 24.0574 17.0609 23.7247C18.3134 23.2086 19.4588 22.4867 20.4559 21.6028C20.5971 21.4824 20.732 21.3619 20.8659 21.2279C20.9154 21.1856 20.9648 21.1362 21.0143 21.0867C21.2265 20.8746 21.4315 20.6552 21.6302 20.4286C20.4272 19.1267 19.2251 18.2923 18.4536 17.8257C18.4114 17.8895 18.3691 17.9462 18.326 18.0091C17.0187 19.9044 15.7105 21.8141 14.4014 23.7103Z" fill="#06399B" style="fill:#06399B;fill:color(display-p3 0.0235 0.2235 0.6078);fill-opacity:1;"/>
</g>
<g id="Group_6">
<g id="Group_7">
<path id="Vector_14" d="M2.56055 19.8476C2.58213 19.8899 2.6172 19.9322 2.65226 19.9753C2.9139 20.308 3.18273 20.6191 3.48034 20.9158L3.09821 19.3028C3.09102 19.274 3.08383 19.2461 3.08383 19.2183C2.89322 19.4098 2.73048 19.6148 2.56055 19.8476Z" fill="#FF77A1" style="fill:#FF77A1;fill:color(display-p3 1.0000 0.4667 0.6314);fill-opacity:1;"/>
</g>
<path id="Vector_15" d="M2.46777 19.7631C2.47497 19.8198 2.48935 19.8692 2.49564 19.9259C2.58016 19.8908 2.61613 19.9331 2.65119 19.9753C2.91283 20.308 3.18166 20.6191 3.47927 20.9158C4.03761 21.4957 4.6607 22.019 5.32514 22.4793C4.58967 21.4112 3.8542 20.343 3.11783 19.2821C3.11063 19.2605 3.08905 19.2398 3.08276 19.2183C2.87057 19.381 2.67906 19.5644 2.47406 19.7559L2.46777 19.7631Z" fill="#06399B" style="fill:#06399B;fill:color(display-p3 0.0235 0.2235 0.6078);fill-opacity:1;"/>
</g>
<g id="Group_8">
<path id="Vector_16" d="M15.5615 7.94865C15.2837 9.20111 15.5534 10.3259 16.1648 10.4617C16.7762 10.5974 17.4964 9.69203 17.7742 8.43957C18.052 7.18712 17.7823 6.06233 17.1709 5.92656C16.5604 5.7908 15.8393 6.6962 15.5615 7.94865Z" fill="#06399B" style="fill:#06399B;fill:color(display-p3 0.0235 0.2235 0.6078);fill-opacity:1;"/>
<path id="Vector_17" d="M10.2354 16.6565C11.6694 16.8049 13.1035 16.9523 14.5376 17.1007L14.6284 15.5317L14.8774 10.9022C13.331 10.8195 11.7953 10.7359 10.2587 10.6514C10.2515 12.6537 10.2434 14.6551 10.2354 16.6565Z" fill="#FF77A1" style="fill:#FF77A1;fill:color(display-p3 1.0000 0.4667 0.6314);fill-opacity:1;"/>
<path id="Vector_18" d="M10.2598 10.6523C10.3874 11.3572 10.7579 12.7419 11.9024 13.9476C11.9897 14.0447 13.6485 15.779 14.6294 15.5327L14.8785 10.9032C13.3311 10.8205 11.7954 10.736 10.2598 10.6523Z" fill="#FF77A1" style="fill:#FF77A1;fill:color(display-p3 1.0000 0.4667 0.6314);fill-opacity:1;"/>
<path id="Vector_19" d="M17.1535 8.52912C17.149 8.61184 17.1356 8.69366 17.1302 8.78537C16.9405 10.7418 16.2059 13.4212 14.7017 14.0379C14.5794 14.0865 14.449 14.1252 14.3187 14.1458C12.8351 14.3958 11.2392 12.6452 10.3006 10.6546C10.234 10.5224 10.1684 10.3804 10.1207 10.25C10.0057 10.0046 9.91754 9.7609 9.83033 9.50825C9.71974 9.17109 9.62803 8.84471 9.56239 8.51923C9.39516 7.71093 9.16769 6.50343 9.84561 5.36426C10.7258 3.88703 12.4782 3.6155 13.0231 3.56245C13.3189 3.53278 14.3349 3.43209 15.3122 3.88074C15.626 4.0264 15.9272 4.22689 16.1978 4.48943C16.704 4.98574 16.9558 5.57915 17.0699 6.19144C17.0852 6.24719 17.0915 6.29394 17.0978 6.34878C17.1544 6.65538 17.1742 6.95928 17.1769 7.25419C17.1823 7.49335 17.1787 7.72262 17.176 7.9429C17.1751 8.12632 17.1643 8.31873 17.1535 8.52912Z" fill="#FF77A1" style="fill:#FF77A1;fill:color(display-p3 1.0000 0.4667 0.6314);fill-opacity:1;"/>
<path id="Vector_20" d="M13.4876 9.49209C13.475 9.72496 13.3582 9.90748 13.2278 9.90028C13.0965 9.89309 13.0012 9.69888 13.0138 9.46601C13.0264 9.23314 13.1433 9.05063 13.2737 9.05782C13.404 9.06502 13.5002 9.25922 13.4876 9.49209Z" fill="#06399B" style="fill:#06399B;fill:color(display-p3 0.0235 0.2235 0.6078);fill-opacity:1;"/>
<path id="Vector_21" d="M16.7308 9.66885C16.7182 9.90172 16.6013 10.0842 16.471 10.077C16.3397 10.0698 16.2444 9.87564 16.257 9.64277C16.2696 9.4099 16.3865 9.22739 16.5177 9.23458C16.6481 9.24177 16.7434 9.43598 16.7308 9.66885Z" fill="#06399B" style="fill:#06399B;fill:color(display-p3 0.0235 0.2235 0.6078);fill-opacity:1;"/>
<g id="Group_9">
<path id="Vector_22" d="M14.5974 11.8782C14.5254 11.8782 14.4607 11.8269 14.4472 11.7541C14.431 11.6714 14.485 11.5904 14.5686 11.5743C14.9525 11.4996 15.117 11.4349 15.1863 11.398C15.109 11.3333 14.9993 11.2407 14.9336 11.0744C14.8644 10.8999 14.8752 10.7435 14.8959 10.6437C14.9507 10.3785 14.9795 9.94238 14.984 9.31211C14.9849 9.22759 15.0532 9.16016 15.1368 9.16016C15.2222 9.16106 15.2906 9.22938 15.2897 9.3148C15.2852 9.96485 15.2546 10.4198 15.1962 10.7057C15.1773 10.7929 15.1854 10.8792 15.2186 10.962C15.2564 11.0564 15.3193 11.1094 15.3796 11.1607C15.4479 11.2182 15.5324 11.2901 15.5288 11.4106C15.5225 11.6201 15.2708 11.7505 14.6279 11.8746C14.6171 11.8773 14.6073 11.8782 14.5974 11.8782Z" fill="#E53990" style="fill:#E53990;fill:color(display-p3 0.8980 0.2235 0.5647);fill-opacity:1;"/>
</g>
<path id="Vector_23" d="M15.1088 12.3764C14.9469 12.8898 14.5243 13.2305 14.1296 13.2206C13.601 13.2072 13.0489 12.5634 13.2044 11.7632C13.3204 11.8954 13.5965 12.1741 14.0496 12.326C14.5279 12.487 14.9379 12.4168 15.1088 12.3764Z" fill="white" style="fill:white;fill-opacity:1;"/>
<g id="Group_10">
<path id="Vector_24" d="M12.569 8.63692C12.5322 8.63692 12.4953 8.62344 12.4656 8.59646C12.4036 8.53982 12.3991 8.44272 12.4557 8.37978C12.5385 8.28897 12.7722 8.07408 13.14 8.04531C13.5302 8.01384 13.8089 8.21435 13.9087 8.30156C13.9716 8.3582 13.9788 8.45441 13.9222 8.51824C13.8664 8.58208 13.7693 8.58837 13.7064 8.53173C13.6515 8.48408 13.4501 8.32853 13.1642 8.35011C12.9053 8.37078 12.7408 8.52183 12.6823 8.58657C12.6517 8.61984 12.6104 8.63692 12.569 8.63692Z" fill="#06399B" style="fill:#06399B;fill:color(display-p3 0.0235 0.2235 0.6078);fill-opacity:1;"/>
</g>
<g id="Group_11">
<path id="Vector_25" d="M15.8063 8.81354C15.7695 8.81354 15.7326 8.80005 15.7029 8.77308C15.6409 8.71643 15.6364 8.61933 15.693 8.5564C15.7758 8.46648 16.0086 8.25159 16.3773 8.22192C16.7711 8.18865 17.0462 8.39095 17.146 8.47817C17.2089 8.53481 17.2161 8.63101 17.1595 8.69485C17.1038 8.75779 17.0066 8.76408 16.9437 8.70834C16.888 8.65978 16.6929 8.51054 16.4015 8.52672C16.1345 8.5483 15.9655 8.71284 15.9196 8.76319C15.889 8.79645 15.8477 8.81354 15.8063 8.81354Z" fill="#06399B" style="fill:#06399B;fill:color(display-p3 0.0235 0.2235 0.6078);fill-opacity:1;"/>
</g>
<path id="Vector_26" d="M10.2702 10.9526C10.9967 10.8295 10.9536 7.81475 11.903 7.47939C12.4685 7.27978 12.678 7.74372 13.7992 7.60975C14.5365 7.52164 14.7046 7.28068 15.5489 7.2654C15.9067 7.25911 15.9553 7.30046 16.4471 7.29147C16.6674 7.28698 17.4002 7.34092 17.8488 7.03343C18.5699 6.53892 18.6994 5.0509 18.1104 4.37117C18.079 4.33431 18.0421 4.31363 17.9801 4.24799C17.6492 3.89824 17.6807 3.61862 17.4667 3.29584C17.2572 2.97846 16.8994 2.75188 16.7888 2.82471C16.644 2.92001 16.9344 3.52241 16.8076 3.58895C16.7366 3.62581 16.6278 3.42442 16.2214 3.21852C16.0982 3.15558 16.0434 3.14119 15.9742 3.08545C15.6136 2.79234 15.503 2.635 15.0355 2.25827C14.6983 1.98674 14.5886 1.98314 14.5194 2.00113C14.3396 2.04608 14.354 2.25378 14.1751 2.36257C13.9152 2.51991 13.57 2.27176 12.9604 2.03799C12.8129 1.98135 12.3508 1.80692 11.8661 1.73589C11.7807 1.7233 10.3799 1.52999 10.0976 2.09014C9.99511 2.29334 10.1453 2.38505 10.1767 2.91012C10.1857 3.06567 10.2451 4.0448 9.77302 4.32982C9.4934 4.49795 9.3091 4.25339 9.06544 4.38825C8.51608 4.69395 9.13646 6.12803 8.85954 7.3652C8.82807 7.50636 8.70758 7.98827 8.78131 8.61855C8.78131 8.61855 8.7939 8.72465 8.81188 8.82715C8.94045 9.53295 9.71639 11.047 10.2702 10.9526Z" fill="#06399B" style="fill:#06399B;fill:color(display-p3 0.0235 0.2235 0.6078);fill-opacity:1;"/>
<path id="Vector_27" d="M11.5707 9.16524C11.7371 9.87464 11.5312 10.5292 11.1095 10.629C10.6878 10.7279 10.2113 10.2334 10.0449 9.52399C9.8786 8.81459 10.0845 8.16005 10.5062 8.06114C10.927 7.96134 11.4035 8.45585 11.5707 9.16524Z" fill="#FF77A1" style="fill:#FF77A1;fill:color(display-p3 1.0000 0.4667 0.6314);fill-opacity:1;"/>
</g>
</g>
</g>
<g id="Group_12">
<path id="Vector_28" d="M61.4475 36.8462C61.4475 39.0742 60.8604 41.161 59.8273 42.9574C59.6295 43.318 59.4029 43.665 59.1629 43.9968C59.1062 44.0813 59.0496 44.1667 58.9857 44.2441C58.9435 44.3007 58.9219 44.3358 58.8868 44.3645C58.8653 44.4068 58.8302 44.449 58.7951 44.4922C58.5335 44.8249 58.2647 45.136 57.968 45.4327C57.4087 46.0126 56.7865 46.5359 56.1221 46.9962C55.9665 47.1023 55.811 47.2084 55.6555 47.3001C55.3516 47.4979 55.0396 47.6751 54.7222 47.8378C54.1845 48.1138 53.6253 48.3539 53.0391 48.5454C52.9752 48.5742 52.9042 48.5948 52.8341 48.6164C52.6219 48.6803 52.4169 48.7441 52.1975 48.7935C51.2777 49.0345 50.3085 49.1685 49.3042 49.1757C49.2475 49.1828 49.1837 49.1829 49.1199 49.1829C48.5399 49.1829 47.9744 49.1406 47.4223 49.0696C47.238 49.0417 47.0546 49.0129 46.8703 48.9778C46.0071 48.8223 45.1728 48.5751 44.3879 48.2424C44.1541 48.1435 43.9284 48.0446 43.7018 47.9313C42.7182 47.4503 41.8065 46.8416 40.9928 46.1205C40.8517 46 40.724 45.8867 40.5891 45.7528C40.5325 45.7033 40.483 45.6539 40.4336 45.6044C40.3203 45.4911 40.207 45.3778 40.1081 45.2582C40.002 45.1593 39.9103 45.0533 39.8186 44.9472C39.5776 44.6711 39.3591 44.3879 39.1461 44.0984C37.6607 42.0682 36.7832 39.5642 36.7832 36.848C36.7832 30.0436 42.3073 24.5186 49.1189 24.5186C55.9297 24.5177 61.4475 30.0418 61.4475 36.8462Z" fill="#99F9FF" style="fill:#99F9FF;fill:color(display-p3 0.6000 0.9765 1.0000);fill-opacity:1;"/>
<g id="Group_13">
<path id="Vector_29" d="M52.196 48.7931C51.2762 49.0341 50.307 49.168 49.3027 49.1752C49.246 49.1824 49.1822 49.1824 49.1184 49.1824C48.5384 49.1824 47.9729 49.1402 47.4209 49.0691C47.2365 49.0413 47.0531 49.0125 46.8688 48.9774C46.0057 48.8219 45.1713 48.5746 44.3864 48.242C44.1526 48.1431 43.9269 48.0442 43.7003 47.9309C42.7167 47.4499 41.805 46.8412 40.9913 46.1201C40.8502 45.9996 40.7225 45.8863 40.5876 45.7523C40.531 45.7029 40.4815 45.6534 40.4321 45.604C40.3188 45.4907 40.2055 45.3774 40.1066 45.2578C40.0149 44.303 40.0428 43.3553 40.1561 42.414C40.4959 39.6762 41.5569 37.0589 42.4479 34.8741C43.0422 33.4094 44.3576 30.1699 45.8366 29.2079C45.8717 29.1863 45.9077 29.1656 45.9427 29.144C45.9643 29.1297 45.9922 29.1162 46.0209 29.1018C46.2619 28.9741 46.5163 28.9175 46.7636 28.9391C47.0468 28.9669 47.5278 29.1162 48.1428 30.2401C48.6167 31.1032 49.1687 32.5463 49.7765 34.9514C49.7981 35.0152 49.8116 35.0853 49.826 35.1564C49.9042 35.4459 49.9743 35.7579 50.0525 36.0834C50.0948 36.2605 50.1371 36.4367 50.1802 36.6282C50.2018 36.7271 50.2225 36.826 50.2512 36.9321C50.3079 37.1938 50.3717 37.477 50.4346 37.7602C50.5192 38.1207 50.6046 38.5028 50.6891 38.885C50.8662 39.6915 51.0424 40.533 51.2124 41.4106C51.2196 41.4528 51.2268 41.5023 51.2403 41.5445C51.2618 41.6722 51.2897 41.7918 51.3113 41.9195C51.3751 42.2521 51.4318 42.5911 51.4956 42.9238C51.8418 44.9027 52.1178 46.9473 52.196 48.7931Z" fill="#6A79DF" style="fill:#6A79DF;fill:color(display-p3 0.4157 0.4745 0.8745);fill-opacity:1;"/>
<path id="Vector_30" d="M45.0373 44.1463C44.9384 45.2846 44.585 46.0704 44.0752 47.1457C43.9547 47.4074 43.828 47.669 43.7003 47.9306C42.7167 47.4496 41.805 46.8409 40.9913 46.1198C40.8501 45.9994 40.7225 45.8861 40.5876 45.7521C40.5309 45.7026 40.4815 45.6532 40.432 45.6037C40.3188 45.4905 40.2055 45.3772 40.1066 45.2576C40.0005 45.1587 39.9088 45.0526 39.8171 44.9465C39.5761 44.6705 39.3576 44.3873 39.1445 44.0977C39.4844 43.489 39.8234 42.9307 40.156 42.4146C40.3538 42.1107 40.5453 41.8203 40.736 41.5515C41.1819 40.9077 41.9381 40.5679 42.7023 40.6955C42.8156 40.7171 42.9361 40.7378 43.0557 40.78C43.1546 40.8016 43.2184 40.8223 43.2894 40.8439C44.3504 41.1972 45.0157 42.2087 45.058 43.2984C45.0651 43.5664 45.0651 43.8496 45.0373 44.1463Z" fill="#FF77A1" style="fill:#FF77A1;fill:color(display-p3 1.0000 0.4667 0.6314);fill-opacity:1;"/>
<path id="Vector_31" d="M59.1634 43.9979C59.1068 44.0824 59.0501 44.1678 58.9863 44.2452C58.944 44.3018 58.9224 44.3369 58.8874 44.3656C58.8658 44.4079 58.8307 44.4502 58.7957 44.4933C58.534 44.826 58.2652 45.1371 57.9685 45.4338C57.4093 46.0137 56.7871 46.537 56.1226 46.9973C55.9671 47.1034 55.8115 47.2095 55.656 47.3012C55.3521 47.499 55.0401 47.6761 54.7227 47.8389C54.1851 48.1149 53.6258 48.355 53.0396 48.5465C52.9758 48.5753 52.9047 48.5959 52.8346 48.6175C52.6224 48.6814 52.4174 48.7452 52.198 48.7946C51.2782 49.0356 50.309 49.1696 49.3047 49.1768C49.2481 49.1839 49.1842 49.1839 49.1204 49.1839C48.5405 49.1839 47.9749 49.1417 47.4229 49.0707C47.8257 47.1816 48.7032 45.0813 49.0853 42.6339C49.1348 42.3229 49.177 42.0118 49.2058 41.6863C49.2346 41.439 49.2553 41.1837 49.2625 40.9292C49.3047 40.0238 49.2553 39.069 49.0853 38.0719C49.0431 37.8309 48.9936 37.5909 48.937 37.3436C48.8731 37.0676 48.8021 36.7916 48.7176 36.5092C48.5899 36.0921 48.4559 35.6884 48.3004 35.3071C48.2366 35.13 48.1655 34.9601 48.0954 34.791C48.0109 34.5861 47.9183 34.3811 47.8338 34.1824C47.7915 34.0978 47.7555 34.0196 47.7205 33.9423C46.8007 31.9759 45.8386 30.4834 45.9942 29.2804C45.9942 29.2238 46.0014 29.1599 46.0221 29.1033C46.0643 28.8839 46.1497 28.6789 46.2909 28.4811C47.0057 27.4552 48.6394 27.208 49.8352 27.413C51.4131 27.689 53.3012 28.9406 55.9824 35.4267C56.1235 35.7738 56.2656 36.1343 56.4139 36.5092C56.7745 37.4218 57.1422 38.3623 57.5099 39.31C58.0953 40.8645 58.6752 42.4559 59.1634 43.9979Z" fill="#6A79DF" style="fill:#6A79DF;fill:color(display-p3 0.4157 0.4745 0.8745);fill-opacity:1;"/>
<path id="Vector_32" d="M40.9916 46.1193C40.8504 45.9988 40.7228 45.8855 40.5879 45.7515C40.8855 43.1342 41.5149 41.1751 42.5399 40.9135C42.7242 40.864 42.9076 40.8217 43.0919 40.7867C43.8067 40.6311 44.4999 40.5322 45.1787 40.4756C45.3909 40.4756 45.6031 40.4756 45.8225 40.4828C46.4591 40.4972 47.1235 40.5466 47.8104 40.6455C48.3193 40.7237 48.8003 40.8154 49.2607 40.9287C49.5295 40.9926 49.784 41.0564 50.0321 41.1337C50.131 41.1625 50.2299 41.1904 50.3288 41.2254C50.6543 41.3243 50.9582 41.4304 51.2414 41.5437C51.6514 41.6993 52.0335 41.862 52.3806 42.0319C52.4444 42.0535 52.5011 42.0814 52.5577 42.1165C53.1169 42.3781 53.5971 42.6541 54.0008 42.9014C53.6114 44.8039 53.2159 46.7073 52.8337 48.617C52.6215 48.6808 52.4165 48.7447 52.1972 48.7941C51.2774 49.0351 50.3081 49.169 49.3038 49.1762C49.2472 49.1834 49.1833 49.1834 49.1195 49.1834C48.5396 49.1834 47.974 49.1412 47.422 49.0702C47.2377 49.0423 47.0543 49.0135 46.8699 48.9784C46.0068 48.8229 45.1724 48.5756 44.3875 48.243C44.1537 48.1441 43.9281 48.0452 43.7015 47.9319C42.717 47.4491 41.8053 46.8413 40.9916 46.1193Z" fill="#FF77A1" style="fill:#FF77A1;fill:color(display-p3 1.0000 0.4667 0.6314);fill-opacity:1;"/>
<path id="Vector_33" d="M50.2093 42.0232C48.0667 43.3628 46.1795 43.5382 45.5951 42.8009C45.5061 42.6885 45.177 42.2138 45.6023 41.0243C45.8747 40.3769 46.1471 39.7304 46.4196 39.0831L46.523 38.6173L47.129 35.8121L47.369 34.7197C48.67 34.8438 49.9621 34.9652 51.2631 35.0893C51.2478 35.2124 51.2271 35.3266 51.2127 35.4498C50.872 37.6535 50.5456 39.8356 50.2093 42.0232Z" fill="#FF77A1" style="fill:#FF77A1;fill:color(display-p3 1.0000 0.4667 0.6314);fill-opacity:1;"/>
<path id="Vector_34" d="M51.2121 35.4499C50.937 35.9894 50.4964 36.7419 49.7546 37.4756C49.0515 38.1598 47.2704 39.6343 46.4189 39.0841L46.5223 38.6183L47.1283 35.8131C47.3909 35.6513 47.6471 35.5479 47.8467 35.4643C49.3132 34.8493 50.7077 35.2683 51.2121 35.4499Z" fill="#FF77A1" style="fill:#FF77A1;fill:color(display-p3 1.0000 0.4667 0.6314);fill-opacity:1;"/>
<g id="Group_14">
<path id="Vector_35" d="M52.0022 34.5053C50.6698 37.2755 46.862 38.519 45.4648 37.4265C44.955 37.0282 44.5441 36.1444 44.4327 35.3325C44.3643 34.8317 44.4219 34.4478 44.5028 33.9434C44.6664 32.9157 44.9101 32.2702 45.2679 31.4331C46.1589 29.3445 45.7283 29.0568 46.2929 28.4822C47.3044 27.4546 49.6124 27.4303 51.051 28.5236C52.8807 29.9136 52.8564 32.7296 52.0022 34.5053Z" fill="#FF77A1" style="fill:#FF77A1;fill:color(display-p3 1.0000 0.4667 0.6314);fill-opacity:1;"/>
<path id="Vector_36" d="M48.1248 33.8956C48.0232 34.0979 47.865 34.2238 47.7706 34.177C47.6762 34.1294 47.6816 33.9271 47.7823 33.7248C47.8839 33.5225 48.0421 33.3966 48.1365 33.4433C48.2309 33.4901 48.2264 33.6924 48.1248 33.8956Z" fill="#06399B" style="fill:#06399B;fill:color(display-p3 0.0235 0.2235 0.6078);fill-opacity:1;"/>
<path id="Vector_37" d="M45.702 32.6866C45.6013 32.8889 45.4421 33.0148 45.3477 32.968C45.2533 32.9213 45.2587 32.7181 45.3594 32.5158C45.461 32.3135 45.6193 32.1876 45.7137 32.2344C45.809 32.2811 45.8036 32.4843 45.702 32.6866Z" fill="#06399B" style="fill:#06399B;fill:color(display-p3 0.0235 0.2235 0.6078);fill-opacity:1;"/>
<path id="Vector_38" d="M47.0435 35.4033C47.1217 35.5381 46.4473 36.4273 45.7397 36.2592C45.1149 36.1109 44.8406 35.227 44.9647 35.1192C45.0573 35.0391 45.3244 35.4284 45.9106 35.53C46.5525 35.6415 46.9868 35.3053 47.0435 35.4033Z" fill="white" style="fill:white;fill-opacity:1;"/>
<g id="Group_15">
<path id="Vector_39" d="M46.0009 34.7906C45.8211 34.7501 45.5792 34.6575 45.5558 34.4534C45.5388 34.3122 45.6251 34.2313 45.7959 34.0686C45.8543 34.0137 45.8912 33.9769 45.929 33.9391C45.9982 33.8708 46.0674 33.8015 46.1412 33.7395C46.2562 33.6415 46.4037 33.3915 46.4567 32.7442C46.4639 32.6597 46.5395 32.603 46.6222 32.603C46.7067 32.6102 46.7696 32.684 46.7624 32.7685C46.7121 33.3817 46.5745 33.7755 46.3399 33.9733C46.2724 34.0308 46.2095 34.0937 46.1456 34.1567C46.1061 34.1962 46.0665 34.2358 46.0261 34.2736C45.9568 34.3383 45.902 34.3896 45.8741 34.4219C45.9038 34.4426 45.9631 34.4714 46.0396 34.4903C46.1214 34.5118 46.1708 34.5946 46.1492 34.6773C46.1313 34.7447 46.0692 34.7906 46.0009 34.7906Z" fill="#E53990" style="fill:#E53990;fill:color(display-p3 0.8980 0.2235 0.5647);fill-opacity:1;"/>
</g>
<g id="Group_16">
<path id="Vector_40" d="M49.2183 33.4295C49.141 33.4295 49.0753 33.372 49.0663 33.2947C49.0618 33.2569 49.0151 32.9215 48.7031 32.7417C48.4271 32.5817 48.1483 32.6653 48.0953 32.6833C48.0162 32.7121 47.9281 32.6689 47.9002 32.5889C47.8723 32.5089 47.9146 32.4216 47.9946 32.3938C48.0701 32.3659 48.4621 32.2463 48.8568 32.4765C49.2974 32.73 49.3639 33.2057 49.3702 33.2587C49.3801 33.3432 49.3199 33.4188 49.2354 33.4286C49.23 33.4295 49.2237 33.4295 49.2183 33.4295Z" fill="#06399B" style="fill:#06399B;fill:color(display-p3 0.0235 0.2235 0.6078);fill-opacity:1;"/>
</g>
<g id="Group_17">
<path id="Vector_41" d="M46.6402 32.0824C46.5637 32.0824 46.4972 32.0248 46.4882 31.9475C46.4837 31.9106 46.4351 31.5744 46.125 31.3945C45.848 31.2354 45.5702 31.3181 45.5172 31.337C45.4371 31.3649 45.3499 31.3226 45.3221 31.2426C45.2942 31.1626 45.3364 31.0754 45.4165 31.0475C45.4911 31.0214 45.8849 30.9018 46.2787 31.1284C46.7094 31.3775 46.7822 31.8234 46.7921 31.9106C46.802 31.9943 46.7426 32.0707 46.6581 32.0806C46.6518 32.0824 46.6464 32.0824 46.6402 32.0824Z" fill="#06399B" style="fill:#06399B;fill:color(display-p3 0.0235 0.2235 0.6078);fill-opacity:1;"/>
</g>
</g>
<path id="Vector_42" d="M53.9995 42.9006C53.6812 44.7824 53.3629 46.6634 53.0374 48.5452C52.9736 48.574 52.9025 48.5946 52.8324 48.6162C52.6202 48.6801 52.4152 48.7439 52.1958 48.7934C51.276 49.0343 50.3068 49.1683 49.3025 49.1755C49.2459 49.1827 49.182 49.1827 49.1182 49.1827C48.5383 49.1827 47.9727 49.1404 47.4207 49.0694C47.2364 49.0415 47.053 49.0127 46.8686 48.9777C46.0055 48.8221 45.1711 48.5749 44.3862 48.2422C44.1524 48.1433 43.9268 48.0444 43.7002 47.9311C42.7166 47.4501 41.8049 46.8414 40.9912 46.1203C40.85 45.9998 40.7223 45.8865 40.5875 45.7526C40.5308 45.7031 40.4814 45.6537 40.4319 45.6042C40.3186 45.4909 40.2053 45.3776 40.1064 45.2581C40.1487 45.2014 40.191 45.1376 40.2341 45.0603C40.7295 44.2259 40.7223 43.5327 40.9201 42.8179C41.0613 42.3225 41.3796 41.6652 42.151 40.972C42.4414 40.901 42.7381 40.838 43.0564 40.7814C43.3181 40.7248 43.5797 40.6753 43.8485 40.6331C44.5696 40.5126 45.2421 40.4424 45.8715 40.3921C45.8436 40.4343 45.8293 40.4631 45.8221 40.4838C45.44 41.1698 45.2916 41.6796 45.3905 42.0042C45.4121 42.0824 45.44 42.1319 45.475 42.1813C45.8356 42.6695 47.0808 42.5068 49.2027 41.6859C49.5066 41.5726 49.8249 41.4449 50.1648 41.2966C50.2214 41.275 50.2709 41.2543 50.3275 41.2256C50.5819 41.2606 50.8796 41.3173 51.2113 41.4099C51.5647 41.5088 51.9612 41.6499 52.3784 41.8487C52.4844 41.8981 52.5833 41.9475 52.6823 42.0042C52.7038 42.0114 52.7245 42.0258 52.7461 42.0393C53.2775 42.3207 53.6947 42.6318 53.9995 42.9006Z" fill="#06399B" style="fill:#06399B;fill:color(display-p3 0.0235 0.2235 0.6078);fill-opacity:1;"/>
<path id="Vector_43" d="M44.2693 29.3817C44.5741 29.6362 45.163 28.9304 45.8634 29.2136C46.606 29.5139 46.5242 30.5425 47.1455 30.6729C47.7165 30.7924 48.0959 29.9886 48.6488 30.1424C49.0085 30.2422 49.1523 30.6675 49.3393 31.1044C49.9247 32.4729 50.6395 32.801 50.7869 33.5194C51.5628 37.2858 48.9599 39.6127 50.0254 41.1259C50.679 42.0547 52.4601 42.3136 53.6209 41.7355C57.1921 39.9561 56.4252 29.4869 53.2271 27.7085C52.6489 27.3875 51.7417 27.2104 49.5353 26.1827C49.2036 26.0281 48.7522 25.8123 48.1076 25.7395C47.8136 25.7062 46.7014 25.5803 45.6962 26.2313C44.3385 27.1106 43.844 29.0266 44.2693 29.3817Z" fill="#6A79DF" style="fill:#6A79DF;fill:color(display-p3 0.4157 0.4745 0.8745);fill-opacity:1;"/>
<g id="Group_18">
<path id="Vector_44" d="M59.69 43.0247C59.0732 41.757 58.299 40.5378 57.3874 39.4031C56.9603 38.8637 56.5557 38.4303 56.2158 38.0778L56.4361 37.8647C56.7814 38.2235 57.1922 38.6641 57.6274 39.2125C58.5517 40.3643 59.3393 41.6023 59.9651 42.8908L59.69 43.0247Z" fill="#6A79DF" style="fill:#6A79DF;fill:color(display-p3 0.4157 0.4745 0.8745);fill-opacity:1;"/>
</g>
<path id="Vector_45" d="M56.0012 44.1751C55.9445 45.1084 55.8384 46.1631 55.655 47.3013C55.3511 47.4991 55.0391 47.6762 54.7217 47.839C54.1841 48.115 53.6248 48.3551 53.0386 48.5466C52.9748 48.5754 52.9037 48.596 52.8336 48.6176C52.6214 48.6815 52.4164 48.7453 52.197 48.7947C51.2773 49.0357 50.308 49.1697 49.3037 49.1769C49.5087 48.2858 49.7137 47.3948 49.9187 46.5029C50.1803 45.3503 50.3853 44.5078 51.0147 43.5529C51.1631 43.3264 51.3258 43.1142 51.4957 42.9236C51.5029 42.9029 51.5173 42.8885 51.5308 42.8741C51.814 42.5415 52.1674 42.2798 52.5567 42.1171C52.6205 42.082 52.6844 42.0604 52.7473 42.0389C53.2778 41.8554 53.8649 41.8338 54.4097 42.0316C54.6363 42.1162 54.8197 42.2016 54.9825 42.2861C55.6685 42.661 56.0506 43.3965 56.0012 44.1751Z" fill="#FF77A1" style="fill:#FF77A1;fill:color(display-p3 1.0000 0.4667 0.6314);fill-opacity:1;"/>
</g>
</g>
<g id="Group_19">
<g id="Group_20">
<path id="Vector_46" d="M27.8922 60.5359C27.8922 60.2788 28.1008 60.0702 28.3453 60.0702C28.6034 60.0702 28.8111 60.2662 28.8111 60.5233C28.8227 60.7805 28.6151 60.9891 28.3579 60.9891C28.0999 60.9891 27.8922 60.7922 27.8922 60.5359ZM27.1198 60.9765C26.8627 60.9648 26.6676 60.7562 26.6676 60.4991C26.6793 60.2401 26.8879 60.0459 27.145 60.0576C27.4022 60.0693 27.5982 60.2779 27.5865 60.535C27.5739 60.7805 27.3788 60.9765 27.1333 60.9765C27.1198 60.9765 27.1198 60.9765 27.1198 60.9765ZM29.6068 60.9513C29.3496 60.9648 29.141 60.7679 29.1168 60.5108C29.1042 60.2653 29.3002 60.0459 29.5573 60.0324C29.8028 60.0208 30.0231 60.2051 30.0347 60.4622C30.0473 60.7194 29.8639 60.9396 29.6068 60.9513ZM25.8701 60.9028C25.6129 60.8911 25.4295 60.6708 25.4538 60.4137C25.4664 60.1565 25.6867 59.9722 25.9438 59.9839C26.201 60.0091 26.3853 60.2293 26.361 60.4865C26.3484 60.7319 26.1407 60.9028 25.9078 60.9028C25.8953 60.9028 25.8827 60.9028 25.8701 60.9028ZM30.3413 60.437C30.3171 60.1934 30.5005 59.9596 30.7576 59.9344C31.0031 59.9102 31.2359 60.0945 31.2602 60.3516C31.2845 60.6088 31.1002 60.829 30.843 60.8524C30.5616 60.8533 30.3665 60.6825 30.3413 60.437ZM24.6338 60.7805C24.3767 60.7562 24.2049 60.5234 24.2292 60.2779C24.2661 60.0208 24.4989 59.8373 24.7435 59.8733C25.0006 59.8985 25.1724 60.1304 25.1481 60.3876C25.1121 60.6205 24.9152 60.7922 24.6949 60.7922C24.6698 60.7922 24.6581 60.7805 24.6338 60.7805ZM31.5668 60.3157C31.53 60.0585 31.7017 59.8247 31.9462 59.8014C32.2034 59.7519 32.4363 59.9353 32.4722 60.1808C32.5091 60.4379 32.3248 60.6708 32.0802 60.7086C32.0559 60.7086 32.0317 60.7086 32.0065 60.7086C31.7862 60.7077 31.5911 60.5476 31.5668 60.3157ZM23.3966 60.6097C23.1512 60.5602 22.9795 60.3273 23.0172 60.0819C23.0667 59.8247 23.2986 59.6539 23.5558 59.7025C23.8003 59.7393 23.9721 59.9713 23.9352 60.2284C23.8983 60.4496 23.7023 60.6088 23.482 60.6088C23.4452 60.6097 23.4209 60.6097 23.3966 60.6097ZM32.7671 60.1313C32.7177 59.8877 32.8894 59.6422 33.134 59.5928C33.3911 59.5442 33.624 59.7151 33.6725 59.9605C33.722 60.206 33.5628 60.4505 33.3174 60.5C33.2805 60.5 33.2562 60.5117 33.2194 60.5117C33.0117 60.5117 32.8157 60.3525 32.7671 60.1313ZM22.1837 60.3759C21.9266 60.3148 21.7675 60.0819 21.8286 59.8247C21.8781 59.5811 22.1226 59.4202 22.3672 59.4822C22.6126 59.5316 22.7718 59.7753 22.7223 60.0208C22.6729 60.241 22.4894 60.3885 22.2818 60.3885C22.2449 60.3885 22.208 60.3759 22.1837 60.3759ZM33.9791 59.8868C33.918 59.6413 34.0654 59.3959 34.31 59.3356C34.5554 59.2745 34.8 59.4201 34.8612 59.6773C34.9223 59.9227 34.7748 60.1673 34.5303 60.2284C34.4934 60.2401 34.4565 60.2401 34.4206 60.2401C34.212 60.241 34.0277 60.1071 33.9791 59.8868ZM20.9708 60.0819C20.7263 60.0208 20.5788 59.7753 20.6409 59.5182C20.702 59.2745 20.9592 59.1387 21.2037 59.1999C21.4483 59.261 21.5831 59.5065 21.522 59.751C21.4726 59.9596 21.2891 60.0945 21.0814 60.0945C21.0446 60.0954 21.0077 60.0954 20.9708 60.0819ZM35.1677 59.5928C35.094 59.3473 35.2289 59.0902 35.4743 59.0299C35.7189 58.9553 35.976 59.0911 36.0498 59.3365C36.1109 59.582 35.976 59.8256 35.7315 59.8994C35.6946 59.9236 35.6461 59.9237 35.5966 59.9237C35.4006 59.9228 35.2163 59.7888 35.1677 59.5928ZM19.7705 59.7402C19.526 59.6656 19.3911 59.4085 19.4639 59.1639C19.5377 58.9202 19.7948 58.7845 20.0403 58.8708C20.2857 58.9436 20.4206 59.2008 20.3469 59.4462C20.2857 59.6422 20.1014 59.7645 19.9063 59.7645C19.8569 59.7636 19.8074 59.7519 19.7705 59.7402ZM36.3429 59.2376C36.2449 59.0048 36.3797 58.735 36.6117 58.6487C36.8572 58.5642 37.1143 58.6856 37.1997 58.931C37.286 59.163 37.1629 59.4336 36.9183 59.5182C36.8698 59.5316 36.8212 59.5433 36.7592 59.5433C36.5757 59.5442 36.404 59.4202 36.3429 59.2376ZM18.5828 59.3356C18.35 59.2493 18.2277 58.9922 18.3131 58.7467C18.3994 58.5147 18.6682 58.3916 18.9011 58.4779C19.1466 58.5642 19.2688 58.833 19.1825 59.065C19.1097 59.2493 18.938 59.3716 18.742 59.3716C18.6934 59.3716 18.644 59.3599 18.5828 59.3356ZM37.4829 58.8213C37.3849 58.5885 37.4946 58.3187 37.7275 58.2207C37.9604 58.1227 38.2301 58.2324 38.3281 58.4662C38.4252 58.6982 38.3155 58.9688 38.0826 59.0659C38.0332 59.0911 37.973 59.1028 37.9109 59.1028C37.7275 59.1028 37.5558 58.9922 37.4829 58.8213ZM17.432 58.8825C17.1991 58.7845 17.0885 58.5156 17.1865 58.2819C17.2845 58.0499 17.5542 57.9384 17.7871 58.0364C18.02 58.1344 18.1297 58.4033 18.0317 58.637C17.9579 58.8079 17.7871 58.9193 17.6028 58.9193C17.5417 58.9193 17.4805 58.9068 17.432 58.8825ZM38.6095 58.3313C38.4989 58.111 38.5853 57.8287 38.8181 57.719C39.051 57.6093 39.3207 57.7073 39.4304 57.9267C39.5401 58.1596 39.4547 58.4293 39.2227 58.539C39.1607 58.5759 39.1004 58.5885 39.0267 58.5885C38.8541 58.5885 38.6949 58.5022 38.6095 58.3313ZM16.2919 58.3682C16.059 58.2585 15.9736 57.9762 16.0833 57.7559C16.193 57.523 16.4636 57.425 16.6956 57.5347C16.9159 57.6462 17.0139 57.9267 16.9042 58.147C16.8305 58.3196 16.6596 58.4176 16.4879 58.4176C16.4268 58.4167 16.3539 58.3916 16.2919 58.3682ZM39.7118 57.7793C39.577 57.559 39.6498 57.2767 39.871 57.1544C40.0913 57.0321 40.3736 57.1059 40.4958 57.3252C40.6307 57.5464 40.557 57.8278 40.3358 57.951C40.2621 58.0005 40.1767 58.0121 40.1029 58.0121C39.9438 58.013 39.7856 57.9267 39.7118 57.7793ZM15.1905 57.791C14.9576 57.6687 14.8839 57.3882 15.0071 57.167C15.1294 56.9467 15.4117 56.8613 15.6311 56.9836C15.8513 57.1058 15.9251 57.3882 15.8145 57.6075C15.7291 57.7667 15.5699 57.8395 15.4108 57.8395C15.3245 57.8404 15.2507 57.8287 15.1905 57.791ZM40.7647 57.1553C40.6172 56.9476 40.6793 56.6644 40.887 56.5187C41.0956 56.3839 41.377 56.4324 41.5244 56.6527C41.6593 56.8613 41.6098 57.1427 41.4021 57.2776C41.3167 57.3396 41.2304 57.3639 41.145 57.3639C40.9976 57.363 40.851 57.2902 40.7647 57.1553ZM14.1125 57.1553C13.8922 57.0204 13.831 56.739 13.965 56.5187C14.0999 56.3092 14.3813 56.2481 14.6016 56.3713C14.8093 56.5052 14.8704 56.7992 14.7364 57.0078C14.651 57.1427 14.5036 57.2281 14.3444 57.2281C14.2716 57.2281 14.1862 57.2038 14.1125 57.1553ZM41.7699 56.4693C41.6099 56.2598 41.6476 55.9784 41.8427 55.8201C42.0387 55.661 42.3336 55.6853 42.4928 55.893C42.6402 56.089 42.6151 56.3839 42.419 56.543C42.3336 56.6041 42.223 56.641 42.125 56.641C41.9893 56.641 41.8553 56.5799 41.7699 56.4693ZM13.0713 56.4567C12.8627 56.3092 12.8142 56.0287 12.9607 55.8201C13.1073 55.6115 13.3887 55.563 13.5982 55.7095C13.8059 55.857 13.8553 56.1501 13.7079 56.3578C13.6215 56.481 13.475 56.5421 13.3275 56.5421C13.243 56.543 13.1441 56.5187 13.0713 56.4567ZM42.7121 55.6853C42.5413 55.5018 42.553 55.2195 42.7364 55.0487C42.9207 54.8644 43.2139 54.8761 43.3856 55.0604C43.5573 55.2447 43.5447 55.5378 43.3613 55.7095C43.2759 55.7949 43.1653 55.8318 43.0547 55.8318C42.9324 55.8318 42.8102 55.7833 42.7121 55.6853ZM12.067 55.7104C11.871 55.5513 11.8332 55.269 11.9933 55.0613C12.1524 54.8653 12.4455 54.841 12.6424 55.0001C12.8384 55.1476 12.8753 55.4407 12.7161 55.6367C12.6181 55.7464 12.4833 55.8084 12.3493 55.8084C12.2504 55.8084 12.1524 55.7833 12.067 55.7104ZM11.1112 54.9012C10.9278 54.7286 10.9036 54.4481 11.0744 54.2521C11.2452 54.0687 11.5266 54.0561 11.7235 54.2152C11.907 54.3879 11.9312 54.6819 11.7604 54.8653C11.6624 54.975 11.5401 55.0244 11.4169 55.0244C11.3073 55.0235 11.1967 54.9876 11.1112 54.9012ZM43.5942 54.841C43.4108 54.6684 43.3865 54.3878 43.5573 54.1918C43.7164 54.0075 44.0096 53.9842 44.2065 54.155C44.3899 54.3141 44.4151 54.6081 44.2433 54.8041C44.1579 54.9021 44.023 54.9516 43.9008 54.9516C43.7902 54.9507 43.6796 54.9138 43.5942 54.841ZM10.2049 54.0444C10.0206 53.8601 10.0206 53.5786 10.2049 53.3943C10.3884 53.2109 10.6707 53.2235 10.8541 53.3943C11.0375 53.5786 11.0258 53.8727 10.8541 54.0444C10.7561 54.1307 10.6464 54.1793 10.5232 54.1793C10.4135 54.1793 10.2904 54.1298 10.2049 54.0444ZM44.4025 53.9086C44.1939 53.763 44.1453 53.4806 44.2919 53.272C44.4393 53.0644 44.7208 53.0149 44.9285 53.1624C45.137 53.3098 45.1856 53.6029 45.039 53.7989C44.941 53.9338 44.8062 53.9949 44.6587 53.9949C44.5742 53.9949 44.4762 53.9707 44.4025 53.9086ZM9.3472 53.1372C9.17547 52.9412 9.18806 52.6598 9.38406 52.4889C9.56838 52.3163 9.86149 52.3289 10.0332 52.5249C10.2049 52.7092 10.1807 53.0032 9.99636 53.1741C9.91094 53.2469 9.80125 53.2837 9.69066 53.2837C9.56838 53.2846 9.43261 53.2352 9.3472 53.1372ZM45.1011 52.9052C44.8808 52.782 44.8071 52.5006 44.9293 52.2794C45.0516 52.0592 45.334 51.9863 45.5542 52.1086C45.7745 52.2435 45.8482 52.5132 45.726 52.7335C45.6396 52.8809 45.4805 52.9664 45.3214 52.9664C45.2476 52.9664 45.1739 52.9538 45.1011 52.9052ZM8.5389 52.1823C8.37976 51.9728 8.41662 51.6923 8.61263 51.5332C8.80863 51.374 9.10264 51.41 9.26178 51.606C9.42093 51.802 9.38406 52.096 9.18806 52.2552C9.10174 52.3163 9.00464 52.3532 8.89405 52.3532C8.75919 52.3541 8.62522 52.2929 8.5389 52.1823ZM7.79175 51.178C7.6443 50.9703 7.69374 50.688 7.90143 50.5406C8.09744 50.3949 8.39234 50.4426 8.538 50.6521C8.68545 50.8472 8.636 51.1412 8.42831 51.2886C8.34289 51.3498 8.25658 51.3749 8.15858 51.3749C8.02461 51.374 7.87716 51.3003 7.79175 51.178ZM7.09404 50.1495C6.95918 49.9283 7.02031 49.6469 7.2289 49.512C7.44918 49.378 7.73151 49.4392 7.86548 49.6594C8.00034 49.868 7.93919 50.1504 7.7306 50.2843C7.64429 50.3338 7.55888 50.358 7.48515 50.358C7.32691 50.3571 7.17946 50.2834 7.09404 50.1495ZM6.44398 49.0714C6.3217 48.8502 6.39543 48.5688 6.61571 48.4456C6.83599 48.3234 7.11831 48.3962 7.25228 48.6174C7.37456 48.8377 7.28915 49.12 7.06887 49.2539C7.00773 49.2908 6.9214 49.3034 6.84858 49.3034C6.68943 49.3034 6.53029 49.2171 6.44398 49.0714ZM5.85686 47.9808C5.74717 47.7488 5.83259 47.4665 6.06546 47.3568C6.28574 47.2471 6.56805 47.3326 6.67774 47.5645C6.78833 47.7848 6.70202 48.0671 6.48264 48.1768C6.40891 48.2137 6.33519 48.2263 6.27405 48.2263C6.10143 48.2263 5.94228 48.14 5.85686 47.9808ZM5.32999 46.8542C5.2194 46.6223 5.32999 46.3399 5.56286 46.2419C5.79573 46.1439 6.06456 46.2419 6.16256 46.4748C6.27225 46.7068 6.16256 46.9774 5.92969 47.0736C5.86855 47.1105 5.80741 47.1231 5.74627 47.1231C5.56286 47.1231 5.40282 47.0134 5.32999 46.8542ZM4.83998 45.7034C4.75456 45.4705 4.86425 45.2008 5.09712 45.1028C5.34257 45.0165 5.59972 45.1271 5.69772 45.3599C5.79572 45.6054 5.67345 45.8625 5.44058 45.9605C5.37944 45.9848 5.33089 45.9965 5.26885 45.9965C5.08543 45.9965 4.9137 45.8859 4.83998 45.7034ZM4.412 44.539C4.32569 44.2936 4.46055 44.0364 4.69342 43.9501C4.93798 43.8656 5.19512 43.987 5.28144 44.2324C5.36685 44.4779 5.23289 44.735 5.00002 44.8195C4.95057 44.8321 4.90202 44.8447 4.85256 44.8447C4.65656 44.8456 4.48483 44.7224 4.412 44.539Z" fill="#C4DBF7" style="fill:#C4DBF7;fill:color(display-p3 0.7686 0.8588 0.9686);fill-opacity:1;"/>
</g>
<g id="Group_21">
<path id="Vector_47" d="M3.41816 37.9209C4.91338 40.2676 7.2097 43.0836 9.34238 44.6768L4.73895 44.0519L0.801758 46.5164C2.08838 44.1859 3.02166 40.674 3.41816 37.9209Z" fill="#C4DBF7" style="fill:#C4DBF7;fill:color(display-p3 0.7686 0.8588 0.9686);fill-opacity:1;"/>
</g>
</g>
<g id="Group_22">
<g id="Group_23">
<path id="Vector_48" d="M48.4574 15.449C48.3351 15.2288 48.4088 14.9464 48.6408 14.8368C48.8611 14.7145 49.1425 14.7873 49.2531 15.0202C49.3754 15.2405 49.3026 15.5228 49.0697 15.6325C49.0085 15.6819 48.9348 15.6936 48.8494 15.6936C48.6894 15.6936 48.5302 15.6082 48.4574 15.449ZM47.8568 14.4079C47.7219 14.1993 47.7831 13.9179 48.0042 13.783C48.2245 13.6481 48.5069 13.7219 48.6408 13.9305C48.7631 14.1507 48.702 14.4331 48.4817 14.567C48.4079 14.6165 48.3216 14.6282 48.2488 14.6282C48.0897 14.6282 47.9422 14.5544 47.8568 14.4079ZM47.1951 13.4027C47.0476 13.195 47.1096 12.9127 47.3173 12.7661C47.5259 12.6187 47.8073 12.6798 47.9548 12.8884C48.1023 13.097 48.0528 13.3793 47.8325 13.525C47.7588 13.5735 47.6608 13.6113 47.5754 13.6113C47.4279 13.6113 47.2931 13.5385 47.1951 13.4027ZM46.4973 12.4361C46.3382 12.2401 46.3751 11.9452 46.5828 11.787C46.7788 11.6395 47.0602 11.6773 47.2193 11.8724C47.3785 12.081 47.3416 12.3633 47.1339 12.5216C47.0476 12.5827 46.9505 12.6196 46.8525 12.6196C46.7176 12.6196 46.5828 12.5575 46.4973 12.4361ZM45.7376 11.5047C45.5659 11.3087 45.5901 11.0263 45.787 10.8555C45.9705 10.6955 46.2654 10.7207 46.4362 10.905C46.5962 11.101 46.5711 11.395 46.3868 11.5541C46.3013 11.6279 46.1907 11.6638 46.0802 11.6638C45.9588 11.6638 45.823 11.6144 45.7376 11.5047ZM44.9293 10.6235C44.7459 10.4392 44.7585 10.1461 44.9419 9.97439C45.1253 9.79098 45.4193 9.80266 45.591 9.98697C45.7628 10.1704 45.7628 10.4527 45.5794 10.6361C45.493 10.7215 45.3708 10.7584 45.2602 10.7584C45.1379 10.7575 45.0156 10.709 44.9293 10.6235ZM44.0716 9.77748C43.8881 9.60665 43.8755 9.31174 44.0473 9.12833C44.219 8.94491 44.513 8.93233 44.6964 9.10406C44.8798 9.27579 44.8924 9.56979 44.7207 9.75321C44.6353 9.85121 44.513 9.90067 44.3898 9.90067C44.2676 9.89977 44.1579 9.8638 44.0716 9.77748ZM43.1778 8.98087C42.9818 8.82173 42.945 8.52773 43.1167 8.34431C43.2758 8.1492 43.5698 8.11144 43.7659 8.28317C43.9493 8.44231 43.9861 8.73633 43.8153 8.93233C43.729 9.04292 43.595 9.09237 43.4718 9.09237C43.3613 9.09237 43.2633 9.0546 43.1778 8.98087ZM42.2347 8.24631C42.0261 8.09975 41.9775 7.80574 42.1367 7.60974C42.2841 7.40205 42.5656 7.35259 42.7732 7.51263C42.9818 7.65919 43.0178 7.9532 42.8712 8.1492C42.7849 8.27148 42.6384 8.33262 42.5035 8.33262C42.4055 8.33262 42.3084 8.30834 42.2347 8.24631ZM41.243 7.56119C41.0353 7.42632 40.9732 7.144 41.1081 6.92462C41.2547 6.71603 41.5361 6.65489 41.7447 6.78976C41.965 6.93721 42.0261 7.21863 41.8795 7.42633C41.7932 7.56119 41.6467 7.63402 41.5001 7.63402C41.4138 7.63402 41.3284 7.60974 41.243 7.56119ZM40.2261 6.93631C40.0058 6.80144 39.9321 6.52002 40.0543 6.29974C40.1892 6.07946 40.4715 6.00574 40.6909 6.1406C40.8986 6.26288 40.9849 6.5452 40.851 6.76458C40.7646 6.91204 40.6172 6.99745 40.458 6.99745C40.3726 6.99745 40.2998 6.97227 40.2261 6.93631ZM39.1723 6.35998C38.9395 6.2377 38.854 5.96797 38.9646 5.736C39.0869 5.51572 39.3683 5.41772 39.5895 5.53999C39.8224 5.65058 39.9087 5.932 39.7855 6.15229C39.7118 6.31143 39.5526 6.40943 39.3809 6.40943C39.3072 6.40943 39.2335 6.39684 39.1723 6.35998ZM38.0952 5.84569C37.8614 5.74769 37.7517 5.46627 37.8497 5.2334C37.9594 5.01312 38.2292 4.90253 38.462 5.00053C38.6949 5.11112 38.7929 5.37995 38.6949 5.61282C38.6212 5.78455 38.4494 5.88256 38.2786 5.88256C38.2166 5.88256 38.1437 5.86997 38.0952 5.84569ZM36.9803 5.39255C36.7474 5.30623 36.6251 5.0374 36.7106 4.80453C36.7969 4.55907 37.0657 4.44938 37.2986 4.5348C37.544 4.62021 37.6663 4.88994 37.5683 5.12281C37.5072 5.30623 37.3229 5.41682 37.1394 5.41682C37.09 5.41772 37.0288 5.41772 36.9803 5.39255ZM35.8411 5.00053C35.6083 4.9268 35.4617 4.66966 35.5471 4.4251C35.6209 4.19223 35.878 4.05737 36.1226 4.1311C36.3554 4.20483 36.4903 4.46197 36.4166 4.70653C36.3554 4.90163 36.1711 5.02481 35.9751 5.02481C35.9391 5.02481 35.8897 5.02481 35.8411 5.00053ZM22.2574 4.58425C22.1837 4.33879 22.3186 4.08165 22.564 4.00792C22.8086 3.93419 23.054 4.08164 23.1269 4.3262C23.2006 4.55907 23.0657 4.81621 22.8203 4.88994C22.7843 4.90163 22.7349 4.91422 22.698 4.91422C22.4903 4.91512 22.3069 4.78025 22.2574 4.58425ZM34.6894 4.68225C34.4439 4.62021 34.2974 4.36307 34.3585 4.11851C34.4196 3.87306 34.6651 3.7265 34.9097 3.78764C35.1542 3.84878 35.3017 4.09423 35.2522 4.35138C35.1911 4.55997 35.0077 4.69394 34.7991 4.69394C34.7631 4.69394 34.7262 4.69394 34.6894 4.68225ZM23.4335 4.24078C23.3723 3.99623 23.5315 3.75077 23.776 3.68963C24.0215 3.64108 24.266 3.78764 24.3272 4.04478C24.3766 4.28934 24.2292 4.5348 23.9846 4.58335C23.9478 4.59504 23.9109 4.59504 23.874 4.59504C23.6654 4.59594 23.482 4.46196 23.4335 4.24078ZM33.5133 4.4251C33.2679 4.37655 33.1088 4.1311 33.1582 3.88654C33.2077 3.6285 33.4396 3.46936 33.6968 3.51881C33.9422 3.56826 34.1014 3.80023 34.0519 4.05737C34.0151 4.27765 33.819 4.4251 33.6113 4.4251C33.5745 4.4251 33.5502 4.4251 33.5133 4.4251ZM24.6212 3.98364C24.5843 3.7265 24.7561 3.49363 25.0006 3.44508C25.2461 3.40822 25.4906 3.57994 25.5275 3.8254C25.576 4.07086 25.4052 4.31541 25.1606 4.35227C25.1238 4.36396 25.0986 4.36396 25.0743 4.36396C24.8541 4.36396 24.658 4.20482 24.6212 3.98364ZM32.3382 4.21651C32.0811 4.19223 31.9093 3.95937 31.9462 3.70222C31.9831 3.45766 32.2033 3.27425 32.4605 3.31021C32.7176 3.34708 32.8894 3.57994 32.8525 3.8245C32.8156 4.05737 32.6196 4.2282 32.3993 4.2282C32.3742 4.2291 32.3625 4.2291 32.3382 4.21651ZM25.8341 3.77595C25.8098 3.53139 25.9815 3.29762 26.2387 3.26166C26.4832 3.23738 26.7161 3.4208 26.7413 3.66626C26.7781 3.9234 26.5938 4.15627 26.3493 4.18055C26.0544 4.17965 25.8583 4.00882 25.8341 3.77595ZM31.1379 4.09424C30.8924 4.06996 30.6973 3.84877 30.7216 3.59163C30.7459 3.34617 30.9662 3.15107 31.2233 3.17535C31.4688 3.19962 31.6648 3.4199 31.6405 3.67705C31.6162 3.90991 31.4202 4.09424 31.1748 4.09424C31.1622 4.09424 31.1496 4.09424 31.1379 4.09424ZM27.047 3.64108C27.0344 3.38394 27.2304 3.16276 27.4749 3.15107C27.7321 3.13848 27.9533 3.3219 27.965 3.57994C27.9892 3.8245 27.7932 4.04478 27.5361 4.06996C27.2664 4.06996 27.0713 3.88654 27.047 3.64108ZM29.9493 4.02051C29.6921 4.00792 29.4961 3.80023 29.4961 3.54308C29.5078 3.29763 29.7164 3.10252 29.9736 3.10252C30.2307 3.11421 30.4267 3.3228 30.415 3.58085C30.415 3.8254 30.2064 4.02141 29.9619 4.02141C29.9493 4.02051 29.9493 4.02051 29.9493 4.02051ZM28.2716 3.56735C28.2716 3.31021 28.4676 3.10162 28.7247 3.10162C28.9819 3.08903 29.1904 3.29672 29.1904 3.54218C29.2021 3.79932 28.9944 4.00702 28.7373 4.00702C28.4801 4.00882 28.2716 3.81281 28.2716 3.56735Z" fill="#C4DBF7" style="fill:#C4DBF7;fill:color(display-p3 0.7686 0.8588 0.9686);fill-opacity:1;"/>
</g>
<g id="Group_24">
<path id="Vector_49" d="M51.1626 21.386C49.359 19.2668 46.6986 16.7924 44.3672 15.5067L49.0129 15.4941L52.5751 12.5127C51.6194 14.9969 51.177 18.6041 51.1626 21.386Z" fill="#C4DBF7" style="fill:#C4DBF7;fill:color(display-p3 0.7686 0.8588 0.9686);fill-opacity:1;"/>
</g>
</g>
</g>
</svg>
