<svg width="40" height="42" viewBox="0 0 40 42" fill="none" xmlns="http://www.w3.org/2000/svg">
<g id="Mask group">
<mask id="mask0_3_127" style="mask-type:luminance" maskUnits="userSpaceOnUse" x="0" y="0" width="40" height="42">
<g id="Group">
<g id="Group_2">
<path id="Vector" d="M2.71387 39.3046H37.4651M2.71387 33.5127H37.4651" stroke="white" style="stroke:white;stroke-opacity:1;" stroke-width="4" stroke-linecap="round"/>
<path id="Vector_2" d="M5.61133 22.8947C5.61133 14.8981 12.0944 8.41504 20.091 8.41504C28.0877 8.41504 34.5707 14.8981 34.5707 22.8947V33.5132H5.61133V22.8947Z" fill="white" stroke="white" style="fill:white;fill-opacity:1;stroke:white;stroke-opacity:1;" stroke-width="4" stroke-linecap="round" stroke-linejoin="round"/>
<path id="Vector_3" d="M13.333 22.8945V26.7558" stroke="black" style="stroke:black;stroke-opacity:1;" stroke-width="4" stroke-linecap="round"/>
<path id="Vector_4" d="M23.95 8.41492V6.4843C23.95 5.46023 23.5432 4.47811 22.8191 3.75398C22.095 3.02986 21.1129 2.62305 20.0888 2.62305C19.0647 2.62305 18.0826 3.02986 17.3585 3.75398C16.6343 4.47811 16.2275 5.46023 16.2275 6.4843V8.41492" stroke="white" style="stroke:white;stroke-opacity:1;" stroke-width="4"/>
</g>
</g>
</mask>
<g mask="url(#mask0_3_127)">
<path id="Vector_5" d="M-3.07715 -1.23828H43.2579V45.0967H-3.07715V-1.23828Z" fill="black" style="fill:black;fill-opacity:1;"/>
</g>
</g>
</svg>
