<svg width="23" height="23" viewBox="0 0 23 23" fill="none" xmlns="http://www.w3.org/2000/svg">
<g id="Mask group">
<mask id="mask0_212_1926" style="mask-type:luminance" maskUnits="userSpaceOnUse" x="0" y="0" width="23" height="23">
<g id="Group">
<g id="Group_2">
<path id="Vector" d="M2.03418 21.4418H21.1247M2.03418 18.26H21.1247" stroke="white" style="stroke:white;stroke-opacity:1;" stroke-width="2.1974" stroke-linecap="round"/>
<path id="Vector_2" d="M3.62598 12.4268C3.62598 8.03386 7.18743 4.47241 11.5804 4.47241C15.9733 4.47241 19.5348 8.03386 19.5348 12.4268V18.26H3.62598V12.4268Z" fill="white" stroke="white" style="fill:white;fill-opacity:1;stroke:white;stroke-opacity:1;" stroke-width="2.1974" stroke-linecap="round" stroke-linejoin="round"/>
<path id="Vector_3" d="M7.86816 12.4266V14.5478" stroke="black" style="stroke:black;stroke-opacity:1;" stroke-width="2.1974" stroke-linecap="round"/>
<path id="Vector_4" d="M13.7004 4.47229V3.4117C13.7004 2.84913 13.4769 2.3096 13.0791 1.9118C12.6813 1.51401 12.1418 1.29053 11.5792 1.29053C11.0166 1.29053 10.4771 1.51401 10.0793 1.9118C9.68149 2.3096 9.45801 2.84913 9.45801 3.4117V4.47229" stroke="white" style="stroke:white;stroke-opacity:1;" stroke-width="2.1974"/>
</g>
</g>
</mask>
<g mask="url(#mask0_212_1926)">
<path id="Vector_5" d="M-1.14746 -0.831299H24.3066V24.6228H-1.14746V-0.831299Z" fill="black" style="fill:black;fill-opacity:1;"/>
</g>
</g>
</svg>
