<svg width="128" height="106" viewBox="0 0 128 106" fill="none" xmlns="http://www.w3.org/2000/svg">
<g id="OBJECTS">
<g id="Group">
<path id="Vector" opacity="0.27" d="M8.71502 98.5508C9.48052 99.1215 10.823 99.531 12.1465 99.9208H122.358C122.526 99.818 122.689 99.7073 122.843 99.5795C123.809 98.776 124.318 97.5608 124.751 96.381C126.842 90.686 127.976 84.5462 127.244 78.5239C126.511 72.5016 123.789 66.6046 119.145 62.7018C116.775 60.7108 113.965 59.2663 111.742 57.1123C104.918 50.4977 104.822 38.5044 96.9898 33.1206C93.3813 30.6401 88.76 30.1099 84.3907 30.3984C80.309 30.6679 76.2109 31.6119 72.6787 33.6746C68.9899 35.8289 66.0969 39.0797 63.0314 42.0547C56.8868 48.0185 49.424 53.1993 40.919 54.191C35.5089 54.8218 30.0337 53.7168 24.5971 54.0488C18.6631 54.4113 12.8473 56.5303 8.07101 60.0703C5.01249 62.3371 2.32273 65.2638 0.994718 68.8319C-0.970044 74.1109 0.270214 80.0327 2.16848 85.3359C3.47823 88.9947 5.52575 96.173 8.71502 98.5508Z" fill="#E53990" style="fill:#E53990;fill:color(display-p3 0.8980 0.2235 0.5647);fill-opacity:1;"/>
<path id="Vector_2" opacity="0.27" d="M119.638 83.518C116.74 88.9538 113.821 94.3783 110.921 99.8126C110.531 100.544 110.115 101.305 109.429 101.771C108.543 102.372 107.393 102.364 106.323 102.333C100.525 102.168 94.7404 102.063 88.9428 102.01C75.593 101.888 62.2429 101.766 48.8931 101.645C42.903 101.59 36.9133 101.535 30.9232 101.481C27.0049 101.445 23.1074 101.595 19.1977 101.606C17.2096 101.612 15.0994 101.232 13.6294 99.8933C12.4069 98.7801 11.7944 97.1628 11.2629 95.5971C8.40183 87.1678 6.67932 78.3535 6.14882 69.4679C5.69381 61.8461 7.38983 54.1476 13.4939 49.0188C15.7684 47.1075 18.4664 45.7207 20.5997 43.653C27.151 37.3032 27.2429 25.7904 34.7615 20.6221C38.2255 18.2408 42.6616 17.7318 46.8561 18.0088C50.7744 18.2676 54.7084 19.1738 58.0991 21.1541C61.6404 23.2219 64.4174 26.3426 67.36 29.1986C73.2585 34.9234 80.4223 39.8967 88.5868 40.849C93.7801 41.4545 99.0361 40.3935 104.255 40.7125C109.951 41.0605 115.534 43.0947 120.119 46.4928C123.055 48.6688 125.637 51.4783 126.912 54.9033C129.697 62.3869 126.661 70.2384 123.147 76.9027C121.983 79.11 120.812 81.315 119.638 83.518Z" fill="#E53990" style="fill:#E53990;fill:color(display-p3 0.8980 0.2235 0.5647);fill-opacity:1;"/>
</g>
<g id="Group_2">
<g id="Group_3">
<g id="Group_4">
<g id="Group_5">
<path id="Vector_3" d="M97.9697 85.2698C97.9697 85.2698 102.34 87.734 102.267 86.1285C102.202 84.6905 98.8055 85.1398 98.098 85.249C98.0155 85.2618 97.9697 85.2698 97.9697 85.2698Z" fill="#E53990" style="fill:#E53990;fill:color(display-p3 0.8980 0.2235 0.5647);fill-opacity:1;"/>
</g>
<g id="Group_6">
<path id="Vector_4" d="M98.0143 85.2169C98.0143 85.2169 100.479 80.8468 98.873 80.9193C97.2675 80.9921 98.0143 85.2169 98.0143 85.2169Z" fill="#E53990" style="fill:#E53990;fill:color(display-p3 0.8980 0.2235 0.5647);fill-opacity:1;"/>
</g>
<g id="Group_7">
<path id="Vector_5" d="M95.2412 87.1902C95.2412 87.1902 99.6112 89.6545 99.5387 88.0489C99.4662 86.4437 95.2412 87.1902 95.2412 87.1902Z" fill="#E53990" style="fill:#E53990;fill:color(display-p3 0.8980 0.2235 0.5647);fill-opacity:1;"/>
</g>
<g id="Group_8">
<path id="Vector_6" d="M95.2271 87.1973C95.2271 87.1973 97.6913 82.8273 96.0858 82.8998C94.4806 82.9723 95.2271 87.1973 95.2271 87.1973Z" fill="#E53990" style="fill:#E53990;fill:color(display-p3 0.8980 0.2235 0.5647);fill-opacity:1;"/>
</g>
<g id="Group_9">
<path id="Vector_7" d="M93.0527 89.1072C93.0527 89.1072 96.8865 91.2689 96.823 89.8607C96.7593 88.4522 93.0527 89.1072 93.0527 89.1072Z" fill="#E53990" style="fill:#E53990;fill:color(display-p3 0.8980 0.2235 0.5647);fill-opacity:1;"/>
</g>
<g id="Group_10">
<path id="Vector_8" d="M93.0681 89.1426C93.0681 89.1426 95.2299 85.3089 93.8216 85.3724C92.4131 85.4359 93.0681 89.1426 93.0681 89.1426Z" fill="#E53990" style="fill:#E53990;fill:color(display-p3 0.8980 0.2235 0.5647);fill-opacity:1;"/>
</g>
<g id="Group_11">
<path id="Vector_9" d="M91.1191 91.1953C91.1191 91.1953 94.9427 92.7418 94.7137 91.4408C94.4847 90.1393 91.1191 91.1953 91.1191 91.1953Z" fill="#E53990" style="fill:#E53990;fill:color(display-p3 0.8980 0.2235 0.5647);fill-opacity:1;"/>
</g>
<g id="Group_12">
<path id="Vector_10" d="M91.1795 91.2499C91.1795 91.2499 92.726 87.4264 91.425 87.6554C90.1238 87.8842 91.1795 91.2499 91.1795 91.2499Z" fill="#E53990" style="fill:#E53990;fill:color(display-p3 0.8980 0.2235 0.5647);fill-opacity:1;"/>
</g>
<g id="Group_13">
<g id="Group_14">
<path id="Vector_11" d="M89.458 93.4605C89.458 93.4605 93.5515 93.966 92.9938 92.7682C92.436 91.5705 89.458 93.4605 89.458 93.4605Z" fill="#E53990" style="fill:#E53990;fill:color(display-p3 0.8980 0.2235 0.5647);fill-opacity:1;"/>
</g>
<g id="Group_15">
<path id="Vector_12" d="M89.5098 93.4562C89.5098 93.4562 90.0153 89.3626 88.8176 89.9204C87.6198 90.4781 89.5098 93.4562 89.5098 93.4562Z" fill="#E53990" style="fill:#E53990;fill:color(display-p3 0.8980 0.2235 0.5647);fill-opacity:1;"/>
</g>
</g>
<g id="Group_16">
<g id="Group_17">
<path id="Vector_13" d="M88.1523 95.6538C88.1523 95.6538 91.7014 96.092 91.2179 95.0535C90.7344 94.015 88.1523 95.6538 88.1523 95.6538Z" fill="#E53990" style="fill:#E53990;fill:color(display-p3 0.8980 0.2235 0.5647);fill-opacity:1;"/>
</g>
<g id="Group_18">
<path id="Vector_14" d="M88.2419 95.6733C88.2419 95.6733 88.6801 92.1243 87.6416 92.6078C86.6031 93.0913 88.2419 95.6733 88.2419 95.6733Z" fill="#E53990" style="fill:#E53990;fill:color(display-p3 0.8980 0.2235 0.5647);fill-opacity:1;"/>
</g>
</g>
<g id="Group_19">
<g id="Group_20">
<path id="Vector_15" d="M87.2832 97.4164C87.2832 97.4164 90.3142 97.7906 89.9015 96.9039C89.4885 96.0169 87.2832 97.4164 87.2832 97.4164Z" fill="#E53990" style="fill:#E53990;fill:color(display-p3 0.8980 0.2235 0.5647);fill-opacity:1;"/>
</g>
<g id="Group_21">
<path id="Vector_16" d="M87.3763 97.446C87.3763 97.446 87.7506 94.4149 86.8638 94.8277C85.9768 95.2407 87.3763 97.446 87.3763 97.446Z" fill="#E53990" style="fill:#E53990;fill:color(display-p3 0.8980 0.2235 0.5647);fill-opacity:1;"/>
</g>
</g>
</g>
</g>
<path id="Vector_17" d="M97.7754 85.4026C97.7754 85.4026 102.582 83.4366 102.076 82.5448C101.569 81.6531 97.7754 85.4026 97.7754 85.4026Z" fill="#E53990" style="fill:#E53990;fill:color(display-p3 0.8980 0.2235 0.5647);fill-opacity:1;"/>
<path id="Vector_18" d="M98.7268 84.7939C98.7268 84.7939 88.1503 90.3035 85.9482 102.163" stroke="#E53990" style="stroke:#E53990;stroke:color(display-p3 0.8980 0.2235 0.5647);stroke-opacity:1;" stroke-miterlimit="10"/>
</g>
<g id="Group_22">
<g id="Group_23">
<g id="Group_24">
<g id="Group_25">
<path id="Vector_19" d="M21.5337 72.6232C21.5337 72.6232 12.8611 72.7157 14.3084 70.3442C15.6047 68.2199 20.3759 71.7299 21.3567 72.4849C21.4709 72.5727 21.5337 72.6232 21.5337 72.6232Z" fill="#E53990" style="fill:#E53990;fill:color(display-p3 0.8980 0.2235 0.5647);fill-opacity:1;"/>
</g>
<g id="Group_26">
<path id="Vector_20" d="M21.5112 72.5068C21.5112 72.5068 21.4187 63.8343 23.7902 65.2815C26.1615 66.7288 21.5112 72.5068 21.5112 72.5068Z" fill="#E53990" style="fill:#E53990;fill:color(display-p3 0.8980 0.2235 0.5647);fill-opacity:1;"/>
</g>
<g id="Group_27">
<path id="Vector_21" d="M24.0698 77.8066C24.0698 77.8066 15.3973 77.8988 16.8445 75.5275C18.2915 73.156 24.0698 77.8066 24.0698 77.8066Z" fill="#E53990" style="fill:#E53990;fill:color(display-p3 0.8980 0.2235 0.5647);fill-opacity:1;"/>
</g>
<g id="Group_28">
<path id="Vector_22" d="M24.0835 77.8284C24.0835 77.8284 23.991 69.1558 26.3625 70.6031C28.734 72.0501 24.0835 77.8284 24.0835 77.8284Z" fill="#E53990" style="fill:#E53990;fill:color(display-p3 0.8980 0.2235 0.5647);fill-opacity:1;"/>
</g>
<g id="Group_29">
<path id="Vector_23" d="M25.7844 82.5318C25.7844 82.5318 18.1759 82.6128 19.4457 80.5323C20.7152 78.4517 25.7844 82.5318 25.7844 82.5318Z" fill="#E53990" style="fill:#E53990;fill:color(display-p3 0.8980 0.2235 0.5647);fill-opacity:1;"/>
</g>
<g id="Group_30">
<path id="Vector_24" d="M25.7328 82.5735C25.7328 82.5735 25.6518 74.965 27.7324 76.2347C29.8129 77.5042 25.7328 82.5735 25.7328 82.5735Z" fill="#E53990" style="fill:#E53990;fill:color(display-p3 0.8980 0.2235 0.5647);fill-opacity:1;"/>
</g>
<g id="Group_31">
<path id="Vector_25" d="M26.9743 87.3064C26.9743 87.3064 19.8938 86.4639 21.3248 84.6837C22.7555 82.9034 26.9743 87.3064 26.9743 87.3064Z" fill="#E53990" style="fill:#E53990;fill:color(display-p3 0.8980 0.2235 0.5647);fill-opacity:1;"/>
</g>
<g id="Group_32">
<path id="Vector_26" d="M26.8389 87.3395C26.8389 87.3395 27.6814 80.259 29.4616 81.69C31.2419 83.1208 26.8389 87.3395 26.8389 87.3395Z" fill="#E53990" style="fill:#E53990;fill:color(display-p3 0.8980 0.2235 0.5647);fill-opacity:1;"/>
</g>
</g>
</g>
<path id="Vector_27" d="M21.7174 72.9858C21.7174 72.9858 16.0734 66.003 17.5841 65.0745C19.0949 64.1457 21.7174 72.9858 21.7174 72.9858Z" fill="#E53990" style="fill:#E53990;fill:color(display-p3 0.8980 0.2235 0.5647);fill-opacity:1;"/>
<path id="Vector_28" d="M20.7832 71.271C20.7832 71.271 27.7762 81.7658 27.6925 95.8119" stroke="#E53990" style="stroke:#E53990;stroke:color(display-p3 0.8980 0.2235 0.5647);stroke-opacity:1;" stroke-miterlimit="10" stroke-linecap="round" stroke-linejoin="round"/>
</g>
<g id="Group_33">
<g id="Group_34">
<g id="Group_35">
<g id="Group_36">
<path id="Vector_29" d="M94.5918 45.9885C94.5918 45.9885 99.6256 53.0513 100.69 50.4851C101.643 48.1863 95.9956 46.398 94.808 46.05C94.6695 46.0095 94.5918 45.9885 94.5918 45.9885Z" fill="#E53990" style="fill:#E53990;fill:color(display-p3 0.8980 0.2235 0.5647);fill-opacity:1;"/>
</g>
<g id="Group_37">
<path id="Vector_30" d="M94.6992 45.9375C94.6992 45.9375 101.762 40.9037 99.1957 39.8397C96.6292 38.7759 94.6992 45.9375 94.6992 45.9375Z" fill="#E53990" style="fill:#E53990;fill:color(display-p3 0.8980 0.2235 0.5647);fill-opacity:1;"/>
</g>
<g id="Group_38">
<path id="Vector_31" d="M88.9102 46.9922C88.9102 46.9922 93.9439 54.055 95.0079 51.4887C96.0719 48.9224 88.9102 46.9922 88.9102 46.9922Z" fill="#E53990" style="fill:#E53990;fill:color(display-p3 0.8980 0.2235 0.5647);fill-opacity:1;"/>
</g>
<g id="Group_39">
<path id="Vector_32" d="M88.8848 46.9939C88.8848 46.9939 95.9476 41.9601 93.3813 40.8961C90.815 39.8323 88.8848 46.9939 88.8848 46.9939Z" fill="#E53990" style="fill:#E53990;fill:color(display-p3 0.8980 0.2235 0.5647);fill-opacity:1;"/>
</g>
<g id="Group_40">
<path id="Vector_33" d="M84.0811 48.3892C84.0811 48.3892 88.4973 54.5854 89.4306 52.3339C90.3641 50.0824 84.0811 48.3892 84.0811 48.3892Z" fill="#E53990" style="fill:#E53990;fill:color(display-p3 0.8980 0.2235 0.5647);fill-opacity:1;"/>
</g>
<g id="Group_41">
<path id="Vector_34" d="M84.0781 48.4556C84.0781 48.4556 90.2744 44.0396 88.0229 43.1061C85.7711 42.1726 84.0781 48.4556 84.0781 48.4556Z" fill="#E53990" style="fill:#E53990;fill:color(display-p3 0.8980 0.2235 0.5647);fill-opacity:1;"/>
</g>
<g id="Group_42">
<path id="Vector_35" d="M79.5215 50.2402C79.5215 50.2402 84.3728 55.4658 84.9688 53.2607C85.5645 51.056 79.5215 50.2402 79.5215 50.2402Z" fill="#E53990" style="fill:#E53990;fill:color(display-p3 0.8980 0.2235 0.5647);fill-opacity:1;"/>
</g>
<g id="Group_43">
<path id="Vector_36" d="M79.5752 50.3697C79.5752 50.3697 84.8007 45.5184 82.5957 44.9224C80.391 44.3267 79.5752 50.3697 79.5752 50.3697Z" fill="#E53990" style="fill:#E53990;fill:color(display-p3 0.8980 0.2235 0.5647);fill-opacity:1;"/>
</g>
<g id="Group_44">
<g id="Group_45">
<path id="Vector_37" d="M75.2598 52.5679C75.2598 52.5679 81.2973 56.3614 81.3028 54.0776C81.3083 51.7934 75.2598 52.5679 75.2598 52.5679Z" fill="#E53990" style="fill:#E53990;fill:color(display-p3 0.8980 0.2235 0.5647);fill-opacity:1;"/>
</g>
<g id="Group_46">
<path id="Vector_38" d="M75.3432 52.5987C75.3432 52.5987 79.137 46.5612 76.853 46.5557C74.5689 46.5502 75.3432 52.5987 75.3432 52.5987Z" fill="#E53990" style="fill:#E53990;fill:color(display-p3 0.8980 0.2235 0.5647);fill-opacity:1;"/>
</g>
</g>
<g id="Group_47">
<g id="Group_48">
<path id="Vector_39" d="M71.6094 55.044C71.6094 55.044 76.8439 58.333 76.8487 56.3528C76.8534 54.3725 71.6094 55.044 71.6094 55.044Z" fill="#E53990" style="fill:#E53990;fill:color(display-p3 0.8980 0.2235 0.5647);fill-opacity:1;"/>
</g>
<g id="Group_49">
<path id="Vector_40" d="M71.7347 55.1397C71.7347 55.1397 75.0237 49.9051 73.0434 49.9004C71.0632 49.8956 71.7347 55.1397 71.7347 55.1397Z" fill="#E53990" style="fill:#E53990;fill:color(display-p3 0.8980 0.2235 0.5647);fill-opacity:1;"/>
</g>
</g>
<g id="Group_50">
<g id="Group_51">
<path id="Vector_41" d="M68.9521 57.1657C68.9521 57.1657 73.4227 59.9747 73.4267 58.2834C73.4309 56.5922 68.9521 57.1657 68.9521 57.1657Z" fill="#E53990" style="fill:#E53990;fill:color(display-p3 0.8980 0.2235 0.5647);fill-opacity:1;"/>
</g>
<g id="Group_52">
<path id="Vector_42" d="M69.0761 57.2799C69.0761 57.2799 71.8851 52.8094 70.1938 52.8054C68.5026 52.8012 69.0761 57.2799 69.0761 57.2799Z" fill="#E53990" style="fill:#E53990;fill:color(display-p3 0.8980 0.2235 0.5647);fill-opacity:1;"/>
</g>
</g>
</g>
</g>
<path id="Vector_43" d="M94.1924 46.0541C94.1924 46.0541 103.16 46.5021 103.02 44.7341C102.881 42.9663 94.1924 46.0541 94.1924 46.0541Z" fill="#E53990" style="fill:#E53990;fill:color(display-p3 0.8980 0.2235 0.5647);fill-opacity:1;"/>
<path id="Vector_44" d="M96.1283 45.7988C96.1283 45.7988 75.5296 46.6666 63.3838 63.6179" stroke="#E53990" style="stroke:#E53990;stroke:color(display-p3 0.8980 0.2235 0.5647);stroke-opacity:1;" stroke-miterlimit="10"/>
</g>
<g id="Group_53">
<g id="Group_54">
<g id="Group_55">
<path id="Vector_45" d="M49.5978 65.9925C49.9108 65.8565 47.3173 58.2367 47.1488 57.8337C44.6331 51.8141 40.879 46.9141 36.3333 43.7418C27.9357 37.8818 18.1264 38.4791 8.70508 40.7323C9.87334 40.7603 10.9306 41.4956 11.8861 42.3246C18.1374 47.7489 21.4537 57.6449 27.8982 62.6817C34.147 67.5657 42.3105 69.1315 49.5978 65.9925Z" fill="#E53990" style="fill:#E53990;fill:color(display-p3 0.8980 0.2235 0.5647);fill-opacity:1;"/>
</g>
</g>
<g id="Group_56">
<path id="Vector_46" d="M45.8658 64.341C45.8658 64.341 34.2869 44.4091 13.5078 41.6721" stroke="white" style="stroke:white;stroke-opacity:1;" stroke-miterlimit="10" stroke-linecap="round" stroke-linejoin="round"/>
<path id="Vector_47" d="M27.0572 41.0828L29.1652 47.3951L18.7129 47.8406" stroke="white" style="stroke:white;stroke-opacity:1;" stroke-miterlimit="10" stroke-linecap="round" stroke-linejoin="round"/>
<path id="Vector_48" d="M35.0578 46.3315L37.1135 53.6268L28.3242 54.0866" stroke="white" style="stroke:white;stroke-opacity:1;" stroke-miterlimit="10" stroke-linecap="round" stroke-linejoin="round"/>
<path id="Vector_49" d="M42.1798 53.0449L43.3068 60.5715L34.4062 59.7572" stroke="white" style="stroke:white;stroke-opacity:1;" stroke-miterlimit="10" stroke-linecap="round" stroke-linejoin="round"/>
</g>
</g>
<g id="Group_57">
<g id="Group_58">
<g id="Group_59">
<g id="Group_60">
<g id="Group_61">
<path id="Vector_50" d="M52.2197 64.0813L50.7869 67.7186L41.3296 91.7425L40.3468 88.182L39.2988 77.2151L43.3411 65.2661L52.2197 64.0813Z" fill="#FAAD3B" stroke="#E53990" style="fill:#FAAD3B;fill:color(display-p3 0.9804 0.6784 0.2314);fill-opacity:1;stroke:#E53990;stroke:color(display-p3 0.8980 0.2235 0.5647);stroke-opacity:1;" stroke-miterlimit="10"/>
<g id="Group_62" opacity="0.75">
<path id="Vector_51" d="M50.7877 67.7183L41.3304 91.7422L40.3477 88.1817L49.7895 67.5071L50.7877 67.7183Z" fill="#F5E073" style="fill:#F5E073;fill:color(display-p3 0.9608 0.8784 0.4510);fill-opacity:1;"/>
</g>
</g>
<g id="Group_63">
<path id="Vector_52" d="M84.5161 81.4772L83.2668 87.7624L82.4771 91.7425L73.0197 67.7186L71.584 64.0813L80.4625 65.2661L84.5161 81.4772Z" fill="#FAAD3B" stroke="#E53990" style="fill:#FAAD3B;fill:color(display-p3 0.9804 0.6784 0.2314);fill-opacity:1;stroke:#E53990;stroke:color(display-p3 0.8980 0.2235 0.5647);stroke-opacity:1;" stroke-miterlimit="10"/>
<g id="Group_64" opacity="0.75">
<path id="Vector_53" d="M83.2666 87.7624L82.4768 91.7425L73.0195 67.7186L74.0178 67.5073L83.2666 87.7624Z" fill="#F5E073" style="fill:#F5E073;fill:color(display-p3 0.9608 0.8784 0.4510);fill-opacity:1;"/>
</g>
</g>
<g id="Group_65">
<g id="Group_66">
<g id="Group_67">
<path id="Vector_54" d="M51.3454 81.6C51.3127 81.6 51.2812 81.587 51.2577 81.564C51.2337 81.5405 51.2204 81.5083 51.2204 81.475C51.2204 81.2738 51.2154 81.0708 51.2079 80.8695L51.2009 80.571L51.1937 80.395C51.1892 80.2898 51.1849 80.1858 51.1784 80.0833C51.1657 79.8487 51.1532 79.616 51.1432 79.383C51.1134 78.9672 51.0811 78.5505 51.0436 78.1387L51.0381 78.0752C51.0339 78.03 51.0299 77.9855 51.0281 77.9395L51.0204 77.6637L51.0141 77.5167C51.0096 77.409 51.0051 77.303 50.9981 77.1952L50.9606 76.4965C50.9334 76.0792 50.9009 75.6652 50.8634 75.2512L50.8334 74.893L50.7911 74.4912C50.7776 74.3557 50.7656 74.2345 50.7514 74.1175L50.7329 73.949C50.7171 73.805 50.7019 73.6627 50.6839 73.5205L50.6644 73.3762L50.6189 73.005C50.6039 72.884 50.5891 72.7647 50.5719 72.6482L50.5621 72.58C50.5479 72.4805 50.5339 72.3822 50.5214 72.2857L50.4519 71.8137C50.4411 71.7384 50.4304 71.663 50.4174 71.589C50.3996 71.4694 50.3821 71.3582 50.3624 71.2469C50.3096 70.9074 50.2546 70.5779 50.1999 70.2559C50.1849 70.1639 50.1701 70.0777 50.1529 69.9889C50.1184 69.7864 50.0814 69.5899 50.0449 69.3969L50.0179 69.2529C49.9906 69.1117 49.9631 68.9744 49.9356 68.8372C49.8771 68.5354 49.8189 68.2487 49.7624 67.9762C46.4654 67.6597 42.8129 65.9909 42.7759 65.9737C42.7141 65.9452 42.6863 65.8724 42.7136 65.8102L47.2211 55.5151C48.2401 53.8901 52.2639 52.6381 55.4614 51.8711C57.0667 51.4888 58.3489 51.2556 58.6269 51.2066C58.6427 51.1993 58.6599 51.1951 58.6772 51.1951C58.6809 51.1951 61.982 51.4956 61.982 51.4956C61.982 51.4956 65.377 51.1951 65.3805 51.1951C65.3995 51.1951 65.418 51.1993 65.4352 51.2076C66.0867 51.3188 75.2246 52.9441 76.8266 55.4988L81.3426 65.8102C81.3698 65.8724 81.3423 65.9452 81.2803 65.9737C81.2423 65.9912 77.4661 67.7154 74.129 67.9927C72.7033 73.4692 72.787 81.0695 72.788 81.1458C72.789 81.2148 72.7338 81.2715 72.665 81.2725L69.5253 81.3203L64.7927 81.3953L59.2775 81.4803L58.6244 81.4878C58.6244 81.4878 51.3462 81.6 51.3454 81.6Z" fill="#F5E073" style="fill:#F5E073;fill:color(display-p3 0.9608 0.8784 0.4510);fill-opacity:1;"/>
<path id="Vector_55" d="M65.3806 51.3198V51.3248C65.4131 51.3298 75.1107 52.9973 76.7207 55.5648L81.2282 65.8599C81.2282 65.8599 77.4057 67.6199 74.0307 67.8749C72.5606 73.4375 72.6631 81.1475 72.6631 81.1475L69.5231 81.195L64.7906 81.27L59.2756 81.355L58.6231 81.3625L55.743 81.4075L51.3455 81.475C51.3455 81.2725 51.3405 81.0675 51.333 80.865C51.3305 80.7575 51.328 80.65 51.3255 80.5475C51.318 80.3875 51.313 80.23 51.303 80.075C51.2905 79.8425 51.278 79.61 51.268 79.3775C51.238 78.9575 51.2055 78.54 51.168 78.1275C51.163 78.0625 51.1555 78 51.153 77.935C51.1505 77.8425 51.148 77.7475 51.1455 77.66C51.138 77.5 51.133 77.345 51.123 77.1875C51.1105 76.955 51.098 76.7225 51.0855 76.49C51.058 76.07 51.0255 75.655 50.988 75.24C50.978 75.12 50.968 75.0025 50.958 74.8825C50.943 74.7475 50.9305 74.6125 50.9155 74.4775C50.903 74.3525 50.8905 74.225 50.8755 74.1025C50.853 73.9 50.833 73.7025 50.808 73.505C50.8005 73.455 50.7955 73.4075 50.788 73.3575C50.773 73.2325 50.758 73.1125 50.743 72.99C50.728 72.8675 50.713 72.7475 50.6955 72.63C50.678 72.5075 50.6605 72.3875 50.6455 72.27C50.628 72.1525 50.6105 72.0324 50.593 71.9149C50.5755 71.7999 50.5605 71.6824 50.5405 71.5674C50.523 71.4499 50.5055 71.3374 50.4855 71.2249C50.433 70.8874 50.378 70.5574 50.323 70.2349C50.308 70.1424 50.293 70.0549 50.2755 69.9649C50.233 69.7149 50.1855 69.4699 50.1405 69.2299C50.113 69.0874 50.0855 68.9499 50.058 68.8124C49.993 68.4774 49.928 68.1599 49.8655 67.8599C46.528 67.5649 42.828 65.8599 42.828 65.8599L47.3355 55.5648C48.3405 53.9648 52.5005 52.7098 55.4905 51.9923C57.2856 51.5648 58.6606 51.3273 58.6731 51.3248L58.6756 51.3198L58.7506 51.3273L61.9706 51.6198L65.3806 51.3198ZM58.6756 51.0698C58.6446 51.0698 58.6141 51.0756 58.5861 51.0866C58.2598 51.1448 56.9948 51.3773 55.4328 51.7493C52.212 52.5221 48.1563 53.7883 47.124 55.4321C47.1175 55.4426 47.1117 55.4536 47.1067 55.4648L42.5992 65.7599C42.5445 65.8847 42.6 66.0302 42.7235 66.0872C42.8732 66.1562 46.3687 67.7532 49.6583 68.0914C49.7088 68.3364 49.7608 68.5927 49.8128 68.8602C49.8413 69.0029 49.8683 69.1377 49.8953 69.2774L49.9235 69.4269C49.9595 69.6172 49.996 69.8104 50.0293 70.0069C50.0473 70.1002 50.0618 70.1852 50.0765 70.2752C50.1318 70.5984 50.1865 70.9272 50.2388 71.2637C50.2593 71.3792 50.2763 71.4894 50.2935 71.6047C50.307 71.6832 50.3175 71.7569 50.3283 71.8302L50.3463 71.9529L50.3725 72.1304L50.3988 72.3072C50.411 72.403 50.4258 72.5057 50.4405 72.6105L50.4485 72.6657C50.466 72.7827 50.4805 72.9005 50.4953 73.0207L50.5103 73.1427L50.5403 73.3875C50.5448 73.418 50.5478 73.4407 50.5505 73.4635C50.5538 73.4895 50.5573 73.5155 50.5613 73.5422C50.5783 73.6767 50.5935 73.8167 50.6088 73.9587L50.6275 74.1302C50.6415 74.2442 50.653 74.3597 50.6643 74.4737L50.667 74.5025C50.6748 74.572 50.6815 74.6387 50.6883 74.7057C50.6953 74.774 50.7023 74.8422 50.7098 74.9102L50.7248 75.0895L50.7393 75.261C50.777 75.6782 50.8095 76.0967 50.8365 76.5065L50.8738 77.201C50.8805 77.309 50.885 77.4132 50.8895 77.5187L50.8963 77.6717L50.9018 77.872L50.9038 77.9417C50.9058 77.9917 50.9098 78.0377 50.914 78.0842L50.9195 78.1467C50.9533 78.5185 50.9858 78.9257 51.0195 79.3952C51.0293 79.6215 51.0418 79.855 51.0543 80.0885C51.061 80.195 51.0655 80.3 51.07 80.406L51.0768 80.5592L51.084 80.871C51.0925 81.0985 51.0965 81.295 51.0965 81.4753C51.0965 81.5423 51.1233 81.6063 51.171 81.6533C51.2178 81.6993 51.2808 81.7253 51.3465 81.7253C51.3478 81.7253 51.349 81.7253 51.3503 81.7253L55.7478 81.6578L58.6278 81.6128L59.2793 81.6053L64.7954 81.5203L69.5279 81.4453L72.6677 81.3978C72.8057 81.3958 72.9157 81.2823 72.9139 81.1445C72.9129 81.0685 72.8307 73.562 74.2287 68.1097C77.5617 67.8094 81.1785 66.1587 81.3335 66.0872C81.4572 66.0302 81.5125 65.8847 81.458 65.7597L76.9504 55.4646C76.9454 55.4533 76.9397 55.4423 76.9332 55.4321C75.3064 52.8381 66.1886 51.2098 65.4644 51.0853C65.4374 51.0753 65.4086 51.0698 65.3796 51.0698C65.3729 51.0698 65.3661 51.0701 65.3594 51.0708L61.9716 51.3688L58.7738 51.0783L58.7011 51.0711C58.6921 51.0703 58.6838 51.0698 58.6756 51.0698Z" fill="#E53990" style="fill:#E53990;fill:color(display-p3 0.8980 0.2235 0.5647);fill-opacity:1;"/>
</g>
</g>
</g>
<path id="Vector_56" d="M64.7913 81.27L59.2763 81.355L58.6238 81.3625L51.3462 81.475C51.3462 81.2725 51.3412 81.0675 51.3337 80.865C51.3312 80.7575 51.3287 80.6499 51.3262 80.5474C51.3187 80.3874 51.3137 80.2299 51.3037 80.0749C51.2912 79.8424 51.2787 79.6099 51.2687 79.3774C51.2387 78.9574 51.2062 78.5399 51.1687 78.1274C51.1637 78.0624 51.1562 77.9999 51.1537 77.9349C51.1512 77.8424 51.1487 77.7474 51.1462 77.6599C51.1387 77.4999 51.1337 77.3449 51.1237 77.1874C51.1112 76.9549 51.0987 76.7224 51.0862 76.4899C51.0587 76.0699 51.0262 75.6549 50.9887 75.2399C50.9787 75.1199 50.9687 75.0024 50.9587 74.8824C50.9437 74.7474 50.9312 74.6124 50.9162 74.4774C50.9037 74.3524 50.8912 74.2249 50.8762 74.1024C50.8537 73.8999 50.8337 73.7024 50.8087 73.5049C50.8012 73.4549 50.7962 73.4074 50.7887 73.3574C50.7737 73.2324 50.7587 73.1124 50.7437 72.9899C50.7287 72.8674 50.7137 72.7474 50.6962 72.6299C50.6787 72.5074 50.6612 72.3874 50.6462 72.2699C50.6287 72.1524 50.6112 72.0324 50.5937 71.9149C50.5762 71.7999 50.5612 71.6824 50.5412 71.5674C50.5237 71.4499 50.5062 71.3374 50.4862 71.2249C50.4337 70.8874 50.3787 70.5574 50.3237 70.2349C50.3087 70.1424 50.2937 70.0549 50.2762 69.9649C50.2337 69.7149 50.1862 69.4699 50.1412 69.2299C50.1137 69.0874 50.0862 68.9499 50.0587 68.8124C49.9937 68.4774 49.9287 68.1599 49.8662 67.8599C49.8662 67.8599 56.9363 76.9574 64.7913 81.27Z" fill="#99F9FF" style="fill:#99F9FF;fill:color(display-p3 0.6000 0.9765 1.0000);fill-opacity:1;"/>
</g>
<g id="Group_68">
<g id="Group_69">
<g id="Group_70">
<path id="Vector_57" d="M65.3808 44.4219V51.9919C65.3808 51.9919 64.5883 52.5869 62.7958 52.6944C62.6208 52.7044 62.4333 52.7094 62.2383 52.7094C60.9933 52.7094 60.0733 52.5119 59.4833 52.3244C58.9458 52.1544 58.6758 51.9919 58.6758 51.9919V45.2269L65.3808 44.4219Z" fill="#FAAD3B" style="fill:#FAAD3B;fill:color(display-p3 0.9804 0.6784 0.2314);fill-opacity:1;"/>
<g id="Group_71" opacity="0.75">
<path id="Vector_58" d="M62.7948 52.6941C62.6198 52.7041 62.4323 52.7091 62.2373 52.7091C60.9923 52.7091 60.0723 52.5116 59.4823 52.3241C58.9448 52.1541 58.6748 51.9916 58.6748 51.9916V45.769L61.3648 47.0616C61.3648 47.0616 60.7623 50.7391 62.7948 52.6941Z" fill="#F5E073" style="fill:#F5E073;fill:color(display-p3 0.9608 0.8784 0.4510);fill-opacity:1;"/>
</g>
<path id="Vector_59" d="M58.6748 51.9929V45.2259L65.3804 44.4209V51.9929" stroke="#E53990" style="stroke:#E53990;stroke:color(display-p3 0.8980 0.2235 0.5647);stroke-opacity:1;" stroke-miterlimit="10" stroke-linecap="round" stroke-linejoin="round"/>
</g>
<g id="Group_72">
<g id="Group_73">
<g id="Group_74">
<path id="Vector_60" d="M53.9494 37.1836C54.0342 38.3623 53.5604 39.3569 52.8912 39.4049C52.2222 39.4529 51.6112 38.5364 51.5264 37.3576C51.4417 36.1788 51.9154 35.1843 52.5844 35.1361C53.2537 35.0881 53.8647 36.0046 53.9494 37.1836Z" fill="#FAAD3B" stroke="#E53990" style="fill:#FAAD3B;fill:color(display-p3 0.9804 0.6784 0.2314);fill-opacity:1;stroke:#E53990;stroke:color(display-p3 0.8980 0.2235 0.5647);stroke-opacity:1;" stroke-miterlimit="10"/>
<g id="Group_75">
<g id="Group_76" opacity="0.75">
<path id="Vector_61" d="M51.9794 36.8109C52.1604 36.6349 52.4326 36.6301 52.6441 36.7579C52.8874 36.9049 52.9836 37.1946 53.0604 37.4516C53.1141 37.6314 52.8336 37.7081 52.7801 37.5289C52.7339 37.3741 52.6881 37.2004 52.5764 37.0774C52.4801 36.9716 52.3014 36.9031 52.1849 37.0164C52.0506 37.1471 51.8449 36.9416 51.9794 36.8109Z" fill="#F5E073" style="fill:#F5E073;fill:color(display-p3 0.9608 0.8784 0.4510);fill-opacity:1;"/>
</g>
</g>
</g>
<g id="Group_77">
<path id="Vector_62" d="M69.9434 37.1836C69.8587 38.3623 70.3324 39.3569 71.0014 39.4049C71.6704 39.4529 72.2814 38.5364 72.3662 37.3576C72.4509 36.1788 71.9772 35.1843 71.3082 35.1361C70.6392 35.0881 70.0282 36.0046 69.9434 37.1836Z" fill="#FAAD3B" stroke="#E53990" style="fill:#FAAD3B;fill:color(display-p3 0.9804 0.6784 0.2314);fill-opacity:1;stroke:#E53990;stroke:color(display-p3 0.8980 0.2235 0.5647);stroke-opacity:1;" stroke-miterlimit="10"/>
<g id="Group_78">
<g id="Group_79" opacity="0.75">
<path id="Vector_63" d="M71.9133 36.8109C71.7323 36.6349 71.46 36.6301 71.2483 36.7579C71.005 36.9049 70.9088 37.1946 70.832 37.4516C70.7783 37.6314 71.0588 37.7081 71.1125 37.5289C71.1588 37.3741 71.2045 37.2004 71.3163 37.0774C71.4125 36.9716 71.5913 36.9031 71.7078 37.0164C71.842 37.1471 72.0478 36.9416 71.9133 36.8109Z" fill="#F5E073" style="fill:#F5E073;fill:color(display-p3 0.9608 0.8784 0.4510);fill-opacity:1;"/>
</g>
</g>
</g>
<g id="Group_80">
<g id="Group_81">
<g id="Group_82">
<path id="Vector_64" d="M62.2288 47.7304C61.5071 47.7304 60.7916 47.6376 60.1028 47.4546C59.5858 47.3196 59.0878 47.1376 58.6233 46.9139C58.4523 46.8326 58.3008 46.7544 58.1608 46.6751C57.9303 46.5471 57.6906 46.3961 57.4286 46.2139C55.3441 44.7543 53.8828 42.3378 53.2028 39.2253C52.9093 37.8456 52.7678 36.3325 52.7823 34.7275C52.7718 34.341 52.7753 33.9595 52.7925 33.5978L52.794 33.5633L52.799 33.5545C53.0105 29.728 54.8066 26.3742 57.6071 24.5782C57.7971 24.455 57.9911 24.3405 58.1836 24.2382C59.2831 23.6325 60.4681 23.3085 61.7041 23.276C61.7821 23.2737 61.8603 23.2725 61.9386 23.2725C63.4826 23.2725 65.0154 23.7442 66.3709 24.6365C68.8726 26.2792 70.6577 29.2715 71.1464 32.6405L71.1594 32.7655C71.2252 33.228 71.2652 33.7063 71.2777 34.1828C71.2829 34.5178 71.2829 34.8468 71.2777 35.168L71.2629 35.6325C71.2237 36.721 71.1144 37.7705 70.9384 38.7531C70.2599 42.4688 68.5499 45.2886 66.1229 46.6944C65.9406 46.8116 65.7301 46.9249 65.4846 47.0374L65.4089 46.9344L65.4611 47.0479L65.4314 47.0611C64.5221 47.4689 63.5331 47.6929 62.4941 47.7259C62.4054 47.7291 62.3168 47.7304 62.2288 47.7304Z" fill="#FAAD3B" style="fill:#FAAD3B;fill:color(display-p3 0.9804 0.6784 0.2314);fill-opacity:1;"/>
<path id="Vector_65" d="M61.9384 23.3977C63.5109 23.3977 64.9986 23.883 66.3024 24.7412C68.7349 26.3387 70.5249 29.2262 71.0224 32.6588L71.0349 32.7788C71.0999 33.2363 71.1399 33.7088 71.1524 34.1863C71.1574 34.5188 71.1574 34.8463 71.1524 35.1663C71.1474 35.3213 71.1424 35.4763 71.1374 35.6288C71.0974 36.7363 70.9874 37.7688 70.8149 38.7313C70.1149 42.5663 68.3824 45.2413 66.0599 46.5864C65.8574 46.7164 65.6449 46.8264 65.4324 46.9239C65.4149 46.9314 65.3999 46.9389 65.3824 46.9464C64.4849 47.3489 63.5124 47.5689 62.4899 47.6014C62.4029 47.6041 62.3159 47.6054 62.2289 47.6054C61.5176 47.6054 60.8144 47.5141 60.1348 47.3339C59.6373 47.2039 59.1498 47.0289 58.6773 46.8014C58.5248 46.7289 58.3723 46.6514 58.2223 46.5664C57.9748 46.4289 57.7373 46.2764 57.4998 46.1114C55.5648 44.7563 54.0373 42.4588 53.3248 39.1988C53.0423 37.8713 52.8923 36.3813 52.9073 34.7288C52.8973 34.3513 52.8998 33.9738 52.9173 33.6038C52.9173 33.5988 52.9173 33.5988 52.9223 33.5913C53.1273 29.7312 54.9848 26.4087 57.6748 24.6837C57.8598 24.5637 58.0498 24.4512 58.2423 24.3487C59.2998 23.7662 60.4674 23.4337 61.7074 23.4012C61.7844 23.399 61.8616 23.3977 61.9384 23.3977ZM61.9386 23.1477C61.8594 23.1477 61.7796 23.149 61.6999 23.1512C60.4449 23.1842 59.2406 23.5132 58.1218 24.1297C57.9296 24.232 57.7323 24.3485 57.5388 24.474C54.7073 26.2897 52.8906 29.677 52.6748 33.5403C52.6703 33.559 52.6673 33.58 52.6673 33.6038C52.6503 33.9558 52.6468 34.3405 52.6573 34.7353C52.6425 36.3408 52.7848 37.863 53.0801 39.2508C53.7673 42.3956 55.2461 44.8383 57.3563 46.3161C57.6231 46.5016 57.8663 46.6546 58.1008 46.7849C58.2421 46.8649 58.3961 46.9444 58.5698 47.0271C59.0403 47.2536 59.5458 47.4384 60.0716 47.5756C60.7701 47.7611 61.4964 47.8554 62.2289 47.8554C62.3184 47.8554 62.4079 47.8539 62.4976 47.8511C63.5531 47.8176 64.5581 47.5899 65.4846 47.1744L65.5121 47.1621L65.5309 47.1536C65.7876 47.0359 66.0029 46.9201 66.1951 46.7966C68.6447 45.3783 70.3762 42.5278 71.0612 38.7761C71.2382 37.7878 71.3479 36.7323 71.3877 35.6378L71.4027 35.1743C71.4079 34.8488 71.4079 34.5163 71.4027 34.1825C71.3899 33.698 71.3497 33.2148 71.2827 32.7435L71.2712 32.6328C70.7767 29.219 68.9709 26.1945 66.4396 24.5322C65.0634 23.6265 63.5069 23.1477 61.9386 23.1477Z" fill="#E53990" style="fill:#E53990;fill:color(display-p3 0.8980 0.2235 0.5647);fill-opacity:1;"/>
</g>
<path id="Vector_66" d="M61.7256 36.1448C61.7256 36.1448 62.3423 38.25 61.8323 39.444C61.7343 39.6738 61.8761 39.9286 62.1246 39.9528C62.5091 39.9906 63.0681 39.9338 63.6701 39.5038" stroke="#E53990" style="stroke:#E53990;stroke:color(display-p3 0.8980 0.2235 0.5647);stroke-opacity:1;" stroke-miterlimit="10" stroke-linecap="round" stroke-linejoin="round"/>
<path id="Vector_67" d="M61.6025 41.8883C61.6025 41.8883 63.4996 42.7103 65.0478 41.0818" stroke="#E53990" style="stroke:#E53990;stroke:color(display-p3 0.8980 0.2235 0.5647);stroke-opacity:1;" stroke-miterlimit="10" stroke-linecap="round" stroke-linejoin="round"/>
<path id="Vector_68" d="M64.7129 33.3251C64.7129 33.3251 66.3624 32.8424 67.1572 33.5586" stroke="#E53990" style="stroke:#E53990;stroke:color(display-p3 0.8980 0.2235 0.5647);stroke-opacity:1;" stroke-miterlimit="10" stroke-linecap="round" stroke-linejoin="round"/>
<path id="Vector_69" d="M57.4297 33.3251C57.4297 33.3251 59.0792 32.8424 59.8739 33.5586" stroke="#E53990" style="stroke:#E53990;stroke:color(display-p3 0.8980 0.2235 0.5647);stroke-opacity:1;" stroke-miterlimit="10" stroke-linecap="round" stroke-linejoin="round"/>
<g id="Group_83" opacity="0.75">
<path id="Vector_70" d="M62.4888 47.6015C61.6888 47.6265 60.8963 47.5365 60.1338 47.334C59.6363 47.204 59.1488 47.029 58.6763 46.8015C58.5238 46.729 58.3713 46.6515 58.2213 46.5665C57.9738 46.429 57.7363 46.2765 57.4988 46.1115C55.5638 44.7565 54.0362 42.4589 53.3237 39.1989C53.0412 37.8714 52.8912 36.3814 52.9062 34.7289C52.8962 34.3514 52.8987 33.9739 52.9162 33.6039C52.9162 33.5989 52.9162 33.5989 52.9212 33.5914C53.1262 29.7314 54.9838 26.4088 57.6738 24.6838L58.3488 27.4889C58.3488 27.4889 55.0338 40.4689 58.6763 45.5765C59.5263 46.769 60.7538 47.5315 62.4888 47.6015Z" fill="#F5E073" style="fill:#F5E073;fill:color(display-p3 0.9608 0.8784 0.4510);fill-opacity:1;"/>
</g>
</g>
<g id="Group_84">
<g id="Group_85" opacity="0.49">
<path id="Vector_71" d="M68.3726 39.3577C68.1693 40.2169 67.3081 40.7487 66.4488 40.5454C65.5896 40.3422 65.0578 39.4809 65.2611 38.6217C65.4643 37.7624 66.3256 37.2307 67.1848 37.4339C68.0443 37.6372 68.5761 38.4984 68.3726 39.3577Z" fill="#E8A137" style="fill:#E8A137;fill:color(display-p3 0.9098 0.6314 0.2157);fill-opacity:1;"/>
<path id="Vector_72" d="M58.7847 39.6084C58.5815 40.4677 57.7202 40.9994 56.8609 40.7962C56.0017 40.5929 55.4699 39.7317 55.6732 38.8724C55.8764 38.0132 56.7377 37.4814 57.5972 37.6847C58.4565 37.8879 58.988 38.7492 58.7847 39.6084Z" fill="#E8A137" style="fill:#E8A137;fill:color(display-p3 0.9098 0.6314 0.2157);fill-opacity:1;"/>
</g>
<g id="Group_86">
<g id="Group_87">
<g id="Group_88">
<g id="Group_89">
<path id="Vector_73" d="M66.1505 35.4586C66.1503 36.0904 65.8063 36.6244 65.382 36.6519C64.9578 36.6794 64.614 36.1899 64.6143 35.5579C64.6145 34.9264 64.9583 34.3919 65.383 34.3641C65.807 34.3369 66.1508 34.8269 66.1505 35.4586Z" fill="#E53990" style="fill:#E53990;fill:color(display-p3 0.8980 0.2235 0.5647);fill-opacity:1;"/>
<path id="Vector_74" d="M59.6973 35.4182C59.731 36.0492 59.4163 36.6009 58.994 36.6512C58.572 36.7014 58.202 36.2309 58.1685 35.5999C58.1347 34.9694 58.4495 34.4172 58.872 34.3667C59.294 34.3167 59.6635 34.7874 59.6973 35.4182Z" fill="#E53990" style="fill:#E53990;fill:color(display-p3 0.8980 0.2235 0.5647);fill-opacity:1;"/>
</g>
</g>
</g>
</g>
</g>
</g>
</g>
</g>
</g>
</g>
</g>
</g>
<g id="Group_90">
<path id="Vector_75" d="M57.2272 50.9015C57.2175 50.9015 57.2078 50.9002 57.1978 50.898C57.0845 50.8705 54.3987 50.1892 52.436 46.9172C50.0202 42.8904 49.8107 36.9199 51.8137 29.1716C51.955 28.6248 52.1095 28.0843 52.2727 27.5646C52.3042 27.4356 52.3405 27.2996 52.381 27.1641C52.8385 25.6293 53.4532 24.2981 54.2082 23.2065C54.98 22.0133 55.862 21.166 56.8282 20.6913C58.0998 19.9223 59.6018 19.5295 61.2833 19.5295C62.025 19.5295 62.8148 19.6063 63.632 19.7575C63.6305 19.7233 63.6298 19.689 63.6298 19.6543C63.6298 17.8978 65.0588 16.4688 66.8153 16.4688C68.5718 16.4688 70.0008 17.8978 70.0008 19.6543C70.0008 20.7678 69.4208 21.795 68.4766 22.3725C72.5228 26.8071 71.4428 35.0694 71.4313 35.1531C71.4268 35.1881 71.4071 35.2194 71.3781 35.2394C71.3571 35.2539 71.3323 35.2611 71.3076 35.2611C71.2978 35.2611 71.2883 35.2601 71.2786 35.2576C71.2308 35.2464 66.7008 34.1001 66.0848 28.3803C65.5201 30.0056 63.2598 33.3949 54.215 35.0874C53.718 40.2429 53.862 47.0979 57.3177 50.69C57.3562 50.73 57.3637 50.7905 57.336 50.839C57.313 50.878 57.2712 50.9015 57.2272 50.9015Z" fill="#E53990" style="fill:#E53990;fill:color(display-p3 0.8980 0.2235 0.5647);fill-opacity:1;"/>
<path id="Vector_76" d="M66.8151 16.5942C68.5053 16.5942 69.8756 17.9645 69.8756 19.6548C69.8756 20.815 69.2298 21.8243 68.2781 22.3433C72.4573 26.7553 71.3073 35.1364 71.3073 35.1364C71.3073 35.1364 66.3571 33.9584 66.1471 27.4771C66.1471 27.4771 66.1266 32.7581 54.099 34.9819C53.6042 40.0161 53.663 47.0722 57.227 50.7767C57.227 50.7767 46.9972 48.3042 51.9342 29.2033C52.0805 28.6371 52.2335 28.1056 52.3915 27.6026C52.4247 27.4681 52.4605 27.3338 52.5002 27.2003C52.9327 25.75 53.5255 24.413 54.3107 23.2785C55.114 22.0368 55.983 21.2465 56.883 20.804C58.0913 20.0735 59.5445 19.655 61.2828 19.655C62.0325 19.655 62.8355 19.7328 63.6945 19.897C63.7193 19.9018 63.743 19.9078 63.7675 19.9128C63.7603 19.8275 63.7545 19.7418 63.7545 19.6548C63.7545 17.9645 65.1248 16.5942 66.8151 16.5942ZM66.8151 16.3442C65.0051 16.3442 63.5298 17.804 63.5048 19.6083C62.7333 19.4733 61.9868 19.405 61.2828 19.405C59.5823 19.405 58.0618 19.8018 56.763 20.5843C55.78 21.0703 54.8845 21.9308 54.1007 23.1425C53.3425 24.238 52.722 25.5813 52.2607 27.1288C52.224 27.2523 52.188 27.3853 52.1507 27.5351C51.9875 28.0551 51.8332 28.5953 51.6922 29.1408C49.6807 36.9229 49.8947 42.9254 52.3285 46.9819C54.318 50.2982 57.0528 50.9917 57.1683 51.0197C57.1878 51.0245 57.2075 51.0267 57.227 51.0267C57.315 51.0267 57.3985 50.98 57.4438 50.9012C57.499 50.805 57.484 50.6835 57.407 50.6035C54.0047 47.0672 53.846 40.3114 54.3297 35.1931C59.2735 34.2571 62.8008 32.7008 64.8151 30.5671C65.4141 29.9323 65.7863 29.3376 66.0176 28.8428C66.4071 31.4538 67.6173 33.0303 68.6411 33.9254C69.9366 35.0576 71.1961 35.3669 71.2491 35.3796C71.2683 35.3841 71.2876 35.3864 71.3071 35.3864C71.3571 35.3864 71.4063 35.3714 71.4483 35.3426C71.5066 35.3029 71.5451 35.2401 71.5548 35.1704C71.6016 34.8291 72.6374 26.8928 68.6673 22.3985C69.5738 21.786 70.1253 20.7613 70.1253 19.6545C70.1256 17.8292 68.6406 16.3442 66.8151 16.3442Z" fill="#E53990" style="fill:#E53990;fill:color(display-p3 0.8980 0.2235 0.5647);fill-opacity:1;"/>
</g>
</g>
<g id="Group_91">
<path id="Vector_77" d="M38.3945 99.856C38.3255 99.856 38.2695 99.8 38.2695 99.731V71.748C38.2695 71.679 38.3255 71.623 38.3945 71.623H85.9496C86.0186 71.623 86.0746 71.679 86.0746 71.748V99.731C86.0746 99.8 86.0186 99.856 85.9496 99.856H38.3945Z" fill="#E53990" style="fill:#E53990;fill:color(display-p3 0.8980 0.2235 0.5647);fill-opacity:1;"/>
<path id="Vector_78" d="M85.9496 71.748V99.7307H38.3945V71.748H85.9496ZM85.9496 71.498H38.3945C38.2565 71.498 38.1445 71.61 38.1445 71.748V99.7307C38.1445 99.8687 38.2565 99.9807 38.3945 99.9807H85.9496C86.0876 99.9807 86.1996 99.8687 86.1996 99.7307V71.748C86.1996 71.61 86.0876 71.498 85.9496 71.498Z" fill="#E53990" style="fill:#E53990;fill:color(display-p3 0.8980 0.2235 0.5647);fill-opacity:1;"/>
</g>
<g id="Group_92">
<g id="Group_93">
<path id="Vector_79" d="M22.7317 99.7959C22.6707 99.7959 22.6187 99.7519 22.6085 99.6921C22.1137 96.8131 20.8127 89.2868 20.7377 89.037C20.7265 88.9993 20.7332 88.9568 20.7567 88.925C20.7802 88.8933 20.817 88.8733 20.8565 88.8733H31.4465C31.4838 88.8733 31.5191 88.8898 31.5428 88.9188C31.5666 88.9473 31.5763 88.9853 31.5693 89.0218L29.6718 98.9794C29.6703 98.9876 29.6678 98.9956 29.6648 99.0034L29.5343 99.6944C29.5233 99.7534 29.4715 99.7961 29.4115 99.7961L22.7317 99.7959Z" fill="#EDEDED" style="fill:#EDEDED;fill:color(display-p3 0.9294 0.9294 0.9294);fill-opacity:1;"/>
<path id="Vector_80" d="M31.4465 88.9983L29.549 98.9559H29.5465L29.4115 99.6709H22.7314C22.7314 99.6709 20.9389 89.2433 20.8564 88.9983H31.4465ZM31.4465 88.7483H20.8564C20.7759 88.7483 20.7004 88.787 20.6534 88.8525C20.6064 88.918 20.5939 89.002 20.6194 89.0783C20.6934 89.3513 21.7759 95.5891 22.4849 99.7134C22.5057 99.8334 22.6097 99.9211 22.7314 99.9211H29.4115C29.5317 99.9211 29.6347 99.8356 29.6572 99.7174L29.786 99.0359C29.7897 99.0251 29.7925 99.0141 29.7947 99.0026L31.6922 89.045C31.7062 88.9718 31.6867 88.8963 31.6392 88.8388C31.5915 88.7815 31.521 88.7483 31.4465 88.7483Z" fill="#E53990" style="fill:#E53990;fill:color(display-p3 0.8980 0.2235 0.5647);fill-opacity:1;"/>
</g>
<g id="Group_94">
<path id="Vector_81" d="M26.0273 93.7774C25.6186 92.8574 25.7243 92.0246 25.8933 91.4741C24.794 91.5234 23.915 92.6009 23.915 93.9264C23.915 95.2834 24.8355 96.3834 25.9713 96.3834C26.0021 96.3834 26.0318 96.3794 26.0623 96.3779C26.2781 95.7262 26.4541 94.7374 26.0273 93.7774Z" fill="#E53990" style="fill:#E53990;fill:color(display-p3 0.8980 0.2235 0.5647);fill-opacity:1;"/>
<path id="Vector_82" d="M28.4365 93.9263C28.4365 92.5692 27.516 91.4692 26.3802 91.4692C26.354 91.4692 26.3285 91.4727 26.3022 91.474C26.1332 92.0245 26.0272 92.8572 26.4362 93.7773C26.863 94.7373 26.687 95.726 26.471 96.3775C27.5642 96.3203 28.4365 95.2463 28.4365 93.9263Z" fill="#E53990" style="fill:#E53990;fill:color(display-p3 0.8980 0.2235 0.5647);fill-opacity:1;"/>
</g>
<g id="Group_95">
<path id="Vector_83" d="M20.8574 89.1233C20.8111 89.1233 20.7686 89.0976 20.7471 89.0568C20.7254 89.0161 20.7279 88.9668 20.7539 88.9283L21.7764 87.4135L22.9514 85.6685C22.9746 85.634 23.0134 85.6133 23.0549 85.6133H29.4949C29.5389 85.6133 29.5797 85.6365 29.6022 85.674L30.6447 87.419L31.5547 88.9338C31.5779 88.9726 31.5784 89.0208 31.5562 89.0598C31.5339 89.0991 31.4924 89.1233 31.4474 89.1233H20.8574Z" fill="#EDEDED" style="fill:#EDEDED;fill:color(display-p3 0.9294 0.9294 0.9294);fill-opacity:1;"/>
<path id="Vector_84" d="M29.4948 85.738L30.5373 87.4831L31.4473 88.9981H20.8572L21.8797 87.4831L23.0548 85.738H29.4948ZM29.4948 85.488H23.0548C22.9715 85.488 22.8938 85.5293 22.8475 85.5983L21.6725 87.3433L20.6502 88.8581C20.5985 88.9348 20.5932 89.0336 20.6367 89.1153C20.6802 89.1971 20.765 89.2481 20.8575 89.2481H31.4476C31.5376 89.2481 31.6208 89.1996 31.6651 89.1211C31.7093 89.0426 31.7083 88.9466 31.6618 88.8693L30.7518 87.3543L29.7095 85.6098C29.6643 85.5343 29.5828 85.488 29.4948 85.488Z" fill="#E53990" style="fill:#E53990;fill:color(display-p3 0.8980 0.2235 0.5647);fill-opacity:1;"/>
</g>
</g>
<g id="Group_96">
<path id="Vector_85" d="M107.375 14.9622C108.307 9.13798 104.342 3.6605 98.5176 2.72793C92.6933 1.79537 87.2158 5.76087 86.2833 11.5851C85.3507 17.4094 89.3162 22.8869 95.1405 23.8194C100.965 24.752 106.442 20.7865 107.375 14.9622Z" fill="white" stroke="#E53990" style="fill:white;fill-opacity:1;stroke:#E53990;stroke:color(display-p3 0.8980 0.2235 0.5647);stroke-opacity:1;" stroke-miterlimit="10" stroke-linecap="round" stroke-linejoin="round"/>
<g id="Group_97">
<g id="Group_98">
<path id="Vector_86" d="M96.8271 2.58911V4.44687" stroke="#E53990" style="stroke:#E53990;stroke:color(display-p3 0.8980 0.2235 0.5647);stroke-opacity:1;" stroke-miterlimit="10" stroke-linecap="round" stroke-linejoin="round"/>
<path id="Vector_87" d="M96.8271 21.9102V23.7682" stroke="#E53990" style="stroke:#E53990;stroke:color(display-p3 0.8980 0.2235 0.5647);stroke-opacity:1;" stroke-miterlimit="10" stroke-linecap="round" stroke-linejoin="round"/>
</g>
<g id="Group_99">
<path id="Vector_88" d="M86.2383 13.1787H88.0963" stroke="#E53990" style="stroke:#E53990;stroke:color(display-p3 0.8980 0.2235 0.5647);stroke-opacity:1;" stroke-miterlimit="10" stroke-linecap="round" stroke-linejoin="round"/>
<path id="Vector_89" d="M105.56 13.1787H107.418" stroke="#E53990" style="stroke:#E53990;stroke:color(display-p3 0.8980 0.2235 0.5647);stroke-opacity:1;" stroke-miterlimit="10" stroke-linecap="round" stroke-linejoin="round"/>
</g>
</g>
<g id="Group_100">
<g id="Group_101">
<path id="Vector_90" d="M89.3389 5.69092L90.6526 7.00468" stroke="#E53990" style="stroke:#E53990;stroke:color(display-p3 0.8980 0.2235 0.5647);stroke-opacity:1;" stroke-miterlimit="10" stroke-linecap="round" stroke-linejoin="round"/>
<path id="Vector_91" d="M103.002 19.353L104.316 20.6668" stroke="#E53990" style="stroke:#E53990;stroke:color(display-p3 0.8980 0.2235 0.5647);stroke-opacity:1;" stroke-miterlimit="10" stroke-linecap="round" stroke-linejoin="round"/>
</g>
<g id="Group_102">
<path id="Vector_92" d="M89.3389 20.6668L90.6526 19.353" stroke="#E53990" style="stroke:#E53990;stroke:color(display-p3 0.8980 0.2235 0.5647);stroke-opacity:1;" stroke-miterlimit="10" stroke-linecap="round" stroke-linejoin="round"/>
<path id="Vector_93" d="M103.001 7.00443L104.315 5.69067" stroke="#E53990" style="stroke:#E53990;stroke:color(display-p3 0.8980 0.2235 0.5647);stroke-opacity:1;" stroke-miterlimit="10" stroke-linecap="round" stroke-linejoin="round"/>
</g>
</g>
<path id="Vector_94" d="M97.5464 13.179C97.5464 13.5765 97.2242 13.8985 96.8269 13.8985C96.4294 13.8985 96.1074 13.5762 96.1074 13.179C96.1074 12.7815 96.4297 12.4592 96.8269 12.4592C97.2242 12.4595 97.5464 12.7815 97.5464 13.179Z" fill="#E53990" style="fill:#E53990;fill:color(display-p3 0.8980 0.2235 0.5647);fill-opacity:1;"/>
<path id="Vector_95" d="M96.8271 5.69092V13.179L101.006 17.1372" stroke="#E53990" style="stroke:#E53990;stroke:color(display-p3 0.8980 0.2235 0.5647);stroke-opacity:1;" stroke-miterlimit="10" stroke-linecap="round" stroke-linejoin="round"/>
</g>
<path id="Vector_96" opacity="0.27" d="M29.5465 98.9556L29.4115 99.6706H22.7315C22.7315 99.6706 20.9389 89.2431 20.8564 88.9981L21.879 87.4831L23.054 85.738C23.054 85.738 23.014 87.123 23.229 88.9981C23.644 92.6631 25.0265 98.2056 29.5465 98.9556Z" fill="#E53990" style="fill:#E53990;fill:color(display-p3 0.8980 0.2235 0.5647);fill-opacity:1;"/>
<g id="Group_103">
<g id="Group_104">
<path id="Vector_97" d="M110.4 85.8844C110.4 85.8844 111.461 78.5263 114.732 75.2998" stroke="#E53990" style="stroke:#E53990;stroke:color(display-p3 0.8980 0.2235 0.5647);stroke-opacity:1;" stroke-miterlimit="10"/>
<g id="Group_105">
<path id="Vector_98" d="M113.967 76.156C114.019 76.1278 114.073 75.8435 114.092 75.79C114.208 75.4608 114.333 75.1345 114.465 74.811C114.867 73.8188 115.327 72.846 115.876 71.926C116.511 70.8615 117.289 69.7562 118.372 69.1082C118.911 68.7857 119.69 68.6277 120.315 68.675C121.359 68.754 122.109 69.6382 121.581 70.6302C121.14 71.4587 120.272 71.9932 119.557 72.5595C118.446 73.4397 117.252 74.2173 116.042 74.9543C115.36 75.3698 114.67 75.7765 113.967 76.156Z" fill="#E53990" style="fill:#E53990;fill:color(display-p3 0.8980 0.2235 0.5647);fill-opacity:1;"/>
</g>
</g>
<g id="Group_106">
<path id="Vector_99" d="M112.611 88.9572C112.611 88.9572 113.027 83.2221 116.298 79.9956" stroke="#E53990" style="stroke:#E53990;stroke:color(display-p3 0.8980 0.2235 0.5647);stroke-opacity:1;" stroke-miterlimit="10"/>
<g id="Group_107">
<path id="Vector_100" d="M115.369 81.0371C115.447 80.9953 115.53 80.5773 115.561 80.4968C115.729 80.0488 115.916 79.6075 116.122 79.1755C116.619 78.13 117.238 77.0093 118.173 76.2915C118.764 75.838 120.466 75.3678 120.803 76.419C120.861 76.598 120.815 76.7943 120.742 76.9675C120.479 77.5885 119.905 78.0173 119.396 78.4295C118.83 78.8875 118.229 79.3015 117.618 79.6968C116.886 80.1703 116.137 80.6231 115.369 81.0371Z" fill="#E53990" style="fill:#E53990;fill:color(display-p3 0.8980 0.2235 0.5647);fill-opacity:1;"/>
</g>
</g>
<g id="Group_108">
<path id="Vector_101" d="M105.318 74.7578C105.318 74.7578 108.696 77.6326 110.255 86.6724" stroke="#E53990" style="stroke:#E53990;stroke:color(display-p3 0.8980 0.2235 0.5647);stroke-opacity:1;" stroke-miterlimit="10"/>
<g id="Group_109">
<path id="Vector_102" d="M106.315 75.899C106.245 75.8568 106.176 75.5955 106.143 75.5243C105.987 75.1908 105.826 74.8595 105.662 74.53C105.158 73.5197 104.621 72.5247 104.032 71.5612C103.426 70.5697 102.768 69.5745 101.942 68.7497C101.446 68.254 100.672 67.5845 99.9086 67.8525C99.4216 68.0232 98.9888 68.6005 98.9291 69.094C98.8321 69.8942 99.6188 70.714 100.134 71.2512C100.686 71.827 101.294 72.3482 101.917 72.8457C103.065 73.7632 104.276 74.6028 105.513 75.3963C105.778 75.5668 106.045 75.7363 106.315 75.899Z" fill="#E53990" style="fill:#E53990;fill:color(display-p3 0.8980 0.2235 0.5647);fill-opacity:1;"/>
</g>
</g>
<g id="Group_110">
<path id="Vector_103" d="M108.852 86.0792C108.852 86.0792 107.401 81.8234 109.328 77.6519" stroke="#E53990" style="stroke:#E53990;stroke:color(display-p3 0.8980 0.2235 0.5647);stroke-opacity:1;" stroke-miterlimit="10"/>
<g id="Group_111">
<path id="Vector_104" d="M109.039 78.4107C108.991 77.6219 109.021 76.8204 109.097 76.0349C109.215 74.8299 109.434 73.3591 110.31 72.4461C110.728 72.0091 111.318 71.7876 111.924 71.8581C114.058 72.1059 110.235 76.9242 109.712 77.5857C109.492 77.8637 109.27 78.1407 109.039 78.4107Z" fill="#E53990" style="fill:#E53990;fill:color(display-p3 0.8980 0.2235 0.5647);fill-opacity:1;"/>
</g>
</g>
<g id="Group_112">
<path id="Vector_105" d="M108.792 85.9088C108.792 85.9088 105.948 80.911 101.606 79.4072" stroke="#E53990" style="stroke:#E53990;stroke:color(display-p3 0.8980 0.2235 0.5647);stroke-opacity:1;" stroke-miterlimit="10"/>
<g id="Group_113">
<path id="Vector_106" d="M103.776 80.456C103.688 80.445 103.458 80.0845 103.401 80.0205C103.081 79.6628 102.746 79.3178 102.397 78.988C101.243 77.8985 99.3084 76.2183 97.6274 77.2045C97.4351 77.3173 97.2576 77.4628 97.1381 77.6508C96.5261 78.6138 98.0091 79.1108 98.6671 79.3478C99.3694 79.6008 100.097 79.7833 100.826 79.943C101.798 80.1563 102.782 80.3283 103.77 80.4553C103.772 80.4556 103.774 80.4558 103.776 80.456Z" fill="#E53990" style="fill:#E53990;fill:color(display-p3 0.8980 0.2235 0.5647);fill-opacity:1;"/>
</g>
</g>
<g id="Group_114">
<path id="Vector_107" d="M115.71 83.9114H104.803V99.1717H115.71V83.9114Z" fill="#F5E073" style="fill:#F5E073;fill:color(display-p3 0.9608 0.8784 0.4510);fill-opacity:1;"/>
<path id="Vector_108" d="M115.585 84.0364V99.0467H104.928V84.0364H115.585ZM115.835 83.7864H115.585H104.928H104.678V84.0364V99.0467V99.2967H104.928H115.585H115.835V99.0467V84.0364V83.7864Z" fill="#E53990" style="fill:#E53990;fill:color(display-p3 0.8980 0.2235 0.5647);fill-opacity:1;"/>
</g>
<path id="Vector_109" d="M115.082 99.0465H104.927V84.0361C104.927 84.0361 106.362 97.8515 115.082 99.0465Z" fill="#EDD349" style="fill:#EDD349;fill:color(display-p3 0.9294 0.8275 0.2863);fill-opacity:1;"/>
</g>
<g id="Group_115">
<path id="Vector_110" d="M6.50274 104.896C4.83048 104.896 3.46973 103.536 3.46973 101.863C3.46973 100.191 4.83023 98.8301 6.50274 98.8301H122.033C123.705 98.8301 125.066 100.191 125.066 101.863C125.066 103.535 123.705 104.896 122.033 104.896H6.50274Z" fill="#EDEDED" style="fill:#EDEDED;fill:color(display-p3 0.9294 0.9294 0.9294);fill-opacity:1;"/>
<path id="Vector_111" d="M122.033 98.9551C123.639 98.9551 124.941 100.257 124.941 101.863C124.941 103.469 123.639 104.771 122.033 104.771H6.50274C4.89673 104.771 3.59473 103.469 3.59473 101.863C3.59473 100.257 4.89673 98.9551 6.50274 98.9551H122.033ZM122.033 98.7051H6.50274C4.76148 98.7051 3.34473 100.122 3.34473 101.863C3.34473 103.604 4.76148 105.021 6.50274 105.021H122.033C123.774 105.021 125.191 103.604 125.191 101.863C125.191 100.122 123.774 98.7051 122.033 98.7051Z" fill="#E53990" style="fill:#E53990;fill:color(display-p3 0.8980 0.2235 0.5647);fill-opacity:1;"/>
</g>
<g id="Group_116">
<path id="Vector_112" d="M44.5249 1.83765H20.2848C17.9185 1.83765 16 3.75591 16 6.12242V15.3735C16 17.7397 17.9183 19.6583 20.2848 19.6583H38.3394L44.2132 23.9188L42.8132 19.6583H44.5249C46.8912 19.6583 48.8097 17.74 48.8097 15.3735V6.12242C48.8097 3.75591 46.8912 1.83765 44.5249 1.83765Z" fill="#E53990" style="fill:#E53990;fill:color(display-p3 0.8980 0.2235 0.5647);fill-opacity:1;"/>
<path id="Vector_113" d="M46.3394 1H22.0992C19.733 1 17.8145 2.91826 17.8145 5.28478V14.5358C17.8145 16.9021 19.7327 18.8206 22.0992 18.8206H40.1536L46.0274 23.0811L44.6274 18.8206H46.3391C48.7054 18.8206 50.6239 16.9023 50.6239 14.5358V5.28478C50.6242 2.91851 48.7059 1 46.3394 1Z" fill="white" stroke="#E53990" style="fill:white;fill-opacity:1;stroke:#E53990;stroke:color(display-p3 0.8980 0.2235 0.5647);stroke-opacity:1;" stroke-miterlimit="10" stroke-linecap="round" stroke-linejoin="round"/>
<g id="Group_117">
<g id="Group_118">
<path id="Vector_114" d="M20.625 11.3552H44.4924" stroke="#E53990" style="stroke:#E53990;stroke:color(display-p3 0.8980 0.2235 0.5647);stroke-opacity:1;" stroke-miterlimit="10" stroke-linecap="round" stroke-linejoin="round"/>
</g>
<path id="Vector_115" d="M20.625 4.74219H32.9286" stroke="#E53990" style="stroke:#E53990;stroke:color(display-p3 0.8980 0.2235 0.5647);stroke-opacity:1;" stroke-miterlimit="10" stroke-linecap="round" stroke-linejoin="round"/>
<path id="Vector_116" d="M20.6523 8.14453H35.6484" stroke="#E53990" style="stroke:#E53990;stroke:color(display-p3 0.8980 0.2235 0.5647);stroke-opacity:1;" stroke-miterlimit="10" stroke-linecap="round" stroke-linejoin="round"/>
<path id="Vector_117" d="M20.6973 9.75586H40.5714" stroke="#E53990" style="stroke:#E53990;stroke:color(display-p3 0.8980 0.2235 0.5647);stroke-opacity:1;" stroke-miterlimit="10" stroke-linecap="round" stroke-linejoin="round"/>
<path id="Vector_118" d="M20.7266 13.0083H44.3035" stroke="#E53990" style="stroke:#E53990;stroke:color(display-p3 0.8980 0.2235 0.5647);stroke-opacity:1;" stroke-miterlimit="10" stroke-linecap="round" stroke-linejoin="round"/>
<path id="Vector_119" d="M20.7285 14.6621H44.4967" stroke="#E53990" style="stroke:#E53990;stroke:color(display-p3 0.8980 0.2235 0.5647);stroke-opacity:1;" stroke-miterlimit="10" stroke-linecap="round" stroke-linejoin="round"/>
<path id="Vector_120" d="M20.7402 6.39551H44.4296" stroke="#E53990" style="stroke:#E53990;stroke:color(display-p3 0.8980 0.2235 0.5647);stroke-opacity:1;" stroke-miterlimit="10" stroke-linecap="round" stroke-linejoin="round"/>
</g>
</g>
</g>
</svg>
