<svg width="37" height="38" viewBox="0 0 37 38" fill="none" xmlns="http://www.w3.org/2000/svg">
<g id="_x39_">
<g id="Group">
<path id="Vector" d="M17.9719 28.5203H13.377V36.9559H17.9719V28.5203Z" fill="#232996" style="fill:#232996;fill:color(display-p3 0.1373 0.1608 0.5882);fill-opacity:1;"/>
<path id="Vector_2" d="M21.5407 37.4337H9.81051C9.67991 37.4337 9.57324 37.327 9.57324 37.1964C9.57324 37.0626 9.67991 36.9559 9.81051 36.9559H21.5407C21.6713 36.9559 21.778 37.0626 21.778 37.1932C21.778 37.3265 21.6713 37.4337 21.5407 37.4337Z" fill="#232996" style="fill:#232996;fill:color(display-p3 0.1373 0.1608 0.5882);fill-opacity:1;"/>
</g>
<g id="Group_2">
<path id="Vector_3" d="M30.4075 29.0557H1.45248C0.757848 29.0557 0.194336 28.4926 0.194336 27.7973V8.3093C0.194336 7.61453 0.757327 7.0509 1.45248 7.0509H30.4075C31.1022 7.0509 31.6657 7.61401 31.6657 8.3093V27.7973C31.6657 28.4926 31.1027 29.0557 30.4075 29.0557Z" fill="white" style="fill:white;fill-opacity:1;"/>
<g id="Group_3">
<path id="Vector_4" d="M30.4083 29.2509H1.45327C0.651967 29.2509 0 28.5988 0 27.7979V8.30988C0 7.50842 0.651967 6.85632 1.45327 6.85632H30.4083C31.2096 6.85632 31.8616 7.50842 31.8616 8.30988V27.7979C31.8616 28.5988 31.2096 29.2509 30.4083 29.2509ZM1.45327 7.24664C0.867381 7.24664 0.390244 7.72336 0.390244 8.30988V27.7979C0.390244 28.3839 0.867381 28.8606 1.45327 28.8606H30.4083C30.9947 28.8606 31.4713 28.3839 31.4713 27.7979V8.30988C31.4713 7.72336 30.9947 7.24664 30.4083 7.24664H1.45327Z" fill="#86DDFC" style="fill:#86DDFC;fill:color(display-p3 0.5255 0.8667 0.9882);fill-opacity:1;"/>
</g>
<path id="Vector_5" d="M27.2959 9.33073V24.6875C27.2959 25.2491 26.8432 25.7019 26.2818 25.7019H2.45455C1.89312 25.7019 1.44043 25.2491 1.44043 24.6875V9.33073C1.44043 8.77335 1.89312 8.31641 2.45455 8.31641H26.2818C26.8432 8.31641 27.2959 8.77335 27.2959 9.33073Z" fill="#FF77A1" style="fill:#FF77A1;fill:color(display-p3 1.0000 0.4667 0.6314);fill-opacity:1;"/>
<g id="Group_4">
<path id="Vector_6" d="M29.8858 8.54395H27.9346V11.2684H29.8858V8.54395Z" fill="#86DDFC" style="fill:#86DDFC;fill:color(display-p3 0.5255 0.8667 0.9882);fill-opacity:1;"/>
<path id="Vector_7" d="M29.8858 11.8455H27.9346V14.5699H29.8858V11.8455Z" fill="#86DDFC" style="fill:#86DDFC;fill:color(display-p3 0.5255 0.8667 0.9882);fill-opacity:1;"/>
<path id="Vector_8" d="M29.8858 15.1459H27.9346V17.8703H29.8858V15.1459Z" fill="#86DDFC" style="fill:#86DDFC;fill:color(display-p3 0.5255 0.8667 0.9882);fill-opacity:1;"/>
<path id="Vector_9" d="M29.8858 18.4464H27.9346V21.1708H29.8858V18.4464Z" fill="#86DDFC" style="fill:#86DDFC;fill:color(display-p3 0.5255 0.8667 0.9882);fill-opacity:1;"/>
<path id="Vector_10" d="M29.8858 21.7473H27.9346V24.4718H29.8858V21.7473Z" fill="#86DDFC" style="fill:#86DDFC;fill:color(display-p3 0.5255 0.8667 0.9882);fill-opacity:1;"/>
<path id="Vector_11" d="M29.8858 25.0479H27.9346V27.7723H29.8858V25.0479Z" fill="#86DDFC" style="fill:#86DDFC;fill:color(display-p3 0.5255 0.8667 0.9882);fill-opacity:1;"/>
</g>
<path id="Vector_12" d="M3.90972 27.3654C3.90972 27.8937 3.48202 28.3215 2.95389 28.3215C2.42576 28.3215 1.99805 27.8932 1.99805 27.3654C1.99805 26.8372 2.42628 26.4094 2.95389 26.4094C3.48202 26.4094 3.90972 26.8377 3.90972 27.3654Z" fill="#232996" style="fill:#232996;fill:color(display-p3 0.1373 0.1608 0.5882);fill-opacity:1;"/>
<path id="Vector_13" d="M13.2851 27.5694H4.78873C4.7086 27.5694 4.64355 27.5038 4.64355 27.4242V27.3087C4.64355 27.229 4.70912 27.1635 4.78873 27.1635H13.2851C13.3647 27.1635 13.4303 27.229 13.4303 27.3087V27.4242C13.4303 27.5038 13.3652 27.5694 13.2851 27.5694Z" fill="#86DDFC" style="fill:#86DDFC;fill:color(display-p3 0.5255 0.8667 0.9882);fill-opacity:1;"/>
<path id="Vector_14" d="M22.3984 27.5694H13.902C13.8219 27.5694 13.7568 27.5038 13.7568 27.4242V27.3087C13.7568 27.229 13.8224 27.1635 13.902 27.1635H22.3984C22.478 27.1635 22.5436 27.229 22.5436 27.3087V27.4242C22.5436 27.5038 22.478 27.5694 22.3984 27.5694Z" fill="#86DDFC" style="fill:#86DDFC;fill:color(display-p3 0.5255 0.8667 0.9882);fill-opacity:1;"/>
</g>
<g id="Group_5">
<path id="Vector_15" d="M18.1007 17.1299C18.1007 17.1507 18.0966 17.1762 18.0966 17.197C18.0924 17.3099 18.0841 17.4192 18.0799 17.5322C18.0336 18.3118 17.992 19.0872 17.9457 19.8668C17.9166 20.3784 17.8911 20.8853 17.8619 21.3969C17.7823 22.8301 17.6985 24.2597 17.6189 25.693H9.71988C9.61529 24.5866 9.51434 23.4843 9.40976 22.382C9.38478 22.1223 9.35929 21.8621 9.33432 21.6066C9.20424 20.1983 9.07051 18.7942 8.94043 17.3859C9.13295 17.1975 9.4056 16.9836 9.75734 16.7656C10.4025 16.3508 11.3079 15.9188 12.4433 15.7304C12.4641 15.7263 12.4854 15.7221 12.5062 15.7179C12.527 15.7138 12.5437 15.7138 12.565 15.7096C12.653 15.6971 12.7367 15.6846 12.8205 15.6763C13.4574 15.605 14.0568 15.6258 14.6099 15.7096C14.6265 15.7096 14.6432 15.7096 14.6562 15.7138C15.9091 15.9022 16.9066 16.3841 17.5185 16.7489C17.7948 16.9118 17.9915 17.0502 18.1007 17.1299Z" fill="#FFB7A6" style="fill:#FFB7A6;fill:color(display-p3 1.0000 0.7176 0.6510);fill-opacity:1;"/>
<path id="Vector_16" d="M14.6774 16.3212H12.3203C12.5415 15.2309 12.7693 14.1406 12.9905 13.0576C13.5134 13.0649 14.0291 13.0722 14.552 13.08C14.5666 13.3818 14.5738 13.6842 14.5889 13.9861C14.6035 14.3176 14.6113 14.6491 14.6259 14.9879C14.641 15.4297 14.6628 15.8794 14.6774 16.3212Z" fill="#FFB7A6" style="fill:#FFB7A6;fill:color(display-p3 1.0000 0.7176 0.6510);fill-opacity:1;"/>
<path id="Vector_17" d="M14.6262 14.9884C14.5601 14.9811 14.5008 14.9665 14.442 14.9442C13.7421 14.7308 13.2707 14.2811 12.998 13.9569C13.1895 13.9642 13.3883 13.9715 13.5798 13.9866H14.5887C14.6043 14.3181 14.6116 14.6496 14.6262 14.9884Z" fill="#F9917D" style="fill:#F9917D;fill:color(display-p3 0.9765 0.5686 0.4902);fill-opacity:1;"/>
<g id="Group_6">
<path id="Vector_18" d="M12.1347 12.5902C12.4776 13.8194 13.5343 14.6011 14.4766 14.3305C15.2753 14.1062 15.7452 13.209 15.6661 12.2051C15.6521 12.0182 15.6224 11.8231 15.5667 11.63C15.5631 11.618 15.4975 11.4145 15.4975 11.4145C15.3097 10.9139 15.0183 10.4996 14.6577 10.2201C14.2243 9.87822 13.7034 9.73563 13.2133 9.87354L13.1118 9.90633C12.3142 10.1962 11.8813 11.1871 12.0592 12.2519C12.0753 12.3648 12.1045 12.4746 12.1347 12.5902Z" fill="#FFB7A6" style="fill:#FFB7A6;fill:color(display-p3 1.0000 0.7176 0.6510);fill-opacity:1;"/>
<path id="Vector_19" d="M15.4069 13.0859C15.4637 13.0037 15.5198 12.9209 15.5766 12.8387C15.7061 12.5878 15.8352 12.3365 15.9647 12.0856C15.9611 12.0487 15.9496 11.9982 15.9111 11.968C15.8435 11.9149 15.7327 11.9555 15.6874 11.9706C15.5625 12.0123 15.3664 12.0523 15.0469 12.0508C15.1671 12.3953 15.2867 12.7403 15.4069 13.0859Z" fill="#FFB7A6" style="fill:#FFB7A6;fill:color(display-p3 1.0000 0.7176 0.6510);fill-opacity:1;"/>
</g>
<path id="Vector_20" d="M14.5098 13.0034C14.568 13.4015 14.8475 13.63 15.0421 13.5931C15.221 13.5592 15.3017 13.3053 15.3095 13.2792C15.2028 13.2704 15.0676 13.2485 14.9151 13.1981C14.746 13.1419 14.6097 13.0674 14.5098 13.0034Z" fill="white" style="fill:white;fill-opacity:1;"/>
<g id="Group_7">
<path id="Vector_21" d="M14.8744 11.7406C14.8656 11.7406 14.8568 11.7391 14.8484 11.7349C14.8156 11.7208 14.8006 11.6818 14.8151 11.6495L14.9858 11.2603C14.9998 11.2275 15.0383 11.2113 15.0716 11.227C15.1044 11.241 15.1195 11.28 15.1049 11.3123L14.9343 11.7016C14.9234 11.726 14.8994 11.7406 14.8744 11.7406Z" fill="#232996" style="fill:#232996;fill:color(display-p3 0.1373 0.1608 0.5882);fill-opacity:1;"/>
</g>
<g id="Group_8">
<path id="Vector_22" d="M14.5515 11.7534C14.4979 11.7399 14.4786 11.7035 14.489 11.6691L14.6129 11.2694C14.6233 11.2356 14.6597 11.2158 14.6946 11.2268C14.7289 11.2377 14.7476 11.2736 14.7378 11.308L14.6139 11.7077C14.6051 11.7352 14.5791 11.7534 14.5515 11.7534Z" fill="#232996" style="fill:#232996;fill:color(display-p3 0.1373 0.1608 0.5882);fill-opacity:1;"/>
</g>
<g id="Group_9">
<path id="Vector_23" d="M15.0643 12.3891C15.0394 12.3891 15.0154 12.3746 15.0045 12.3501L14.9135 12.1383C14.8994 12.1055 14.9145 12.0665 14.9473 12.0524C14.9806 12.0394 15.0186 12.0535 15.0326 12.0863L15.1237 12.2981C15.1377 12.3309 15.1226 12.3699 15.0898 12.3839C15.0815 12.3876 15.0732 12.3891 15.0643 12.3891Z" fill="#232996" style="fill:#232996;fill:color(display-p3 0.1373 0.1608 0.5882);fill-opacity:1;"/>
</g>
<g id="Group_10">
<path id="Vector_24" d="M14.6845 12.4766C14.6512 12.4766 14.6226 12.4506 14.62 12.4168L14.6018 12.1961C14.5987 12.1607 14.6252 12.129 14.6611 12.1259C14.6965 12.1259 14.7282 12.1503 14.7314 12.1857L14.7496 12.4064C14.7527 12.4418 14.7262 12.4735 14.6903 12.4766C14.6877 12.4766 14.6861 12.4766 14.6845 12.4766Z" fill="#232996" style="fill:#232996;fill:color(display-p3 0.1373 0.1608 0.5882);fill-opacity:1;"/>
</g>
<path id="Vector_25" d="M15.3043 11.7766C15.3189 11.8505 15.2746 11.9239 15.194 11.9827C15.1794 11.9972 15.1571 12.0123 15.1352 12.0269C15.0618 12.0857 14.9734 12.1299 14.9068 12.1523L14.8698 12.1596C14.848 12.1669 14.8256 12.1742 14.7959 12.1742C14.6633 12.2111 14.5087 12.2184 14.4057 12.1815C14.3839 12.1669 14.3615 12.1596 14.3396 12.1445C14.3251 12.1299 14.3027 12.1149 14.2954 12.093C14.2439 12.0045 14.2735 11.8796 14.3469 11.7615C14.3688 11.7245 14.3984 11.6876 14.4354 11.6584C14.4796 11.6069 14.5311 11.57 14.5972 11.5403C14.6414 11.5184 14.6784 11.5034 14.7299 11.5034C14.7372 11.4961 14.7887 11.4888 14.7887 11.4888C14.9729 11.4815 15.1571 11.5549 15.2455 11.6657C15.2819 11.7027 15.3043 11.7396 15.3043 11.7766Z" fill="white" style="fill:white;fill-opacity:1;"/>
<path id="Vector_26" d="M14.3715 12.635C14.4027 12.8859 14.2248 13.1144 13.974 13.1456C13.7232 13.1768 13.4947 12.9988 13.4635 12.748C13.4323 12.4971 13.6103 12.2687 13.861 12.2374C14.1118 12.2062 14.3403 12.3842 14.3715 12.635Z" fill="#F9917D" style="fill:#F9917D;fill:color(display-p3 0.9765 0.5686 0.4902);fill-opacity:1;"/>
<path id="Vector_27" d="M15.2013 11.9237C15.2013 11.9455 15.2013 11.9679 15.194 11.9825C15.1794 11.997 15.1571 12.0121 15.1352 12.0267C15.0618 12.0855 14.9734 12.1298 14.9068 12.1521L14.8698 12.1594C14.848 12.1667 14.8256 12.174 14.796 12.174C14.6633 12.2109 14.5087 12.2182 14.4057 12.1813C14.3839 12.1667 14.3615 12.1594 14.3396 12.1443C14.3251 12.1298 14.3027 12.1147 14.2954 12.0928C14.2439 12.0043 14.2735 11.8794 14.3469 11.7613C14.3688 11.7243 14.3984 11.6874 14.4354 11.6582C14.5087 11.6286 14.5972 11.614 14.6929 11.614C14.9734 11.614 15.2013 11.754 15.2013 11.9237Z" fill="#232996" style="fill:#232996;fill:color(display-p3 0.1373 0.1608 0.5882);fill-opacity:1;"/>
<path id="Vector_28" d="M18.8762 17.9432C18.6332 19.6866 18.3861 21.4264 18.1431 23.1698C18.1264 23.2999 18.1051 23.4254 18.0884 23.5555C18.0718 23.6897 18.051 23.8235 18.0338 23.9578C17.95 24.5407 17.8704 25.1147 17.7908 25.6929H9.19193C9.16279 25.2318 9.13313 24.7707 9.09983 24.3054C9.08318 24.0416 9.06653 23.7813 9.04936 23.5175C9.04103 23.4046 9.03271 23.2911 9.02438 23.174C8.99108 22.6541 8.95726 22.1305 8.92396 21.6065C8.83603 20.2861 8.74809 18.9658 8.66016 17.6413C8.8277 17.4149 9.02906 17.1844 9.27206 16.958C9.34334 16.8909 9.41462 16.8279 9.48591 16.7691C9.53222 16.7316 9.57801 16.6936 9.62432 16.6561C9.67895 16.6187 9.7289 16.5807 9.77938 16.5432C10.781 15.8224 11.8456 15.5877 12.4908 15.4998C12.5116 15.5752 12.5371 15.6424 12.5662 15.7095C12.6084 15.7974 12.6542 15.8812 12.7046 15.9567C12.8092 16.1076 12.931 16.2247 13.0652 16.3215C13.367 16.5312 13.7229 16.5937 14.0039 16.4849C14.1002 16.4475 14.1881 16.3928 14.2635 16.3215C14.4311 16.1748 14.5528 15.9567 14.6111 15.7095C14.6278 15.6507 14.6403 15.5924 14.6486 15.5294C15.2183 15.5674 16.3625 15.7516 17.4984 16.5562C18.0681 16.9585 18.4704 17.403 18.7472 17.7673C18.7555 17.7756 18.7638 17.7798 18.7638 17.7881C18.8049 17.8422 18.8424 17.8927 18.8762 17.9432Z" fill="white" style="fill:white;fill-opacity:1;"/>
<g id="Group_11">
<path id="Vector_29" d="M9.43493 20.1432C9.43076 20.6292 9.4266 21.1195 9.41828 21.6061C9.41411 21.8658 9.40995 22.1218 9.40995 22.3815C9.40578 22.6412 9.40162 22.8973 9.39746 23.157C9.39746 23.3079 9.38914 23.4588 9.38914 23.6097C9.29288 23.8403 9.20078 24.0708 9.09984 24.3014C9.05821 24.3977 9.02855 24.4856 8.99109 24.5653C8.91148 24.7495 8.83603 24.9342 8.75642 25.1185C8.67681 25.3152 8.59304 25.4999 8.51759 25.6925H5.20312C5.26608 25.4744 5.33737 25.2564 5.40449 25.043L5.70628 24.1166C5.7734 23.9324 5.84052 23.7393 5.90764 23.5509C6.00806 23.2533 6.10484 22.9811 6.19278 22.7292C6.26823 22.5028 6.34784 22.2977 6.41496 22.0963C6.48208 21.9204 6.54088 21.757 6.59916 21.6061C7.04768 20.4284 7.26101 20.0047 7.26101 20.0047C7.34895 19.6821 7.48319 19.3048 7.69704 18.9066C7.98634 18.3701 8.33391 17.9511 8.66068 17.6409C8.75694 17.5447 8.8532 17.4609 8.94166 17.3854C9.08006 17.2725 9.20546 17.1757 9.31473 17.1002C9.19297 17.4859 8.92501 18.4705 9.26426 19.6529C9.31369 19.8288 9.37613 19.9922 9.43493 20.1432Z" fill="#FFB7A6" style="fill:#FFB7A6;fill:color(display-p3 1.0000 0.7176 0.6510);fill-opacity:1;"/>
<path id="Vector_30" d="M9.39609 23.1584C9.39609 23.3056 9.38881 23.4602 9.38881 23.608C9.29307 23.8438 9.19733 24.0795 9.0943 24.3153C8.1291 23.785 7.16442 23.2619 6.19922 22.7389C6.95057 22.8862 7.70192 23.0407 8.46056 23.1958C8.77743 23.1807 9.08702 23.1734 9.39609 23.1584Z" fill="#F9917D" style="fill:#F9917D;fill:color(display-p3 0.9765 0.5686 0.4902);fill-opacity:1;"/>
<path id="Vector_31" d="M9.77905 16.5426C9.66874 17.648 9.55791 18.7456 9.44032 19.8504C9.44032 19.9462 9.44031 20.0493 9.43303 20.145C9.42574 21.1468 9.41118 22.1565 9.39609 23.1583C9.39609 23.3056 9.38881 23.4601 9.38881 23.6079C8.32058 23.3207 7.26744 23.0261 6.19921 22.7383C6.12584 22.7159 6.05925 22.6941 5.99316 22.6795C6.2731 21.3165 6.95056 19.1578 8.77742 17.3826C9.10887 17.0656 9.4476 16.7856 9.77905 16.5426Z" fill="white" style="fill:white;fill-opacity:1;"/>
</g>
<g id="Group_12">
<path id="Vector_32" d="M22.0775 25.6932H18.763C18.6834 25.5001 18.6038 25.3159 18.5242 25.1191C18.4404 24.9349 18.3692 24.7502 18.2895 24.5659C18.2521 24.4863 18.2224 24.3983 18.185 24.3146C18.1345 24.1975 18.0845 24.0798 18.0341 23.9628C17.9836 23.841 17.9378 23.728 17.8915 23.6109C17.8915 23.46 17.8832 23.3091 17.8832 23.1582C17.8748 22.58 17.8665 21.9971 17.8624 21.4147C17.854 20.9833 17.8499 20.5638 17.8457 20.1449C17.879 20.0569 17.9128 19.969 17.9461 19.8727C17.9711 19.8014 17.9966 19.7301 18.0174 19.6546C18.2604 18.7954 18.1891 18.0366 18.0804 17.5422C18.0382 17.3538 17.9966 17.2071 17.9633 17.1019C18.0049 17.1311 18.0512 17.1649 18.0975 17.1982C18.2901 17.3408 18.5164 17.5292 18.7469 17.7681C18.7552 17.7764 18.7636 17.7806 18.7636 17.7889C19.0487 18.0824 19.3375 18.4509 19.5852 18.9078C19.799 19.3059 19.9332 19.6833 20.0212 20.0059C20.0212 20.0059 20.0462 20.0522 20.0925 20.1569C20.2054 20.4082 20.4614 20.9994 20.8677 22.0975C20.9349 22.2989 21.0145 22.504 21.0858 22.7304C21.1779 22.9817 21.27 23.2544 21.3751 23.5521C21.4422 23.7405 21.5093 23.9336 21.5764 24.1178L21.8782 25.0442C21.9433 25.2571 22.0104 25.4751 22.0775 25.6932Z" fill="#FFB7A6" style="fill:#FFB7A6;fill:color(display-p3 1.0000 0.7176 0.6510);fill-opacity:1;"/>
<path id="Vector_33" d="M17.8828 23.1585C17.8828 23.3058 17.8901 23.4603 17.8901 23.6081C17.9858 23.8439 18.0816 24.0796 18.1846 24.3154C19.1493 23.7851 20.1145 23.262 21.0792 22.739C20.3278 22.8863 19.5765 23.0409 18.8178 23.196C18.5015 23.1809 18.1919 23.1736 17.8828 23.1585Z" fill="#F9917D" style="fill:#F9917D;fill:color(display-p3 0.9765 0.5686 0.4902);fill-opacity:1;"/>
<path id="Vector_34" d="M17.499 16.5425C17.6093 17.6479 17.7202 18.7455 17.8378 19.8503C17.8378 19.9461 17.8378 20.0491 17.845 20.1449C17.8523 21.1467 17.8669 22.1563 17.882 23.1582C17.882 23.3054 17.8893 23.46 17.8893 23.6078C18.9575 23.3205 20.0106 23.026 21.0789 22.7382C21.1527 22.7158 21.2188 22.6939 21.2849 22.6794C21.005 21.3164 20.3275 19.1576 18.5007 17.3825C18.1692 17.0655 17.8305 16.7855 17.499 16.5425Z" fill="white" style="fill:white;fill-opacity:1;"/>
</g>
<path id="Vector_35" d="M23.5565 23.1195C23.3765 24.0875 23.108 24.9467 22.802 25.693H19.2695L19.588 23.5515C19.6088 23.4089 19.6296 23.2663 19.6468 23.1284C19.6551 23.0904 19.6593 23.0571 19.6634 23.0196C19.806 22.0641 19.9486 21.1127 20.0906 20.1567C20.1156 19.9683 20.1452 19.7836 20.1702 19.5952C20.279 18.8702 20.3882 18.1489 20.4928 17.4281L23.4639 17.8642C23.7365 19.1294 23.9504 20.9733 23.5565 23.1195Z" fill="#FFB7A6" style="fill:#FFB7A6;fill:color(display-p3 1.0000 0.7176 0.6510);fill-opacity:1;"/>
<path id="Vector_36" d="M23.465 17.8648C23.2335 17.9491 22.9421 18.0256 22.6013 18.0474C21.5778 18.113 20.802 17.641 20.4945 17.4281C20.4638 16.5143 20.4336 15.5999 20.4029 14.686C20.3784 13.9527 20.5377 13.6821 20.6792 13.6498C20.9409 13.5905 21.3208 14.3716 21.4181 14.5783C22.044 14.5835 22.5732 14.5731 22.9717 14.5606C25.3923 14.4846 25.7628 14.2462 25.9574 14.0714C26.0895 13.9527 26.3872 13.643 26.5178 13.7185C26.576 13.7518 26.5833 13.8512 26.5792 13.9334C26.6015 13.9792 26.6296 14.0511 26.638 14.1411C26.6697 14.4778 26.395 14.7516 26.2888 14.8572C25.6748 15.4682 24.7112 15.4338 24.1087 15.9517C23.7991 16.2181 23.4598 16.738 23.465 17.8648Z" fill="#FFB7A6" style="fill:#FFB7A6;fill:color(display-p3 1.0000 0.7176 0.6510);fill-opacity:1;"/>
<g id="Group_13">
<path id="Vector_37" d="M19.2699 25.758C19.2246 25.7517 19.2002 25.7189 19.2059 25.683L19.5243 23.5415C19.5243 23.5055 19.553 23.479 19.5889 23.479C19.6248 23.479 19.6534 23.5107 19.6534 23.5467L19.3339 25.7028C19.3292 25.7345 19.3016 25.758 19.2699 25.758Z" fill="#FF6C6C" style="fill:#FF6C6C;fill:color(display-p3 1.0000 0.4235 0.4235);fill-opacity:1;"/>
</g>
<path id="Vector_38" d="M15.2455 10.052C15.3636 10.5823 13.8609 10.9065 13.2053 12.0484C12.7266 12.8883 13.3234 13.1975 13.0799 14.6859C12.7854 16.5131 11.8129 16.9331 12.1147 17.9422C12.3946 18.878 13.4332 19.2095 13.2787 19.6295C13.1241 20.0567 11.9529 19.9537 11.9305 20.2186C11.9081 20.4325 12.7188 20.5282 12.8218 20.9555C12.866 21.1616 12.7334 21.3901 12.5273 21.604H9.86845C9.77271 21.3021 9.69154 20.9925 9.5958 20.6906V21.604H8.41726C8.38032 21.5524 8.33609 21.4936 8.29186 21.4421C8.29186 21.4936 8.28458 21.5524 8.27729 21.604H4.38786C4.30669 21.2428 4.26246 20.7786 4.46175 20.3367C4.75625 19.6955 5.28646 19.7622 5.73603 19.0398C6.18559 18.3326 5.87599 17.9198 6.36198 17.4041C6.70071 17.0429 6.98793 17.1017 7.51085 16.8295C8.12952 16.5053 8.26948 16.1369 9.11657 14.9878C10.5308 13.0648 10.7889 13.2199 11.0761 12.3726C11.4372 11.3411 11.0907 11.0169 11.5621 10.4054C12.0923 9.72778 13.1975 9.27084 13.9337 9.66116C14.1252 9.75692 14.2579 9.89692 14.3464 10.0151C14.3682 9.97082 14.5009 9.71321 14.7293 9.68354C14.951 9.6544 15.2013 9.86049 15.2455 10.052Z" fill="#232996" style="fill:#232996;fill:color(display-p3 0.1373 0.1608 0.5882);fill-opacity:1;"/>
<g id="Group_14">
<path id="Vector_39" d="M4.11644 21.6274C4.08886 21.6274 4.06337 21.6097 4.05453 21.5821C3.90155 21.1059 3.89999 20.6797 4.0488 20.3148C4.19449 19.9589 4.42656 19.8064 4.67215 19.644C4.89797 19.4946 5.13159 19.3406 5.33348 19.007C5.54473 18.6573 5.5567 18.396 5.56867 18.1436C5.58167 17.8631 5.59365 17.5977 5.87462 17.2714C6.24926 16.8363 6.89238 16.5428 7.1515 16.4366C7.28626 16.3825 7.34662 16.3658 7.39501 16.3533C7.4382 16.3419 7.46941 16.3336 7.54226 16.2992C7.93146 16.1165 8.10629 15.8542 8.42421 15.3775C8.50903 15.25 8.60425 15.1074 8.71508 14.9497C9.02779 14.5037 9.27338 14.1524 9.67195 13.7366C9.8499 13.5513 9.97738 13.4374 10.1002 13.327C10.2355 13.2063 10.3629 13.0918 10.5367 12.8966C10.8234 12.5745 11.0721 12.2185 11.2761 11.8381C11.2938 11.8058 11.3323 11.7949 11.364 11.8116C11.3958 11.8287 11.4072 11.8678 11.3906 11.9C11.1819 12.2888 10.927 12.6531 10.6335 12.983C10.4545 13.1839 10.3244 13.3005 10.1865 13.4244C10.0653 13.5326 9.93992 13.645 9.76561 13.8272C9.37381 14.2352 9.13029 14.5828 8.82174 15.0231C8.71091 15.1819 8.61673 15.3229 8.53192 15.4499C8.21192 15.9302 8.01888 16.2196 7.59741 16.4174C7.51416 16.4564 7.4741 16.4668 7.42831 16.4788C7.38356 16.4907 7.32788 16.5058 7.20249 16.5563C6.95013 16.6594 6.32938 16.9419 5.97296 17.3562C5.72165 17.6482 5.71072 17.8803 5.69823 18.1488C5.68678 18.4049 5.67326 18.6958 5.44483 19.0731C5.22786 19.4322 4.97082 19.6019 4.74395 19.7512C4.50565 19.9089 4.2996 20.0442 4.16951 20.3632C4.03215 20.6989 4.03527 21.095 4.17888 21.5415C4.18981 21.5753 4.17107 21.6123 4.13673 21.6232C4.12945 21.6263 4.12268 21.6274 4.11644 21.6274Z" fill="#232996" style="fill:#232996;fill:color(display-p3 0.1373 0.1608 0.5882);fill-opacity:1;"/>
</g>
</g>
<g id="Group_15">
<path id="Vector_40" d="M9.10823 12.2557C9.10823 14.1074 7.6071 15.6088 5.75578 15.6088C3.90446 15.6088 2.40332 14.1079 2.40332 12.2557C2.40332 10.404 3.90394 8.90259 5.75578 8.90259C7.60762 8.90259 9.10823 10.404 9.10823 12.2557Z" fill="white" style="fill:white;fill-opacity:1;"/>
<path id="Vector_41" d="M4.91797 14.1248C5.75777 13.5253 6.59758 12.9258 7.43686 12.3262C6.59706 11.7324 5.75725 11.1386 4.91797 10.5448C4.91797 11.7376 4.91797 12.931 4.91797 14.1248Z" fill="#FF77A1" style="fill:#FF77A1;fill:color(display-p3 1.0000 0.4667 0.6314);fill-opacity:1;"/>
</g>
<g id="Group_16">
<g id="Group_17">
<path id="Vector_42" d="M30.694 17.5548C30.6128 18.7226 30.5072 22.12 31.296 22.2756C32.0011 22.4145 33.5163 19.9852 33.3477 17.5548C33.2259 15.7952 32.2201 14.0107 31.6015 14.1017C30.9266 14.2017 30.7653 16.528 30.694 17.5548Z" fill="#4390FF" style="fill:#4390FF;fill:color(display-p3 0.2627 0.5647 1.0000);fill-opacity:1;"/>
<g id="Group_18">
<path id="Vector_43" d="M30.9051 32.8879C30.8739 32.8879 30.8469 32.8656 30.8411 32.8338C30.299 29.7773 30.299 26.8666 30.8417 24.1827C30.9202 23.794 31.0061 23.426 31.0977 23.0367C31.336 22.0177 31.5831 20.9639 31.7142 19.44C31.8657 17.6747 31.8074 15.8824 31.5399 14.1114C31.5347 14.076 31.5592 14.0427 31.5946 14.037C31.6331 14.0307 31.6632 14.0562 31.6685 14.0916C31.9375 15.8725 31.9963 17.6758 31.8438 19.451C31.7122 20.9836 31.4645 22.0427 31.2246 23.0659C31.1336 23.4546 31.0477 23.8215 30.9697 24.2077C30.4306 26.8759 30.4306 29.77 30.9697 32.8109C30.9759 32.8458 30.9525 32.8801 30.9171 32.8864C30.9129 32.8874 30.9093 32.8879 30.9051 32.8879Z" fill="#232996" style="fill:#232996;fill:color(display-p3 0.1373 0.1608 0.5882);fill-opacity:1;"/>
</g>
</g>
<g id="Group_19">
<path id="Vector_44" d="M33.4115 20.4198C33.1061 21.5497 32.3448 24.8622 33.0889 25.1677C33.7533 25.4404 35.7098 23.3504 36.0152 20.9335C36.2363 19.1838 35.5948 17.2379 34.9704 17.2078C34.2882 17.175 33.68 19.4263 33.4115 20.4198Z" fill="#4390FF" style="fill:#4390FF;fill:color(display-p3 0.2627 0.5647 1.0000);fill-opacity:1;"/>
<g id="Group_20">
<path id="Vector_45" d="M30.6627 35.5053C30.6258 35.5048 30.5971 35.4746 30.5977 35.4393C30.657 32.3349 31.2205 29.4793 32.2721 26.9511C32.424 26.5852 32.5796 26.2412 32.7445 25.8769C33.1759 24.9229 33.6218 23.9362 34.0448 22.467C34.5344 20.7663 34.8237 18.9963 34.9049 17.205C34.9065 17.1696 34.9382 17.141 34.9731 17.1431C35.009 17.1446 35.0366 17.1753 35.035 17.2112C34.9533 19.0124 34.6619 20.7933 34.1697 22.503C33.7435 23.982 33.2955 24.9724 32.8626 25.9305C32.6982 26.2943 32.5432 26.6372 32.3917 27.0015C31.3464 29.5147 30.7865 32.3542 30.7277 35.4419C30.7272 35.4772 30.6981 35.5053 30.6627 35.5053Z" fill="#232996" style="fill:#232996;fill:color(display-p3 0.1373 0.1608 0.5882);fill-opacity:1;"/>
</g>
</g>
<g id="Group_21">
<path id="Vector_46" d="M35.2031 25.8178C34.8102 26.3169 33.7269 27.809 34.0334 28.1197C34.3071 28.3971 35.7281 27.7695 36.3941 26.6282C36.8764 25.8017 36.9696 24.6942 36.6641 24.5464C36.3306 24.3846 35.548 25.3791 35.2031 25.8178Z" fill="#4390FF" style="fill:#4390FF;fill:color(display-p3 0.2627 0.5647 1.0000);fill-opacity:1;"/>
<g id="Group_22">
<path id="Vector_47" d="M30.6402 32.7972C30.6313 32.7972 30.6219 32.7951 30.6136 32.7914C30.5808 32.7769 30.5663 32.7383 30.5808 32.7056C31.2718 31.1656 32.1616 29.8567 33.2267 28.8148C33.3807 28.6644 33.5347 28.5229 33.6924 28.3777C34.1092 27.9946 34.5405 27.5976 35.0624 26.9559C35.6665 26.2132 36.1858 25.393 36.6062 24.5182C36.6223 24.4859 36.6608 24.4719 36.6931 24.4875C36.7254 24.5026 36.7389 24.5421 36.7238 24.5739C36.2992 25.4581 35.7742 26.2871 35.1639 27.0376C34.6357 27.6865 34.2007 28.0868 33.7808 28.4734C33.6242 28.6171 33.4712 28.7581 33.3183 28.908C32.2651 29.9379 31.3847 31.2333 30.7005 32.7581C30.6885 32.7831 30.6651 32.7972 30.6402 32.7972Z" fill="#232996" style="fill:#232996;fill:color(display-p3 0.1373 0.1608 0.5882);fill-opacity:1;"/>
</g>
</g>
<path id="Vector_48" d="M29.196 37.4332H33.037C33.5771 37.4332 34.0147 36.9955 34.0147 36.4553V29.9937H28.2178V36.4553C28.2183 36.995 28.6559 37.4332 29.196 37.4332Z" fill="#4390FF" style="fill:#4390FF;fill:color(display-p3 0.2627 0.5647 1.0000);fill-opacity:1;"/>
</g>
<g id="Group_23">
<g id="Group_24">
<path id="Vector_49" d="M25.421 31.2182C25.421 31.3587 25.307 31.4727 25.1665 31.4727C25.0261 31.4727 24.9121 31.3587 24.9121 31.2182C24.9121 31.0777 25.0261 30.9637 25.1665 30.9637C25.307 30.9637 25.421 31.0777 25.421 31.2182Z" fill="#232996" style="fill:#232996;fill:color(display-p3 0.1373 0.1608 0.5882);fill-opacity:1;"/>
<path id="Vector_50" d="M26.5528 31.2184C26.5528 31.3589 26.4389 31.4729 26.2984 31.4729C26.1579 31.4729 26.0439 31.3589 26.0439 31.2184C26.0439 31.0778 26.1579 30.9639 26.2984 30.9639C26.4389 30.9639 26.5528 31.0778 26.5528 31.2184Z" fill="#232996" style="fill:#232996;fill:color(display-p3 0.1373 0.1608 0.5882);fill-opacity:1;"/>
<path id="Vector_51" d="M27.711 31.2184C27.711 31.3589 27.5971 31.4729 27.4566 31.4729C27.3161 31.4729 27.2021 31.3589 27.2021 31.2184C27.2021 31.0778 27.3161 30.9639 27.4566 30.9639C27.5971 30.9639 27.711 31.0778 27.711 31.2184Z" fill="#232996" style="fill:#232996;fill:color(display-p3 0.1373 0.1608 0.5882);fill-opacity:1;"/>
<path id="Vector_52" d="M28.5884 31.4729C28.7289 31.4729 28.8429 31.3589 28.8429 31.2184C28.8429 31.0778 28.7289 30.9639 28.5884 30.9639C28.4479 30.9639 28.334 31.0778 28.334 31.2184C28.334 31.3589 28.4479 31.4729 28.5884 31.4729Z" fill="#232996" style="fill:#232996;fill:color(display-p3 0.1373 0.1608 0.5882);fill-opacity:1;"/>
</g>
<g id="Group_25">
<path id="Vector_53" d="M25.421 32.3353C25.421 32.4758 25.307 32.5898 25.1665 32.5898C25.0261 32.5898 24.9121 32.4758 24.9121 32.3353C24.9121 32.1948 25.0261 32.0808 25.1665 32.0808C25.307 32.0808 25.421 32.1948 25.421 32.3353Z" fill="#232996" style="fill:#232996;fill:color(display-p3 0.1373 0.1608 0.5882);fill-opacity:1;"/>
<path id="Vector_54" d="M26.5528 32.3355C26.5528 32.4761 26.4389 32.59 26.2984 32.59C26.1579 32.59 26.0439 32.4761 26.0439 32.3355C26.0439 32.195 26.1579 32.0811 26.2984 32.0811C26.4389 32.0811 26.5528 32.195 26.5528 32.3355Z" fill="#232996" style="fill:#232996;fill:color(display-p3 0.1373 0.1608 0.5882);fill-opacity:1;"/>
<path id="Vector_55" d="M27.711 32.3355C27.711 32.4761 27.5971 32.59 27.4566 32.59C27.3161 32.59 27.2021 32.4761 27.2021 32.3355C27.2021 32.195 27.3161 32.0811 27.4566 32.0811C27.5971 32.0811 27.711 32.195 27.711 32.3355Z" fill="#232996" style="fill:#232996;fill:color(display-p3 0.1373 0.1608 0.5882);fill-opacity:1;"/>
<path id="Vector_56" d="M28.5884 32.59C28.7289 32.59 28.8429 32.4761 28.8429 32.3355C28.8429 32.195 28.7289 32.0811 28.5884 32.0811C28.4479 32.0811 28.334 32.195 28.334 32.3355C28.334 32.4761 28.4479 32.59 28.5884 32.59Z" fill="#232996" style="fill:#232996;fill:color(display-p3 0.1373 0.1608 0.5882);fill-opacity:1;"/>
</g>
<g id="Group_26">
<path id="Vector_57" d="M25.421 33.459C25.421 33.5995 25.307 33.7134 25.1665 33.7134C25.0261 33.7134 24.9121 33.5995 24.9121 33.459C24.9121 33.3184 25.0261 33.2045 25.1665 33.2045C25.307 33.2045 25.421 33.3184 25.421 33.459Z" fill="#232996" style="fill:#232996;fill:color(display-p3 0.1373 0.1608 0.5882);fill-opacity:1;"/>
<path id="Vector_58" d="M26.5528 33.4588C26.5528 33.5994 26.4389 33.7133 26.2984 33.7133C26.1579 33.7133 26.0439 33.5994 26.0439 33.4588C26.0439 33.3183 26.1579 33.2043 26.2984 33.2043C26.4389 33.2043 26.5528 33.3183 26.5528 33.4588Z" fill="#232996" style="fill:#232996;fill:color(display-p3 0.1373 0.1608 0.5882);fill-opacity:1;"/>
<path id="Vector_59" d="M27.711 33.4588C27.711 33.5994 27.5971 33.7133 27.4566 33.7133C27.3161 33.7133 27.2021 33.5994 27.2021 33.4588C27.2021 33.3183 27.3161 33.2043 27.4566 33.2043C27.5971 33.2043 27.711 33.3183 27.711 33.4588Z" fill="#232996" style="fill:#232996;fill:color(display-p3 0.1373 0.1608 0.5882);fill-opacity:1;"/>
<path id="Vector_60" d="M28.5884 33.7133C28.7289 33.7133 28.8429 33.5994 28.8429 33.4588C28.8429 33.3183 28.7289 33.2043 28.5884 33.2043C28.4479 33.2043 28.334 33.3183 28.334 33.4588C28.334 33.5994 28.4479 33.7133 28.5884 33.7133Z" fill="#232996" style="fill:#232996;fill:color(display-p3 0.1373 0.1608 0.5882);fill-opacity:1;"/>
</g>
</g>
<g id="Group_27">
<g id="Group_28">
<path id="Vector_61" d="M6.17338 28.7172C6.31391 28.7172 6.42782 28.6033 6.42782 28.4627C6.42782 28.3222 6.31391 28.2083 6.17338 28.2083C6.03286 28.2083 5.91895 28.3222 5.91895 28.4627C5.91895 28.6033 6.03286 28.7172 6.17338 28.7172Z" fill="#232996" style="fill:#232996;fill:color(display-p3 0.1373 0.1608 0.5882);fill-opacity:1;"/>
<path id="Vector_62" d="M7.56063 28.4629C7.56063 28.6034 7.44668 28.7174 7.3062 28.7174C7.16571 28.7174 7.05176 28.6034 7.05176 28.4629C7.05176 28.3223 7.16571 28.2084 7.3062 28.2084C7.44668 28.2084 7.56063 28.3223 7.56063 28.4629Z" fill="#232996" style="fill:#232996;fill:color(display-p3 0.1373 0.1608 0.5882);fill-opacity:1;"/>
<path id="Vector_63" d="M8.71688 28.4629C8.71688 28.6034 8.60293 28.7174 8.46245 28.7174C8.32196 28.7174 8.20801 28.6034 8.20801 28.4629C8.20801 28.3223 8.32196 28.2084 8.46245 28.2084C8.60345 28.2084 8.71688 28.3223 8.71688 28.4629Z" fill="#232996" style="fill:#232996;fill:color(display-p3 0.1373 0.1608 0.5882);fill-opacity:1;"/>
<path id="Vector_64" d="M9.59623 28.7174C9.73676 28.7174 9.85067 28.6034 9.85067 28.4629C9.85067 28.3223 9.73676 28.2084 9.59623 28.2084C9.45571 28.2084 9.3418 28.3223 9.3418 28.4629C9.3418 28.6034 9.45571 28.7174 9.59623 28.7174Z" fill="#232996" style="fill:#232996;fill:color(display-p3 0.1373 0.1608 0.5882);fill-opacity:1;"/>
</g>
<g id="Group_29">
<path id="Vector_65" d="M6.17338 29.8348C6.31391 29.8348 6.42782 29.7208 6.42782 29.5803C6.42782 29.4397 6.31391 29.3258 6.17338 29.3258C6.03286 29.3258 5.91895 29.4397 5.91895 29.5803C5.91895 29.7208 6.03286 29.8348 6.17338 29.8348Z" fill="#232996" style="fill:#232996;fill:color(display-p3 0.1373 0.1608 0.5882);fill-opacity:1;"/>
<path id="Vector_66" d="M7.56063 29.5801C7.56063 29.7206 7.44668 29.8345 7.3062 29.8345C7.16571 29.8345 7.05176 29.7206 7.05176 29.5801C7.05176 29.4395 7.16571 29.3256 7.3062 29.3256C7.44668 29.3256 7.56063 29.4395 7.56063 29.5801Z" fill="#232996" style="fill:#232996;fill:color(display-p3 0.1373 0.1608 0.5882);fill-opacity:1;"/>
<path id="Vector_67" d="M8.71688 29.5801C8.71688 29.7206 8.60293 29.8345 8.46245 29.8345C8.32196 29.8345 8.20801 29.7206 8.20801 29.5801C8.20801 29.4395 8.32196 29.3256 8.46245 29.3256C8.60345 29.3256 8.71688 29.4395 8.71688 29.5801Z" fill="#232996" style="fill:#232996;fill:color(display-p3 0.1373 0.1608 0.5882);fill-opacity:1;"/>
<path id="Vector_68" d="M9.59623 29.8345C9.73676 29.8345 9.85067 29.7206 9.85067 29.5801C9.85067 29.4395 9.73676 29.3256 9.59623 29.3256C9.45571 29.3256 9.3418 29.4395 9.3418 29.5801C9.3418 29.7206 9.45571 29.8345 9.59623 29.8345Z" fill="#232996" style="fill:#232996;fill:color(display-p3 0.1373 0.1608 0.5882);fill-opacity:1;"/>
</g>
<g id="Group_30">
<path id="Vector_69" d="M6.17338 30.958C6.31391 30.958 6.42782 30.844 6.42782 30.7035C6.42782 30.5629 6.31391 30.449 6.17338 30.449C6.03286 30.449 5.91895 30.5629 5.91895 30.7035C5.91895 30.844 6.03286 30.958 6.17338 30.958Z" fill="#232996" style="fill:#232996;fill:color(display-p3 0.1373 0.1608 0.5882);fill-opacity:1;"/>
<path id="Vector_70" d="M7.56063 30.7036C7.56063 30.8441 7.44668 30.9581 7.3062 30.9581C7.16571 30.9581 7.05176 30.8441 7.05176 30.7036C7.05176 30.5631 7.16571 30.4491 7.3062 30.4491C7.44668 30.4491 7.56063 30.5631 7.56063 30.7036Z" fill="#232996" style="fill:#232996;fill:color(display-p3 0.1373 0.1608 0.5882);fill-opacity:1;"/>
<path id="Vector_71" d="M8.71688 30.7036C8.71688 30.8441 8.60293 30.9581 8.46245 30.9581C8.32196 30.9581 8.20801 30.8441 8.20801 30.7036C8.20801 30.5631 8.32196 30.4491 8.46245 30.4491C8.60345 30.4491 8.71688 30.5631 8.71688 30.7036Z" fill="#232996" style="fill:#232996;fill:color(display-p3 0.1373 0.1608 0.5882);fill-opacity:1;"/>
<path id="Vector_72" d="M9.59623 30.9581C9.73676 30.9581 9.85067 30.8441 9.85067 30.7036C9.85067 30.563 9.73676 30.4491 9.59623 30.4491C9.45571 30.4491 9.3418 30.563 9.3418 30.7036C9.3418 30.8441 9.45571 30.9581 9.59623 30.9581Z" fill="#232996" style="fill:#232996;fill:color(display-p3 0.1373 0.1608 0.5882);fill-opacity:1;"/>
</g>
</g>
<g id="Group_31">
<g id="Group_32">
<path id="Vector_73" d="M8.76767 3.4614C8.76767 3.60191 8.65371 3.71589 8.51323 3.71589C8.37274 3.71589 8.25879 3.60191 8.25879 3.4614C8.25879 3.32088 8.37274 3.20691 8.51323 3.20691C8.65371 3.20691 8.76767 3.32088 8.76767 3.4614Z" fill="#232996" style="fill:#232996;fill:color(display-p3 0.1373 0.1608 0.5882);fill-opacity:1;"/>
<path id="Vector_74" d="M9.8995 3.46128C9.8995 3.60179 9.78555 3.71576 9.64506 3.71576C9.50458 3.71576 9.39062 3.60179 9.39062 3.46128C9.39062 3.32076 9.50458 3.20679 9.64506 3.20679C9.78607 3.20679 9.8995 3.32076 9.8995 3.46128Z" fill="#232996" style="fill:#232996;fill:color(display-p3 0.1373 0.1608 0.5882);fill-opacity:1;"/>
<path id="Vector_75" d="M11.0567 3.46128C11.0567 3.60179 10.9428 3.71576 10.8023 3.71576C10.6618 3.71576 10.5479 3.60179 10.5479 3.46128C10.5479 3.32076 10.6618 3.20679 10.8023 3.20679C10.9428 3.20679 11.0567 3.32076 11.0567 3.46128Z" fill="#232996" style="fill:#232996;fill:color(display-p3 0.1373 0.1608 0.5882);fill-opacity:1;"/>
<path id="Vector_76" d="M12.1895 3.46128C12.1895 3.60179 12.0756 3.71576 11.9351 3.71576C11.7946 3.71576 11.6807 3.60179 11.6807 3.46128C11.6807 3.32076 11.7946 3.20679 11.9351 3.20679C12.0756 3.20679 12.1895 3.32076 12.1895 3.46128Z" fill="#232996" style="fill:#232996;fill:color(display-p3 0.1373 0.1608 0.5882);fill-opacity:1;"/>
</g>
<g id="Group_33">
<path id="Vector_77" d="M8.76767 4.57871C8.76767 4.71923 8.65371 4.8332 8.51323 4.8332C8.37274 4.8332 8.25879 4.71923 8.25879 4.57871C8.25879 4.4382 8.37274 4.32422 8.51323 4.32422C8.65371 4.32422 8.76767 4.43768 8.76767 4.57871Z" fill="#232996" style="fill:#232996;fill:color(display-p3 0.1373 0.1608 0.5882);fill-opacity:1;"/>
<path id="Vector_78" d="M9.8995 4.57871C9.8995 4.71923 9.78555 4.8332 9.64506 4.8332C9.50458 4.8332 9.39062 4.71923 9.39062 4.57871C9.39062 4.4382 9.50458 4.32422 9.64506 4.32422C9.78607 4.32422 9.8995 4.43768 9.8995 4.57871Z" fill="#232996" style="fill:#232996;fill:color(display-p3 0.1373 0.1608 0.5882);fill-opacity:1;"/>
<path id="Vector_79" d="M11.0567 4.57871C11.0567 4.71923 10.9428 4.8332 10.8023 4.8332C10.6618 4.8332 10.5479 4.71923 10.5479 4.57871C10.5479 4.4382 10.6618 4.32422 10.8023 4.32422C10.9428 4.32422 11.0567 4.43768 11.0567 4.57871Z" fill="#232996" style="fill:#232996;fill:color(display-p3 0.1373 0.1608 0.5882);fill-opacity:1;"/>
<path id="Vector_80" d="M12.1895 4.57871C12.1895 4.71923 12.0756 4.8332 11.9351 4.8332C11.7946 4.8332 11.6807 4.71923 11.6807 4.57871C11.6807 4.4382 11.7946 4.32422 11.9351 4.32422C12.0756 4.32422 12.1895 4.43768 12.1895 4.57871Z" fill="#232996" style="fill:#232996;fill:color(display-p3 0.1373 0.1608 0.5882);fill-opacity:1;"/>
</g>
<g id="Group_34">
<path id="Vector_81" d="M8.76767 5.70114C8.76767 5.84166 8.65371 5.95563 8.51323 5.95563C8.37274 5.95563 8.25879 5.84166 8.25879 5.70114C8.25879 5.56063 8.37274 5.44666 8.51323 5.44666C8.65371 5.44666 8.76767 5.56063 8.76767 5.70114Z" fill="#232996" style="fill:#232996;fill:color(display-p3 0.1373 0.1608 0.5882);fill-opacity:1;"/>
<path id="Vector_82" d="M9.8995 5.70114C9.8995 5.84166 9.78555 5.95563 9.64506 5.95563C9.50458 5.95563 9.39062 5.84166 9.39062 5.70114C9.39062 5.56063 9.50458 5.44666 9.64506 5.44666C9.78607 5.44666 9.8995 5.56063 9.8995 5.70114Z" fill="#232996" style="fill:#232996;fill:color(display-p3 0.1373 0.1608 0.5882);fill-opacity:1;"/>
<path id="Vector_83" d="M11.0567 5.70114C11.0567 5.84166 10.9428 5.95563 10.8023 5.95563C10.6618 5.95563 10.5479 5.84166 10.5479 5.70114C10.5479 5.56063 10.6618 5.44666 10.8023 5.44666C10.9428 5.44666 11.0567 5.56063 11.0567 5.70114Z" fill="#232996" style="fill:#232996;fill:color(display-p3 0.1373 0.1608 0.5882);fill-opacity:1;"/>
<path id="Vector_84" d="M12.1895 5.70114C12.1895 5.84166 12.0756 5.95563 11.9351 5.95563C11.7946 5.95563 11.6807 5.84166 11.6807 5.70114C11.6807 5.56063 11.7946 5.44666 11.9351 5.44666C12.0756 5.44666 12.1895 5.56063 12.1895 5.70114Z" fill="#232996" style="fill:#232996;fill:color(display-p3 0.1373 0.1608 0.5882);fill-opacity:1;"/>
</g>
</g>
<g id="Group_35">
<g id="Group_36">
<path id="Vector_85" d="M22.0626 18.9547C22.0626 19.0952 21.9486 19.2092 21.8081 19.2092C21.6677 19.2092 21.5537 19.0952 21.5537 18.9547C21.5537 18.8142 21.6677 18.7002 21.8081 18.7002C21.9486 18.7002 22.0626 18.8142 22.0626 18.9547Z" fill="white" style="fill:white;fill-opacity:1;"/>
<path id="Vector_86" d="M23.1954 18.9546C23.1954 19.0951 23.0814 19.2091 22.941 19.2091C22.8005 19.2091 22.6865 19.0951 22.6865 18.9546C22.6865 18.814 22.8005 18.7001 22.941 18.7001C23.0814 18.7006 23.1954 18.814 23.1954 18.9546Z" fill="white" style="fill:white;fill-opacity:1;"/>
<path id="Vector_87" d="M24.3526 18.9546C24.3526 19.0951 24.2387 19.2091 24.0982 19.2091C23.9577 19.2091 23.8438 19.0951 23.8438 18.9546C23.8438 18.814 23.9577 18.7001 24.0982 18.7001C24.2387 18.7006 24.3526 18.814 24.3526 18.9546Z" fill="white" style="fill:white;fill-opacity:1;"/>
<path id="Vector_88" d="M25.4854 18.9546C25.4854 19.0951 25.3715 19.2091 25.231 19.2091C25.0905 19.2091 24.9766 19.0951 24.9766 18.9546C24.9766 18.814 25.0905 18.7001 25.231 18.7001C25.3715 18.7006 25.4854 18.814 25.4854 18.9546Z" fill="white" style="fill:white;fill-opacity:1;"/>
</g>
<g id="Group_37">
<path id="Vector_89" d="M22.0626 20.0719C22.0626 20.2124 21.9486 20.3264 21.8081 20.3264C21.6677 20.3264 21.5537 20.2124 21.5537 20.0719C21.5537 19.9314 21.6677 19.8174 21.8081 19.8174C21.9486 19.8174 22.0626 19.9314 22.0626 20.0719Z" fill="white" style="fill:white;fill-opacity:1;"/>
<path id="Vector_90" d="M23.1954 20.0719C23.1954 20.2124 23.0814 20.3264 22.941 20.3264C22.8005 20.3264 22.6865 20.2124 22.6865 20.0719C22.6865 19.9314 22.8005 19.8174 22.941 19.8174C23.0814 19.8174 23.1954 19.9314 23.1954 20.0719Z" fill="white" style="fill:white;fill-opacity:1;"/>
<path id="Vector_91" d="M24.3526 20.0719C24.3526 20.2124 24.2387 20.3264 24.0982 20.3264C23.9577 20.3264 23.8438 20.2124 23.8438 20.0719C23.8438 19.9314 23.9577 19.8174 24.0982 19.8174C24.2387 19.8174 24.3526 19.9314 24.3526 20.0719Z" fill="white" style="fill:white;fill-opacity:1;"/>
<path id="Vector_92" d="M25.4854 20.0719C25.4854 20.2124 25.3715 20.3264 25.231 20.3264C25.0905 20.3264 24.9766 20.2124 24.9766 20.0719C24.9766 19.9314 25.0905 19.8174 25.231 19.8174C25.3715 19.8174 25.4854 19.9314 25.4854 20.0719Z" fill="white" style="fill:white;fill-opacity:1;"/>
</g>
<g id="Group_38">
<path id="Vector_93" d="M22.0626 21.1944C22.0626 21.3349 21.9486 21.4489 21.8081 21.4489C21.6677 21.4489 21.5537 21.3349 21.5537 21.1944C21.5537 21.0539 21.6677 20.9399 21.8081 20.9399C21.9486 20.9399 22.0626 21.0544 22.0626 21.1944Z" fill="white" style="fill:white;fill-opacity:1;"/>
<path id="Vector_94" d="M22.941 21.4489C23.0815 21.4489 23.1954 21.335 23.1954 21.1944C23.1954 21.0539 23.0815 20.9399 22.941 20.9399C22.8004 20.9399 22.6865 21.0539 22.6865 21.1944C22.6865 21.335 22.8004 21.4489 22.941 21.4489Z" fill="white" style="fill:white;fill-opacity:1;"/>
<path id="Vector_95" d="M24.3526 21.1944C24.3526 21.3349 24.2387 21.4489 24.0982 21.4489C23.9577 21.4489 23.8438 21.3349 23.8438 21.1944C23.8438 21.0539 23.9577 20.9399 24.0982 20.9399C24.2387 20.9405 24.3526 21.0544 24.3526 21.1944Z" fill="white" style="fill:white;fill-opacity:1;"/>
<path id="Vector_96" d="M25.231 21.4489C25.3715 21.4489 25.4854 21.335 25.4854 21.1944C25.4854 21.0539 25.3715 20.9399 25.231 20.9399C25.0905 20.9399 24.9766 21.0539 24.9766 21.1944C24.9766 21.335 25.0905 21.4489 25.231 21.4489Z" fill="white" style="fill:white;fill-opacity:1;"/>
</g>
</g>
<g id="Group_39">
<g id="Group_40">
<path id="Vector_97" d="M23.5199 11.652C23.3086 11.5219 22.615 11.0337 22.5583 10.2166C22.5297 9.80238 22.6723 9.32203 22.8965 9.07535C23.0308 8.92755 23.1666 8.89372 23.2561 8.89111C23.7161 8.89111 23.9518 9.59681 24.0527 10.0204C24.1432 10.4009 24.1484 10.7954 24.0678 11.194L23.6463 11.1087C23.7062 11.1539 23.7572 11.1878 23.7915 11.2086L23.5199 11.652ZM23.266 9.44173C23.1796 9.55154 23.0552 9.85703 23.0776 10.1813C23.1047 10.5742 23.3596 10.8677 23.5672 11.0441C23.6234 10.7366 23.6167 10.4331 23.547 10.1417C23.4736 9.83205 23.3503 9.54893 23.266 9.44173Z" fill="#1D99FF" style="fill:#1D99FF;fill:color(display-p3 0.1137 0.6000 1.0000);fill-opacity:1;"/>
</g>
<g id="Group_41">
<path id="Vector_98" d="M24.0533 11.5213C23.9612 11.5213 23.8868 11.5156 23.8368 11.5104L23.8889 10.9931C23.9279 10.9968 23.9872 11.0014 24.0601 11.0014L23.6875 10.813C23.8701 10.4513 24.1162 10.1438 24.418 9.89916C24.7594 9.62334 25.3843 9.20283 25.7313 9.48907C25.799 9.54423 25.8833 9.65196 25.8978 9.84556C25.9233 10.176 25.7381 10.6429 25.4582 10.9567C25.0247 11.4417 24.4092 11.5213 24.0533 11.5213ZM25.3806 9.92259C25.2459 9.96214 24.9847 10.1094 24.7448 10.3035C24.5143 10.4899 24.3239 10.7235 24.1776 10.9973C24.4441 10.9806 24.8114 10.8994 25.07 10.6096C25.2802 10.3738 25.3739 10.0667 25.3806 9.92259Z" fill="#1D99FF" style="fill:#1D99FF;fill:color(display-p3 0.1137 0.6000 1.0000);fill-opacity:1;"/>
</g>
<path id="Vector_99" d="M26.2616 11.0245H21.2842V14.6899H26.2616V11.0245Z" fill="white" style="fill:white;fill-opacity:1;"/>
<path id="Vector_100" d="M24.1568 11.0245H23.4893V14.6899H24.1568V11.0245Z" fill="#4390FF" style="fill:#4390FF;fill:color(display-p3 0.2627 0.5647 1.0000);fill-opacity:1;"/>
</g>
<g id="Group_42">
<g id="Group_43">
<path id="Vector_101" d="M14.529 0H21.6705C21.8255 0 21.9515 0.133749 21.9515 0.299245V4.90192C21.9515 5.06742 21.8255 5.20117 21.6705 5.20117H16.7836C16.7243 5.20117 16.666 5.22146 16.6181 5.25841C16.1774 5.60085 15.7362 5.9433 15.2955 6.28626C15.1279 6.41637 14.8901 6.31489 14.8532 6.09787C14.8027 5.79914 14.7517 5.49989 14.7013 5.20117H14.248V0.299245C14.248 0.133749 14.374 0 14.529 0Z" fill="#86DDFC" style="fill:#86DDFC;fill:color(display-p3 0.5255 0.8667 0.9882);fill-opacity:1;"/>
</g>
<g id="Group_44">
<path id="Vector_102" d="M18.3889 3.59747L18.0158 4.30577C17.995 4.30577 17.6219 3.59747 17.6219 3.59747L16.8633 2.16004L17.4627 1.8457L18.0075 2.87251L18.3889 3.59747Z" fill="white" style="fill:white;fill-opacity:1;"/>
<path id="Vector_103" d="M19.8303 0.869269L18.389 3.59788L18.016 4.30618C17.9951 4.30618 17.6221 3.59788 17.6221 3.59788L18.0076 2.87292L19.2314 0.554932L19.8303 0.869269Z" fill="white" style="fill:white;fill-opacity:1;"/>
</g>
</g>
<g id="Group_45">
<g id="Group_46">
<path id="Vector_104" d="M36.9344 37.4968H36.2486C36.2127 37.4968 36.1836 37.4677 36.1836 37.4318C36.1836 37.3958 36.2127 37.3667 36.2486 37.3667H36.9344C36.9703 37.3667 36.9995 37.3958 36.9995 37.4318C36.9995 37.4682 36.9703 37.4968 36.9344 37.4968Z" fill="#232996" style="fill:#232996;fill:color(display-p3 0.1373 0.1608 0.5882);fill-opacity:1;"/>
</g>
<g id="Group_47">
<path id="Vector_105" d="M35.8563 37.4968H35.2418C35.2059 37.4968 35.1768 37.4677 35.1768 37.4318C35.1768 37.3958 35.2059 37.3667 35.2418 37.3667H35.8563C35.8922 37.3667 35.9213 37.3958 35.9213 37.4318C35.9213 37.4682 35.8917 37.4968 35.8563 37.4968Z" fill="#232996" style="fill:#232996;fill:color(display-p3 0.1373 0.1608 0.5882);fill-opacity:1;"/>
</g>
<g id="Group_48">
<path id="Vector_106" d="M34.6175 37.4971H1.51133C1.47543 37.4971 1.44629 37.4679 1.44629 37.432C1.44629 37.3961 1.47543 37.3669 1.51133 37.3669H34.6175C34.6534 37.3669 34.6826 37.3961 34.6826 37.432C34.6826 37.4684 34.6534 37.4971 34.6175 37.4971Z" fill="#232996" style="fill:#232996;fill:color(display-p3 0.1373 0.1608 0.5882);fill-opacity:1;"/>
</g>
</g>
</g>
</svg>
