<svg width="23" height="32" viewBox="0 0 23 32" fill="none" xmlns="http://www.w3.org/2000/svg">
<g id="_x38_">
<path id="Vector" d="M19.1769 1.42353V3.23121H2.06348V1.42353C2.06348 0.731259 2.6269 0.167725 3.31903 0.167725H17.9214C18.6135 0.167239 19.1769 0.730773 19.1769 1.42353Z" fill="#FF77A1" style="fill:#FF77A1;fill:color(display-p3 1.0000 0.4667 0.6314);fill-opacity:1;"/>
<g id="Group">
<path id="Vector_2" d="M13.7568 13.2793H12.8534C12.8141 13.1933 12.7752 13.1073 12.7359 13.0209C12.7359 13.1068 12.732 13.1928 12.732 13.2793H8.76956C8.75013 13.1894 8.72633 13.0952 8.70691 13.0053C8.69913 13.0952 8.69136 13.1889 8.68748 13.2793H8.06577C8.03468 13.2166 8.007 13.1579 7.97592 13.0952C7.97203 13.1579 7.97203 13.2166 7.97203 13.2793H7.48292C7.43581 13.033 7.47904 12.931 7.53781 12.8921C7.64321 12.8256 7.7724 12.9116 7.9016 12.8333C8.058 12.7396 7.95649 12.5632 8.10511 12.4423C8.26928 12.3092 8.48445 12.4539 8.64085 12.3286C8.8089 12.1916 8.65251 11.9492 8.84825 11.7927C8.93033 11.7223 9.03233 11.7145 9.08284 11.7029C9.29801 11.664 9.57584 11.4017 9.84541 10.4315C10.522 10.5175 11.1986 10.6079 11.8757 10.6939C12.1535 11.3784 12.4663 11.6601 12.7087 11.7893C12.7946 11.8365 12.9277 11.8909 13.0491 12.0279C13.2643 12.2703 13.1706 12.4661 13.3619 12.5875C13.5577 12.7129 13.7767 12.5836 13.8899 12.6929C13.9598 12.7585 13.9798 12.9072 13.7568 13.2793Z" fill="#232996" style="fill:#232996;fill:color(display-p3 0.1373 0.1608 0.5882);fill-opacity:1;"/>
<g id="Group_2">
<path id="Vector_3" d="M7.34636 13.3167C7.31333 13.3167 7.28662 13.2904 7.28564 13.2574C7.27933 13.0004 7.33422 12.8396 7.45321 12.7653C7.52898 12.7177 7.60087 12.7235 7.66547 12.7284C7.72133 12.7332 7.76844 12.7361 7.8175 12.706C7.87141 12.674 7.88112 12.6331 7.89472 12.5569C7.90784 12.484 7.92387 12.3932 8.01372 12.3198C8.11475 12.2377 8.22889 12.2421 8.32943 12.2469C8.41686 12.2503 8.49117 12.2537 8.54995 12.2061C8.60677 12.1595 8.61357 12.0973 8.61989 12.0001C8.62669 11.8967 8.63494 11.7679 8.75734 11.6698C8.85642 11.5906 8.96231 11.576 9.01331 11.5687C9.19788 11.5406 9.52233 11.2982 10.0634 10.2925C10.079 10.2629 10.1164 10.2527 10.1455 10.2678C10.1751 10.2838 10.1863 10.3202 10.1703 10.3503C9.71079 11.2049 9.34068 11.6421 9.03905 11.6878C8.98708 11.6951 8.90597 11.7062 8.83311 11.7645C8.75249 11.8291 8.74714 11.9117 8.74131 12.0074C8.735 12.106 8.72771 12.2183 8.6262 12.3004C8.531 12.3766 8.42172 12.3728 8.32457 12.3684C8.23326 12.3645 8.15604 12.3611 8.09047 12.4145C8.03558 12.4592 8.02586 12.5146 8.01421 12.5787C8.00061 12.654 7.98361 12.7483 7.88015 12.811C7.79807 12.8605 7.7189 12.8547 7.65624 12.8498C7.60281 12.8459 7.55959 12.8425 7.51733 12.8688C7.4197 12.9295 7.40319 13.1122 7.40659 13.255C7.40756 13.2885 7.38084 13.3162 7.34733 13.3172L7.34636 13.3167Z" fill="#232996" style="fill:#232996;fill:color(display-p3 0.1373 0.1608 0.5882);fill-opacity:1;"/>
</g>
<path id="Vector_4" d="M8.94175 16.777C8.86743 16.9412 8.80089 17.1097 8.72658 17.2739C8.67946 17.3915 8.62895 17.5047 8.57795 17.6261C8.56241 17.6611 8.54686 17.7005 8.53084 17.7354C8.50752 17.7942 8.48372 17.8491 8.45652 17.9074C8.38998 18.0755 8.31567 18.248 8.24524 18.4199C8.20201 18.5176 8.16315 18.6118 8.11993 18.7095C8.11604 18.7211 8.11215 18.7289 8.10827 18.7406C8.06116 18.8581 8.01064 18.9713 7.95964 19.0889C7.9203 19.1943 7.87367 19.2886 7.83822 19.3784C7.76779 19.5426 7.70125 19.6991 7.6347 19.8599C7.61916 19.8871 7.61139 19.9187 7.59585 19.9536C7.11062 19.7345 6.62977 19.5193 6.14844 19.3002C6.20721 19.0928 6.27375 18.8815 6.34029 18.6701L6.50058 18.177C6.53555 18.0794 6.571 17.9774 6.60598 17.8797C6.70749 17.5785 6.79783 17.324 6.87603 17.1049C7.18105 16.2834 7.32579 15.9938 7.32579 15.9938C7.36902 15.8257 7.43945 15.6222 7.5565 15.4109C7.83433 14.9022 8.22144 14.601 8.45604 14.4485C8.38561 14.6404 8.21755 15.1684 8.3895 15.8102C8.52306 16.3038 8.797 16.6283 8.94175 16.777Z" fill="#FFB7A6" style="fill:#FFB7A6;fill:color(display-p3 1.0000 0.7176 0.6510);fill-opacity:1;"/>
<path id="Vector_5" d="M12.5283 17.0215C12.6002 17.1847 12.6697 17.3528 12.7425 17.5199C12.8066 17.671 12.8717 17.8255 12.9368 17.98C12.9601 18.0397 12.9854 18.0951 13.0116 18.1534C13.0777 18.3225 13.1515 18.4925 13.2224 18.664C13.2656 18.7621 13.304 18.8578 13.3472 18.9559C13.4002 19.0842 13.4546 19.2052 13.507 19.3334C13.5488 19.4393 13.5945 19.5331 13.6319 19.6254C13.6994 19.7867 13.7688 19.9431 13.8324 20.1054C13.849 20.1335 13.8558 20.1651 13.8732 20.1967C14.3556 19.98 14.8384 19.7634 15.3207 19.5472C15.2604 19.3388 15.1949 19.125 15.1264 18.9151L14.9661 18.422C14.9311 18.3254 14.8981 18.2238 14.8617 18.1233C14.7606 17.8235 14.6703 17.569 14.5921 17.3513C14.2871 16.5279 14.1409 16.2388 14.1409 16.2388C14.0972 16.0693 14.0267 15.8682 13.9116 15.6564C13.6343 15.1458 13.2447 14.846 13.0092 14.6945C13.0806 14.8839 13.2511 15.4134 13.0796 16.0533C12.9475 16.5497 12.6726 16.8728 12.5283 17.0215Z" fill="#FFB7A6" style="fill:#FFB7A6;fill:color(display-p3 1.0000 0.7176 0.6510);fill-opacity:1;"/>
<path id="Vector_6" d="M4.56808 15.454C4.55351 16.1414 4.62734 17.1242 5.04942 18.2026C5.38505 19.0601 5.83821 19.7164 6.22678 20.1808C6.38949 20.4393 6.73677 20.5559 7.06705 20.4748C7.46728 20.3761 7.77667 20.0035 7.72422 19.627C7.10882 17.9709 6.49343 16.3148 5.87804 14.6587C5.44139 14.9239 5.00474 15.1887 4.56808 15.454Z" fill="#FFB7A6" style="fill:#FFB7A6;fill:color(display-p3 1.0000 0.7176 0.6510);fill-opacity:1;"/>
<path id="Vector_7" d="M16.8787 15.6981C16.8933 16.3855 16.8195 17.3683 16.3974 18.4468C16.0618 19.3043 15.6086 19.9606 15.22 20.425C15.0573 20.6834 14.7101 20.8 14.3798 20.7189C13.9795 20.6203 13.6702 20.2477 13.7226 19.8712C14.2729 18.3045 14.8237 16.7377 15.374 15.171L16.8787 15.6981Z" fill="#FFB7A6" style="fill:#FFB7A6;fill:color(display-p3 1.0000 0.7176 0.6510);fill-opacity:1;"/>
<path id="Vector_8" d="M8.13574 21.3227C8.58357 21.5316 9.48018 21.877 10.6512 21.8348C11.7028 21.7969 12.5003 21.4641 12.9307 21.246C13.0176 19.0943 13.1045 16.9422 13.1915 14.7906C12.9724 14.6045 11.7353 13.5902 10.0611 13.8243C9.22422 13.9414 8.62048 14.3223 8.30186 14.5623C8.24697 16.8159 8.19111 19.0691 8.13574 21.3227Z" fill="#FFB7A6" style="fill:#FFB7A6;fill:color(display-p3 1.0000 0.7176 0.6510);fill-opacity:1;"/>
<g id="Group_3">
<path id="Vector_9" d="M15.2377 31.8169H12.3429L12.1981 31.0697L12.0145 30.1034L12.0068 30.0724L11.948 29.7595L11.9208 29.6147C11.9169 29.5953 11.9014 29.5132 11.9014 29.5132C12.8169 29.2902 13.7242 29.0672 14.6393 28.8442C14.7059 29.1221 14.7646 29.3961 14.8273 29.6735L15.0269 30.7219L15.0386 30.7729L15.0857 31.0236L15.1289 31.2504C15.125 31.2738 15.1289 31.2976 15.1444 31.3209C15.1444 31.3248 15.2265 31.7474 15.2265 31.7474L15.2377 31.8169Z" fill="#FFB7A6" style="fill:#FFB7A6;fill:color(display-p3 1.0000 0.7176 0.6510);fill-opacity:1;"/>
<path id="Vector_10" d="M11.6787 29.0576C11.6875 29.1762 11.7147 29.2937 11.7564 29.4098C11.7943 29.5191 11.8502 29.6231 11.9172 29.7227C11.9299 29.7402 11.942 29.7543 11.958 29.7718C12.4126 30.3805 13.3015 30.5024 13.9689 30.0399C14.4628 29.7018 14.7013 29.1363 14.6294 28.6083L14.5935 28.4241C14.5483 28.2633 14.4866 28.1297 14.4026 28.0054C14.3652 27.9519 14.3239 27.899 14.2797 27.8538C14.1622 27.728 14.0247 27.626 13.8737 27.5512C13.8387 27.5351 13.8003 27.5191 13.7624 27.5069C13.3175 27.334 12.7837 27.384 12.3471 27.6881C12.1941 27.7926 12.0692 27.917 11.9673 28.0588C11.7506 28.3547 11.6496 28.7088 11.6787 29.0576Z" fill="#FFB7A6" style="fill:#FFB7A6;fill:color(display-p3 1.0000 0.7176 0.6510);fill-opacity:1;"/>
</g>
<g id="Group_4">
<path id="Vector_11" d="M9.3052 29.4612C9.25031 29.7391 9.19591 30.017 9.14491 30.2944L8.97297 31.0692L8.9142 31.3355L8.90254 31.3865L8.8088 31.8169H5.89844L6.06261 31.0697L6.3992 29.5438L6.46574 29.2309L6.49683 29.0901L6.52014 28.9885C7.44348 29.145 8.37409 29.3053 9.29743 29.4622C9.30131 29.4612 9.30131 29.4612 9.3052 29.4612Z" fill="#FFB7A6" style="fill:#FFB7A6;fill:color(display-p3 1.0000 0.7176 0.6510);fill-opacity:1;"/>
<path id="Vector_12" d="M6.49885 28.4814C6.45951 28.5937 6.43814 28.7122 6.43085 28.8361C6.42211 28.9512 6.43231 29.0693 6.45465 29.1868C6.45902 29.2082 6.46485 29.2257 6.47262 29.248C6.64893 29.9869 7.41635 30.4514 8.21291 30.2915C8.80013 30.1769 9.24359 29.7523 9.38687 29.2388L9.42718 29.0557C9.44953 28.89 9.44564 28.7428 9.41795 28.5956C9.40484 28.532 9.38784 28.4669 9.36501 28.4076C9.30721 28.2458 9.22076 28.0972 9.11196 27.9689C9.08622 27.9402 9.05756 27.9106 9.02744 27.8844C8.68745 27.5492 8.17794 27.3835 7.65629 27.4894C7.47464 27.5244 7.31047 27.5895 7.16087 27.6794C6.8437 27.8649 6.61056 28.1501 6.49885 28.4814Z" fill="#FFB7A6" style="fill:#FFB7A6;fill:color(display-p3 1.0000 0.7176 0.6510);fill-opacity:1;"/>
</g>
<g id="Group_5">
<path id="Vector_13" d="M4.06071 14.0246C4.03837 14.1951 4.03205 14.421 4.09422 14.6731C4.28171 15.4315 4.93498 15.809 5.08798 15.892C5.29295 15.6146 5.49792 15.3372 5.70289 15.0598C6.26777 13.9371 6.48002 13.327 6.33868 13.2298C6.24688 13.1666 6.00549 13.3206 5.61498 13.6913C5.41292 13.3012 5.21087 12.9106 5.0093 12.5205C4.7611 12.0673 4.64405 11.9871 4.58333 12.0056C4.49833 12.0308 4.49542 12.2577 4.49444 12.3238C4.49056 12.6177 4.62219 12.8402 4.69747 12.9471C4.5945 13.0122 4.44102 13.1278 4.30842 13.3163C4.10685 13.6014 4.06945 13.891 4.06071 14.0246Z" fill="#FFB7A6" style="fill:#FFB7A6;fill:color(display-p3 1.0000 0.7176 0.6510);fill-opacity:1;"/>
<g id="Group_6">
<path id="Vector_14" d="M5.15501 13.7698C5.13218 13.7698 5.10984 13.7567 5.09964 13.7344C5.0637 13.6552 5.02338 13.5731 4.97772 13.4885C4.88641 13.3205 4.78053 13.1582 4.66396 13.0066C4.64356 12.9799 4.64841 12.942 4.67513 12.9211C4.70233 12.9022 4.74021 12.9061 4.76013 12.9323C4.88058 13.0892 4.98987 13.2568 5.0841 13.4303C5.13121 13.5177 5.17298 13.6027 5.2099 13.6834C5.22398 13.7144 5.20989 13.7499 5.17978 13.764C5.17152 13.7684 5.16326 13.7698 5.15501 13.7698Z" fill="#FF6C6C" style="fill:#FF6C6C;fill:color(display-p3 1.0000 0.4235 0.4235);fill-opacity:1;"/>
</g>
<g id="Group_7">
<path id="Vector_15" d="M4.47501 14.5602C4.3871 14.5602 4.29967 14.5024 4.25595 14.4096C4.24138 14.379 4.25449 14.3426 4.28509 14.3285C4.31521 14.3154 4.35164 14.327 4.36572 14.3571C4.39535 14.4193 4.45558 14.4436 4.49298 14.4363C4.55029 14.4222 4.56924 14.3309 4.56972 14.327C4.57749 14.2872 4.56875 14.2527 4.56001 14.2303C4.54981 14.2041 4.55903 14.1745 4.58235 14.1584C4.60615 14.1424 4.63724 14.1448 4.65764 14.1643C4.66249 14.1687 4.70572 14.209 4.764 14.1963C4.80577 14.1876 4.84123 14.1541 4.85338 14.1104C4.8694 14.055 4.83638 14.0074 4.83298 14.002C4.81646 13.9787 4.81792 13.9476 4.83686 13.9262C4.8558 13.9044 4.88689 13.899 4.91166 13.9136C4.94517 13.9325 4.98597 13.9326 5.01851 13.9117C5.05203 13.8917 5.07194 13.8543 5.06952 13.815C5.06806 13.7815 5.09331 13.7528 5.12683 13.7509C5.16228 13.7509 5.189 13.7761 5.19094 13.8082C5.19531 13.8927 5.15306 13.9724 5.08068 14.0161C5.04863 14.0351 5.01317 14.0462 4.97674 14.0477C4.98063 14.0783 4.97917 14.1108 4.96994 14.1434C4.94566 14.2303 4.87426 14.2974 4.7878 14.3154C4.7538 14.3212 4.72175 14.3202 4.69309 14.3144C4.69261 14.3265 4.69066 14.3387 4.68823 14.3508C4.6722 14.4334 4.61975 14.5301 4.52115 14.5539C4.50658 14.5587 4.49104 14.5602 4.47501 14.5602Z" fill="#FF6C6C" style="fill:#FF6C6C;fill:color(display-p3 1.0000 0.4235 0.4235);fill-opacity:1;"/>
</g>
<g id="Group_8">
<path id="Vector_16" d="M4.81773 13.9025C4.79976 13.9025 4.78179 13.8943 4.77013 13.8792L4.36165 13.3584C4.34076 13.3317 4.34562 13.2938 4.37185 13.2729C4.39808 13.252 4.43645 13.2569 4.45685 13.2831L4.86533 13.8039C4.88621 13.8306 4.88136 13.8685 4.85513 13.8894C4.84396 13.8981 4.83084 13.9025 4.81773 13.9025Z" fill="#FF6C6C" style="fill:#FF6C6C;fill:color(display-p3 1.0000 0.4235 0.4235);fill-opacity:1;"/>
</g>
<g id="Group_9">
<path id="Vector_17" d="M4.57945 14.1829C4.56245 14.1829 4.54545 14.1756 4.5333 14.162L4.17777 13.7491C4.15591 13.7233 4.15882 13.6849 4.18408 13.6631C4.20933 13.6412 4.24819 13.6446 4.26956 13.6694L4.6251 14.0823C4.64696 14.1081 4.64405 14.1465 4.61879 14.1683C4.60762 14.178 4.59353 14.1829 4.57945 14.1829Z" fill="#FF6C6C" style="fill:#FF6C6C;fill:color(display-p3 1.0000 0.4235 0.4235);fill-opacity:1;"/>
</g>
</g>
<g id="Group_10">
<path id="Vector_18" d="M11.4365 11.6904C11.4365 11.8498 11.5463 11.9785 11.6818 11.9785C11.8173 11.9785 11.9271 11.8493 11.9271 11.6904C11.9271 11.5316 11.8173 11.4023 11.6818 11.4023C11.5463 11.4023 11.4365 11.5316 11.4365 11.6904Z" fill="#FFB7A6" style="fill:#FFB7A6;fill:color(display-p3 1.0000 0.7176 0.6510);fill-opacity:1;"/>
<path id="Vector_19" d="M9.87907 11.9785C10.0145 11.9785 10.1244 11.8495 10.1244 11.6904C10.1244 11.5313 10.0145 11.4023 9.87907 11.4023C9.74361 11.4023 9.63379 11.5313 9.63379 11.6904C9.63379 11.8495 9.74361 11.9785 9.87907 11.9785Z" fill="#FFB7A6" style="fill:#FFB7A6;fill:color(display-p3 1.0000 0.7176 0.6510);fill-opacity:1;"/>
<g id="Group_11">
<path id="Vector_20" d="M11.3871 14.1167C10.9524 14.106 10.5177 14.0948 10.083 14.0841C10.1568 13.4783 10.2307 12.8725 10.3045 12.2667H11.2934C11.3245 12.8832 11.3561 13.4997 11.3871 14.1167Z" fill="#FFB7A6" style="fill:#FFB7A6;fill:color(display-p3 1.0000 0.7176 0.6510);fill-opacity:1;"/>
<path id="Vector_21" d="M11.282 12.6095C11.282 12.936 11.0673 13.2008 10.8021 13.2008C10.537 13.2008 10.3223 12.936 10.3223 12.6095C10.3223 12.2831 10.537 12.0188 10.8021 12.0188C11.0669 12.0183 11.282 12.2831 11.282 12.6095Z" fill="#F9917D" style="fill:#F9917D;fill:color(display-p3 0.9765 0.5686 0.4902);fill-opacity:1;"/>
<g id="Group_12">
<path id="Vector_22" d="M9.79529 11.5809C9.82104 12.3023 10.2985 12.8721 10.8522 12.8478C11.3209 12.8304 11.6983 12.3994 11.7877 11.8369C11.8047 11.7324 11.8144 11.6212 11.809 11.5075C11.8086 11.5002 11.7993 11.3797 11.7993 11.3797C11.7624 11.0795 11.657 10.8133 11.4958 10.6117C11.3029 10.3663 11.0353 10.2187 10.7473 10.2298L10.6871 10.2342C10.2101 10.2877 9.84095 10.7754 9.79772 11.3846C9.79238 11.4492 9.79384 11.5133 9.79529 11.5809Z" fill="#FFB7A6" style="fill:#FFB7A6;fill:color(display-p3 1.0000 0.7176 0.6510);fill-opacity:1;"/>
<path id="Vector_23" d="M10.6008 11.9492C10.6008 12.0921 10.4852 12.2082 10.3419 12.2082C10.1991 12.2082 10.083 12.0921 10.083 11.9492C10.083 11.8064 10.1991 11.6903 10.3419 11.6903C10.4852 11.6903 10.6008 11.8064 10.6008 11.9492Z" fill="#F9917D" style="fill:#F9917D;fill:color(display-p3 0.9765 0.5686 0.4902);fill-opacity:1;"/>
<path id="Vector_24" d="M11.5607 11.9492C11.5607 12.0921 11.4451 12.2082 11.3019 12.2082C11.1586 12.2082 11.043 12.0921 11.043 11.9492C11.043 11.8064 11.1591 11.6903 11.3019 11.6903C11.4447 11.6903 11.5607 11.8064 11.5607 11.9492Z" fill="#F9917D" style="fill:#F9917D;fill:color(display-p3 0.9765 0.5686 0.4902);fill-opacity:1;"/>
<g id="Group_13">
<g id="Group_14">
<path id="Vector_25" d="M10.4317 11.5135C10.3826 11.5023 10.3642 11.4683 10.3734 11.4362L10.4341 11.2215C10.4433 11.1894 10.4768 11.1715 10.5089 11.1797C10.541 11.189 10.5599 11.2225 10.5507 11.2545L10.4895 11.4693C10.4827 11.496 10.4584 11.5135 10.4317 11.5135Z" fill="#232996" style="fill:#232996;fill:color(display-p3 0.1373 0.1608 0.5882);fill-opacity:1;"/>
</g>
<g id="Group_15">
<path id="Vector_26" d="M10.2529 11.4811C10.2247 11.4811 10.2 11.4617 10.1936 11.4335L10.1567 11.2654C10.1494 11.2329 10.1703 11.1999 10.2029 11.1931C10.2354 11.1867 10.2684 11.2067 10.2752 11.2392L10.3122 11.4073C10.3194 11.4398 10.2986 11.4729 10.266 11.4797C10.2616 11.4807 10.2573 11.4811 10.2529 11.4811Z" fill="#232996" style="fill:#232996;fill:color(display-p3 0.1373 0.1608 0.5882);fill-opacity:1;"/>
</g>
<g id="Group_16">
<path id="Vector_27" d="M10.4743 11.9116C10.4466 11.9116 10.4219 11.8927 10.4151 11.8645L10.3845 11.7329C10.3767 11.7003 10.3971 11.6678 10.4296 11.66C10.4617 11.6537 10.4952 11.6731 10.5025 11.7057L10.5331 11.8373C10.5409 11.8699 10.5205 11.9024 10.4879 11.9102C10.4836 11.9112 10.4787 11.9116 10.4743 11.9116Z" fill="#232996" style="fill:#232996;fill:color(display-p3 0.1373 0.1608 0.5882);fill-opacity:1;"/>
</g>
<g id="Group_17">
<path id="Vector_28" d="M10.2149 11.9106C10.1658 11.8994 10.1474 11.8654 10.1566 11.8334L10.1959 11.6949C10.2052 11.6633 10.2387 11.6444 10.2707 11.6531C10.3028 11.6624 10.3217 11.6959 10.3125 11.7279L10.2732 11.8664C10.2659 11.8931 10.2416 11.9106 10.2149 11.9106Z" fill="#232996" style="fill:#232996;fill:color(display-p3 0.1373 0.1608 0.5882);fill-opacity:1;"/>
</g>
<path id="Vector_29" d="M10.6571 11.5654C10.6532 11.6125 10.6022 11.6514 10.5357 11.6786C10.5162 11.6864 10.4924 11.6941 10.473 11.698C10.4419 11.7097 10.4142 11.7136 10.3909 11.7175C10.3559 11.7175 10.3399 11.7213 10.3244 11.7175C10.2933 11.7175 10.2578 11.7175 10.2267 11.7136C10.1447 11.698 10.0742 11.6664 10.0587 11.6081C10.0431 11.5571 10.0742 11.4906 10.1291 11.4362C10.1762 11.389 10.2345 11.3541 10.2933 11.3424C10.3244 11.3385 10.3443 11.3346 10.3754 11.3385C10.5473 11.3657 10.6687 11.4794 10.6571 11.5654Z" fill="white" style="fill:white;fill-opacity:1;"/>
<path id="Vector_30" d="M10.5278 11.5572C10.5278 11.6121 10.5084 11.6631 10.4729 11.6981C10.4418 11.7097 10.4142 11.7136 10.3908 11.7175C10.3559 11.7175 10.3398 11.7214 10.3243 11.7175C10.2932 11.7175 10.2578 11.7175 10.2267 11.7136C10.1796 11.6742 10.1562 11.6198 10.1562 11.5572C10.1562 11.4396 10.2383 11.3497 10.3403 11.3497C10.4457 11.3497 10.5278 11.4396 10.5278 11.5572Z" fill="#232996" style="fill:#232996;fill:color(display-p3 0.1373 0.1608 0.5882);fill-opacity:1;"/>
</g>
<g id="Group_18">
<g id="Group_19">
<path id="Vector_31" d="M11.4209 11.5135C11.3719 11.5023 11.3534 11.4683 11.3626 11.4362L11.4238 11.2215C11.4331 11.1894 11.4666 11.1715 11.4986 11.1797C11.5307 11.189 11.5496 11.2225 11.5404 11.2545L11.4797 11.4693C11.4714 11.496 11.4476 11.5135 11.4209 11.5135Z" fill="#232996" style="fill:#232996;fill:color(display-p3 0.1373 0.1608 0.5882);fill-opacity:1;"/>
</g>
<g id="Group_20">
<path id="Vector_32" d="M11.2402 11.4804C11.212 11.4804 11.1873 11.461 11.1809 11.4328L11.144 11.2647C11.1367 11.2322 11.1576 11.1991 11.1902 11.1923C11.2232 11.186 11.2553 11.2059 11.2625 11.2385L11.2995 11.4066C11.3067 11.4391 11.2859 11.4721 11.2533 11.479C11.2489 11.4799 11.2446 11.4804 11.2402 11.4804Z" fill="#232996" style="fill:#232996;fill:color(display-p3 0.1373 0.1608 0.5882);fill-opacity:1;"/>
</g>
<g id="Group_21">
<path id="Vector_33" d="M11.4636 11.9126C11.4359 11.9126 11.4111 11.8937 11.4043 11.8655L11.3737 11.7338C11.366 11.7013 11.3864 11.6687 11.4189 11.661C11.4514 11.6547 11.4845 11.6741 11.4917 11.7066L11.5228 11.8383C11.5306 11.8708 11.5102 11.9034 11.4777 11.9112C11.4728 11.9121 11.4679 11.9126 11.4636 11.9126Z" fill="#232996" style="fill:#232996;fill:color(display-p3 0.1373 0.1608 0.5882);fill-opacity:1;"/>
</g>
<g id="Group_22">
<path id="Vector_34" d="M11.2032 11.9106C11.1541 11.8994 11.1356 11.8654 11.1449 11.8334L11.1842 11.6949C11.1934 11.6633 11.2265 11.6444 11.259 11.6531C11.2911 11.6624 11.31 11.6959 11.3008 11.7279L11.2614 11.8664C11.2542 11.8931 11.2299 11.9106 11.2032 11.9106Z" fill="#232996" style="fill:#232996;fill:color(display-p3 0.1373 0.1608 0.5882);fill-opacity:1;"/>
</g>
<path id="Vector_35" d="M11.6454 11.5654C11.6415 11.6125 11.5905 11.6514 11.5239 11.6786C11.5045 11.6864 11.4807 11.6941 11.4613 11.698C11.4302 11.7097 11.4025 11.7136 11.3792 11.7175C11.3442 11.7175 11.3282 11.7213 11.3126 11.7175C11.2816 11.7175 11.2461 11.7175 11.215 11.7136C11.1329 11.698 11.0625 11.6664 11.047 11.6081C11.0314 11.5571 11.0625 11.4906 11.1174 11.4362C11.1645 11.389 11.2228 11.3541 11.2816 11.3424C11.3127 11.3385 11.3326 11.3346 11.3636 11.3385C11.5356 11.3657 11.657 11.4794 11.6454 11.5654Z" fill="white" style="fill:white;fill-opacity:1;"/>
<path id="Vector_36" d="M11.5161 11.5572C11.5161 11.6121 11.4967 11.6631 11.4612 11.6981C11.4301 11.7097 11.4024 11.7136 11.3791 11.7175C11.3442 11.7175 11.3281 11.7214 11.3126 11.7175C11.2815 11.7175 11.246 11.7175 11.215 11.7136C11.1678 11.6742 11.1445 11.6198 11.1445 11.5572C11.1445 11.4396 11.2266 11.3497 11.3286 11.3497C11.434 11.3497 11.5161 11.4396 11.5161 11.5572Z" fill="#232996" style="fill:#232996;fill:color(display-p3 0.1373 0.1608 0.5882);fill-opacity:1;"/>
</g>
<path id="Vector_37" d="M11.1721 12.2085C11.1328 12.4159 10.9419 12.534 10.7879 12.4951C10.6767 12.4669 10.5888 12.3572 10.5693 12.2226C10.6334 12.2464 10.7413 12.2775 10.8778 12.2731C11.0079 12.2692 11.1104 12.2347 11.1721 12.2085Z" fill="white" style="fill:white;fill-opacity:1;"/>
</g>
</g>
</g>
<path id="Vector_38" d="M16.8796 15.7305C16.7567 15.7611 16.6003 15.783 16.422 15.767C15.8368 15.714 15.4705 15.2909 15.3739 15.1718C15.3341 14.7754 15.2942 14.3785 15.2549 13.9821C15.2724 13.6299 15.3214 13.4467 15.4016 13.4317C15.5089 13.4118 15.6716 13.693 15.8907 14.2755C16.2059 14.1623 16.4531 14.0545 16.612 13.9821C16.7965 13.8976 17.5382 13.5594 18.1157 13.4317C18.226 13.4074 18.4246 13.37 18.5028 13.4686C18.5315 13.505 18.5363 13.5502 18.5354 13.5828C18.4183 13.696 18.2294 13.8713 17.9812 14.0676C17.5581 14.4023 17.3949 14.4577 17.2235 14.6545C17.0646 14.8357 16.8869 15.1524 16.8796 15.7305Z" fill="#FFB7A6" style="fill:#FFB7A6;fill:color(display-p3 1.0000 0.7176 0.6510);fill-opacity:1;"/>
<g id="Group_23">
<path id="Vector_39" d="M10.9045 21.4802C10.7209 22.5285 10.533 23.5774 10.3489 24.6219L10.3295 24.7001L10.04 26.089L9.90688 26.7147L9.73494 27.5246L9.37892 29.2069L6.52344 28.6045L6.94989 26.5972L7.11795 25.799C7.46231 24.2808 7.81008 22.7632 8.15445 21.2451C8.66298 21.2101 9.17152 21.1746 9.68006 21.1357C10.091 21.2533 10.498 21.3665 10.9045 21.4802Z" fill="#FFB7A6" style="fill:#FFB7A6;fill:color(display-p3 1.0000 0.7176 0.6510);fill-opacity:1;"/>
<path id="Vector_40" d="M9.90719 26.7152L9.73525 27.5251C8.80803 27.2161 7.87693 26.9066 6.9502 26.5977C7.49759 26.6603 8.0377 26.7191 8.58509 26.7774C9.02708 26.7585 9.46519 26.7351 9.90719 26.7152Z" fill="#F9917D" style="fill:#F9917D;fill:color(display-p3 0.9765 0.5686 0.4902);fill-opacity:1;"/>
<path id="Vector_41" d="M10.1488 27.1051C8.91022 26.9093 7.67117 26.714 6.43262 26.5182C7.00332 24.659 7.57403 22.7999 8.14474 20.9412C9.05204 21.2676 9.95886 21.5946 10.8657 21.921C10.6272 23.649 10.3882 25.3771 10.1488 27.1051Z" fill="#4390FF" style="fill:#4390FF;fill:color(display-p3 0.2627 0.5647 1.0000);fill-opacity:1;"/>
</g>
<g id="Group_24">
<path id="Vector_42" d="M10.1846 21.5517C10.3682 22.6001 10.5561 23.6489 10.7402 24.6934L10.7597 24.7716L11.0491 26.1606L11.1822 26.7868L11.3542 27.5966L11.7102 29.2789L14.5657 28.6765L14.1392 26.6697L13.9712 25.8715C13.6268 24.3534 13.279 22.8352 12.9347 21.3176C12.4261 21.2826 11.9176 21.2471 11.409 21.2083C10.9981 21.3248 10.5911 21.4385 10.1846 21.5517Z" fill="#FFB7A6" style="fill:#FFB7A6;fill:color(display-p3 1.0000 0.7176 0.6510);fill-opacity:1;"/>
<path id="Vector_43" d="M11.1826 26.7868L11.3546 27.5966C12.2818 27.2876 13.2124 26.9782 14.1396 26.6692C13.5922 26.7319 13.0521 26.7906 12.5047 26.8489C12.0627 26.8295 11.6246 26.8062 11.1826 26.7868Z" fill="#F9917D" style="fill:#F9917D;fill:color(display-p3 0.9765 0.5686 0.4902);fill-opacity:1;"/>
<path id="Vector_44" d="M10.9415 27.1761C12.1801 26.9803 13.4191 26.785 14.6577 26.5893C14.087 24.7301 13.5163 22.8709 12.9455 21.0122C12.0387 21.3392 11.1314 21.6656 10.2246 21.9926C10.4636 23.7201 10.7025 25.4486 10.9415 27.1761Z" fill="#4390FF" style="fill:#4390FF;fill:color(display-p3 0.2627 0.5647 1.0000);fill-opacity:1;"/>
</g>
<path id="Vector_45" d="M13.4741 22.6219C11.5346 22.6166 9.59519 22.6112 7.65527 22.6054C7.82139 21.9374 7.9875 21.2694 8.15361 20.6014C8.84817 20.7428 9.71079 20.8594 10.7031 20.8613C11.5638 20.8628 12.3234 20.7778 12.9539 20.667C13.1277 21.3185 13.3007 21.9704 13.4741 22.6219Z" fill="#4390FF" style="fill:#4390FF;fill:color(display-p3 0.2627 0.5647 1.0000);fill-opacity:1;"/>
<path id="Vector_46" d="M13.4819 21.3662C12.6591 21.5046 11.6751 21.6101 10.5642 21.611C9.50249 21.612 8.55779 21.5173 7.76074 21.3905C7.76074 19.2306 7.76074 17.0702 7.76074 14.9103C8.0342 14.6407 8.51504 14.2438 9.21544 14.0057C9.52969 13.8989 9.81917 13.8474 10.0611 13.8236C10.0771 14.3128 10.5069 14.6271 10.8537 14.5557C11.1325 14.4984 11.3691 14.1894 11.355 13.8158C11.6585 13.8765 12.1005 14.0014 12.5775 14.2744C13.0389 14.5382 13.3624 14.8438 13.5679 15.0692C13.5387 17.1683 13.5101 19.2675 13.4819 21.3662Z" fill="#FF77A1" style="fill:#FF77A1;fill:color(display-p3 1.0000 0.4667 0.6314);fill-opacity:1;"/>
<path id="Vector_47" d="M8.40835 18.2857C7.89495 17.813 7.38156 17.3403 6.86816 16.8676C7.16542 16.2156 7.46316 15.5632 7.76041 14.9113C8.0567 15.1984 8.35249 15.4855 8.64877 15.7726C8.56863 16.6101 8.48849 17.4481 8.40835 18.2857Z" fill="#FF77A1" style="fill:#FF77A1;fill:color(display-p3 1.0000 0.4667 0.6314);fill-opacity:1;"/>
<path id="Vector_48" d="M14.5167 16.8832C14.0033 17.2855 13.4899 17.6872 12.9765 18.0895C12.9139 17.4317 12.8517 16.7744 12.7891 16.1171C13.0484 15.7678 13.3078 15.419 13.5672 15.0697C13.8834 15.674 14.2 16.2789 14.5167 16.8832Z" fill="#FF77A1" style="fill:#FF77A1;fill:color(display-p3 1.0000 0.4667 0.6314);fill-opacity:1;"/>
<path id="Vector_49" d="M11.7637 10.444C12.0279 10.9026 11.855 11.438 11.804 11.4409C11.7753 11.4428 11.7753 11.2748 11.6495 11.0532C11.5631 10.9012 11.4572 10.7938 11.3746 10.7229C11.091 10.7496 10.9016 10.8332 10.7777 10.9085C10.6801 10.9677 10.6126 11.026 10.4761 11.0634C10.2998 11.112 10.2517 11.0518 10.1259 11.096C9.90051 11.1752 9.87088 11.4356 9.7956 11.4205C9.70574 11.4025 9.66494 11.0144 9.76694 10.6558C9.80288 10.529 9.85 10.3639 9.99328 10.2094C10.2386 9.94462 10.5756 9.91693 10.6655 9.90964C11.0249 9.88098 11.5184 10.0185 11.7637 10.444Z" fill="#232996" style="fill:#232996;fill:color(display-p3 0.1373 0.1608 0.5882);fill-opacity:1;"/>
<g id="Group_25">
<path id="Vector_50" d="M15.78 14.8986C15.7474 14.8986 15.7207 14.8728 15.7193 14.8403C15.7164 14.7635 15.7256 14.6872 15.746 14.6139C15.7756 14.5065 15.831 14.4055 15.9058 14.3205C15.9281 14.2957 15.966 14.2932 15.9913 14.3151C16.0165 14.3375 16.019 14.3758 15.9966 14.4011C15.934 14.472 15.8878 14.5566 15.863 14.6459C15.846 14.7076 15.8383 14.7713 15.8407 14.8354C15.8422 14.8689 15.8159 14.8971 15.7819 14.8986C15.7819 14.8986 15.781 14.8986 15.78 14.8986Z" fill="#FF6C6C" style="fill:#FF6C6C;fill:color(display-p3 1.0000 0.4235 0.4235);fill-opacity:1;"/>
</g>
</g>
<g id="Group_26">
<g id="Group_27">
<g id="Group_28">
<path id="Vector_51" d="M13.3237 6.21082C13.3237 6.34199 13.2173 6.44839 13.0861 6.44839C12.955 6.44839 12.8486 6.34199 12.8486 6.21082C12.8486 6.07966 12.955 5.97327 13.0861 5.97327C13.2173 5.97327 13.3237 6.07966 13.3237 6.21082Z" fill="#FF77A1" style="fill:#FF77A1;fill:color(display-p3 1.0000 0.4667 0.6314);fill-opacity:1;"/>
<path id="Vector_52" d="M14.3813 6.21131C14.3813 6.34248 14.2749 6.44887 14.1438 6.44887C14.0126 6.44887 13.9062 6.34248 13.9062 6.21131C13.9062 6.08015 14.0126 5.97375 14.1438 5.97375C14.2749 5.97375 14.3813 6.08015 14.3813 6.21131Z" fill="#FF77A1" style="fill:#FF77A1;fill:color(display-p3 1.0000 0.4667 0.6314);fill-opacity:1;"/>
<path id="Vector_53" d="M15.2238 6.44887C15.355 6.44887 15.4613 6.34251 15.4613 6.21131C15.4613 6.08011 15.355 5.97375 15.2238 5.97375C15.0927 5.97375 14.9863 6.08011 14.9863 6.21131C14.9863 6.34251 15.0927 6.44887 15.2238 6.44887Z" fill="#FF77A1" style="fill:#FF77A1;fill:color(display-p3 1.0000 0.4667 0.6314);fill-opacity:1;"/>
<path id="Vector_54" d="M16.2805 6.44887C16.4117 6.44887 16.518 6.34251 16.518 6.21131C16.518 6.08011 16.4117 5.97375 16.2805 5.97375C16.1493 5.97375 16.043 6.08011 16.043 6.21131C16.043 6.34251 16.1493 6.44887 16.2805 6.44887Z" fill="#FF77A1" style="fill:#FF77A1;fill:color(display-p3 1.0000 0.4667 0.6314);fill-opacity:1;"/>
</g>
<g id="Group_29">
<path id="Vector_55" d="M13.3237 7.25404C13.3237 7.38521 13.2173 7.4916 13.0861 7.4916C12.955 7.4916 12.8486 7.38521 12.8486 7.25404C12.8486 7.12287 12.955 7.01648 13.0861 7.01648C13.2173 7.01648 13.3237 7.12287 13.3237 7.25404Z" fill="#FF77A1" style="fill:#FF77A1;fill:color(display-p3 1.0000 0.4667 0.6314);fill-opacity:1;"/>
<path id="Vector_56" d="M14.3813 7.25404C14.3813 7.38521 14.2749 7.4916 14.1438 7.4916C14.0126 7.4916 13.9062 7.38521 13.9062 7.25404C13.9062 7.12287 14.0126 7.01648 14.1438 7.01648C14.2749 7.01648 14.3813 7.12287 14.3813 7.25404Z" fill="#FF77A1" style="fill:#FF77A1;fill:color(display-p3 1.0000 0.4667 0.6314);fill-opacity:1;"/>
<path id="Vector_57" d="M15.4613 7.25404C15.4613 7.38521 15.355 7.4916 15.2238 7.4916C15.0927 7.4916 14.9863 7.38521 14.9863 7.25404C14.9863 7.12287 15.0927 7.01648 15.2238 7.01648C15.355 7.01648 15.4613 7.12287 15.4613 7.25404Z" fill="#FF77A1" style="fill:#FF77A1;fill:color(display-p3 1.0000 0.4667 0.6314);fill-opacity:1;"/>
<path id="Vector_58" d="M16.518 7.25404C16.518 7.38521 16.4116 7.4916 16.2805 7.4916C16.1493 7.4916 16.043 7.38521 16.043 7.25404C16.043 7.12287 16.1493 7.01648 16.2805 7.01648C16.4116 7.01648 16.518 7.12287 16.518 7.25404Z" fill="#FF77A1" style="fill:#FF77A1;fill:color(display-p3 1.0000 0.4667 0.6314);fill-opacity:1;"/>
</g>
<g id="Group_30">
<path id="Vector_59" d="M13.3237 8.30262C13.3237 8.43379 13.2173 8.54018 13.0861 8.54018C12.955 8.54018 12.8486 8.43379 12.8486 8.30262C12.8486 8.17145 12.955 8.06506 13.0861 8.06506C13.2173 8.06506 13.3237 8.17145 13.3237 8.30262Z" fill="#FF77A1" style="fill:#FF77A1;fill:color(display-p3 1.0000 0.4667 0.6314);fill-opacity:1;"/>
<path id="Vector_60" d="M14.3813 8.3025C14.3813 8.43367 14.2749 8.54006 14.1438 8.54006C14.0126 8.54006 13.9062 8.43367 13.9062 8.3025C13.9062 8.17133 14.0126 8.06494 14.1438 8.06494C14.2749 8.06494 14.3813 8.17133 14.3813 8.3025Z" fill="#FF77A1" style="fill:#FF77A1;fill:color(display-p3 1.0000 0.4667 0.6314);fill-opacity:1;"/>
<path id="Vector_61" d="M15.4613 8.3025C15.4613 8.43367 15.355 8.54006 15.2238 8.54006C15.0927 8.54006 14.9863 8.43367 14.9863 8.3025C14.9863 8.17133 15.0927 8.06494 15.2238 8.06494C15.355 8.06494 15.4613 8.17133 15.4613 8.3025Z" fill="#FF77A1" style="fill:#FF77A1;fill:color(display-p3 1.0000 0.4667 0.6314);fill-opacity:1;"/>
<path id="Vector_62" d="M16.518 8.3025C16.518 8.43367 16.4116 8.54006 16.2805 8.54006C16.1493 8.54006 16.043 8.43367 16.043 8.3025C16.043 8.17133 16.1493 8.06494 16.2805 8.06494C16.4116 8.06494 16.518 8.17133 16.518 8.3025Z" fill="#FF77A1" style="fill:#FF77A1;fill:color(display-p3 1.0000 0.4667 0.6314);fill-opacity:1;"/>
</g>
</g>
<g id="Group_31">
<g id="Group_32">
<path id="Vector_63" d="M17.3234 6.44778C17.4546 6.44778 17.561 6.34141 17.561 6.21021C17.561 6.07901 17.4546 5.97266 17.3234 5.97266C17.1923 5.97266 17.0859 6.07901 17.0859 6.21021C17.0859 6.34141 17.1923 6.44778 17.3234 6.44778Z" fill="#FF77A1" style="fill:#FF77A1;fill:color(display-p3 1.0000 0.4667 0.6314);fill-opacity:1;"/>
<path id="Vector_64" d="M18.6196 6.21021C18.6196 6.34138 18.5132 6.44778 18.382 6.44778C18.2509 6.44778 18.1445 6.34138 18.1445 6.21021C18.1445 6.07905 18.2509 5.97266 18.382 5.97266C18.5132 5.97266 18.6196 6.07905 18.6196 6.21021Z" fill="#FF77A1" style="fill:#FF77A1;fill:color(display-p3 1.0000 0.4667 0.6314);fill-opacity:1;"/>
<path id="Vector_65" d="M19.6977 6.21021C19.6977 6.34138 19.5913 6.44778 19.4602 6.44778C19.329 6.44778 19.2227 6.34138 19.2227 6.21021C19.2227 6.07905 19.329 5.97266 19.4602 5.97266C19.5918 5.97266 19.6977 6.07905 19.6977 6.21021Z" fill="#FF77A1" style="fill:#FF77A1;fill:color(display-p3 1.0000 0.4667 0.6314);fill-opacity:1;"/>
<path id="Vector_66" d="M20.5178 6.44778C20.649 6.44778 20.7553 6.34141 20.7553 6.21021C20.7553 6.07901 20.649 5.97266 20.5178 5.97266C20.3866 5.97266 20.2803 6.07901 20.2803 6.21021C20.2803 6.34141 20.3866 6.44778 20.5178 6.44778Z" fill="#FF77A1" style="fill:#FF77A1;fill:color(display-p3 1.0000 0.4667 0.6314);fill-opacity:1;"/>
</g>
<g id="Group_33">
<path id="Vector_67" d="M17.561 7.25367C17.561 7.38484 17.4546 7.49123 17.3234 7.49123C17.1923 7.49123 17.0859 7.38484 17.0859 7.25367C17.0859 7.1225 17.1923 7.01611 17.3234 7.01611C17.4546 7.01611 17.561 7.1225 17.561 7.25367Z" fill="#FF77A1" style="fill:#FF77A1;fill:color(display-p3 1.0000 0.4667 0.6314);fill-opacity:1;"/>
<path id="Vector_68" d="M18.6196 7.25367C18.6196 7.38484 18.5132 7.49123 18.382 7.49123C18.2509 7.49123 18.1445 7.38484 18.1445 7.25367C18.1445 7.1225 18.2509 7.01611 18.382 7.01611C18.5132 7.01611 18.6196 7.1225 18.6196 7.25367Z" fill="#FF77A1" style="fill:#FF77A1;fill:color(display-p3 1.0000 0.4667 0.6314);fill-opacity:1;"/>
<path id="Vector_69" d="M19.6977 7.25367C19.6977 7.38484 19.5913 7.49123 19.4602 7.49123C19.329 7.49123 19.2227 7.38484 19.2227 7.25367C19.2227 7.1225 19.329 7.01611 19.4602 7.01611C19.5918 7.01611 19.6977 7.1225 19.6977 7.25367Z" fill="#FF77A1" style="fill:#FF77A1;fill:color(display-p3 1.0000 0.4667 0.6314);fill-opacity:1;"/>
<path id="Vector_70" d="M20.7553 7.25367C20.7553 7.38484 20.6489 7.49123 20.5178 7.49123C20.3867 7.49123 20.2803 7.38484 20.2803 7.25367C20.2803 7.1225 20.3867 7.01611 20.5178 7.01611C20.6489 7.01611 20.7553 7.1225 20.7553 7.25367Z" fill="#FF77A1" style="fill:#FF77A1;fill:color(display-p3 1.0000 0.4667 0.6314);fill-opacity:1;"/>
</g>
<g id="Group_34">
<path id="Vector_71" d="M17.561 8.30213C17.561 8.4333 17.4546 8.53969 17.3234 8.53969C17.1923 8.53969 17.0859 8.4333 17.0859 8.30213C17.0859 8.17097 17.1923 8.06458 17.3234 8.06458C17.4546 8.06458 17.561 8.17097 17.561 8.30213Z" fill="#FF77A1" style="fill:#FF77A1;fill:color(display-p3 1.0000 0.4667 0.6314);fill-opacity:1;"/>
<path id="Vector_72" d="M18.6196 8.30226C18.6196 8.43342 18.5132 8.53981 18.382 8.53981C18.2509 8.53981 18.1445 8.43342 18.1445 8.30226C18.1445 8.17109 18.2509 8.0647 18.382 8.0647C18.5132 8.0647 18.6196 8.17109 18.6196 8.30226Z" fill="#FF77A1" style="fill:#FF77A1;fill:color(display-p3 1.0000 0.4667 0.6314);fill-opacity:1;"/>
<path id="Vector_73" d="M19.6977 8.30226C19.6977 8.43342 19.5913 8.53981 19.4602 8.53981C19.329 8.53981 19.2227 8.43342 19.2227 8.30226C19.2227 8.17109 19.329 8.0647 19.4602 8.0647C19.5918 8.0647 19.6977 8.17109 19.6977 8.30226Z" fill="#FF77A1" style="fill:#FF77A1;fill:color(display-p3 1.0000 0.4667 0.6314);fill-opacity:1;"/>
<path id="Vector_74" d="M20.7553 8.30226C20.7553 8.43342 20.6489 8.53981 20.5178 8.53981C20.3867 8.53981 20.2803 8.43342 20.2803 8.30226C20.2803 8.17109 20.3867 8.0647 20.5178 8.0647C20.6489 8.0647 20.7553 8.17109 20.7553 8.30226Z" fill="#FF77A1" style="fill:#FF77A1;fill:color(display-p3 1.0000 0.4667 0.6314);fill-opacity:1;"/>
</g>
</g>
</g>
<g id="Group_35">
<g id="Group_36">
<path id="Vector_75" d="M1.3508 22.6944C1.48197 22.6944 1.58831 22.588 1.58831 22.4568C1.58831 22.3256 1.48197 22.2192 1.3508 22.2192C1.21962 22.2192 1.11328 22.3256 1.11328 22.4568C1.11328 22.588 1.21962 22.6944 1.3508 22.6944Z" fill="#232996" style="fill:#232996;fill:color(display-p3 0.1373 0.1608 0.5882);fill-opacity:1;"/>
<path id="Vector_76" d="M2.40841 22.6944C2.53958 22.6944 2.64592 22.588 2.64592 22.4568C2.64592 22.3256 2.53958 22.2192 2.40841 22.2192C2.27724 22.2192 2.1709 22.3256 2.1709 22.4568C2.1709 22.588 2.27724 22.6944 2.40841 22.6944Z" fill="#232996" style="fill:#232996;fill:color(display-p3 0.1373 0.1608 0.5882);fill-opacity:1;"/>
<path id="Vector_77" d="M3.726 22.4568C3.726 22.588 3.61963 22.6944 3.48849 22.6944C3.35735 22.6944 3.25098 22.588 3.25098 22.4568C3.25098 22.3256 3.35735 22.2192 3.48849 22.2192C3.61963 22.2192 3.726 22.3256 3.726 22.4568Z" fill="#232996" style="fill:#232996;fill:color(display-p3 0.1373 0.1608 0.5882);fill-opacity:1;"/>
<path id="Vector_78" d="M4.5461 22.6944C4.67728 22.6944 4.78361 22.588 4.78361 22.4568C4.78361 22.3256 4.67728 22.2192 4.5461 22.2192C4.41493 22.2192 4.30859 22.3256 4.30859 22.4568C4.30859 22.588 4.41493 22.6944 4.5461 22.6944Z" fill="#232996" style="fill:#232996;fill:color(display-p3 0.1373 0.1608 0.5882);fill-opacity:1;"/>
</g>
<g id="Group_37">
<path id="Vector_79" d="M1.3508 23.7372C1.48197 23.7372 1.58831 23.6308 1.58831 23.4996C1.58831 23.3684 1.48197 23.2621 1.3508 23.2621C1.21962 23.2621 1.11328 23.3684 1.11328 23.4996C1.11328 23.6308 1.21962 23.7372 1.3508 23.7372Z" fill="#232996" style="fill:#232996;fill:color(display-p3 0.1373 0.1608 0.5882);fill-opacity:1;"/>
<path id="Vector_80" d="M2.40841 23.7373C2.53958 23.7373 2.64592 23.631 2.64592 23.4998C2.64592 23.3686 2.53958 23.2622 2.40841 23.2622C2.27724 23.2622 2.1709 23.3686 2.1709 23.4998C2.1709 23.631 2.27724 23.7373 2.40841 23.7373Z" fill="#232996" style="fill:#232996;fill:color(display-p3 0.1373 0.1608 0.5882);fill-opacity:1;"/>
<path id="Vector_81" d="M3.726 23.4998C3.726 23.6309 3.61963 23.7373 3.48849 23.7373C3.35735 23.7373 3.25098 23.6309 3.25098 23.4998C3.25098 23.3686 3.35735 23.2622 3.48849 23.2622C3.61963 23.2622 3.726 23.3686 3.726 23.4998Z" fill="#232996" style="fill:#232996;fill:color(display-p3 0.1373 0.1608 0.5882);fill-opacity:1;"/>
<path id="Vector_82" d="M4.5461 23.7373C4.67728 23.7373 4.78361 23.631 4.78361 23.4998C4.78361 23.3686 4.67728 23.2622 4.5461 23.2622C4.41493 23.2622 4.30859 23.3686 4.30859 23.4998C4.30859 23.631 4.41493 23.7373 4.5461 23.7373Z" fill="#232996" style="fill:#232996;fill:color(display-p3 0.1373 0.1608 0.5882);fill-opacity:1;"/>
</g>
<g id="Group_38">
<path id="Vector_83" d="M1.3508 24.7859C1.48197 24.7859 1.58831 24.6795 1.58831 24.5483C1.58831 24.4171 1.48197 24.3108 1.3508 24.3108C1.21962 24.3108 1.11328 24.4171 1.11328 24.5483C1.11328 24.6795 1.21962 24.7859 1.3508 24.7859Z" fill="#232996" style="fill:#232996;fill:color(display-p3 0.1373 0.1608 0.5882);fill-opacity:1;"/>
<path id="Vector_84" d="M2.40841 24.7859C2.53958 24.7859 2.64592 24.6795 2.64592 24.5483C2.64592 24.4171 2.53958 24.3108 2.40841 24.3108C2.27724 24.3108 2.1709 24.4171 2.1709 24.5483C2.1709 24.6795 2.27724 24.7859 2.40841 24.7859Z" fill="#232996" style="fill:#232996;fill:color(display-p3 0.1373 0.1608 0.5882);fill-opacity:1;"/>
<path id="Vector_85" d="M3.726 24.5483C3.726 24.6795 3.61963 24.7859 3.48849 24.7859C3.35735 24.7859 3.25098 24.6795 3.25098 24.5483C3.25098 24.4172 3.35735 24.3108 3.48849 24.3108C3.61963 24.3108 3.726 24.4172 3.726 24.5483Z" fill="#232996" style="fill:#232996;fill:color(display-p3 0.1373 0.1608 0.5882);fill-opacity:1;"/>
<path id="Vector_86" d="M4.5461 24.7859C4.67728 24.7859 4.78361 24.6795 4.78361 24.5483C4.78361 24.4171 4.67728 24.3108 4.5461 24.3108C4.41493 24.3108 4.30859 24.4171 4.30859 24.5483C4.30859 24.6795 4.41493 24.7859 4.5461 24.7859Z" fill="#232996" style="fill:#232996;fill:color(display-p3 0.1373 0.1608 0.5882);fill-opacity:1;"/>
</g>
</g>
<g id="Group_39">
<path id="Vector_87" d="M17.9209 32H3.31856C2.52588 32 1.88086 31.2946 1.88086 30.4279V1.57207C1.88086 0.705389 2.52588 0 3.31856 0H17.9209C18.7136 0 19.3586 0.705389 19.3586 1.57207V30.4279C19.3586 31.2946 18.7136 32 17.9209 32ZM3.31856 0.363869C2.72648 0.363869 2.24514 0.905542 2.24514 1.57158V30.4274C2.24514 31.0935 2.72648 31.6352 3.31856 31.6352H17.9209C18.513 31.6352 18.9943 31.0935 18.9943 30.4274V1.57158C18.9943 0.905542 18.513 0.363869 17.9209 0.363869H3.31856Z" fill="#86DDFC" style="fill:#86DDFC;fill:color(display-p3 0.5255 0.8667 0.9882);fill-opacity:1;"/>
</g>
<path id="Vector_88" d="M4.85058 1.78345C4.85058 2.31249 4.39644 2.74146 3.83593 2.74146C3.27542 2.74146 2.82129 2.31249 2.82129 1.78345C2.82129 1.25441 3.27542 0.825439 3.83593 0.825439C4.39595 0.825925 4.85058 1.25441 4.85058 1.78345Z" fill="#232996" style="fill:#232996;fill:color(display-p3 0.1373 0.1608 0.5882);fill-opacity:1;"/>
<g id="Group_40">
<path id="Vector_89" d="M8.26232 1.90489H6.00912C5.94209 1.90489 5.8877 1.85048 5.8877 1.78344C5.8877 1.7164 5.94209 1.66199 6.00912 1.66199H8.26232C8.32935 1.66199 8.38375 1.7164 8.38375 1.78344C8.38375 1.84999 8.32935 1.90489 8.26232 1.90489Z" fill="white" style="fill:white;fill-opacity:1;"/>
</g>
<g id="Group_41">
<path id="Vector_90" d="M11.2447 1.90489H8.99154C8.92452 1.90489 8.87012 1.85048 8.87012 1.78344C8.87012 1.7164 8.92452 1.66199 8.99154 1.66199H11.2447C11.3118 1.66199 11.3662 1.7164 11.3662 1.78344C11.3662 1.84999 11.3123 1.90489 11.2447 1.90489Z" fill="white" style="fill:white;fill-opacity:1;"/>
</g>
<g id="Group_42">
<path id="Vector_91" d="M14.0944 1.90489H11.8412C11.7741 1.90489 11.7197 1.85048 11.7197 1.78344C11.7197 1.7164 11.7741 1.66199 11.8412 1.66199H14.0944C14.1614 1.66199 14.2158 1.7164 14.2158 1.78344C14.2158 1.84999 14.1614 1.90489 14.0944 1.90489Z" fill="white" style="fill:white;fill-opacity:1;"/>
</g>
<g id="Group_43">
<path id="Vector_92" d="M16.8795 1.90489H14.6263C14.5593 1.90489 14.5049 1.85048 14.5049 1.78344C14.5049 1.7164 14.5593 1.66199 14.6263 1.66199H16.8795C16.9465 1.66199 17.0009 1.7164 17.0009 1.78344C17.0009 1.84999 16.947 1.90489 16.8795 1.90489Z" fill="white" style="fill:white;fill-opacity:1;"/>
</g>
<path id="Vector_93" d="M14.8105 30.9881H3.74215C3.38273 30.9881 3.09082 30.6966 3.09082 30.3366V28.8894C3.09082 28.5299 3.38224 28.2379 3.74215 28.2379H14.8105C15.1699 28.2379 15.4618 28.5294 15.4618 28.8894V30.3366C15.4618 30.6966 15.1704 30.9881 14.8105 30.9881Z" fill="#86DDFC" style="fill:#86DDFC;fill:color(display-p3 0.5255 0.8667 0.9882);fill-opacity:1;"/>
<path id="Vector_94" d="M17.8646 31.1243C17.5999 30.7376 17.3347 30.3509 17.07 29.9642C16.6197 29.9399 16.17 29.9156 15.7197 29.8913C16.4308 29.2952 17.1414 28.6992 17.8525 28.1031C17.8777 28.0666 17.9224 28.0623 17.9462 28.0856C17.9642 28.1031 17.97 28.1351 17.9593 28.1643C17.9278 29.1509 17.8962 30.1376 17.8646 31.1243Z" fill="#232996" style="fill:#232996;fill:color(display-p3 0.1373 0.1608 0.5882);fill-opacity:1;"/>
<g id="Group_44">
<path id="Vector_95" d="M12.1618 29.9633C12.344 29.9633 12.4916 29.7998 12.4916 29.598C12.4916 29.3962 12.344 29.2327 12.1618 29.2327C11.9797 29.2327 11.832 29.3962 11.832 29.598C11.832 29.7998 11.9797 29.9633 12.1618 29.9633Z" fill="white" style="fill:white;fill-opacity:1;"/>
<path id="Vector_96" d="M13.1765 29.9631C13.3586 29.9631 13.5063 29.7995 13.5063 29.5977C13.5063 29.396 13.3586 29.2324 13.1765 29.2324C12.9943 29.2324 12.8467 29.396 12.8467 29.5977C12.8467 29.7995 12.9943 29.9631 13.1765 29.9631Z" fill="white" style="fill:white;fill-opacity:1;"/>
<path id="Vector_97" d="M14.195 29.9631C14.3772 29.9631 14.5248 29.7995 14.5248 29.5977C14.5248 29.396 14.3772 29.2324 14.195 29.2324C14.0129 29.2324 13.8652 29.396 13.8652 29.5977C13.8652 29.7995 14.0129 29.9631 14.195 29.9631Z" fill="white" style="fill:white;fill-opacity:1;"/>
</g>
<path id="Vector_98" d="M6.44292 4.89136H0.243825C0.109284 4.89136 0 5.00066 0 5.13523V8.88905C0 9.02362 0.109284 9.13292 0.243825 9.13292H4.48552C4.537 9.13292 4.58752 9.14944 4.62929 9.18005C5.01203 9.45938 5.39476 9.73872 5.7775 10.0181C5.92273 10.1245 6.12916 10.0414 6.16121 9.86406C6.20493 9.62019 6.24912 9.3768 6.29284 9.13292H6.68626V5.13523C6.68675 5.00066 6.57746 4.89136 6.44292 4.89136Z" fill="#86DDFC" style="fill:#86DDFC;fill:color(display-p3 0.5255 0.8667 0.9882);fill-opacity:1;"/>
<g id="Group_45">
<g id="Group_46">
<path id="Vector_99" d="M4.18606 7.66083H2.34668V6.84711C2.34668 6.37733 2.72747 5.99646 3.19715 5.99646H3.3351C3.80478 5.99646 4.18557 6.37733 4.18557 6.84711L4.18606 7.66083Z" fill="white" style="fill:white;fill-opacity:1;"/>
<path id="Vector_100" d="M4.71029 8.33931H1.82227C1.99712 8.15276 2.17198 7.9667 2.34683 7.78015C2.9598 7.78015 3.57325 7.78015 4.18621 7.78015C4.36058 7.9667 4.53544 8.15325 4.71029 8.33931Z" fill="white" style="fill:white;fill-opacity:1;"/>
<path id="Vector_101" d="M3.58348 8.42896C3.59271 8.61405 3.44117 8.7695 3.26146 8.76659C3.08466 8.76416 2.93943 8.61065 2.94866 8.42896C3.15994 8.42896 3.37171 8.42896 3.58348 8.42896Z" fill="white" style="fill:white;fill-opacity:1;"/>
<path id="Vector_102" d="M3.37048 6.30439H3.16211V5.17781C3.16211 5.12049 3.20874 5.07336 3.26653 5.07336C3.32433 5.07336 3.37096 5.12 3.37096 5.17781L3.37048 6.30439Z" fill="white" style="fill:white;fill-opacity:1;"/>
</g>
<g id="Group_47">
<g id="Group_48">
<g id="Group_49">
<path id="Vector_103" d="M1.63719 7.65976C1.61096 7.65976 1.58474 7.65102 1.56239 7.63402C1.32148 7.44552 1.18305 7.15112 1.1918 6.84604C1.19908 6.60459 1.29525 6.37627 1.46331 6.2038C1.50993 6.15522 1.58668 6.15425 1.63525 6.20089C1.68333 6.24801 1.6843 6.32477 1.63768 6.37286C1.51236 6.50257 1.44048 6.67261 1.43514 6.85284C1.42834 7.08165 1.53228 7.30173 1.71248 7.44261C1.76542 7.4839 1.77465 7.56017 1.73336 7.61361C1.70859 7.64373 1.67313 7.65976 1.63719 7.65976Z" fill="white" style="fill:white;fill-opacity:1;"/>
</g>
<g id="Group_50">
<path id="Vector_104" d="M1.45011 8.16302C1.42874 8.16302 1.40688 8.15718 1.38745 8.14553C0.929915 7.8691 0.655005 7.36581 0.670548 6.83142C0.685119 6.33736 0.943029 5.88459 1.36025 5.61982C1.41659 5.58388 1.49188 5.60039 1.52782 5.65723C1.56376 5.71358 1.54725 5.7884 1.49042 5.82483C1.1412 6.04636 0.925545 6.42529 0.913402 6.83822C0.900288 7.28516 1.13003 7.70636 1.51325 7.93809C1.57057 7.97258 1.58902 8.04739 1.55454 8.10472C1.53122 8.14213 1.49091 8.16302 1.45011 8.16302Z" fill="white" style="fill:white;fill-opacity:1;"/>
</g>
</g>
<g id="Group_51">
<g id="Group_52">
<path id="Vector_105" d="M4.8961 7.65866C4.86015 7.65866 4.8247 7.64263 4.80041 7.61202C4.75864 7.55907 4.76835 7.48232 4.8213 7.44102C5.00149 7.30014 5.10495 7.08007 5.09864 6.85125C5.09329 6.67102 5.02141 6.5005 4.8961 6.37128C4.84947 6.32318 4.85044 6.24643 4.89852 6.1993C4.94709 6.15267 5.02335 6.15364 5.07047 6.20222C5.23852 6.37468 5.33469 6.60301 5.34198 6.84445C5.35072 7.14954 5.21229 7.44394 4.97138 7.63243C4.94904 7.6504 4.92232 7.65866 4.8961 7.65866Z" fill="white" style="fill:white;fill-opacity:1;"/>
</g>
<g id="Group_53">
<path id="Vector_106" d="M5.08336 8.1628C5.04256 8.1628 5.00224 8.14191 4.97941 8.10402C4.94493 8.04669 4.9629 7.97236 5.02021 7.93738C5.40344 7.70565 5.63318 7.28446 5.61958 6.838C5.60792 6.42458 5.39227 6.04566 5.04256 5.82413C4.98573 5.78818 4.96922 5.71288 5.00516 5.65653C5.04159 5.59969 5.11687 5.58366 5.17273 5.61912C5.59044 5.88389 5.84835 6.33714 5.86243 6.83072C5.87797 7.36462 5.60355 7.8684 5.14553 8.14482C5.12659 8.15745 5.10473 8.1628 5.08336 8.1628Z" fill="white" style="fill:white;fill-opacity:1;"/>
</g>
</g>
</g>
</g>
<g id="Group_54">
<path id="Vector_107" d="M15.7824 21.5076H21.9815C22.116 21.5076 22.2253 21.6169 22.2253 21.7514V25.5053C22.2253 25.6398 22.116 25.7491 21.9815 25.7491H17.7398C17.6883 25.7491 17.6378 25.7657 17.596 25.7958C17.2133 26.0751 16.8306 26.3545 16.4478 26.6338C16.3026 26.7402 16.0957 26.6571 16.0641 26.4798C16.0204 26.2359 15.9762 25.9925 15.9325 25.7486H15.5391V21.751C15.5381 21.6169 15.6474 21.5076 15.7824 21.5076Z" fill="#FF77A1" style="fill:#FF77A1;fill:color(display-p3 1.0000 0.4667 0.6314);fill-opacity:1;"/>
<path id="Vector_108" d="M21.3078 22.7454H16.4546C16.357 22.7454 16.2773 22.6657 16.2773 22.5681C16.2773 22.4704 16.357 22.3907 16.4546 22.3907H21.3078C21.4054 22.3907 21.4851 22.4704 21.4851 22.5681C21.4851 22.6657 21.405 22.7454 21.3078 22.7454Z" fill="white" style="fill:white;fill-opacity:1;"/>
<path id="Vector_109" d="M20.0066 23.6811H16.4303C16.3463 23.6811 16.2773 23.6121 16.2773 23.528V23.4794C16.2773 23.3954 16.3463 23.3264 16.4303 23.3264H20.0066C20.0906 23.3264 20.1596 23.3954 20.1596 23.4794V23.528C20.1596 23.6121 20.0911 23.6811 20.0066 23.6811Z" fill="white" style="fill:white;fill-opacity:1;"/>
<path id="Vector_110" d="M19.3601 24.617H16.4167C16.34 24.617 16.2773 24.5543 16.2773 24.4775V24.4018C16.2773 24.325 16.34 24.2623 16.4167 24.2623H19.3601C19.4369 24.2623 19.4995 24.325 19.4995 24.4018V24.4775C19.4995 24.5543 19.4369 24.617 19.3601 24.617Z" fill="white" style="fill:white;fill-opacity:1;"/>
</g>
<path id="Vector_111" d="M10.878 10.0654C11.4303 10.0654 11.8781 9.61753 11.8781 9.06509C11.8781 8.51266 11.4303 8.06482 10.878 8.06482C10.3257 8.06482 9.87793 8.51266 9.87793 9.06509C9.87793 9.61753 10.3257 10.0654 10.878 10.0654Z" fill="#232996" style="fill:#232996;fill:color(display-p3 0.1373 0.1608 0.5882);fill-opacity:1;"/>
</g>
</svg>
