<svg width="38" height="43" viewBox="0 0 38 43" fill="none" xmlns="http://www.w3.org/2000/svg">
<g id="_x31_0">
<path id="Vector" d="M27.2531 41.2865H6.75141C5.89867 41.2865 5.20801 40.5951 5.20801 39.7428V3.59938C5.20801 2.74646 5.89867 2.05566 6.75141 2.05566H27.2531C28.1058 2.05566 28.7965 2.74711 28.7965 3.59938V39.7428C28.7965 40.5951 28.1058 41.2865 27.2531 41.2865Z" fill="#FF77A1" style="fill:#FF77A1;fill:color(display-p3 1.0000 0.4667 0.6314);fill-opacity:1;"/>
<g id="Group">
<g id="Group_2">
<path id="Vector_2" d="M32.7606 42.9996H32.1839C32.139 42.9996 32.1025 42.9631 32.1025 42.9182C32.1025 42.8733 32.139 42.8368 32.1839 42.8368H32.7606C32.8056 42.8368 32.842 42.8733 32.842 42.9182C32.842 42.9631 32.8056 42.9996 32.7606 42.9996Z" fill="#232996" style="fill:#232996;fill:color(display-p3 0.1373 0.1608 0.5882);fill-opacity:1;"/>
</g>
<g id="Group_3">
<path id="Vector_3" d="M31.6679 42.9999H31.3099C31.265 42.9999 31.2285 42.9635 31.2285 42.9185C31.2285 42.8736 31.265 42.8372 31.3099 42.8372H31.6679C31.7128 42.8372 31.7493 42.8736 31.7493 42.9185C31.7493 42.9635 31.7128 42.9999 31.6679 42.9999Z" fill="#232996" style="fill:#232996;fill:color(display-p3 0.1373 0.1608 0.5882);fill-opacity:1;"/>
</g>
<g id="Group_4">
<path id="Vector_4" d="M30.4944 42.999H4.86653C4.82161 42.999 4.78516 42.9625 4.78516 42.9176C4.78516 42.8726 4.82161 42.8362 4.86653 42.8362H30.4944C30.5394 42.8362 30.5758 42.8726 30.5758 42.9176C30.5758 42.9625 30.5394 42.999 30.4944 42.999Z" fill="#232996" style="fill:#232996;fill:color(display-p3 0.1373 0.1608 0.5882);fill-opacity:1;"/>
</g>
<g id="Group_5">
<path id="Vector_5" d="M4.50838 42.9996H4.04621C4.0013 42.9996 3.96484 42.9631 3.96484 42.9182C3.96484 42.8733 4.0013 42.8368 4.04621 42.8368H4.50838C4.5533 42.8368 4.58975 42.8733 4.58975 42.9182C4.58975 42.9631 4.5533 42.9996 4.50838 42.9996Z" fill="#232996" style="fill:#232996;fill:color(display-p3 0.1373 0.1608 0.5882);fill-opacity:1;"/>
</g>
<g id="Group_6">
<path id="Vector_6" d="M3.59883 42.9988H2.86848C2.82356 42.9988 2.78711 42.9624 2.78711 42.9174C2.78711 42.8725 2.82356 42.8361 2.86848 42.8361H3.59883C3.64375 42.8361 3.6802 42.8725 3.6802 42.9174C3.6802 42.9624 3.64375 42.9988 3.59883 42.9988Z" fill="#232996" style="fill:#232996;fill:color(display-p3 0.1373 0.1608 0.5882);fill-opacity:1;"/>
</g>
</g>
<path id="Vector_7" d="M25.6834 31.1213C25.3801 31.1024 25.1041 31.3381 24.9537 31.6936C24.5703 31.6461 24.2286 31.7665 24.0932 32.0387C23.9011 32.4235 24.1934 32.9593 24.7461 33.2347C25.1366 33.4294 25.5493 33.4385 25.8273 33.2933C25.8403 33.2874 25.8527 33.2822 25.8657 33.2751C25.8781 33.2679 25.8891 33.2594 25.9009 33.251C26.1658 33.083 26.3643 32.721 26.3917 32.2854C26.4294 31.6695 26.1131 31.148 25.6834 31.1213Z" fill="white" style="fill:white;fill-opacity:1;"/>
<path id="Vector_8" d="M27.3323 29.193C27.2047 29.1351 27.0472 29.1917 26.9241 29.3206C26.7666 29.2379 26.6 29.234 26.4971 29.3291C26.352 29.4639 26.3904 29.7419 26.5837 29.9509C26.7204 30.098 26.8962 30.1696 27.04 30.1527C27.2197 30.1169 27.3648 29.9938 27.4475 29.8109C27.5647 29.5504 27.5133 29.2744 27.3323 29.193Z" fill="#FF77A1" style="fill:#FF77A1;fill:color(display-p3 1.0000 0.4667 0.6314);fill-opacity:1;"/>
<path id="Vector_9" d="M28.0022 34.1027C27.7743 33.9999 27.4938 34.1008 27.2738 34.3306C26.9925 34.1822 26.6944 34.1757 26.5108 34.3456C26.2511 34.5858 26.3201 35.0833 26.6651 35.4557C26.9092 35.7187 27.2236 35.8463 27.4801 35.8157C27.4918 35.8151 27.5029 35.8144 27.5146 35.8125C27.5263 35.8105 27.5374 35.8073 27.5485 35.804C27.801 35.7519 28.0594 35.5312 28.2072 35.2044C28.4168 34.7421 28.3244 34.2486 28.0022 34.1027Z" fill="#86DDFC" style="fill:#86DDFC;fill:color(display-p3 0.5255 0.8667 0.9882);fill-opacity:1;"/>
<path id="Vector_10" d="M25.2984 26.9056C25.0211 26.7806 24.68 26.903 24.4131 27.1823C24.0713 27.002 23.7088 26.9935 23.4861 27.2006C23.1704 27.4929 23.2544 28.0971 23.6736 28.5503C23.9698 28.8706 24.3525 29.0249 24.6644 28.9878C24.6787 28.9865 24.6923 28.9865 24.7067 28.9845C24.721 28.9819 24.734 28.978 24.7477 28.9748C25.0549 28.9116 25.3687 28.6434 25.5483 28.2456C25.8022 27.6824 25.6902 27.0834 25.2984 26.9056Z" fill="#86DDFC" style="fill:#86DDFC;fill:color(display-p3 0.5255 0.8667 0.9882);fill-opacity:1;"/>
<path id="Vector_11" d="M27.5246 23.6915C27.2473 23.5665 26.9062 23.6889 26.6393 23.9682C26.2976 23.7879 25.935 23.7794 25.7117 23.9865C25.396 24.2788 25.48 24.883 25.8992 25.3361C26.1954 25.6565 26.5781 25.8108 26.8899 25.7737C26.9043 25.7724 26.9179 25.7724 26.9322 25.7698C26.9466 25.7672 26.9596 25.7633 26.9733 25.76C27.2805 25.6968 27.5943 25.4286 27.7739 25.0308C28.0284 24.4683 27.9165 23.8686 27.5246 23.6915Z" fill="white" style="fill:white;fill-opacity:1;"/>
<path id="Vector_12" d="M27.7425 22.1929C27.6032 22.1298 27.4314 22.1916 27.2973 22.3323C27.1254 22.2418 26.9432 22.2372 26.8305 22.3414C26.6717 22.4885 26.714 22.7926 26.9249 23.0205C27.074 23.1813 27.2667 23.2594 27.4229 23.2405C27.6195 23.2021 27.7777 23.0667 27.8675 22.8668C27.9964 22.5836 27.9398 22.2821 27.7425 22.1929Z" fill="#86DDFC" style="fill:#86DDFC;fill:color(display-p3 0.5255 0.8667 0.9882);fill-opacity:1;"/>
<path id="Vector_13" d="M26.022 19.9963C25.7447 19.8713 25.4036 19.9937 25.1367 20.273C24.795 20.0927 24.4324 20.0849 24.2098 20.2913C23.8941 20.5836 23.978 21.1878 24.3972 21.641C24.6934 21.9613 25.0762 22.1156 25.388 22.0785C25.4023 22.0772 25.416 22.0772 25.4303 22.0746C25.4446 22.072 25.4576 22.0681 25.4713 22.0648C25.7786 22.0017 26.0923 21.7334 26.272 21.3356C26.5252 20.7731 26.4139 20.1734 26.022 19.9963Z" fill="#86DDFC" style="fill:#86DDFC;fill:color(display-p3 0.5255 0.8667 0.9882);fill-opacity:1;"/>
<g id="Group_7">
<g id="Group_8">
<path id="Vector_14" d="M26.3531 39.9615C25.626 39.9615 24.9529 39.5383 24.6372 38.882C24.6261 38.8599 24.6261 38.8345 24.6372 38.8117C24.9523 38.1567 25.626 37.7335 26.3531 37.7335C27.0802 37.7335 27.754 38.1567 28.0697 38.8117C28.0807 38.8345 28.0807 38.8599 28.0697 38.882C27.7546 39.5377 27.0809 39.9615 26.3531 39.9615ZM24.8013 38.8469C25.0961 39.4263 25.7015 39.7987 26.3531 39.7987C27.0054 39.7987 27.6108 39.4263 27.9056 38.8469C27.6108 38.2674 27.0054 37.8956 26.3531 37.8956C25.7015 37.8956 25.0961 38.2674 24.8013 38.8469Z" fill="#232996" style="fill:#232996;fill:color(display-p3 0.1373 0.1608 0.5882);fill-opacity:1;"/>
</g>
<path id="Vector_15" d="M27.4112 38.8467C27.4112 39.4307 26.9379 39.904 26.354 39.904C25.7701 39.904 25.2969 39.4307 25.2969 38.8467C25.2969 38.2626 25.7701 37.7893 26.354 37.7893C26.9379 37.7893 27.4112 38.2626 27.4112 38.8467Z" fill="#232996" style="fill:#232996;fill:color(display-p3 0.1373 0.1608 0.5882);fill-opacity:1;"/>
</g>
<g id="Group_9">
<g id="Group_10">
<path id="Vector_16" d="M27.8424 42.2609H6.2276C5.17696 42.2609 4.32227 41.406 4.32227 40.3552V3.34187C4.32227 2.29103 5.17696 1.43616 6.2276 1.43616H27.8424C28.893 1.43616 29.7477 2.29103 29.7477 3.34187V40.3552C29.7477 41.406 28.893 42.2609 27.8424 42.2609ZM6.2276 1.92512C5.44646 1.92512 4.81048 2.56123 4.81048 3.34252V40.3558C4.81048 41.1371 5.44646 41.7732 6.2276 41.7732H27.8424C28.6235 41.7732 29.2595 41.1371 29.2595 40.3558V3.34252C29.2595 2.56123 28.6235 1.92512 27.8424 1.92512H6.2276Z" fill="#86DDFC" style="fill:#86DDFC;fill:color(display-p3 0.5255 0.8667 0.9882);fill-opacity:1;"/>
</g>
<path id="Vector_17" d="M21.2084 2.85322H12.8619C12.5423 2.85322 12.2832 2.59409 12.2832 2.27441C12.2832 1.93976 12.5423 1.68127 12.8619 1.68127H21.2084C21.528 1.68127 21.7871 1.9404 21.7871 2.26008C21.7871 2.59409 21.528 2.85322 21.2084 2.85322Z" fill="#86DDFC" style="fill:#86DDFC;fill:color(display-p3 0.5255 0.8667 0.9882);fill-opacity:1;"/>
</g>
<g id="Group_11">
<path id="Vector_18" d="M14.1743 13.7867C14.076 14.0081 13.9835 14.2288 13.8852 14.4566C13.7993 14.6598 13.7134 14.8623 13.6275 15.0713C13.5969 15.1513 13.5598 15.2191 13.5292 15.2985C13.4367 15.5322 13.3385 15.7595 13.2402 15.9867C13.2343 15.9991 13.2278 16.0173 13.2219 16.0297C13.1725 16.1527 13.1236 16.2627 13.0742 16.3799C13.0006 16.5518 12.9329 16.712 12.8594 16.8839C12.804 17.0252 12.7428 17.1541 12.6934 17.2771C12.6009 17.492 12.5091 17.701 12.4232 17.9224C12.3985 17.9595 12.3926 18.0024 12.3679 18.0454C11.7228 17.7505 11.0777 17.462 10.4268 17.173C10.5127 16.8904 10.5986 16.6078 10.691 16.3252L10.9059 15.6618C10.9488 15.5329 10.9983 15.3975 11.0471 15.2627C11.0595 15.2197 11.0718 15.1826 11.0842 15.1461C11.2072 14.7959 11.3114 14.4885 11.4038 14.2307C11.8152 13.1245 12.0118 12.7378 12.0118 12.7378C12.073 12.5106 12.1654 12.2462 12.3191 11.9571C12.6751 11.2996 13.1607 10.8881 13.4739 10.6732C13.3814 10.9499 13.1972 11.6505 13.4309 12.4917C13.6158 13.1415 13.9718 13.5777 14.1743 13.7867Z" fill="#FFB7A6" style="fill:#FFB7A6;fill:color(display-p3 1.0000 0.7176 0.6510);fill-opacity:1;"/>
<path id="Vector_19" d="M13.528 15.2981C13.4356 15.5318 13.3373 15.759 13.239 15.9863C13.2331 15.9986 13.2266 16.0169 13.2207 16.0292C12.508 15.7401 11.7951 15.4393 11.083 15.1444C11.9 15.1932 12.711 15.2486 13.528 15.2981Z" fill="#F9917D" style="fill:#F9917D;fill:color(display-p3 0.9765 0.5686 0.4902);fill-opacity:1;"/>
<path id="Vector_20" d="M13.2708 15.6615C12.3666 15.4479 11.4618 15.235 10.5576 15.0215C10.665 14.1939 11.0335 12.3507 12.5541 11.0785C12.8171 10.8585 13.0859 10.6794 13.3489 10.5336C13.4596 11.2953 13.5702 12.0571 13.6802 12.8195C13.5435 13.7668 13.4068 14.7142 13.2708 15.6615Z" fill="#232996" style="fill:#232996;fill:color(display-p3 0.1373 0.1608 0.5882);fill-opacity:1;"/>
<path id="Vector_21" d="M17.4893 13.7867C17.5876 14.0081 17.68 14.2288 17.7783 14.4566C17.8642 14.6598 17.9501 14.8623 18.0361 15.0713C18.0666 15.1513 18.1038 15.2191 18.1343 15.2985C18.2268 15.5322 18.3251 15.7595 18.4234 15.9867C18.4292 15.9991 18.4357 16.0173 18.4416 16.0297C18.4911 16.1527 18.5399 16.2627 18.5894 16.3799C18.6629 16.5518 18.7306 16.712 18.8042 16.8839C18.8595 17.0252 18.9207 17.1541 18.9702 17.2771C19.0626 17.492 19.1544 17.701 19.2403 17.9224C19.2651 17.9595 19.2709 18.0024 19.2956 18.0454C19.9407 17.7505 20.5858 17.462 21.2368 17.173C21.1508 16.8904 21.0649 16.6078 20.9725 16.3252L20.7577 15.6618C20.7147 15.5329 20.6652 15.3975 20.6164 15.2627C20.604 15.2197 20.5917 15.1826 20.5793 15.1461C20.4563 14.7959 20.3521 14.4885 20.2597 14.2307C19.8483 13.1245 19.6517 12.7378 19.6517 12.7378C19.5905 12.5106 19.4981 12.2462 19.3445 11.9571C18.9884 11.2996 18.5028 10.8881 18.1897 10.6732C18.2821 10.9499 18.4663 11.6505 18.2326 12.4917C18.0484 13.1415 17.6917 13.5777 17.4893 13.7867Z" fill="#FFB7A6" style="fill:#FFB7A6;fill:color(display-p3 1.0000 0.7176 0.6510);fill-opacity:1;"/>
<path id="Vector_22" d="M18.1328 15.2981C18.2252 15.5318 18.3235 15.759 18.4218 15.9863C18.4277 15.9986 18.4342 16.0169 18.4401 16.0292C19.1528 15.7401 19.8657 15.4393 20.5778 15.1444C19.7608 15.1932 18.9498 15.2486 18.1328 15.2981Z" fill="#F9917D" style="fill:#F9917D;fill:color(display-p3 0.9765 0.5686 0.4902);fill-opacity:1;"/>
<path id="Vector_23" d="M18.3928 15.6615C19.297 15.4479 20.2018 15.235 21.106 15.0215C20.9986 14.1939 20.6295 12.3507 19.1095 11.0785C18.8465 10.8585 18.5777 10.6794 18.3147 10.5336C18.2041 11.2953 18.0934 12.0571 17.9834 12.8195C18.1194 13.7668 18.2561 14.7142 18.3928 15.6615Z" fill="#232996" style="fill:#232996;fill:color(display-p3 0.1373 0.1608 0.5882);fill-opacity:1;"/>
<path id="Vector_24" d="M15.3616 29.8788C15.3681 30.0383 15.3499 30.1985 15.3115 30.36C15.2776 30.511 15.219 30.6581 15.1448 30.8007C15.1311 30.8261 15.1168 30.847 15.0979 30.8724C14.5843 31.7513 13.4191 32.0482 12.4603 31.5326C11.7514 31.1569 11.3485 30.4394 11.3647 29.7252L11.3843 29.4751C11.4201 29.2538 11.4826 29.0669 11.575 28.8885C11.6167 28.8117 11.6635 28.7355 11.7156 28.6684C11.8529 28.4829 12.0209 28.3266 12.211 28.2042C12.2546 28.1775 12.3034 28.1508 12.3529 28.1287C12.9199 27.8312 13.6372 27.8175 14.2647 28.156C14.4841 28.2719 14.6696 28.4191 14.8265 28.5923C15.1591 28.9536 15.3473 29.41 15.3616 29.8788Z" fill="#FFB7A6" style="fill:#FFB7A6;fill:color(display-p3 1.0000 0.7176 0.6510);fill-opacity:1;"/>
<path id="Vector_25" d="M16.8274 20.2933L16.3235 23.636L16.3053 23.7408L16.0228 25.6211L15.6785 27.8882L15.5007 29.0927L15.3842 29.8486L11.5137 29.2646L11.7161 27.9377L12.0911 25.4609L12.9575 19.71L15.0093 20.0231L16.8274 20.2933Z" fill="#FFB7A6" style="fill:#FFB7A6;fill:color(display-p3 1.0000 0.7176 0.6510);fill-opacity:1;"/>
<path id="Vector_26" d="M15.6788 27.8884L15.5004 29.0929C14.2409 28.712 12.9754 28.3246 11.7158 27.9379C12.4839 27.8825 13.2514 27.8272 14.0254 27.7719C14.5794 27.8083 15.1262 27.8454 15.6788 27.8884Z" fill="#F9917D" style="fill:#F9917D;fill:color(display-p3 0.9765 0.5686 0.4902);fill-opacity:1;"/>
<path id="Vector_27" d="M18.5454 20.1953C18.2649 20.347 16.8328 21.086 15.124 20.5554C13.9133 20.1797 13.2161 19.3691 12.9629 19.041C13.0566 16.283 13.151 13.525 13.2447 10.767C13.5051 10.5789 15.0238 9.51826 16.9389 9.94472C17.9479 10.1693 18.6314 10.7104 18.9699 11.0229C18.828 14.0804 18.6867 17.1379 18.5454 20.1953Z" fill="#FFB7A6" style="fill:#FFB7A6;fill:color(display-p3 1.0000 0.7176 0.6510);fill-opacity:1;"/>
<path id="Vector_28" d="M7.77386 23.1442C8.59797 22.7315 9.7163 22.0302 10.7311 20.8557C11.5377 19.922 12.0324 18.9741 12.3403 18.2234C12.5453 17.8692 12.4666 17.3841 12.1632 17.043C11.7961 16.6295 11.1608 16.4961 10.7481 16.7936C9.23525 18.4252 7.72179 20.0575 6.20898 21.6891L7.77386 23.1442Z" fill="#FFB7A6" style="fill:#FFB7A6;fill:color(display-p3 1.0000 0.7176 0.6510);fill-opacity:1;"/>
<path id="Vector_29" d="M7.8242 23.1181C6.53337 23.7308 6.09462 23.8011 6.00999 23.6761C5.90519 23.5205 6.37259 23.0992 6.25933 22.9286C6.14411 22.7561 5.51268 22.9631 4.83634 23.249C4.7055 23.331 3.89051 23.8362 3.67374 23.6168C3.63078 23.5732 3.58065 23.469 3.67374 23.1897C3.85145 22.954 4.11249 22.663 4.48028 22.3947C5.1501 21.9058 5.82448 21.7476 6.20724 21.689C6.74623 22.1656 7.28522 22.6415 7.8242 23.1181Z" fill="#FFB7A6" style="fill:#FFB7A6;fill:color(display-p3 1.0000 0.7176 0.6510);fill-opacity:1;"/>
<g id="Group_12">
<path id="Vector_30" d="M14.3887 40.0539C13.974 40.2908 11.2368 41.832 10.5591 41.0832C10.427 40.9374 10.2825 40.604 10.591 39.755C10.647 39.033 10.703 38.3109 10.7583 37.5889L10.8039 37.0153L10.8182 36.8772L10.8618 36.3193L10.8742 36.1552L10.9191 35.5816L10.9315 35.4175L10.9744 34.8647L10.9861 34.7059L11.0278 34.1629L11.0408 33.9936L11.0864 33.42C11.1059 33.3809 11.1092 33.3503 11.0975 33.3178L11.1456 32.6673L11.1534 32.5957L11.2628 31.1725C11.3019 30.7948 11.3409 30.4172 11.38 30.0389C12.6318 30.1991 13.8835 30.3593 15.1353 30.5188L15.1262 30.6568L15.0761 31.276L14.3887 40.0539Z" fill="#FFB7A6" style="fill:#FFB7A6;fill:color(display-p3 1.0000 0.7176 0.6510);fill-opacity:1;"/>
<path id="Vector_31" d="M15.3627 42.0247C15.3587 42.1894 15.2494 42.3157 15.1576 42.3997C12.1548 42.5716 9.14151 42.7448 6.13867 42.9167C6.06316 42.7265 6.0202 42.5494 5.99872 42.3964C5.95967 42.1315 5.99025 41.9186 6.0254 41.7564C6.31052 40.6301 7.81943 39.7765 9.87057 39.6821C10.06 39.6684 10.2507 39.6704 10.446 39.6723C10.7083 39.6691 10.9759 39.6704 11.2382 39.6678C11.3105 39.6678 11.3775 39.6684 11.4491 39.6684C12.2928 39.6652 13.1468 39.6613 13.995 39.6573C14.1135 39.6593 14.2313 39.6561 14.3498 39.658C14.3543 39.7244 14.3699 39.7954 14.3791 39.8566C14.4819 40.5077 14.6355 40.9296 14.7931 41.1959C14.8048 41.2154 14.8217 41.2401 14.8393 41.2701C14.8621 41.3046 14.8796 41.3287 14.9018 41.358C14.9525 41.4211 15.0079 41.4739 15.0573 41.5168C15.1179 41.5741 15.293 41.7213 15.3418 41.9029C15.3568 41.9426 15.3646 41.9837 15.3627 42.0247Z" fill="#FFB7A6" style="fill:#FFB7A6;fill:color(display-p3 1.0000 0.7176 0.6510);fill-opacity:1;"/>
<g id="Group_13">
<path id="Vector_32" d="M15.3623 42.0231C15.3623 42.1884 15.2484 42.3134 15.1573 42.3987C12.157 42.5693 9.14053 42.7458 6.1403 42.917C6.08887 42.792 6.05501 42.6722 6.03223 42.5583C6.01531 42.5016 6.00359 42.4502 5.99838 42.3987C5.95867 42.1311 5.99253 41.9202 6.02703 41.7555C6.07845 41.4423 6.23207 40.7873 6.77301 40.2411C6.99499 40.019 7.2456 39.8537 7.49621 39.7397C8.50193 39.2827 9.50635 39.8953 9.67625 39.5861C9.78495 39.3888 9.39309 39.1336 9.49529 38.7546C9.59228 38.3946 10.0512 38.237 10.1384 38.2071C10.8799 37.9525 11.8888 38.4011 12.0099 38.9532C12.0542 39.1564 11.8244 39.4747 11.8446 40.1545C11.8504 40.342 11.8504 40.4846 11.8673 40.5757C11.8843 40.6551 11.9129 40.7007 11.9585 40.7294C12.2488 40.883 12.8978 40.0008 13.9966 39.6531C14.1216 39.6134 14.2414 39.6134 14.3553 39.6531C14.5486 39.7384 14.6625 39.9722 14.7198 40.2567C14.7882 40.5471 14.7992 40.8941 14.794 41.1962C14.8109 41.2131 14.8285 41.2359 14.8454 41.2704C14.8682 41.3043 14.8852 41.3271 14.9079 41.3557C14.9594 41.4182 15.0101 41.4697 15.0616 41.5152C15.1241 41.5719 15.2953 41.7203 15.346 41.9026C15.3565 41.943 15.3682 41.9834 15.3623 42.0231Z" fill="#232996" style="fill:#232996;fill:color(display-p3 0.1373 0.1608 0.5882);fill-opacity:1;"/>
<path id="Vector_33" d="M15.3404 42.9167H6.00321C5.89906 42.9167 5.81445 42.8321 5.81445 42.7279V42.3874C5.81445 42.2832 5.89906 42.1986 6.00321 42.1986H15.3404C15.4446 42.1986 15.5292 42.2832 15.5292 42.3874V42.7279C15.5292 42.8321 15.4446 42.9167 15.3404 42.9167Z" fill="#86DDFC" style="fill:#86DDFC;fill:color(display-p3 0.5255 0.8667 0.9882);fill-opacity:1;"/>
<path id="Vector_34" d="M8.84237 42.5579H6.03026C6.01334 42.5013 6.00164 42.4498 5.99643 42.3984C5.95672 42.1308 5.99056 41.9199 6.02506 41.7551C6.07648 41.442 6.2301 40.787 6.77104 40.2407C6.99302 40.0187 7.24365 39.8533 7.49426 39.7394C7.94342 40.6789 8.38736 41.6184 8.84237 42.5579Z" fill="#86DDFC" style="fill:#86DDFC;fill:color(display-p3 0.5255 0.8667 0.9882);fill-opacity:1;"/>
</g>
<path id="Vector_35" d="M14.1454 41.0805C14.1454 41.3871 13.8967 41.6352 13.5908 41.6352C13.2848 41.6352 13.0361 41.3871 13.0361 41.0805C13.0361 40.7738 13.2848 40.5258 13.5908 40.5258C13.8967 40.5258 14.1454 40.7745 14.1454 41.0805Z" fill="#86DDFC" style="fill:#86DDFC;fill:color(display-p3 0.5255 0.8667 0.9882);fill-opacity:1;"/>
</g>
<g id="Group_14">
<path id="Vector_36" d="M20.0774 29.2646L16.2068 29.8486L16.0721 28.9332L15.9549 28.1525L15.5741 25.6211L15.2916 23.7408L15.2734 23.636L14.7695 20.2933L16.5876 20.0231L18.6394 19.71L19.5058 25.4609L19.8743 27.9253L20.0774 29.2646Z" fill="#FFB7A6" style="fill:#FFB7A6;fill:color(display-p3 1.0000 0.7176 0.6510);fill-opacity:1;"/>
<path id="Vector_37" d="M16.2347 29.8797C16.2282 30.0392 16.2464 30.1993 16.2848 30.3608C16.3187 30.5119 16.3773 30.659 16.4515 30.8016C16.4651 30.827 16.4794 30.8478 16.4983 30.8732C17.0119 31.7522 18.1771 32.0491 19.136 31.5334C19.8449 31.1577 20.2478 30.4402 20.2315 29.726L20.212 29.476C20.1762 29.2546 20.1137 29.0678 20.0213 28.8894C19.9796 28.8125 19.9328 28.7364 19.8807 28.6693C19.7433 28.4837 19.5754 28.3275 19.3853 28.2051C19.3417 28.1784 19.2929 28.1517 19.2434 28.1296C18.6764 27.832 17.9584 27.8183 17.3316 28.1569C17.1122 28.2728 16.9267 28.4199 16.7704 28.5931C16.4365 28.9545 16.2484 29.4109 16.2347 29.8797Z" fill="#FFB7A6" style="fill:#FFB7A6;fill:color(display-p3 1.0000 0.7176 0.6510);fill-opacity:1;"/>
<path id="Vector_38" d="M18.2979 40.203C18.736 40.3931 21.6249 41.6263 22.2173 40.8079C22.3332 40.6483 22.4399 40.3013 22.0402 39.4914C21.9061 38.7797 21.7714 38.0681 21.6373 37.3571L21.5299 36.792L21.5 36.6566L21.3958 36.1064L21.3659 35.9449L21.2585 35.3798L21.2285 35.2183L21.125 34.6734L21.0964 34.5165L20.9955 33.9813L20.9642 33.8146L20.8568 33.2495C20.8334 33.213 20.8262 33.1824 20.8347 33.1492L20.7156 32.5079L20.7006 32.4376L20.4363 31.0345C20.3562 30.6634 20.2762 30.2923 20.1961 29.9211C18.9691 30.2167 17.742 30.513 16.5156 30.8086L16.5404 30.9453L16.6575 31.5554L18.2979 40.203Z" fill="#FFB7A6" style="fill:#FFB7A6;fill:color(display-p3 1.0000 0.7176 0.6510);fill-opacity:1;"/>
<path id="Vector_39" d="M16.8538 42.0248C16.8577 42.1895 16.9671 42.3158 17.0589 42.3998C20.0617 42.5717 23.0749 42.7449 26.0778 42.9168C26.1533 42.7267 26.1962 42.5496 26.2177 42.3966C26.2568 42.1316 26.2262 41.9187 26.191 41.7566C25.9059 40.6302 24.397 39.7766 22.3459 39.6822C22.1564 39.6685 21.9657 39.6705 21.7704 39.6724C21.5081 39.6692 21.2406 39.6705 20.9782 39.6679C20.906 39.6679 20.8389 39.6685 20.7673 39.6685C19.9237 39.6653 19.0696 39.6614 18.2214 39.6575C18.103 39.6594 17.9852 39.6562 17.8667 39.6581C17.8621 39.7245 17.8465 39.7955 17.8374 39.8567C17.7345 40.5078 17.5809 40.9297 17.4234 41.196C17.4117 41.2155 17.3947 41.2403 17.3772 41.2702C17.3544 41.3047 17.3368 41.3288 17.314 41.3581C17.2633 41.4212 17.2079 41.474 17.1584 41.517C17.0979 41.5743 16.9228 41.7214 16.874 41.9031C16.8597 41.9428 16.8519 41.9838 16.8538 42.0248Z" fill="#FFB7A6" style="fill:#FFB7A6;fill:color(display-p3 1.0000 0.7176 0.6510);fill-opacity:1;"/>
<g id="Group_15">
<path id="Vector_40" d="M16.8551 42.0232C16.8551 42.1886 16.969 42.3136 17.0601 42.3989C20.0603 42.5694 23.0769 42.7459 26.0771 42.9171C26.1285 42.7921 26.1624 42.6723 26.1851 42.5584C26.2021 42.5017 26.2138 42.4503 26.219 42.3989C26.2587 42.1313 26.2248 41.9203 26.1903 41.7556C26.1389 41.4424 25.9853 40.7874 25.4444 40.2412C25.2224 40.0192 24.9718 39.8538 24.7212 39.7398C23.7154 39.2828 22.711 39.8955 22.5411 39.5862C22.4324 39.3889 22.8243 39.1337 22.7221 38.7548C22.6251 38.3947 22.1662 38.2372 22.079 38.2072C21.3375 37.9526 20.3286 38.4012 20.2075 38.9533C20.1626 39.1565 20.393 39.4749 20.3728 40.1546C20.367 40.3421 20.367 40.4847 20.35 40.5758C20.3331 40.6553 20.3045 40.7008 20.2589 40.7295C19.9686 40.8831 19.3196 40.0009 18.2208 39.6533C18.0958 39.6135 17.976 39.6135 17.8621 39.6533C17.6688 39.7385 17.5549 39.9723 17.4976 40.2568C17.4292 40.5472 17.4181 40.8942 17.4234 41.1963C17.4064 41.2132 17.3895 41.236 17.3719 41.2705C17.3491 41.3044 17.3322 41.3272 17.3094 41.3558C17.258 41.4183 17.2072 41.4698 17.1558 41.5153C17.0933 41.572 16.9221 41.7204 16.8714 41.9027C16.8609 41.9431 16.8492 41.9835 16.8551 42.0232Z" fill="#232996" style="fill:#232996;fill:color(display-p3 0.1373 0.1608 0.5882);fill-opacity:1;"/>
<path id="Vector_41" d="M16.8753 42.9169H26.2132C26.3173 42.9169 26.402 42.8322 26.402 42.7281V42.3875C26.402 42.2834 26.3173 42.1987 26.2132 42.1987H16.8753C16.7712 42.1987 16.6865 42.2834 16.6865 42.3875V42.7281C16.6865 42.8322 16.7712 42.9169 16.8753 42.9169Z" fill="#86DDFC" style="fill:#86DDFC;fill:color(display-p3 0.5255 0.8667 0.9882);fill-opacity:1;"/>
<path id="Vector_42" d="M23.374 42.5588H26.1861C26.2031 42.5021 26.2148 42.4507 26.22 42.3992C26.2597 42.1317 26.2258 41.9207 26.1913 41.756C26.1399 41.4428 25.9863 40.7878 25.4454 40.2416C25.2234 40.0196 24.9728 39.8542 24.7222 39.7402C24.2736 40.6797 23.8297 41.6192 23.374 42.5588Z" fill="#86DDFC" style="fill:#86DDFC;fill:color(display-p3 0.5255 0.8667 0.9882);fill-opacity:1;"/>
</g>
<path id="Vector_43" d="M18.6259 41.636C18.9322 41.636 19.1805 41.3877 19.1805 41.0813C19.1805 40.775 18.9322 40.5266 18.6259 40.5266C18.3196 40.5266 18.0713 40.775 18.0713 41.0813C18.0713 41.3877 18.3196 41.636 18.6259 41.636Z" fill="#232996" style="fill:#232996;fill:color(display-p3 0.1373 0.1608 0.5882);fill-opacity:1;"/>
</g>
<path id="Vector_44" d="M15.7279 28.335C14.273 28.1917 12.8182 28.0478 11.3633 27.9046C11.8541 25.1381 12.3443 22.3711 12.8351 19.6046C13.9957 19.852 15.1557 20.0994 16.3164 20.3468C16.1198 23.0098 15.9238 25.672 15.7279 28.335Z" fill="white" style="fill:white;fill-opacity:1;"/>
<path id="Vector_45" d="M19.8744 27.9248C18.609 28.2569 17.3436 28.6006 16.0716 28.9327L15.9551 28.152C17.2635 28.0785 18.5725 28.0049 19.8744 27.9248Z" fill="#F9917D" style="fill:#F9917D;fill:color(display-p3 0.9765 0.5686 0.4902);fill-opacity:1;"/>
<path id="Vector_46" d="M15.7232 28.335C17.1781 28.1917 18.633 28.0478 20.0878 27.9046C19.597 25.1381 19.1069 22.3711 18.616 19.6046C17.4554 19.852 16.2954 20.0994 15.1348 20.3468C15.3307 23.0098 15.5273 25.672 15.7232 28.335Z" fill="white" style="fill:white;fill-opacity:1;"/>
<path id="Vector_47" d="M19.362 20.5134C18.5704 20.7504 17.4963 20.9828 16.2133 21.0127C14.5378 21.0518 13.1688 20.7302 12.2588 20.4365C12.387 17.3517 12.5146 14.2662 12.6428 11.1814C12.7587 11.0447 14.2273 9.36947 16.4053 9.64553C17.84 9.82718 18.7214 10.7465 18.9688 11.0239C19.1003 14.1868 19.2311 17.3498 19.362 20.5134Z" fill="#232996" style="fill:#232996;fill:color(display-p3 0.1373 0.1608 0.5882);fill-opacity:1;"/>
<path id="Vector_48" d="M22.9207 12.0516C23.0672 12.7339 23.2872 14.2236 22.7098 15.9476C22.2789 17.2342 21.5837 18.1151 21.1352 18.6008C20.8865 18.9634 20.4289 19.1236 20.009 18.996C19.5911 18.8684 19.3008 18.4823 19.2949 18.0447C19.9745 15.8832 20.6535 13.7209 21.3331 11.5593C21.1462 9.77017 21.1612 8.85084 21.3786 8.80006C21.6273 8.74211 22.1415 9.82551 22.9207 12.0516Z" fill="#FFB7A6" style="fill:#FFB7A6;fill:color(display-p3 1.0000 0.7176 0.6510);fill-opacity:1;"/>
<path id="Vector_49" d="M14.9805 10.0136C15.7193 10.6399 16.4737 10.7578 16.7667 10.4706C16.8181 10.4244 16.9567 10.2656 16.9157 9.85473C16.9053 9.84952 16.9001 9.66982 16.9001 9.65941C16.9001 9.6542 16.8949 9.58779 16.8897 9.46929C16.8793 9.2948 16.8643 9.09947 16.8539 8.87876C16.8487 8.81235 16.8487 8.74008 16.8435 8.66846C16.8279 8.3605 16.8077 8.04212 16.7921 7.81099C16.7868 7.72895 16.7817 7.65212 16.7764 7.57464L15.9042 7.23608C15.899 7.25171 15.8885 7.25692 15.8885 7.27189C15.8527 7.32854 15.8215 7.39495 15.7857 7.45159C15.6679 7.80057 15.565 8.11374 15.4622 8.4217C15.3235 8.8423 15.1849 9.26876 15.0462 9.69C15.0215 9.79288 14.9961 9.9003 14.9805 10.0136Z" fill="#FFB7A6" style="fill:#FFB7A6;fill:color(display-p3 1.0000 0.7176 0.6510);fill-opacity:1;"/>
<path id="Vector_50" d="M15.4619 8.42121C15.5133 8.69336 15.6572 9.1706 16.0725 9.50982C16.2164 9.62766 16.4266 9.80215 16.6271 9.74616C16.7397 9.71035 16.8322 9.60748 16.8888 9.4688C16.8784 9.29431 16.8634 9.09898 16.853 8.87827C16.8478 8.81186 16.8478 8.73959 16.8426 8.66797C16.6375 8.33917 16.2112 8.27276 16.15 8.26756C15.8108 8.22133 15.5491 8.36522 15.4619 8.42121Z" fill="#F9917D" style="fill:#F9917D;fill:color(display-p3 0.9765 0.5686 0.4902);fill-opacity:1;"/>
<g id="Group_16">
<path id="Vector_51" d="M15.1026 7.23756C15.1384 8.20442 15.7789 8.96748 16.521 8.93427C17.1492 8.91018 17.6543 8.33202 17.7734 7.57807C17.7962 7.43809 17.8086 7.289 17.8021 7.13664C17.8014 7.12688 17.7891 6.96541 17.7891 6.96541C17.7396 6.56304 17.5977 6.20625 17.3809 5.9367C17.1218 5.60791 16.7632 5.41063 16.3778 5.4256L16.2971 5.43146C15.6579 5.50373 15.1638 6.15807 15.1065 6.97387C15.0987 7.06112 15.1 7.14706 15.1026 7.23756Z" fill="#FFB7A6" style="fill:#FFB7A6;fill:color(display-p3 1.0000 0.7176 0.6510);fill-opacity:1;"/>
<path id="Vector_52" d="M16.1271 7.74996C16.1056 7.94007 15.9338 8.07745 15.7437 8.05596C15.5536 8.03448 15.4163 7.86325 15.4378 7.67248C15.4592 7.48236 15.6304 7.34499 15.8212 7.36647C16.0112 7.38861 16.1479 7.55984 16.1271 7.74996Z" fill="#F9917D" style="fill:#F9917D;fill:color(display-p3 0.9765 0.5686 0.4902);fill-opacity:1;"/>
<path id="Vector_53" d="M17.6877 7.7856C17.6662 7.97572 17.495 8.11309 17.3042 8.09161C17.1142 8.07012 16.9768 7.89889 16.9983 7.70812C17.0198 7.51801 17.1916 7.38063 17.3817 7.40212C17.5724 7.4236 17.7091 7.59548 17.6877 7.7856Z" fill="#F9917D" style="fill:#F9917D;fill:color(display-p3 0.9765 0.5686 0.4902);fill-opacity:1;"/>
<g id="Group_17">
<g id="Group_18">
<path id="Vector_54" d="M16.1565 7.11062C16.1396 7.11062 16.122 7.10476 16.107 7.09434C16.0712 7.067 16.0647 7.01621 16.0921 6.97975L16.2873 6.72323C16.314 6.68742 16.3642 6.68156 16.4019 6.70825C16.4377 6.7356 16.4442 6.78638 16.4169 6.82284L16.2216 7.07937C16.2053 7.1002 16.1806 7.11062 16.1565 7.11062Z" fill="#232996" style="fill:#232996;fill:color(display-p3 0.1373 0.1608 0.5882);fill-opacity:1;"/>
</g>
<g id="Group_19">
<path id="Vector_55" d="M15.9137 7.06295C15.9001 7.06295 15.8851 7.05904 15.872 7.05123C15.833 7.02844 15.8206 6.97831 15.8434 6.93989L16.0048 6.66774C16.027 6.62803 16.0777 6.61631 16.1161 6.6391C16.1552 6.66188 16.1676 6.71202 16.1448 6.75043L15.9834 7.02258C15.9684 7.04927 15.9417 7.06295 15.9137 7.06295Z" fill="#232996" style="fill:#232996;fill:color(display-p3 0.1373 0.1608 0.5882);fill-opacity:1;"/>
</g>
<g id="Group_20">
<path id="Vector_56" d="M16.179 7.62374C16.1399 7.62374 16.1054 7.59574 16.0989 7.55603L16.0696 7.38349C16.0618 7.33987 16.0917 7.29755 16.1366 7.28974C16.1783 7.28127 16.2226 7.31187 16.2304 7.3568L16.2597 7.52933C16.2675 7.57296 16.2375 7.61527 16.1926 7.62309C16.1874 7.62374 16.1835 7.62374 16.179 7.62374Z" fill="#232996" style="fill:#232996;fill:color(display-p3 0.1373 0.1608 0.5882);fill-opacity:1;"/>
</g>
<g id="Group_21">
<path id="Vector_57" d="M15.8863 7.62091C15.8296 7.6131 15.799 7.57143 15.8056 7.52716L15.8309 7.36178C15.8381 7.31751 15.8804 7.2856 15.924 7.29342C15.9683 7.30058 15.9989 7.34225 15.9924 7.38652L15.967 7.5519C15.9605 7.59226 15.9253 7.62091 15.8863 7.62091Z" fill="#232996" style="fill:#232996;fill:color(display-p3 0.1373 0.1608 0.5882);fill-opacity:1;"/>
</g>
<path id="Vector_58" d="M15.6534 7.22999C15.6807 7.34328 15.8617 7.38365 16.0075 7.38495C16.027 7.3869 16.0478 7.3843 16.0628 7.38625C16.1487 7.38104 16.221 7.36412 16.2893 7.33677C16.3785 7.30161 16.4495 7.24952 16.4566 7.18507C16.4742 7.07178 16.3108 6.91813 16.1194 6.88102L16.0849 6.87711C16.0407 6.8719 16.0153 6.8745 15.9743 6.87971C15.8922 6.89534 15.8115 6.94157 15.7503 7.00016C15.6761 7.07178 15.6306 7.16163 15.6534 7.22999Z" fill="white" style="fill:white;fill-opacity:1;"/>
<path id="Vector_59" d="M15.9467 7.12782C15.9363 7.22223 15.961 7.31533 16.0079 7.38565C16.0274 7.3876 16.0482 7.385 16.0632 7.38695C16.1491 7.38174 16.2214 7.36482 16.2897 7.33747C16.3789 7.30231 16.4499 7.25023 16.457 7.18577C16.4746 7.07248 16.3112 6.91883 16.1198 6.88172L16.0853 6.87781C16.0085 6.9338 15.9584 7.02365 15.9467 7.12782Z" fill="#232996" style="fill:#232996;fill:color(display-p3 0.1373 0.1608 0.5882);fill-opacity:1;"/>
</g>
<g id="Group_22">
<g id="Group_23">
<path id="Vector_60" d="M17.5051 7.15169C17.4882 7.15169 17.4706 7.14649 17.4563 7.13542C17.4198 7.10808 17.4133 7.05729 17.4407 7.02148L17.6353 6.7643C17.6626 6.72784 17.7134 6.72068 17.7492 6.74868C17.7857 6.77602 17.7922 6.82681 17.7648 6.86261L17.5702 7.11979C17.5539 7.14063 17.5298 7.15169 17.5051 7.15169Z" fill="#232996" style="fill:#232996;fill:color(display-p3 0.1373 0.1608 0.5882);fill-opacity:1;"/>
</g>
<g id="Group_24">
<path id="Vector_61" d="M17.2637 7.10439C17.2493 7.10439 17.235 7.10049 17.2226 7.09267C17.1836 7.06989 17.1712 7.01975 17.194 6.98133L17.3561 6.70853C17.3782 6.66947 17.429 6.65645 17.4674 6.67989C17.5065 6.70267 17.5188 6.75281 17.4961 6.79122L17.334 7.06403C17.3183 7.09007 17.2917 7.10439 17.2637 7.10439Z" fill="#232996" style="fill:#232996;fill:color(display-p3 0.1373 0.1608 0.5882);fill-opacity:1;"/>
</g>
<g id="Group_25">
<path id="Vector_62" d="M17.5302 7.66353C17.4912 7.66353 17.4573 7.63553 17.4502 7.59582L17.4202 7.42328C17.4124 7.37901 17.4417 7.33669 17.4866 7.32888C17.5348 7.32106 17.5725 7.35101 17.581 7.39528L17.6109 7.56782C17.6187 7.61209 17.5895 7.65442 17.5445 7.66223C17.5393 7.66288 17.5348 7.66353 17.5302 7.66353Z" fill="#232996" style="fill:#232996;fill:color(display-p3 0.1373 0.1608 0.5882);fill-opacity:1;"/>
</g>
<g id="Group_26">
<path id="Vector_63" d="M17.2359 7.66014C17.1792 7.65233 17.1487 7.61065 17.1552 7.56638L17.1805 7.40036C17.1877 7.35608 17.2307 7.32418 17.2736 7.33199C17.3179 7.33915 17.3485 7.38083 17.342 7.4251L17.3166 7.59112C17.3101 7.63149 17.2749 7.66014 17.2359 7.66014Z" fill="#232996" style="fill:#232996;fill:color(display-p3 0.1373 0.1608 0.5882);fill-opacity:1;"/>
</g>
<path id="Vector_64" d="M17.003 7.27105C17.0304 7.38434 17.2113 7.42471 17.3571 7.42601C17.3766 7.42796 17.3975 7.42536 17.4125 7.42731C17.4984 7.4221 17.5706 7.40517 17.639 7.37717C17.7282 7.34202 17.7991 7.28993 17.8063 7.22547C17.8238 7.11218 17.6605 6.95853 17.4691 6.92142L17.4346 6.91751C17.3897 6.9123 17.3649 6.91491 17.3239 6.92012C17.2419 6.93574 17.1612 6.98197 17.1 7.04057C17.0251 7.11284 16.9802 7.20268 17.003 7.27105Z" fill="white" style="fill:white;fill-opacity:1;"/>
<path id="Vector_65" d="M17.2963 7.16839C17.2859 7.2628 17.3106 7.35525 17.3575 7.42622C17.377 7.42818 17.3979 7.42557 17.4128 7.42752C17.4988 7.42232 17.571 7.40538 17.6394 7.37739C17.7285 7.34223 17.7995 7.29014 17.8067 7.22569C17.8242 7.1124 17.6608 6.95875 17.4695 6.92163L17.435 6.91772C17.3582 6.97437 17.308 7.06422 17.2963 7.16839Z" fill="#232996" style="fill:#232996;fill:color(display-p3 0.1373 0.1608 0.5882);fill-opacity:1;"/>
</g>
<path id="Vector_66" d="M16.2607 7.90332C16.2607 7.92155 16.2614 8.19305 16.4736 8.32327C16.4971 8.33759 16.6936 8.45804 16.8577 8.34931C17.008 8.2497 16.9963 8.04721 16.9957 8.03875C16.9039 8.03419 16.8043 8.02507 16.6975 8.0088C16.5309 7.9821 16.3851 7.94434 16.2607 7.90332Z" fill="white" style="fill:white;fill-opacity:1;"/>
<path id="Vector_67" d="M14.8877 7.2017C14.8636 7.41395 14.9912 7.60211 15.1715 7.6223C15.3518 7.64248 15.5172 7.48687 15.5412 7.27527C15.5653 7.06302 15.4377 6.87486 15.2574 6.85467C15.0771 6.83449 14.9118 6.98945 14.8877 7.2017Z" fill="#FFB7A6" style="fill:#FFB7A6;fill:color(display-p3 1.0000 0.7176 0.6510);fill-opacity:1;"/>
</g>
<path id="Vector_68" d="M21.1061 12.0643C21.0058 12.0643 20.9238 11.9822 20.9238 11.882V8.2763C20.9238 8.17603 21.0058 8.09399 21.1061 8.09399C21.2063 8.09399 21.2884 8.17603 21.2884 8.2763V11.882C21.2884 11.9822 21.2063 12.0643 21.1061 12.0643Z" fill="#232996" style="fill:#232996;fill:color(display-p3 0.1373 0.1608 0.5882);fill-opacity:1;"/>
<path id="Vector_69" d="M21.6478 10.8741C21.5873 11.1554 21.5261 11.4373 21.4656 11.7192C21.2163 11.4087 20.9663 11.0981 20.717 10.7882C20.5354 10.6098 20.549 10.3663 20.6597 10.279C20.7365 10.2185 20.8693 10.2263 20.9858 10.2888C21.2065 10.4835 21.4272 10.6788 21.6478 10.8741Z" fill="#FFB7A6" style="fill:#FFB7A6;fill:color(display-p3 1.0000 0.7176 0.6510);fill-opacity:1;"/>
<g id="Group_27">
<path id="Vector_70" d="M19.4877 17.5129C19.4219 17.4966 19.3965 17.4517 19.4096 17.4094L20.0104 15.3266C20.0227 15.283 20.0722 15.2608 20.1106 15.2706C20.1536 15.2836 20.179 15.3285 20.1666 15.3709L19.5658 17.4537C19.5554 17.4901 19.5235 17.5129 19.4877 17.5129Z" fill="#F74F4F" style="fill:#F74F4F;fill:color(display-p3 0.9686 0.3098 0.3098);fill-opacity:1;"/>
</g>
<g id="Group_28">
<path id="Vector_71" d="M16.2621 22.3447C16.2184 22.3447 16.182 22.3095 16.1807 22.2659L16.1534 21.342C16.1521 21.2971 16.1879 21.2594 16.2321 21.2581C16.2829 21.2646 16.3148 21.2926 16.3161 21.3368L16.3434 22.2607C16.3447 22.3056 16.3089 22.3434 16.2647 22.3447C16.2634 22.3447 16.2621 22.3447 16.2621 22.3447Z" fill="#232996" style="fill:#232996;fill:color(display-p3 0.1373 0.1608 0.5882);fill-opacity:1;"/>
</g>
<g id="Group_29">
<path id="Vector_72" d="M15.7339 22.8981C15.7118 22.8981 15.6897 22.889 15.6734 22.8707C15.6428 22.8375 15.6461 22.7861 15.6799 22.7561L16.2521 22.245C16.2853 22.2144 16.3367 22.217 16.3667 22.2515C16.3972 22.2847 16.394 22.3362 16.3601 22.3661L15.788 22.8772C15.773 22.8916 15.7534 22.8981 15.7339 22.8981Z" fill="#232996" style="fill:#232996;fill:color(display-p3 0.1373 0.1608 0.5882);fill-opacity:1;"/>
</g>
<g id="Group_30">
<path id="Vector_73" d="M15.7181 28.3342C15.6725 28.3335 15.6361 28.2964 15.6367 28.2521L15.694 22.7883C15.6947 22.7433 15.7311 22.7075 15.7754 22.7075C15.8209 22.7082 15.8574 22.7453 15.8567 22.7896L15.7995 28.2534C15.7988 28.2984 15.7624 28.3342 15.7181 28.3342Z" fill="#232996" style="fill:#232996;fill:color(display-p3 0.1373 0.1608 0.5882);fill-opacity:1;"/>
</g>
<path id="Vector_74" d="M16.392 5.72496C13.6339 4.95668 12.4355 5.3623 11.8763 5.95869C10.8439 7.04599 11.5691 9.17242 10.1871 10.0266C9.6097 10.3893 9.14883 10.2233 8.72506 10.7578C8.21536 11.4089 8.5838 12.0417 8.037 12.601C7.54553 13.0984 6.9063 12.9637 6.808 13.3322C6.75267 13.5229 6.88157 13.7437 7.07229 13.9468H2.97457C2.88214 13.4611 2.78384 12.9695 2.68555 12.4845C2.66081 12.9695 2.64258 13.4617 2.61199 13.9468H1.33416C1.27883 13.7684 1.23002 13.5965 1.17468 13.4246C1.18054 13.5965 1.18054 13.7691 1.18054 13.9468H0.344727C0.350585 13.3016 0.492489 12.558 1.02041 12.1036C1.52425 11.6732 1.92327 11.8946 2.43948 11.4401C3.23168 10.7519 2.8268 9.78704 3.52657 9.35733C4.01804 9.05002 4.39884 9.41854 5.10512 9.28962C6.17398 9.08714 6.65959 7.96272 7.18751 7.2003C8.91383 4.6995 12.9256 3.38432 15.1122 4.52762C15.452 4.70471 15.9376 5.03676 16.392 5.72496Z" fill="#232996" style="fill:#232996;fill:color(display-p3 0.1373 0.1608 0.5882);fill-opacity:1;"/>
<g id="Group_31">
<path id="Vector_75" d="M0.0813774 13.7983C0.0358109 13.7976 -0.000642366 13.7605 8.58413e-06 13.7163C0.00847094 12.8471 0.245398 12.2071 0.704318 11.8119C0.966 11.5872 1.20295 11.5299 1.43143 11.4739C1.65992 11.4186 1.87538 11.3665 2.12209 11.1484C2.5042 10.8164 2.59339 10.4205 2.67866 10.0377C2.76459 9.65157 2.84661 9.28762 3.22091 9.05713C3.52035 8.86897 3.78787 8.91324 4.07169 8.95882C4.2852 8.99333 4.52801 9.03304 4.82745 8.97835C5.65871 8.82079 6.13586 8.06033 6.55638 7.38907C6.65792 7.22695 6.75751 7.06873 6.85841 6.92354C8.58994 4.41363 12.6415 3.04962 14.8872 4.22482C15.4015 4.49501 15.8292 4.89608 16.1956 5.4495C16.2204 5.48726 16.21 5.53805 16.1729 5.56279C16.1344 5.58623 16.085 5.57711 16.0596 5.54C15.7094 5.01002 15.3012 4.62653 14.8117 4.36871C12.6317 3.22736 8.68369 4.56403 6.99187 7.016C6.89292 7.15923 6.79463 7.31484 6.69438 7.47501C6.25564 8.17427 5.7596 8.96728 4.85738 9.13852C4.52931 9.19842 4.27219 9.1561 4.04566 9.11964C3.77161 9.07667 3.55484 9.0402 3.30683 9.19516C2.99047 9.38983 2.91885 9.70626 2.83683 10.0735C2.7496 10.4628 2.65132 10.9042 2.22885 11.2715C1.9522 11.515 1.70679 11.5749 1.4692 11.6328C1.24983 11.6862 1.04217 11.7363 0.809128 11.9356C0.387963 12.2989 0.169902 12.8985 0.162091 13.7176C0.162091 13.7625 0.126293 13.7983 0.0813774 13.7983Z" fill="#232996" style="fill:#232996;fill:color(display-p3 0.1373 0.1608 0.5882);fill-opacity:1;"/>
</g>
<path id="Vector_76" d="M17.7034 6.56171C17.594 6.48683 17.3994 6.3729 17.1351 6.31625C16.5883 6.19906 15.8287 6.34555 15.6503 6.75182C15.5872 6.89636 15.5767 7.11968 15.3684 7.31501C15.3235 7.35668 15.2819 7.38598 15.2532 7.40486C15.1959 7.23427 15.1387 7.06369 15.082 6.89311C15.082 6.65677 15.1107 6.29607 15.263 5.8911C15.3776 5.58704 15.5247 5.35331 15.647 5.19054C15.7206 5.19054 15.7942 5.19054 15.8677 5.19054C16.2205 5.16384 16.7875 5.17621 17.3141 5.47245C17.624 5.64694 17.7112 5.8019 17.7496 5.895C17.8687 6.18799 17.7425 6.47967 17.7034 6.56171Z" fill="#232996" style="fill:#232996;fill:color(display-p3 0.1373 0.1608 0.5882);fill-opacity:1;"/>
<path id="Vector_77" opacity="0.37" d="M18.4265 17.1075C18.4115 17.2468 18.306 17.3568 18.1667 17.3744C17.5737 17.4493 16.9013 17.4994 16.1625 17.4975C15.3572 17.4955 14.6314 17.4317 14.0026 17.3432C13.97 17.224 13.9284 17.0424 13.9108 16.8197C13.8646 16.2292 14.0208 15.7767 14.0599 15.653C14.1855 15.2545 14.2571 14.5643 14.0586 13.2811C14.0312 13.1033 14.1543 12.934 14.3339 12.9236C14.8117 12.8956 15.3091 12.8774 15.8227 12.8715C16.6403 12.8618 17.4162 12.8839 18.1466 12.9282C18.2943 12.9373 18.4121 13.0493 18.4278 13.1971C18.5117 13.9836 18.5547 14.8665 18.5189 15.8281C18.5026 16.2767 18.4701 16.7031 18.4265 17.1075Z" fill="white" style="fill:white;fill-opacity:1;"/>
</g>
<g id="Group_32">
<path id="Vector_78" d="M23.7255 0H36.1385C36.408 0 36.6267 0.218763 36.6267 0.48831V8.00503C36.6267 8.27458 36.408 8.49334 36.1385 8.49334H27.6449C27.5414 8.49334 27.4405 8.5259 27.3572 8.5871C26.591 9.14638 25.8242 9.70566 25.058 10.2656C24.7664 10.4785 24.3537 10.3125 24.2892 9.95762C24.2014 9.46931 24.1135 8.98165 24.0256 8.49334H23.2373V0.48831C23.2373 0.218763 23.456 0 23.7255 0Z" fill="#4390FF" style="fill:#4390FF;fill:color(display-p3 0.2627 0.5647 1.0000);fill-opacity:1;"/>
</g>
<g id="Group_33">
<path id="Vector_79" d="M27.6848 11.0059H37.6014C37.8169 11.0059 37.9913 11.1803 37.9913 11.3959V17.4008C37.9913 17.6163 37.8169 17.7908 37.6014 17.7908H30.8159C30.7332 17.7908 30.6525 17.8168 30.5861 17.8656C29.9736 18.3123 29.3617 18.7596 28.7492 19.2062C28.5168 19.3761 28.1861 19.244 28.1353 18.9601C28.065 18.5701 27.9947 18.1801 27.9244 17.7901H27.2949V11.3952C27.2943 11.1803 27.4687 11.0059 27.6848 11.0059Z" fill="#4390FF" style="fill:#4390FF;fill:color(display-p3 0.2627 0.5647 1.0000);fill-opacity:1;"/>
</g>
<g id="Group_34">
<g id="Group_35">
<path id="Vector_80" d="M33.1676 13.9674C32.9521 13.9674 32.7783 14.1425 32.7783 14.3574C32.7783 14.5729 32.9521 14.7474 33.1676 14.7474C33.275 14.7474 33.3726 14.7038 33.4436 14.6335C33.5139 14.5631 33.5575 14.4648 33.5575 14.3574C33.5575 14.25 33.5139 14.1523 33.4436 14.0813C33.3726 14.011 33.275 13.9674 33.1676 13.9674Z" fill="white" style="fill:white;fill-opacity:1;"/>
</g>
<g id="Group_36">
<path id="Vector_81" d="M34.873 12.1265C35.4687 12.7229 35.7967 13.5152 35.7967 14.3577C35.7967 15.2009 35.4687 15.9933 34.873 16.589L35.2851 17.0011C35.9914 16.2947 36.38 15.3565 36.38 14.3577C36.38 13.359 35.9914 12.4208 35.2851 11.7144L34.873 12.1265Z" fill="white" style="fill:white;fill-opacity:1;"/>
</g>
<g id="Group_37">
<path id="Vector_82" d="M34.2695 12.7289C34.7044 13.1638 34.9446 13.7426 34.9446 14.3579C34.9446 14.9732 34.705 15.552 34.2695 15.9869L34.6816 16.399C35.2264 15.8541 35.5272 15.1288 35.5272 14.3579C35.5272 13.587 35.2271 12.8617 34.6816 12.3168L34.2695 12.7289Z" fill="white" style="fill:white;fill-opacity:1;"/>
</g>
<g id="Group_38">
<path id="Vector_83" d="M33.5518 13.4472C33.7946 13.6901 33.9286 14.013 33.9286 14.3574C33.9286 14.7018 33.7946 15.0241 33.5518 15.2676L33.9638 15.6798C34.3166 15.3269 34.5113 14.8574 34.5113 14.3581C34.5113 13.8587 34.3166 13.3893 33.9638 13.0364L33.5518 13.4472Z" fill="white" style="fill:white;fill-opacity:1;"/>
</g>
</g>
<path id="Vector_84" d="M29.9317 16.4611C31.0929 16.4611 32.0342 15.5196 32.0342 14.3581C32.0342 13.1967 31.0929 12.2551 29.9317 12.2551C28.7704 12.2551 27.8291 13.1967 27.8291 14.3581C27.8291 15.5196 28.7704 16.4611 29.9317 16.4611Z" fill="white" style="fill:white;fill-opacity:1;"/>
<path id="Vector_85" d="M29.333 15.9384V12.7781C29.9377 13.3074 30.5425 13.8361 31.1472 14.3654C30.5425 14.8895 29.9377 15.4136 29.333 15.9384Z" fill="#4390FF" style="fill:#4390FF;fill:color(display-p3 0.2627 0.5647 1.0000);fill-opacity:1;"/>
<g id="Group_39">
<g id="Group_40">
<path id="Vector_86" d="M28.7968 26.3833C28.7968 26.5591 28.6542 26.7017 28.4785 26.7017C28.3027 26.7017 28.1602 26.5591 28.1602 26.3833C28.1602 26.2075 28.3027 26.0649 28.4785 26.0649C28.6542 26.0649 28.7968 26.2075 28.7968 26.3833Z" fill="#232996" style="fill:#232996;fill:color(display-p3 0.1373 0.1608 0.5882);fill-opacity:1;"/>
<path id="Vector_87" d="M30.2128 26.3833C30.2128 26.5591 30.0702 26.7017 29.8945 26.7017C29.7187 26.7017 29.5762 26.5591 29.5762 26.3833C29.5762 26.2075 29.7187 26.0649 29.8945 26.0649C30.0702 26.0649 30.2128 26.2075 30.2128 26.3833Z" fill="#232996" style="fill:#232996;fill:color(display-p3 0.1373 0.1608 0.5882);fill-opacity:1;"/>
<path id="Vector_88" d="M31.661 26.3833C31.661 26.5591 31.5185 26.7017 31.3427 26.7017C31.167 26.7017 31.0244 26.5591 31.0244 26.3833C31.0244 26.2075 31.167 26.0649 31.3427 26.0649C31.5185 26.0649 31.661 26.2075 31.661 26.3833Z" fill="#232996" style="fill:#232996;fill:color(display-p3 0.1373 0.1608 0.5882);fill-opacity:1;"/>
<path id="Vector_89" d="M33.078 26.3833C33.078 26.5591 32.9355 26.7017 32.7597 26.7017C32.584 26.7017 32.4414 26.5591 32.4414 26.3833C32.4414 26.2075 32.584 26.0649 32.7597 26.0649C32.9355 26.0649 33.078 26.2075 33.078 26.3833Z" fill="#232996" style="fill:#232996;fill:color(display-p3 0.1373 0.1608 0.5882);fill-opacity:1;"/>
</g>
<g id="Group_41">
<path id="Vector_90" d="M28.7968 27.7807C28.7968 27.9564 28.6542 28.099 28.4785 28.099C28.3027 28.099 28.1602 27.9564 28.1602 27.7807C28.1602 27.6049 28.3027 27.4623 28.4785 27.4623C28.6542 27.4623 28.7968 27.6049 28.7968 27.7807Z" fill="#232996" style="fill:#232996;fill:color(display-p3 0.1373 0.1608 0.5882);fill-opacity:1;"/>
<path id="Vector_91" d="M29.8945 28.0989C30.0703 28.0989 30.2128 27.9564 30.2128 27.7805C30.2128 27.6047 30.0703 27.4622 29.8945 27.4622C29.7187 27.4622 29.5762 27.6047 29.5762 27.7805C29.5762 27.9564 29.7187 28.0989 29.8945 28.0989Z" fill="#232996" style="fill:#232996;fill:color(display-p3 0.1373 0.1608 0.5882);fill-opacity:1;"/>
<path id="Vector_92" d="M31.3427 28.0989C31.5185 28.0989 31.661 27.9564 31.661 27.7805C31.661 27.6047 31.5185 27.4622 31.3427 27.4622C31.1669 27.4622 31.0244 27.6047 31.0244 27.7805C31.0244 27.9564 31.1669 28.0989 31.3427 28.0989Z" fill="#232996" style="fill:#232996;fill:color(display-p3 0.1373 0.1608 0.5882);fill-opacity:1;"/>
<path id="Vector_93" d="M33.078 27.7805C33.078 27.9563 32.9355 28.0989 32.7597 28.0989C32.584 28.0989 32.4414 27.9563 32.4414 27.7805C32.4414 27.6047 32.584 27.4622 32.7597 27.4622C32.9355 27.4622 33.078 27.6047 33.078 27.7805Z" fill="#232996" style="fill:#232996;fill:color(display-p3 0.1373 0.1608 0.5882);fill-opacity:1;"/>
</g>
<g id="Group_42">
<path id="Vector_94" d="M28.7968 29.1859C28.7968 29.3617 28.6542 29.5043 28.4785 29.5043C28.3027 29.5043 28.1602 29.3617 28.1602 29.1859C28.1602 29.0101 28.3027 28.8676 28.4785 28.8676C28.6542 28.8676 28.7968 29.0101 28.7968 29.1859Z" fill="#232996" style="fill:#232996;fill:color(display-p3 0.1373 0.1608 0.5882);fill-opacity:1;"/>
<path id="Vector_95" d="M29.8945 29.5042C30.0703 29.5042 30.2128 29.3616 30.2128 29.1858C30.2128 29.01 30.0703 28.8674 29.8945 28.8674C29.7187 28.8674 29.5762 29.01 29.5762 29.1858C29.5762 29.3616 29.7187 29.5042 29.8945 29.5042Z" fill="#232996" style="fill:#232996;fill:color(display-p3 0.1373 0.1608 0.5882);fill-opacity:1;"/>
<path id="Vector_96" d="M31.3427 29.5042C31.5185 29.5042 31.661 29.3616 31.661 29.1858C31.661 29.01 31.5185 28.8674 31.3427 28.8674C31.1669 28.8674 31.0244 29.01 31.0244 29.1858C31.0244 29.3616 31.1669 29.5042 31.3427 29.5042Z" fill="#232996" style="fill:#232996;fill:color(display-p3 0.1373 0.1608 0.5882);fill-opacity:1;"/>
<path id="Vector_97" d="M33.078 29.1858C33.078 29.3616 32.9355 29.5042 32.7597 29.5042C32.584 29.5042 32.4414 29.3616 32.4414 29.1858C32.4414 29.01 32.584 28.8674 32.7597 28.8674C32.9355 28.8674 33.078 29.01 33.078 29.1858Z" fill="#232996" style="fill:#232996;fill:color(display-p3 0.1373 0.1608 0.5882);fill-opacity:1;"/>
</g>
</g>
<g id="Group_43">
<g id="Group_44">
<path id="Vector_98" d="M7.10147 0.480125C7.10147 0.655917 6.95892 0.798503 6.78317 0.798503C6.60741 0.798503 6.46484 0.655917 6.46484 0.480125C6.46484 0.304334 6.60741 0.161743 6.78317 0.161743C6.95892 0.161743 7.10147 0.304334 7.10147 0.480125Z" fill="#232996" style="fill:#232996;fill:color(display-p3 0.1373 0.1608 0.5882);fill-opacity:1;"/>
<path id="Vector_99" d="M8.51749 0.480248C8.51749 0.656039 8.37494 0.798625 8.19918 0.798625C8.02343 0.798625 7.88086 0.656039 7.88086 0.480248C7.88086 0.304456 8.02343 0.161865 8.19918 0.161865C8.37494 0.161865 8.51749 0.304456 8.51749 0.480248Z" fill="#232996" style="fill:#232996;fill:color(display-p3 0.1373 0.1608 0.5882);fill-opacity:1;"/>
<path id="Vector_100" d="M9.96573 0.480248C9.96573 0.656039 9.82318 0.798625 9.64743 0.798625C9.47167 0.798625 9.3291 0.656039 9.3291 0.480248C9.3291 0.304456 9.47167 0.161865 9.64743 0.161865C9.82318 0.161865 9.96573 0.304456 9.96573 0.480248Z" fill="#232996" style="fill:#232996;fill:color(display-p3 0.1373 0.1608 0.5882);fill-opacity:1;"/>
<path id="Vector_101" d="M11.3827 0.480248C11.3827 0.656039 11.2402 0.798625 11.0644 0.798625C10.8887 0.798625 10.7461 0.656039 10.7461 0.480248C10.7461 0.304456 10.8887 0.161865 11.0644 0.161865C11.2408 0.161865 11.3827 0.304456 11.3827 0.480248Z" fill="#232996" style="fill:#232996;fill:color(display-p3 0.1373 0.1608 0.5882);fill-opacity:1;"/>
</g>
<g id="Group_45">
<path id="Vector_102" d="M7.10147 1.87844C7.10147 2.05423 6.95892 2.19681 6.78317 2.19681C6.60741 2.19681 6.46484 2.05423 6.46484 1.87844C6.46484 1.70264 6.60741 1.56006 6.78317 1.56006C6.95892 1.56006 7.10147 1.70264 7.10147 1.87844Z" fill="#232996" style="fill:#232996;fill:color(display-p3 0.1373 0.1608 0.5882);fill-opacity:1;"/>
<path id="Vector_103" d="M8.19918 2.19681C8.37498 2.19681 8.51749 2.05427 8.51749 1.87844C8.51749 1.7026 8.37498 1.56006 8.19918 1.56006C8.02338 1.56006 7.88086 1.7026 7.88086 1.87844C7.88086 2.05427 8.02338 2.19681 8.19918 2.19681Z" fill="#232996" style="fill:#232996;fill:color(display-p3 0.1373 0.1608 0.5882);fill-opacity:1;"/>
<path id="Vector_104" d="M9.64743 2.19681C9.82323 2.19681 9.96573 2.05427 9.96573 1.87844C9.96573 1.7026 9.82323 1.56006 9.64743 1.56006C9.47162 1.56006 9.3291 1.7026 9.3291 1.87844C9.3291 2.05427 9.47162 2.19681 9.64743 2.19681Z" fill="#232996" style="fill:#232996;fill:color(display-p3 0.1373 0.1608 0.5882);fill-opacity:1;"/>
<path id="Vector_105" d="M11.0644 2.19681C11.2402 2.19681 11.3827 2.05427 11.3827 1.87844C11.3827 1.7026 11.2402 1.56006 11.0644 1.56006C10.8886 1.56006 10.7461 1.7026 10.7461 1.87844C10.7461 2.05427 10.8886 2.19681 11.0644 2.19681Z" fill="#232996" style="fill:#232996;fill:color(display-p3 0.1373 0.1608 0.5882);fill-opacity:1;"/>
</g>
<g id="Group_46">
<path id="Vector_106" d="M7.10147 3.28347C7.10147 3.45926 6.95892 3.60185 6.78317 3.60185C6.60741 3.60185 6.46484 3.45926 6.46484 3.28347C6.46484 3.10767 6.60741 2.96509 6.78317 2.96509C6.95892 2.96509 7.10147 3.10767 7.10147 3.28347Z" fill="#232996" style="fill:#232996;fill:color(display-p3 0.1373 0.1608 0.5882);fill-opacity:1;"/>
<path id="Vector_107" d="M8.19918 3.60197C8.37498 3.60197 8.51749 3.45942 8.51749 3.28359C8.51749 3.10775 8.37498 2.96521 8.19918 2.96521C8.02338 2.96521 7.88086 3.10775 7.88086 3.28359C7.88086 3.45942 8.02338 3.60197 8.19918 3.60197Z" fill="#232996" style="fill:#232996;fill:color(display-p3 0.1373 0.1608 0.5882);fill-opacity:1;"/>
<path id="Vector_108" d="M9.64743 3.60197C9.82323 3.60197 9.96573 3.45942 9.96573 3.28359C9.96573 3.10775 9.82323 2.96521 9.64743 2.96521C9.47162 2.96521 9.3291 3.10775 9.3291 3.28359C9.3291 3.45942 9.47162 3.60197 9.64743 3.60197Z" fill="#232996" style="fill:#232996;fill:color(display-p3 0.1373 0.1608 0.5882);fill-opacity:1;"/>
<path id="Vector_109" d="M11.0644 3.60197C11.2402 3.60197 11.3827 3.45942 11.3827 3.28359C11.3827 3.10775 11.2402 2.96521 11.0644 2.96521C10.8886 2.96521 10.7461 3.10775 10.7461 3.28359C10.7461 3.45942 10.8886 3.60197 11.0644 3.60197Z" fill="#232996" style="fill:#232996;fill:color(display-p3 0.1373 0.1608 0.5882);fill-opacity:1;"/>
</g>
</g>
<g id="Group_47">
<g id="Group_48">
<path id="Vector_110" d="M7.50967 31.6819C7.50967 31.8577 7.36711 32.0003 7.19135 32.0003C7.01559 32.0003 6.87305 31.8577 6.87305 31.6819C6.87305 31.5061 7.01559 31.3635 7.19135 31.3635C7.36711 31.3635 7.50967 31.5061 7.50967 31.6819Z" fill="white" style="fill:white;fill-opacity:1;"/>
<path id="Vector_111" d="M8.60934 32C8.78514 32 8.92766 31.8575 8.92766 31.6817C8.92766 31.5058 8.78514 31.3633 8.60934 31.3633C8.43354 31.3633 8.29102 31.5058 8.29102 31.6817C8.29102 31.8575 8.43354 32 8.60934 32Z" fill="white" style="fill:white;fill-opacity:1;"/>
<path id="Vector_112" d="M10.0566 32C10.2324 32 10.3749 31.8575 10.3749 31.6817C10.3749 31.5058 10.2324 31.3633 10.0566 31.3633C9.88078 31.3633 9.73828 31.5058 9.73828 31.6817C9.73828 31.8575 9.88078 32 10.0566 32Z" fill="white" style="fill:white;fill-opacity:1;"/>
<path id="Vector_113" d="M11.7909 31.6817C11.7909 31.8575 11.6484 32 11.4726 32C11.2968 32 11.1543 31.8575 11.1543 31.6817C11.1543 31.5059 11.2968 31.3633 11.4726 31.3633C11.6484 31.3633 11.7909 31.5059 11.7909 31.6817Z" fill="white" style="fill:white;fill-opacity:1;"/>
</g>
<g id="Group_49">
<path id="Vector_114" d="M7.50967 33.0792C7.50967 33.255 7.36711 33.3976 7.19135 33.3976C7.01559 33.3976 6.87305 33.255 6.87305 33.0792C6.87305 32.9034 7.01559 32.7609 7.19135 32.7609C7.36711 32.7609 7.50967 32.9034 7.50967 33.0792Z" fill="white" style="fill:white;fill-opacity:1;"/>
<path id="Vector_115" d="M8.60934 33.3976C8.78514 33.3976 8.92766 33.2551 8.92766 33.0792C8.92766 32.9034 8.78514 32.7609 8.60934 32.7609C8.43354 32.7609 8.29102 32.9034 8.29102 33.0792C8.29102 33.2551 8.43354 33.3976 8.60934 33.3976Z" fill="white" style="fill:white;fill-opacity:1;"/>
<path id="Vector_116" d="M10.0566 33.3976C10.2324 33.3976 10.3749 33.2551 10.3749 33.0792C10.3749 32.9034 10.2324 32.7609 10.0566 32.7609C9.88078 32.7609 9.73828 32.9034 9.73828 33.0792C9.73828 33.2551 9.88078 33.3976 10.0566 33.3976Z" fill="white" style="fill:white;fill-opacity:1;"/>
<path id="Vector_117" d="M11.7909 33.0792C11.7909 33.255 11.6484 33.3976 11.4726 33.3976C11.2968 33.3976 11.1543 33.255 11.1543 33.0792C11.1543 32.9034 11.2968 32.7609 11.4726 32.7609C11.6484 32.7609 11.7909 32.9034 11.7909 33.0792Z" fill="white" style="fill:white;fill-opacity:1;"/>
</g>
<g id="Group_50">
<path id="Vector_118" d="M7.50967 34.4849C7.50967 34.6607 7.36711 34.8033 7.19135 34.8033C7.01559 34.8033 6.87305 34.6607 6.87305 34.4849C6.87305 34.3091 7.01559 34.1665 7.19135 34.1665C7.36711 34.1672 7.50967 34.3091 7.50967 34.4849Z" fill="white" style="fill:white;fill-opacity:1;"/>
<path id="Vector_119" d="M8.60934 34.8031C8.78514 34.8031 8.92766 34.6606 8.92766 34.4848C8.92766 34.3089 8.78514 34.1664 8.60934 34.1664C8.43354 34.1664 8.29102 34.3089 8.29102 34.4848C8.29102 34.6606 8.43354 34.8031 8.60934 34.8031Z" fill="white" style="fill:white;fill-opacity:1;"/>
<path id="Vector_120" d="M10.0566 34.8031C10.2324 34.8031 10.3749 34.6606 10.3749 34.4848C10.3749 34.3089 10.2324 34.1664 10.0566 34.1664C9.88078 34.1664 9.73828 34.3089 9.73828 34.4848C9.73828 34.6606 9.88078 34.8031 10.0566 34.8031Z" fill="white" style="fill:white;fill-opacity:1;"/>
<path id="Vector_121" d="M11.7909 34.4848C11.7909 34.6606 11.6484 34.8031 11.4726 34.8031C11.2968 34.8031 11.1543 34.6606 11.1543 34.4848C11.1543 34.309 11.2968 34.1664 11.4726 34.1664C11.6484 34.167 11.7909 34.309 11.7909 34.4848Z" fill="white" style="fill:white;fill-opacity:1;"/>
</g>
</g>
<path id="Vector_122" d="M35.292 3.23454C35.292 1.72533 33.2024 0.501953 30.624 0.501953C28.0456 0.501953 25.9561 1.72533 25.9561 3.23454C25.9561 4.74374 28.0456 5.96712 30.624 5.96712C31.4664 5.96712 32.2547 5.83495 32.9368 5.60577C33.056 5.73599 33.1608 5.87923 33.2408 6.03809C33.5279 6.60583 33.4498 7.16121 33.4068 7.37932C33.5559 7.24975 34.0754 6.76925 34.2166 5.94564C34.2785 5.58364 34.2479 5.2633 34.1873 4.99766C34.8754 4.52172 35.292 3.9071 35.292 3.23454Z" fill="white" style="fill:white;fill-opacity:1;"/>
<path id="Vector_123" d="M32.3378 5.36456C32.3378 4.50708 31.1511 3.81238 29.6865 3.81238C28.2225 3.81238 27.0352 4.50708 27.0352 5.36456C27.0352 6.22203 28.2218 6.91673 29.6865 6.91673C30.1649 6.91673 30.6128 6.84121 31.0001 6.71164C31.0678 6.78586 31.127 6.86725 31.1726 6.9571C31.336 7.27938 31.2917 7.59516 31.267 7.71886C31.3516 7.64529 31.6465 7.37249 31.7272 6.90436C31.7623 6.69862 31.7448 6.51696 31.7103 6.36591C32.1008 6.09572 32.3378 5.74609 32.3378 5.36456Z" fill="white" style="fill:white;fill-opacity:1;"/>
<g id="Group_51">
<path id="Vector_124" d="M32.3308 5.64616C32.2208 5.63314 32.1577 5.55175 32.1694 5.4632C32.174 5.42935 32.1759 5.39614 32.1759 5.36359C32.1759 4.61094 31.0368 3.97418 29.688 3.97418C28.5202 3.97418 27.4962 4.44036 27.2521 5.08297C27.2209 5.16631 27.1278 5.21058 27.0425 5.17738C26.9585 5.14548 26.9162 5.05172 26.9481 4.96773C27.2424 4.19164 28.3698 3.64929 29.688 3.64929C31.2659 3.64929 32.5014 4.40259 32.5014 5.36424C32.5014 5.41112 32.4981 5.45799 32.4923 5.50487C32.4825 5.58691 32.4116 5.64616 32.3308 5.64616Z" fill="#5F99FF" style="fill:#5F99FF;fill:color(display-p3 0.3725 0.6000 1.0000);fill-opacity:1;"/>
</g>
</g>
</svg>
