<svg width="44" height="48" viewBox="0 0 44 48" fill="none" xmlns="http://www.w3.org/2000/svg">
<g id="_x33_">
<g id="Group">
<path id="Vector" d="M2.15684 22.0902C2.96482 24.5184 4.84958 30.1791 6.04441 29.9659C7.08464 29.78 7.80046 25.1049 6.13502 21.2196C4.75743 18.0054 1.82254 15.501 1.00467 15.9839C0.269039 16.418 1.22398 19.2865 2.15684 22.0902Z" fill="#86DDFC" style="fill:#86DDFC;fill:color(display-p3 0.5255 0.8667 0.9882);fill-opacity:1;"/>
<g id="Group_2">
<path id="Vector_2" d="M7.87778 44.1313C7.82828 44.1313 7.78639 44.0932 7.78335 44.0429C7.56555 40.9071 7.24876 37.7607 6.83983 34.6896C6.17883 29.7227 5.81406 26.9876 4.68473 23.7139C3.75491 21.0191 2.49003 18.4363 0.926637 16.0363C0.897699 15.9921 0.910641 15.9335 0.954048 15.9045C0.998216 15.8748 1.05686 15.8885 1.08579 15.9319C2.65833 18.3449 3.92931 20.9422 4.86445 23.6515C6.00064 26.9434 6.36616 29.6862 7.02869 34.6645C7.43838 37.7393 7.75594 40.8904 7.97297 44.03C7.97678 44.0825 7.93718 44.1282 7.88464 44.1313C7.88235 44.1313 7.88007 44.1313 7.87778 44.1313Z" fill="#232996" style="fill:#232996;fill:color(display-p3 0.1373 0.1608 0.5882);fill-opacity:1;"/>
</g>
</g>
<g id="Group_3">
<path id="Vector_3" d="M1.49216 28.7124C2.18895 30.2365 3.81403 33.7889 4.26561 33.6488C4.65855 33.5269 4.23591 30.5823 2.96951 28.1457C1.92242 26.1303 0.352928 24.5689 0.0955346 24.8766C-0.136729 25.1523 0.687234 26.9529 1.49216 28.7124Z" fill="#86DDFC" style="fill:#86DDFC;fill:color(display-p3 0.5255 0.8667 0.9882);fill-opacity:1;"/>
<g id="Group_4">
<path id="Vector_4" d="M7.1504 42.5877C7.10927 42.5877 7.07044 42.5603 7.05902 42.5192C6.4894 40.535 5.88171 38.5562 5.25193 36.6383C4.15078 33.2824 3.62533 31.7164 2.70694 29.7422C1.91953 28.0505 1.01409 26.4312 0.0157366 24.9292C-0.0132011 24.885 -0.00102565 24.8263 0.0423809 24.7974C0.086549 24.7684 0.145189 24.7791 0.174127 24.824C1.17781 26.3337 2.08858 27.9614 2.8798 29.6622C3.80276 31.6456 4.32974 33.2169 5.43318 36.5797C6.06372 38.4998 6.67216 40.4809 7.24254 42.4666C7.25701 42.5169 7.22807 42.5702 7.17705 42.5847C7.16791 42.5862 7.15877 42.5877 7.1504 42.5877Z" fill="#232996" style="fill:#232996;fill:color(display-p3 0.1373 0.1608 0.5882);fill-opacity:1;"/>
</g>
</g>
<g id="Group_5">
<path id="Vector_5" d="M7.82565 22.5588C8.05335 24.7631 8.58413 29.9021 9.40505 29.9257C10.1194 29.9463 11.19 26.0937 10.5785 22.5025C10.0729 19.532 8.44249 16.8966 7.83784 17.167C7.29336 17.4099 7.56217 20.0141 7.82565 22.5588Z" fill="#86DDFC" style="fill:#86DDFC;fill:color(display-p3 0.5255 0.8667 0.9882);fill-opacity:1;"/>
<g id="Group_6">
<path id="Vector_6" d="M8.8313 42.3037C8.76961 42.2983 8.73153 42.2519 8.73686 42.1993C8.99197 39.4939 9.18159 36.7625 9.30115 34.0814C9.50904 29.417 9.58672 27.234 9.26688 24.3739C8.99273 21.9236 8.48176 19.5091 7.74765 17.1952C7.73166 17.1449 7.75983 17.0916 7.80933 17.0756C7.85959 17.0604 7.91291 17.0878 7.9289 17.1381C8.66605 19.4634 9.18007 21.8901 9.45498 24.3526C9.79081 27.3483 9.6842 29.7422 9.49077 34.089C9.37121 36.7732 9.18083 39.5076 8.92572 42.2161C8.92115 42.2671 8.88003 42.3037 8.8313 42.3037Z" fill="#232996" style="fill:#232996;fill:color(display-p3 0.1373 0.1608 0.5882);fill-opacity:1;"/>
</g>
</g>
<g id="Group_7">
<path id="Vector_7" d="M26.3471 27.4984C25.5628 27.599 24.7845 27.7026 23.9933 27.8008C23.9788 27.7513 23.9727 27.6965 23.9499 27.6515C23.9278 27.554 23.9103 27.4657 23.8882 27.3682C23.876 27.3339 23.8661 27.2935 23.8585 27.2463C23.8151 27.1199 23.7877 26.9904 23.7534 26.8594C23.7267 26.7756 23.7047 26.6781 23.6803 26.5882C23.6658 26.5387 23.6514 26.4884 23.6437 26.4412C23.6323 26.4298 23.6293 26.4146 23.627 26.3986C23.5927 26.2447 23.5516 26.1114 23.512 25.9713C23.4945 25.9058 23.48 25.8334 23.4579 25.7588C23.4313 25.675 23.4115 25.5935 23.394 25.5051C23.3719 25.4305 23.3574 25.3581 23.3376 25.2766C23.2691 24.991 23.1815 24.7153 23.1244 24.4418C23.0954 24.3421 23.0711 24.2522 23.0437 24.1455C23.0018 23.9666 22.9531 23.786 22.8975 23.6025L22.9188 21.6808C22.918 21.6351 22.9218 21.5993 22.9416 21.5597C23.3437 20.9244 23.7549 20.2854 24.1585 19.6433C24.5027 19.9396 24.8165 20.3311 25.0503 20.811C25.1995 21.1286 25.2985 21.4386 25.3534 21.7196C25.3534 21.7196 25.5102 22.2056 25.7966 23.553C25.8666 23.9064 25.9496 24.3162 26.0357 24.8105C26.0608 24.9461 26.0928 25.0847 26.1111 25.218C26.1179 25.2431 26.1255 25.2675 26.1263 25.2903L26.2261 25.8867L26.2641 26.1023C26.2733 26.1206 26.2733 26.1206 26.274 26.1434C26.2816 26.1914 26.2893 26.2386 26.2969 26.2866C26.3258 26.3864 26.3372 26.4953 26.3532 26.6126C26.3806 26.8624 26.3966 27.1008 26.389 27.3164C26.3768 27.3796 26.3593 27.4344 26.3471 27.4984Z" fill="#FFB7A6" style="fill:#FFB7A6;fill:color(display-p3 1.0000 0.7176 0.6510);fill-opacity:1;"/>
</g>
<path id="Vector_8" d="M26.2256 25.8865C25.2775 25.7631 24.3394 25.6352 23.3936 25.5042C24.2967 25.4105 25.206 25.3183 26.1114 25.2178C26.1183 25.2429 26.1259 25.2673 26.1266 25.2901L26.2256 25.8865Z" fill="#F9917D" style="fill:#F9917D;fill:color(display-p3 0.9765 0.5686 0.4902);fill-opacity:1;"/>
<path id="Vector_9" d="M26.6883 25.2093C25.2407 25.3396 23.7938 25.4698 22.3462 25.5993C22.3446 24.309 22.3431 23.0195 22.3408 21.73C22.8708 20.8305 23.4009 19.9302 23.9309 19.0306C24.3375 19.333 24.7769 19.7283 25.1843 20.2425C26.6861 22.1367 26.7234 24.3372 26.6883 25.2093Z" fill="#4390FF" style="fill:#4390FF;fill:color(display-p3 0.2627 0.5647 1.0000);fill-opacity:1;"/>
<g id="Group_8">
<path id="Vector_10" d="M30.2379 21.2165C29.7749 20.617 29.3119 20.0176 28.8489 19.4182C28.8162 18.8804 28.8451 18.1751 29.0903 17.4493C29.0903 17.4493 29.318 16.795 29.8336 16.3921C29.8998 16.3403 29.9645 16.3098 30.0148 16.3296C30.1473 16.3829 30.2037 16.7653 30.0849 17.0661C30.0293 17.2078 29.9524 17.2863 29.9257 17.479C29.9112 17.5803 29.9173 17.6656 29.9249 17.7219C30.6248 16.191 30.9492 15.916 31.1152 15.9564C31.1898 15.9747 31.2363 16.0569 31.2439 16.0706C31.368 16.2908 31.1068 16.587 30.8517 17.1651C30.7535 17.3883 30.6895 17.5765 30.6522 17.6953C31.4099 16.1514 31.7396 15.8109 31.8897 15.8589C31.9613 15.8817 31.997 15.9929 32.0161 16.0516C32.1067 16.3304 31.9529 16.6023 31.8105 16.8635C31.6764 17.1095 31.4853 17.4691 31.2454 17.9481C32.0968 16.5741 32.3984 16.3159 32.5088 16.3662C32.559 16.389 32.5697 16.4758 32.5811 16.5718C32.6223 16.9039 32.4776 17.1735 32.3649 17.3731C32.195 17.6762 31.9887 18.0205 31.7389 18.393C32.4334 17.8834 32.5979 17.9047 32.6481 17.9497C32.7982 18.0845 32.358 18.7906 32.211 19.0274C31.8463 19.617 31.2439 20.4114 30.2379 21.2165Z" fill="#FFB7A6" style="fill:#FFB7A6;fill:color(display-p3 1.0000 0.7176 0.6510);fill-opacity:1;"/>
<g id="Group_9">
<path id="Vector_11" d="M29.9513 19.2543C29.9277 19.2543 29.904 19.2459 29.8858 19.2284C29.8477 19.1918 29.8462 19.1316 29.882 19.0935C29.9277 19.0456 30.1538 18.7866 30.1203 18.4179C30.0952 18.1506 29.9497 17.9701 29.866 17.8863C29.8287 17.849 29.8287 17.7888 29.8652 17.7515C29.9018 17.7142 29.9627 17.7142 30 17.7507C30.1028 17.8528 30.2795 18.0729 30.3099 18.4004C30.3511 18.8399 30.099 19.143 30.0206 19.2253C30.0015 19.2444 29.9764 19.2543 29.9513 19.2543Z" fill="#F74F4F" style="fill:#F74F4F;fill:color(display-p3 0.9686 0.3098 0.3098);fill-opacity:1;"/>
</g>
<g id="Group_10">
<path id="Vector_12" d="M30.4774 18.0854C30.4606 18.0854 30.4439 18.0809 30.4287 18.0717C30.383 18.0443 30.3685 17.9864 30.3952 17.9415L30.5695 17.649C30.5962 17.6041 30.6541 17.5896 30.6998 17.6163C30.7454 17.6437 30.7599 17.7016 30.7333 17.7465L30.5589 18.039C30.5414 18.0687 30.5094 18.0854 30.4774 18.0854Z" fill="#F74F4F" style="fill:#F74F4F;fill:color(display-p3 0.9686 0.3098 0.3098);fill-opacity:1;"/>
</g>
<g id="Group_11">
<path id="Vector_13" d="M31.0774 18.3078C31.0599 18.3078 31.0424 18.3033 31.0272 18.2934C30.9823 18.2652 30.9693 18.2065 30.9967 18.1624L31.1924 17.8501C31.2206 17.8059 31.2808 17.7937 31.3234 17.8196C31.3684 17.8478 31.3813 17.9064 31.3539 17.9506L31.1582 18.2629C31.1399 18.2918 31.1087 18.3078 31.0774 18.3078Z" fill="#F74F4F" style="fill:#F74F4F;fill:color(display-p3 0.9686 0.3098 0.3098);fill-opacity:1;"/>
</g>
<g id="Group_12">
<path id="Vector_14" d="M31.5653 18.7279C31.5432 18.7279 31.5204 18.7203 31.5021 18.7043C31.4625 18.67 31.4587 18.6091 31.4937 18.5702L31.7024 18.3326C31.7359 18.293 31.7983 18.2884 31.8364 18.3242C31.876 18.3585 31.8798 18.4194 31.8448 18.4583L31.6361 18.6959C31.6178 18.7172 31.5912 18.7279 31.5653 18.7279Z" fill="#F74F4F" style="fill:#F74F4F;fill:color(display-p3 0.9686 0.3098 0.3098);fill-opacity:1;"/>
</g>
</g>
<path id="Vector_15" d="M26.6949 27.9325C26.2783 28.4269 25.6204 28.6203 25.0652 28.4238C24.3746 28.1801 23.9481 27.3727 24.1636 26.5676C24.7949 25.154 25.6417 23.5415 26.7832 21.8544C27.5615 20.7035 28.3535 19.7019 29.1074 18.8397C29.7097 19.1665 30.3129 19.4932 30.9152 19.82C30.4134 21.0303 29.8293 22.3114 29.1485 23.6428C28.3405 25.221 27.509 26.6514 26.6949 27.9325Z" fill="#FFB7A6" style="fill:#FFB7A6;fill:color(display-p3 1.0000 0.7176 0.6510);fill-opacity:1;"/>
<g id="Group_13">
<path id="Vector_16" d="M12.4042 18.1651C13.1056 17.8788 13.8069 17.5931 14.5083 17.3067C14.806 16.8581 15.135 16.2328 15.2866 15.4825C15.2866 15.4825 15.4175 14.8024 15.1738 14.1953C15.1426 14.1169 15.1015 14.0582 15.0482 14.0506C14.9066 14.03 14.6667 14.3324 14.6179 14.6523C14.5951 14.8031 14.6217 14.909 14.5486 15.0895C14.5106 15.184 14.4626 15.2556 14.4276 15.3005C14.5905 13.6248 14.4481 13.2242 14.2836 13.1762C14.2098 13.1549 14.1283 13.2029 14.1146 13.2105C13.8968 13.3384 13.9745 13.7254 13.9044 14.3537C13.8777 14.5967 13.8381 14.7909 13.8107 14.912C13.9295 13.196 13.8153 12.736 13.6615 12.7024C13.5884 12.6864 13.5008 12.7649 13.4551 12.806C13.2373 13.0018 13.2335 13.3141 13.2251 13.6111C13.2175 13.8906 13.203 14.2981 13.1695 14.8328C13.1223 13.2173 12.9906 12.8426 12.871 12.8304C12.8162 12.8251 12.7636 12.8951 12.705 12.9721C12.5032 13.2387 12.4933 13.5441 12.4902 13.7733C12.4849 14.1207 12.491 14.5221 12.5199 14.9699C12.175 14.1808 12.0219 14.1169 11.9557 14.1306C11.7584 14.1717 11.7843 15.0034 11.7935 15.2822C11.8148 15.9746 11.9382 16.9632 12.4042 18.1651Z" fill="#FFB7A6" style="fill:#FFB7A6;fill:color(display-p3 1.0000 0.7176 0.6510);fill-opacity:1;"/>
<g id="Group_14">
<path id="Vector_17" d="M13.682 16.6224C13.6386 16.6224 13.5998 16.5927 13.5891 16.5486C13.5632 16.4374 13.4993 16.0466 13.7521 15.6909C13.9509 15.4114 14.2341 15.3139 14.3461 15.285C14.3956 15.2728 14.4489 15.3025 14.4618 15.3535C14.4748 15.4045 14.4443 15.4563 14.3933 15.4693C14.3012 15.4929 14.0689 15.5729 13.9067 15.8014C13.6995 16.0931 13.7521 16.4145 13.7734 16.5059C13.7856 16.5569 13.7536 16.6087 13.7026 16.6202C13.6957 16.6217 13.6889 16.6224 13.682 16.6224Z" fill="#F74F4F" style="fill:#F74F4F;fill:color(display-p3 0.9686 0.3098 0.3098);fill-opacity:1;"/>
</g>
<g id="Group_15">
<path id="Vector_18" d="M13.8136 15.3475C13.7619 15.3475 13.7192 15.3056 13.7184 15.2531L13.7139 14.9126C13.7131 14.8601 13.755 14.8174 13.8083 14.8167C13.8616 14.8167 13.9035 14.8585 13.9043 14.9111L13.9088 15.2516C13.9096 15.3041 13.8677 15.3468 13.8144 15.3475H13.8136Z" fill="#F74F4F" style="fill:#F74F4F;fill:color(display-p3 0.9686 0.3098 0.3098);fill-opacity:1;"/>
</g>
<g id="Group_16">
<path id="Vector_19" d="M13.1843 15.241C13.1333 15.241 13.0914 15.2006 13.0892 15.1488L13.0762 14.7801C13.0747 14.7276 13.1158 14.6834 13.1683 14.6819C13.2178 14.6865 13.2651 14.7215 13.2666 14.774L13.2795 15.1427C13.2818 15.1953 13.2399 15.2394 13.1874 15.241C13.1874 15.241 13.1859 15.241 13.1843 15.241Z" fill="#F74F4F" style="fill:#F74F4F;fill:color(display-p3 0.9686 0.3098 0.3098);fill-opacity:1;"/>
</g>
<g id="Group_17">
<path id="Vector_20" d="M12.5519 15.3595C12.5069 15.3595 12.4673 15.3283 12.4582 15.2826L12.3965 14.9726C12.3858 14.9208 12.4193 14.8713 12.4711 14.8606C12.526 14.8507 12.5732 14.8835 12.5831 14.9353L12.6448 15.2453C12.6554 15.2971 12.6219 15.3466 12.5701 15.3573C12.564 15.3588 12.5579 15.3595 12.5519 15.3595Z" fill="#F74F4F" style="fill:#F74F4F;fill:color(display-p3 0.9686 0.3098 0.3098);fill-opacity:1;"/>
</g>
</g>
<g id="Group_18">
<g id="Group_19">
<path id="Vector_21" d="M43.2549 32.0571C43.2549 32.2628 43.4217 32.4296 43.6273 32.4296C43.8329 32.4296 43.9997 32.2628 43.9997 32.0571C43.9997 31.8515 43.8329 31.6847 43.6273 31.6847C43.4217 31.6847 43.2549 31.8515 43.2549 32.0571Z" fill="#232996" style="fill:#232996;fill:color(display-p3 0.1373 0.1608 0.5882);fill-opacity:1;"/>
<path id="Vector_22" d="M41.971 32.4296C42.1767 32.4296 42.3434 32.2629 42.3434 32.0571C42.3434 31.8514 42.1767 31.6847 41.971 31.6847C41.7654 31.6847 41.5986 31.8514 41.5986 32.0571C41.5986 32.2629 41.7654 32.4296 41.971 32.4296Z" fill="#232996" style="fill:#232996;fill:color(display-p3 0.1373 0.1608 0.5882);fill-opacity:1;"/>
<path id="Vector_23" d="M40.2777 32.4296C40.4833 32.4296 40.65 32.2629 40.65 32.0571C40.65 31.8514 40.4833 31.6847 40.2777 31.6847C40.072 31.6847 39.9053 31.8514 39.9053 32.0571C39.9053 32.2629 40.072 32.4296 40.2777 32.4296Z" fill="#232996" style="fill:#232996;fill:color(display-p3 0.1373 0.1608 0.5882);fill-opacity:1;"/>
<path id="Vector_24" d="M38.2471 32.0571C38.2471 32.2628 38.4138 32.4296 38.6195 32.4296C38.8251 32.4296 38.9918 32.2628 38.9918 32.0571C38.9918 31.8515 38.8251 31.6847 38.6195 31.6847C38.4131 31.6847 38.2471 31.8515 38.2471 32.0571Z" fill="#232996" style="fill:#232996;fill:color(display-p3 0.1373 0.1608 0.5882);fill-opacity:1;"/>
</g>
<g id="Group_20">
<path id="Vector_25" d="M43.2549 33.6914C43.2549 33.8971 43.4217 34.0639 43.6273 34.0639C43.8329 34.0639 43.9997 33.8971 43.9997 33.6914C43.9997 33.4858 43.8329 33.319 43.6273 33.319C43.4217 33.319 43.2549 33.4858 43.2549 33.6914Z" fill="#232996" style="fill:#232996;fill:color(display-p3 0.1373 0.1608 0.5882);fill-opacity:1;"/>
<path id="Vector_26" d="M41.971 34.0639C42.1767 34.0639 42.3434 33.8971 42.3434 33.6914C42.3434 33.4857 42.1767 33.319 41.971 33.319C41.7654 33.319 41.5986 33.4857 41.5986 33.6914C41.5986 33.8971 41.7654 34.0639 41.971 34.0639Z" fill="#232996" style="fill:#232996;fill:color(display-p3 0.1373 0.1608 0.5882);fill-opacity:1;"/>
<path id="Vector_27" d="M40.2777 34.0639C40.4833 34.0639 40.65 33.8971 40.65 33.6914C40.65 33.4857 40.4833 33.319 40.2777 33.319C40.072 33.319 39.9053 33.4857 39.9053 33.6914C39.9053 33.8971 40.072 34.0639 40.2777 34.0639Z" fill="#232996" style="fill:#232996;fill:color(display-p3 0.1373 0.1608 0.5882);fill-opacity:1;"/>
<path id="Vector_28" d="M38.2471 33.6916C38.2471 33.8972 38.4138 34.064 38.6195 34.064C38.8251 34.064 38.9918 33.8972 38.9918 33.6916C38.9918 33.4859 38.8251 33.3191 38.6195 33.3191C38.4131 33.3191 38.2471 33.4859 38.2471 33.6916Z" fill="#232996" style="fill:#232996;fill:color(display-p3 0.1373 0.1608 0.5882);fill-opacity:1;"/>
</g>
<g id="Group_21">
<path id="Vector_29" d="M43.2559 35.3371C43.2559 35.5427 43.4226 35.7095 43.6282 35.7095C43.8339 35.7095 44.0006 35.5427 44.0006 35.3371C44.0006 35.1314 43.8339 34.9646 43.6282 34.9646C43.4226 34.9646 43.2559 35.1314 43.2559 35.3371Z" fill="#232996" style="fill:#232996;fill:color(display-p3 0.1373 0.1608 0.5882);fill-opacity:1;"/>
<path id="Vector_30" d="M41.971 35.7095C42.1767 35.7095 42.3434 35.5428 42.3434 35.3371C42.3434 35.1314 42.1767 34.9646 41.971 34.9646C41.7654 34.9646 41.5986 35.1314 41.5986 35.3371C41.5986 35.5428 41.7654 35.7095 41.971 35.7095Z" fill="#232996" style="fill:#232996;fill:color(display-p3 0.1373 0.1608 0.5882);fill-opacity:1;"/>
<path id="Vector_31" d="M40.2777 35.7095C40.4833 35.7095 40.65 35.5428 40.65 35.3371C40.65 35.1314 40.4833 34.9646 40.2777 34.9646C40.072 34.9646 39.9053 35.1314 39.9053 35.3371C39.9053 35.5428 40.072 35.7095 40.2777 35.7095Z" fill="#232996" style="fill:#232996;fill:color(display-p3 0.1373 0.1608 0.5882);fill-opacity:1;"/>
<path id="Vector_32" d="M38.2471 35.3371C38.2471 35.5427 38.4138 35.7095 38.6195 35.7095C38.8251 35.7095 38.9918 35.5427 38.9918 35.3371C38.9918 35.1314 38.8251 34.9646 38.6195 34.9646C38.4131 34.9646 38.2471 35.1314 38.2471 35.3371Z" fill="#232996" style="fill:#232996;fill:color(display-p3 0.1373 0.1608 0.5882);fill-opacity:1;"/>
</g>
</g>
<path id="Vector_33" d="M12.9767 34.5182C14.4517 34.5182 15.9268 34.5182 17.4018 34.5182V25.5998C15.4927 25.5472 13.5836 25.4947 11.6745 25.4429C11.5008 26.2175 11.3744 27.3569 11.8092 28.5429C12.2532 29.7532 12.9508 30.1073 13.2912 31.2384C13.4998 31.93 13.5988 32.9933 12.9767 34.5182Z" fill="#FF77A1" style="fill:#FF77A1;fill:color(display-p3 1.0000 0.4667 0.6314);fill-opacity:1;"/>
<path id="Vector_34" d="M23.9521 33.467L23.959 33.6255L23.9735 33.7839C23.9803 33.7908 24.0093 34.1221 24.0093 34.1221C24.0161 34.1221 24.0382 34.3521 24.0382 34.3521L24.0885 34.8769L24.6345 40.4912L24.7205 41.3534L24.8858 43.0572L24.9216 43.381L24.9505 43.6902C24.9505 43.7115 25.0365 44.5387 25.0365 44.5387V44.6034C25.0655 44.6179 25.1013 44.6392 25.1371 44.6613C25.6115 44.9127 27.0203 45.6393 28.1413 45.883C28.7741 46.0125 29.2911 46.0125 29.5424 45.7178C29.6643 45.5738 29.7938 45.2867 29.6216 44.6392C29.6072 44.56 29.5782 44.4663 29.5501 44.3734C29.5287 44.3087 29.4998 44.2371 29.4785 44.1647C29.4572 43.9347 29.4282 43.7115 29.4069 43.4815C29.378 43.1365 29.3422 42.7846 29.3064 42.4395C29.2851 42.1592 29.2561 41.9003 29.2272 41.6344L29.1625 40.9657L29.1411 40.8004L29.1053 40.3762L29.084 40.153L29.0627 39.9588L28.998 39.29L28.9766 39.1034L28.9188 38.4568L28.8974 38.2701L28.8396 37.6372L28.8183 37.4361L28.7535 36.7674C28.7322 36.724 28.7246 36.6813 28.7391 36.6524L28.6675 35.8907L28.6598 35.8046C28.6598 35.8046 28.4009 34.2881 28.193 33.1807C28.1138 32.7496 28.0346 32.3756 27.992 32.189C27.4886 32.3474 26.9929 32.4982 26.4971 32.6635C25.7638 32.8935 25.0381 33.1235 24.3055 33.3536C24.1821 33.3947 24.0671 33.4236 23.9521 33.467Z" fill="#FFB7A6" style="fill:#FFB7A6;fill:color(display-p3 1.0000 0.7176 0.6510);fill-opacity:1;"/>
<g id="Group_22">
<g id="Group_23">
<g id="Group_24">
<path id="Vector_35" d="M23.9602 46.6205C23.9823 46.8177 24.117 46.9533 24.2336 47.0409C27.2324 46.9944 30.2435 46.9594 33.2484 46.9122C33.764 46.9068 34.2864 46.8962 34.8019 46.8908C34.8689 46.6555 34.9062 46.4506 34.9207 46.2701C34.9436 45.9578 34.891 45.7125 34.8324 45.5282C34.4082 44.2349 32.5722 43.3689 30.1734 43.426C29.9518 43.4306 29.7302 43.4473 29.5025 43.4641C29.4484 43.4656 29.4005 43.4725 29.3464 43.4732C29.0951 43.4908 28.8316 43.5083 28.5734 43.5258C28.4897 43.5334 28.412 43.5349 28.3282 43.5433C27.3459 43.6126 26.3513 43.6758 25.3568 43.7451C25.219 43.7543 25.0811 43.7634 24.9433 43.7718C24.9448 43.8495 24.9349 43.934 24.9243 44.0064C24.8915 44.4268 24.8329 44.7643 24.7605 45.0423C24.6996 45.2715 24.6318 45.4589 24.5564 45.6051C24.545 45.6295 24.5275 45.66 24.5047 45.6965C24.4818 45.7392 24.4643 45.7697 24.4407 45.8062C24.3881 45.8854 24.3295 45.9525 24.2709 46.002C24.2061 46.0751 24.0127 46.2655 23.9754 46.4765C23.964 46.5245 23.9533 46.5725 23.9602 46.6205Z" fill="#FFB7A6" style="fill:#FFB7A6;fill:color(display-p3 1.0000 0.7176 0.6510);fill-opacity:1;"/>
<path id="Vector_36" d="M23.9603 46.6218C23.9816 46.7581 24.0608 46.8732 24.0608 46.8732C24.1111 46.9379 24.1758 46.995 24.2329 47.0384C27.2302 46.995 30.2413 46.9592 33.2455 46.909H33.3605C33.8417 46.909 34.3162 46.8945 34.7975 46.8876C34.8622 46.6576 34.9056 46.4489 34.9193 46.2692C34.9406 45.9599 34.8904 45.7154 34.8256 45.5288C34.6459 44.9248 34.3733 44.5584 34.1791 44.3497C34.0283 44.1845 33.8631 44.0405 33.6757 43.911C32.7627 43.2499 31.4841 42.9978 30.7721 43.3291C30.6639 43.3725 29.9595 43.3436 29.6008 42.8691C29.4569 42.6825 29.3419 42.5309 29.2635 42.4166C29.0625 44.0915 28.6025 44.6308 28.1707 44.774C27.3224 45.0688 26.3377 43.8973 25.4041 44.3353C25.066 44.4937 24.865 44.8098 24.7576 45.0398C24.635 45.4138 24.5779 45.557 24.5566 45.6073C24.5421 45.6286 24.5276 45.6575 24.4987 45.6933C24.4774 45.7368 24.4629 45.7649 24.4408 45.8015C24.3829 45.8807 24.3258 45.9523 24.2687 46.0026C24.0463 46.1694 23.9245 46.4131 23.9603 46.6218Z" fill="#4390FF" style="fill:#4390FF;fill:color(display-p3 0.2627 0.5647 1.0000);fill-opacity:1;"/>
</g>
<path id="Vector_37" d="M33.3604 46.9099C33.8416 46.9099 34.3161 46.8955 34.7973 46.8886C34.8621 46.6586 34.9055 46.4499 34.9192 46.2701C34.9405 45.9609 34.8903 45.7164 34.8255 45.5298C34.6458 44.9258 34.3732 44.5594 34.179 44.3507C34.0282 44.1854 33.863 44.0415 33.6756 43.912C33.569 44.9113 33.4685 45.9106 33.3604 46.9099Z" fill="#232996" style="fill:#232996;fill:color(display-p3 0.1373 0.1608 0.5882);fill-opacity:1;"/>
<path id="Vector_38" d="M24.253 47.1666H34.7444C34.8434 47.1666 34.9241 47.0859 34.9241 46.9869C34.9241 46.8879 34.8434 46.8071 34.7444 46.8071H24.253C24.154 46.8071 24.0732 46.8879 24.0732 46.9869C24.0732 47.0859 24.154 47.1666 24.253 47.1666Z" fill="#232996" style="fill:#232996;fill:color(display-p3 0.1373 0.1608 0.5882);fill-opacity:1;"/>
</g>
<path id="Vector_39" d="M26.6381 46.4925C27.0288 46.4925 27.3456 46.1757 27.3456 45.7849C27.3456 45.3941 27.0288 45.0773 26.6381 45.0773C26.2474 45.0773 25.9307 45.3941 25.9307 45.7849C25.9307 46.1757 26.2474 46.4925 26.6381 46.4925Z" fill="#FF2996" style="fill:#FF2996;fill:color(display-p3 1.0000 0.1608 0.5882);fill-opacity:1;"/>
</g>
<path id="Vector_40" d="M23.6478 32.6314C23.644 32.818 23.6692 33.0054 23.7179 33.1928C23.7613 33.3687 23.8329 33.5393 23.9235 33.7046C23.9403 33.7343 23.957 33.7579 23.9799 33.7876C24.6005 34.8037 25.9705 35.1244 27.08 34.4991C27.9002 34.0436 28.3555 33.1951 28.3198 32.3603L28.2908 32.0678C28.2436 31.8104 28.1667 31.5925 28.054 31.3861C28.0037 31.2977 27.9466 31.2086 27.8842 31.1317C27.7197 30.9184 27.5186 30.7387 27.294 30.6001C27.2422 30.5696 27.1843 30.5391 27.1264 30.5148C26.4563 30.1796 25.6164 30.1804 24.8906 30.5909C24.6371 30.7318 24.4231 30.9078 24.2441 31.1142C23.8626 31.5445 23.6532 32.083 23.6478 32.6314Z" fill="#FFB7A6" style="fill:#FFB7A6;fill:color(display-p3 1.0000 0.7176 0.6510);fill-opacity:1;"/>
<path id="Vector_41" d="M24.6338 40.4899L24.7198 41.3521C26.1789 41.0283 27.638 40.6978 29.1039 40.3741C28.0187 40.3238 26.9336 40.2735 25.8553 40.2233C25.4463 40.3177 25.0366 40.4038 24.6338 40.4899Z" fill="#F9917D" style="fill:#F9917D;fill:color(display-p3 0.9765 0.5686 0.4902);fill-opacity:1;"/>
<g id="Group_25">
<path id="Vector_42" d="M13.4619 45.7145C13.4619 45.9247 15.2264 46.0953 17.4035 46.0953C19.5807 46.0953 21.3452 45.9247 21.3452 45.7145C21.3452 45.5042 19.5807 45.3336 17.4035 45.3336C15.2271 45.3336 13.4619 45.5042 13.4619 45.7145Z" fill="#FF77A1" style="fill:#FF77A1;fill:color(display-p3 1.0000 0.4667 0.6314);fill-opacity:1;"/>
<path id="Vector_43" d="M17.3383 45.6095H17.467C17.5705 45.6095 17.6558 45.5242 17.6558 45.4206V35.3155C17.6558 35.2119 17.5705 35.1266 17.467 35.1266H17.3383C17.2347 35.1266 17.1494 35.2119 17.1494 35.3155V45.4213C17.1494 45.5249 17.2339 45.6095 17.3383 45.6095Z" fill="#FF77A1" style="fill:#FF77A1;fill:color(display-p3 1.0000 0.4667 0.6314);fill-opacity:1;"/>
<path id="Vector_44" d="M13.3619 35.173H22.0859C22.3303 35.173 22.5299 34.9735 22.5299 34.729C22.5299 34.4845 22.3303 34.2849 22.0859 34.2849H13.3619C13.1175 34.2849 12.918 34.4845 12.918 34.729C12.918 34.9727 13.1175 35.173 13.3619 35.173Z" fill="#FF77A1" style="fill:#FF77A1;fill:color(display-p3 1.0000 0.4667 0.6314);fill-opacity:1;"/>
</g>
<path id="Vector_45" d="M15.3457 30.5112C16.0311 30.9491 17.382 31.6818 19.2348 31.8639C20.9421 32.0322 22.3052 31.6567 23.053 31.3886C22.9685 30.5599 22.884 29.7312 22.7987 28.9025C23.5686 26.0043 24.3385 23.107 25.1084 20.2088C24.7345 19.8287 22.8893 18.0335 20.077 18.0594C18.4725 18.0738 17.2602 18.6786 16.6494 19.0434C16.2154 22.8663 15.7805 26.6883 15.3457 30.5112Z" fill="#FFB7A6" style="fill:#FFB7A6;fill:color(display-p3 1.0000 0.7176 0.6510);fill-opacity:1;"/>
<path id="Vector_46" d="M14.2197 32.5985C14.3263 33.2779 14.6461 33.7905 14.9126 34.1173C15.7115 34.131 16.5042 34.1508 17.303 34.1638L17.3426 34.5499L21.0985 34.7297C21.2683 34.7647 21.4381 34.799 21.6072 34.834C21.6033 34.7152 21.6056 34.5842 21.6163 34.4425C21.6254 34.3252 21.6399 34.2163 21.6574 34.1165H24.0151L24.0349 34.3496L24.0882 34.8759L24.3745 34.8889L25.7795 34.9689L26.2859 34.9955H26.3659C26.3796 34.9887 26.3925 34.7556 26.3925 34.7556L26.4725 33.0967L26.4923 32.6572L26.592 30.7987L26.6058 30.5458C26.5989 30.539 26.206 30.5192 26.206 30.5192L25.8199 30.4994L25.1604 30.4659L23.2429 30.3661L22.1638 30.3128C22.1638 30.3196 20.5189 30.2396 20.5189 30.2396L20.3925 30.2328H20.3392L20.1458 30.2198L18.7872 30.1528L17.8148 30.1063C17.795 30.0995 17.6084 30.0934 17.6084 30.0934C17.5551 30.1132 17.4889 30.1399 17.3883 30.1597C17.3685 30.1597 17.348 30.1665 17.335 30.1665C17.1949 30.2061 17.0152 30.2267 16.8157 30.2C16.7022 30.2 16.6093 30.1863 16.5164 30.1597C15.8973 30.0134 15.5576 29.5869 15.464 29.4604C15.4305 29.4871 15.2645 29.6334 15.0642 29.8801C14.6324 30.4072 14.0262 31.3799 14.2197 32.5985Z" fill="#FFB7A6" style="fill:#FFB7A6;fill:color(display-p3 1.0000 0.7176 0.6510);fill-opacity:1;"/>
<path id="Vector_47" d="M17.0371 33.5733L17.0584 33.7317L17.0798 33.897C17.0798 33.9038 17.1513 34.4576 17.1513 34.4576L17.2016 34.846L17.9129 40.7832L18.0713 42.0986L18.2723 43.8093C18.2723 43.8307 18.3583 44.6213 18.3583 44.6213L18.3728 44.6792C18.8686 44.9381 22.1385 46.6131 22.9008 45.6998C23.0447 45.5269 23.2024 45.1248 22.7927 44.1468C22.7713 43.9236 22.7424 43.7012 22.7135 43.4712C22.6701 43.1193 22.6343 42.7666 22.5916 42.4147C22.5627 42.1489 22.5338 41.8831 22.498 41.6241L22.4188 40.9554L22.3974 40.7969C22.3906 40.7611 22.3114 40.1427 22.3114 40.1427L22.2901 39.9561L22.2109 39.2873L22.1895 39.0931L22.1103 38.4464L22.0959 38.2667L22.0167 37.6337L21.9877 37.4395L21.9162 36.7639C21.8872 36.7205 21.8804 36.6847 21.8948 36.6489L21.8088 35.8872L21.7943 35.808C21.7943 35.808 21.7296 35.4561 21.6291 34.9595C21.5933 34.7653 21.5499 34.5429 21.5072 34.3197C21.428 33.9457 21.3564 33.5504 21.2773 33.2054C21.1836 32.7598 21.1044 32.3934 21.0541 32.2061C20.8028 32.2921 20.5508 32.3782 20.2995 32.465C19.2143 32.8329 18.1291 33.2069 17.0371 33.5733Z" fill="#FFB7A6" style="fill:#FFB7A6;fill:color(display-p3 1.0000 0.7176 0.6510);fill-opacity:1;"/>
<path id="Vector_48" d="M16.7247 32.7484C16.7247 32.9351 16.7544 33.1217 16.807 33.3083C16.8542 33.4835 16.9296 33.6525 17.0233 33.8155C17.0408 33.8445 17.0583 33.8681 17.0819 33.897C17.7246 34.9002 19.1007 35.1904 20.1965 34.5422C21.0068 34.0692 21.4431 33.2108 21.3898 32.3767L21.3548 32.085C21.3022 31.8283 21.22 31.6128 21.1035 31.4087C21.0509 31.3211 20.9923 31.2335 20.9283 31.1581C20.7593 30.9486 20.5544 30.7734 20.3275 30.6394C20.2749 30.6104 20.2163 30.5807 20.1584 30.5579C19.4814 30.238 18.6415 30.2563 17.9249 30.682C17.6744 30.8283 17.4642 31.0088 17.2898 31.219C16.9167 31.6577 16.7187 32.2 16.7247 32.7484Z" fill="#FFB7A6" style="fill:#FFB7A6;fill:color(display-p3 1.0000 0.7176 0.6510);fill-opacity:1;"/>
<path id="Vector_49" d="M14.6845 34.2785C15.7475 34.2884 16.8106 34.2983 17.8737 34.3082C19.2216 33.3599 20.5687 32.4116 21.9166 31.4626C21.7651 31.2386 21.5153 30.9248 21.1307 30.6537C20.453 30.1769 19.7554 30.1114 19.3343 30.0695C18.192 29.9567 16.8297 29.793 15.1947 29.6049C14.919 29.8791 14.5131 30.3642 14.2816 31.0726C13.7668 32.6462 14.536 34.0241 14.6845 34.2785Z" fill="#232996" style="fill:#232996;fill:color(display-p3 0.1373 0.1608 0.5882);fill-opacity:1;"/>
<path id="Vector_50" d="M24.083 40.8083C25.8345 40.6583 27.5868 40.509 29.3383 40.3589C29.0839 38.1798 28.8288 36.0007 28.5745 33.8223C28.8981 32.2616 28.215 30.8289 27.1055 30.3689C26.2412 30.0101 25.3784 30.3498 25.1271 30.4603C24.5399 30.4298 23.9528 30.3993 23.3649 30.3681C23.1761 29.8799 22.988 29.3917 22.7999 28.9027C21.1314 28.94 19.4629 28.9773 17.7936 29.0146C17.09 28.8821 16.3871 28.7503 15.6835 28.6178C15.4733 29.0436 15.2639 29.4693 15.0537 29.8951C17.4456 31.3316 19.8376 32.7674 22.2295 34.2039C22.8623 34.2153 23.4944 34.226 24.1272 34.2374C24.1127 36.428 24.0975 38.6178 24.083 40.8083Z" fill="#232996" style="fill:#232996;fill:color(display-p3 0.1373 0.1608 0.5882);fill-opacity:1;"/>
<path id="Vector_51" d="M17.915 40.7845L18.0734 42.0999C19.518 41.6612 20.9482 41.2088 22.3928 40.7632C20.9048 40.77 19.4099 40.7769 17.915 40.7845Z" fill="#F9917D" style="fill:#F9917D;fill:color(display-p3 0.9765 0.5686 0.4902);fill-opacity:1;"/>
<path id="Vector_52" d="M17.6565 41.2126C19.3912 41.0481 21.126 40.8828 22.86 40.7183C22.5454 37.6335 22.2309 34.548 21.9164 31.4632C21.7991 31.3322 20.845 30.2986 19.4902 30.4205C18.1583 30.5401 16.9909 31.7252 16.8066 33.3087C17.0899 35.9426 17.3732 38.5772 17.6565 41.2126Z" fill="#232996" style="fill:#232996;fill:color(display-p3 0.1373 0.1608 0.5882);fill-opacity:1;"/>
<g id="Group_26">
<g id="Group_27">
<g id="Group_28">
<path id="Vector_53" d="M17.2893 46.6205C17.3113 46.8177 17.4461 46.9533 17.5626 47.0409C20.5615 46.9944 23.5725 46.9594 26.5775 46.9122C27.093 46.9068 27.6155 46.8962 28.131 46.8908C28.198 46.6555 28.2353 46.4506 28.2498 46.2701C28.2734 45.9578 28.2201 45.7125 28.1622 45.5282C27.7381 44.2349 25.902 43.3689 23.5032 43.426C23.2816 43.4306 23.06 43.4473 22.8323 43.4641C22.7783 43.4656 22.7303 43.4725 22.6762 43.4732C22.4249 43.4908 22.1614 43.5083 21.9033 43.5258C21.8195 43.5334 21.7411 43.5349 21.6573 43.5433C20.675 43.6126 19.6804 43.6758 18.6859 43.7451C18.5481 43.7543 18.4102 43.7634 18.2724 43.7718C18.2739 43.8495 18.264 43.934 18.2533 44.0064C18.2206 44.4268 18.162 44.7643 18.0896 45.0423C18.0287 45.2715 17.9609 45.4589 17.8855 45.6051C17.8741 45.6295 17.8566 45.66 17.8337 45.6965C17.8109 45.7392 17.7934 45.7697 17.7705 45.8062C17.718 45.8854 17.6594 45.9525 17.6007 46.002C17.536 46.0751 17.3426 46.2655 17.3052 46.4765C17.2931 46.5245 17.2824 46.5725 17.2893 46.6205Z" fill="#FFB7A6" style="fill:#FFB7A6;fill:color(display-p3 1.0000 0.7176 0.6510);fill-opacity:1;"/>
<path id="Vector_54" d="M17.2923 46.6218C17.3136 46.7581 17.3928 46.8732 17.3928 46.8732C17.4431 46.9379 17.5078 46.995 17.5657 47.0384C20.5623 46.995 23.5741 46.9592 26.5783 46.909H26.6933C27.1745 46.909 27.649 46.8945 28.131 46.8876C28.1957 46.6576 28.2391 46.4489 28.2529 46.2692C28.2742 45.9599 28.2239 45.7154 28.1592 45.5288C27.9795 44.9248 27.7061 44.5584 27.5127 44.3497C27.3619 44.1845 27.1966 44.0405 27.0093 43.911C26.0962 43.2499 24.8169 42.9978 24.1056 43.3291C23.9982 43.3725 23.2938 43.3436 22.9344 42.8691C22.7905 42.6825 22.6755 42.5309 22.5971 42.4166C22.396 44.0915 21.9361 44.6308 21.5043 44.774C20.6559 45.0688 19.6721 43.8973 18.7377 44.3353C18.3996 44.4937 18.1985 44.8098 18.0911 45.0398C17.9693 45.4138 17.9114 45.557 17.8901 45.6073C17.8756 45.6286 17.8612 45.6575 17.833 45.6933C17.8117 45.7368 17.7972 45.7649 17.7751 45.8015C17.718 45.8807 17.6601 45.9523 17.603 46.0026C17.3784 46.1694 17.2565 46.4131 17.2923 46.6218Z" fill="#4390FF" style="fill:#4390FF;fill:color(display-p3 0.2627 0.5647 1.0000);fill-opacity:1;"/>
</g>
<path id="Vector_55" d="M26.6914 46.9099C27.1727 46.9099 27.6471 46.8955 28.1292 46.8886C28.1939 46.6586 28.2373 46.4499 28.251 46.2701C28.2723 45.9609 28.222 45.7164 28.1573 45.5298C27.9776 44.9258 27.7042 44.5594 27.5108 44.3507C27.36 44.1854 27.1948 44.0415 27.0074 43.912C26.9001 44.9113 26.7995 45.9106 26.6914 46.9099Z" fill="#232996" style="fill:#232996;fill:color(display-p3 0.1373 0.1608 0.5882);fill-opacity:1;"/>
<path id="Vector_56" d="M17.584 47.1666H28.0747C28.1737 47.1666 28.2544 47.0859 28.2544 46.9869C28.2544 46.8879 28.1737 46.8071 28.0747 46.8071H17.584C17.485 46.8071 17.4043 46.8879 17.4043 46.9869C17.4043 47.0859 17.485 47.1666 17.584 47.1666Z" fill="#232996" style="fill:#232996;fill:color(display-p3 0.1373 0.1608 0.5882);fill-opacity:1;"/>
</g>
</g>
<g id="Group_29">
<path id="Vector_57" d="M22.197 34.3004C22.149 34.3004 22.1071 34.2639 22.1025 34.2151L21.8261 31.5013C21.6007 31.2248 21.2192 30.8554 20.6541 30.6231C19.6101 30.1943 18.6414 30.5111 18.2721 30.668C18.2241 30.6863 18.1685 30.6665 18.1472 30.6178C18.1267 30.5698 18.1495 30.5134 18.1975 30.4928C18.5874 30.3268 19.6162 29.9901 20.7257 30.4479C21.3433 30.7015 21.7553 31.109 21.9921 31.4053C22.0035 31.4198 22.0104 31.4373 22.0127 31.4548L22.2922 34.1968C22.2975 34.2494 22.2594 34.2959 22.2069 34.3012C22.2031 34.3004 22.1993 34.3004 22.197 34.3004Z" fill="white" style="fill:white;fill-opacity:1;"/>
</g>
<g id="Group_30">
<path id="Vector_58" d="M16.952 34.3672C16.9063 34.3672 16.8667 34.3352 16.8583 34.2887L16.6558 33.1432C16.6466 33.0914 16.6809 33.0419 16.7327 33.0327C16.7906 33.0221 16.834 33.0586 16.8431 33.1097L17.0457 34.2552C17.0548 34.307 17.0205 34.3565 16.9688 34.3657C16.9627 34.3664 16.9573 34.3672 16.952 34.3672Z" fill="white" style="fill:white;fill-opacity:1;"/>
</g>
<g id="Group_31">
<path id="Vector_59" d="M24.0043 34.3333C23.9815 34.3333 23.9586 34.3257 23.9411 34.309C23.9015 34.2739 23.8985 34.2137 23.9335 34.1749L24.3394 33.7194C24.3744 33.6806 24.4353 33.6768 24.4734 33.7118C24.513 33.7468 24.5161 33.807 24.481 33.8459L24.0751 34.3013C24.0561 34.3227 24.0302 34.3333 24.0043 34.3333Z" fill="white" style="fill:white;fill-opacity:1;"/>
</g>
<path id="Vector_60" d="M14.9072 29.9259C15.4746 29.8787 16.1675 29.8246 16.9603 29.7713C18.4963 29.6677 18.7993 29.6754 19.1314 29.7112C20.1229 29.8186 20.3178 30.0638 21.1555 30.2055C21.7685 30.3091 22.6877 30.3494 23.8931 29.9808C23.8391 28.7058 23.8985 27.5884 23.9982 26.6561C24.0774 25.9127 24.168 25.4229 24.5222 23.4662C24.7559 22.1737 24.9555 21.0662 25.11 20.2086C24.8778 19.897 23.552 18.1802 21.1083 17.8504C18.6859 17.5237 16.9633 18.8033 16.6511 19.044C16.0693 22.6718 15.4883 26.2989 14.9072 29.9259Z" fill="#4390FF" style="fill:#4390FF;fill:color(display-p3 0.2627 0.5647 1.0000);fill-opacity:1;"/>
<g id="Group_32">
<path id="Vector_61" d="M12.3926 25.7744C13.1115 26.105 13.8227 26.4355 14.5484 26.7661C14.5774 26.7227 14.5987 26.6724 14.6345 26.6366C14.6847 26.5505 14.7282 26.4713 14.7784 26.3853C14.7997 26.3563 14.8218 26.3205 14.8431 26.2771C14.9223 26.1689 14.9871 26.0547 15.0587 25.9389C15.1089 25.8673 15.1592 25.7805 15.2094 25.702C15.2384 25.6586 15.2673 25.616 15.2886 25.5726C15.3031 25.5657 15.31 25.5512 15.3176 25.5368C15.3968 25.4004 15.476 25.2854 15.5544 25.1628C15.5902 25.1056 15.626 25.0409 15.6694 24.9762C15.7197 24.9046 15.7631 24.8322 15.8057 24.753C15.8491 24.6883 15.8849 24.6235 15.9275 24.5519C16.0783 24.3006 16.2436 24.0629 16.3807 23.8184C16.4385 23.7324 16.4888 23.6531 16.5459 23.5595C16.6396 23.401 16.7401 23.2434 16.8475 23.0849L17.4011 21.2447C17.4156 21.2013 17.4224 21.1655 17.4156 21.1229C17.2214 20.397 17.0203 19.6635 16.8261 18.9308C16.4096 19.1105 15.9923 19.3908 15.626 19.7793C15.3884 20.0383 15.2018 20.3041 15.0655 20.5554C15.0655 20.5554 14.7708 20.9721 14.0953 22.1725C13.9232 22.4886 13.7214 22.8549 13.4915 23.3013C13.4267 23.4231 13.3551 23.5457 13.2973 23.6676C13.2828 23.6889 13.2683 23.711 13.2615 23.7324L12.9881 24.2716L12.8876 24.4658C12.8731 24.4803 12.8731 24.4803 12.8662 24.5016C12.8449 24.5451 12.8228 24.5877 12.8015 24.6311C12.7444 24.7172 12.701 24.8177 12.6507 24.9259C12.5502 25.1559 12.4642 25.3791 12.4063 25.587C12.4002 25.6525 12.4002 25.7097 12.3926 25.7744Z" fill="#FFB7A6" style="fill:#FFB7A6;fill:color(display-p3 1.0000 0.7176 0.6510);fill-opacity:1;"/>
</g>
<path id="Vector_62" d="M12.9922 24.2725C13.9334 24.4377 14.8678 24.5962 15.809 24.7538C14.9752 24.3943 14.1345 24.0348 13.3006 23.6685C13.2861 23.6898 13.2717 23.7119 13.2648 23.7332L12.9922 24.2725Z" fill="#F9917D" style="fill:#F9917D;fill:color(display-p3 0.9765 0.5686 0.4902);fill-opacity:1;"/>
<path id="Vector_63" d="M12.7529 23.4885C14.0955 24.0453 15.438 24.602 16.7806 25.1581C17.1675 23.9272 17.5543 22.6971 17.9412 21.4662C17.7424 20.5065 17.5444 19.5476 17.3457 18.5879C16.8461 18.8004 16.2864 19.0959 15.7183 19.5118C13.9302 20.8196 13.1101 22.5463 12.7529 23.4885Z" fill="#4390FF" style="fill:#4390FF;fill:color(display-p3 0.2627 0.5647 1.0000);fill-opacity:1;"/>
<path id="Vector_64" d="M14.5706 29.2093H42.0751C42.2929 29.2093 42.4719 29.0311 42.4719 28.8125C42.4719 28.5946 42.2937 28.4156 42.0751 28.4156H14.5706C14.3528 28.4156 14.1738 28.5939 14.1738 28.8125C14.1738 29.0303 14.3528 29.2093 14.5706 29.2093Z" fill="#86DDFC" style="fill:#86DDFC;fill:color(display-p3 0.5255 0.8667 0.9882);fill-opacity:1;"/>
<path id="Vector_65" d="M22.4853 28.4158H36.632C36.8575 28.4158 37.0402 28.233 37.0402 28.0075C37.0402 27.782 36.8575 27.5992 36.632 27.5992H22.4853C22.2599 27.5992 22.0771 27.782 22.0771 28.0075C22.0771 28.233 22.2599 28.4158 22.4853 28.4158Z" fill="#232996" style="fill:#232996;fill:color(display-p3 0.1373 0.1608 0.5882);fill-opacity:1;"/>
<g id="Group_33">
<path id="Vector_66" d="M19.7598 18.4851C20.6241 19.2179 21.5067 19.3557 21.8494 19.0198C21.9095 18.9657 22.0717 18.7799 22.0238 18.2993C22.0116 18.2932 22.0055 18.083 22.0055 18.0708C22.0055 18.0647 21.9994 17.987 21.9933 17.8484C21.9811 17.6442 21.9636 17.4157 21.9514 17.1575C21.9453 17.0791 21.9453 16.9953 21.9392 16.9115C21.921 16.5512 21.8974 16.1788 21.8791 15.9084C21.873 15.8124 21.8669 15.7225 21.8608 15.6319L20.8404 15.2358C20.8343 15.2541 20.8221 15.2602 20.8221 15.2777C20.7802 15.344 20.7436 15.4217 20.7018 15.488C20.5639 15.8962 20.4436 16.2626 20.3233 16.6228C20.1611 17.1156 19.9989 17.6138 19.8367 18.1058C19.8077 18.2269 19.778 18.3534 19.7598 18.4851Z" fill="#FFB7A6" style="fill:#FFB7A6;fill:color(display-p3 1.0000 0.7176 0.6510);fill-opacity:1;"/>
<path id="Vector_67" d="M20.3232 16.6236C20.3834 16.942 20.5517 17.5003 21.0375 17.8972C21.2058 18.035 21.4518 18.2391 21.6864 18.1736C21.8181 18.1318 21.9262 18.0114 21.9925 17.8492C21.9803 17.645 21.9628 17.4165 21.9506 17.1583C21.9445 17.0799 21.9445 16.9961 21.9384 16.9123C21.6985 16.5277 21.1998 16.45 21.1282 16.4439C20.7322 16.3898 20.4253 16.5581 20.3232 16.6236Z" fill="#F9917D" style="fill:#F9917D;fill:color(display-p3 0.9765 0.5686 0.4902);fill-opacity:1;"/>
<path id="Vector_68" d="M19.793 15.4125C19.9605 16.5321 20.805 17.3349 21.6633 17.2001C22.3905 17.0904 22.9023 16.3524 22.9426 15.4597C22.951 15.2937 22.9457 15.1185 22.9182 14.9425C22.916 14.9319 22.8809 14.7453 22.8809 14.7453C22.7705 14.2844 22.5588 13.8876 22.2725 13.602C21.9283 13.2531 21.4858 13.0711 21.0396 13.1389L20.9467 13.1564C20.2133 13.324 19.7237 14.1489 19.764 15.1048C19.7656 15.2083 19.7785 15.3074 19.793 15.4125Z" fill="#FFB7A6" style="fill:#FFB7A6;fill:color(display-p3 1.0000 0.7176 0.6510);fill-opacity:1;"/>
<path id="Vector_69" d="M21.3508 15.875C21.3508 16.0989 21.1696 16.2809 20.945 16.2809C20.7211 16.2809 20.5391 16.0997 20.5391 15.875C20.5391 15.651 20.7211 15.469 20.945 15.469C21.1696 15.469 21.3508 15.651 21.3508 15.875Z" fill="#F9917D" style="fill:#F9917D;fill:color(display-p3 0.9765 0.5686 0.4902);fill-opacity:1;"/>
<path id="Vector_70" d="M22.8284 15.7306C22.8284 15.9545 22.6471 16.1365 22.4225 16.1365C22.1986 16.1365 22.0166 15.9552 22.0166 15.7306C22.0166 15.5066 22.1978 15.3246 22.4225 15.3246C22.6464 15.3246 22.8284 15.5059 22.8284 15.7306Z" fill="#F9917D" style="fill:#F9917D;fill:color(display-p3 0.9765 0.5686 0.4902);fill-opacity:1;"/>
<path id="Vector_71" d="M21.2021 16.2371C21.2486 16.5578 21.5174 16.7718 21.7763 16.7489C21.9614 16.733 22.1274 16.5966 22.2081 16.4054C22.0847 16.3437 21.8974 16.2683 21.6591 16.2363C21.4763 16.2127 21.3194 16.2211 21.2021 16.2371Z" fill="white" style="fill:white;fill-opacity:1;"/>
<path id="Vector_72" d="M20.2506 15.4321C20.2506 15.6812 20.0785 15.8838 19.866 15.8838C19.6536 15.8838 19.4814 15.682 19.4814 15.4321C19.4814 15.1823 19.6536 14.9805 19.866 14.9805C20.0785 14.9805 20.2506 15.1831 20.2506 15.4321Z" fill="#FFB7A6" style="fill:#FFB7A6;fill:color(display-p3 1.0000 0.7176 0.6510);fill-opacity:1;"/>
<g id="Group_34">
<path id="Vector_73" d="M21.5944 15.3151C21.5944 15.408 21.5213 15.475 21.4215 15.5283C21.3416 15.5687 21.2616 15.6015 21.1954 15.6152C21.1489 15.6152 21.1223 15.622 21.1025 15.622C21.0362 15.6289 20.9623 15.6289 20.8892 15.622C20.7826 15.6022 20.6958 15.5618 20.6692 15.4887C20.6356 15.4156 20.676 15.3021 20.7491 15.2092C20.8154 15.1361 20.9022 15.069 20.9958 15.0424C21.0423 15.0287 21.069 15.0226 21.1154 15.0226H21.1619C21.3743 15.0416 21.5807 15.1818 21.5944 15.3151Z" fill="white" style="fill:white;fill-opacity:1;"/>
<path id="Vector_74" d="M21.595 15.3148C21.595 15.4077 21.5219 15.4747 21.4221 15.5281C21.3422 15.5684 21.2622 15.6012 21.196 15.6149C21.1495 15.6149 21.1229 15.6217 21.1031 15.6217C21.0368 15.6286 20.9629 15.6286 20.8898 15.6217C20.8563 15.5951 20.8365 15.5616 20.8297 15.522C20.8099 15.3757 20.9827 15.2356 21.2097 15.2089C21.3681 15.1815 21.515 15.228 21.595 15.3148Z" fill="#232996" style="fill:#232996;fill:color(display-p3 0.1373 0.1608 0.5882);fill-opacity:1;"/>
</g>
<g id="Group_35">
<path id="Vector_75" d="M22.9977 15.1925C22.9977 15.2854 22.9246 15.3525 22.8249 15.4058C22.7449 15.4461 22.6649 15.4789 22.5987 15.4926C22.5522 15.4926 22.5256 15.4995 22.5058 15.4995C22.4395 15.5063 22.3657 15.5063 22.2926 15.4995C22.1859 15.4797 22.0991 15.4393 22.0725 15.3662C22.039 15.293 22.0793 15.1796 22.1524 15.0866C22.2187 15.0135 22.3055 14.9465 22.3992 14.9198C22.4456 14.9061 22.4723 14.9 22.5187 14.9H22.5652C22.7776 14.9198 22.984 15.0592 22.9977 15.1925Z" fill="white" style="fill:white;fill-opacity:1;"/>
<path id="Vector_76" d="M22.9983 15.1919C22.9983 15.2848 22.9252 15.3518 22.8255 15.4051C22.7455 15.4455 22.6655 15.4782 22.5993 15.492C22.5528 15.492 22.5262 15.4988 22.5064 15.4988C22.4401 15.5057 22.3663 15.5057 22.2931 15.4988C22.2596 15.4722 22.2398 15.4386 22.233 15.399C22.2132 15.2528 22.3861 15.1126 22.6122 15.086C22.7721 15.0586 22.9184 15.105 22.9983 15.1919Z" fill="#232996" style="fill:#232996;fill:color(display-p3 0.1373 0.1608 0.5882);fill-opacity:1;"/>
</g>
<path id="Vector_77" d="M19.9383 13.8107C19.6283 14.302 19.7052 14.8321 19.738 15.005C19.8134 14.973 19.8606 14.9821 19.8872 14.9928C20.0144 15.0446 20.0662 15.3013 19.9916 15.6349C20.6594 14.7232 21.2336 14.5015 21.6426 14.4733C22.0858 14.4429 22.6874 14.6188 22.9257 14.305C23.0102 14.1938 23.0468 14.0239 23.0491 14.0133C23.0575 13.9714 23.1275 13.637 22.9592 13.4626C22.845 13.3445 22.6988 13.3788 22.4429 13.3506C22.0187 13.3026 21.9007 13.1496 21.6235 13.081C21.0844 12.9469 20.3129 13.2166 19.9383 13.8107Z" fill="#FF77A1" style="fill:#FF77A1;fill:color(display-p3 1.0000 0.4667 0.6314);fill-opacity:1;"/>
</g>
<path id="Vector_78" d="M27.0756 28.4156H38.9941V20.8355H27.0756V28.4156Z" fill="#232996" style="fill:#232996;fill:color(display-p3 0.1373 0.1608 0.5882);fill-opacity:1;"/>
<path id="Vector_79" d="M32.3936 24.6252C32.3936 24.9794 32.6806 25.2673 33.0355 25.2673C33.3904 25.2673 33.6775 24.9802 33.6775 24.6252C33.6775 24.2703 33.3904 23.9832 33.0355 23.9832C32.6814 23.9832 32.3936 24.2703 32.3936 24.6252Z" fill="#86DDFC" style="fill:#86DDFC;fill:color(display-p3 0.5255 0.8667 0.9882);fill-opacity:1;"/>
<path id="Vector_80" d="M39.5549 28.4157H41.8882C41.9712 28.4157 42.0397 28.3471 42.0397 28.2641V28.159C42.0397 28.076 41.9719 28.0074 41.8882 28.0074H39.5549C39.4718 28.0074 39.4033 28.076 39.4033 28.159V28.2641C39.4033 28.3471 39.4718 28.4157 39.5549 28.4157Z" fill="#232996" style="fill:#232996;fill:color(display-p3 0.1373 0.1608 0.5882);fill-opacity:1;"/>
<g id="Group_36">
<path id="Vector_81" d="M39.9299 28.3058C39.8507 28.2852 39.8233 28.2319 39.8393 28.1816L43.0842 17.9806C43.0994 17.9303 43.1527 17.9029 43.2037 17.9189C43.254 17.9349 43.2814 17.9882 43.2654 18.0384L40.0206 28.2395C40.0076 28.2799 39.9703 28.3058 39.9299 28.3058Z" fill="#232996" style="fill:#232996;fill:color(display-p3 0.1373 0.1608 0.5882);fill-opacity:1;"/>
</g>
<g id="Group_37">
<path id="Vector_82" d="M43.6138 19.0278C43.6069 19.0278 27.2556 17.8929 27.2556 17.8929C27.203 17.8898 27.1634 17.8441 27.1672 17.7916C27.1711 17.739 27.216 17.6971 27.2685 17.7032L43.6206 18.8381C43.6732 18.8412 43.7128 18.8869 43.709 18.9394C43.7051 18.9897 43.664 19.0278 43.6138 19.0278Z" fill="#232996" style="fill:#232996;fill:color(display-p3 0.1373 0.1608 0.5882);fill-opacity:1;"/>
</g>
<path id="Vector_83" d="M42.5439 18.6579C42.5439 18.8932 42.7351 19.0844 42.9704 19.0844C43.2057 19.0844 43.3968 18.8932 43.3968 18.6579C43.3968 18.4217 43.2057 18.2313 42.9704 18.2313C42.7351 18.2313 42.5439 18.4225 42.5439 18.6579Z" fill="#232996" style="fill:#232996;fill:color(display-p3 0.1373 0.1608 0.5882);fill-opacity:1;"/>
<path id="Vector_84" d="M40.9458 47.0921C41.0471 47.0921 41.127 47.0121 41.127 46.9139V28.9902C41.127 28.892 41.047 28.812 40.9488 28.812C40.8475 28.812 40.7676 28.892 40.7676 28.9902V46.9146C40.7676 47.0121 40.8483 47.0921 40.9458 47.0921Z" fill="#86DDFC" style="fill:#86DDFC;fill:color(display-p3 0.5255 0.8667 0.9882);fill-opacity:1;"/>
<path id="Vector_85" d="M26.3912 18.8842H27.5845V18.4051C27.1969 18.3327 26.8092 18.2603 26.4216 18.188C26.3995 18.1987 26.2419 18.2771 26.2016 18.453C26.165 18.613 26.2396 18.7867 26.3912 18.8842Z" fill="#FFB7A6" style="fill:#FFB7A6;fill:color(display-p3 1.0000 0.7176 0.6510);fill-opacity:1;"/>
<path id="Vector_86" d="M23.8676 0H11.5812C11.3139 0 11.0977 0.216315 11.0977 0.483661V7.92366C11.0977 8.19101 11.3139 8.40732 11.5812 8.40732H19.9884C20.0904 8.40732 20.1902 8.44007 20.2732 8.50025C21.0317 9.05398 21.7901 9.60771 22.5494 10.1614C22.838 10.3717 23.2469 10.2079 23.3101 9.85678C23.3969 9.37388 23.4845 8.89022 23.5713 8.40732H24.3511V0.483661C24.3511 0.216315 24.1349 0 23.8676 0Z" fill="#FF77A1" style="fill:#FF77A1;fill:color(display-p3 1.0000 0.4667 0.6314);fill-opacity:1;"/>
<g id="Group_38">
<path id="Vector_87" d="M17.722 0.673218C15.7429 0.673218 14.1406 2.27653 14.1406 4.25002C14.1406 6.22961 15.7436 7.83216 17.722 7.83216C19.7012 7.83216 21.3042 6.22884 21.3042 4.25002C21.3042 2.27577 19.7012 0.673218 17.722 0.673218ZM18.249 4.24926C18.249 4.54479 18.0175 4.78167 17.7228 4.78167C17.4334 4.78167 17.1966 4.54403 17.1966 4.24926C17.1966 4.01238 17.3588 3.80978 17.5789 3.7458V1.38995H17.8683V3.7458C17.949 3.76332 18.0244 3.80902 18.0822 3.86766L19.6738 3.0344L19.8071 3.29489L18.2277 4.11673C18.2429 4.1571 18.249 4.20356 18.249 4.24926Z" fill="white" style="fill:white;fill-opacity:1;"/>
</g>
<g id="Group_39">
<path id="Vector_88" d="M26.8431 3.453H38.3877C38.6382 3.453 38.8416 3.65637 38.8416 3.90696V10.8983C38.8416 11.1489 38.6382 11.3531 38.3877 11.3531H30.4877C30.3918 11.3531 30.2981 11.3835 30.2197 11.4406C29.5069 11.9609 28.7941 12.4811 28.0813 13.0013C27.8102 13.1993 27.4256 13.0447 27.3662 12.7149C27.2848 12.261 27.2025 11.807 27.121 11.3531H26.3877V3.90772C26.3892 3.65637 26.5925 3.453 26.8431 3.453Z" fill="#FF77A1" style="fill:#FF77A1;fill:color(display-p3 1.0000 0.4667 0.6314);fill-opacity:1;"/>
</g>
<g id="Group_40">
<g id="Group_41">
<path id="Vector_89" d="M16.5293 7.51113C16.5293 7.71678 16.6961 7.88359 16.9017 7.88359C17.1073 7.88359 17.2741 7.71678 17.2741 7.51113C17.2741 7.30548 17.1073 7.13867 16.9017 7.13867C16.6961 7.13867 16.5293 7.30548 16.5293 7.51113Z" fill="#232996" style="fill:#232996;fill:color(display-p3 0.1373 0.1608 0.5882);fill-opacity:1;"/>
<path id="Vector_90" d="M14.8711 7.51113C14.8711 7.71678 15.0379 7.88359 15.2435 7.88359C15.4491 7.88359 15.6159 7.71678 15.6159 7.51113C15.6159 7.30548 15.4491 7.13867 15.2435 7.13867C15.0379 7.13867 14.8711 7.30548 14.8711 7.51113Z" fill="#232996" style="fill:#232996;fill:color(display-p3 0.1373 0.1608 0.5882);fill-opacity:1;"/>
<path id="Vector_91" d="M13.1787 7.51113C13.1787 7.71678 13.3455 7.88359 13.5511 7.88359C13.7567 7.88359 13.9235 7.71678 13.9235 7.51113C13.9235 7.30548 13.7567 7.13867 13.5511 7.13867C13.3455 7.13867 13.1787 7.30548 13.1787 7.51113Z" fill="#232996" style="fill:#232996;fill:color(display-p3 0.1373 0.1608 0.5882);fill-opacity:1;"/>
<path id="Vector_92" d="M11.5215 7.51101C11.5215 7.71666 11.6883 7.88346 11.8939 7.88346C12.0995 7.88346 12.2662 7.71666 12.2662 7.51101C12.2662 7.30536 12.0995 7.13855 11.8939 7.13855C11.6883 7.13855 11.5215 7.30536 11.5215 7.51101Z" fill="#232996" style="fill:#232996;fill:color(display-p3 0.1373 0.1608 0.5882);fill-opacity:1;"/>
</g>
<g id="Group_42">
<path id="Vector_93" d="M16.5293 9.14626C16.5293 9.35191 16.6961 9.51872 16.9017 9.51872C17.1073 9.51872 17.2741 9.35191 17.2741 9.14626C17.2741 8.94061 17.1073 8.7738 16.9017 8.7738C16.6961 8.7738 16.5293 8.94061 16.5293 9.14626Z" fill="#232996" style="fill:#232996;fill:color(display-p3 0.1373 0.1608 0.5882);fill-opacity:1;"/>
<path id="Vector_94" d="M14.8711 9.14626C14.8711 9.35191 15.0379 9.51872 15.2435 9.51872C15.4491 9.51872 15.6159 9.35191 15.6159 9.14626C15.6159 8.94061 15.4491 8.7738 15.2435 8.7738C15.0379 8.7738 14.8711 8.94061 14.8711 9.14626Z" fill="#232996" style="fill:#232996;fill:color(display-p3 0.1373 0.1608 0.5882);fill-opacity:1;"/>
<path id="Vector_95" d="M13.1787 9.14626C13.1787 9.35191 13.3455 9.51872 13.5511 9.51872C13.7567 9.51872 13.9235 9.35191 13.9235 9.14626C13.9235 8.94061 13.7567 8.7738 13.5511 8.7738C13.3455 8.7738 13.1787 8.94061 13.1787 9.14626Z" fill="#232996" style="fill:#232996;fill:color(display-p3 0.1373 0.1608 0.5882);fill-opacity:1;"/>
<path id="Vector_96" d="M11.5215 9.14614C11.5215 9.35179 11.6883 9.5186 11.8939 9.5186C12.0995 9.5186 12.2662 9.35179 12.2662 9.14614C12.2662 8.94049 12.0995 8.77368 11.8939 8.77368C11.6883 8.77368 11.5215 8.94049 11.5215 9.14614Z" fill="#232996" style="fill:#232996;fill:color(display-p3 0.1373 0.1608 0.5882);fill-opacity:1;"/>
</g>
<g id="Group_43">
<path id="Vector_97" d="M16.5293 10.7902C16.5293 10.9958 16.6961 11.1626 16.9017 11.1626C17.1073 11.1626 17.2741 10.9958 17.2741 10.7902C17.2741 10.5845 17.1073 10.4177 16.9017 10.4177C16.6961 10.4185 16.5293 10.5845 16.5293 10.7902Z" fill="#232996" style="fill:#232996;fill:color(display-p3 0.1373 0.1608 0.5882);fill-opacity:1;"/>
<path id="Vector_98" d="M14.8711 10.7902C14.8711 10.9958 15.0379 11.1626 15.2435 11.1626C15.4491 11.1626 15.6159 10.9958 15.6159 10.7902C15.6159 10.5845 15.4491 10.4177 15.2435 10.4177C15.0379 10.4185 14.8711 10.5845 14.8711 10.7902Z" fill="#232996" style="fill:#232996;fill:color(display-p3 0.1373 0.1608 0.5882);fill-opacity:1;"/>
<path id="Vector_99" d="M13.1787 10.7902C13.1787 10.9958 13.3455 11.1626 13.5511 11.1626C13.7567 11.1626 13.9235 10.9958 13.9235 10.7902C13.9235 10.5845 13.7567 10.4177 13.5511 10.4177C13.3455 10.4185 13.1787 10.5845 13.1787 10.7902Z" fill="#232996" style="fill:#232996;fill:color(display-p3 0.1373 0.1608 0.5882);fill-opacity:1;"/>
<path id="Vector_100" d="M11.5215 10.7903C11.5215 10.996 11.6883 11.1628 11.8939 11.1628C12.0995 11.1628 12.2662 10.996 12.2662 10.7903C12.2662 10.5847 12.0995 10.4178 11.8939 10.4178C11.6883 10.4186 11.5215 10.5847 11.5215 10.7903Z" fill="#232996" style="fill:#232996;fill:color(display-p3 0.1373 0.1608 0.5882);fill-opacity:1;"/>
</g>
</g>
<path id="Vector_101" d="M12.0523 25.886C12.165 26.5227 12.6364 27.0201 13.2152 27.129C13.9348 27.2646 14.7085 26.7809 14.9271 25.9758C15.09 24.4357 15.1662 22.6161 15.0253 20.584C14.9293 19.1977 14.7466 17.9341 14.5273 16.8099C13.8419 16.7901 13.1573 16.7703 12.4719 16.7505C12.299 18.0491 12.1612 19.4506 12.0828 20.9435C11.9891 22.7144 11.9906 24.3687 12.0523 25.886Z" fill="#FFB7A6" style="fill:#FFB7A6;fill:color(display-p3 1.0000 0.7176 0.6510);fill-opacity:1;"/>
<path id="Vector_102" d="M26.4652 19.759C26.9937 19.8755 27.5215 19.5381 27.6372 19.0095L28.2312 16.3101C28.3477 15.7815 28.0103 15.2537 27.4819 15.1372C26.9534 15.0206 26.4256 15.358 26.3091 15.8866L25.7151 18.586C25.5994 19.1146 25.9367 19.6424 26.4652 19.759Z" fill="#232996" style="fill:#232996;fill:color(display-p3 0.1373 0.1608 0.5882);fill-opacity:1;"/>
<g id="Group_44">
<path id="Vector_103" d="M27.1746 17.3095C27.1327 17.3095 27.0946 17.2821 27.0824 17.2395C27.0687 17.1892 27.0984 17.1366 27.1487 17.1222L29.2299 16.5486C29.2817 16.5349 29.3327 16.5646 29.3472 16.6149C29.3609 16.6652 29.3312 16.7177 29.2809 16.7322L27.1997 17.3057C27.1913 17.3088 27.183 17.3095 27.1746 17.3095Z" fill="#232996" style="fill:#232996;fill:color(display-p3 0.1373 0.1608 0.5882);fill-opacity:1;"/>
</g>
<g id="Group_45">
<path id="Vector_104" d="M27.3815 18.0843C27.3518 18.0843 27.3229 18.0706 27.3039 18.0447C27.2734 18.002 27.2833 17.9426 27.3252 17.9114L29.197 16.5632C29.2404 16.5328 29.299 16.5419 29.3303 16.5846C29.3607 16.6272 29.3508 16.6866 29.3089 16.7178L27.4371 18.066C27.4204 18.0782 27.4006 18.0843 27.3815 18.0843Z" fill="#232996" style="fill:#232996;fill:color(display-p3 0.1373 0.1608 0.5882);fill-opacity:1;"/>
</g>
<g id="Group_46">
<path id="Vector_105" d="M28.3865 19.7374C28.3522 19.7374 28.3187 19.7184 28.302 19.6856L27.4986 18.1014C27.475 18.0541 27.4932 17.997 27.5405 17.9734C27.5884 17.9498 27.6448 17.9688 27.6684 18.0153L28.4718 19.5996C28.4954 19.6468 28.4771 19.7039 28.4299 19.7275C28.4162 19.7344 28.401 19.7374 28.3865 19.7374Z" fill="#232996" style="fill:#232996;fill:color(display-p3 0.1373 0.1608 0.5882);fill-opacity:1;"/>
</g>
<g id="Group_47">
<path id="Vector_106" d="M28.3853 19.738C28.3655 19.7357 26.6132 19.3542 26.6132 19.3542C26.5615 19.3427 26.5295 19.2925 26.5401 19.2407C26.5516 19.1896 26.6018 19.1569 26.6528 19.1675L28.4043 19.5491C28.4561 19.5606 28.4881 19.6108 28.4774 19.6619C28.4691 19.7076 28.4295 19.738 28.3853 19.738Z" fill="#232996" style="fill:#232996;fill:color(display-p3 0.1373 0.1608 0.5882);fill-opacity:1;"/>
</g>
<g id="Group_48">
<path id="Vector_107" d="M26.7012 16.7892C26.686 16.7892 26.6707 16.7854 26.6563 16.7778L25.1873 15.9955C25.1408 15.9712 25.1233 15.9133 25.1477 15.8668C25.1728 15.8196 25.2307 15.8036 25.2764 15.8272L26.7454 16.6094C26.7918 16.6338 26.8093 16.6917 26.785 16.7382C26.7682 16.7709 26.7347 16.7892 26.7012 16.7892Z" fill="#232996" style="fill:#232996;fill:color(display-p3 0.1373 0.1608 0.5882);fill-opacity:1;"/>
</g>
<g id="Group_49">
<path id="Vector_108" d="M26.1228 17.3446C26.0916 17.3446 26.0619 17.3301 26.0436 17.3019L25.1526 15.9644C25.1237 15.9203 25.1351 15.8616 25.1793 15.8327C25.2235 15.803 25.2829 15.8152 25.3111 15.8593L26.202 17.1968C26.231 17.241 26.2195 17.2997 26.1754 17.3286C26.1594 17.34 26.1411 17.3446 26.1228 17.3446Z" fill="#232996" style="fill:#232996;fill:color(display-p3 0.1373 0.1608 0.5882);fill-opacity:1;"/>
</g>
<g id="Group_50">
<path id="Vector_109" d="M24.408 18.2455C24.3699 18.2455 24.3333 18.2219 24.3189 18.1838C24.2998 18.1351 24.325 18.0795 24.3737 18.0612L26.0155 17.4351C26.0643 17.4145 26.1191 17.4412 26.1381 17.4899C26.1572 17.5387 26.132 17.5943 26.0833 17.6126L24.4415 18.2387C24.4308 18.244 24.4194 18.2455 24.408 18.2455Z" fill="#232996" style="fill:#232996;fill:color(display-p3 0.1373 0.1608 0.5882);fill-opacity:1;"/>
</g>
<g id="Group_51">
<path id="Vector_110" d="M26.1059 18.8213C26.0754 18.816 24.3772 18.2409 24.3772 18.2409C24.3277 18.2241 24.3003 18.1701 24.3178 18.1206C24.3346 18.071 24.3886 18.0429 24.4381 18.0611L26.1363 18.6362C26.1866 18.653 26.2132 18.707 26.1957 18.7566C26.1828 18.7969 26.1455 18.8213 26.1059 18.8213Z" fill="#232996" style="fill:#232996;fill:color(display-p3 0.1373 0.1608 0.5882);fill-opacity:1;"/>
</g>
<path id="Vector_111" d="M19.7687 16.368C20.1921 16.368 20.5386 16.0214 20.5386 15.5972V15.112C20.5386 14.6885 20.1921 14.3412 19.7687 14.3412C19.3453 14.3412 18.998 14.6877 18.998 15.112V15.5972C18.9988 16.0214 19.3453 16.368 19.7687 16.368Z" fill="#232996" style="fill:#232996;fill:color(display-p3 0.1373 0.1608 0.5882);fill-opacity:1;"/>
<g id="Group_52">
<path id="Vector_112" d="M19.7471 14.8944C19.7128 14.8944 19.6793 14.8753 19.6626 14.8426C19.5308 14.5813 19.3991 14.1814 19.5209 13.7549C19.6329 13.3619 19.9451 13.0184 20.3754 12.8127C20.8231 12.5994 21.3242 12.5705 21.7156 12.7358C21.9593 12.8386 22.1672 13.0176 22.334 13.2667C22.3629 13.3101 22.3515 13.3695 22.3073 13.3984C22.2639 13.4266 22.2045 13.416 22.1756 13.3718C22.0301 13.1539 21.8504 12.9986 21.641 12.9102C21.2991 12.764 20.8559 12.7929 20.4568 12.9841C20.0753 13.1669 19.8004 13.4662 19.7029 13.8075C19.5978 14.1746 19.7144 14.5265 19.8309 14.7565C19.8545 14.8037 19.8362 14.8608 19.789 14.8845C19.776 14.8905 19.7616 14.8944 19.7471 14.8944Z" fill="#232996" style="fill:#232996;fill:color(display-p3 0.1373 0.1608 0.5882);fill-opacity:1;"/>
</g>
<g id="Group_53">
<g id="Group_54">
<path id="Vector_113" d="M31.941 6.34376C31.941 6.44431 31.8549 6.53037 31.7544 6.53037H31.5176V7.01175H31.7544C31.8549 7.01175 31.941 7.09782 31.941 7.19836C31.941 7.2989 31.8549 7.38497 31.7544 7.38497H31.5176V7.9745C31.5176 8.58536 32.0133 9.08121 32.6172 9.08121C33.2211 9.08121 33.7168 8.58536 33.7168 7.9745V7.38497H33.4511C33.3506 7.38497 33.2645 7.2989 33.2645 7.19836C33.2645 7.09782 33.3506 7.01175 33.4511 7.01175H33.7168V6.53037H33.4511C33.3506 6.53037 33.2645 6.44431 33.2645 6.34376C33.2645 6.24322 33.3506 6.15716 33.4511 6.15716H33.7168V5.5105C33.7168 4.90649 33.2211 4.41064 32.6172 4.41064C32.0133 4.41064 31.5176 4.90649 31.5176 5.5105V6.15716H31.7544C31.8549 6.15716 31.941 6.24322 31.941 6.34376Z" fill="white" style="fill:white;fill-opacity:1;"/>
<g id="Group_55">
<path id="Vector_114" d="M32.6216 9.94621C32.1 9.94621 31.6012 9.74056 31.2113 9.36429C30.7978 8.96441 30.5671 8.4282 30.5625 7.85466C30.5617 7.74955 30.6463 7.66348 30.7514 7.66272C30.8572 7.66272 30.9425 7.7465 30.9433 7.85161C30.9471 8.32233 31.1367 8.76257 31.4763 9.09085C31.8045 9.40847 32.2386 9.57527 32.6635 9.56461C33.5149 9.54176 34.23 8.83722 34.2901 7.95977C34.297 7.85466 34.3884 7.76935 34.4935 7.7823C34.5986 7.78992 34.6777 7.88056 34.6701 7.98567C34.5963 9.05658 33.719 9.91726 32.6734 9.94545C32.6567 9.94621 32.6392 9.94621 32.6216 9.94621Z" fill="white" style="fill:white;fill-opacity:1;"/>
</g>
</g>
<g id="Group_56">
<path id="Vector_115" d="M32.6699 11.2044C32.5648 11.2044 32.4795 11.1191 32.4795 11.014V9.75646C32.4795 9.65135 32.5648 9.56604 32.6699 9.56604C32.775 9.56604 32.8603 9.65135 32.8603 9.75646V11.014C32.8603 11.1191 32.7757 11.2044 32.6699 11.2044Z" fill="white" style="fill:white;fill-opacity:1;"/>
</g>
</g>
<path id="Vector_116" d="M4.311 47.165H11.0977L11.0977 36.3486H4.311L4.311 47.165Z" fill="#4390FF" style="fill:#4390FF;fill:color(display-p3 0.2627 0.5647 1.0000);fill-opacity:1;"/>
<g id="Group_57">
<g id="Group_58">
<path id="Vector_117" d="M1.32464 47.2588H1.00632C0.953778 47.2588 0.911133 47.2161 0.911133 47.1636C0.911133 47.111 0.953778 47.0684 1.00632 47.0684H1.32464C1.37718 47.0684 1.41983 47.111 1.41983 47.1636C1.41983 47.2161 1.37718 47.2588 1.32464 47.2588Z" fill="#232996" style="fill:#232996;fill:color(display-p3 0.1373 0.1608 0.5882);fill-opacity:1;"/>
</g>
<g id="Group_59">
<path id="Vector_118" d="M2.15584 47.2588H1.61667C1.56413 47.2588 1.52148 47.2161 1.52148 47.1636C1.52148 47.111 1.56413 47.0684 1.61667 47.0684H2.15584C2.20838 47.0684 2.25103 47.111 2.25103 47.1636C2.25103 47.2161 2.20838 47.2588 2.15584 47.2588Z" fill="#232996" style="fill:#232996;fill:color(display-p3 0.1373 0.1608 0.5882);fill-opacity:1;"/>
</g>
<g id="Group_60">
<path id="Vector_119" d="M41.9728 47.2588H2.90769C2.85515 47.2588 2.8125 47.2161 2.8125 47.1636C2.8125 47.111 2.85515 47.0684 2.90769 47.0684H41.9728C42.0254 47.0684 42.068 47.111 42.068 47.1636C42.068 47.2161 42.0254 47.2588 41.9728 47.2588Z" fill="#232996" style="fill:#232996;fill:color(display-p3 0.1373 0.1608 0.5882);fill-opacity:1;"/>
</g>
</g>
</g>
</svg>
