<svg width="90" height="108" viewBox="0 0 90 108" fill="none" xmlns="http://www.w3.org/2000/svg">
<g id="_x32_">
<path id="Vector" d="M69.0144 100.628H16.5142C14.3955 100.628 12.6777 98.9103 12.6777 96.7929V9.4898C12.6777 7.37066 14.3955 5.65259 16.5142 5.65259H69.0144C71.1332 5.65259 72.8491 7.37066 72.8491 9.4898V96.7929C72.8509 98.9103 71.1332 100.628 69.0144 100.628Z" fill="#FF77A1" style="fill:#FF77A1;fill:color(display-p3 1.0000 0.4667 0.6314);fill-opacity:1;"/>
<g id="Group">
<path id="Vector_2" d="M10.3363 59.0095C9.97386 59.0095 9.67969 58.7153 9.67969 58.3527V15.0698C9.67969 14.7073 9.97386 14.4131 10.3363 14.4131C10.6988 14.4131 10.9929 14.7073 10.9929 15.0698V58.3527C10.9929 58.7153 10.6988 59.0095 10.3363 59.0095Z" fill="#86DDFC" style="fill:#86DDFC;fill:color(display-p3 0.5255 0.8667 0.9882);fill-opacity:1;"/>
</g>
<g id="Group_2">
<path id="Vector_3" d="M74.6527 94.6415C74.2903 94.6415 73.9961 94.3473 73.9961 93.9848V50.7036C73.9961 50.3411 74.2903 50.0469 74.6527 50.0469C75.0152 50.0469 75.3093 50.3411 75.3093 50.7036V93.9848C75.3093 94.3473 75.0152 94.6415 74.6527 94.6415Z" fill="#86DDFC" style="fill:#86DDFC;fill:color(display-p3 0.5255 0.8667 0.9882);fill-opacity:1;"/>
</g>
<path id="Vector_4" d="M74.9766 2.35125V10.08H9.86914V2.35125C9.86914 1.14982 11.3365 0.174316 13.1558 0.174316H71.6917C73.5093 0.174316 74.9766 1.15157 74.9766 2.35125Z" fill="#86DDFC" style="fill:#86DDFC;fill:color(display-p3 0.5255 0.8667 0.9882);fill-opacity:1;"/>
<path id="Vector_5" d="M74.9766 93.9854V100.868C74.9766 101.756 74.6246 102.56 74.0468 103.154C73.455 103.76 72.6233 104.141 71.6917 104.141H13.1558C11.3365 104.141 9.86914 102.674 9.86914 100.87V93.9871L74.9766 93.9854Z" fill="#86DDFC" style="fill:#86DDFC;fill:color(display-p3 0.5255 0.8667 0.9882);fill-opacity:1;"/>
<g id="Group_3">
<path id="Vector_6" d="M54.0622 0.174316V2.52988C54.0622 3.55968 53.2165 4.40558 52.1869 4.40558H32.6562C31.6266 4.40558 30.7949 3.55968 30.7949 2.52988V0.174316H54.0622Z" fill="#232996" style="fill:#232996;fill:color(display-p3 0.1373 0.1608 0.5882);fill-opacity:1;"/>
</g>
<g id="Group_4">
<g id="Group_5">
<g id="Group_6">
<path id="Vector_7" d="M18.7027 80.6613C18.7027 81.1342 18.3193 81.5178 17.8465 81.5178C17.3737 81.5178 16.9902 81.1342 16.9902 80.6613C16.9902 80.1885 17.3737 79.8049 17.8465 79.8049C18.3193 79.8049 18.7027 80.1885 18.7027 80.6613Z" fill="white" style="fill:white;fill-opacity:1;"/>
<path id="Vector_8" d="M22.5152 80.6613C22.5152 81.1342 22.1317 81.5178 21.659 81.5178C21.1862 81.5178 20.8027 81.1342 20.8027 80.6613C20.8027 80.1885 21.1862 79.8049 21.659 79.8049C22.1317 79.8049 22.5152 80.1885 22.5152 80.6613Z" fill="white" style="fill:white;fill-opacity:1;"/>
<path id="Vector_9" d="M26.4078 80.6613C26.4078 81.1342 26.0243 81.5178 25.5515 81.5178C25.0788 81.5178 24.6953 81.1342 24.6953 80.6613C24.6953 80.1885 25.0788 79.8049 25.5515 79.8049C26.0243 79.8049 26.4078 80.1885 26.4078 80.6613Z" fill="white" style="fill:white;fill-opacity:1;"/>
<path id="Vector_10" d="M30.2183 80.6613C30.2183 81.1342 29.8349 81.5178 29.3621 81.5178C28.8893 81.5178 28.5059 81.1342 28.5059 80.6613C28.5059 80.1885 28.8893 79.8049 29.3621 79.8049C29.8349 79.8049 30.2183 80.1885 30.2183 80.6613Z" fill="white" style="fill:white;fill-opacity:1;"/>
</g>
<g id="Group_7">
<path id="Vector_11" d="M18.7027 84.4231C18.7027 84.8959 18.3193 85.2795 17.8465 85.2795C17.3737 85.2795 16.9902 84.8959 16.9902 84.4231C16.9902 83.9502 17.3737 83.5667 17.8465 83.5667C18.3193 83.5667 18.7027 83.9502 18.7027 84.4231Z" fill="white" style="fill:white;fill-opacity:1;"/>
<path id="Vector_12" d="M22.5152 84.4223C22.5152 84.8952 22.1317 85.2787 21.659 85.2787C21.1862 85.2787 20.8027 84.8952 20.8027 84.4223C20.8027 83.9495 21.1862 83.5659 21.659 83.5659C22.1317 83.5659 22.5152 83.9495 22.5152 84.4223Z" fill="white" style="fill:white;fill-opacity:1;"/>
<path id="Vector_13" d="M26.4078 84.4223C26.4078 84.8952 26.0243 85.2787 25.5515 85.2787C25.0788 85.2787 24.6953 84.8952 24.6953 84.4223C24.6953 83.9495 25.0788 83.5659 25.5515 83.5659C26.0243 83.5659 26.4078 83.9495 26.4078 84.4223Z" fill="white" style="fill:white;fill-opacity:1;"/>
<path id="Vector_14" d="M30.2183 84.4223C30.2183 84.8952 29.8349 85.2787 29.3621 85.2787C28.8893 85.2787 28.5059 84.8952 28.5059 84.4223C28.5059 83.9495 28.8893 83.5659 29.3621 83.5659C29.8349 83.5659 30.2183 83.9495 30.2183 84.4223Z" fill="white" style="fill:white;fill-opacity:1;"/>
</g>
<g id="Group_8">
<path id="Vector_15" d="M17.8465 89.0571C18.3194 89.0571 18.7027 88.6736 18.7027 88.2006C18.7027 87.7277 18.3194 87.3442 17.8465 87.3442C17.3736 87.3442 16.9902 87.7277 16.9902 88.2006C16.9902 88.6736 17.3736 89.0571 17.8465 89.0571Z" fill="white" style="fill:white;fill-opacity:1;"/>
<path id="Vector_16" d="M21.659 89.0566C22.1319 89.0566 22.5152 88.6731 22.5152 88.2002C22.5152 87.7272 22.1319 87.3438 21.659 87.3438C21.1861 87.3438 20.8027 87.7272 20.8027 88.2002C20.8027 88.6731 21.1861 89.0566 21.659 89.0566Z" fill="white" style="fill:white;fill-opacity:1;"/>
<path id="Vector_17" d="M26.4078 88.2002C26.4078 88.673 26.0243 89.0566 25.5515 89.0566C25.0788 89.0566 24.6953 88.673 24.6953 88.2002C24.6953 87.7273 25.0788 87.3438 25.5515 87.3438C26.0243 87.3438 26.4078 87.7273 26.4078 88.2002Z" fill="white" style="fill:white;fill-opacity:1;"/>
<path id="Vector_18" d="M29.3621 89.0566C29.835 89.0566 30.2183 88.6731 30.2183 88.2002C30.2183 87.7272 29.835 87.3438 29.3621 87.3438C28.8892 87.3438 28.5059 87.7272 28.5059 88.2002C28.5059 88.6731 28.8892 89.0566 29.3621 89.0566Z" fill="white" style="fill:white;fill-opacity:1;"/>
</g>
</g>
<g id="Group_9">
<g id="Group_10">
<path id="Vector_19" d="M33.7359 80.6611C33.7359 81.134 33.3525 81.5175 32.8797 81.5175C32.4069 81.5175 32.0234 81.134 32.0234 80.6611C32.0234 80.1882 32.4069 79.8047 32.8797 79.8047C33.3525 79.8047 33.7359 80.1882 33.7359 80.6611Z" fill="white" style="fill:white;fill-opacity:1;"/>
<path id="Vector_20" d="M37.5504 80.6611C37.5504 81.134 37.1669 81.5175 36.6941 81.5175C36.2214 81.5175 35.8379 81.134 35.8379 80.6611C35.8379 80.1882 36.2214 79.8047 36.6941 79.8047C37.1669 79.8047 37.5504 80.1882 37.5504 80.6611Z" fill="white" style="fill:white;fill-opacity:1;"/>
<path id="Vector_21" d="M41.439 80.6611C41.439 81.134 41.0556 81.5175 40.5828 81.5175C40.11 81.5175 39.7266 81.134 39.7266 80.6611C39.7266 80.1882 40.11 79.8047 40.5828 79.8047C41.0573 79.8047 41.439 80.1882 41.439 80.6611Z" fill="white" style="fill:white;fill-opacity:1;"/>
<path id="Vector_22" d="M45.2535 80.6611C45.2535 81.134 44.87 81.5175 44.3973 81.5175C43.9245 81.5175 43.541 81.134 43.541 80.6611C43.541 80.1882 43.9245 79.8047 44.3973 79.8047C44.87 79.8047 45.2535 80.1882 45.2535 80.6611Z" fill="white" style="fill:white;fill-opacity:1;"/>
</g>
<g id="Group_11">
<path id="Vector_23" d="M33.7359 84.4213C33.7359 84.8942 33.3525 85.2778 32.8797 85.2778C32.4069 85.2778 32.0234 84.8942 32.0234 84.4213C32.0234 83.9485 32.4069 83.5649 32.8797 83.5649C33.3525 83.5649 33.7359 83.9485 33.7359 84.4213Z" fill="white" style="fill:white;fill-opacity:1;"/>
<path id="Vector_24" d="M37.5504 84.4213C37.5504 84.8942 37.1669 85.2778 36.6941 85.2778C36.2214 85.2778 35.8379 84.8942 35.8379 84.4213C35.8379 83.9485 36.2214 83.5649 36.6941 83.5649C37.1669 83.5649 37.5504 83.9485 37.5504 84.4213Z" fill="white" style="fill:white;fill-opacity:1;"/>
<path id="Vector_25" d="M41.439 84.4213C41.439 84.8942 41.0556 85.2778 40.5828 85.2778C40.11 85.2778 39.7266 84.8942 39.7266 84.4213C39.7266 83.9485 40.11 83.5649 40.5828 83.5649C41.0573 83.5649 41.439 83.9485 41.439 84.4213Z" fill="white" style="fill:white;fill-opacity:1;"/>
<path id="Vector_26" d="M45.2535 84.4213C45.2535 84.8942 44.87 85.2778 44.3973 85.2778C43.9245 85.2778 43.541 84.8942 43.541 84.4213C43.541 83.9485 43.9245 83.5649 44.3973 83.5649C44.87 83.5649 45.2535 83.9485 45.2535 84.4213Z" fill="white" style="fill:white;fill-opacity:1;"/>
</g>
<g id="Group_12">
<path id="Vector_27" d="M32.8797 89.0568C33.3526 89.0568 33.7359 88.6734 33.7359 88.2004C33.7359 87.7274 33.3526 87.344 32.8797 87.344C32.4068 87.344 32.0234 87.7274 32.0234 88.2004C32.0234 88.6734 32.4068 89.0568 32.8797 89.0568Z" fill="white" style="fill:white;fill-opacity:1;"/>
<path id="Vector_28" d="M37.5504 88.1999C37.5504 88.6728 37.1669 89.0563 36.6941 89.0563C36.2214 89.0563 35.8379 88.6728 35.8379 88.1999C35.8379 87.727 36.2214 87.3435 36.6941 87.3435C37.1669 87.3435 37.5504 87.727 37.5504 88.1999Z" fill="white" style="fill:white;fill-opacity:1;"/>
<path id="Vector_29" d="M41.439 88.1999C41.439 88.6728 41.0556 89.0563 40.5828 89.0563C40.11 89.0563 39.7266 88.6728 39.7266 88.1999C39.7266 87.727 40.11 87.3435 40.5828 87.3435C41.0573 87.3435 41.439 87.727 41.439 88.1999Z" fill="white" style="fill:white;fill-opacity:1;"/>
<path id="Vector_30" d="M44.3973 89.0563C44.8701 89.0563 45.2535 88.6729 45.2535 88.1999C45.2535 87.7269 44.8701 87.3435 44.3973 87.3435C43.9244 87.3435 43.541 87.7269 43.541 88.1999C43.541 88.6729 43.9244 89.0563 44.3973 89.0563Z" fill="white" style="fill:white;fill-opacity:1;"/>
</g>
</g>
</g>
<g id="Group_13">
<g id="Group_14">
<path id="Vector_31" d="M28.1207 9.77707C28.1207 10.2499 27.7372 10.6335 27.2644 10.6335C26.7917 10.6335 26.4082 10.2499 26.4082 9.77707C26.4082 9.3042 26.7917 8.92065 27.2644 8.92065C27.7372 8.92065 28.1207 9.3042 28.1207 9.77707Z" fill="#232996" style="fill:#232996;fill:color(display-p3 0.1373 0.1608 0.5882);fill-opacity:1;"/>
<path id="Vector_32" d="M31.077 10.6335C31.5498 10.6335 31.9332 10.25 31.9332 9.77707C31.9332 9.30408 31.5498 8.92065 31.077 8.92065C30.6041 8.92065 30.2207 9.30408 30.2207 9.77707C30.2207 10.25 30.6041 10.6335 31.077 10.6335Z" fill="#232996" style="fill:#232996;fill:color(display-p3 0.1373 0.1608 0.5882);fill-opacity:1;"/>
<path id="Vector_33" d="M34.9695 10.6335C35.4424 10.6335 35.8258 10.25 35.8258 9.77707C35.8258 9.30408 35.4424 8.92065 34.9695 8.92065C34.4966 8.92065 34.1133 9.30408 34.1133 9.77707C34.1133 10.25 34.4966 10.6335 34.9695 10.6335Z" fill="#232996" style="fill:#232996;fill:color(display-p3 0.1373 0.1608 0.5882);fill-opacity:1;"/>
<path id="Vector_34" d="M39.6402 9.77707C39.6402 10.2499 39.2567 10.6335 38.784 10.6335C38.3112 10.6335 37.9277 10.2499 37.9277 9.77707C37.9277 9.3042 38.3112 8.92065 38.784 8.92065C39.2567 8.92065 39.6402 9.3042 39.6402 9.77707Z" fill="#232996" style="fill:#232996;fill:color(display-p3 0.1373 0.1608 0.5882);fill-opacity:1;"/>
</g>
<g id="Group_15">
<path id="Vector_35" d="M28.1207 13.5356C28.1207 14.0085 27.7372 14.392 27.2644 14.392C26.7917 14.392 26.4082 14.0085 26.4082 13.5356C26.4082 13.0627 26.7917 12.6792 27.2644 12.6792C27.7372 12.6792 28.1207 13.0627 28.1207 13.5356Z" fill="#232996" style="fill:#232996;fill:color(display-p3 0.1373 0.1608 0.5882);fill-opacity:1;"/>
<path id="Vector_36" d="M31.9332 13.5356C31.9332 14.0085 31.5497 14.392 31.077 14.392C30.6042 14.392 30.2207 14.0085 30.2207 13.5356C30.2207 13.0627 30.6042 12.6792 31.077 12.6792C31.5497 12.6792 31.9332 13.0627 31.9332 13.5356Z" fill="#232996" style="fill:#232996;fill:color(display-p3 0.1373 0.1608 0.5882);fill-opacity:1;"/>
<path id="Vector_37" d="M35.8258 13.5356C35.8258 14.0085 35.4423 14.392 34.9695 14.392C34.4968 14.392 34.1133 14.0085 34.1133 13.5356C34.1133 13.0627 34.4968 12.6792 34.9695 12.6792C35.4423 12.6792 35.8258 13.0627 35.8258 13.5356Z" fill="#232996" style="fill:#232996;fill:color(display-p3 0.1373 0.1608 0.5882);fill-opacity:1;"/>
<path id="Vector_38" d="M39.6402 13.5356C39.6402 14.0085 39.2567 14.392 38.784 14.392C38.3112 14.392 37.9277 14.0085 37.9277 13.5356C37.9277 13.0627 38.3112 12.6792 38.784 12.6792C39.2567 12.6792 39.6402 13.0627 39.6402 13.5356Z" fill="#232996" style="fill:#232996;fill:color(display-p3 0.1373 0.1608 0.5882);fill-opacity:1;"/>
</g>
<g id="Group_16">
<path id="Vector_39" d="M28.1207 17.3161C28.1207 17.789 27.7372 18.1725 27.2644 18.1725C26.7917 18.1725 26.4082 17.789 26.4082 17.3161C26.4082 16.8433 26.7917 16.4597 27.2644 16.4597C27.7372 16.4597 28.1207 16.8433 28.1207 17.3161Z" fill="#232996" style="fill:#232996;fill:color(display-p3 0.1373 0.1608 0.5882);fill-opacity:1;"/>
<path id="Vector_40" d="M31.9332 17.3164C31.9332 17.7892 31.5497 18.1728 31.077 18.1728C30.6042 18.1728 30.2207 17.7892 30.2207 17.3164C30.2207 16.8435 30.6042 16.46 31.077 16.46C31.5497 16.46 31.9332 16.8435 31.9332 17.3164Z" fill="#232996" style="fill:#232996;fill:color(display-p3 0.1373 0.1608 0.5882);fill-opacity:1;"/>
<path id="Vector_41" d="M35.8258 17.3164C35.8258 17.7892 35.4423 18.1728 34.9695 18.1728C34.4968 18.1728 34.1133 17.7892 34.1133 17.3164C34.1133 16.8435 34.4968 16.46 34.9695 16.46C35.4423 16.46 35.8258 16.8435 35.8258 17.3164Z" fill="#232996" style="fill:#232996;fill:color(display-p3 0.1373 0.1608 0.5882);fill-opacity:1;"/>
<path id="Vector_42" d="M39.6402 17.3164C39.6402 17.7892 39.2567 18.1728 38.784 18.1728C38.3112 18.1728 37.9277 17.7892 37.9277 17.3164C37.9277 16.8435 38.3112 16.46 38.784 16.46C39.2567 16.46 39.6402 16.8435 39.6402 17.3164Z" fill="#232996" style="fill:#232996;fill:color(display-p3 0.1373 0.1608 0.5882);fill-opacity:1;"/>
</g>
</g>
<path id="Vector_43" d="M59.944 49.9846H79.9929C80.4289 49.9846 80.7826 50.3384 80.7826 50.7745V62.9148C80.7826 63.3509 80.4289 63.7047 79.9929 63.7047H66.2739C66.1058 63.7047 65.9429 63.7572 65.8081 63.8571C64.5701 64.7608 63.3322 65.6645 62.0942 66.5682C61.6232 66.9114 60.9561 66.6435 60.8527 66.0708C60.7109 65.2827 60.5691 64.4946 60.4273 63.7065H59.1543V50.7762C59.1543 50.3384 59.508 49.9846 59.944 49.9846Z" fill="#86DDFC" style="fill:#86DDFC;fill:color(display-p3 0.5255 0.8667 0.9882);fill-opacity:1;"/>
<path id="Vector_44" d="M24.241 23.4397H4.19204C3.75604 23.4397 3.40234 23.7935 3.40234 24.2296V36.3699C3.40234 36.806 3.75604 37.1598 4.19204 37.1598H17.9111C18.0775 37.1598 18.2403 37.2123 18.3769 37.3122C19.6148 38.2158 20.8528 39.1195 22.0908 40.0232C22.5618 40.3665 23.2289 40.0986 23.3322 39.5259C23.4741 38.7378 23.6159 37.9496 23.7577 37.1615H25.0307V24.2313C25.0289 23.7935 24.677 23.4397 24.241 23.4397Z" fill="#86DDFC" style="fill:#86DDFC;fill:color(display-p3 0.5255 0.8667 0.9882);fill-opacity:1;"/>
<g id="Group_17">
<path id="Vector_45" d="M61.4643 24.6243H58.8203V38.9941H61.4643V24.6243Z" fill="#232996" style="fill:#232996;fill:color(display-p3 0.1373 0.1608 0.5882);fill-opacity:1;"/>
<path id="Vector_46" d="M60.4658 74.3517C60.4658 77.5041 57.9111 80.0593 54.7593 80.0593C51.6074 80.0593 49.0527 77.5041 49.0527 74.3517C49.0527 71.1993 51.6074 68.644 54.7593 68.644C57.9111 68.6423 60.4658 71.1993 60.4658 74.3517Z" fill="#FFB7A6" style="fill:#FFB7A6;fill:color(display-p3 1.0000 0.7176 0.6510);fill-opacity:1;"/>
<path id="Vector_47" d="M57.3041 70.0781C55.1608 72.6456 53.0176 75.2113 50.8744 77.7648C50.4226 77.3847 49.9709 77.0029 49.5209 76.6229C49.309 76.439 49.1111 76.2568 48.901 76.0729C47.2235 74.6491 45.5303 73.2235 43.8529 71.7856C38.9746 67.6384 34.0945 63.493 29.2285 59.3458C29.3406 58.4719 29.6383 57.1601 30.442 55.7923C31.8655 53.3246 33.9965 52.181 34.8842 51.7729C41.4137 57.1041 47.9292 62.4212 54.4569 67.754C54.8527 68.078 55.2326 68.388 55.6266 68.7138C56.1904 69.1604 56.7402 69.6262 57.3041 70.0781Z" fill="#FFB7A6" style="fill:#FFB7A6;fill:color(display-p3 1.0000 0.7176 0.6510);fill-opacity:1;"/>
<path id="Vector_48" d="M54.4578 67.7493C54.2459 68.0733 54.02 68.399 53.8099 68.723C52.2725 71.0225 50.7492 73.3203 49.1995 75.6198C49.1015 75.7757 49.0017 75.9158 48.9036 76.0717C47.2261 74.6478 45.5329 73.2222 43.8555 71.7844V71.4183C47.3785 70.1889 50.919 68.977 54.4578 67.7493Z" fill="#F9917D" style="fill:#F9917D;fill:color(display-p3 0.9765 0.5686 0.4902);fill-opacity:1;"/>
<g id="Group_18">
<path id="Vector_49" d="M41.793 26.6742C42.5231 27.1419 43.262 27.6445 43.9765 28.1086C44.2514 28.2925 44.5368 28.4939 44.8099 28.6778C45.2774 28.9808 45.745 29.2838 46.2107 29.6025C46.237 29.6235 46.2685 29.6305 46.2948 29.6515C46.3035 29.606 46.3228 29.5955 46.3316 29.55C46.5049 29.1787 46.6887 28.8267 46.8726 28.4746C47.0635 28.0928 47.2368 27.7215 47.4242 27.3555C47.5065 27.1856 47.594 27 47.6763 26.8301C47.9092 26.394 48.1071 25.9825 48.3189 25.5726C48.4327 25.331 48.5291 25.0998 48.6516 24.8914C48.8267 24.5061 49.0333 24.126 49.2277 23.7302C49.0911 23.6391 48.9685 23.5498 48.8355 23.443C48.1263 22.9474 47.3997 22.464 46.694 21.9543C46.1722 22.422 45.6644 22.8948 45.1689 23.3834C44.7977 23.7267 44.458 24.0787 44.0833 24.436C44.0588 24.478 44.0202 24.5166 43.9642 24.5516C43.5702 24.9369 43.1885 25.3257 42.7945 25.7127C42.4461 26.0297 42.1257 26.3537 41.793 26.6742Z" fill="#FFB7A6" style="fill:#FFB7A6;fill:color(display-p3 1.0000 0.7176 0.6510);fill-opacity:1;"/>
<path id="Vector_50" d="M46.6562 22.8552C46.9171 24.3509 47.1605 25.8588 47.4232 27.3544C47.5055 27.1846 47.593 26.9989 47.6753 26.829C47.9082 26.393 48.1061 25.9814 48.3179 25.5716C48.4317 25.3299 48.5281 25.0987 48.6506 24.8903C48.8257 24.505 49.0323 24.125 49.2267 23.7291C49.0901 23.6381 48.9676 23.5488 48.8345 23.4419C48.1061 23.2563 47.3812 23.0566 46.6562 22.8552Z" fill="#F9917D" style="fill:#F9917D;fill:color(display-p3 0.9765 0.5686 0.4902);fill-opacity:1;"/>
</g>
<g id="Group_19">
<path id="Vector_51" d="M45.0437 21.3038C45.576 23.8048 47.5914 25.5001 49.5088 25.078C51.1337 24.7295 52.1861 22.9939 52.1528 20.9763C52.1475 20.6015 52.1125 20.2075 52.0267 19.8134C52.0197 19.7889 51.9146 19.3738 51.9146 19.3738C51.603 18.3493 51.0707 17.4841 50.3843 16.8799C49.5596 16.1408 48.537 15.7923 47.5389 16.006L47.3323 16.0585C45.7004 16.5384 44.711 18.4666 44.9334 20.6173C44.9527 20.845 44.9964 21.0691 45.0437 21.3038Z" fill="#FFB7A6" style="fill:#FFB7A6;fill:color(display-p3 1.0000 0.7176 0.6510);fill-opacity:1;"/>
<path id="Vector_52" d="M51.5274 22.7037C51.6517 22.5461 51.7743 22.3884 51.8968 22.2308C52.1875 21.7457 52.4764 21.2588 52.7671 20.7737C52.7636 20.6984 52.7478 20.5968 52.6743 20.532C52.5447 20.4182 52.3188 20.4847 52.226 20.5092C51.9704 20.5775 51.5729 20.6318 50.9355 20.5898C51.1334 21.2921 51.3295 21.9979 51.5274 22.7037Z" fill="#FFB7A6" style="fill:#FFB7A6;fill:color(display-p3 1.0000 0.7176 0.6510);fill-opacity:1;"/>
</g>
<path id="Vector_53" d="M47.3133 21.5182C47.4569 22.0033 47.9682 22.28 48.4532 22.1364C48.9382 21.9928 49.2149 21.4831 49.0713 20.9962C48.9277 20.5111 48.4182 20.2344 47.9314 20.378C47.4464 20.5216 47.1697 21.033 47.3133 21.5182Z" fill="#F9917D" style="fill:#F9917D;fill:color(display-p3 0.9765 0.5686 0.4902);fill-opacity:1;"/>
<g id="Group_20">
<path id="Vector_54" d="M49.3786 20.1507C49.4521 20.501 50.058 20.6183 50.4432 20.6061C50.6848 20.6043 50.923 20.5553 51.1121 20.4922C51.1594 20.473 51.1891 20.4537 51.2206 20.4362C51.3765 20.3609 51.4973 20.2558 51.5218 20.1402C51.5656 19.8635 51.2154 19.4694 50.7531 19.3258C50.7181 19.2961 50.7023 19.2978 50.6691 19.2838C50.5552 19.2593 50.4257 19.2523 50.2803 19.2628C50.2331 19.2663 50.2016 19.2838 50.1683 19.2873C50.1035 19.2926 50.058 19.3118 50.0107 19.3311C49.622 19.5045 49.3103 19.881 49.3786 20.1507Z" fill="white" style="fill:white;fill-opacity:1;"/>
<path id="Vector_55" d="M50.138 19.7256C50.1625 20.0619 50.2798 20.3596 50.4426 20.6066C50.6843 20.6048 50.9224 20.5558 51.1115 20.4927C51.1588 20.4735 51.1886 20.4542 51.2201 20.4367C51.3759 20.3614 51.4967 20.2563 51.5213 20.1407C51.565 19.864 51.2148 19.4699 50.7526 19.3263C50.7175 19.2965 50.7018 19.2983 50.6685 19.2843C50.5547 19.2598 50.4251 19.2528 50.2798 19.2633C50.2325 19.2668 50.201 19.2843 50.1677 19.2878C50.131 19.4191 50.1275 19.5803 50.138 19.7256Z" fill="#232996" style="fill:#232996;fill:color(display-p3 0.1373 0.1608 0.5882);fill-opacity:1;"/>
</g>
<path id="Vector_56" d="M49.6269 22.5271C49.3117 22.8791 49.6899 24.035 50.3238 24.1085C50.7931 24.1628 51.3744 23.6234 51.3079 23.1681C51.2606 22.8458 50.9034 22.6637 50.744 22.5814C50.4219 22.4185 49.8475 22.2819 49.6269 22.5271Z" fill="white" style="fill:white;fill-opacity:1;"/>
<path id="Vector_57" d="M46.9758 20.5116C47.1194 21.0353 46.8515 21.5659 46.3787 21.6938C45.906 21.8234 45.4052 21.5029 45.2634 20.9792C45.1198 20.4556 45.3877 19.9249 45.8605 19.7971C46.3332 19.6675 46.834 19.988 46.9758 20.5116Z" fill="#FFB7A6" style="fill:#FFB7A6;fill:color(display-p3 1.0000 0.7176 0.6510);fill-opacity:1;"/>
<path id="Vector_58" d="M62.0069 31.0088C61.753 33.4747 61.0544 36.9564 59.0652 40.629C57.4841 43.5485 55.572 45.6939 53.9768 47.1826C53.2799 48.0355 51.9859 48.2982 50.839 47.8603C49.4505 47.3297 48.5102 45.8585 48.8639 44.5363C51.5289 39.1754 54.1922 33.8145 56.8572 28.4536L62.0069 31.0088Z" fill="#FFB7A6" style="fill:#FFB7A6;fill:color(display-p3 1.0000 0.7176 0.6510);fill-opacity:1;"/>
<g id="Group_21">
<path id="Vector_59" d="M66.5171 103.575C66.792 103.71 67.1264 103.595 67.2613 103.32L68.3959 100.994C68.5308 100.719 68.4152 100.384 68.1403 100.249C67.8654 100.115 67.5309 100.23 67.3961 100.505L66.2615 102.831C66.1266 103.106 66.2422 103.44 66.5171 103.575Z" fill="white" style="fill:white;fill-opacity:1;"/>
<path id="Vector_60" d="M65.0171 103.101C65.292 103.236 65.6264 103.121 65.7613 102.846L66.8959 100.52C67.0307 100.245 66.9152 99.9105 66.6403 99.7756C66.3654 99.6408 66.0309 99.7564 65.8961 100.031L64.7615 102.357C64.6266 102.632 64.7422 102.967 65.0171 103.101Z" fill="white" style="fill:white;fill-opacity:1;"/>
</g>
<g id="Group_22">
<path id="Vector_61" d="M52.6019 102.151C53.7295 102.768 61.1731 106.766 62.9556 104.717C63.304 104.316 63.6735 103.412 62.7997 101.146C62.6124 99.2073 62.4233 97.2686 62.2342 95.3298L62.0818 93.7904L62.0346 93.4208L61.8875 91.9217L61.8455 91.4821L61.6931 89.9427L61.6511 89.5031L61.5058 88.0179L61.4655 87.5924L61.3236 86.1352L61.2799 85.6816L61.1275 84.1422C61.0733 84.0371 61.0627 83.9565 61.0925 83.869L60.9279 82.1211L60.9034 81.9285L60.5339 78.107C60.4079 77.093 60.2836 76.079 60.1592 75.0649C56.8008 75.5623 53.4424 76.058 50.084 76.5553L50.1172 76.9266L50.2853 78.5904L52.6019 102.151Z" fill="#FFB7A6" style="fill:#FFB7A6;fill:color(display-p3 1.0000 0.7176 0.6510);fill-opacity:1;"/>
<path id="Vector_62" d="M50.0956 106.551C50.1376 107.006 50.4405 107.323 50.7014 107.53C57.5968 107.572 64.5221 107.64 71.4315 107.682C72.6169 107.696 73.8181 107.696 75.0035 107.71C75.1681 107.172 75.2662 106.703 75.3065 106.29C75.3748 105.572 75.2644 105.008 75.1401 104.579C74.2296 101.586 70.05 99.5014 64.5343 99.5155C64.0248 99.5155 63.5135 99.5435 62.9899 99.5715C62.8656 99.5715 62.7553 99.5855 62.631 99.5855C62.0514 99.6135 61.4455 99.6415 60.852 99.6678C60.6593 99.6818 60.479 99.6818 60.2864 99.6958C58.0241 99.8062 55.7355 99.9025 53.4452 100.013C53.1283 100.027 52.8114 100.041 52.4927 100.055C52.4927 100.234 52.4647 100.428 52.4366 100.593C52.3403 101.558 52.188 102.332 52.0094 102.966C51.8571 103.489 51.6925 103.918 51.5121 104.248C51.4841 104.304 51.4438 104.372 51.3878 104.454C51.3318 104.551 51.2915 104.619 51.2355 104.703C51.1112 104.882 50.9728 105.034 50.8345 105.144C50.6821 105.311 50.2269 105.738 50.1306 106.22C50.1096 106.33 50.0816 106.44 50.0956 106.551Z" fill="#FFB7A6" style="fill:#FFB7A6;fill:color(display-p3 1.0000 0.7176 0.6510);fill-opacity:1;"/>
<path id="Vector_63" d="M50.0955 106.551C50.1376 107.006 50.4405 107.323 50.7014 107.53C57.5968 107.572 64.522 107.64 71.4315 107.682C72.6169 107.696 73.8181 107.696 75.0035 107.696C75.1681 107.172 75.2662 106.703 75.3064 106.29C75.3747 105.572 75.2644 105.008 75.1401 104.579C74.2296 101.586 70.05 99.5014 64.5343 99.5155C64.0248 99.5155 63.5135 99.5435 62.9899 99.5715C62.8656 99.5715 62.7553 99.5855 62.631 99.5855C63.1493 101.037 63.5905 102.757 62.9164 103.281C62.3543 103.715 61.5558 102.628 59.8731 102.524C57.7299 102.391 56.9892 103.994 54.8302 103.952C53.7744 103.931 52.8289 103.526 52.0129 102.966C51.7152 103.819 51.5716 104.139 51.5156 104.249C51.4876 104.304 51.4473 104.374 51.3913 104.456C51.3352 104.552 51.295 104.621 51.2389 104.705C51.1146 104.883 50.9763 105.036 50.838 105.146C50.6856 105.312 50.2304 105.74 50.1341 106.221C50.1096 106.33 50.0815 106.44 50.0955 106.551Z" fill="#FF77A1" style="fill:#FF77A1;fill:color(display-p3 1.0000 0.4667 0.6314);fill-opacity:1;"/>
</g>
<path id="Vector_64" d="M31.1209 58.7108C31.0228 58.7949 30.909 58.8947 30.8109 58.9788C30.487 59.2608 30.1473 59.5567 29.8234 59.8387C29.7953 59.8667 29.7533 59.8948 29.7253 59.9228C25.1289 63.9141 20.5308 67.9194 15.9344 71.9125C15.4967 72.2926 15.0607 72.6744 14.6229 73.0544C14.1151 73.4922 13.6073 73.9423 13.0855 74.3942C12.126 75.2261 11.1822 76.044 10.2227 76.8759V63.8581C14.369 60.3886 18.5154 56.9332 22.66 53.4778C23.2098 53.026 23.7456 52.5618 24.2955 52.124C24.4075 52.0259 24.5073 51.9261 24.6194 51.842C24.9994 51.9699 25.4651 52.138 25.9729 52.392C26.5648 52.6599 27.2004 53.04 27.8342 53.5619C27.8762 53.5899 27.8903 53.6039 27.9183 53.6319C28.5241 54.1398 29.0179 54.6897 29.4276 55.2256C29.7096 55.6057 29.9494 55.9735 30.1473 56.3255C30.5273 57.0033 30.7829 57.6233 30.951 58.1171C31.021 58.3431 31.0788 58.555 31.1209 58.7108Z" fill="#FFB7A6" style="fill:#FFB7A6;fill:color(display-p3 1.0000 0.7176 0.6510);fill-opacity:1;"/>
<path id="Vector_65" d="M64.9902 103.17C64.682 103.389 63.6384 104.077 62.1693 103.993C60.4288 103.893 59.3677 102.785 59.1523 102.547C59.9631 100.266 60.772 97.9861 61.5827 95.7059C62.6753 94.9931 64.0849 95.0491 65.0497 95.8232C66.1493 96.7042 66.4523 98.3417 65.6958 99.6429C65.4612 100.82 65.2248 101.995 64.9902 103.17Z" fill="#FF77A1" style="fill:#FF77A1;fill:color(display-p3 1.0000 0.4667 0.6314);fill-opacity:1;"/>
<path id="Vector_66" d="M37.9919 54.8082C36.9465 55.246 34.0539 56.2933 30.4538 55.5052C26.2164 54.5788 23.8438 51.7311 23.2012 50.9062C29.1161 42.8132 35.0292 34.7185 40.9441 26.6255C41.4729 26.5712 43.3377 26.4416 45.0957 27.671C46.2443 28.4749 46.8222 29.4907 47.0743 30.0213C44.0486 38.2825 41.0194 46.5453 37.9919 54.8082Z" fill="#FFB7A6" style="fill:#FFB7A6;fill:color(display-p3 1.0000 0.7176 0.6510);fill-opacity:1;"/>
<path id="Vector_67" d="M54.9136 67.319C51.359 70.629 47.8045 73.9408 44.25 77.2509C39.2421 71.2805 34.2342 65.3102 29.2246 59.3416C32.3922 57.0841 35.5597 54.8266 38.7255 52.5691C44.1221 57.4851 49.517 62.4029 54.9136 67.319Z" fill="#232996" style="fill:#232996;fill:color(display-p3 0.1373 0.1608 0.5882);fill-opacity:1;"/>
<path id="Vector_68" d="M39.3144 53.2151C39.1848 53.5198 37.1291 58.1346 32.4137 58.8895C28.3198 59.5445 24.0054 57.0033 22.2754 52.6284C23.0406 51.3341 23.8058 50.0381 24.5709 48.7439C29.6016 49.2465 34.6322 49.7509 39.6628 50.2536C39.5455 51.2413 39.4299 52.2273 39.3144 53.2151Z" fill="#232996" style="fill:#232996;fill:color(display-p3 0.1373 0.1608 0.5882);fill-opacity:1;"/>
<path id="Vector_69" d="M65.9221 103.582C65.5246 103.445 65.3109 103.009 65.4475 102.611L66.5437 99.4082C66.6802 99.0107 67.1162 98.797 67.5137 98.9336C67.9112 99.0702 68.1248 99.5063 67.9882 99.9039L66.8921 103.109C66.7555 103.503 66.3195 103.717 65.9221 103.582Z" fill="#232996" style="fill:#232996;fill:color(display-p3 0.1373 0.1608 0.5882);fill-opacity:1;"/>
<path id="Vector_70" d="M67.8409 103.958C67.4434 103.821 67.2298 103.385 67.3646 102.988L68.4607 99.7846C68.5973 99.3871 69.0333 99.1734 69.4308 99.3082C69.8283 99.4448 70.0419 99.8809 69.9071 100.278L68.811 103.482C68.6761 103.881 68.2384 104.095 67.8409 103.958Z" fill="#232996" style="fill:#232996;fill:color(display-p3 0.1373 0.1608 0.5882);fill-opacity:1;"/>
<path id="Vector_71" d="M15.9344 71.9118C15.4967 72.2919 15.0607 72.6737 14.6229 73.0537C14.1151 73.4915 13.6073 73.9416 13.0855 74.3935C12.126 72.3759 11.1682 70.3444 10.2227 68.3146V66.1709C11.9001 67.3566 13.5933 68.5405 15.2848 69.7261C15.4967 70.4582 15.7085 71.192 15.9344 71.9118Z" fill="#F9917D" style="fill:#F9917D;fill:color(display-p3 0.9765 0.5686 0.4902);fill-opacity:1;"/>
<path id="Vector_72" d="M33.0238 59.2723C32.46 59.8923 31.8961 60.5 31.3166 61.12C31.2185 61.232 31.1187 61.3459 31.0066 61.458C26.4085 66.4651 21.7981 71.4862 17.186 76.4933C16.3262 75.3374 15.4788 74.1938 14.619 73.0519C13.1517 71.0764 11.7001 69.1166 10.2188 67.1569V62.8275C14.4912 58.5262 18.7636 54.2372 23.0518 49.9498C23.9974 49.0059 24.9272 48.0601 25.8587 47.1284C25.8727 47.1564 25.8867 47.1845 25.9007 47.2125C26.2527 47.8044 26.6064 48.3824 26.9443 48.9761C28.086 50.9078 29.2294 52.8273 30.357 54.7591C30.4691 54.957 30.5829 55.1391 30.709 55.337C30.751 55.4211 30.793 55.5069 30.8368 55.5769C31.2027 56.1829 31.5704 56.8046 31.9224 57.4106C32.2043 57.8905 32.4862 58.3563 32.7541 58.8204C32.8399 58.9763 32.9397 59.1164 33.0238 59.2723Z" fill="#232996" style="fill:#232996;fill:color(display-p3 0.1373 0.1608 0.5882);fill-opacity:1;"/>
<path id="Vector_73" d="M45.8354 54.8023C44.0056 55.5116 39.812 56.8514 34.5537 55.9477C28.3114 54.8741 24.4032 51.2996 23.0566 49.9423C32.4945 37.0699 39.439 27.6897 40.1937 26.7685C40.6717 26.187 41.1532 25.9628 41.3388 25.8875C41.9797 25.6248 42.547 25.6756 42.7904 25.7124C44.2472 26.434 45.7041 27.1555 47.1609 27.8771C46.7197 36.8527 46.2767 45.8267 45.8354 54.8023Z" fill="white" style="fill:white;fill-opacity:1;"/>
<g id="Group_23">
<path id="Vector_74" d="M53.6287 41.7822C52.0633 43.164 50.512 44.5756 48.9746 45.9574C47.889 44.4478 46.8594 43.0239 45.9576 41.6841C45.7177 41.3321 45.5199 41.0361 45.3378 40.7384C45.3097 40.7104 45.2957 40.6964 45.2817 40.6684C44.872 40.0624 44.478 39.4985 44.1121 38.9048C43.9842 38.7209 43.8582 38.5387 43.7461 38.3408C43.6621 38.2147 43.5902 38.1009 43.5062 37.9748C43.2943 37.6368 43.0825 37.311 42.8723 37.001C41.6169 34.9975 40.6153 33.2637 40.5312 30.9781C40.7571 30.5263 41.025 30.1322 41.377 29.7645C42.4766 28.6086 43.8722 28.3248 44.6198 28.2688C46.1852 30.1025 47.7646 32.1761 49.33 34.4896C49.5419 34.7856 49.7538 35.0956 49.9499 35.4213C50.0339 35.5334 50.1057 35.6612 50.1758 35.7733C50.3876 36.0973 50.5837 36.3933 50.7676 36.7191C51.8375 38.4967 52.783 40.1605 53.6287 41.7822Z" fill="#FFB7A6" style="fill:#FFB7A6;fill:color(display-p3 1.0000 0.7176 0.6510);fill-opacity:1;"/>
<path id="Vector_75" d="M49.9481 35.4231C48.4107 37.2007 46.8734 38.9626 45.3377 40.7402C45.3097 40.7122 45.2957 40.6982 45.2817 40.6701C44.872 40.0642 44.478 39.5002 44.1121 38.9065C43.9842 38.7226 43.8582 38.5405 43.7461 38.3426C45.8158 37.3706 47.8749 36.3828 49.9481 35.4231Z" fill="#F9917D" style="fill:#F9917D;fill:color(display-p3 0.9765 0.5686 0.4902);fill-opacity:1;"/>
<path id="Vector_76" d="M50.4784 34.9967C48.0883 36.9161 45.7 38.8356 43.3098 40.7569C42.2522 37.9547 41.1946 35.1543 40.137 32.3521C39.8954 30.5395 40.8444 28.8144 42.3993 28.1349C43.6583 27.5849 45.1554 27.7916 46.3058 28.6498C47.6961 30.7654 49.0864 32.881 50.4784 34.9967Z" fill="white" style="fill:white;fill-opacity:1;"/>
</g>
<g id="Group_24">
<path id="Vector_77" d="M62.7129 19.4167C62.7129 21.7093 62.7129 24 62.7129 26.2925C69.1303 29.6324 75.5477 32.9722 81.9651 36.312V9.39551C75.5477 12.7371 69.1303 16.0769 62.7129 19.4167Z" fill="#232996" style="fill:#232996;fill:color(display-p3 0.1373 0.1608 0.5882);fill-opacity:1;"/>
<path id="Vector_78" d="M57.8848 19.4181V26.2939H62.714V19.4181H57.8848Z" fill="#232996" style="fill:#232996;fill:color(display-p3 0.1373 0.1608 0.5882);fill-opacity:1;"/>
<path id="Vector_79" d="M53.627 22.8143C53.627 24.4798 54.9104 25.7635 56.4951 25.7635H57.7628C59.3475 25.7635 60.631 24.4798 60.631 22.8948C60.631 21.2293 59.3475 19.9456 57.7628 19.9456H56.4951C54.9104 19.9456 53.627 21.2293 53.627 22.8143Z" fill="#232996" style="fill:#232996;fill:color(display-p3 0.1373 0.1608 0.5882);fill-opacity:1;"/>
</g>
<path id="Vector_80" d="M61.9859 31.1968C60.2752 30.2826 58.5662 29.3684 56.8555 28.4542C57.2547 27.3245 57.6714 26.4121 58.0059 25.7466C58.4769 24.8096 58.7728 24.3613 59.2999 24.0548C60.5641 23.3157 62.4272 23.9006 62.4622 24.3315C62.4727 24.4611 62.3239 24.6502 61.6392 24.9199C61.0999 25.0863 60.5623 25.2527 60.023 25.4191C60.846 25.5312 61.669 25.645 62.4902 25.7571C62.6145 25.8797 63.5356 26.8272 63.371 28.1809C63.2694 29.0111 62.8141 29.561 62.6215 29.7677C62.4131 30.244 62.1995 30.7204 61.9859 31.1968Z" fill="#FFB7A6" style="fill:#FFB7A6;fill:color(display-p3 1.0000 0.7176 0.6510);fill-opacity:1;"/>
<path id="Vector_81" d="M48.4197 15.4584C48.9538 15.4794 49.0781 14.7106 49.7417 14.4601C50.612 14.1309 52.0163 14.8314 52.1511 15.6948C52.2281 16.1834 51.8779 16.6055 51.505 17.0469C50.7415 17.947 49.9851 18.1887 49.0658 18.7509C48.488 19.1047 47.679 19.6879 46.8263 20.6459C46.9139 20.3341 46.8403 20.0084 46.6284 19.8087C46.336 19.5338 45.8142 19.5338 45.4535 19.8683C45.8142 22.1888 45.7319 22.7457 45.5761 22.7895C45.394 22.8403 44.944 21.8403 44.044 19.8403C43.6482 18.9611 43.5257 18.6406 43.6325 18.2535C43.8093 17.609 44.4222 17.6581 45.4097 16.8437C46.6337 15.8314 46.8893 14.7876 47.5109 14.8752C47.9329 14.9295 47.9854 15.4409 48.4197 15.4584Z" fill="#232996" style="fill:#232996;fill:color(display-p3 0.1373 0.1608 0.5882);fill-opacity:1;"/>
</g>
<path id="Vector_82" d="M19.3403 16.7443C16.9887 17.2347 15.1046 19.1507 14.6371 21.5028C14.1573 23.9196 15.0941 26.1631 16.7715 27.5239C18.0883 28.6027 19.1232 29.9968 19.6782 31.5958C19.9076 32.2718 20.1457 32.9356 20.3751 33.5993C20.6588 33.5993 20.6588 33.5993 20.9407 33.5993C21.1701 32.9356 21.4082 32.2701 21.6376 31.6063C22.1716 30.0809 23.0629 28.6658 24.3586 27.6973C25.861 26.5764 26.8293 24.7795 26.8293 22.7637C26.8311 18.9335 23.3256 15.9177 19.3403 16.7443ZM20.6675 25.3697C19.3175 25.3697 18.2284 24.2804 18.2284 22.9301C18.2284 21.5798 19.3175 20.4905 20.6675 20.4905C22.0176 20.4905 23.1067 21.5798 23.1067 22.9301C23.1067 24.2804 22.0176 25.3697 20.6675 25.3697Z" fill="white" style="fill:white;fill-opacity:1;"/>
<g id="Group_25">
<path id="Vector_83" d="M70.1146 56.9117L64.1699 52.5701H75.7685L70.1146 56.9117Z" fill="white" style="fill:white;fill-opacity:1;"/>
<path id="Vector_84" d="M76.0079 52.7572V61.1357H63.9277V52.7502L70.121 57.281L76.0079 52.7572Z" fill="white" style="fill:white;fill-opacity:1;"/>
</g>
<g id="Group_26">
<g id="Group_27">
<path id="Vector_85" d="M88.905 107.914H87.2013C87.0805 107.914 86.9824 107.816 86.9824 107.695C86.9824 107.574 87.0805 107.476 87.2013 107.476H88.905C89.0258 107.476 89.1239 107.574 89.1239 107.695C89.1239 107.816 89.0258 107.914 88.905 107.914Z" fill="#232996" style="fill:#232996;fill:color(display-p3 0.1373 0.1608 0.5882);fill-opacity:1;"/>
</g>
<g id="Group_28">
<path id="Vector_86" d="M85.671 107.914H84.6134C84.4926 107.914 84.3945 107.816 84.3945 107.695C84.3945 107.574 84.4926 107.476 84.6134 107.476H85.671C85.7918 107.476 85.8899 107.574 85.8899 107.695C85.8899 107.816 85.7918 107.914 85.671 107.914Z" fill="#232996" style="fill:#232996;fill:color(display-p3 0.1373 0.1608 0.5882);fill-opacity:1;"/>
</g>
<g id="Group_29">
<path id="Vector_87" d="M82.2091 107.914H6.44153C6.32071 107.914 6.22266 107.816 6.22266 107.695C6.22266 107.574 6.32071 107.476 6.44153 107.476H82.2091C82.3299 107.476 82.428 107.574 82.428 107.695C82.428 107.816 82.3299 107.914 82.2091 107.914Z" fill="#232996" style="fill:#232996;fill:color(display-p3 0.1373 0.1608 0.5882);fill-opacity:1;"/>
</g>
<g id="Group_30">
<path id="Vector_88" d="M5.38153 107.914H4.01575C3.89493 107.914 3.79688 107.816 3.79688 107.695C3.79688 107.574 3.89493 107.476 4.01575 107.476H5.38153C5.50235 107.476 5.6004 107.574 5.6004 107.695C5.6004 107.816 5.50235 107.914 5.38153 107.914Z" fill="#232996" style="fill:#232996;fill:color(display-p3 0.1373 0.1608 0.5882);fill-opacity:1;"/>
</g>
<g id="Group_31">
<path id="Vector_89" d="M2.69621 107.914H0.537234C0.416415 107.914 0.318359 107.816 0.318359 107.695C0.318359 107.574 0.416415 107.476 0.537234 107.476H2.69621C2.81703 107.476 2.91508 107.574 2.91508 107.695C2.91508 107.816 2.81703 107.914 2.69621 107.914Z" fill="#232996" style="fill:#232996;fill:color(display-p3 0.1373 0.1608 0.5882);fill-opacity:1;"/>
</g>
</g>
<g id="Group_32">
<g id="Group_33">
<path id="Vector_90" d="M60.3283 7.51143C60.3283 7.8617 60.0446 8.14367 59.6944 8.14367C59.3442 8.14367 59.0605 7.85995 59.0605 7.51143C59.0605 7.33629 59.1306 7.17692 59.2461 7.06309C59.3617 6.9475 59.5193 6.87744 59.6944 6.87744C59.8695 6.87744 60.0288 6.9475 60.1427 7.06309C60.2582 7.17692 60.3283 7.33629 60.3283 7.51143Z" fill="white" style="fill:white;fill-opacity:1;"/>
</g>
<g id="Group_34">
<path id="Vector_91" d="M63.3219 4.73916C62.3536 3.77066 61.0649 3.2365 59.6956 3.2365C58.3263 3.2365 57.0376 3.77066 56.0693 4.73916L55.4004 4.07015C56.5473 2.92301 58.0724 2.29077 59.6956 2.29077C61.3188 2.29077 62.8439 2.92301 63.9908 4.07015L63.3219 4.73916Z" fill="white" style="fill:white;fill-opacity:1;"/>
</g>
<g id="Group_35">
<path id="Vector_92" d="M62.3448 5.71741C61.6374 5.00986 60.6971 4.62106 59.6973 4.62106C58.6975 4.62106 57.7572 5.00986 57.0497 5.71741L56.3809 5.04839C57.2669 4.16221 58.4453 3.67358 59.6973 3.67358C60.9492 3.67358 62.1294 4.16221 63.0137 5.04839L62.3448 5.71741Z" fill="white" style="fill:white;fill-opacity:1;"/>
</g>
<g id="Group_36">
<path id="Vector_93" d="M61.173 6.88781C60.7773 6.492 60.2537 6.27483 59.6934 6.27483C59.1348 6.27483 58.6095 6.492 58.2138 6.88781L57.5449 6.21879C58.1193 5.64435 58.8809 5.3291 59.6934 5.3291C60.5059 5.3291 61.2675 5.6461 61.8419 6.21879L61.173 6.88781Z" fill="white" style="fill:white;fill-opacity:1;"/>
</g>
</g>
<g id="Group_37">
<g id="Group_38">
<path id="Vector_94" d="M73.0706 6.83933H65.7129V3.2981H73.0706V6.83933ZM66.1489 6.40149H72.6311V3.73593H66.1489V6.40149Z" fill="white" style="fill:white;fill-opacity:1;"/>
</g>
<path id="Vector_95" d="M70.9745 3.51587H65.9316V6.50368H70.9745V3.51587Z" fill="white" style="fill:white;fill-opacity:1;"/>
</g>
</g>
</svg>
