<svg width="43" height="115" viewBox="0 0 43 115" fill="none" xmlns="http://www.w3.org/2000/svg">
<g id="Group">
<path id="Vector" d="M20.7876 4.77146C19.5824 7.11054 17.0032 7.0398 15.5542 6.06643C15.2047 5.83163 14.9212 5.54452 14.7384 5.2259C13.7974 3.58617 15.282 0.110249 18.5808 0.00176561C20.4612 -0.0597578 20.9151 1.49824 20.9573 2.84967C20.9894 3.86971 20.7876 4.77146 20.7876 4.77146Z" fill="#121633" style="fill:#121633;fill:color(display-p3 0.0706 0.0863 0.2000);fill-opacity:1;"/>
<path id="Vector_2" d="M20.7871 4.77124C19.5819 7.11032 17.0026 7.03958 15.5537 6.06621C17.2041 2.99687 19.7551 2.76594 20.9571 2.84975C20.9889 3.86949 20.7871 4.77124 20.7871 4.77124Z" fill="#FDA42B" style="fill:#FDA42B;fill:color(display-p3 0.9922 0.6431 0.1686);fill-opacity:1;"/>
<path id="Vector_3" d="M23.044 3.41215C23.044 3.41215 16.3311 2.35882 14.656 9.10321C13.4048 14.1404 13.1536 16.4786 13.1536 16.4786C11.8551 24.7373 18.65 28.2691 27.5664 22.8806C27.5664 22.8806 30.4328 13.0042 29.0501 8.34799C27.6556 3.65349 23.044 3.41215 23.044 3.41215Z" fill="#121633" style="fill:#121633;fill:color(display-p3 0.0706 0.0863 0.2000);fill-opacity:1;"/>
<path id="Vector_4" d="M21.491 114.021C33.3601 114.021 42.982 112.826 42.982 111.352C42.982 109.878 33.3601 108.683 21.491 108.683C9.62184 108.683 0 109.878 0 111.352C0 112.826 9.62184 114.021 21.491 114.021Z" fill="#AAB4BC" style="fill:#AAB4BC;fill:color(display-p3 0.6667 0.7059 0.7373);fill-opacity:1;"/>
<g id="Group_2">
<g id="Group_3">
<path id="Vector_5" d="M34.4091 52.2039C33.5766 52.2039 32.7602 51.7994 32.2671 51.0525C32.2255 50.9894 31.2384 49.4927 30.178 47.6868C28.1245 44.1904 27.6689 42.7349 27.5048 41.9446C26.8578 38.828 25.1102 26.8969 25.0362 26.3905C24.8311 24.9891 25.8009 23.6867 27.2025 23.4819C28.6036 23.2772 29.906 24.2467 30.1111 25.648C30.1289 25.7705 31.9104 37.9337 32.5266 40.902C32.7501 41.9785 34.786 45.5584 36.547 48.2265C37.3272 49.4086 37.0017 50.9993 35.8197 51.7794C35.3849 52.0662 34.8942 52.2039 34.4091 52.2039Z" fill="#716D00" style="fill:#716D00;fill:color(display-p3 0.4431 0.4275 0.0000);fill-opacity:1;"/>
</g>
<g id="Group_4">
<g id="Group_5">
<g id="Group_6">
<g id="Group_7">
<g id="Group_8">
<path id="Vector_6" d="M32.4794 41.0237C32.5186 41.0358 32.5522 41.0656 32.5674 41.1075C32.5932 41.1785 32.557 41.257 32.4859 41.2828C32.4369 41.301 31.2733 41.7194 30.1635 41.5215C30.0895 41.5087 30.0396 41.4371 30.0529 41.3628C30.0663 41.2885 30.1374 41.2388 30.2117 41.2522C31.2472 41.4371 32.3807 41.0302 32.392 41.026C32.4212 41.015 32.4518 41.015 32.4794 41.0237Z" fill="#4C4702" style="fill:#4C4702;fill:color(display-p3 0.2980 0.2784 0.0078);fill-opacity:1;"/>
</g>
</g>
</g>
</g>
</g>
<g id="Group_9">
<g id="Group_10">
<g id="Group_11">
<g id="Group_12">
<g id="Group_13">
<path id="Vector_7" d="M32.3057 41.0997C32.3199 41.1041 32.3336 41.111 32.3461 41.1202C32.407 41.1651 32.4201 41.2506 32.3752 41.3116C32.0245 41.7886 31.3736 42.1218 31.3462 42.1358C31.2788 42.1699 31.1964 42.1429 31.1623 42.0757C31.1281 42.0082 31.1551 41.9259 31.2223 41.8917C31.2285 41.8885 31.8429 41.5734 32.1547 41.1496C32.1903 41.1012 32.2516 41.083 32.3057 41.0997Z" fill="#4C4702" style="fill:#4C4702;fill:color(display-p3 0.2980 0.2784 0.0078);fill-opacity:1;"/>
</g>
</g>
</g>
</g>
</g>
<g id="Group_14">
<g id="Group_15">
<g id="Group_16">
<path id="Vector_8" d="M31.6697 50.0751C31.6448 50.0727 31.6201 50.0653 31.5969 50.0516C31.5137 50.0029 31.4861 49.8959 31.5348 49.8126C31.5966 49.7074 33.0788 47.2281 35.4479 46.7796C35.5427 46.7614 35.634 46.8238 35.6518 46.9187C35.6696 47.0135 35.6075 47.1047 35.5127 47.1225C33.3008 47.541 31.8498 49.9651 31.8356 49.9895C31.8008 50.0498 31.7348 50.081 31.6697 50.0751Z" fill="#4C4702" style="fill:#4C4702;fill:color(display-p3 0.2980 0.2784 0.0078);fill-opacity:1;"/>
</g>
</g>
<g id="Group_17">
<g id="Group_18">
<path id="Vector_9" d="M35.2915 50.0458C35.249 50.0419 35.2077 50.0226 35.177 49.9881C35.1678 49.978 34.2601 48.9559 33.5807 47.9055C33.5284 47.8247 33.5516 47.7165 33.6324 47.6642C33.7136 47.6119 33.8215 47.6351 33.8738 47.7159C34.5389 48.744 35.4288 49.7459 35.4377 49.756C35.5019 49.8279 35.4954 49.9385 35.4234 50.0024C35.386 50.0357 35.3381 50.0499 35.2915 50.0458Z" fill="#4C4702" style="fill:#4C4702;fill:color(display-p3 0.2980 0.2784 0.0078);fill-opacity:1;"/>
</g>
</g>
<g id="Group_19">
<g id="Group_20">
<path id="Vector_10" d="M35.6967 48.326C35.6842 48.4627 35.5632 48.5638 35.4265 48.5513C35.2898 48.5388 35.1888 48.4179 35.2012 48.2811C35.2137 48.1444 35.3347 48.0434 35.4714 48.0559C35.6081 48.0683 35.7092 48.1893 35.6967 48.326Z" fill="#4C4702" style="fill:#4C4702;fill:color(display-p3 0.2980 0.2784 0.0078);fill-opacity:1;"/>
</g>
</g>
</g>
<g id="Group_21">
<g id="Group_22">
<g id="Group_23">
<g id="Group_24">
<g id="Group_25">
<g id="Group_26">
<g id="Group_27">
<g id="Group_28">
<g id="Group_29">
<g id="Group_30">
<g id="Group_31">
<g id="Group_32">
<g id="Group_33">
<g id="Group_34">
<g id="Group_35">
<g id="Group_36">
<path id="Vector_11" d="M35.6932 48.7668C36.0712 48.7059 36.567 49.1487 37.0387 49.33C37.6607 49.569 38.52 50.1197 38.923 50.5578C39.5284 51.2153 41.2041 53.2488 41.1402 53.988C41.076 54.7272 39.4946 53.0853 39.1638 52.7548C38.8327 52.4246 38.4861 52.3233 38.4861 52.3233C38.4861 52.3233 41.8226 56.3713 41.7061 56.9521C41.5896 57.5329 39.4601 55.4197 38.9373 54.8936C38.9373 54.8936 41.282 58.0833 41.0918 58.4287C40.7102 59.1215 38.0043 55.6548 38.0043 55.6548C38.0043 55.6548 39.8402 58.4388 39.3739 58.7271C38.8802 59.0326 36.9216 56.0456 36.9216 56.0456C36.9216 56.0456 37.8533 58.0352 37.5647 58.4676C37.2762 58.9 34.9264 54.8683 34.5926 54.2344C34.2392 53.5627 33.2409 52.0641 33.0313 51.1514C32.8887 50.5308 34.496 48.9597 35.6932 48.7668Z" fill="#FF9D7D" style="fill:#FF9D7D;fill:color(display-p3 1.0000 0.6157 0.4902);fill-opacity:1;"/>
</g>
</g>
</g>
</g>
</g>
</g>
</g>
</g>
</g>
</g>
</g>
</g>
</g>
</g>
</g>
<g id="Group_37">
<g id="Group_38">
<g id="Group_39">
<g id="Group_40">
<g id="Group_41">
<g id="Group_42">
<g id="Group_43">
<g id="Group_44">
<g id="Group_45">
<g id="Group_46">
<path id="Vector_12" d="M35.92 55.2345C35.939 55.305 36.0077 55.3522 36.082 55.3421C37.8213 55.1043 38.7777 53.6539 38.8175 53.5924C38.8618 53.5243 38.8422 53.4331 38.7738 53.3891C38.7058 53.3451 38.6148 53.3645 38.5705 53.4325C38.5613 53.4465 37.6444 54.8315 36.0421 55.0505C35.9616 55.0615 35.9054 55.1358 35.9164 55.2161C35.9173 55.2226 35.9185 55.2286 35.92 55.2345Z" fill="#E0693E" style="fill:#E0693E;fill:color(display-p3 0.8784 0.4118 0.2431);fill-opacity:1;"/>
</g>
</g>
</g>
</g>
</g>
</g>
</g>
</g>
</g>
</g>
<g id="Group_47">
<g id="Group_48">
<g id="Group_49">
<g id="Group_50">
<g id="Group_51">
<g id="Group_52">
<g id="Group_53">
<g id="Group_54">
<g id="Group_55">
<g id="Group_56">
<path id="Vector_13" d="M35.003 51.6423C35.0182 51.6985 35.0657 51.7428 35.1273 51.7502C36.8704 51.9651 37.2702 53.2833 37.274 53.2963C37.2966 53.3745 37.3781 53.4194 37.4562 53.3968C37.5335 53.3745 37.5781 53.2949 37.5576 53.2176C37.5573 53.2167 37.557 53.2158 37.5567 53.2149C37.5389 53.1531 37.0975 51.6967 35.1632 51.4584C35.0827 51.4486 35.0093 51.5059 34.9992 51.5865C34.9968 51.6058 34.9983 51.6245 35.003 51.6423Z" fill="#E0693E" style="fill:#E0693E;fill:color(display-p3 0.8784 0.4118 0.2431);fill-opacity:1;"/>
</g>
</g>
</g>
</g>
</g>
</g>
</g>
</g>
</g>
</g>
</g>
<g id="Group_57">
<g id="Group_58">
<g id="Group_59">
<g id="Group_60">
<g id="Group_61">
<path id="Vector_14" d="M14.0402 20.0118C14.0402 20.0118 11.0687 18.6725 8.97983 19.8335C6.89101 20.9944 6.07129 25.1479 6.07129 25.1479H11.7843L14.0402 20.0118Z" fill="#353C6D" style="fill:#353C6D;fill:color(display-p3 0.2078 0.2353 0.4275);fill-opacity:1;"/>
</g>
</g>
</g>
</g>
<g id="Group_62">
<g id="Group_63">
<g id="Group_64">
<g id="Group_65">
<path id="Vector_15" d="M8.50628 29.0599C8.50628 29.0599 3.93215 24.7621 2.16372 29.1368C0.258579 33.8498 2.6146 37.06 2.6146 37.06L6.25013 34.1963L8.50628 29.0599Z" fill="#353C6D" style="fill:#353C6D;fill:color(display-p3 0.2078 0.2353 0.4275);fill-opacity:1;"/>
</g>
</g>
</g>
</g>
<g id="Group_66">
<g id="Group_67">
<g id="Group_68">
<g id="Group_69">
<path id="Vector_16" d="M20.4722 19.9235C20.4722 19.9235 13.6508 15.2596 6.85647 24.0592C0.0621474 32.8592 2.32157 44.5528 7.10197 47.9606C11.8824 51.3685 18.1028 48.4026 18.1028 48.4026L20.4722 19.9235Z" fill="#121633" style="fill:#121633;fill:color(display-p3 0.0706 0.0863 0.2000);fill-opacity:1;"/>
</g>
</g>
</g>
</g>
</g>
<g id="Group_70">
<g id="Group_71">
<g id="Group_72">
<g id="Group_73">
<g id="Group_74">
<g id="Group_75">
<g id="Group_76">
<g id="Group_77">
<g id="Group_78">
<g id="Group_79">
<g id="Group_80">
<path id="Vector_17" d="M30.1443 105.12H26.5079C26.0172 102.699 25.5562 99.8184 25.1323 97.0169C24.7742 94.6519 24.4434 92.3426 24.1429 90.4137C23.6002 86.9261 23.0854 83.5697 22.839 80.4698C22.708 78.8178 22.653 77.239 22.7098 75.7524C22.7163 75.5847 22.7243 75.4189 22.7332 75.2539C22.7921 74.2063 22.9107 73.2055 23.1021 72.2604C23.207 71.74 23.3342 71.2353 23.4855 70.7494L29.8783 70.2946L29.8943 72.398L29.9065 74.0092L29.9172 75.4335L29.9419 78.6071L30.0804 96.7158L30.1443 105.12Z" fill="#FF9D7D" style="fill:#FF9D7D;fill:color(display-p3 1.0000 0.6157 0.4902);fill-opacity:1;"/>
</g>
</g>
</g>
</g>
</g>
</g>
</g>
</g>
</g>
</g>
<path id="Vector_18" d="M25.6494 100.359C25.922 102.035 26.207 103.663 26.503 105.123H30.1394L30.1032 100.359C28.6991 100.493 27.0395 100.438 25.6494 100.359Z" fill="#F2F7F9" style="fill:#F2F7F9;fill:color(display-p3 0.9490 0.9686 0.9765);fill-opacity:1;"/>
<g id="Group_81">
<path id="Vector_19" d="M29.935 78.2476C28.3229 79.1169 24.9513 79.9726 22.8351 80.4719C22.7041 78.82 22.6491 77.2412 22.7058 75.7545L29.9133 75.4356L29.935 78.2476Z" fill="#E0693E" style="fill:#E0693E;fill:color(display-p3 0.8784 0.4118 0.2431);fill-opacity:1;"/>
</g>
<g id="Group_82">
<g id="Group_83">
<g id="Group_84">
<g id="Group_85">
<g id="Group_86">
<g id="Group_87">
<g id="Group_88">
<g id="Group_89">
<g id="Group_90">
<g id="Group_91">
<g id="Group_92">
<g id="Group_93">
<path id="Vector_20" d="M40.3655 111.797H25.1112C24.9977 111.591 24.9359 111.298 24.9106 110.949C24.8152 109.659 25.2266 107.6 25.4281 106.301C25.4527 106.15 25.4735 106.008 25.4899 105.88C25.5178 105.663 25.5351 105.482 25.5351 105.35C25.5351 104.29 26.4731 104.472 26.4731 104.472C28.0168 105.985 29.7647 103.715 30.7854 104.46C30.7854 104.46 31.2249 104.775 32.4361 105.864C33.6464 106.954 35.7066 107.673 37.4599 108.407C39.7235 109.353 40.3655 110.298 40.4909 110.949C40.5899 111.465 40.3655 111.797 40.3655 111.797Z" fill="#121633" style="fill:#121633;fill:color(display-p3 0.0706 0.0863 0.2000);fill-opacity:1;"/>
</g>
</g>
</g>
</g>
</g>
</g>
</g>
</g>
</g>
</g>
</g>
<g id="Group_94">
<g id="Group_95">
<g id="Group_96">
<g id="Group_97">
<g id="Group_98">
<path id="Vector_21" d="M40.3611 111.801H25.1069C24.9933 111.595 24.9315 111.303 24.9062 110.954H40.4865C40.5855 111.47 40.3611 111.801 40.3611 111.801Z" fill="#353C6D" style="fill:#353C6D;fill:color(display-p3 0.2078 0.2353 0.4275);fill-opacity:1;"/>
</g>
</g>
</g>
</g>
</g>
<g id="Group_99">
<g id="Group_100">
<g id="Group_101">
<g id="Group_102">
<g id="Group_103">
<g id="Group_104">
<g id="Group_105">
<g id="Group_106">
<g id="Group_107">
<g id="Group_108">
<g id="Group_109">
<g id="Group_110">
<path id="Vector_22" d="M26.6671 111.801H26.2142C26.6662 111.285 27.0895 110.492 27.0339 109.359C26.9605 107.852 26.056 106.836 25.4277 106.306C25.4524 106.155 25.4732 106.013 25.4896 105.885C26.1669 106.402 27.3082 107.536 27.3974 109.341C27.45 110.423 27.0948 111.23 26.6671 111.801Z" fill="#353C6D" style="fill:#353C6D;fill:color(display-p3 0.2078 0.2353 0.4275);fill-opacity:1;"/>
</g>
</g>
</g>
</g>
</g>
</g>
</g>
</g>
</g>
</g>
</g>
</g>
<g id="Group_111">
<g id="Group_112">
<g id="Group_113">
<g id="Group_114">
<g id="Group_115">
<g id="Group_116">
<g id="Group_117">
<g id="Group_118">
<g id="Group_119">
<g id="Group_120">
<g id="Group_121">
<path id="Vector_23" d="M32.1165 106.662C32.0035 106.662 31.901 106.586 31.8728 106.472C31.8392 106.337 31.9212 106.201 32.0561 106.167L33.009 105.93C33.1436 105.897 33.2801 105.979 33.3136 106.114C33.3472 106.248 33.2649 106.385 33.1303 106.418L32.1774 106.655C32.1569 106.66 32.1364 106.662 32.1165 106.662Z" fill="#F2F7F9" style="fill:#F2F7F9;fill:color(display-p3 0.9490 0.9686 0.9765);fill-opacity:1;"/>
</g>
</g>
</g>
</g>
</g>
</g>
</g>
</g>
</g>
</g>
</g>
<g id="Group_122">
<g id="Group_123">
<g id="Group_124">
<g id="Group_125">
<g id="Group_126">
<g id="Group_127">
<g id="Group_128">
<g id="Group_129">
<g id="Group_130">
<g id="Group_131">
<g id="Group_132">
<path id="Vector_24" d="M31.1848 105.919C31.0719 105.919 30.9694 105.843 30.9411 105.728C30.9075 105.594 30.9896 105.457 31.1245 105.424L32.0774 105.187C32.212 105.154 32.3484 105.236 32.382 105.371C32.4156 105.505 32.3333 105.642 32.1986 105.675L31.2458 105.912C31.2253 105.917 31.205 105.919 31.1848 105.919Z" fill="#F2F7F9" style="fill:#F2F7F9;fill:color(display-p3 0.9490 0.9686 0.9765);fill-opacity:1;"/>
</g>
</g>
</g>
</g>
</g>
</g>
</g>
</g>
</g>
</g>
</g>
<g id="Group_133">
<g id="Group_134">
<g id="Group_135">
<g id="Group_136">
<g id="Group_137">
<g id="Group_138">
<g id="Group_139">
<g id="Group_140">
<g id="Group_141">
<g id="Group_142">
<g id="Group_143">
<path id="Vector_25" d="M33.13 107.321C33.0174 107.321 32.9148 107.245 32.8863 107.13C32.853 106.996 32.9351 106.859 33.0697 106.826L34.0226 106.589C34.1572 106.556 34.2936 106.638 34.3269 106.773C34.3605 106.907 34.2782 107.044 34.1435 107.077L33.1907 107.314C33.1705 107.319 33.1499 107.321 33.13 107.321Z" fill="#F2F7F9" style="fill:#F2F7F9;fill:color(display-p3 0.9490 0.9686 0.9765);fill-opacity:1;"/>
</g>
</g>
</g>
</g>
</g>
</g>
</g>
</g>
</g>
</g>
</g>
<g id="Group_144">
<g id="Group_145">
<g id="Group_146">
<g id="Group_147">
<g id="Group_148">
<g id="Group_149">
<g id="Group_150">
<g id="Group_151">
<g id="Group_152">
<g id="Group_153">
<g id="Group_154">
<path id="Vector_26" d="M34.0832 107.854C33.9706 107.854 33.8678 107.777 33.8395 107.663C33.806 107.528 33.8883 107.392 34.0229 107.358L34.9758 107.122C35.1104 107.088 35.2468 107.17 35.2801 107.305C35.3137 107.44 35.2314 107.576 35.0968 107.609L34.1439 107.846C34.1237 107.851 34.1032 107.854 34.0832 107.854Z" fill="#F2F7F9" style="fill:#F2F7F9;fill:color(display-p3 0.9490 0.9686 0.9765);fill-opacity:1;"/>
</g>
</g>
</g>
</g>
</g>
</g>
</g>
</g>
</g>
</g>
</g>
<g id="Group_155">
<g id="Group_156">
<g id="Group_157">
<g id="Group_158">
<g id="Group_159">
<g id="Group_160">
<g id="Group_161">
<g id="Group_162">
<g id="Group_163">
<g id="Group_164">
<g id="Group_165">
<path id="Vector_27" d="M35.1232 108.348C35.0102 108.348 34.9077 108.272 34.8795 108.158C34.8462 108.023 34.9282 107.887 35.0629 107.853L36.0157 107.616C36.1504 107.583 36.2868 107.665 36.3204 107.8C36.3537 107.934 36.2716 108.071 36.137 108.104L35.1841 108.341C35.1636 108.346 35.1431 108.348 35.1232 108.348Z" fill="#F2F7F9" style="fill:#F2F7F9;fill:color(display-p3 0.9490 0.9686 0.9765);fill-opacity:1;"/>
</g>
</g>
</g>
</g>
</g>
</g>
</g>
</g>
</g>
</g>
</g>
<g id="Group_166">
<g id="Group_167">
<g id="Group_168">
<g id="Group_169">
<g id="Group_170">
<g id="Group_171">
<g id="Group_172">
<g id="Group_173">
<g id="Group_174">
<g id="Group_175">
<g id="Group_176">
<path id="Vector_28" d="M36.2561 108.765C36.1435 108.765 36.0406 108.689 36.0124 108.574C35.9788 108.44 36.0611 108.303 36.1958 108.27L37.1486 108.033C37.2833 108 37.4197 108.082 37.453 108.217C37.4866 108.351 37.4045 108.488 37.2696 108.521L36.3167 108.758C36.2965 108.763 36.276 108.765 36.2561 108.765Z" fill="#F2F7F9" style="fill:#F2F7F9;fill:color(display-p3 0.9490 0.9686 0.9765);fill-opacity:1;"/>
</g>
</g>
</g>
</g>
</g>
</g>
</g>
</g>
</g>
</g>
</g>
</g>
</g>
<g id="Group_177">
<g id="Group_178">
<g id="Group_179">
<g id="Group_180">
<g id="Group_181">
<g id="Group_182">
<g id="Group_183">
<g id="Group_184">
<g id="Group_185">
<g id="Group_186">
<g id="Group_187">
<path id="Vector_29" d="M17.7069 72.7319C17.6951 73.2428 17.6766 73.7525 17.6508 74.2631C17.6234 74.8091 17.5881 75.3551 17.5456 75.9038C17.4207 77.5245 17.2335 79.1618 17.0005 80.8524C16.6043 83.7208 16.0752 86.7426 15.4918 90.0957C15.1307 92.1718 14.7942 94.5786 14.4254 97.0203C14.0453 99.5359 13.6303 102.088 13.1168 104.354L8.81934 104.52L9.20304 96.712L9.98561 80.7998L10.2121 76.1938L10.2504 75.4113L10.388 72.5996L10.5016 70.2941H17.7055C17.7251 71.1118 17.7251 71.9226 17.7069 72.7319Z" fill="#FF9D7D" style="fill:#FF9D7D;fill:color(display-p3 1.0000 0.6157 0.4902);fill-opacity:1;"/>
</g>
</g>
</g>
</g>
</g>
</g>
</g>
</g>
</g>
</g>
<path id="Vector_30" d="M9.03791 100.037L8.81738 104.522L13.1148 104.356C13.4007 103.094 13.6852 101.573 13.9211 100.189C11.8228 100.447 10.241 100.28 9.03791 100.037Z" fill="#F2F7F9" style="fill:#F2F7F9;fill:color(display-p3 0.9490 0.9686 0.9765);fill-opacity:1;"/>
<g id="Group_188">
<path id="Vector_31" d="M17.5433 75.9061C17.4185 77.5268 17.2835 78.7814 17.0505 80.4722C15.1926 80.4868 11.4727 80.1438 10.0137 79.9173L10.2098 76.1965L17.5433 75.9061Z" fill="#E0693E" style="fill:#E0693E;fill:color(display-p3 0.8784 0.4118 0.2431);fill-opacity:1;"/>
</g>
<g id="Group_189">
<g id="Group_190">
<g id="Group_191">
<g id="Group_192">
<g id="Group_193">
<g id="Group_194">
<g id="Group_195">
<g id="Group_196">
<g id="Group_197">
<g id="Group_198">
<g id="Group_199">
<g id="Group_200">
<path id="Vector_32" d="M14.7543 110.72C14.7543 110.76 14.7534 110.798 14.7526 110.836C14.7487 111.012 14.7413 111.17 14.7338 111.305C14.716 111.603 14.6943 111.787 14.6943 111.787H4.79706C4.79706 111.787 4.74802 111.404 4.78576 110.836C4.85055 109.824 5.18641 108.227 6.5533 107.172C8.42426 105.725 7.70173 106.027 8.08573 105.368C8.12913 105.294 8.46587 104.174 8.50154 104.097C8.82312 103.412 9.11945 103.088 10.8929 103.088C13.2448 103.088 13.4516 104.229 13.7028 104.83C13.8062 105.08 13.9483 105.604 14.0942 106.227C14.1534 106.477 14.2128 106.745 14.2711 107.017C14.4161 107.698 14.5513 108.411 14.6438 108.979C14.7413 109.588 14.7618 110.214 14.7543 110.72Z" fill="#121633" style="fill:#121633;fill:color(display-p3 0.0706 0.0863 0.2000);fill-opacity:1;"/>
</g>
</g>
</g>
</g>
</g>
</g>
</g>
</g>
</g>
</g>
</g>
<g id="Group_201">
<g id="Group_202">
<g id="Group_203">
<g id="Group_204">
<g id="Group_205">
<g id="Group_206">
<g id="Group_207">
<g id="Group_208">
<g id="Group_209">
<g id="Group_210">
<g id="Group_211">
<g id="Group_212">
<path id="Vector_33" d="M14.7521 110.719C14.7521 110.758 14.7512 110.797 14.7503 110.835C14.7464 111.01 14.739 111.168 14.7316 111.304C14.2489 110.965 13.9047 110.518 13.7035 109.971C13.091 108.303 14.0328 106.301 14.0724 106.216L14.092 106.226C14.1511 106.476 14.2106 106.743 14.2688 107.015C14.0459 107.696 13.7891 108.841 14.1458 109.81C14.2751 110.163 14.4784 110.467 14.7521 110.719Z" fill="#353C6D" style="fill:#353C6D;fill:color(display-p3 0.2078 0.2353 0.4275);fill-opacity:1;"/>
</g>
</g>
</g>
</g>
</g>
</g>
</g>
</g>
</g>
</g>
</g>
</g>
<g id="Group_213">
<g id="Group_214">
<g id="Group_215">
<path id="Vector_34" d="M14.7506 110.834C14.7375 111.398 14.6923 111.786 14.6923 111.786H4.7951C4.7951 111.786 4.74606 111.403 4.78381 110.834H14.7506Z" fill="#353C6D" style="fill:#353C6D;fill:color(display-p3 0.2078 0.2353 0.4275);fill-opacity:1;"/>
</g>
</g>
</g>
<g id="Group_216">
<g id="Group_217">
<g id="Group_218">
<g id="Group_219">
<g id="Group_220">
<g id="Group_221">
<g id="Group_222">
<g id="Group_223">
<g id="Group_224">
<g id="Group_225">
<g id="Group_226">
<path id="Vector_35" d="M11.2132 106.172C11.1897 106.172 11.166 106.169 11.1422 106.163C9.88347 105.837 8.85778 106.113 8.84768 106.116C8.69729 106.157 8.54184 106.069 8.50053 105.919C8.45892 105.769 8.54719 105.613 8.69729 105.572C8.74484 105.559 9.8802 105.253 11.2836 105.616C11.4346 105.655 11.5253 105.81 11.486 105.96C11.4534 106.088 11.3386 106.172 11.2132 106.172Z" fill="#F2F7F9" style="fill:#F2F7F9;fill:color(display-p3 0.9490 0.9686 0.9765);fill-opacity:1;"/>
</g>
</g>
</g>
</g>
</g>
</g>
</g>
</g>
</g>
</g>
</g>
<g id="Group_227">
<g id="Group_228">
<g id="Group_229">
<g id="Group_230">
<g id="Group_231">
<g id="Group_232">
<g id="Group_233">
<g id="Group_234">
<g id="Group_235">
<g id="Group_236">
<g id="Group_237">
<path id="Vector_36" d="M11.3431 105.12C11.3196 105.12 11.2958 105.117 11.2721 105.111C10.0134 104.785 8.98767 105.061 8.97756 105.064C8.82717 105.105 8.67173 105.017 8.63041 104.867C8.5888 104.717 8.67708 104.561 8.82717 104.52C8.87472 104.507 10.0104 104.201 11.4135 104.565C11.5645 104.604 11.6552 104.758 11.6159 104.908C11.5832 105.036 11.4688 105.12 11.3431 105.12Z" fill="#F2F7F9" style="fill:#F2F7F9;fill:color(display-p3 0.9490 0.9686 0.9765);fill-opacity:1;"/>
</g>
</g>
</g>
</g>
</g>
</g>
</g>
</g>
</g>
</g>
</g>
<g id="Group_238">
<g id="Group_239">
<g id="Group_240">
<g id="Group_241">
<g id="Group_242">
<g id="Group_243">
<g id="Group_244">
<g id="Group_245">
<g id="Group_246">
<g id="Group_247">
<g id="Group_248">
<path id="Vector_37" d="M10.7863 107.069C10.7629 107.069 10.7391 107.066 10.7153 107.059C9.46463 106.735 8.43062 107.01 8.42022 107.012C8.27013 107.053 8.11498 106.965 8.07367 106.815C8.03236 106.665 8.12033 106.51 8.27043 106.468C8.31798 106.455 9.45364 106.15 10.8568 106.513C11.0078 106.552 11.0984 106.706 11.0592 106.857C11.0265 106.984 10.9121 107.069 10.7863 107.069Z" fill="#F2F7F9" style="fill:#F2F7F9;fill:color(display-p3 0.9490 0.9686 0.9765);fill-opacity:1;"/>
</g>
</g>
</g>
</g>
</g>
</g>
</g>
</g>
</g>
</g>
</g>
<g id="Group_249">
<g id="Group_250">
<g id="Group_251">
<g id="Group_252">
<g id="Group_253">
<g id="Group_254">
<g id="Group_255">
<g id="Group_256">
<g id="Group_257">
<g id="Group_258">
<g id="Group_259">
<path id="Vector_38" d="M10.2939 108.081C10.2704 108.081 10.2466 108.078 10.2228 108.072C8.97215 107.748 7.93814 108.022 7.92803 108.025C7.77794 108.066 7.6225 107.977 7.58148 107.828C7.54017 107.677 7.62815 107.522 7.77824 107.481C7.82579 107.468 8.96115 107.162 10.3646 107.526C10.5156 107.565 10.6062 107.719 10.567 107.87C10.5337 107.997 10.4193 108.081 10.2939 108.081Z" fill="#F2F7F9" style="fill:#F2F7F9;fill:color(display-p3 0.9490 0.9686 0.9765);fill-opacity:1;"/>
</g>
</g>
</g>
</g>
</g>
</g>
</g>
</g>
</g>
</g>
</g>
</g>
</g>
<g id="Group_260">
<g id="Group_261">
<g id="Group_262">
<path id="Vector_39" d="M28.9479 33.7764C28.9158 34.1193 28.8917 34.5423 28.8718 35.0309C28.865 35.1985 28.8584 35.3733 28.8522 35.5549C28.8008 37.0745 28.7731 39.0724 28.6807 41.1464C28.6724 41.3321 28.6632 41.5197 28.6528 41.7063C28.4295 46.1717 28.8376 47.8509 29.221 49.5739C30.0868 53.4644 14.4456 52.3909 12.067 51.4077C10.2605 50.6611 9.71217 41.4879 10.1375 35.7849C10.1518 35.5923 10.1648 35.4024 10.1788 35.2167C10.292 33.6649 10.3732 32.3913 10.358 31.6489C10.284 28.1976 10.6445 24.5077 11.1219 22.9179C11.5989 21.3284 17.3203 19.9336 17.3203 19.9336L23.9529 20.6187C23.9529 20.6187 26.6219 21.1858 28.9633 23.5046C31.3051 25.8238 29.2858 30.1423 28.9479 33.7764Z" fill="#716D00" style="fill:#716D00;fill:color(display-p3 0.4431 0.4275 0.0000);fill-opacity:1;"/>
</g>
</g>
</g>
<path id="Vector_40" d="M20.507 26.9484L17.3262 34.1751L20.913 34.0595L18.4048 39.3395L26.769 31.4429L22.2148 31.1644L26.1297 26.8099L20.507 26.9484Z" fill="#4C4702" style="fill:#4C4702;fill:color(display-p3 0.2980 0.2784 0.0078);fill-opacity:1;"/>
<g id="Group_263">
<g id="Group_264">
<path id="Vector_41" d="M28.8651 33.388C28.8604 33.3889 28.8553 33.3892 28.8506 33.3898C28.7611 33.396 28.6832 33.3285 28.677 33.2391C28.5001 30.7169 28.8309 27.093 28.8345 27.0567C28.8428 26.9673 28.9222 26.9019 29.0113 26.9099C29.1008 26.9182 29.1665 26.9973 29.1582 27.0867C29.1549 27.1227 28.8265 30.7208 29.0015 33.2165C29.0072 33.3006 28.9471 33.3749 28.8651 33.388Z" fill="#3228BD" style="fill:#3228BD;fill:color(display-p3 0.1961 0.1569 0.7412);fill-opacity:1;"/>
</g>
</g>
<g id="Group_265">
<g id="Group_266">
<g id="Group_267">
<g id="Group_268">
<g id="Group_269">
<g id="Group_270">
<g id="Group_271">
<path id="Vector_42" d="M18.3505 45.1918C18.3653 45.1942 18.3805 45.1948 18.396 45.1939C22.23 44.9368 25.1707 41.0938 25.3303 40.9045C25.4034 40.8177 25.3924 40.6881 25.3056 40.6147C25.2188 40.5416 25.0892 40.5526 25.0158 40.6394C24.9828 40.6786 22.1352 44.499 18.3686 44.7834C18.2554 44.7921 18.1698 44.889 18.1772 45.0022C18.1834 45.1 18.2575 45.1773 18.3505 45.1918Z" fill="#4C4702" style="fill:#4C4702;fill:color(display-p3 0.2980 0.2784 0.0078);fill-opacity:1;"/>
</g>
</g>
</g>
</g>
</g>
</g>
</g>
<g id="Group_272">
<g id="Group_273">
<g id="Group_274">
<g id="Group_275">
<g id="Group_276">
<g id="Group_277">
<g id="Group_278">
<path id="Vector_43" d="M21.737 24.1463C19.2448 24.2081 16.835 21.3596 16.7336 21.2381C16.6635 21.154 16.6745 21.0291 16.7586 20.9587C16.8424 20.8882 16.9676 20.8995 17.038 20.9837C17.0615 21.0119 19.4273 23.8069 21.7271 23.7498C21.728 23.7498 21.7289 23.7498 21.7298 23.7498C23.36 23.7076 23.956 21.9989 23.9806 21.9264C24.0157 21.8227 24.1277 21.7668 24.2318 21.8019C24.3355 21.8367 24.3914 21.949 24.3566 22.0527C24.3287 22.1362 23.6507 24.0973 21.7402 24.1466C21.739 24.1463 21.7378 24.1463 21.737 24.1463Z" fill="#4C4702" style="fill:#4C4702;fill:color(display-p3 0.2980 0.2784 0.0078);fill-opacity:1;"/>
</g>
</g>
</g>
</g>
</g>
</g>
</g>
<g id="Group_279">
<g id="Group_280">
<g id="Group_281">
<g id="Group_282">
<g id="Group_283">
<g id="Group_284">
<g id="Group_285">
<g id="Group_286">
<g id="Group_287">
<g id="Group_288">
<g id="Group_289">
<g id="Group_290">
<g id="Group_291">
<g id="Group_292">
<g id="Group_293">
<g id="Group_294">
<g id="Group_295">
<path id="Vector_44" d="M26.8942 13.2876C26.8942 13.2876 27.9963 12.3 28.3764 13.493C28.7569 14.686 28.0317 16.8937 26.6416 16.3237L26.8942 13.2876Z" fill="#E0693E" style="fill:#E0693E;fill:color(display-p3 0.8784 0.4118 0.2431);fill-opacity:1;"/>
</g>
</g>
</g>
</g>
</g>
</g>
</g>
</g>
</g>
</g>
</g>
</g>
</g>
</g>
</g>
<g id="Group_296">
<g id="Group_297">
<g id="Group_298">
<g id="Group_299">
<g id="Group_300">
<g id="Group_301">
<g id="Group_302">
<g id="Group_303">
<g id="Group_304">
<g id="Group_305">
<g id="Group_306">
<g id="Group_307">
<g id="Group_308">
<g id="Group_309">
<g id="Group_310">
<g id="Group_311">
<path id="Vector_45" d="M23.7143 18.6992L23.4183 21.7635C23.4183 21.7635 21.2917 24.2238 16.8828 20.3235C17.9448 19.4238 18.25 17.475 18.0422 16.2404C18.0422 16.2404 18.382 16.4166 18.914 16.8413C19.018 16.9245 19.1485 16.9861 19.2778 17.0627C20.4209 17.7401 22.1616 18.6056 23.7143 18.6992Z" fill="#FF9D7D" style="fill:#FF9D7D;fill:color(display-p3 1.0000 0.6157 0.4902);fill-opacity:1;"/>
</g>
</g>
</g>
</g>
</g>
</g>
</g>
</g>
</g>
</g>
</g>
</g>
</g>
</g>
</g>
<g id="Group_312">
<g id="Group_313">
<g id="Group_314">
<g id="Group_315">
<g id="Group_316">
<g id="Group_317">
<g id="Group_318">
<g id="Group_319">
<g id="Group_320">
<g id="Group_321">
<g id="Group_322">
<g id="Group_323">
<g id="Group_324">
<g id="Group_325">
<g id="Group_326">
<path id="Vector_46" d="M23.7066 18.6949L23.5663 20.1477C22.2871 19.671 20.0128 18.6224 18.9062 16.837C19.0192 16.9075 19.1408 16.9818 19.27 17.0585C20.4131 17.7358 22.1539 18.6013 23.7066 18.6949Z" fill="#121633" style="fill:#121633;fill:color(display-p3 0.0706 0.0863 0.2000);fill-opacity:1;"/>
</g>
</g>
</g>
</g>
</g>
</g>
</g>
</g>
</g>
</g>
</g>
</g>
</g>
</g>
</g>
</g>
<g id="Group_327">
<g id="Group_328">
<g id="Group_329">
<g id="Group_330">
<g id="Group_331">
<g id="Group_332">
<g id="Group_333">
<path id="Vector_47" d="M27.8503 13.4163C27.8054 13.7358 27.7611 14.0366 27.7171 14.3195C27.3878 16.4476 27.0787 17.5963 26.4926 18.0561C23.5291 20.3785 18.2182 16.3807 18.0473 16.2517C18.0452 16.249 18.0428 16.2481 18.0428 16.2481C18.0229 16.0008 18.008 15.7556 17.9976 15.5146C17.9076 13.4692 18.1412 11.6131 18.5873 9.88091C18.7475 8.01113 20.0921 6.435 21.9262 6.04C23.8275 5.63193 25.3403 6.65197 26.2736 7.08739C27.6824 7.74482 28.3448 9.77539 27.9784 12.4875C27.9347 12.8126 27.8919 13.1223 27.8503 13.4163Z" fill="#FF9D7D" style="fill:#FF9D7D;fill:color(display-p3 1.0000 0.6157 0.4902);fill-opacity:1;"/>
</g>
</g>
</g>
</g>
</g>
</g>
</g>
<g id="Group_334">
<g id="Group_335">
<g id="Group_336">
<g id="Group_337">
<g id="Group_338">
<g id="Group_339">
<g id="Group_340">
<g id="Group_341">
<g id="Group_342">
<g id="Group_343">
<g id="Group_344">
<g id="Group_345">
<g id="Group_346">
<g id="Group_347">
<g id="Group_348">
<g id="Group_349">
<path id="Vector_48" d="M25.5558 13.4938C25.7211 13.5167 25.8367 13.5045 25.8462 13.5033C25.886 13.4989 25.922 13.4778 25.9458 13.4454C25.9693 13.413 25.9785 13.3723 25.9704 13.3327L25.6539 11.7566C25.6385 11.679 25.563 11.6288 25.4854 11.6446C25.4078 11.66 25.3576 11.7355 25.3733 11.8131L25.6554 13.2165C25.5118 13.2037 25.2934 13.1583 25.0919 13.0111C25.028 12.9645 24.9382 12.9782 24.8919 13.0421C24.8452 13.106 24.8592 13.1954 24.9228 13.2421C25.1442 13.4044 25.3787 13.4694 25.5558 13.4938Z" fill="#121633" style="fill:#121633;fill:color(display-p3 0.0706 0.0863 0.2000);fill-opacity:1;"/>
</g>
</g>
</g>
</g>
</g>
</g>
</g>
</g>
</g>
</g>
</g>
</g>
</g>
</g>
</g>
</g>
<g id="Group_350">
<g id="Group_351">
<g id="Group_352">
<g id="Group_353">
<g id="Group_354">
<g id="Group_355">
<g id="Group_356">
<path id="Vector_49" d="M23.4703 13.2694C23.4355 13.5203 22.8904 13.6523 22.2526 13.564C21.6151 13.4757 21.1262 13.2008 21.1609 12.9496C21.1957 12.6988 21.7408 12.5668 22.3786 12.6551C23.0164 12.7434 23.5051 13.0186 23.4703 13.2694Z" fill="#E0693E" style="fill:#E0693E;fill:color(display-p3 0.8784 0.4118 0.2431);fill-opacity:1;"/>
</g>
</g>
</g>
</g>
</g>
</g>
</g>
<g id="Group_357" opacity="0.8">
<g id="Group_358">
<g id="Group_359">
<g id="Group_360">
<g id="Group_361">
<g id="Group_362">
<g id="Group_363">
<g id="Group_364">
<g id="Group_365">
<g id="Group_366">
<g id="Group_367">
<g id="Group_368">
<g id="Group_369">
<g id="Group_370">
<g id="Group_371">
<g id="Group_372">
<path id="Vector_50" d="M27.8414 13.4196C27.7965 13.7391 27.7522 14.0398 27.7082 14.3228C27.1254 14.2202 26.6956 13.9623 26.7283 13.7263C26.7613 13.4888 27.2499 13.358 27.8414 13.4196Z" fill="#E0693E" style="fill:#E0693E;fill:color(display-p3 0.8784 0.4118 0.2431);fill-opacity:1;"/>
</g>
</g>
</g>
</g>
</g>
</g>
</g>
</g>
</g>
</g>
</g>
</g>
</g>
</g>
</g>
</g>
<g id="Group_373">
<g id="Group_374">
<g id="Group_375">
<g id="Group_376">
<g id="Group_377">
<g id="Group_378">
<g id="Group_379">
<g id="Group_380">
<g id="Group_381">
<g id="Group_382">
<g id="Group_383">
<g id="Group_384">
<g id="Group_385">
<g id="Group_386">
<g id="Group_387">
<g id="Group_388">
<path id="Vector_51" d="M24.06 9.44732C24.1741 9.44791 24.2882 9.47763 24.3795 9.54599C24.4954 9.63278 24.5923 9.78703 24.4508 10.0438C24.1934 10.5108 23.1894 9.81794 22.2912 10.6195C22.2912 10.6195 22.1331 9.4384 24.06 9.44732Z" fill="#121633" style="fill:#121633;fill:color(display-p3 0.0706 0.0863 0.2000);fill-opacity:1;"/>
</g>
</g>
</g>
</g>
</g>
</g>
</g>
</g>
</g>
</g>
</g>
</g>
</g>
</g>
</g>
</g>
<g id="Group_389">
<g id="Group_390">
<g id="Group_391">
<g id="Group_392">
<g id="Group_393">
<g id="Group_394">
<g id="Group_395">
<g id="Group_396">
<g id="Group_397">
<g id="Group_398">
<g id="Group_399">
<g id="Group_400">
<g id="Group_401">
<g id="Group_402">
<g id="Group_403">
<g id="Group_404">
<path id="Vector_52" d="M26.6013 9.7862C26.6013 9.7862 26.0559 9.7648 26.1766 10.284C26.2973 10.8033 27.452 10.4095 28.0984 11.4247C28.0984 11.4247 28.5906 10.2873 26.6013 9.7862Z" fill="#121633" style="fill:#121633;fill:color(display-p3 0.0706 0.0863 0.2000);fill-opacity:1;"/>
</g>
</g>
</g>
</g>
</g>
</g>
</g>
</g>
</g>
</g>
</g>
</g>
</g>
</g>
</g>
</g>
<path id="Vector_53" d="M18.1572 11.5346C18.1572 11.5346 19.3517 12.5255 19.3621 13.5051C19.3621 13.5051 19.9717 11.7751 19.9087 10.6174C19.8457 9.45976 21.1769 7.78852 23.3968 7.94605C25.6167 8.10387 25.178 7.03152 25.178 7.03152C25.178 7.03152 26.5943 9.52277 28.3288 9.61758C28.3288 9.61758 28.5811 6.93998 25.806 5.9452C23.0306 4.95042 18.3046 5.00095 18.1572 11.5346Z" fill="#121633" style="fill:#121633;fill:color(display-p3 0.0706 0.0863 0.2000);fill-opacity:1;"/>
<g id="Group_405">
<g id="Group_406">
<g id="Group_407">
<path id="Vector_54" d="M22.72 14.0349C22.6808 14.0227 22.6415 14.0093 22.6026 13.9944C21.5674 13.6018 21.0446 12.4403 21.4372 11.4054C21.6274 10.904 22.0013 10.5066 22.4905 10.2864C22.9795 10.0662 23.5257 10.0498 24.0266 10.24C25.0618 10.6327 25.5846 11.7942 25.1919 12.8291C24.8142 13.8253 23.7243 14.3469 22.72 14.0349ZM23.8143 10.5051C22.9703 10.243 22.0542 10.6814 21.7365 11.5187C21.4066 12.3889 21.8459 13.3652 22.7161 13.6952C23.5867 14.0251 24.5627 13.5858 24.8926 12.7155C25.2225 11.8456 24.7833 10.8689 23.913 10.539C23.8803 10.5268 23.8473 10.5156 23.8143 10.5051Z" fill="#F2F7F9" style="fill:#F2F7F9;fill:color(display-p3 0.9490 0.9686 0.9765);fill-opacity:1;"/>
</g>
</g>
<g id="Group_408">
<g id="Group_409">
<path id="Vector_55" d="M27.3123 14.8133C27.2725 14.8008 27.2329 14.7872 27.1934 14.7723C26.692 14.5821 26.2946 14.2082 26.0744 13.719C25.8544 13.2301 25.8378 12.6844 26.028 12.183C26.4206 11.1478 27.583 10.625 28.6171 11.0176C29.6523 11.4102 30.175 12.5717 29.7824 13.6069C29.5922 14.1083 29.2183 14.5057 28.7291 14.726C28.2788 14.9287 27.7804 14.9587 27.3123 14.8133ZM28.4054 11.283C27.5613 11.0209 26.6453 11.4593 26.3276 12.2965C26.1677 12.718 26.1817 13.1766 26.3665 13.5876C26.5514 13.9987 26.8855 14.3131 27.3069 14.473C28.1784 14.8029 29.1535 14.3636 29.4834 13.4934C29.8133 12.6232 29.3741 11.6468 28.5038 11.3169C28.4714 11.3047 28.4384 11.2934 28.4054 11.283Z" fill="#F2F7F9" style="fill:#F2F7F9;fill:color(display-p3 0.9490 0.9686 0.9765);fill-opacity:1;"/>
</g>
</g>
<g id="Group_410">
<g id="Group_411">
<path id="Vector_56" d="M25.1085 12.4111C25.0815 12.4028 25.0565 12.387 25.0363 12.3645C24.978 12.2985 24.9837 12.198 25.0494 12.1392C25.0613 12.1288 25.3412 11.8827 25.6824 11.9067C25.8724 11.9201 26.0397 12.0108 26.1797 12.176C26.2367 12.2435 26.2284 12.3445 26.161 12.4016C26.0935 12.4587 25.9924 12.4504 25.9354 12.3829C25.8524 12.2851 25.763 12.2337 25.6613 12.226C25.456 12.2105 25.2634 12.3766 25.2616 12.3784C25.2185 12.4168 25.1599 12.4272 25.1085 12.4111Z" fill="#F2F7F9" style="fill:#F2F7F9;fill:color(display-p3 0.9490 0.9686 0.9765);fill-opacity:1;"/>
</g>
</g>
<g id="Group_412">
<g id="Group_413">
<path id="Vector_57" d="M17.628 11.4903C17.5938 11.4796 17.5632 11.4576 17.5421 11.4255C17.4934 11.3518 17.5139 11.2525 17.5876 11.2038C19.3432 10.0458 21.5206 11.0941 21.6125 11.139C21.6918 11.1779 21.7242 11.2739 21.6853 11.353C21.6463 11.4323 21.5503 11.4653 21.4713 11.4261C21.4505 11.4157 19.3649 10.415 17.7638 11.4707C17.7219 11.4986 17.6723 11.5043 17.628 11.4903Z" fill="#F2F7F9" style="fill:#F2F7F9;fill:color(display-p3 0.9490 0.9686 0.9765);fill-opacity:1;"/>
</g>
</g>
</g>
<g id="Group_414">
<g id="Group_415">
<g id="Group_416">
<path id="Vector_58" d="M26.2687 12.8126C26.2699 12.8129 26.2708 12.8131 26.272 12.8134C26.3451 12.8343 26.4212 12.7917 26.442 12.7186C26.4461 12.7047 26.5499 12.3638 26.8399 12.3855C27.1597 12.4095 27.3155 12.7867 27.317 12.7906C27.3452 12.8613 27.4258 12.8952 27.4962 12.8669C27.5666 12.8384 27.6008 12.7582 27.5726 12.6877C27.5637 12.6657 27.3497 12.1477 26.8607 12.1111C26.4488 12.0799 26.2333 12.4458 26.1772 12.6434C26.1567 12.7154 26.1977 12.7903 26.2687 12.8126Z" fill="#121633" style="fill:#121633;fill:color(display-p3 0.0706 0.0863 0.2000);fill-opacity:1;"/>
</g>
</g>
</g>
<g id="Group_417">
<g id="Group_418">
<g id="Group_419">
<path id="Vector_59" d="M24.0771 12.2868C24.076 12.2868 24.0748 12.2871 24.0733 12.2871C23.9886 12.2957 23.9128 12.2342 23.9042 12.1495C23.9024 12.1334 23.8542 11.7373 23.53 11.7052C23.1727 11.6695 22.9278 12.0553 22.9254 12.0591C22.8806 12.1314 22.7854 12.1534 22.7132 12.1085C22.641 12.0633 22.619 11.9685 22.6639 11.8963C22.6779 11.8737 23.0146 11.344 23.5603 11.3987C24.0207 11.4445 24.1868 11.8894 24.2106 12.1183C24.2195 12.2015 24.1601 12.2761 24.0771 12.2868Z" fill="#121633" style="fill:#121633;fill:color(display-p3 0.0706 0.0863 0.2000);fill-opacity:1;"/>
</g>
</g>
</g>
<g id="Group_420">
<g id="Group_421">
<g id="Group_422">
<g id="Group_423">
<g id="Group_424">
<g id="Group_425">
<g id="Group_426">
<g id="Group_427">
<path id="Vector_60" d="M22.6348 14.0429C22.6348 14.0429 22.9055 15.7397 24.1969 16.1927C25.6669 16.7083 26.2765 14.8641 26.2765 14.8641L22.6348 14.0429Z" fill="#F2F7F9" style="fill:#F2F7F9;fill:color(display-p3 0.9490 0.9686 0.9765);fill-opacity:1;"/>
</g>
</g>
</g>
</g>
</g>
</g>
</g>
</g>
<g id="Group_428">
<g id="Group_429">
<g id="Group_430">
<g id="Group_431">
<g id="Group_432">
<g id="Group_433">
<g id="Group_434">
<g id="Group_435">
<g id="Group_436">
<g id="Group_437">
<g id="Group_438">
<g id="Group_439">
<g id="Group_440">
<path id="Vector_61" d="M24.6698 16.8523C24.7242 16.8455 24.7584 16.8371 24.764 16.8357C24.8309 16.8184 24.871 16.7504 24.8541 16.6835C24.8368 16.6169 24.7697 16.5762 24.7022 16.5934C24.6826 16.5982 24.2448 16.7016 23.9425 16.3583C23.8968 16.3066 23.818 16.3013 23.766 16.347C23.7143 16.3928 23.7092 16.4716 23.7547 16.5236C24.0683 16.8793 24.4849 16.8755 24.6698 16.8523Z" fill="#E0693E" style="fill:#E0693E;fill:color(display-p3 0.8784 0.4118 0.2431);fill-opacity:1;"/>
</g>
</g>
</g>
</g>
</g>
</g>
</g>
</g>
</g>
</g>
</g>
</g>
</g>
<g id="Group_441">
<g id="Group_442">
<g id="Group_443">
<g id="Group_444">
<g id="Group_445">
<g id="Group_446">
<g id="Group_447">
<g id="Group_448">
<g id="Group_449">
<g id="Group_450">
<g id="Group_451">
<g id="Group_452">
<g id="Group_453">
<g id="Group_454">
<g id="Group_455">
<path id="Vector_62" d="M19.3658 15.0061C19.3438 15.0424 18.7449 16.0309 18.0506 16.2494C18.05 16.2494 18.05 16.2496 18.0494 16.2496C18.0473 16.247 18.0465 16.2458 18.0465 16.2458C18.0262 15.9985 18.0117 15.7536 18.001 15.5123C18.0259 15.5117 18.7 15.4882 19.3658 15.0061Z" fill="#121633" style="fill:#121633;fill:color(display-p3 0.0706 0.0863 0.2000);fill-opacity:1;"/>
</g>
</g>
</g>
</g>
</g>
</g>
</g>
</g>
</g>
</g>
</g>
</g>
</g>
</g>
</g>
<g id="Group_456">
<g id="Group_457">
<g id="Group_458">
<g id="Group_459">
<g id="Group_460">
<g id="Group_461">
<g id="Group_462">
<g id="Group_463">
<g id="Group_464">
<g id="Group_465">
<g id="Group_466">
<g id="Group_467">
<g id="Group_468">
<g id="Group_469">
<g id="Group_470">
<path id="Vector_63" d="M19.0618 12.5266C19.0618 12.5266 17.9398 10.4842 16.7283 11.7994C15.7303 12.883 16.871 16.2255 18.6662 15.3829L19.0618 12.5266Z" fill="#FF9D7D" style="fill:#FF9D7D;fill:color(display-p3 1.0000 0.6157 0.4902);fill-opacity:1;"/>
</g>
</g>
</g>
</g>
</g>
</g>
</g>
</g>
</g>
</g>
</g>
</g>
</g>
</g>
</g>
<g id="Group_471">
<g id="Group_472">
<g id="Group_473">
<g id="Group_474">
<g id="Group_475">
<g id="Group_476">
<g id="Group_477">
<g id="Group_478">
<g id="Group_479">
<g id="Group_480">
<g id="Group_481">
<g id="Group_482">
<g id="Group_483">
<g id="Group_484">
<g id="Group_485">
<path id="Vector_64" d="M18.5549 14.7994C18.56 14.8 18.5653 14.8006 18.5707 14.8009C18.6497 14.803 18.7157 14.7409 18.7181 14.6618C18.7639 13.0634 17.5141 12.3346 17.4612 12.3043C17.3922 12.2654 17.3048 12.2895 17.2659 12.3581C17.2267 12.4268 17.2507 12.5142 17.3194 12.5534C17.3664 12.5804 18.4726 13.2313 18.4319 14.6538C18.4295 14.7272 18.4836 14.7893 18.5549 14.7994Z" fill="#121633" style="fill:#121633;fill:color(display-p3 0.0706 0.0863 0.2000);fill-opacity:1;"/>
</g>
</g>
</g>
</g>
</g>
</g>
</g>
</g>
</g>
</g>
</g>
</g>
</g>
</g>
</g>
<g id="Group_486">
<g id="Group_487">
<g id="Group_488">
<g id="Group_489">
<g id="Group_490">
<g id="Group_491">
<g id="Group_492">
<g id="Group_493">
<g id="Group_494">
<g id="Group_495">
<g id="Group_496">
<g id="Group_497">
<g id="Group_498">
<g id="Group_499">
<g id="Group_500">
<path id="Vector_65" d="M17.3563 13.7543C17.3878 13.7587 17.4208 13.7528 17.4499 13.735C17.5872 13.652 17.9953 13.4583 18.231 13.5548C18.3044 13.5846 18.3879 13.5498 18.4177 13.4764C18.4477 13.4033 18.4126 13.3195 18.3392 13.2897C17.9279 13.1218 17.3643 13.452 17.3013 13.4901C17.2339 13.5311 17.2122 13.6193 17.2532 13.6868C17.2767 13.7252 17.315 13.7486 17.3563 13.7543Z" fill="#121633" style="fill:#121633;fill:color(display-p3 0.0706 0.0863 0.2000);fill-opacity:1;"/>
</g>
</g>
</g>
</g>
</g>
</g>
</g>
</g>
</g>
</g>
</g>
</g>
</g>
</g>
</g>
</g>
</g>
<g id="Group_501">
<g id="Group_502">
<g id="Group_503">
<path id="Vector_66" d="M34.3273 75.7816C24.4673 81.0055 6.40731 77.9534 6.40731 77.9534C6.38621 75.6654 6.68134 72.4686 7.12419 69.0173C7.14619 68.8467 7.16788 68.6752 7.19107 68.5025C7.46183 66.4384 7.78282 64.2955 8.11748 62.2114C8.13888 62.0762 8.16058 61.9412 8.18317 61.8066C8.2863 61.1667 8.39092 60.5336 8.49524 59.9116C8.51843 59.7751 8.54161 59.6396 8.5639 59.5044C8.76274 58.3316 8.96038 57.1995 9.1506 56.1354C9.17824 55.9854 9.20499 55.8365 9.23115 55.6887C9.99796 51.4335 10.6203 48.377 10.6203 48.377C21.1741 51.3212 28.888 48.1267 28.888 48.1267C29.626 50.1213 30.2371 52.0791 30.7688 54.1275C30.8113 54.2912 30.8532 54.4559 30.8945 54.6208C31.5187 57.1002 32.0328 59.7246 32.5188 62.717C32.5414 62.8564 32.564 62.9972 32.5869 63.1384C32.7381 64.0898 32.8876 65.078 33.0377 66.1106C33.0621 66.2812 33.0871 66.4538 33.1114 66.6277H33.112C33.3516 68.3064 33.5929 70.1016 33.8459 72.0418C33.8684 72.215 33.8916 72.3895 33.9139 72.5658C34.0486 73.5962 34.1856 74.6671 34.3273 75.7816Z" fill="#545AE4" style="fill:#545AE4;fill:color(display-p3 0.3294 0.3529 0.8941);fill-opacity:1;"/>
</g>
</g>
<g id="Group_504">
<g id="Group_505">
<path id="Vector_67" d="M18.7096 76.5412C17.922 76.5412 17.1658 76.5278 16.4507 76.5052C11.0432 76.3352 6.80406 75.6272 6.76185 75.6201C6.65961 75.6029 6.59066 75.506 6.60819 75.4037C6.62543 75.3015 6.72233 75.2328 6.82457 75.2501C6.86647 75.2572 11.0848 75.9613 16.468 76.1304C21.4261 76.2859 28.4154 76.0062 33.5519 73.7911C33.647 73.75 33.7575 73.794 33.7986 73.8891C33.8396 73.9842 33.7956 74.0948 33.7005 74.1358C29.2432 76.0579 23.4276 76.5412 18.7096 76.5412Z" fill="#3228BD" style="fill:#3228BD;fill:color(display-p3 0.1961 0.1569 0.7412);fill-opacity:1;"/>
</g>
</g>
<g id="Group_506">
<path id="Vector_68" d="M19.6489 52.36C18.6711 52.36 17.7485 52.3199 16.9143 52.2593C13.1622 51.9876 10.3393 51.2603 10.3113 51.2529C10.2112 51.2267 10.1508 51.1242 10.177 51.024C10.2032 50.9239 10.3057 50.8638 10.4059 50.8897C10.4335 50.8968 13.2294 51.6167 16.9487 51.8854C20.3718 52.1329 25.3002 52.0378 29.3405 50.1814C29.4347 50.138 29.5462 50.1794 29.5893 50.2736C29.6327 50.3678 29.5913 50.4792 29.4971 50.5223C26.3722 51.9582 22.7364 52.36 19.6489 52.36Z" fill="#3228BD" style="fill:#3228BD;fill:color(display-p3 0.1961 0.1569 0.7412);fill-opacity:1;"/>
</g>
<g id="Group_507">
<g id="Group_508">
<path id="Vector_69" d="M17.7203 58.138C17.5595 57.9041 17.273 57.7082 16.9692 57.5013C16.6132 57.2579 16.2099 56.9821 16.1691 56.709C16.1528 56.5984 16.1968 56.4801 16.3029 56.3476C16.5974 55.9817 16.5974 55.4862 16.3017 54.9884C15.9109 54.3304 14.985 53.6854 14.2732 53.8043C14.0898 53.8111 12.4688 53.9018 12.1565 54.9816C12.1009 55.1742 12.1128 55.3439 12.1915 55.485C12.3434 55.7591 12.7057 55.8616 13.0891 55.9698C13.6214 56.1205 14.1719 56.2756 14.3327 56.8368C14.4465 57.2353 14.404 57.6675 14.3621 58.0845C14.2783 58.925 14.1838 59.8779 15.5911 60.3406C15.88 60.4357 16.1335 60.4753 16.3549 60.4753C17.0055 60.4753 17.377 60.1362 17.5607 59.8909C17.9866 59.3221 17.9866 58.5253 17.7203 58.138ZM17.2605 59.6654C17.0334 59.9688 16.5793 60.2702 15.7088 59.9837C14.5874 59.6151 14.6492 58.9886 14.7354 58.1216C14.7806 57.6687 14.8272 57.2009 14.6929 56.733C14.4747 55.9713 13.7635 55.7698 13.1916 55.6084C12.8852 55.5213 12.5954 55.4402 12.5193 55.3026C12.5086 55.2838 12.4768 55.2256 12.5176 55.0856C12.7646 54.2293 14.2821 54.1785 14.297 54.1785C14.3065 54.1779 14.3163 54.1773 14.3258 54.1755C14.8162 54.0872 15.6199 54.5747 15.9789 55.1795C16.1302 55.4348 16.2592 55.8037 16.0101 56.1122C15.8375 56.3274 15.7655 56.547 15.7979 56.764C15.8624 57.1994 16.3172 57.5103 16.7573 57.811C17.0189 57.99 17.2896 58.1751 17.4109 58.3508C17.5996 58.6245 17.575 59.2451 17.2605 59.6654Z" fill="#3228BD" style="fill:#3228BD;fill:color(display-p3 0.1961 0.1569 0.7412);fill-opacity:1;"/>
</g>
</g>
<g id="Group_509">
<g id="Group_510">
<path id="Vector_70" d="M32.5184 62.7175C32.1906 62.9826 31.7986 63.2016 31.3982 63.3511C30.3755 63.7339 28.9409 63.8008 28.2608 62.7293C27.5208 61.5634 28.1595 60.9466 28.8987 60.233C29.4215 59.7284 29.9621 59.2068 29.9996 58.4611C30.0415 57.6179 29.379 57.1263 28.7943 56.6929C28.0219 56.1199 27.6123 55.7579 28.1714 54.9747C28.4805 54.5426 28.8612 54.2899 29.3047 54.2228C29.3885 54.2103 29.4723 54.2046 29.5549 54.2046C30.1015 54.2046 30.6145 54.4543 30.8942 54.6213C30.8529 54.4561 30.8109 54.2917 30.7684 54.128C30.377 53.9428 29.8257 53.7665 29.2518 53.8521C28.7025 53.9342 28.2365 54.2379 27.8664 54.7566C27.0658 55.878 27.8659 56.4709 28.5714 56.9946C29.1293 57.4086 29.6572 57.7994 29.6248 58.4426C29.5953 59.04 29.1308 59.4885 28.6383 59.9638C27.889 60.6869 27.0402 61.5063 27.944 62.9312C28.4344 63.7036 29.2369 63.9812 30.0507 63.9812C30.5649 63.9812 31.0832 63.8707 31.5299 63.703C31.8952 63.5666 32.2605 63.3746 32.5871 63.1395C32.5636 62.9977 32.541 62.8568 32.5184 62.7175Z" fill="#3228BD" style="fill:#3228BD;fill:color(display-p3 0.1961 0.1569 0.7412);fill-opacity:1;"/>
</g>
</g>
<g id="Group_511">
<g id="Group_512">
<path id="Vector_71" d="M33.8466 72.0437C33.6677 72.332 33.4189 72.549 33.0798 72.656C31.8832 73.0331 30.7505 72.3495 30.3472 71.4707C30.0339 70.7877 30.2301 70.1415 30.8733 69.7418C31.2498 69.5079 31.4644 69.2401 31.5301 68.9235C31.6428 68.3743 31.2724 67.8435 30.914 67.3299C30.6477 66.9488 30.3731 66.555 30.4218 66.2798C30.4417 66.171 30.5142 66.0741 30.6444 65.9841C30.8314 65.8539 31.0421 65.7995 31.2635 65.7995C31.8814 65.7995 32.5852 66.226 33.1125 66.6296C33.0881 66.4558 33.0631 66.2831 33.0388 66.1125C32.2562 65.579 31.2225 65.1254 30.4298 65.6759C30.2173 65.8242 30.0901 66.0049 30.0527 66.2138C29.9757 66.6421 30.2821 67.0808 30.6061 67.5454C30.9187 67.9939 31.2421 68.4572 31.1622 68.8483C31.1191 69.0585 30.9595 69.2469 30.675 69.4238C29.8681 69.9249 29.6122 70.7692 30.0063 71.6279C30.3873 72.4565 31.3218 73.1377 32.4018 73.1377C32.6589 73.1377 32.9246 73.0991 33.1924 73.0144C33.4858 72.922 33.7236 72.768 33.915 72.5677C33.8924 72.3914 33.8692 72.2167 33.8466 72.0437Z" fill="#3228BD" style="fill:#3228BD;fill:color(display-p3 0.1961 0.1569 0.7412);fill-opacity:1;"/>
</g>
</g>
<g id="Group_513">
<g id="Group_514">
<path id="Vector_72" d="M9.80227 65.4768C9.47771 65.3954 9.26817 65.2655 9.16236 65.0786C8.9659 64.7308 9.13175 64.1905 9.29254 63.668C9.45839 63.1262 9.61532 62.6147 9.41083 62.2307C9.31127 62.0431 9.13502 61.9097 8.88685 61.8342C8.64729 61.7617 8.41279 61.7578 8.18691 61.8065C8.16432 61.9412 8.14262 62.0761 8.12122 62.2113C8.33522 62.14 8.55605 62.1263 8.77806 62.1938C8.92935 62.2396 9.02832 62.3094 9.08033 62.4072C9.2117 62.6536 9.07023 63.1134 8.93381 63.558C8.74983 64.1566 8.5605 64.7751 8.83632 65.2631C8.99533 65.5446 9.28155 65.7333 9.71191 65.8409C10.4463 66.0243 10.8315 66.5789 10.7421 67.3252C10.6276 68.2852 9.75887 69.283 8.50403 69.291H8.49512C7.94735 69.291 7.52323 68.9745 7.1948 68.5022C7.17162 68.6749 7.14992 68.8461 7.12793 69.017C7.48578 69.4128 7.93427 69.6664 8.49452 69.6664H8.50641C9.96811 69.6569 10.9801 68.4918 11.1148 67.3704C11.2265 66.4318 10.7236 65.7063 9.80227 65.4768Z" fill="#3228BD" style="fill:#3228BD;fill:color(display-p3 0.1961 0.1569 0.7412);fill-opacity:1;"/>
</g>
</g>
<g id="Group_515">
<g id="Group_516">
<path id="Vector_73" d="M22.9921 63.2648C22.504 62.1791 21.5886 61.3995 20.4803 61.1263C19.7102 60.9361 19.0697 61.0339 18.5763 61.4158C18.2542 61.6661 18.0972 61.9086 18.0966 62.1595C18.096 62.5655 18.4806 62.8651 18.9672 63.2452C19.4106 63.5911 19.9129 63.9832 20.2363 64.536C20.516 65.0133 20.0404 65.3878 19.2418 65.9602C18.565 66.4444 17.8657 66.9455 17.7932 67.6597C17.7507 68.0782 17.9308 68.499 18.3448 68.9469C18.752 69.388 19.2906 69.6094 19.8778 69.6094C20.4084 69.6094 20.9793 69.4287 21.5292 69.0646C22.6024 68.3546 23.47 67.018 23.47 65.3863C23.4697 64.7209 23.3252 64.0061 22.9921 63.2648ZM21.322 68.752C20.3243 69.4118 19.2635 69.3886 18.6206 68.6925C18.2836 68.3284 18.1353 68.0027 18.1665 67.6981C18.2215 67.1521 18.8513 66.7018 19.46 66.2658C20.23 65.7141 21.0263 65.1438 20.5603 64.347C20.2006 63.7314 19.6445 63.2981 19.1981 62.9498C18.8085 62.6451 18.4714 62.3824 18.472 62.1604C18.4726 62.0352 18.5847 61.8845 18.8067 61.713C19.0688 61.5098 19.3889 61.4084 19.7637 61.4084C19.9584 61.4084 20.167 61.4352 20.3905 61.4904C20.8884 61.6132 21.3431 61.8507 21.7283 62.1791C22.1141 62.5081 22.43 62.9289 22.6503 63.4188C23.7107 65.7777 22.7055 67.8368 21.322 68.752Z" fill="#3228BD" style="fill:#3228BD;fill:color(display-p3 0.1961 0.1569 0.7412);fill-opacity:1;"/>
</g>
</g>
<g id="Group_517">
<g id="Group_518">
<g id="Group_519">
<path id="Vector_74" d="M25.4997 55.9575C24.5527 54.2574 22.6512 53.3693 20.768 53.7477C20.6328 53.7753 20.5142 53.8059 20.4152 53.8383C20.0113 53.9742 19.7408 54.2443 19.6326 54.6203C19.4668 55.199 19.7209 55.9551 20.3293 56.6943C20.7222 57.171 21.3351 57.4073 21.928 57.6355C22.9056 58.0127 23.75 58.3384 23.75 59.5847C23.75 60.9483 24.5248 61.0808 24.7626 61.0889C24.7739 61.0895 24.7852 61.0895 24.7964 61.0895C25.5383 61.0895 26.4065 60.2594 26.4915 59.036C26.4953 58.9834 26.4971 58.9296 26.4971 58.8746C26.4974 58.1274 26.1622 57.1472 25.4997 55.9575ZM26.1179 59.0099C26.0427 60.092 25.286 60.7304 24.7762 60.7144C24.3628 60.7001 24.1256 60.2885 24.1256 59.5847C24.1256 58.0811 23.0298 57.6581 22.0636 57.2854C21.4905 57.0646 20.9496 56.8562 20.6194 56.4553C20.0984 55.8222 19.8645 55.1749 19.9941 54.7234C20.0672 54.4681 20.2494 54.2901 20.5344 54.1944C20.6188 54.1662 20.7219 54.14 20.842 54.1156C21.1065 54.0624 21.3711 54.0369 21.6332 54.0369C22.3557 54.0369 23.0569 54.2333 23.6691 54.5941C24.2814 54.9556 24.8051 55.4816 25.1721 56.1403C25.8382 57.3354 26.1645 58.328 26.1179 59.0099Z" fill="#3228BD" style="fill:#3228BD;fill:color(display-p3 0.1961 0.1569 0.7412);fill-opacity:1;"/>
</g>
</g>
</g>
<g id="Group_520">
<g id="Group_521">
<path id="Vector_75" d="M16.085 63.3465C15.8891 62.5835 15.3907 62.1068 14.6438 61.968C13.902 61.8298 13.2404 62.138 12.7794 62.8355C12.1071 63.8532 12.0607 65.4326 12.6757 66.3563C12.8772 66.6583 13.1372 66.8304 13.4499 66.8687C13.493 66.8738 13.5376 66.8762 13.5819 66.8762C14.0616 66.8762 14.6307 66.5766 15.2763 65.9836C16.0178 65.3024 16.3275 64.2922 16.085 63.3465ZM15.0228 65.7069C14.4099 66.2699 13.8812 66.5427 13.4948 66.4957C13.2933 66.4714 13.1271 66.3575 12.988 66.1486C12.4489 65.3393 12.4958 63.9456 13.0923 63.0424C13.3218 62.6947 13.7097 62.3107 14.3014 62.3107C14.3885 62.3107 14.4792 62.3187 14.5749 62.3368C15.1764 62.4489 15.5619 62.8198 15.7212 63.4395C15.7682 63.6214 15.7908 63.8059 15.7908 63.9905C15.7908 64.6263 15.5188 65.2516 15.0228 65.7069Z" fill="#3228BD" style="fill:#3228BD;fill:color(display-p3 0.1961 0.1569 0.7412);fill-opacity:1;"/>
</g>
</g>
<g id="Group_522">
<g id="Group_523">
<path id="Vector_76" d="M28.236 64.3063C27.6112 63.4477 26.3365 62.9279 25.3943 63.1481C25.0822 63.2212 24.8581 63.3838 24.7295 63.6329C24.5238 64.0299 24.5782 64.6244 24.892 65.398C25.2216 66.2118 25.9522 66.7735 26.7998 66.8642C26.8756 66.8722 26.9488 66.8767 27.0207 66.8767C27.6035 66.8761 28.0684 66.6121 28.3748 66.1042C28.7163 65.5368 28.667 64.8987 28.236 64.3063ZM28.0532 65.9101C27.7824 66.3598 27.386 66.5494 26.8397 66.4912C26.4851 66.4531 26.154 66.3155 25.8776 66.1021C25.6012 65.8887 25.3786 65.5992 25.2395 65.2565C24.9761 64.608 24.9137 64.0926 25.0626 63.8055C25.1396 63.6566 25.276 63.5609 25.4799 63.5134C25.6039 63.4845 25.7337 63.4709 25.8684 63.4709C26.6114 63.4709 27.4716 63.8938 27.9319 64.5272C28.1703 64.8544 28.3849 65.3597 28.0532 65.9101Z" fill="#3228BD" style="fill:#3228BD;fill:color(display-p3 0.1961 0.1569 0.7412);fill-opacity:1;"/>
</g>
</g>
<g id="Group_524">
<g id="Group_525">
<path id="Vector_77" d="M17.5774 74.1085C17.8422 74.6393 18.2845 74.9395 18.8655 74.9868C18.9371 74.9924 19.0106 74.9939 19.0866 74.9918C19.9388 74.9692 20.7118 74.4675 21.1053 73.6829C21.4801 72.9369 21.5818 72.3487 21.4085 71.9365C21.3 71.6779 21.0896 71.4981 20.7843 71.4C19.863 71.1052 18.5508 71.5216 17.8591 72.3276C17.3824 72.8837 17.2822 73.5159 17.5774 74.1085ZM18.1448 72.5722C18.6542 71.9775 19.5452 71.6247 20.2859 71.6841C20.4199 71.6948 20.5486 71.7189 20.6696 71.7575C20.869 71.8211 20.9974 71.9275 21.0622 72.0821C21.1876 72.3802 21.0842 72.889 20.7698 73.5144C20.6039 73.8449 20.359 74.1159 20.0663 74.3064C19.7735 74.497 19.4329 74.6078 19.0762 74.6173C18.5273 74.6316 18.1471 74.4111 17.9132 73.9412C17.6267 73.3658 17.8811 72.8792 18.1448 72.5722Z" fill="#3228BD" style="fill:#3228BD;fill:color(display-p3 0.1961 0.1569 0.7412);fill-opacity:1;"/>
</g>
</g>
<g id="Group_526">
<g id="Group_527">
<path id="Vector_78" d="M10.3611 57.7613C10.2818 56.8607 9.77828 56.1762 9.232 55.6891C9.20584 55.8368 9.17879 55.9854 9.15145 56.1358C9.57112 56.5567 9.92718 57.1086 9.98781 57.7945C10.0636 58.649 9.43678 59.1094 9.05634 59.3071C8.9012 59.3879 8.73535 59.4533 8.56475 59.5047C8.54216 59.64 8.51898 59.7755 8.49609 59.9119C8.752 59.8501 9.00017 59.76 9.23051 59.64C10.03 59.223 10.4316 58.5557 10.3611 57.7613Z" fill="#3228BD" style="fill:#3228BD;fill:color(display-p3 0.1961 0.1569 0.7412);fill-opacity:1;"/>
</g>
</g>
<g id="Group_528">
<g id="Group_529">
<path id="Vector_79" d="M16.418 69.0485C16.1683 68.6125 15.7674 68.3423 15.2258 68.246C14.7744 68.1654 14.4454 68.2121 14.2207 68.3887C13.894 68.6452 13.8649 69.1112 13.8367 69.5621C13.7861 70.3645 13.7421 71.0576 12.4412 71.0576C11.0107 71.0576 10.0656 71.3997 9.63167 72.0741C9.31008 72.5731 9.30651 73.2288 9.62037 73.9186C9.9057 74.546 10.9989 74.8094 12.0611 74.8094C12.1788 74.8094 12.295 74.8064 12.4106 74.7999C13.9612 74.7155 15.8001 74.0738 16.3119 72.5268C16.3591 72.3969 17.1197 70.2739 16.418 69.0485ZM15.9582 72.3999C15.9576 72.4016 15.957 72.4043 15.9564 72.4061C15.5055 73.7766 13.8185 74.3475 12.3898 74.4251C11.2063 74.4902 10.1625 74.2048 9.96157 73.7632C9.81148 73.433 9.60938 72.8005 9.94671 72.2771C10.3025 71.7249 11.1653 71.4327 12.4412 71.4327C14.0943 71.4327 14.1618 70.3651 14.2114 69.5858C14.2352 69.2006 14.2584 68.8366 14.4522 68.6838C14.5378 68.6163 14.6662 68.583 14.835 68.583C14.9307 68.583 15.0389 68.5937 15.1602 68.6148C15.5923 68.6918 15.8975 68.8945 16.0922 69.2348C16.7146 70.3197 15.9656 72.3794 15.9582 72.3999Z" fill="#3228BD" style="fill:#3228BD;fill:color(display-p3 0.1961 0.1569 0.7412);fill-opacity:1;"/>
</g>
</g>
<g id="Group_530">
<g id="Group_531">
<path id="Vector_80" d="M28.3786 69.972C27.8496 68.6179 26.2871 67.8386 25.2157 67.9849C24.6828 68.058 24.3514 68.359 24.3056 68.8099C24.2649 69.2216 24.3963 69.6787 24.5232 70.1203C24.6932 70.7139 24.854 71.2744 24.612 71.6653C24.442 71.9393 24.0785 72.1245 23.4999 72.23C22.736 72.3699 22.5298 72.7641 22.4748 72.9861C22.374 73.3921 22.6005 73.8718 23.0665 74.2382C23.4675 74.5542 24.0875 74.8086 24.8242 74.8086C25.3334 74.8086 25.899 74.6873 26.4869 74.3815C27.3455 73.9342 28.0068 73.2182 28.3477 72.3649C28.672 71.5538 28.6821 70.7486 28.3786 69.972ZM27.9991 72.2255C27.6915 72.9956 27.0929 73.6429 26.3133 74.048C25.0329 74.7147 23.8889 74.4083 23.2984 73.9434C22.9557 73.6732 22.775 73.3329 22.8386 73.0758C22.8962 72.8437 23.1551 72.6743 23.5673 72.5985C24.256 72.4728 24.7021 72.2314 24.9309 71.8623C25.2606 71.33 25.0692 70.6622 24.8834 70.0166C24.7663 69.6082 24.645 69.1865 24.6795 68.8471C24.7134 68.5029 25.0177 68.3905 25.2668 68.3561C25.3313 68.3475 25.3994 68.343 25.4707 68.343C26.3112 68.343 27.5773 68.9535 28.0288 70.1081C28.2966 70.7938 28.2868 71.5062 27.9991 72.2255Z" fill="#3228BD" style="fill:#3228BD;fill:color(display-p3 0.1961 0.1569 0.7412);fill-opacity:1;"/>
</g>
</g>
</g>
<g id="Group_532">
<g id="Group_533">
<g id="Group_534">
<g id="Group_535">
<g id="Group_536">
<path id="Vector_81" d="M26.5666 21.7294C26.5666 21.7294 25.9974 29.5966 25.8663 33.0613C25.7356 36.5167 26.442 39.4754 27.1215 41.3937C27.6434 42.8667 28.4762 44.4152 28.4824 44.4175C28.6518 44.4805 29.6416 42.5876 29.1675 39.5001C28.294 33.8102 29.0751 24.6308 28.6878 23.3001C28.3008 21.9698 26.5666 21.7294 26.5666 21.7294Z" fill="#121633" style="fill:#121633;fill:color(display-p3 0.0706 0.0863 0.2000);fill-opacity:1;"/>
</g>
</g>
</g>
</g>
<g id="Group_537">
<g id="Group_538">
<g id="Group_539">
<g id="Group_540">
<path id="Vector_82" d="M28.6668 28.8387C28.1571 28.609 27.3365 28.302 26.4817 28.239C26.1075 28.2113 25.7803 28.4892 25.7425 28.8625C25.6465 29.8157 25.4884 31.6611 25.5636 32.8618C25.5853 33.2087 25.8605 33.4854 26.2071 33.5101L28.1286 33.6471C28.5405 33.6765 28.8871 33.3424 28.8719 32.9296C28.8407 32.0819 28.8371 30.6975 29.0618 29.6082C29.1275 29.2914 28.962 28.9719 28.6668 28.8387Z" fill="#353C6D" style="fill:#353C6D;fill:color(display-p3 0.2078 0.2353 0.4275);fill-opacity:1;"/>
</g>
</g>
</g>
</g>
</g>
<g id="Group_541">
<g id="Group_542">
<g id="Group_543">
<g id="Group_544">
<g id="Group_545">
<path id="Vector_83" d="M12.6129 21.7018C12.6129 21.7018 15.8727 24.2379 16.2282 28.9588C16.584 33.6801 12.6928 39.7043 8.84212 41.1218C8.84212 41.1218 8.05509 42.5772 8.63763 44.5091C8.63763 44.5091 16.7849 42.9618 18.5913 33.0331C20.3978 23.1043 14.9517 20.8954 14.9517 20.8954C14.2642 20.6137 13.0822 21.1608 12.6129 21.7018Z" fill="#121633" style="fill:#121633;fill:color(display-p3 0.0706 0.0863 0.2000);fill-opacity:1;"/>
</g>
</g>
</g>
</g>
<g id="Group_546">
<g id="Group_547">
<g id="Group_548">
<g id="Group_549">
<path id="Vector_84" d="M16.4358 27.4991C16.9642 27.332 17.8074 27.1252 18.6562 27.1623C19.0278 27.1787 19.3178 27.4902 19.3113 27.862C19.2953 28.8113 19.2364 30.646 19.0233 31.8191C18.9618 32.1579 18.6586 32.3984 18.3147 32.3826L16.4075 32.2946C15.9989 32.2756 15.6963 31.9065 15.7593 31.5023C15.8883 30.6715 16.0526 29.3094 15.9578 28.2109C15.9299 27.8911 16.1296 27.5957 16.4358 27.4991Z" fill="#353C6D" style="fill:#353C6D;fill:color(display-p3 0.2078 0.2353 0.4275);fill-opacity:1;"/>
</g>
</g>
</g>
</g>
</g>
<g id="Group_550">
<g id="Group_551">
<g id="Group_552">
<g id="Group_553">
<g id="Group_554">
<path id="Vector_85" d="M24.8545 49.0127L11.7435 58.9575C11.5991 59.0669 11.3937 59.039 11.284 58.8945L4.30305 49.691C4.19367 49.5465 4.22161 49.3412 4.36606 49.2315L17.4771 39.2867C17.6215 39.1773 17.8269 39.2053 17.9363 39.3497L24.9172 48.5532C25.0269 48.6977 24.9987 48.9031 24.8545 49.0127Z" fill="#121633" style="fill:#121633;fill:color(display-p3 0.0706 0.0863 0.2000);fill-opacity:1;"/>
</g>
</g>
</g>
<g id="Group_555">
<g id="Group_556">
<path id="Vector_86" d="M18.7626 48.3765L16.0603 44.8141C15.7465 44.4006 15.8276 43.811 16.241 43.4971L16.2722 43.4733C16.6857 43.1598 17.2753 43.2406 17.5892 43.654L20.2915 47.2165C20.605 47.6299 20.5242 48.2196 20.1107 48.5334L20.0795 48.5572C19.6661 48.871 19.0764 48.7899 18.7626 48.3765Z" fill="#F2F7F9" style="fill:#F2F7F9;fill:color(display-p3 0.9490 0.9686 0.9765);fill-opacity:1;"/>
</g>
</g>
<g id="Group_557">
<g id="Group_558">
<g id="Group_559">
<path id="Vector_87" d="M24.8564 49.0114L11.7454 58.9562C11.601 59.0656 11.3956 59.0377 11.2859 58.8932L10.4531 57.7953L24.0864 47.454L24.9191 48.552C25.0288 48.6964 25.0006 48.9018 24.8564 49.0114Z" fill="#353C6D" style="fill:#353C6D;fill:color(display-p3 0.2078 0.2353 0.4275);fill-opacity:1;"/>
</g>
</g>
</g>
</g>
<g id="Group_560">
<g id="Group_561">
<g id="Group_562">
<g id="Group_563">
<path id="Vector_88" d="M14.622 46.296L13.6156 44.831C13.275 44.3409 12.9424 43.8455 12.6108 43.3527C11.9492 42.3671 11.3024 41.3795 10.7047 40.3975C10.4039 39.9083 10.1213 39.4173 9.85796 38.9379C9.72659 38.698 9.60384 38.46 9.48971 38.2275C9.37498 37.996 9.27037 37.7689 9.18269 37.5561C9.11879 37.4001 9.06232 37.2491 9.02071 37.1195C9.0424 37.0749 9.06707 37.025 9.09471 36.9718C9.14197 36.8803 9.19576 36.7798 9.25402 36.6758C9.37142 36.4671 9.50249 36.2412 9.64277 36.0127C9.78276 35.7835 9.93137 35.5493 10.0847 35.3139C10.3915 34.8423 10.7139 34.3623 11.0471 33.8831C11.3788 33.4026 11.7191 32.9211 12.0648 32.4396C12.4084 31.9566 12.7603 31.476 13.1116 30.9927L14.1741 29.5447L15.1201 28.2703C14.7094 27.6306 14.2868 26.9985 13.8585 26.3728C13.0132 25.1382 12.123 23.9229 11.4017 22.6122C11.3512 22.6776 11.3006 22.7433 11.2498 22.8086C10.8688 23.2987 10.4991 23.7972 10.1272 24.2941C9.75423 24.7908 9.39282 25.296 9.02903 25.801L8.48631 26.5616L7.95103 27.3299C7.24009 28.3588 6.5458 29.405 5.86845 30.4875C5.5317 31.0308 5.19704 31.5812 4.87011 32.1548C4.70694 32.442 4.54466 32.7341 4.38386 33.037C4.22337 33.3401 4.06257 33.6516 3.90564 33.989C3.82688 34.1578 3.74812 34.3325 3.66906 34.5195C3.5903 34.7067 3.51124 34.9047 3.43189 35.1323C3.35312 35.3606 3.27139 35.6117 3.19649 35.9622C3.15993 36.1387 3.12308 36.3471 3.10495 36.6291L3.10198 36.6811L3.0999 36.7409L3.09782 36.86C3.09722 36.9067 3.09841 36.9222 3.0993 36.9486L3.10227 37.022L3.1103 37.1686L3.11535 37.2417L3.12219 37.3071C3.1317 37.3933 3.1424 37.4794 3.15429 37.5653C3.16707 37.6438 3.18104 37.7196 3.1953 37.7966C3.20957 37.8762 3.22592 37.9425 3.24226 38.0121L3.26723 38.1155L3.28001 38.1672L3.29309 38.2145L3.34718 38.4032C3.36561 38.4677 3.38463 38.5209 3.40395 38.5803C3.44229 38.6992 3.48211 38.8053 3.52224 38.9126C3.68333 39.3373 3.8569 39.6949 4.03464 40.0343C4.38951 40.7075 4.76073 41.2942 5.14325 41.8544C5.52368 42.4138 5.91779 42.9414 6.31606 43.4546C7.11586 44.4785 7.94628 45.44 8.80136 46.3715C9.22876 46.8369 9.66596 47.2908 10.1055 47.7417C10.3279 47.9652 10.5508 48.1872 10.7761 48.4086C10.8887 48.5192 11.0034 48.628 11.1181 48.7379L11.2914 48.9026L11.4727 49.0717C12.3237 49.8667 13.6581 49.8213 14.4529 48.9701C15.1409 48.2336 15.1995 47.135 14.6511 46.3373L14.622 46.296Z" fill="#716D00" style="fill:#716D00;fill:color(display-p3 0.4431 0.4275 0.0000);fill-opacity:1;"/>
</g>
</g>
</g>
</g>
<g id="Group_564">
<g id="Group_565">
<g id="Group_566">
<path id="Vector_89" d="M9.80268 47.3C9.78039 47.3 9.7575 47.2952 9.7361 47.2848C9.65793 47.248 9.62465 47.1546 9.6615 47.0768C9.70816 46.9778 10.8299 44.6467 12.9071 44.0556C12.9903 44.0318 13.0768 44.0799 13.1003 44.1632C13.1238 44.2461 13.0759 44.3326 12.9927 44.3564C11.0537 44.9083 9.95515 47.1873 9.94415 47.2105C9.9174 47.267 9.86123 47.3 9.80268 47.3Z" fill="#4C4702" style="fill:#4C4702;fill:color(display-p3 0.2980 0.2784 0.0078);fill-opacity:1;"/>
</g>
</g>
<g id="Group_567">
<g id="Group_568">
<path id="Vector_90" d="M13.0307 46.9814C12.9923 46.9814 12.954 46.9674 12.924 46.9392C12.915 46.9309 12.0228 46.0927 11.3321 45.2103C11.2789 45.1422 11.2908 45.0441 11.3588 44.9906C11.4269 44.9374 11.5253 44.9493 11.5785 45.0174C12.2549 45.8808 13.1293 46.7026 13.1382 46.7106C13.2013 46.7698 13.2045 46.8687 13.1454 46.9318C13.1142 46.9647 13.0726 46.9814 13.0307 46.9814Z" fill="#4C4702" style="fill:#4C4702;fill:color(display-p3 0.2980 0.2784 0.0078);fill-opacity:1;"/>
</g>
</g>
<g id="Group_569">
<g id="Group_570">
<path id="Vector_91" d="M13.2544 45.4133C13.2544 45.5364 13.1546 45.6363 13.0315 45.6363C12.9085 45.6363 12.8086 45.5364 12.8086 45.4133C12.8086 45.2903 12.9085 45.1904 13.0315 45.1904C13.1546 45.1904 13.2544 45.29 13.2544 45.4133Z" fill="#4C4702" style="fill:#4C4702;fill:color(display-p3 0.2980 0.2784 0.0078);fill-opacity:1;"/>
</g>
</g>
</g>
<g id="Group_571">
<g id="Group_572">
<g id="Group_573">
<path id="Vector_92" d="M15.087 29.5021H14.4347C14.3482 29.5021 14.2783 29.432 14.2783 29.3458C14.2783 29.2596 14.3485 29.1895 14.4347 29.1895H15.087C15.1735 29.1895 15.2434 29.2593 15.2434 29.3458C15.2434 29.4323 15.1735 29.5021 15.087 29.5021Z" fill="#4C4702" style="fill:#4C4702;fill:color(display-p3 0.2980 0.2784 0.0078);fill-opacity:1;"/>
</g>
<g id="Group_574">
<path id="Vector_93" d="M10.2052 35.4182C10.1746 35.4182 10.1437 35.4093 10.1163 35.3905C10.0453 35.3415 10.0275 35.244 10.0765 35.173L15.268 27.663C15.317 27.5919 15.4142 27.5741 15.4855 27.6231C15.5566 27.6722 15.5744 27.7697 15.525 27.8407L10.3336 35.3507C10.3036 35.3947 10.2548 35.4182 10.2052 35.4182Z" fill="#4C4702" style="fill:#4C4702;fill:color(display-p3 0.2980 0.2784 0.0078);fill-opacity:1;"/>
</g>
</g>
</g>
<g id="Group_575">
<g id="Group_576">
<g id="Group_577">
<g id="Group_578">
<g id="Group_579">
<path id="Vector_94" d="M8.89702 37.1164C8.94339 37.1164 8.98946 37.0956 9.01977 37.0557C9.07149 36.988 9.05841 36.8914 8.99064 36.8397C8.94398 36.804 7.83151 35.9644 6.57072 35.8068C6.48691 35.7961 6.40904 35.8562 6.39864 35.9409C6.38823 36.0253 6.44797 36.1026 6.53268 36.113C7.70905 36.2601 8.793 37.0768 8.8037 37.0852C8.83163 37.1063 8.86462 37.1164 8.89702 37.1164Z" fill="#4C4702" style="fill:#4C4702;fill:color(display-p3 0.2980 0.2784 0.0078);fill-opacity:1;"/>
</g>
</g>
</g>
</g>
</g>
<g id="Group_580">
<g id="Group_581">
<g id="Group_582">
<g id="Group_583">
<g id="Group_584">
<g id="Group_585">
<g id="Group_586">
<path id="Vector_95" d="M14.4361 46.0331C14.5645 46.1767 14.9607 46.6754 15.0142 46.7236C15.9406 47.5546 17.3084 47.5177 17.904 48.056C17.904 48.056 22.1182 50.4343 21.2893 50.9615C20.8327 51.2516 20.0267 50.9827 19.3954 50.6831C19.4248 50.7321 19.4534 50.7761 19.4816 50.8174C20.0692 51.6891 21.7621 52.4919 21.3211 53.234C20.8806 53.9771 19.8029 53.1639 19.8029 53.1639C19.8029 53.1639 19.58 53.9928 18.3299 53.7081C18.3299 53.7081 17.9747 54.3947 17.1725 54.2024C17.1725 54.2024 16.5968 54.957 15.8101 54.5775C15.1417 54.2547 13.6455 52.4212 11.6494 49.227C12.0744 47.9745 12.9084 46.9319 14.4361 46.0331Z" fill="#FF9D7D" style="fill:#FF9D7D;fill:color(display-p3 1.0000 0.6157 0.4902);fill-opacity:1;"/>
</g>
</g>
</g>
</g>
</g>
</g>
</g>
<g id="Group_587">
<g id="Group_588">
<g id="Group_589">
<g id="Group_590">
<g id="Group_591">
<path id="Vector_96" d="M8.73389 36.9761C8.75054 36.9761 8.76777 36.9735 8.78442 36.9675C8.86496 36.9396 8.90747 36.8519 8.87983 36.7714C8.66167 36.1407 8.07259 35.5647 8.04763 35.5406C7.9864 35.4815 7.88861 35.4829 7.82977 35.5439C7.77032 35.6051 7.77181 35.7026 7.83304 35.762C7.83868 35.7674 8.39477 36.3122 8.58856 36.8724C8.61025 36.936 8.66999 36.9761 8.73389 36.9761Z" fill="#4C4702" style="fill:#4C4702;fill:color(display-p3 0.2980 0.2784 0.0078);fill-opacity:1;"/>
</g>
</g>
</g>
</g>
</g>
</g>
</g>
</g>
</svg>
