<svg width="105" height="106" viewBox="0 0 105 106" fill="none" xmlns="http://www.w3.org/2000/svg">
<g id="Group 180">
<path id="Vector" d="M52.4146 24.6416C44.6513 24.6416 43.6821 24.6773 40.6339 24.8131C37.5905 24.9559 35.5186 25.4346 33.6969 26.1419C31.8179 26.8706 30.2224 27.8493 28.634 29.4377C27.0456 31.0261 26.0645 32.6193 25.3382 34.5006C24.6309 36.3223 24.1499 38.3942 24.0094 41.4376C23.8665 44.4858 23.8379 45.455 23.8379 53.2183C23.8379 60.9817 23.8736 61.9509 24.0094 64.9991C24.1522 68.0402 24.6309 70.1144 25.3382 71.9361C26.0669 73.8127 27.0456 75.4106 28.634 76.999C30.2224 78.585 31.8156 79.5685 33.6969 80.2948C35.521 80.9997 37.5928 81.4831 40.6339 81.6236C43.6821 81.7665 44.6513 81.7951 52.4146 81.7951C60.178 81.7951 61.1472 81.7594 64.1954 81.6236C67.2364 81.4808 69.3106 80.9997 71.1324 80.2948C73.0089 79.5661 74.6069 78.585 76.1953 76.999C77.7813 75.4106 78.7648 73.8198 79.4911 71.9361C80.196 70.1144 80.6794 68.0402 80.8199 64.9991C80.9628 61.9509 80.9914 60.9817 80.9914 53.2183C80.9914 45.455 80.9557 44.4858 80.8199 41.4376C80.677 38.3965 80.196 36.32 79.4911 34.5006C78.7624 32.6217 77.7813 31.0261 76.1953 29.4377C74.6069 27.8493 73.0161 26.8682 71.1324 26.1419C69.3106 25.4346 67.2364 24.9536 64.1954 24.8131C61.1472 24.6702 60.178 24.6416 52.4146 24.6416ZM52.4146 29.7854C60.0422 29.7854 60.9519 29.8235 63.9644 29.9545C66.7506 30.0855 68.2628 30.5475 69.2678 30.9428C70.6061 31.4595 71.5539 32.0787 72.5589 33.0765C73.5567 34.0767 74.1758 35.0269 74.6926 36.3652C75.0831 37.3702 75.5499 38.8823 75.6761 41.6686C75.8118 44.6834 75.8428 45.5884 75.8428 53.2183C75.8428 60.8483 75.8071 61.7557 75.6666 64.7681C75.5213 67.5544 75.0569 69.0665 74.664 70.0715C74.1306 71.4098 73.5233 72.3576 72.5231 73.3626C71.5253 74.3604 70.5609 74.9795 69.2368 75.4963C68.2366 75.8869 66.7006 76.3536 63.9144 76.4798C60.8805 76.6156 59.9875 76.6465 52.3432 76.6465C44.6965 76.6465 43.8035 76.6108 40.772 76.4703C37.9834 76.325 36.4474 75.8607 35.4472 75.4677C34.0922 74.9343 33.1611 74.327 32.1632 73.3269C31.1607 72.329 30.5201 71.3646 30.02 70.0405C29.6271 69.0403 29.1651 67.5043 29.0198 64.7181C28.9126 61.7176 28.8745 60.7912 28.8745 53.1826C28.8745 45.5717 28.9126 44.6429 29.0198 41.6067C29.1651 38.8204 29.6271 37.2868 30.02 36.2866C30.5201 34.9292 31.1607 34.0005 32.1632 32.9979C33.1611 32.0001 34.0922 31.3571 35.4472 30.8594C36.4474 30.4641 37.95 29.9997 40.7363 29.8569C43.7726 29.7497 44.6656 29.714 52.3075 29.714L52.4146 29.7854ZM52.4146 38.5442C44.306 38.5442 37.7405 45.1168 37.7405 53.2183C37.7405 61.327 44.3131 67.8925 52.4146 67.8925C60.5233 67.8925 67.0888 61.3199 67.0888 53.2183C67.0888 45.1097 60.5161 38.5442 52.4146 38.5442ZM52.4146 62.7439C47.1518 62.7439 42.8891 58.4812 42.8891 53.2183C42.8891 47.9555 47.1518 43.6928 52.4146 43.6928C57.6775 43.6928 61.9402 47.9555 61.9402 53.2183C61.9402 58.4812 57.6775 62.7439 52.4146 62.7439ZM71.0991 37.9655C71.0991 39.8587 69.5607 41.3947 67.6699 41.3947C65.7766 41.3947 64.2406 39.8563 64.2406 37.9655C64.2406 36.0747 65.779 34.5387 67.6699 34.5387C69.5583 34.5363 71.0991 36.0747 71.0991 37.9655Z" fill="#FCFF49" style="fill:#FCFF49;fill:color(display-p3 0.9882 1.0000 0.2863);fill-opacity:1;"/>
<circle id="Ellipse 18" cx="52.4141" cy="53.2188" r="51.2" stroke="#FCFF49" style="stroke:#FCFF49;stroke:color(display-p3 0.9882 1.0000 0.2863);stroke-opacity:1;" stroke-width="2.3814"/>
</g>
</svg>
