<svg width="106" height="106" viewBox="0 0 106 106" fill="none" xmlns="http://www.w3.org/2000/svg">
<g id="Group 179">
<path id="Vector" d="M73.3213 73.3459H64.8578V60.0839C64.8578 56.9214 64.7935 52.8516 60.4475 52.8516C56.0348 52.8516 55.3608 56.2927 55.3608 59.8505V73.3459H46.8973V46.0742H55.0274V49.7915H55.137C56.2729 47.6483 59.0353 45.3859 63.1623 45.3859C71.7377 45.3859 73.3237 51.0298 73.3237 58.3765L73.3213 73.3459ZM37.3384 42.3425C34.6141 42.3425 32.4256 40.1373 32.4256 37.4249C32.4256 34.7149 34.6165 32.5121 37.3384 32.5121C40.0532 32.5121 42.2536 34.7149 42.2536 37.4249C42.2536 40.1373 40.0508 42.3425 37.3384 42.3425ZM41.5821 73.3459H33.0948V46.0742H41.5821V73.3459ZM77.5554 24.6416H28.8464C26.515 24.6416 24.6289 26.4848 24.6289 28.759V77.6777C24.6289 79.9543 26.515 81.7951 28.8464 81.7951H77.5483C79.8773 81.7951 81.7824 79.9543 81.7824 77.6777V28.759C81.7824 26.4848 79.8773 24.6416 77.5483 24.6416H77.5554Z" fill="#FCFF49" style="fill:#FCFF49;fill:color(display-p3 0.9882 1.0000 0.2863);fill-opacity:1;"/>
<circle id="Ellipse 19" cx="53.2052" cy="53.2188" r="51.2" stroke="#FCFF49" style="stroke:#FCFF49;stroke:color(display-p3 0.9882 1.0000 0.2863);stroke-opacity:1;" stroke-width="2.3814"/>
</g>
</svg>
