<svg width="23" height="22" viewBox="0 0 23 22" fill="none" xmlns="http://www.w3.org/2000/svg">
<path id="Vector" d="M11.4202 10.258C10.1607 10.258 9.08199 9.79984 8.18397 8.88356C7.28595 7.96728 6.83745 6.86712 6.83847 5.58309C6.83847 4.29698 7.28697 3.19578 8.18397 2.2795C9.08097 1.3653 10.1597 0.908203 11.4202 0.908203C12.6807 0.908203 13.7594 1.3653 14.6564 2.2795C15.5534 3.19578 16.0019 4.29698 16.0019 5.58309C16.0019 6.86816 15.5534 7.96832 14.6564 8.88356C13.7594 9.7988 12.6807 10.2569 11.4202 10.258ZM0.729492 21.5244V18.9611C0.729492 18.318 0.912762 17.7165 1.2793 17.1565C1.64686 16.5956 2.14067 16.1603 2.76073 15.8507C4.20245 15.1453 5.64467 14.6165 7.08741 14.2644C8.53117 13.9111 9.97543 13.7345 11.4202 13.7345C12.866 13.7345 14.3103 13.9111 15.753 14.2644C17.1957 14.6176 18.6375 15.1463 20.0782 15.8507C20.6992 16.1603 21.193 16.5956 21.5596 17.1565C21.9271 17.7165 22.1109 18.318 22.1109 18.9611V21.526L0.729492 21.5244Z" fill="black" style="fill:black;fill-opacity:1;"/>
</svg>
