<svg width="40" height="39" viewBox="0 0 40 39" fill="none" xmlns="http://www.w3.org/2000/svg">
<path id="Vector" d="M19.7439 17.9475C17.4512 17.9475 15.4876 17.1135 13.8529 15.4456C12.2182 13.7776 11.4018 11.775 11.4036 9.4376C11.4036 7.09644 12.22 5.0919 13.8529 3.42396C15.4857 1.75981 17.4494 0.927734 19.7439 0.927734C22.0384 0.927734 24.0021 1.75981 25.6349 3.42396C27.2678 5.0919 28.0842 7.09644 28.0842 9.4376C28.0842 11.7769 27.2678 13.7795 25.6349 15.4456C24.0021 17.1116 22.0384 17.9456 19.7439 17.9475ZM0.283203 38.4563V33.79C0.283203 32.6194 0.616816 31.5245 1.28404 30.5052C1.95312 29.484 2.85202 28.6917 3.98074 28.1281C6.60515 26.8441 9.23049 25.8815 11.8568 25.2404C14.4849 24.5975 17.1139 24.276 19.7439 24.276C22.3757 24.276 25.0048 24.5975 27.631 25.2404C30.2573 25.8834 32.8817 26.846 35.5043 28.1281C36.6349 28.6917 37.5338 29.484 38.201 30.5052C38.8701 31.5245 39.2046 32.6194 39.2046 33.79V38.4591L0.283203 38.4563Z" fill="black" style="fill:black;fill-opacity:1;"/>
</svg>
