<svg width="40" height="34" viewBox="0 0 40 34" fill="none" xmlns="http://www.w3.org/2000/svg">
<path d="M8.952 33.6C6.39201 33.6 4.34401 32.832 2.80801 31.296C1.35734 29.6747 0.632004 27.456 0.632004 24.64C0.632004 14.144 5.32534 6.25066 14.712 0.959999L15.992 2.88C12.5787 5.184 10.0187 7.744 8.312 10.56C6.60534 13.2907 5.75201 16.4907 5.75201 20.16L9.592 18.88C11.5547 18.88 13.2187 19.5627 14.584 20.928C15.9493 22.2933 16.632 23.9573 16.632 25.92C16.632 28.1387 15.9067 29.9733 14.456 31.424C13.0053 32.8747 11.1707 33.6 8.952 33.6ZM31.992 33.6C29.432 33.6 27.384 32.832 25.848 31.296C24.3973 29.6747 23.672 27.456 23.672 24.64C23.672 14.144 28.3653 6.25066 37.752 0.959999L39.032 2.88C35.6187 5.184 33.0587 7.744 31.352 10.56C29.6453 13.2907 28.792 16.4907 28.792 20.16L32.632 18.88C34.5947 18.88 36.2587 19.5627 37.624 20.928C38.9893 22.2933 39.672 23.9573 39.672 25.92C39.672 28.1387 38.9467 29.9733 37.496 31.424C36.0453 32.8747 34.2107 33.6 31.992 33.6Z" fill="black" style="fill:black;fill-opacity:1;"/>
</svg>
