<svg width="34" height="42" viewBox="0 0 34 42" fill="none" xmlns="http://www.w3.org/2000/svg">
<path id="Vector" d="M7.20487 16.911C6.81207 17.6042 6.33122 18.1412 5.76233 18.5218C5.19345 18.9025 4.49588 19.0996 3.66964 19.1132C3.12784 19.1132 2.63345 19.0384 2.18647 18.8889C1.73949 18.7394 1.34668 18.5083 1.00806 18.1956C0.669435 17.8829 0.418853 17.5159 0.256314 17.0945C0.0937746 16.6731 0.00573245 16.1701 -0.0078125 15.5855C-0.0078125 14.9738 0.0802296 14.4436 0.256314 13.995C0.432398 13.5464 0.689752 13.159 1.02838 12.8327C1.367 12.5065 1.76658 12.2482 2.2271 12.0579C2.68763 11.8676 3.20911 11.7248 3.79154 11.6297L7.24551 11.1199C7.24551 10.7121 7.21164 10.3246 7.14392 9.95759C7.07619 9.59055 6.94752 9.26429 6.75789 8.97882C6.56826 8.69334 6.32445 8.46904 6.02646 8.30591C5.72847 8.14278 5.34244 8.05442 4.86837 8.04083C4.15049 8.04083 3.48001 8.16997 2.85694 8.42826C2.23388 8.68655 1.65144 9.05359 1.10965 9.52938V7.53105C1.32636 7.36792 1.59726 7.21839 1.92234 7.08245C2.24742 6.94651 2.59959 6.83096 2.97885 6.7358C3.35811 6.64064 3.72382 6.55907 4.07599 6.4911C4.42816 6.42313 4.74646 6.38915 5.03091 6.38915C5.76233 6.38915 6.3854 6.4911 6.90011 6.69502C7.41482 6.89893 7.83471 7.20479 8.15979 7.61261C8.48487 8.02044 8.7219 8.49623 8.8709 9.03999C9.01989 9.58375 9.09439 10.2091 9.09439 10.916V18.8073H7.24551V16.911H7.20487ZM4.09631 17.4615C4.59747 17.4615 5.03768 17.3664 5.41694 17.176C5.7962 16.9857 6.12805 16.7206 6.41249 16.3808C6.69694 16.0409 6.90011 15.6603 7.02201 15.2389C7.14392 14.8175 7.21842 14.3689 7.24551 13.8931V12.6696L4.46202 13.0978C4.08276 13.1658 3.73737 13.2406 3.42583 13.3221C3.1143 13.4037 2.8434 13.526 2.61313 13.6892C2.38287 13.8523 2.20679 14.0766 2.08488 14.3621C1.96298 14.6475 1.89525 15.0078 1.88171 15.4428C1.88171 16.0953 2.09843 16.5915 2.53186 16.9313C2.9653 17.2712 3.48678 17.4479 4.09631 17.4615ZM13.5439 17.0741V18.8073H11.695V0.842773H13.5439V8.81569H13.5845C14.0315 8.01364 14.6207 7.4087 15.3522 7.00088C16.0836 6.59306 16.9031 6.38915 17.8106 6.38915C18.6639 6.38915 19.3885 6.55907 19.9845 6.89893C20.5805 7.23878 21.0681 7.69418 21.4474 8.26513C21.8266 8.83608 22.1043 9.475 22.2804 10.1819C22.4565 10.8888 22.5445 11.6229 22.5445 12.3841C22.5445 13.2134 22.4497 14.029 22.2601 14.8311C22.0704 15.6331 21.7589 16.3468 21.3255 16.9721C20.892 17.5975 20.3502 18.114 19.7001 18.5218C19.0499 18.9297 18.244 19.1268 17.2823 19.1132C16.5102 19.1132 15.7991 18.9433 15.149 18.6034C14.4988 18.2636 13.9773 17.7538 13.5845 17.0741H13.5439ZM13.5439 12.1598V13.8523C13.5439 14.3825 13.6252 14.865 13.7877 15.3001C13.9503 15.7351 14.1941 16.1157 14.5191 16.442C14.8442 16.7682 15.2167 17.0197 15.6366 17.1964C16.0565 17.3731 16.5373 17.4615 17.0791 17.4615C17.7699 17.4615 18.3456 17.3052 18.8061 16.9925C19.2666 16.6799 19.6324 16.272 19.9033 15.769C20.1742 15.2661 20.3638 14.7223 20.4721 14.1378C20.5805 13.5532 20.6415 12.9619 20.655 12.3637C20.655 11.8336 20.6008 11.3102 20.4925 10.7936C20.3841 10.2771 20.1945 9.81485 19.9236 9.40703C19.6527 8.99921 19.3073 8.67295 18.8874 8.42826C18.4675 8.18357 17.9528 8.05442 17.3433 8.04083C16.7337 8.04083 16.1919 8.14278 15.7179 8.34669C15.2438 8.5506 14.8442 8.84288 14.5191 9.22351C14.1941 9.60414 13.9503 10.0392 13.7877 10.5285C13.6252 11.0179 13.5439 11.5617 13.5439 12.1598ZM30.6105 8.04083C29.9333 8.04083 29.3441 8.17677 28.8429 8.44865C28.3418 8.72053 27.9219 9.08077 27.5832 9.52938C27.2446 9.97798 26.994 10.4946 26.8315 11.0791C26.669 11.6636 26.5877 12.2618 26.5877 12.8735C26.5877 13.4852 26.6622 14.0698 26.8112 14.6271C26.9602 15.1845 27.1972 15.6739 27.5223 16.0953C27.8474 16.5167 28.2537 16.8498 28.7413 17.0945C29.229 17.3392 29.8182 17.4615 30.5089 17.4615C31.0237 17.4615 31.518 17.3664 31.9921 17.176C32.4662 16.9857 32.9132 16.7274 33.3331 16.4012V18.2568C32.859 18.5694 32.3578 18.7869 31.8296 18.9093C31.3013 19.0316 30.7528 19.0996 30.1839 19.1132C29.3034 19.1132 28.5246 18.9569 27.8474 18.6442C27.1701 18.3315 26.6012 17.8965 26.1407 17.3392C25.6802 16.7818 25.3212 16.1361 25.0639 15.402C24.8065 14.6679 24.6846 13.8795 24.6982 13.0366C24.6982 12.0987 24.8268 11.2286 25.0842 10.4266C25.3416 9.62454 25.7208 8.91764 26.222 8.30591C26.7231 7.69418 27.3462 7.22518 28.0912 6.89893C28.8361 6.57267 29.703 6.40274 30.6918 6.38915C31.1523 6.38915 31.6061 6.43673 32.0531 6.53189C32.5001 6.62705 32.9335 6.78338 33.3534 7.00088V8.97882C32.947 8.67975 32.5136 8.44865 32.0531 8.28552C31.5925 8.12239 31.1117 8.04083 30.6105 8.04083ZM14.2753 38.1381L28.9851 23.4157L30.8137 25.2509L14.2753 41.8493L5.57948 33.0811L7.40805 31.2459L14.2753 38.1381Z" fill="black" style="fill:black;fill-opacity:1;"/>
</svg>
