<svg width="37" height="47" viewBox="0 0 37 47" fill="none" xmlns="http://www.w3.org/2000/svg">
<path id="Vector" d="M35.8109 41.2103C35.7994 41.1869 35.7897 41.1617 35.7782 41.1383L27.1981 22.6983L30.9218 16.805C30.9334 16.7875 30.9449 16.77 30.9545 16.7525C31.3138 16.1483 31.5036 15.457 31.5036 14.7524C31.5036 14.0479 31.3138 13.3565 30.9545 12.7523C30.9276 12.7057 30.8968 12.6591 30.8659 12.6143L26.8764 6.86873V3.09015C26.8764 2.47154 26.6329 1.87827 26.1994 1.44085C25.7658 1.00343 25.1779 0.75769 24.5648 0.75769C23.9517 0.75769 23.3637 1.00343 22.9302 1.44085C22.4967 1.87827 22.2531 2.47154 22.2531 3.09015V6.7832L21.4094 7.84642C21.0484 8.30185 20.5906 8.66951 20.0697 8.92217C19.5489 9.17483 18.9783 9.30602 18.4004 9.30602C17.8225 9.30602 17.2519 9.17483 16.7311 8.92217C16.2102 8.66951 15.7523 8.30185 15.3914 7.84642L14.5477 6.7832V3.09015C14.5477 2.47154 14.3041 1.87827 13.8706 1.44085C13.4371 1.00343 12.8491 0.75769 12.236 0.75769C11.6229 0.75769 11.035 1.00343 10.6014 1.44085C10.1679 1.87827 9.92437 2.47154 9.92437 3.09015V6.86873L5.93871 12.6143C5.90789 12.6591 5.87707 12.7057 5.8501 12.7523C5.49083 13.3565 5.30105 14.0479 5.30105 14.7524C5.30105 15.457 5.49083 16.1483 5.8501 16.7525C5.8501 16.77 5.87129 16.7875 5.88285 16.805L9.60267 22.6983L1.02262 41.1383C1.01106 41.1617 1.00143 41.1869 0.98987 41.2103C0.738674 41.8015 0.636823 42.4464 0.693451 43.0872C0.750078 43.7279 0.963413 44.3445 1.31433 44.8816C1.66524 45.4187 2.14277 45.8595 2.70409 46.1645C3.26541 46.4696 3.89298 46.6293 4.53054 46.6293H32.2703C32.908 46.6296 33.5358 46.4701 34.0974 46.1652C34.6589 45.8603 35.1367 45.4195 35.4879 44.8824C35.839 44.3453 36.0525 43.7286 36.1092 43.0877C36.166 42.4468 36.0641 41.8017 35.8129 41.2103H35.8109ZM18.4004 13.9749C19.5186 13.9772 20.626 13.755 21.6582 13.3212C22.6904 12.8874 23.6267 12.2507 24.4126 11.4481L26.7242 14.7719L23.2972 20.1948H13.5036L10.0823 14.7758L12.394 11.452C13.1795 12.2531 14.115 12.8888 15.1462 13.3219C16.1773 13.755 17.2835 13.977 18.4004 13.9749ZM5.74608 41.9644L13.7039 24.8597H23.0969L31.0547 41.9644H5.74608Z" fill="black" style="fill:black;fill-opacity:1;"/>
</svg>
