<svg width="37" height="47" viewBox="0 0 37 47" fill="none" xmlns="http://www.w3.org/2000/svg">
<path id="Vector" d="M35.8104 41.2104C35.7989 41.1871 35.7892 41.1618 35.7777 41.1385L27.1976 22.6985L30.9213 16.8051C30.9329 16.7876 30.9444 16.7701 30.9541 16.7526C31.3133 16.1485 31.5031 15.4571 31.5031 14.7526C31.5031 14.048 31.3133 13.3566 30.9541 12.7525C30.9271 12.7058 30.8963 12.6592 30.8654 12.6145L26.8759 6.86885V3.09027C26.8759 2.47166 26.6324 1.87839 26.1989 1.44097C25.7654 1.00355 25.1774 0.757813 24.5643 0.757812C23.9512 0.757813 23.3632 1.00355 22.9297 1.44097C22.4962 1.87839 22.2526 2.47166 22.2526 3.09027V6.78333L21.4089 7.84654C21.048 8.30197 20.5901 8.66963 20.0692 8.92229C19.5484 9.17496 18.9778 9.30615 18.3999 9.30615C17.822 9.30615 17.2514 9.17496 16.7306 8.92229C16.2097 8.66963 15.7519 8.30197 15.3909 7.84654L14.5472 6.78333V3.09027C14.5472 2.47166 14.3036 1.87839 13.8701 1.44097C13.4366 1.00355 12.8486 0.757813 12.2355 0.757812C11.6224 0.757813 11.0345 1.00355 10.6009 1.44097C10.1674 1.87839 9.92388 2.47166 9.92388 3.09027V6.86885L5.93823 12.6145C5.9074 12.6592 5.87658 12.7058 5.84961 12.7525C5.49034 13.3566 5.30056 14.048 5.30056 14.7526C5.30056 15.4571 5.49034 16.1485 5.84961 16.7526C5.84961 16.7701 5.8708 16.7876 5.88236 16.8051L9.60218 22.6985L1.02213 41.1385C1.01057 41.1618 1.00094 41.1871 0.989382 41.2104C0.738185 41.8016 0.636335 42.4466 0.692962 43.0873C0.74959 43.7281 0.962924 44.3446 1.31384 44.8817C1.66475 45.4188 2.14228 45.8596 2.7036 46.1646C3.26492 46.4697 3.8925 46.6294 4.53005 46.6295H32.2698C32.9075 46.6297 33.5353 46.4702 34.0969 46.1653C34.6585 45.8604 35.1362 45.4197 35.4874 44.8825C35.8385 44.3454 36.052 43.7287 36.1087 43.0878C36.1655 42.4469 36.0636 41.8018 35.8124 41.2104H35.8104ZM18.3999 13.9751C19.5181 13.9774 20.6255 13.7551 21.6577 13.3213C22.6899 12.8875 23.6262 12.2508 24.4121 11.4482L26.7238 14.772L23.2967 20.195H13.5031L10.0818 14.7759L12.3935 11.4521C13.179 12.2533 14.1146 12.8889 15.1457 13.322C16.1768 13.7551 17.283 13.9771 18.3999 13.9751ZM5.74559 41.9646L13.7034 24.8599H23.0964L31.0542 41.9646H5.74559Z" fill="black" style="fill:black;fill-opacity:1;"/>
</svg>
