<svg width="27" height="26" viewBox="0 0 27 26" fill="none" xmlns="http://www.w3.org/2000/svg">
<g id="Group">
<path id="Vector" d="M16.5082 17.0115L17.5981 19.3552C17.5981 19.3552 22.4977 20.3956 22.4977 22.8702C22.4977 24.6283 20.3178 24.6283 20.3178 24.6283H14.5125L11.6543 23.0404" stroke="black" style="stroke:black;stroke-opacity:1;" stroke-width="2.74674" stroke-linecap="round" stroke-linejoin="round"/>
<path id="Vector_2" d="M9.97585 17.0115L8.88719 19.3552C8.88719 19.3552 3.98633 20.3956 3.98633 22.8702C3.98633 24.6283 6.16618 24.6283 6.16618 24.6283H8.79573L11.6539 23.0404L15.1473 20.8173" stroke="black" style="stroke:black;stroke-opacity:1;" stroke-width="2.74674" stroke-linecap="round" stroke-linejoin="round"/>
<path id="Vector_3" d="M1.80859 18.1829C1.80859 18.1829 4.53087 17.5973 6.1645 17.0117C7.79685 8.80797 12.6952 9.39359 13.2414 9.39359C13.7864 9.39359 18.686 8.80797 20.3183 17.0117C21.9519 17.596 24.6742 18.1829 24.6742 18.1829M13.2414 6.84407C13.9152 6.84407 14.5614 6.5764 15.0379 6.09994C15.5144 5.62348 15.782 4.97726 15.782 4.30344C15.782 3.62963 15.5144 2.98341 15.0379 2.50695C14.5614 2.03049 13.9152 1.76282 13.2414 1.76282C12.5676 1.76282 11.9214 2.03049 11.4449 2.50695C10.9685 2.98341 10.7008 3.62963 10.7008 4.30344C10.7008 4.97726 10.9685 5.62348 11.4449 6.09994C11.9214 6.5764 12.5676 6.84407 13.2414 6.84407Z" stroke="black" style="stroke:black;stroke-opacity:1;" stroke-width="2.74674" stroke-linecap="round" stroke-linejoin="round"/>
</g>
</svg>
