<svg width="47" height="47" viewBox="0 0 47 47" fill="none" xmlns="http://www.w3.org/2000/svg">
<g id="Group">
<path id="Vector" d="M29.3064 30.6006L31.2904 34.867C31.2904 34.867 40.2093 36.7608 40.2093 41.2654C40.2093 44.4657 36.2413 44.4657 36.2413 44.4657H25.6736L20.4707 41.5752" stroke="black" style="stroke:black;stroke-opacity:1;" stroke-width="5" stroke-linecap="round" stroke-linejoin="round"/>
<path id="Vector_2" d="M17.4166 30.6006L15.4349 34.867C15.4349 34.867 6.51367 36.7608 6.51367 41.2654C6.51367 44.4657 10.4817 44.4657 10.4817 44.4657H15.2684L20.4713 41.5752L26.8304 37.5285" stroke="black" style="stroke:black;stroke-opacity:1;" stroke-width="5" stroke-linecap="round" stroke-linejoin="round"/>
<path id="Vector_3" d="M2.54883 32.7328C2.54883 32.7328 7.5043 31.6668 10.478 30.6008C13.4495 15.6673 22.3661 16.7333 23.3604 16.7333C24.3524 16.7333 33.2713 15.6673 36.2428 30.6008C39.2165 31.6645 44.172 32.7328 44.172 32.7328M23.3604 12.0924C24.587 12.0924 25.7633 11.6051 26.6306 10.7378C27.4979 9.87047 27.9852 8.69414 27.9852 7.46757C27.9852 6.241 27.4979 5.06466 26.6306 4.19734C25.7633 3.33003 24.587 2.84277 23.3604 2.84277C22.1338 2.84277 20.9575 3.33003 20.0902 4.19734C19.2229 5.06466 18.7356 6.241 18.7356 7.46757C18.7356 8.69414 19.2229 9.87047 20.0902 10.7378C20.9575 11.6051 22.1338 12.0924 23.3604 12.0924Z" stroke="black" style="stroke:black;stroke-opacity:1;" stroke-width="5" stroke-linecap="round" stroke-linejoin="round"/>
</g>
</svg>
